<svg xmlns="http://www.w3.org/2000/svg" xmlns:xlink="http://www.w3.org/1999/xlink" viewBox="0 0 763.19 600.28"><defs><style>.cls-1{fill:none;}.cls-2{clip-path:url(#clip-path);}.cls-3{opacity:0.31;}.cls-4{fill:#d48050;}.cls-5{fill:#527c68;}.cls-6{fill:#333;}</style><clipPath id="clip-path" transform="translate(0 -0.13)"><rect class="cls-1" x="252.09" width="281" height="601"/></clipPath></defs><title>Asset 6</title><g id="Layer_2" data-name="Layer 2"><g id="text"><g class="cls-2"><image class="cls-3" width="632" height="421" transform="translate(0) scale(1.21 1.43)" xlink:href="../../../190325 2/190325/design_underA/Links/BGT046_6.JPG"/></g><path class="cls-4" d="M445,53l-.47-.76c7.7-2.45,12-7.13,12.81-14.11H446.42l-.36-.79h11.37c0-1,0-1.58,0-1.83V29.2h-12l-.36-.83h22.6l1.91-2.3a22.55,22.55,0,0,1,2.56,2.45l-.4.68H459.49v6.26c0,.43,0,1-.07,1.83h7.42L468.67,35a24.89,24.89,0,0,1,2.41,2.38l-.36.68H459.78a22.8,22.8,0,0,0,13.39,12.46,6,6,0,0,0-1.76,1.94,23.38,23.38,0,0,1-12.17-13.35C458.05,46.37,453.26,51,445,53Z" transform="translate(0 -0.13)"/><path class="cls-4" d="M462.08,74.49c.11-1.15.18-2.16.18-3.13V66.5c2,0,3,.29,3,.76,0,.29-.4.58-1.22.86v3.24c0,1.26-.07,2.27-.14,3.13h5.4l1.4-1.91c.68.68,1.33,1.37,1.94,2.09l-.36.61h-7.88a19.8,19.8,0,0,0,8.6,9.61,6.86,6.86,0,0,0-1.58,1.84A19.94,19.94,0,0,1,463.7,76a14,14,0,0,1-3,7,16.86,16.86,0,0,1-5.76,4l-.43-.76a14.56,14.56,0,0,0,6.12-6.16A18.16,18.16,0,0,0,462,75.28h-4.72a25.87,25.87,0,0,1-12.13,13l-.47-.72a26.9,26.9,0,0,0,11.91-16.27h-5c-.36.72-.76,1.44-1.12,2.16,2.63,1,3.92,2.12,3.92,3.38a.85.85,0,0,1-.94,1c-.43,0-.76-.32-1-.9A6.69,6.69,0,0,0,450,74.16a30.64,30.64,0,0,1-1.76,2.59c2.41,1.33,3.64,2.63,3.64,3.92,0,.72-.32,1-.94,1-.43,0-.76-.32-1-1a8.44,8.44,0,0,0-2.23-3.28,29.52,29.52,0,0,1-3.17,3.24L444,80a30.74,30.74,0,0,0,7.06-13.64c2,.54,3,1,3,1.4s-.5.5-1.44.65a20.15,20.15,0,0,1-.72,2h4.57L457.66,69c1.26,1.12,1.91,1.87,1.91,2.2,0,.14-.14.29-.32.4l-.83.4c-.29.94-.54,1.76-.83,2.48ZM450.28,87.7A11.29,11.29,0,0,1,448,94a2.83,2.83,0,0,1-2.09,1.26,1,1,0,0,1-1.15-1.19c0-.36.36-.76,1-1.19a9.5,9.5,0,0,0,3.74-5.47Zm3.92-.36c1.62,2,2.41,3.82,2.41,5.47,0,1.26-.47,1.87-1.33,1.87-.61,0-.9-.36-.9-1.12v-.22a8.45,8.45,0,0,0,0-1,13.86,13.86,0,0,0-.86-4.64Zm5.87-.14c2.74,2.12,4.14,4.1,4.14,5.94q0,1.51-1.3,1.51c-.61,0-.94-.43-1-1.3a12,12,0,0,0-2.38-5.65Zm6-19.62c2.45,1.22,3.71,2.48,3.71,3.78,0,.83-.4,1.22-1.15,1.22-.54,0-.79-.36-.94-1a6.26,6.26,0,0,0-2.09-3.42Zm.43,19.51a15.84,15.84,0,0,1,4.93,3.63,3.52,3.52,0,0,1,1.15,2.41c0,.9-.43,1.37-1.19,1.37-.58,0-1-.43-1.26-1.3a13.54,13.54,0,0,0-4.1-5.54Z" transform="translate(0 -0.13)"/><path class="cls-4" d="M444.23,115.09c2.81.94,4.14,2.2,4.14,3.64,0,.83-.32,1.22-1,1.22s-.9-.4-1.08-1.15a5.46,5.46,0,0,0-2.41-3.13Zm9-1.37L448.69,128a9.29,9.29,0,0,0-.47,2.41,6.15,6.15,0,0,0,.14,1,22.5,22.5,0,0,1,.4,3.2c0,1.3-.43,1.94-1.37,1.94a1,1,0,0,1-1.12-1.15c0-.07.07-.68.18-1.91a15.81,15.81,0,0,0,.14-1.94,3.21,3.21,0,0,0-.94-2.66,3.48,3.48,0,0,0-1.55-.58v-.86a4.41,4.41,0,0,0,1.15.14,2,2,0,0,0,1.91-1.15,98.11,98.11,0,0,0,5.22-13.25Zm-6.8-5.58c2.92.9,4.39,2.05,4.39,3.56,0,.79-.36,1.22-1.12,1.22-.4,0-.76-.36-1-1a6.51,6.51,0,0,0-2.66-3.17ZM470,134.53h1.12l1.3-2.2s.22.29.58.83c.47.72.79,1.26.94,1.55l-.36.65H450.31l-.4-.83h3.46V122.94a22.52,22.52,0,0,1,2.27,1.15h12.2l1.3-1.48c1.33,1,2,1.66,2,1.94s-.07.25-.25.36l-.83.5Zm-3.71-25,1.19-1.44c1.3,1,2,1.66,2,2,0,.11-.11.25-.32.4l-.76.43v10.83h-1.87v-1.48h-9.79V122h-1.87v-13.5a8.62,8.62,0,0,1,2,1Zm-11.12,15.37v9.65h3.06v-9.65Zm1.55-14.54v4h9.79v-4Zm9.79,9.11v-4.28h-9.79v4.28Zm-3.42,5.44H460v9.65h3.1Zm1.8,0v9.65h3.28v-9.65Z" transform="translate(0 -0.13)"/><path class="cls-4" d="M453.44,165.92l1.08-1.4c1.33,1.12,2,1.87,2,2.23,0,.11-.07.22-.29.32l-.76.32a20.64,20.64,0,0,1-11,9.07l-.5-.72a19.91,19.91,0,0,0,9.57-9H445.7l-.32-.83Zm4.32-3.46h-6.84V164h-1.84V151.92a15.79,15.79,0,0,1,2.12,1h4.61a15.48,15.48,0,0,0,1.26-4.21c2.16.43,3.28.86,3.28,1.26s-.5.5-1.44.65a16.45,16.45,0,0,1-2,2.3h8.93l1.26-1.48c1.33,1,2,1.66,2,1.94a.75.75,0,0,1-.32.5l-.79.58v9.36h-1.84v-1.37h-6.44a18.16,18.16,0,0,0,4.35,6.51,29.14,29.14,0,0,0,4.72-5.65c1.58,1.08,2.38,1.84,2.38,2.23s-.25.36-.76.36a4.59,4.59,0,0,1-.76-.11,37.32,37.32,0,0,1-4.9,3.78,27.85,27.85,0,0,0,8.24,4.46,5.54,5.54,0,0,0-1.55,2.05q-9.18-4.37-11.81-11.81v10.91a2.53,2.53,0,0,1-.79,2.12,4.25,4.25,0,0,1-2.66.65,1.43,1.43,0,0,0-1-1.33,14.73,14.73,0,0,0-3.06-.76V175a32.82,32.82,0,0,0,4.64.32.86.86,0,0,0,1-1Zm8.39-5.36v-3.35H450.92v3.35Zm0,4.54v-3.71H450.92v3.71Z" transform="translate(0 -0.13)"/><path class="cls-5" d="M449.7,210.28H473v8h-1.4v-6.55H449.7Z" transform="translate(0 -0.13)"/><path class="cls-5" d="M444.23,259.77a23.29,23.29,0,0,0,8.64-5.94c1.66.83,2.45,1.4,2.45,1.84,0,.22-.32.36-1,.36-.22,0-.47,0-.61,0a25.91,25.91,0,0,1-9.11,4.43Zm9.65-18.61c3.46-.5,5.26-.79,5.44-.83l.11.79c-5.11,1.22-9.54,2.12-13.28,2.63-.18.79-.4,1.19-.68,1.19s-.79-.9-1.19-2.77l1-.07c.79-.07,1.44-.11,1.87-.14v-8.28c2,0,3,.25,3,.68s-.4.61-1.19.94v6.51l.4-.07c.58-.11,1.51-.18,2.74-.32v-9.58c2.05,0,3.1.25,3.1.72,0,.25-.43.54-1.3.9v2.77h2.45l1.37-2a27.29,27.29,0,0,1,1.62,2.23L459,237h-5.08Zm13.64,10.08c-3.56.4-6.26.68-8.14.86v8.71h-1.87v-8.57c-2,.18-3.42.29-4.32.4-1.62.18-3.78.32-6.41.5-.18.83-.36,1.26-.65,1.26s-.83-1-1.22-3c4.21,0,7.6-.14,10-.25a53.48,53.48,0,0,0,9.11-7.27c1.76.83,2.63,1.4,2.63,1.76s-.4.36-1.12.36c-.18,0-.32,0-.58,0a74.39,74.39,0,0,1-8.31,5.11l3.13-.18c3.17-.14,5.87-.32,8.13-.54a23,23,0,0,0-3.38-2.27l.36-.54c4.82,1.51,7.2,3.13,7.2,4.86,0,.76-.36,1.12-1,1.12-.4,0-.79-.32-1.15-.94a7.45,7.45,0,0,0-1.15-1.44Zm-10.4-8.93c1.62.68,2.48,1.22,2.48,1.58s-.5.4-1.51.4a32.84,32.84,0,0,1-4.25,3c1.12.79,1.66,1.55,1.66,2.23s-.32,1.08-1,1.08c-.32,0-.68-.25-1-.79a13.6,13.6,0,0,0-4.93-4.21l.4-.61a32.43,32.43,0,0,1,4.21,1.8A22.59,22.59,0,0,0,457.12,242.32Zm5.22-4.79a23.76,23.76,0,0,0,7.06-4.32c1.44.9,2.16,1.55,2.16,2,0,.18-.18.29-.58.29a3.7,3.7,0,0,1-1-.14,35.44,35.44,0,0,1-7.67,3.06v1.94c0,.58.22.9.58,1a14.15,14.15,0,0,0,3.31.22c2.12,0,3.24-.22,3.49-.61a9.91,9.91,0,0,0,.68-3.49l.76.25a8.61,8.61,0,0,0,.4,2.88,1.07,1.07,0,0,0,.9.58,1.58,1.58,0,0,1-1.12,1.69,21.21,21.21,0,0,1-4.14.25,26.76,26.76,0,0,1-5.54-.32,1.88,1.88,0,0,1-1.12-2v-9c2.12.07,3.2.32,3.2.79,0,.25-.47.54-1.4.83Zm-.43,16.23c6.55,1.44,9.79,3,9.79,4.75,0,.76-.32,1.08-1,1.08a2.48,2.48,0,0,1-1.29-.76,23.43,23.43,0,0,0-7.78-4.39Z" transform="translate(0 -0.13)"/><path class="cls-5" d="M459.38,278.86H469.5l1.4-1.62c1.58,1.44,2.38,2.38,2.38,2.74q0,.27-.32.32l-1.12.25a22.68,22.68,0,0,1-2.09,2.09l-.65-.4a15.14,15.14,0,0,0,.72-2.59H459.38v8.57h-1.87v-8.57h-9.79v.29a7.46,7.46,0,0,1-1.12,4.1c-.43.65-.86,1-1.44,1-.76,0-1.15-.36-1.15-1.08a2,2,0,0,1,.68-1.19,7.78,7.78,0,0,0,2-4.93l.76.14a4.29,4.29,0,0,0,.11.5,3,3,0,0,0,.07.36h9.86v-2.92h-9.29l-.36-.83h17.42l1.69-1.94a17.51,17.51,0,0,1,2.34,2.12l-.4.65h-9.54Zm-7.67,20.09a32.3,32.3,0,0,0,2.48-4.61h-9.25l-.4-.79h24l1.84-2.05.65.5a13,13,0,0,1,1.73,1.73l-.4.61H457l-.18.25a37.9,37.9,0,0,1-3.82,4.32c.61,0,1.12,0,1.44,0,3.28-.07,7.31-.18,12.09-.47a23,23,0,0,0-4.14-2.84l.47-.61a25.63,25.63,0,0,1,7.16,3.71c1.12.94,1.69,1.76,1.69,2.48s-.36,1.22-1.12,1.22c-.32,0-.68-.32-1.15-.94a16,16,0,0,0-1.94-2.16l-.5,0c-5.62.36-12,1.26-19.29,1.69-.22.68-.43,1-.65,1-.54,0-.94-1-1.3-3.06,1.55,0,2.74,0,3.56,0Zm14.07-9.47,1.58-1.62a16.81,16.81,0,0,1,2.2,1.84l-.36.61H448.12l-.43-.83Zm-12.56-3.56,1.19-1.4a14.91,14.91,0,0,1,1.69,1.66l-.4.58h-7.24l-.4-.83Zm0-3.38,1.26-1.48.5.54c.22.22.58.61,1,1.19l-.36.54h-6.95l-.4-.79Zm12.31,0,1.26-1.37a16.11,16.11,0,0,1,1.62,1.55l-.32.61h-6.95l-.43-.79Zm.29,3.38,1.22-1.51c.47.43,1,1,1.69,1.76l-.32.58h-7.31l-.4-.83Z" transform="translate(0 -0.13)"/><path class="cls-5" d="M471,327.82a13.83,13.83,0,0,1-.47,5,8,8,0,0,1-3.49,4.54,16.65,16.65,0,0,1-5.94,2.16,15.48,15.48,0,0,1-5.8,0c-.36,0-.54-.18-.5-.36s.22-.32.5-.29a17.45,17.45,0,0,0,1.91.11,17.85,17.85,0,0,0,4.32-.61,15.82,15.82,0,0,0,4.39-2.12,8.2,8.2,0,0,0,3.1-5.11,12.72,12.72,0,0,0-.47-5.94,7.52,7.52,0,0,0-3.17-4.46,10.18,10.18,0,0,0-6.26-1.33c-.29,0-.61.11-.94.14.07.72.07,1.87.11,2.77a23.85,23.85,0,0,1-.54,4.93,15.94,15.94,0,0,1-2.52,6.33c-1.37,1.8-3,3-4.72,3s-2.88-1-3.67-2.74a7.76,7.76,0,0,1-.47-5.36,10.85,10.85,0,0,1,2.41-5,15.28,15.28,0,0,1,4.61-3.78,14.73,14.73,0,0,1,6.8-1.58,11.35,11.35,0,0,1,5.72,1.51,10.54,10.54,0,0,1,3.78,3.78A9.58,9.58,0,0,1,471,327.82Zm-13.89-8a14.46,14.46,0,0,0-4.54,2.09,12,12,0,0,0-4.28,5.29,8.58,8.58,0,0,0-.29,5.47c.5,1.22,1.73,1.48,3.17,1a6.4,6.4,0,0,0,3.64-3,13.85,13.85,0,0,0,2.09-5.79A25.8,25.8,0,0,0,457.15,319.79Z" transform="translate(0 -0.13)"/><path class="cls-5" d="M444.7,363.46c3,.94,4.54,2.16,4.54,3.64,0,.83-.36,1.22-1.12,1.22q-.76,0-1.08-1.08a6.18,6.18,0,0,0-2.66-3.17Zm10.08-1.3-5.15,14.22a6.19,6.19,0,0,0-.54,2.27,5.32,5.32,0,0,0,.22,1.3,12.51,12.51,0,0,1,.36,2.84c0,1.4-.5,2.16-1.51,2.16-.76,0-1.12-.36-1.12-1.08,0,0,0-.5.14-1.37a18.34,18.34,0,0,0,.22-2.56,3.25,3.25,0,0,0-.79-2.52,3.84,3.84,0,0,0-1.94-.72v-.86a6,6,0,0,0,1.3.14,2.22,2.22,0,0,0,2.09-1.15,98.83,98.83,0,0,0,6-13.32Zm-7.7-5.69c3.17.79,4.75,1.91,4.75,3.38,0,.9-.4,1.3-1.19,1.3-.43,0-.79-.36-1-1a5.88,5.88,0,0,0-2.92-3Zm22.1,16.23,1.22-1.4c1.26,1,1.87,1.58,1.87,1.91a.34.34,0,0,1-.22.29l-.83.54c-.14,4.71-.65,7.81-1.62,9.21a3.43,3.43,0,0,1-3.1,1.51,1.36,1.36,0,0,0-1-1.3,15.7,15.7,0,0,0-3-.72v-.86a22.57,22.57,0,0,0,3.74.32,2.12,2.12,0,0,0,2.3-1.58,26.08,26.08,0,0,0,.79-7.13H467.3q-3,7.72-11.84,11.19l-.54-.72a19.62,19.62,0,0,0,10.29-10.47h-2.74s-.07.11-.11.22-.07.18-.11.22c-1.91,3.56-5.15,6.26-9.65,8l-.43-.68a18.27,18.27,0,0,0,8.24-7.77h-2.66a18.19,18.19,0,0,1-6.12,4.46l-.47-.65a18.63,18.63,0,0,0,7.06-7.49H453l-.29-.83h17l1.62-1.91a15.73,15.73,0,0,1,2.09,2.12l-.36.61H460.21a15.56,15.56,0,0,1-1.76,2.88Zm-10.91-15.12H467l1.22-1.51c1.3,1,1.94,1.69,1.94,2,0,.11-.07.18-.22.29l-.83.5v8.5h-1.84V366H458v1.55h-1.84v-11c.54.18,1.08.54,1.76.83Zm-.29.79v2.81h9.29v-2.81Zm9.29,6.8V362H458v3.17Z" transform="translate(0 -0.13)"/><path class="cls-5" d="M444.16,398.27h1.4v6.55h21.92v1.44H444.16Z" transform="translate(0 -0.13)"/><path class="cls-6" d="M399.42,73.17c3-4.29,7.36-6.43,13-6.43a16.43,16.43,0,0,1,9.6,2.91,13.26,13.26,0,0,1,3.42,3.52v1.09a17.1,17.1,0,0,0-26,0Z" transform="translate(0 -0.13)"/><path class="cls-6" d="M413.08,92.82a23.14,23.14,0,0,1-.48,3.33,27.21,27.21,0,0,1,5.34,4c1.25,1.25,1.86,2.24,1.86,3s-.29,1-.9,1c-.35,0-.67-.35-1.09-1.06a22.62,22.62,0,0,0-5.41-6.11,14.31,14.31,0,0,1-7.62,8.8l-.51-.64a14.6,14.6,0,0,0,7.14-12.29h-8.13v19.46h-1.7V91.22c.61.22,1.12.48,1.6.7l.35.19h7.87v-5.5c1.92,0,2.88.26,2.88.7,0,.22-.42.51-1.18.83v4h8.29l1.09-1.44c1.25,1,1.89,1.66,1.89,2,0,.13-.1.19-.26.32l-.77.45v16c0,1.5-1,2.37-3,2.5a1.47,1.47,0,0,0-1.15-1.25c-.48-.16-1.7-.32-3.46-.61v-.8a42.33,42.33,0,0,0,4.8.26,1,1,0,0,0,1.12-1.09V92.82Z" transform="translate(0 -0.13)"/><path class="cls-6" d="M400.09,129.87c2.69.83,4,1.92,4,3.23,0,.74-.32,1.09-1,1.09q-.67,0-1-1a5.5,5.5,0,0,0-2.37-2.82Zm9-1.15-4.58,12.64a5.5,5.5,0,0,0-.48,2,4.74,4.74,0,0,0,.19,1.15,11.12,11.12,0,0,1,.32,2.53c0,1.25-.45,1.92-1.34,1.92-.67,0-1-.32-1-1,0,0,0-.45.13-1.22a16.25,16.25,0,0,0,.19-2.27,2.89,2.89,0,0,0-.7-2.24,3.41,3.41,0,0,0-1.73-.64v-.77a5.29,5.29,0,0,0,1.15.13,2,2,0,0,0,1.86-1,87.86,87.86,0,0,0,5.31-11.84Zm-6.85-5.06c2.82.7,4.22,1.7,4.22,3,0,.8-.35,1.15-1.06,1.15-.38,0-.7-.32-.9-.9a5.23,5.23,0,0,0-2.59-2.69Zm19.65,14.43,1.09-1.25c1.12.86,1.66,1.41,1.66,1.7a.3.3,0,0,1-.19.26l-.74.48c-.13,4.19-.58,6.94-1.44,8.19a3,3,0,0,1-2.75,1.34,1.21,1.21,0,0,0-.86-1.15A13.88,13.88,0,0,0,416,147v-.77a20,20,0,0,0,3.33.29,1.89,1.89,0,0,0,2-1.41,23.2,23.2,0,0,0,.7-6.33h-1.89q-2.64,6.86-10.53,10l-.48-.64a17.44,17.44,0,0,0,9.15-9.31H415.9s-.06.1-.1.19-.06.16-.1.19a15.82,15.82,0,0,1-8.58,7.14l-.38-.61a16.23,16.23,0,0,0,7.33-6.91h-2.37a16.19,16.19,0,0,1-5.44,4l-.42-.58a16.57,16.57,0,0,0,6.27-6.66h-4.67l-.26-.74h15.07l1.44-1.7a14,14,0,0,1,1.86,1.89l-.32.54H413.88a13.82,13.82,0,0,1-1.57,2.56Zm-9.7-13.44h7.74l1.09-1.34c1.15.9,1.73,1.5,1.73,1.79,0,.1-.06.16-.19.26l-.74.45v7.55h-1.63v-1.22H411.9v1.38h-1.63v-9.76c.48.16,1,.48,1.57.74Zm-.26.7v2.5h8.26v-2.5Zm8.26,6v-2.82H411.9v2.82Z" transform="translate(0 -0.13)"/><path class="cls-6" d="M425.46,162.07q-4.56,6.43-13,6.43a16.36,16.36,0,0,1-9.6-2.91,13.79,13.79,0,0,1-3.42-3.52V161c3.14,4,7.49,6,13,6s9.85-2,13.05-6Z" transform="translate(0 -0.13)"/><path class="cls-6" d="M345.21,80.66A10.34,10.34,0,0,0,349.05,78c.74.37,1.09.62,1.09.82s-.14.16-.43.16l-.27,0a11.52,11.52,0,0,1-4,2Zm4.29-8.28c1.54-.22,2.34-.35,2.42-.37l0,.35c-2.27.54-4.24.94-5.91,1.17-.08.35-.18.53-.3.53s-.35-.4-.53-1.23l.46,0,.83-.06V69.05c.88,0,1.31.11,1.31.3s-.18.27-.53.42v2.9l.18,0c.26,0,.67-.08,1.22-.14V68.23c.91,0,1.38.11,1.38.32s-.19.24-.58.4v1.23h1.09l.61-.9a12.18,12.18,0,0,1,.72,1l-.16.26H349.5Zm6.07,4.48-3.62.38v3.87h-.83V77.31c-.88.08-1.52.13-1.92.18-.72.08-1.68.14-2.85.22-.08.37-.16.56-.29.56s-.37-.45-.54-1.34c1.87,0,3.38-.06,4.45-.11a23.82,23.82,0,0,0,4-3.23c.78.37,1.17.62,1.17.78s-.18.16-.5.16l-.26,0a33.14,33.14,0,0,1-3.7,2.27l1.39-.08c1.41-.06,2.61-.14,3.62-.24a10.2,10.2,0,0,0-1.5-1l.16-.24c2.15.67,3.2,1.39,3.2,2.16,0,.34-.16.5-.46.5s-.35-.14-.51-.42a3.32,3.32,0,0,0-.51-.64Zm-4.63-4c.72.3,1.1.54,1.1.7s-.22.18-.67.18a14.51,14.51,0,0,1-1.89,1.34c.5.35.74.69.74,1s-.14.48-.46.48c-.14,0-.3-.11-.46-.35a6,6,0,0,0-2.19-1.87l.18-.27a14.43,14.43,0,0,1,1.87.8A10.07,10.07,0,0,0,350.94,72.89Zm2.32-2.13a10.57,10.57,0,0,0,3.14-1.92c.64.4,1,.69,1,.88s-.08.13-.26.13a1.66,1.66,0,0,1-.43-.06,15.73,15.73,0,0,1-3.41,1.36V72c0,.26.1.4.26.45a6.24,6.24,0,0,0,1.47.1c.94,0,1.44-.1,1.55-.27a4.41,4.41,0,0,0,.3-1.55l.34.11a3.82,3.82,0,0,0,.18,1.28.48.48,0,0,0,.4.26.7.7,0,0,1-.5.75,9.48,9.48,0,0,1-1.84.11A12,12,0,0,1,353,73.1a.84.84,0,0,1-.5-.88v-4c.94,0,1.42.14,1.42.35s-.21.24-.62.37ZM353.07,78c2.91.64,4.35,1.34,4.35,2.11,0,.34-.14.48-.45.48a1.1,1.1,0,0,1-.58-.34,10.41,10.41,0,0,0-3.46-2Z" transform="translate(0 -0.13)"/><path class="cls-6" d="M351.95,86.73h4.5l.62-.72c.7.64,1.06,1.06,1.06,1.22s0,.13-.14.14l-.5.11a10.13,10.13,0,0,1-.93.93l-.29-.18a6.7,6.7,0,0,0,.32-1.15h-4.64v3.81h-.83V87.08h-4.35v.13a3.32,3.32,0,0,1-.5,1.82c-.19.29-.38.45-.64.45s-.51-.16-.51-.48a.87.87,0,0,1,.3-.53,3.46,3.46,0,0,0,.9-2.19l.34.06a2,2,0,0,0,0,.22,1.37,1.37,0,0,0,0,.16h4.39v-1.3H347l-.16-.37h7.75l.75-.87a7.77,7.77,0,0,1,1,.94l-.18.29h-4.24Zm-3.41,8.93a14.28,14.28,0,0,0,1.1-2h-4.11l-.18-.35H356l.82-.91.29.22a5.82,5.82,0,0,1,.77.77l-.18.27h-6.83l-.08.11a16.83,16.83,0,0,1-1.7,1.92l.64,0c1.46,0,3.25-.08,5.38-.21a10.26,10.26,0,0,0-1.84-1.26l.21-.27a11.41,11.41,0,0,1,3.19,1.65c.5.42.75.78.75,1.1s-.16.54-.5.54c-.14,0-.3-.14-.51-.42a7.11,7.11,0,0,0-.86-1l-.22,0c-2.5.16-5.33.56-8.58.75-.1.3-.19.46-.29.46s-.42-.45-.58-1.36l1.58,0Zm6.26-4.21.7-.72a7.42,7.42,0,0,1,1,.82l-.16.27h-9.38l-.19-.37Zm-5.59-1.58.53-.62a6.74,6.74,0,0,1,.75.74l-.18.26H347.1l-.18-.37Zm0-1.5.56-.66.22.24c.1.1.26.27.46.53l-.16.24h-3.09l-.18-.35Zm5.47,0,.56-.61a7.22,7.22,0,0,1,.72.69l-.14.27h-3.09l-.19-.35Zm.13,1.5.54-.67c.21.19.46.46.75.78l-.14.26h-3.25l-.18-.37Z" transform="translate(0 -0.13)"/><path class="cls-6" d="M355.61,111.76h-6.4v1.15h-.86v-5.76a14.67,14.67,0,0,1-3.22,3.06l-.24-.32a15.69,15.69,0,0,0,5-7.72H345.5l-.13-.37H356l.83-1a9.59,9.59,0,0,1,1.09,1.07l-.16.3h-6.83l-.1.22a20.41,20.41,0,0,1-1.86,3.89l.37.18h6.13l.59-.72c.66.5.94.8.94.93s0,.11-.14.19l-.38.26v5.79h-.85Zm0-.35v-4.58h-6.4v4.58Z" transform="translate(0 -0.13)"/><path class="cls-6" d="M356.08,121.74a3.76,3.76,0,0,1-1.18.9c-.46.24-1.25.5-1.86.75l-.51.22c0,.18,0,.37.06.56a2.48,2.48,0,0,1-.19,1.39.87.87,0,0,1-.66.53c-.34,0-.46-.22-.37-.54a6.25,6.25,0,0,0,.24-1.47V124a6.5,6.5,0,0,0-.75.35,3.47,3.47,0,0,0-1.28,1,1.29,1.29,0,0,0-.18,1.42,2,2,0,0,0,1.57.7,10.87,10.87,0,0,0,1.5-.16,9.28,9.28,0,0,1,1.07-.21,1.25,1.25,0,0,1,1,.26c.26.19.26.46,0,.58a2.49,2.49,0,0,1-.86.18,16.5,16.5,0,0,1-2.3.14,4.68,4.68,0,0,1-2.15-.59,1.5,1.5,0,0,1-.69-1.44,2,2,0,0,1,.69-1.39,7,7,0,0,1,1.5-1.07c.27-.14.58-.3.88-.45a1.09,1.09,0,0,0-.21-.64,1.5,1.5,0,0,0-1-.58,1.79,1.79,0,0,0-1,.16,1.7,1.7,0,0,0-.29.16c-.21.27-.42.51-.61.79a1.65,1.65,0,0,1-1.17.83c-.35,0-.38-.22-.38-.51a.88.88,0,0,1,.34-.7,7.69,7.69,0,0,0,.82-.46,6.61,6.61,0,0,0,1.66-2,6.42,6.42,0,0,0,.5-1l-.38,0a2.24,2.24,0,0,1-1.33-.21.79.79,0,0,1-.3-.91c.19-.26.46-.08.82,0a2.37,2.37,0,0,0,1.26,0l.24,0a.73.73,0,0,0-.21-.77.46.46,0,0,1-.1-.58.55.55,0,0,1,.61,0,.56.56,0,0,1,.22.21c.22,0,.5.1.59.11a1.59,1.59,0,0,1,.59.19c.14.11.06.26-.06.51a2.66,2.66,0,0,1-.85.93,1.23,1.23,0,0,1-.29.14,4.7,4.7,0,0,1-.38.91,17.22,17.22,0,0,1-1,1.68,2.22,2.22,0,0,1-.16.24l.37-.14a1.8,1.8,0,0,1,1.09-.1,1.25,1.25,0,0,1,.85.48,1.66,1.66,0,0,1,.21-.26,4.31,4.31,0,0,1,1.71-1.44,2.32,2.32,0,0,1,2.19,0A.94.94,0,0,1,356.08,121.74ZM351.26,118l.21-.11c.24-.13.32-.29.27-.34s-.16-.11-.38-.14l-.18,0a1.11,1.11,0,0,1,.08.4A.52.52,0,0,1,351.26,118Zm4.15,2.79c-.1-.18-.43-.32-1-.19a2.89,2.89,0,0,0-1.34.77,3.62,3.62,0,0,0-.86,1.33c0,.1.1.21.13.29s.27-.13.42-.19a22.81,22.81,0,0,0,2.1-1C355.52,121.42,355.52,121,355.41,120.78Z" transform="translate(0 -0.13)"/><path class="cls-6" d="M346.2,135.05a11,11,0,0,1,.19,1.86,5,5,0,0,1-.19,1.52c-.18.54-.43.83-.77.83s-.46-.14-.46-.43a1.3,1.3,0,0,1,.21-.48,6.62,6.62,0,0,0,.66-3.35Zm.85,10.07V132.19c1,0,1.46.13,1.46.35s-.21.27-.62.42v12.17Zm1.34-10.61a3,3,0,0,1,1.28,2c0,.35-.18.53-.5.53s-.32-.18-.37-.53a4.6,4.6,0,0,0-.69-1.84Zm3.19,3V135h-2l-.11-.35h2.15v-2.4c.94,0,1.41.14,1.41.38s-.19.27-.61.42v1.6h2.26v-2.42c.91,0,1.38.14,1.38.4s-.18.26-.56.38v1.63h.78l.62-.86a6.55,6.55,0,0,1,.85,1l-.14.24h-2.11v2.54h1l.7-.93a5.77,5.77,0,0,1,.94,1l-.14.24h-8.93l-.13-.35Zm4,1.71.56-.66c.59.45.88.75.88.9a.18.18,0,0,1-.11.18l-.35.22v5.23h-.85v-.9h-4.32v.9h-.85v-6.37a8.57,8.57,0,0,1,1.07.5Zm.13,2.21V139.6h-4.32v1.86Zm0,.37h-4.32v2h4.32ZM352.38,135v2.54h2.26V135Z" transform="translate(0 -0.13)"/><path class="cls-6" d="M348.12,152.17c0-.53.16-1.49.16-1.81a1.93,1.93,0,0,0-.27-.8.34.34,0,0,1,0-.42c.1-.1.29,0,.45.06a1.93,1.93,0,0,1,.62.51c.24.29.13.7,0,1.1s-.27,1.17-.35,1.58-.27,1.89-.32,2.45a10,10,0,0,0-.06,2.22,2.73,2.73,0,0,0,.85,1.63,2.54,2.54,0,0,0,1.7.54,3.72,3.72,0,0,0,1.41-.34c.34-.18,1-.54,1.46-.8s1-.69,1.26-.88.62-.54.7-.61a.22.22,0,0,1,.27-.08.18.18,0,0,1,0,.26,5.18,5.18,0,0,1-.64.67c-.34.29-1,.91-1.86,1.52a5.21,5.21,0,0,1-2.5,1,3.36,3.36,0,0,1-2.15-.56,3,3,0,0,1-1.17-1.81,9.66,9.66,0,0,1,0-2.27C347.82,154.78,348.07,152.66,348.12,152.17Z" transform="translate(0 -0.13)"/><path class="cls-6" d="M357.34,173.35c-.06.3-.5.26-1,.21s-.9-.5-1.46-1a6.57,6.57,0,0,1-1.39,2,5.87,5.87,0,0,1-2.56,1.49c-.35.1-.51,0-.54-.08s.19-.24.4-.3a6,6,0,0,0,2.11-1.33,5.25,5.25,0,0,0,1.26-2,1.2,1.2,0,0,0,.08-.26,9.68,9.68,0,0,0-2-1,4.67,4.67,0,0,0-2.3-.26,1.8,1.8,0,0,0-.29,0,1.77,1.77,0,0,0-.11.26,7.85,7.85,0,0,1-1.39,2.34c-.59.63-1.52.91-2,.46s-.14-1.39.18-1.87a3.72,3.72,0,0,1,1.89-1.36,7.25,7.25,0,0,1,1-.27c.45-.88.9-1.81,1.18-2.35s.82-1.58.9-1.83-.08-.3-.3-.19a13.88,13.88,0,0,1-1.65.8,1.31,1.31,0,0,1-1.06-.08c-.24-.13-.38-.43-.29-.58s.58-.08.91-.06a4.09,4.09,0,0,0,1.28-.38,12,12,0,0,0,1.17-.56.79.79,0,0,1,.74,0c.22.1.37.19.42.43a1.4,1.4,0,0,1-.32.86c-.24.38-.83,1.28-1.23,2-.27.54-.64,1.17-1,1.79.42,0,.82,0,1.18,0a6,6,0,0,1,2.34.48,8.86,8.86,0,0,1,1,.46,4.21,4.21,0,0,0,0-.58,2.74,2.74,0,0,0-.18-1c-.08-.24-.24-.51-.11-.67s.5-.08.75,0a1,1,0,0,1,.51.93,4.81,4.81,0,0,1,0,.48c.11.27.26.56.37.77a4.4,4.4,0,0,0,1,1.33C357.07,172.7,357.42,173,357.34,173.35Zm-8.47-2.29a4.71,4.71,0,0,0-1.3.59c-.7.48-1,1.07-.69,1.25s.62-.14,1-.46A5.38,5.38,0,0,0,348.88,171.06Zm6.83,1a3.51,3.51,0,0,1-.38-.85,3.76,3.76,0,0,1-.11.45A6,6,0,0,1,355.71,172.06Z" transform="translate(0 -0.13)"/><path class="cls-6" d="M346.54,189.26a1.2,1.2,0,0,1,.16-.91c.16-.29.3-.59.51-1s.64-1.65.86-2.26c.11-.26.21-.58.32-.9a.93.93,0,0,0-.21,0,2.46,2.46,0,0,1-.93-.37c-.24-.16-.38-.35-.3-.46s.34,0,.46.06a3.12,3.12,0,0,0,.7.21,1.92,1.92,0,0,0,.48,0c.06-.21.14-.37.19-.5a2.48,2.48,0,0,0,.3-.93,1.4,1.4,0,0,0-.19-.79c-.11-.19-.1-.3,0-.4s.45,0,.59.11a1.21,1.21,0,0,1,.43.59,1.11,1.11,0,0,1,0,.46l.27.1c.22.08.56.22.9.32a1.38,1.38,0,0,1,.66.32.37.37,0,0,1,0,.5,1.82,1.82,0,0,1-.9.43,7.94,7.94,0,0,1-1.65.29h0a.12.12,0,0,1,0,.08c-.08.21-.48,1.25-.67,1.73s-.61,1.55-.77,2a6.25,6.25,0,0,0-.22,1.58c0,.29-.27.34-.5.22A1,1,0,0,1,346.54,189.26Zm3-5.75a4.91,4.91,0,0,0,.82-.27c.24-.1.35-.22.34-.27s-.18-.14-.3-.22-.29-.14-.45-.24a4.4,4.4,0,0,1-.14.43A5.42,5.42,0,0,1,349.53,183.51Zm3.86,5.59a7.38,7.38,0,0,0-.14-.77c-.08-.45-.21-1.06-.29-1.47a1.58,1.58,0,0,1,.11-1.06c.11-.22.32-.4.42-.34s0,.22,0,.51a2.92,2.92,0,0,0,0,1.25c.1.48.27,1.2.42,1.75,0,.08,0,.16.08.24a4.43,4.43,0,0,1,1.23.48,1,1,0,0,1,.48.58c.08.29,0,.56-.14.61s-.38-.08-.75-.29l-.61-.35c0,.13,0,.24,0,.3a1.44,1.44,0,0,1-.69,1.33,3,3,0,0,1-2.32,0,1.45,1.45,0,0,1-.74-1.58c.1-.64.67-1.07,1.52-1.17A6.13,6.13,0,0,1,353.39,189.1Zm0,.75a3.08,3.08,0,0,0-1.46-.26c-.5,0-1,.32-1,.7a.81.81,0,0,0,.64.85,1.85,1.85,0,0,0,1.31,0c.43-.16.53-.61.56-1.17v0Zm3.31-5.15a.48.48,0,0,1-.22.61.67.67,0,0,1-.53,0,1.39,1.39,0,0,0-.51-.14,5.39,5.39,0,0,0-.74,0c-.3,0-.43-.06-.43-.13s.06-.11.19-.16a1.86,1.86,0,0,1,.66-.16c.26,0,.34-.13.21-.3a4,4,0,0,0-.74-.75,2.63,2.63,0,0,0-.74-.5c-.16-.06-.22-.18-.18-.24s.3-.1.56,0a6.26,6.26,0,0,1,1.87,1A1.79,1.79,0,0,1,356.69,184.7Z" transform="translate(0 -0.13)"/><path class="cls-6" d="M350.59,201.16a3.11,3.11,0,0,0-.42,1.2c0,.19.29.46.48.72s.62.78,1.06,1.3a10.08,10.08,0,0,1,1.1,1.63,4.15,4.15,0,0,1,.51,1.75c0,.48-.13.75-.38.78a.49.49,0,0,1-.56-.43c-.08-.3-.18-.64-.32-1.17a9.91,9.91,0,0,0-.78-1.73,13.07,13.07,0,0,0-1-1.63c-.22-.34-.62-.75-.66-1.14a3.67,3.67,0,0,1,.53-1.58A15.75,15.75,0,0,1,351.4,199c.38-.46,1-1.09,1.1-1.3a.83.83,0,0,0,0-.67c0-.18,0-.34.08-.42s.42.06.64.29a1,1,0,0,1,.35.82,1.29,1.29,0,0,1-.51.86c-.32.29-.93.72-1.34,1.1A7.13,7.13,0,0,0,350.59,201.16Z" transform="translate(0 -0.13)"/><path class="cls-6" d="M348.19,216.78c0,.11-.21.24-.59.37v8h-.83v-7.38a15.29,15.29,0,0,1-1.65,2.61l-.32-.24a22.71,22.71,0,0,0,3-7.91c.91.19,1.38.4,1.38.59s-.22.22-.64.3a24.74,24.74,0,0,1-1.17,3.3C347.91,216.51,348.19,216.62,348.19,216.78Zm4.69-.3v-1.7h-4.24l-.14-.37h4.39V212.2c1,0,1.46.16,1.46.37s-.21.26-.62.38v1.46h2.71l.74-.91a8,8,0,0,1,1,1l-.16.29h-4.24v1.7H356l.58-.7c.59.46.88.77.88.9s0,.13-.14.18l-.37.24v3.36h-.8v-.77h-2.4a5.66,5.66,0,0,1-.51,2.37,12.52,12.52,0,0,0,5.12,2,2.15,2.15,0,0,0-.66.86,12.39,12.39,0,0,1-4.77-2.29c-.78,1.25-2.26,2.11-4.42,2.58l-.19-.35a6.25,6.25,0,0,0,4-2.75,18.25,18.25,0,0,1-1.28-1.44l.26-.26c.5.5.91.9,1.26,1.18a5.32,5.32,0,0,0,.35-1.86h-2.5v.77h-.82V216a7.29,7.29,0,0,1,.94.51Zm0,.35h-2.5v2.48h2.5Zm.83,0v2.48h2.4v-2.48Z" transform="translate(0 -0.13)"/><path class="cls-6" d="M356.4,233.82a1.66,1.66,0,0,0-.42-1.25,1.76,1.76,0,0,0-1.25-.58,2.55,2.55,0,0,0-1.22.19,7.84,7.84,0,0,0-1.22.75c-.34.24-.83.67-1.23,1a2.27,2.27,0,0,1-1.33.51,1.92,1.92,0,0,1-1.1-.43c-.21-.19-.35-.43-.27-.51a.35.35,0,0,1,.4-.06,2.48,2.48,0,0,0,.74.08,2,2,0,0,0,.77-.29c.24-.11,1-.58,1.38-.77a11.15,11.15,0,0,1,1.31-.66,4.64,4.64,0,0,1,1.71-.43,2.65,2.65,0,0,1,1.76.74,2.25,2.25,0,0,1,.72,1.52,2.58,2.58,0,0,1-.48,1.84,4.27,4.27,0,0,1-1.66,1.25,10.06,10.06,0,0,1-1.76.67,5.37,5.37,0,0,1-1,.16c-.14,0-.26-.06-.26-.13a.2.2,0,0,1,.22-.16,3.17,3.17,0,0,0,.86-.14,9.64,9.64,0,0,0,1.7-.72,4.28,4.28,0,0,0,1.23-1.15A3,3,0,0,0,356.4,233.82Z" transform="translate(0 -0.13)"/><path class="cls-6" d="M348.49,250.58a16,16,0,0,0,.59-1.68l-.59,0a3.87,3.87,0,0,1-1.46-.19c-.3-.13-.38-.43-.29-.54s.18,0,.27,0a2.32,2.32,0,0,0,.42.16,2.13,2.13,0,0,0,.72,0,4.11,4.11,0,0,0,1.15-.21,5.74,5.74,0,0,0,.18-1.52,2.17,2.17,0,0,0-.32-1c-.13-.19-.24-.48-.06-.61s.42,0,.64.11a1.19,1.19,0,0,1,.51.78,1.44,1.44,0,0,1,0,.74,4.88,4.88,0,0,0,1,.38c.3.06.58.14.66.3s0,.32-.19.58a3.15,3.15,0,0,1-1.31.7c-.22,0-.46.1-.72.13,0,.19-.1.34-.13.46-.11.42-.48,1.46-.59,1.84s-.53,1.7-.74,2.34a24.36,24.36,0,0,1-1,2.37.4.4,0,0,1-.59.14c-.24-.14-.24-.53-.24-.78a3.84,3.84,0,0,1,.43-1.06c.18-.45.42-.94.67-1.5S348.3,251,348.49,250.58Zm1.66-3.43c0,.11,0,.22-.08.3s-.06.27-.11.48a3.67,3.67,0,0,0,.58-.3c.11,0,.08-.18,0-.26A2.77,2.77,0,0,0,350.16,247.15Zm6.53,8.21c.19.3-.14.61-.54.64a10.54,10.54,0,0,1-2.69-.08,2.25,2.25,0,0,1-2-1.28,2.32,2.32,0,0,1,.19-2,5.91,5.91,0,0,1,.61-1.15c.1-.13.19-.21.26-.16s0,.16-.06.3a6.12,6.12,0,0,0-.51,1.2,1.68,1.68,0,0,0,.06,1.46,2,2,0,0,0,1.23.75,4.76,4.76,0,0,0,1.34,0,9.53,9.53,0,0,1,1.22-.16A1,1,0,0,1,356.69,255.36Zm-2.15-6.51c0-.08-.22-.14-.37-.16a3.35,3.35,0,0,0-1.07,0,4.8,4.8,0,0,0-.74.16c-.18,0-.43.08-.48,0s.19-.32.37-.38a10.77,10.77,0,0,1,1.23-.35,3.41,3.41,0,0,1,1-.08,1.6,1.6,0,0,1,.94.24.57.57,0,0,1,.29.63.56.56,0,0,1-.37.32l-.7.3a9.08,9.08,0,0,0-1,.53,2.14,2.14,0,0,0-.66.53c-.1.11-.21.3-.27.26s0-.19,0-.32a5.45,5.45,0,0,1,.66-.82,5.92,5.92,0,0,1,.8-.59C354.41,249,354.56,248.91,354.54,248.85Z" transform="translate(0 -0.13)"/><path class="cls-6" d="M345,272.86a12.78,12.78,0,0,0,4.48-1.65c.7.37,1.06.62,1.06.78s-.13.14-.37.14l-.38,0a19,19,0,0,1-4.59,1.07Zm3.91-10.36v.72h1.57l.54-.5c.08.06.19.11.29.19a2.33,2.33,0,0,1,.58.43l-.18.22h-3.33a6.51,6.51,0,0,1-.14.71h2.1l.4-.43c.48.3.74.53.74.64s0,.08-.11.16l-.24.16c-.11,1.18-.61,1.78-1.46,1.76,0-.29-.46-.48-1.33-.61v-.34l.22,0,1.09,0c.5,0,.74-.34.75-1h-2.29a4.49,4.49,0,0,1-2.8,2.63l-.16-.3a4.25,4.25,0,0,0,2.37-3.39H345.4l-.14-.35h2.9v-.72h-3l-.14-.37h3.12v-.64h-2.55l-.18-.35h2.72v-1c.86,0,1.3.11,1.3.3s-.18.21-.53.34v.38h1.46l.53-.54a4.35,4.35,0,0,1,.7.54l.11.11-.18.24h-2.62v.64h1.65l.56-.5a5.51,5.51,0,0,1,.85.62l-.16.24Zm5.94,4.37.53-.58c.59.42.88.69.88.82a.14.14,0,0,1-.1.14l-.34.24v3.7H355v-.3h-7v.43h-.83v-4.85l1,.4Zm-6.82.37v.82h7v-.82Zm7,2v-.85h-7v.85Zm0,1.28v-.93h-7v.93Zm-3.07-6.35-.27-.22a9.31,9.31,0,0,0,1.58-3.84c.85.18,1.26.34,1.26.51s-.19.18-.56.27c-.11.3-.21.58-.3.82h2.8l.66-.83a5.85,5.85,0,0,1,.88.9l-.16.29h-1.17l0,.11a5.94,5.94,0,0,1-1.3,2.35,8,8,0,0,0,2.83,1.25,2,2,0,0,0-.58.82,7.86,7.86,0,0,1-2.72-1.54,7.83,7.83,0,0,1-3.39,1.52l-.19-.3a8,8,0,0,0,3.07-1.74,6.78,6.78,0,0,1-1.22-1.86A7.6,7.6,0,0,1,351.95,264.19Zm.7,7.11c3.36.29,5.06.75,5.06,1.41,0,.3-.14.45-.42.45a1.33,1.33,0,0,1-.43-.16,15.38,15.38,0,0,0-4.37-1.39Zm2.11-7.22a6.16,6.16,0,0,0,1-2h-2.27a.26.26,0,0,0,0,.1.21.21,0,0,0,0,.11A7.36,7.36,0,0,0,354.77,264.08Z" transform="translate(0 -0.13)"/><path class="cls-6" d="M345.4,279.53c1.34.4,2,.93,2,1.6,0,.37-.16.54-.46.54s-.42-.14-.51-.46a2.69,2.69,0,0,0-1.17-1.41Zm4.31-.42-2.16,6.16a3,3,0,0,0-.21,1,3.39,3.39,0,0,0,.08.58,6.29,6.29,0,0,1,.16,1.28c0,.63-.22,1-.66,1a.44.44,0,0,1-.5-.5c0-.06,0-.27.1-.59a6.87,6.87,0,0,0,.11-1.14,1.32,1.32,0,0,0-1.26-1.46v-.37a4.41,4.41,0,0,0,.53,0,1.15,1.15,0,0,0,1.07-.7,42.12,42.12,0,0,0,2.38-5.52Zm-3.25-2.69c1.41.35,2.11.86,2.11,1.52,0,.38-.18.56-.51.56s-.37-.16-.46-.45a2.57,2.57,0,0,0-1.28-1.34Zm9.3,1.09.59-.74c.61.54.91.86.91,1a.19.19,0,0,1-.1.14l-.43.26V283h-.85v-.9h-2.16a9.42,9.42,0,0,0,1.5,3.52,9,9,0,0,0,2.85,2.37,2.73,2.73,0,0,0-.72.85,8.94,8.94,0,0,1-3.49-4.32,14.08,14.08,0,0,1-.62-2.42h-1.9a13.27,13.27,0,0,1-.45,3.38,7.27,7.27,0,0,1-2.43,3.62l-.26-.29a9.74,9.74,0,0,0,2.27-6.83v-5s.16.06.35.18.5.27.62.32Zm-4.42.37v3.86h4.55v-3.86Z" transform="translate(0 -0.13)"/><path class="cls-6" d="M346.54,301.26a1.2,1.2,0,0,1,.16-.91c.16-.29.3-.59.51-1s.64-1.65.86-2.26c.11-.26.21-.58.32-.9a.93.93,0,0,0-.21,0,2.46,2.46,0,0,1-.93-.37c-.24-.16-.38-.35-.3-.46s.34,0,.46.06a3.12,3.12,0,0,0,.7.21,1.92,1.92,0,0,0,.48,0c.06-.21.14-.37.19-.5a2.48,2.48,0,0,0,.3-.93,1.4,1.4,0,0,0-.19-.79c-.11-.19-.1-.3,0-.4s.45,0,.59.11a1.21,1.21,0,0,1,.43.59,1.11,1.11,0,0,1,0,.46l.27.1c.22.08.56.22.9.32a1.38,1.38,0,0,1,.66.32.37.37,0,0,1,0,.5,1.82,1.82,0,0,1-.9.43,7.94,7.94,0,0,1-1.65.29h0a.12.12,0,0,1,0,.08c-.08.21-.48,1.25-.67,1.73s-.61,1.55-.77,2a6.25,6.25,0,0,0-.22,1.58c0,.29-.27.34-.5.22A1,1,0,0,1,346.54,301.26Zm3-5.75a4.91,4.91,0,0,0,.82-.27c.24-.1.35-.22.34-.27s-.18-.14-.3-.22-.29-.14-.45-.24a4.4,4.4,0,0,1-.14.43A5.42,5.42,0,0,1,349.53,295.51Zm3.86,5.59a7.38,7.38,0,0,0-.14-.77c-.08-.45-.21-1.06-.29-1.47a1.58,1.58,0,0,1,.11-1.06c.11-.22.32-.4.42-.34s0,.22,0,.51a2.92,2.92,0,0,0,0,1.25c.1.48.27,1.2.42,1.75,0,.08,0,.16.08.24a4.43,4.43,0,0,1,1.23.48,1,1,0,0,1,.48.58c.08.29,0,.56-.14.61s-.38-.08-.75-.29l-.61-.35c0,.13,0,.24,0,.3a1.44,1.44,0,0,1-.69,1.33,3,3,0,0,1-2.32,0,1.45,1.45,0,0,1-.74-1.58c.1-.64.67-1.07,1.52-1.17A6.13,6.13,0,0,1,353.39,301.1Zm0,.75a3.08,3.08,0,0,0-1.46-.26c-.5,0-1,.32-1,.7a.81.81,0,0,0,.64.85,1.85,1.85,0,0,0,1.31,0c.43-.16.53-.61.56-1.17v0Zm3.31-5.15a.48.48,0,0,1-.22.61.67.67,0,0,1-.53,0,1.39,1.39,0,0,0-.51-.14,5.39,5.39,0,0,0-.74,0c-.3,0-.43-.06-.43-.13s.06-.11.19-.16a1.86,1.86,0,0,1,.66-.16c.26,0,.34-.13.21-.3a4,4,0,0,0-.74-.75,2.63,2.63,0,0,0-.74-.5c-.16-.06-.22-.18-.18-.24s.3-.1.56,0a6.26,6.26,0,0,1,1.87,1A1.79,1.79,0,0,1,356.69,296.7Z" transform="translate(0 -0.13)"/><path class="cls-6" d="M345.26,311.55c1.22.42,1.79,1,1.79,1.6,0,.37-.14.54-.45.54s-.42-.16-.48-.51a2.34,2.34,0,0,0-1-1.38Zm4-.66-2,6.39a3.81,3.81,0,0,0-.22,1,2.2,2.2,0,0,0,.08.51,7.19,7.19,0,0,1,.19,1.33c0,.61-.21.93-.66.93s-.5-.16-.5-.48c0-.06,0-.38.1-.91a4.7,4.7,0,0,0,.06-.85,1.41,1.41,0,0,0-.42-1.18,1.56,1.56,0,0,0-.67-.24V317a1.76,1.76,0,0,0,.5.06.89.89,0,0,0,.88-.51,52.12,52.12,0,0,0,2.34-6Zm-3.1-2.47c1.3.4,2,.93,2,1.57,0,.37-.18.54-.51.54-.18,0-.32-.14-.42-.43a3,3,0,0,0-1.2-1.41Zm9.17,11.73h-4.19v1h-.83V316a12.36,12.36,0,0,1-2,1.3l-.22-.29a12.77,12.77,0,0,0,4.79-6.15c.85.19,1.26.38,1.26.59s-.22.22-.67.32a14,14,0,0,0,4.79,3.91,2.63,2.63,0,0,0-.67.86,14.12,14.12,0,0,1-4.31-4.35,12.11,12.11,0,0,1-2.71,3.57,7,7,0,0,1,.69.22h4l.45-.46c.56.38.85.64.85.75a.18.18,0,0,1-.1.16l-.27.19v4.48h-.83Zm-6.34-7a12.4,12.4,0,0,0,2.22-4.48c.9.29,1.34.54,1.34.75s-.22.21-.66.24a9.94,9.94,0,0,1-2.64,3.75Zm6.34,6.59v-3.43h-4.19v3.43Zm-1.07-11.12c2.19,1.34,3.28,2.46,3.28,3.39,0,.34-.14.51-.42.51s-.42-.19-.58-.54a9.52,9.52,0,0,0-2.5-3.11Z" transform="translate(0 -0.13)"/><path class="cls-6" d="M346.91,330.08a17.11,17.11,0,0,1-1.73,4.19l-.3-.22a23.43,23.43,0,0,0,1.94-6.29h-1.63l-.13-.37h1.86V324.2c.94,0,1.41.14,1.41.38s-.19.27-.59.4v2.4h.4l.58-.82.11.11a5.38,5.38,0,0,1,.69.83l-.14.24h-1.63v1.6c1.12.78,1.68,1.52,1.68,2.19,0,.32-.16.5-.45.5s-.32-.18-.4-.53a4.7,4.7,0,0,0-.83-1.7v7.3h-.82Zm5-2.71v-1.22H349l-.13-.37h3v-1.57c.88,0,1.31.13,1.31.3s-.16.26-.54.38v.88h1.47V324.2c.85,0,1.26.14,1.26.34s-.18.24-.5.37v.88h1.63l.67-.86a8.83,8.83,0,0,1,.91,1l-.13.26h-3.09v1.22h1.38l.53-.58c.54.43.82.69.82.8a.28.28,0,0,1-.13.19l-.3.18v3.6h-.78v-.3h-5.87v.4h-.78v-4.72c.37.16.69.32.91.43Zm3.67,5.06.46-.54c.61.42.91.7.91.83s-.06.13-.16.19l-.32.21v4h-.8v-.72h-4.37v.74h-.82v-5.06a9.85,9.85,0,0,1,.93.35Zm-5-4.69v1.33h1.36v-1.33Zm1.36,1.68h-1.36v1.49h1.36Zm-.61,3.38v1.36h4.37V332.8Zm4.37,3.23v-1.5h-4.37V336Zm-3-8.66h1.47v-1.22H352.7Zm0,.37v1.33h1.47v-1.33Zm1.47,1.68H352.7v1.49h1.47Zm2.27-.35v-1.33h-1.5v1.33Zm0,1.84v-1.49h-1.5v1.49Z" transform="translate(0 -0.13)"/><path class="cls-6" d="M346.68,344.21c-.21-.21-.38-.59-.22-.77s.4,0,.61,0a2.06,2.06,0,0,0,.94.16,8.62,8.62,0,0,0,1.9-.45c.5-.14,1.6-.5,2.59-.75s2.06-.53,2.58-.61a2.49,2.49,0,0,1,1.42.14c.26.16.42.45.32.64s-.3.19-.56.14a9.3,9.3,0,0,0-1-.13,15.72,15.72,0,0,0-1.78.19l-.11,0c-.21.18-.54.42-.82.66a3.29,3.29,0,0,0-.9,1.2,7.65,7.65,0,0,0-.34,1.63,9.23,9.23,0,0,0,0,2.53,1.64,1.64,0,0,0,.62,1.2,1.85,1.85,0,0,0,1.3.32,4,4,0,0,1,1.14,0,1.24,1.24,0,0,1,.66.46c.13.19,0,.43-.35.46a10,10,0,0,1-1.55,0,3,3,0,0,1-1.73-.62,2.16,2.16,0,0,1-.72-1.47,8.51,8.51,0,0,1,0-2.3A19.48,19.48,0,0,1,351,345a2.69,2.69,0,0,1,.7-1.3,6.46,6.46,0,0,1,.77-.66,6.31,6.31,0,0,0-.83.26c-.59.22-1.54.63-2,.82a6.87,6.87,0,0,1-1.66.51A1.56,1.56,0,0,1,346.68,344.21Zm8.44,1.1a5.5,5.5,0,0,0-.93-.75c-.13-.1-.21-.21-.13-.32s.19-.06.27,0a2.93,2.93,0,0,1,.86.19,1.82,1.82,0,0,1,1,.66.39.39,0,0,1-.22.58A1,1,0,0,1,355.12,345.31Zm1.28-.67a2.5,2.5,0,0,0-1-.66c-.14-.06-.21-.21-.14-.3s.18-.06.27-.06a2.4,2.4,0,0,1,.88.14,2,2,0,0,1,1,.59.38.38,0,0,1-.21.59A.83.83,0,0,1,356.4,344.64Z" transform="translate(0 -0.13)"/><path class="cls-6" d="M351.37,366.55a5.76,5.76,0,0,0,.82-1.14l-.27-.11a4.48,4.48,0,0,1-2.08-2.22,5.39,5.39,0,0,1-.24-3.17c-.11.13-.22.27-.32.4a6.16,6.16,0,0,0-1.09,2.18,3.81,3.81,0,0,0-.18,2.35c.16.62.21,1.14-.06,1.23s-.58-.18-.86-.75a6.14,6.14,0,0,1-.53-2,6.81,6.81,0,0,1,.21-2.24,4.86,4.86,0,0,0,.18-1.76,3,3,0,0,0-.45-1.25c-.13-.18-.16-.43,0-.51s.37.08.54.29a3.39,3.39,0,0,1,.67,1.17,3.93,3.93,0,0,1,0,1.87,6.76,6.76,0,0,0-.1,2.27,4.1,4.1,0,0,1,.24-1.09,6.31,6.31,0,0,1,1.52-2.77,8,8,0,0,1,.67-.62,2.18,2.18,0,0,1,1.52-1.38,1.8,1.8,0,0,1,1,.08,3.87,3.87,0,0,1,2.61.38,3.35,3.35,0,0,1,1.57,2.21,5.86,5.86,0,0,1,0,2.69,4.3,4.3,0,0,1-1.58,2.38,3,3,0,0,1-2.29.58,8.9,8.9,0,0,1-.83,1.06,6.47,6.47,0,0,1-1.31,1.14c-.18.1-.37.14-.42.06s0-.21.11-.32A7.83,7.83,0,0,0,351.37,366.55Zm1.14-1.73a5.78,5.78,0,0,0,.54-1.73,10.17,10.17,0,0,0,.1-2.13,5.71,5.71,0,0,0-.54-2.4.93.93,0,0,0-.38-.4,5.24,5.24,0,0,0-.72.3,6.44,6.44,0,0,0-1.1.7,4.23,4.23,0,0,0-.24,1.3,5.69,5.69,0,0,0,.5,2.71A3.45,3.45,0,0,0,352.51,364.82Zm.74-6.88a4.1,4.1,0,0,1,.27.45,5.49,5.49,0,0,1,.59,2.26,8.87,8.87,0,0,1-.18,2.43,6.62,6.62,0,0,1-.74,1.84,2.53,2.53,0,0,0,2.22-1.28,5.36,5.36,0,0,0,.58-3.36,2.71,2.71,0,0,0-1.74-2.21A4.1,4.1,0,0,0,353.24,357.94Z" transform="translate(0 -0.13)"/><path class="cls-6" d="M356.4,377.82a1.66,1.66,0,0,0-.42-1.25,1.76,1.76,0,0,0-1.25-.58,2.55,2.55,0,0,0-1.22.19,7.84,7.84,0,0,0-1.22.75c-.34.24-.83.67-1.23,1a2.27,2.27,0,0,1-1.33.51,1.92,1.92,0,0,1-1.1-.43c-.21-.19-.35-.43-.27-.51a.35.35,0,0,1,.4-.06,2.48,2.48,0,0,0,.74.08,2,2,0,0,0,.77-.29c.24-.11,1-.58,1.38-.77a11.15,11.15,0,0,1,1.31-.66,4.64,4.64,0,0,1,1.71-.43,2.65,2.65,0,0,1,1.76.74,2.25,2.25,0,0,1,.72,1.52,2.58,2.58,0,0,1-.48,1.84,4.27,4.27,0,0,1-1.66,1.25,10.06,10.06,0,0,1-1.76.67,5.37,5.37,0,0,1-1,.16c-.14,0-.26-.06-.26-.13a.2.2,0,0,1,.22-.16,3.17,3.17,0,0,0,.86-.14,9.64,9.64,0,0,0,1.7-.72,4.28,4.28,0,0,0,1.23-1.15A3,3,0,0,0,356.4,377.82Z" transform="translate(0 -0.13)"/><path class="cls-6" d="M348.49,394.58a16,16,0,0,0,.59-1.68l-.59,0a3.87,3.87,0,0,1-1.46-.19c-.3-.13-.38-.43-.29-.54s.18,0,.27,0a2.32,2.32,0,0,0,.42.16,2.13,2.13,0,0,0,.72,0,4.11,4.11,0,0,0,1.15-.21,5.74,5.74,0,0,0,.18-1.52,2.17,2.17,0,0,0-.32-1c-.13-.19-.24-.48-.06-.61s.42,0,.64.11a1.19,1.19,0,0,1,.51.78,1.44,1.44,0,0,1,0,.74,4.88,4.88,0,0,0,1,.38c.3.06.58.14.66.3s0,.32-.19.58a3.15,3.15,0,0,1-1.31.7c-.22,0-.46.1-.72.13,0,.19-.1.34-.13.46-.11.42-.48,1.46-.59,1.84s-.53,1.7-.74,2.34a24.36,24.36,0,0,1-1,2.37.4.4,0,0,1-.59.14c-.24-.14-.24-.53-.24-.78a3.84,3.84,0,0,1,.43-1.06c.18-.45.42-.94.67-1.5S348.3,395,348.49,394.58Zm1.66-3.43c0,.11,0,.22-.08.3s-.06.27-.11.48a3.67,3.67,0,0,0,.58-.3c.11,0,.08-.18,0-.26A2.77,2.77,0,0,0,350.16,391.15Zm6.53,8.21c.19.3-.14.61-.54.64a10.54,10.54,0,0,1-2.69-.08,2.25,2.25,0,0,1-2-1.28,2.32,2.32,0,0,1,.19-2,5.91,5.91,0,0,1,.61-1.15c.1-.13.19-.21.26-.16s0,.16-.06.3a6.12,6.12,0,0,0-.51,1.2,1.68,1.68,0,0,0,.06,1.46,2,2,0,0,0,1.23.75,4.76,4.76,0,0,0,1.34,0,9.53,9.53,0,0,1,1.22-.16A1,1,0,0,1,356.69,399.36Zm-2.15-6.51c0-.08-.22-.14-.37-.16a3.35,3.35,0,0,0-1.07,0,4.8,4.8,0,0,0-.74.16c-.18,0-.43.08-.48,0s.19-.32.37-.38a10.77,10.77,0,0,1,1.23-.35,3.41,3.41,0,0,1,1-.08,1.6,1.6,0,0,1,.94.24.57.57,0,0,1,.29.63.56.56,0,0,1-.37.32l-.7.3a9.08,9.08,0,0,0-1,.53,2.14,2.14,0,0,0-.66.53c-.1.11-.21.3-.27.26s0-.19,0-.32a5.45,5.45,0,0,1,.66-.82,5.92,5.92,0,0,1,.8-.59C354.41,393,354.56,392.91,354.54,392.85Z" transform="translate(0 -0.13)"/><path class="cls-6" d="M353.82,412.62a5.91,5.91,0,0,0,.26-2.67,2.41,2.41,0,0,0-.8-1.7,2.16,2.16,0,0,0-1.75-.48,2.49,2.49,0,0,0-1.39.67,2.22,2.22,0,0,0-.72,1.7,2.78,2.78,0,0,0,.61,1.52c.21.32.34.9,0,1.1s-.78-.13-1.1-.64a4.43,4.43,0,0,1-.51-2,7.12,7.12,0,0,1,.19-2,7.63,7.63,0,0,0,.27-1.58,1.25,1.25,0,0,0-.37-1c-.19-.16-.29-.3-.26-.45s.3-.18.5-.11a1.29,1.29,0,0,1,.77.59,1.87,1.87,0,0,1,.1,1.7,4.32,4.32,0,0,0-.45,1.7,2,2,0,0,1,.53-.78,3.49,3.49,0,0,1,1.78-.85,2.78,2.78,0,0,1,2.16.51,3.31,3.31,0,0,1,1.22,1.86,5.18,5.18,0,0,1,.1,2.4,4.29,4.29,0,0,1-.85,2,4.87,4.87,0,0,1-1.82,1.47,6.69,6.69,0,0,1-1.86.58,4.76,4.76,0,0,1-1.18.11c-.24,0-.35-.08-.35-.14s.08-.14.29-.16a9.09,9.09,0,0,0,1-.14,5.08,5.08,0,0,0,2.34-1.14A4.45,4.45,0,0,0,353.82,412.62Z" transform="translate(0 -0.13)"/><path class="cls-6" d="M354.67,431.17c-.86.1-2.27.14-3.36.14a3.71,3.71,0,0,1-2.67-.82,1.75,1.75,0,0,1-.08-2,4.84,4.84,0,0,1,1.62-1.47,1.38,1.38,0,0,1-.69-.88,8.38,8.38,0,0,1,.08-1.86c0-.58.11-1.2.13-1.67a2,2,0,0,0-.22-1.07c-.14-.19-.29-.43-.22-.58s.46-.08.67.1a3.08,3.08,0,0,1,.67.91,1.66,1.66,0,0,1,0,1,9.92,9.92,0,0,0-.34,1.36,15.31,15.31,0,0,0-.18,1.76.94.94,0,0,0,.35.74c.94-.58,2-1.1,3-1.58.26-.14.16-.46,0-.67s0-.34.3-.3a1.36,1.36,0,0,1,.66.32c.27.22.53.87,0,1.1a31.82,31.82,0,0,0-4.58,2.32c-1,.72-1.18,1.49-.66,2.08a3.06,3.06,0,0,0,2.18.64,8.41,8.41,0,0,0,2.27-.32c.51-.18,1.44-.27,1.7.13S355.12,431.12,354.67,431.17Z" transform="translate(0 -0.13)"/><path class="cls-6" d="M357.33,436.28a1.68,1.68,0,0,1,.88,1.52,1.8,1.8,0,0,1-1.79,1.81,1.83,1.83,0,0,1-.78-.19,1.77,1.77,0,0,1-.18-3.12,1.72,1.72,0,0,1,.94-.29A1.75,1.75,0,0,1,357.33,436.28Zm-1.87.64a1.26,1.26,0,0,0-.34.88,1.37,1.37,0,0,0,.19.7,1.23,1.23,0,0,0,1.1.59,1.3,1.3,0,0,0,1.3-1.3,1.22,1.22,0,0,0-.56-1,1.28,1.28,0,0,0-.74-.26A1.32,1.32,0,0,0,355.45,436.92Z" transform="translate(0 -0.13)"/><path class="cls-6" d="M323.44,77.52a2.64,2.64,0,0,1-.58,1.71,3.84,3.84,0,0,1-1.73,1.1,4.69,4.69,0,0,1-2.27.13,2.58,2.58,0,0,1-1.79-1.15,4.35,4.35,0,0,1-.43-2.38c0-.19,0-.4,0-.59l-.19-.11c-.48-.29-.7-.51-.7-.86a1.11,1.11,0,0,1,.51-.86c.16-.13.38-.29.66-.48.11-.59.19-1,.27-1.39-.1,0-.18-.08-.29-.11a1.64,1.64,0,0,1-.91-.74c-.19-.35-.21-.72-.08-.75s.38.21.62.42a2.34,2.34,0,0,0,.83.38,3.75,3.75,0,0,0,.11-.51,7.78,7.78,0,0,0,.18-.88,1.91,1.91,0,0,0,0-.75,1.66,1.66,0,0,0-.34-.59c-.14-.14-.22-.27-.16-.38s.22-.14.45-.08a2.44,2.44,0,0,1,.91.56c.27.27.21.77,0,1.42-.11.38-.27.9-.4,1.38a6.51,6.51,0,0,0,.78.1c.46,0,.77.16.86.42a.59.59,0,0,1-.34.72,14.54,14.54,0,0,1-1.36.71l-.42.19q-.1.51-.14,1c0,.22-.06.42-.1.62a4.8,4.8,0,0,0,1.39.21,1.09,1.09,0,0,1,.75.13c.19.11.35.4.29.54s-.21.22-.53.26a4.85,4.85,0,0,1-1.55-.13l-.4-.11a5.37,5.37,0,0,0,0,.72,2.41,2.41,0,0,0,.94,2,3.12,3.12,0,0,0,2.72.19,2.05,2.05,0,0,0,1.41-1.84,3.57,3.57,0,0,0-.42-2,4.26,4.26,0,0,0-1.09-1.36,5.4,5.4,0,0,0-.8-.56c-.14-.06-.26-.16-.19-.27s.19-.08.3,0a3.79,3.79,0,0,1,.83.43,6.46,6.46,0,0,1,1.75,1.52A3.62,3.62,0,0,1,323.44,77.52Zm-6.67-2.1a7.2,7.2,0,0,1,.11-.9l-.18.11c-.32.19-.35.42-.16.61A2.07,2.07,0,0,0,316.76,75.42Zm1.14-2.64a.23.23,0,0,1,0,.1c-.06.19-.1.42-.14.62a6.25,6.25,0,0,0,.59-.37c.16-.11.24-.34-.21-.35Z" transform="translate(0 -0.13)"/><path class="cls-6" d="M316.3,88.23a3.56,3.56,0,0,0,.85-.06,13.6,13.6,0,0,0,.18-1.6,1.52,1.52,0,0,0-.27-.93c-.16-.19-.22-.43-.1-.58s.67,0,.93.22a1.57,1.57,0,0,1,.43,1,1.86,1.86,0,0,1-.13.59,1.17,1.17,0,0,0,.21.13,4.64,4.64,0,0,0,1,.4c.26,0,.56.1.69.3s-.13.43-.35.53a12.47,12.47,0,0,1-1.78.45.56.56,0,0,1-.24,0,1.65,1.65,0,0,0,0,.35,15.18,15.18,0,0,0-.18,1.57,1.49,1.49,0,0,0,.27.93c.11.14.24.18.35.08s.45-.26.85-.46a6.57,6.57,0,0,1,1.82-.61,4.07,4.07,0,0,1,2,.06,1.85,1.85,0,0,1,1.31,1.2,2.42,2.42,0,0,1-.06,1.74,4,4,0,0,1-1.1,1.28,5.1,5.1,0,0,1-1.39.77,10,10,0,0,1-1.84.35c-.46,0-.82.08-1,.08s-.24-.1-.24-.13,0-.14.21-.14a2.83,2.83,0,0,0,.59,0,11.27,11.27,0,0,0,1.62-.46,5.43,5.43,0,0,0,2.08-1.38,2.17,2.17,0,0,0,.34-2,1.43,1.43,0,0,0-1-1,3.35,3.35,0,0,0-1.54,0,6.18,6.18,0,0,0-1.58.64,2.76,2.76,0,0,0-.85.8,5.16,5.16,0,0,0-.37.86c-.14.27-.24.37-.43.43a.43.43,0,0,1-.5-.13,3,3,0,0,1-.3-1.41c0-.62.08-1.26.13-1.92,0-.48.13-1,.22-1.54a5.2,5.2,0,0,1-.75,0,2.6,2.6,0,0,1-1-.29c-.18-.08-.34-.27-.21-.38s.26,0,.43,0A3,3,0,0,0,316.3,88.23Zm1.74-1a1.11,1.11,0,0,0-.08.21c0,.13-.08.32-.13.54a3.34,3.34,0,0,0,.56-.21c.14-.08.13-.21.08-.22a1.44,1.44,0,0,1-.37-.24A.3.3,0,0,0,318,87.25Z" transform="translate(0 -0.13)"/><path class="cls-6" d="M324.19,107.82a2.24,2.24,0,0,1-.19,1.82,3.41,3.41,0,0,1-1.33,1.23,7.89,7.89,0,0,1-1.57.69,8.67,8.67,0,0,1-1.6.34c-.27,0-.45,0-.5-.1s.22-.22.32-.24a11.14,11.14,0,0,0,1.23-.4,5.44,5.44,0,0,0,2.15-1.38,2,2,0,0,0,.43-2.26,2,2,0,0,0-1.63-1,4.36,4.36,0,0,0-2,.22,6.2,6.2,0,0,0-1.94,1.18,5,5,0,0,0-1.28,1.73c-.29.66-.4,1.25-.51,1.46s-.26.22-.46.14-.32-.38-.4-.74a1.47,1.47,0,0,1,.32-1.1c.26-.32.53-.72,1-1.23s.8-1.2,1.22-1.79,1.42-1.92,1.73-2.37,1-1.46,1.07-1.58.1-.24,0-.29-.19,0-.29.13-.53.34-.72.48a6.94,6.94,0,0,1-.86.5,1.34,1.34,0,0,1-.93.08,2,2,0,0,1-.75-.38c-.19-.16-.24-.54-.11-.66s.48,0,.75.1a1.39,1.39,0,0,0,1,0,9.6,9.6,0,0,0,1.52-.67,4.58,4.58,0,0,1,1-.48.87.87,0,0,1,.64.37.77.77,0,0,1,.08.75c-.08.19-.37.3-.51.4a4.33,4.33,0,0,0-.67.77c-.21.3-.78,1-1.38,1.75a22.35,22.35,0,0,0-1.66,2.34,6.51,6.51,0,0,1,1.12-.86,5,5,0,0,1,2.16-.8,4.36,4.36,0,0,1,2.48.5A2.16,2.16,0,0,1,324.19,107.82Z" transform="translate(0 -0.13)"/><path class="cls-6" d="M325.09,124.06a7.83,7.83,0,0,1-.8,2.06,2.57,2.57,0,0,1-2,1.47,2.48,2.48,0,0,1-2.32-1,3.4,3.4,0,0,1-.38-2.71,1,1,0,0,0-1-1.26,2.35,2.35,0,0,0-1.62.69,9.79,9.79,0,0,0-1.41,1.49,3.17,3.17,0,0,0-.1.3,5.89,5.89,0,0,0-.21,2.1c0,.5,0,.67-.08.74s-.29.11-.56-.06a1.16,1.16,0,0,1-.43-.85,7.88,7.88,0,0,1,.61-2,20.46,20.46,0,0,1,1.31-2.71c.32-.53.88-1.42,1.3-2s1-1.49,1.23-1.81a.53.53,0,0,0,0-.67c-.08-.13-.13-.32,0-.42s.35,0,.5,0a2,2,0,0,1,.51.48.61.61,0,0,1-.08.8A13.11,13.11,0,0,0,318.3,120a24,24,0,0,0-1.7,2.48c-.14.24-.29.53-.43.8a5.15,5.15,0,0,1,1.57-1.22,2.31,2.31,0,0,1,2.3.16c.56.48.45,1.3.32,2.27a2.21,2.21,0,0,0,.58,2.06,1.77,1.77,0,0,0,2,.14,3,3,0,0,0,1.15-1.18,11.75,11.75,0,0,0,.59-1.52c.06-.19.16-.37.27-.35S325.13,123.87,325.09,124.06Z" transform="translate(0 -0.13)"/><path class="cls-6" d="M313.79,141.91c0-.29.21-.54.56-.66a2,2,0,0,1,1.2.1,7,7,0,0,0,.83-.46c.19-.11.69-.38,1.22-.7,0-.54,0-1.23,0-2,0-.22,0-.43,0-.64a7.81,7.81,0,0,1-.85.21,2.23,2.23,0,0,1-1.1-.11,3.62,3.62,0,0,1-.67-.46c-.1-.1-.19-.27-.06-.38s.27-.08.42,0a2.35,2.35,0,0,0,.62.34,1.58,1.58,0,0,0,.9,0,4.65,4.65,0,0,0,.74-.29c0-.48,0-.87,0-1.07a8.86,8.86,0,0,0-.16-1.14,1.23,1.23,0,0,0-.53-.74.25.25,0,0,1-.06-.4c.06-.1.21-.13.46-.08a1.93,1.93,0,0,1,.7.42,1.15,1.15,0,0,1,.3.66c0,.06,0,.16,0,.29a8,8,0,0,0,.88.5,2.09,2.09,0,0,0,.86.18.38.38,0,0,1,.4.32.71.71,0,0,1-.42.74,7.77,7.77,0,0,1-1.57.71l-.08,0c0,.35,0,.69,0,.91v1.52a11.74,11.74,0,0,1,2.42-1.22,3.49,3.49,0,0,1,2.63.13,2,2,0,0,1,1.18,1.63,3.62,3.62,0,0,1-3.07,3.36,1.24,1.24,0,0,1-1.5-.82,3.94,3.94,0,0,1,0-1.73,3.72,3.72,0,0,1,.53-1.22c.16-.21.35,0,.24.18a2.37,2.37,0,0,0-.38,1.06c-.14.64,0,1.54.59,1.68a2.1,2.1,0,0,0,1.79-.61,2.5,2.5,0,0,0,.86-1.63,1.37,1.37,0,0,0-.48-1.22,2.31,2.31,0,0,0-1.62-.4,5.74,5.74,0,0,0-2.16.72l-1.07.66v1a7.21,7.21,0,0,0,.06,1,1.24,1.24,0,0,1-.18.82,1.42,1.42,0,0,1-.4.51.54.54,0,0,1-.34.06.28.28,0,0,1-.26-.13,4.84,4.84,0,0,1-.43-.62,4.75,4.75,0,0,0-.78-1,1.19,1.19,0,0,1-.27.16,2.11,2.11,0,0,1-1.18.27C314.11,142.36,313.82,142.18,313.79,141.91Zm.56-.21c0,.06.14.1.29.06a1.37,1.37,0,0,0,.53-.18C314.67,141.44,314.3,141.59,314.35,141.7Zm2,0c.27.14.5.29.7.42s.38.26.45.22.14-.21.14-.38,0-.67,0-1.18l-.42.3C316.88,141.32,316.59,141.54,316.35,141.7Zm1.87-6.39c0,.32,0,.67,0,.95,0,.1,0,.21,0,.3a5.12,5.12,0,0,0,.61-.35c.16-.1.19-.24,0-.37A4.7,4.7,0,0,1,318.22,135.31Zm7.06,1.67a.62.62,0,0,1-.85-.13,2.08,2.08,0,0,0-.75-.67,1.29,1.29,0,0,0-1-.13,1.23,1.23,0,0,0-.59.3c-.08.1-.16.14-.26.08a.23.23,0,0,1,0-.26,1.56,1.56,0,0,1,.69-.62,2.19,2.19,0,0,1,1.52-.06,1.94,1.94,0,0,1,1.18.7C325.45,136.5,325.49,136.8,325.28,137Z" transform="translate(0 -0.13)"/><path class="cls-6" d="M313.42,151.53c1.34.42,2,1,2,1.62,0,.37-.16.54-.5.54s-.38-.16-.48-.48a2.75,2.75,0,0,0-1.18-1.41Zm4.48-.58-2.29,6.32a2.76,2.76,0,0,0-.24,1,2.37,2.37,0,0,0,.1.58,5.58,5.58,0,0,1,.16,1.26c0,.62-.22,1-.67,1s-.5-.16-.5-.48c0,0,0-.22.06-.61a8.15,8.15,0,0,0,.1-1.14,1.45,1.45,0,0,0-.35-1.12,1.7,1.7,0,0,0-.86-.32V157a2.65,2.65,0,0,0,.58.06,1,1,0,0,0,.93-.51,44.05,44.05,0,0,0,2.66-5.92Zm-3.43-2.53c1.41.35,2.11.85,2.11,1.5,0,.4-.18.58-.53.58-.19,0-.35-.16-.45-.45a2.61,2.61,0,0,0-1.3-1.34Zm9.83,7.22.54-.62c.56.43.83.71.83.85a.15.15,0,0,1-.1.13l-.37.24c-.06,2.1-.29,3.47-.72,4.1a1.52,1.52,0,0,1-1.38.67.6.6,0,0,0-.43-.58,6.94,6.94,0,0,0-1.31-.32v-.38a10,10,0,0,0,1.67.14.94.94,0,0,0,1-.71,11.63,11.63,0,0,0,.35-3.17h-.94a8.65,8.65,0,0,1-5.27,5l-.24-.32a8.72,8.72,0,0,0,4.58-4.66h-1.22s0,0,0,.1,0,.08,0,.1a7.91,7.91,0,0,1-4.29,3.57l-.19-.3a8.12,8.12,0,0,0,3.67-3.46h-1.18a8.1,8.1,0,0,1-2.72,2l-.21-.29a8.3,8.3,0,0,0,3.14-3.33H317.1L317,154h7.54l.72-.85a7,7,0,0,1,.93.94l-.16.27h-5.68a6.91,6.91,0,0,1-.78,1.28Zm-4.85-6.72h3.87l.54-.67c.58.45.86.75.86.9s0,.08-.1.13l-.37.22v3.78h-.82v-.61h-4.13v.69h-.82v-4.88c.24.08.48.24.78.37Zm-.13.35v1.25h4.13v-1.25Zm4.13,3v-1.41h-4.13v1.41Z" transform="translate(0 -0.13)"/><path class="cls-6" d="M316.91,170.06c-.08.18-.29.86-.46,1.31s-.43,1.38-.64,2.06a3.41,3.41,0,0,0,0,1.67c.1.35.06.8-.18.85s-.46,0-.7-.45a5.36,5.36,0,0,1-.38-1.87,11.69,11.69,0,0,1,.08-2,17.58,17.58,0,0,1,.37-1.92,9.41,9.41,0,0,0,.26-1.82,1.79,1.79,0,0,0-.29-1.15c-.14-.22-.21-.38-.1-.53s.4,0,.56.13a2.65,2.65,0,0,1,.56.86,2.13,2.13,0,0,1,0,1.38c-.13.43-.38,1.17-.61,2a9.37,9.37,0,0,0-.21,2.1c0,.27.19.22.22.08.11-.32.37-1.07.58-1.5s.34-.61.66-1.28c.08-.18.21-.32.32-.26S317,169.87,316.91,170.06Zm7.83,5.51c-.08.18-.42.19-.62,0a12.11,12.11,0,0,0-1.1-.9,3.38,3.38,0,0,0-.53-.35c0,.14,0,.26,0,.35a1.56,1.56,0,0,1-1.25,1.31,3.6,3.6,0,0,1-2.22-.22,1.24,1.24,0,0,1-.83-1.22,1.28,1.28,0,0,1,.93-1.09,4.06,4.06,0,0,1,1.87-.19,4.91,4.91,0,0,1,.8.13c0-.38,0-.79,0-1.12,0-.53,0-1.15,0-1.87,0-.32,0-.7,0-1a4.68,4.68,0,0,1-1.34-.11,2.28,2.28,0,0,1-1.1-.58c-.29-.27-.3-.59-.22-.62s.3.08.53.22a2.33,2.33,0,0,0,.75.3,5,5,0,0,0,1.41.13,1.52,1.52,0,0,0,0-.38,12.75,12.75,0,0,0-.1-1.62c-.06-.48-.11-.64-.3-.83s-.27-.38-.18-.54.26-.16.61,0a1.22,1.22,0,0,1,.8.85,3,3,0,0,1,0,1.31,3.35,3.35,0,0,0,.8.32c.3.08.69.1.85.24s.11.53-.27.8a3.37,3.37,0,0,1-1.57.45c0,.4,0,.8,0,1,0,.51,0,1.41.1,2.22,0,.34,0,.71,0,1,.19.06.4.13.59.21a3.3,3.3,0,0,1,1.41.86A.9.9,0,0,1,324.73,175.57Zm-3-1.63-.24-.1a4.19,4.19,0,0,0-1.76-.14c-.48.06-1,.32-1,.8s.22.74.9.88a2,2,0,0,0,1.49-.19,1.45,1.45,0,0,0,.66-1.23Zm.83-6.23a1.75,1.75,0,0,0,0,.3c0,.16,0,.34-.06.56l.61-.18c.16,0,.16-.14,0-.21S322.8,167.9,322.57,167.71Z" transform="translate(0 -0.13)"/><path class="cls-6" d="M323.21,180.25a5.58,5.58,0,0,1,2.26,1.31,1.39,1.39,0,0,1,.43,1c0,.5-.22.72-.69.72-.24,0-.43-.18-.56-.54a5.73,5.73,0,0,0-1.62-2.21Z" transform="translate(0 -0.13)"/><path class="cls-6" d="M315,200.64a3.47,3.47,0,0,0,.85.24,4.63,4.63,0,0,0,1.39,0c.72-.08,1.18-.18,1.73-.24l.45,0c0-.43,0-.8,0-1.07a11.65,11.65,0,0,0-.11-1.36,1.2,1.2,0,0,0-.38-.82c-.24-.19-.38-.56-.27-.7s.53-.1.86,0a1.65,1.65,0,0,1,.75.51.74.74,0,0,1,.16.64,2.27,2.27,0,0,0,0,.46,7.59,7.59,0,0,0,0,1.18c0,.24,0,.59,0,1,.1,0,.19,0,.29,0,.62-.06,1.34-.11,1.79-.19a7,7,0,0,1,1.23-.14,1.85,1.85,0,0,1,1,.32.71.71,0,0,1,.3.54c0,.14-.32.14-.8.13s-1.17,0-2-.06a15.44,15.44,0,0,0-1.87.06c0,.5-.06,1-.11,1.46a8.73,8.73,0,0,1-.46,2.26,7.73,7.73,0,0,1-1.12,2.1,9.24,9.24,0,0,1-1.3,1.42c-.21.19-.48.37-.58.24s.06-.26.27-.45a8.44,8.44,0,0,0,1.17-1.68,7.82,7.82,0,0,0,.91-2.58,21.76,21.76,0,0,0,.24-2.45v-.24c-.88.06-1.49.16-1.89.21a18.14,18.14,0,0,1-1.86.27,1.25,1.25,0,0,1-1.17-.37c-.26-.3-.29-.56-.13-.69S314.79,200.57,315,200.64Z" transform="translate(0 -0.13)"/><path class="cls-6" d="M318.52,217.93c0,.29,0,1.54,0,2.1a16.84,16.84,0,0,0,.08,2c.08.53.19,1,.29,1.41s0,1-.35,1.07a1,1,0,0,1-.93-.66,2.25,2.25,0,0,1-.11-1.34c.08-.43.14-1,.21-1.73s.1-1.71.11-2.58.08-1.62.11-2.3a8.19,8.19,0,0,0-.06-1.6,1.37,1.37,0,0,0-.46-.94c-.24-.21-.37-.48-.24-.64s.42-.14.66-.08a1.27,1.27,0,0,1,.77.51,1.31,1.31,0,0,1,.06.88c0,.26-.08.69-.11,1.18s0,1.07,0,1.7c0,.21.19.21.34.22a4.34,4.34,0,0,1,1.76.37,4.23,4.23,0,0,1,1.55,1.1c.46.5.75,1.34.13,1.58s-1-.5-1.31-1.09a3.25,3.25,0,0,0-1.1-1.23,2.42,2.42,0,0,0-1.07-.38C318.59,217.48,318.52,217.62,318.52,217.93Z" transform="translate(0 -0.13)"/><path class="cls-6" d="M316.23,240a11.14,11.14,0,0,0,1.46-.59,6.78,6.78,0,0,0,2.21-1.6,5.76,5.76,0,0,0,1.34-2.45,10.91,10.91,0,0,0,.34-2.77,19.18,19.18,0,0,0-.11-2.3,1.07,1.07,0,0,0-.43-.85c-.22-.19-.4-.37-.24-.56s.4-.21.94,0a1.78,1.78,0,0,1,.66.38.66.66,0,0,1,.3.61,3.4,3.4,0,0,0-.06.59c0,.37,0,1.07,0,2a8.21,8.21,0,0,1-.5,3.09,6.46,6.46,0,0,1-1.42,2.29,7.67,7.67,0,0,1-2,1.5,11.06,11.06,0,0,1-2.43.88c-.24.06-.4,0-.43-.06S316.06,240.09,316.23,240Zm2.56-9a15.51,15.51,0,0,0,0,1.78c0,.9,0,1.81.08,2.26a1.59,1.59,0,0,1-.27,1,.35.35,0,0,1-.56.08c-.13-.14-.19-.35-.16-.91s0-1.42.08-2.32,0-1.34,0-1.86a.9.9,0,0,0-.37-.86c-.21-.16-.42-.3-.35-.48s.24-.18.62-.11a1.58,1.58,0,0,1,.94.53C319.05,230.39,318.86,230.71,318.8,231Z" transform="translate(0 -0.13)"/><path class="cls-6" d="M315.32,256.36c-.24,0-.42,0-.45-.13s.1-.19.37-.24a9.82,9.82,0,0,0,1.6-.37,7.43,7.43,0,0,0,2.71-1.55,8.19,8.19,0,0,0,1.76-2.3,7.34,7.34,0,0,0,.7-2,5,5,0,0,0,.1-1.58.28.28,0,0,0-.35-.3c-.66.06-1.73.13-2.23.13s-1.46,0-1.57,0-.11.08-.11.14c0,.37.1.67.16,1.12a2.2,2.2,0,0,1,.06.82c0,.24-.14.4-.29.43a.5.5,0,0,1-.43-.14c-.22-.16-.26-.45-.29-.78,0-.59-.08-1.31-.13-1.63a1,1,0,0,0-.26-.67c-.16-.13-.3-.29-.21-.43s.45-.11.69,0a1.44,1.44,0,0,1,.51.38.57.57,0,0,0,.29.18h.72c.19,0,.37,0,.53,0,0-.26,0-.77,0-1.07s-.06-.75-.29-.91-.37-.38-.29-.53a.45.45,0,0,1,.5-.1,1.76,1.76,0,0,1,.78.38c.27.24.11.59,0,.91a12.13,12.13,0,0,0-.08,1.28,3,3,0,0,0,.35,0l1.26-.06a2.88,2.88,0,0,0,.93-.27A.62.62,0,0,1,323,247a2.23,2.23,0,0,1,.59.43.34.34,0,0,1,0,.54,1.33,1.33,0,0,0-.37.83A6.56,6.56,0,0,1,323,250a7.86,7.86,0,0,1-1.31,2.79,9.78,9.78,0,0,1-2.32,2.22,8.47,8.47,0,0,1-2.45,1.12,7.11,7.11,0,0,1-1.6.26Z" transform="translate(0 -0.13)"/><path class="cls-6" d="M324.41,268.94c.46.75.74,1.75.11,1.94s-1-.5-1.33-1.44a2.93,2.93,0,0,0-.13-.34l-2.54.62c-.7.18-2.42.58-2.93.67a1.89,1.89,0,0,0-1.25.66,1,1,0,0,1-.62.3,1.75,1.75,0,0,1-1-.42,1.16,1.16,0,0,1-.43-1c0-.26.32-.22.69-.26s.56-.35,1-1.06.75-1.36,1.33-2.35a25.39,25.39,0,0,0,1.41-2.74,1.4,1.4,0,0,0-.18-1.25c-.14-.22-.29-.45-.14-.54s.61-.1,1,.21a1.27,1.27,0,0,1,.53,1,1.52,1.52,0,0,1-.45,1c-.26.38-1.15,1.86-1.63,2.64s-1.5,2.54-1.6,2.72,0,.24.11.24.53,0,1.1-.16,2.11-.37,2.85-.5,1.63-.32,2.47-.45a5,5,0,0,0-.91-1.18c-.21-.19-.35-.37-.26-.46s.32,0,.72.19A6.57,6.57,0,0,1,324.41,268.94Z" transform="translate(0 -0.13)"/><path class="cls-6" d="M320.35,281.9a1,1,0,0,1,.29.7.92.92,0,0,1-.14.54,1,1,0,0,1-.9.5,1,1,0,0,1-.66-.24,1,1,0,0,1-.38-.8,1,1,0,0,1,.45-.85,1,1,0,0,1,.59-.19A1,1,0,0,1,320.35,281.9Z" transform="translate(0 -0.13)"/><path class="cls-6" d="M314.28,304.34a8.73,8.73,0,0,0,.91-.7,11.46,11.46,0,0,0,2-2.16,11.72,11.72,0,0,0,1.23-2.4,18.12,18.12,0,0,0,.56-1.73l-1.09.13a9.46,9.46,0,0,1-1.14.11,2.21,2.21,0,0,1-1.25-.4c-.32-.29-.43-.58-.34-.72s.58-.08.86,0a6,6,0,0,0,1.47.19c.61,0,1.1,0,1.63-.06a.06.06,0,0,0,0,0,16,16,0,0,0,.24-1.83,1.57,1.57,0,0,0-.27-.94c-.16-.22-.24-.43-.18-.56s.3-.13.66,0a1.5,1.5,0,0,1,.74.46.6.6,0,0,1,.14.63,2.12,2.12,0,0,0-.14.56c-.11.56-.18,1.09-.29,1.63.4,0,.8-.1,1.22-.16a7.88,7.88,0,0,0,1.23-.24,2,2,0,0,0,.67-.35c.14-.13.37-.14.64.06a2,2,0,0,1,.59.67.42.42,0,0,1-.1.46.92.92,0,0,0-.19.42l-.16,1.31c-.1.67-.22,1.33-.43,2.26a5.82,5.82,0,0,1-.67,1.81c-.24.37-.46.46-.72.4s-.29-.18-.38-.46a1.8,1.8,0,0,0-.46-.74,2.93,2.93,0,0,0-.75-.58c-.14-.08-.22-.19-.19-.27s.16-.1.34,0l1,.32c.42.13.69.08.83-.22a5,5,0,0,0,.4-1.39,20.56,20.56,0,0,0,.29-2.3c0-.3,0-.48,0-.53a.9.9,0,0,0-.3-.13,1.17,1.17,0,0,0-.34,0c-.1,0-.26.06-.75.14s-1,.13-1.92.26c0,.13-.1.26-.14.42a18.41,18.41,0,0,1-1.06,2.37,12.16,12.16,0,0,1-1.33,2.07,9.9,9.9,0,0,1-1.86,1.81,7.2,7.2,0,0,1-1.07.66C314.2,304.65,314.07,304.47,314.28,304.34Z" transform="translate(0 -0.13)"/><path class="cls-6" d="M315.27,318.7a5.89,5.89,0,0,1-1.42,1c-.24.1-.43.16-.5.06s.1-.19.26-.3a5.3,5.3,0,0,0,1.14-.86,6.94,6.94,0,0,0,1.33-1.81,9.14,9.14,0,0,0,.8-2.11,11,11,0,0,0,.34-2c0-.77,0-1.14-.37-1.44s-.35-.4-.24-.54.29-.16.66-.06a1.78,1.78,0,0,1,1,.61c.3.34.29.58.19.72a.78.78,0,0,0-.16.45,13.6,13.6,0,0,1-.21,1.73,7.55,7.55,0,0,1-1.06,2.67A9.48,9.48,0,0,1,315.27,318.7Zm4.61-2.26c.14-.16.19-.32.19-.82s0-1.46,0-2.34,0-1.54,0-2.07a1.1,1.1,0,0,0-.42-1.09c-.32-.24-.42-.5-.32-.64a.52.52,0,0,1,.53-.1,2.35,2.35,0,0,1,.94.4.69.69,0,0,1,.32.88,5.94,5.94,0,0,0-.18,2c0,1.34-.06,2.48-.08,2.85s0,.46.24.46a2.23,2.23,0,0,0,1-.45,10.13,10.13,0,0,0,1.52-1.14c.61-.53,1.15-1,1.46-1.33s.59-.51.69-.4,0,.3-.35.7-1.18,1.31-2,2a18.4,18.4,0,0,1-2,1.65,2.13,2.13,0,0,1-1.06.54.89.89,0,0,1-.7-.45C319.61,316.89,319.68,316.68,319.88,316.44Z" transform="translate(0 -0.13)"/><path class="cls-6" d="M314,329.55c0-.22.58-.16,1-.14a4.1,4.1,0,0,1,1.34.27,2.33,2.33,0,0,1,.83.58.64.64,0,0,1,0,1,.69.69,0,0,1-.91-.24,3.82,3.82,0,0,0-.85-.75,2.7,2.7,0,0,0-1.07-.46C314.07,329.69,314,329.68,314,329.55Zm4.45-1.73a.67.67,0,0,1,.13.91.65.65,0,0,1-.85,0,3.93,3.93,0,0,1-.86-.77,2.38,2.38,0,0,0-1.46-.85c-.24,0-.35-.11-.35-.21s.24-.18.43-.18a4.76,4.76,0,0,1,.72,0,6,6,0,0,1,1.17.32A2.8,2.8,0,0,1,318.43,327.82Zm6.45.16a16.6,16.6,0,0,1-1.62,2.11c-.64.7-1,1-2,2a17.92,17.92,0,0,1-3.07,2.3,3.6,3.6,0,0,1-1.73.66,1.11,1.11,0,0,1-1-.69c-.16-.34-.21-.72,0-.82s.3,0,.51.13a1.28,1.28,0,0,0,.75.26,5,5,0,0,0,2.08-.93,18.57,18.57,0,0,0,2-1.44,15.43,15.43,0,0,0,2.1-1.89c.58-.66,1.25-1.55,1.5-1.92s.54-.75.69-.66S325.23,327.45,324.88,328Z" transform="translate(0 -0.13)"/><path class="cls-6" d="M315.32,352.36c-.24,0-.42,0-.45-.13s.1-.19.37-.24a9.82,9.82,0,0,0,1.6-.37,7.43,7.43,0,0,0,2.71-1.55,8.19,8.19,0,0,0,1.76-2.3,7.34,7.34,0,0,0,.7-2,5,5,0,0,0,.1-1.58.28.28,0,0,0-.35-.3c-.66.06-1.73.13-2.23.13s-1.46,0-1.57,0-.11.08-.11.14c0,.37.1.67.16,1.12a2.2,2.2,0,0,1,.06.82c0,.24-.14.4-.29.43a.5.5,0,0,1-.43-.14c-.22-.16-.26-.45-.29-.78,0-.59-.08-1.31-.13-1.63a1,1,0,0,0-.26-.67c-.16-.13-.3-.29-.21-.43s.45-.11.69,0a1.44,1.44,0,0,1,.51.38.57.57,0,0,0,.29.18h.72c.19,0,.37,0,.53,0,0-.26,0-.77,0-1.07s-.06-.75-.29-.91-.37-.38-.29-.53a.45.45,0,0,1,.5-.1,1.76,1.76,0,0,1,.78.38c.27.24.11.59,0,.91a12.13,12.13,0,0,0-.08,1.28,3,3,0,0,0,.35,0l1.26-.06a2.88,2.88,0,0,0,.93-.27A.62.62,0,0,1,323,343a2.23,2.23,0,0,1,.59.43.34.34,0,0,1,0,.54,1.33,1.33,0,0,0-.37.83A6.56,6.56,0,0,1,323,346a7.86,7.86,0,0,1-1.31,2.79,9.78,9.78,0,0,1-2.32,2.22,8.47,8.47,0,0,1-2.45,1.12,7.11,7.11,0,0,1-1.6.26Z" transform="translate(0 -0.13)"/><path class="cls-6" d="M324.41,364.94c.46.75.74,1.75.11,1.94s-1-.5-1.33-1.44a2.93,2.93,0,0,0-.13-.34l-2.54.62c-.7.18-2.42.58-2.93.67a1.89,1.89,0,0,0-1.25.66,1,1,0,0,1-.62.3,1.75,1.75,0,0,1-1-.42,1.16,1.16,0,0,1-.43-1c0-.26.32-.22.69-.26s.56-.35,1-1.06.75-1.36,1.33-2.35a25.39,25.39,0,0,0,1.41-2.74,1.4,1.4,0,0,0-.18-1.25c-.14-.22-.29-.45-.14-.54s.61-.1,1,.21a1.27,1.27,0,0,1,.53,1,1.52,1.52,0,0,1-.45,1c-.26.38-1.15,1.86-1.63,2.64s-1.5,2.54-1.6,2.72,0,.24.11.24.53,0,1.1-.16,2.11-.37,2.85-.5,1.63-.32,2.47-.45a5,5,0,0,0-.91-1.18c-.21-.19-.35-.37-.26-.46s.32,0,.72.19A6.57,6.57,0,0,1,324.41,364.94Z" transform="translate(0 -0.13)"/><path class="cls-6" d="M320.35,377.9a1,1,0,0,1,.29.7.92.92,0,0,1-.14.54,1,1,0,0,1-.9.5,1,1,0,0,1-.66-.24,1,1,0,0,1-.38-.8,1,1,0,0,1,.45-.85,1,1,0,0,1,.59-.19A1,1,0,0,1,320.35,377.9Z" transform="translate(0 -0.13)"/><path class="cls-6" d="M319.05,388.19c.86.21,1.3.42,1.3.59s-.21.24-.62.3c-.18.5-.34.86-.45,1.14h4.82l.67-.91a6,6,0,0,1,.93,1l-.14.29H319.1a8.73,8.73,0,0,1-1.86,2.56l-.26-.22c.08-.1.19-.26.34-.46h-1.6v4.83l.06,0c.58-.24,1.09-.43,1.52-.62l0,.38a30,30,0,0,1-3.49,1.73c0,.37-.13.54-.26.54s-.45-.4-.67-1.2q1.22-.31,2-.53v-5.12h-1.74l-.13-.35h1.87v-3.75c.94,0,1.41.14,1.41.37s-.19.26-.59.4v3h.62l.58-.88a5.7,5.7,0,0,1,.67.8A15.26,15.26,0,0,0,319.05,388.19Zm5.7,12.08h.43l.53-1a9.3,9.3,0,0,1,.62,1l-.16.29H316.11l-.19-.35h1.94v-4.4a8.79,8.79,0,0,1,.91.48h5.06l.56-.59c.53.4.8.67.8.8a.17.17,0,0,1-.08.14l-.35.27Zm-1.55-8.2.58-.61c.5.38.77.64.77.77s0,.11-.13.18l-.29.21v2.69h-.78v-.56h-4v.66h-.78v-3.78a6.72,6.72,0,0,1,.94.45Zm-4.55,4.63v3.57h1.18V396.7Zm.72-4.27v2h4v-2Zm2.46,4.27h-1.18v3.57h1.18Zm.83,0v3.57h1.28V396.7Z" transform="translate(0 -0.13)"/><path class="cls-6" d="M317.19,408.81c0,.14-.19.27-.58.4v7.91h-.85v-7.57a19.93,19.93,0,0,1-2.26,3l-.3-.24a23.92,23.92,0,0,0,3.87-8.07c.91.24,1.38.46,1.38.67s-.22.24-.67.3a28.62,28.62,0,0,1-1.41,3.22C316.92,408.52,317.19,408.64,317.19,408.81Zm3.41,1.63a.42.42,0,0,0,.18-.08,14.23,14.23,0,0,0,3.62-3.23c.72.5,1.07.86,1.07,1.06s-.1.16-.3.16a2.8,2.8,0,0,1-.45-.06A19.26,19.26,0,0,1,320.6,411v4.45a.49.49,0,0,0,.24.5c.18,0,.72,0,1.7,0a9.73,9.73,0,0,0,1.76-.1c.43-.14.69-1.15.8-3l.38.18a9.17,9.17,0,0,0,.16,2.37.44.44,0,0,0,.45.29.84.84,0,0,1-.62.88,16.42,16.42,0,0,1-3,.14,5.38,5.38,0,0,1-2.47-.3,1.21,1.21,0,0,1-.24-.88V404.38c1,0,1.49.18,1.49.4s-.21.26-.62.42Z" transform="translate(0 -0.13)"/><path class="cls-6" d="M316.3,423.95v3.42c.86-.24,1.6-.43,2.21-.64l0,.37-2.21.86-.1,0v5.12h-.82v-4.83c-.53.18-1.06.34-1.55.48,0,.35-.13.51-.26.51s-.4-.42-.62-1.23c.85-.14,1.68-.29,2.48-.48v-3.62h-1.15a13.73,13.73,0,0,1-1,3.09l-.34-.13a21.65,21.65,0,0,0,.72-5.87c.86,0,1.3.18,1.3.35s-.14.22-.46.34a18,18,0,0,1-.21,1.86h1.1V420.2c.91,0,1.38.13,1.38.32s-.19.26-.56.42v2.64h.75l.61-.93a7.67,7.67,0,0,1,.78,1l-.16.26Zm7.25-.43a16,16,0,0,1-1.22,4.43,11,11,0,0,1-4.39,4.75l-.26-.27a12.62,12.62,0,0,0,5-8.92h-1.09a10.33,10.33,0,0,1-4.13,6.39l-.26-.26a11.25,11.25,0,0,0,3.55-6.13h-1.17a12.58,12.58,0,0,1-1.87,3.06l-.3-.19a14.84,14.84,0,0,0,2.22-6.21c.88.16,1.33.34,1.33.54s-.19.21-.54.3a18,18,0,0,1-.69,2.15h4.71l.51-.67c.59.45.88.75.88.91s0,.14-.16.21l-.32.19c0,4.19-.26,6.92-.7,8.15a1.66,1.66,0,0,1-1.78,1.07c0-.29-.14-.48-.48-.61a9.28,9.28,0,0,0-1.5-.38v-.38a13,13,0,0,0,2,.19,1,1,0,0,0,1-.64c.4-1.25.58-3.81.59-7.68Z" transform="translate(0 -0.13)"/><path class="cls-6" d="M317.31,443.74l.48-.62c.59.5.88.83.88,1s0,.1-.13.14l-.34.14a9.18,9.18,0,0,1-4.9,4l-.22-.32a8.85,8.85,0,0,0,4.26-4h-3.47l-.14-.37Zm1.92-1.54h-3v.69h-.82v-5.38a7,7,0,0,1,.94.45h2a6.88,6.88,0,0,0,.56-1.87c1,.19,1.46.38,1.46.56s-.22.22-.64.29a7.36,7.36,0,0,1-.88,1h4l.56-.66c.59.45.88.74.88.86a.33.33,0,0,1-.14.22l-.35.26v4.16H323v-.61h-2.87a8.07,8.07,0,0,0,1.94,2.9,12.94,12.94,0,0,0,2.1-2.51c.7.48,1.06.82,1.06,1s-.11.16-.34.16l-.34,0a16.57,16.57,0,0,1-2.18,1.68,12.4,12.4,0,0,0,3.67,2,2.46,2.46,0,0,0-.69.91,9.45,9.45,0,0,1-5.25-5.25v4.85a1.12,1.12,0,0,1-.35.94,1.89,1.89,0,0,1-1.18.29.64.64,0,0,0-.43-.59,6.61,6.61,0,0,0-1.36-.34v-.38a14.63,14.63,0,0,0,2.06.14.38.38,0,0,0,.43-.43Zm3.73-2.38v-1.49h-6.77v1.49Zm0,2v-1.65h-6.77v1.65Z" transform="translate(0 -0.13)"/><path class="cls-6" d="M325.13,458.09a6.16,6.16,0,0,1-.21,2.21,3.54,3.54,0,0,1-1.55,2,7.41,7.41,0,0,1-2.64,1,6.88,6.88,0,0,1-2.58,0c-.16,0-.24-.08-.22-.16s.1-.14.22-.13a7.11,7.11,0,0,0,2.77-.22,7.06,7.06,0,0,0,2-.95,3.64,3.64,0,0,0,1.38-2.27,5.65,5.65,0,0,0-.21-2.64,3.34,3.34,0,0,0-1.41-2,4.52,4.52,0,0,0-2.79-.59l-.42.06c0,.32,0,.83,0,1.23a10.58,10.58,0,0,1-.24,2.19,7.09,7.09,0,0,1-1.12,2.82A2.87,2.87,0,0,1,316,462a1.76,1.76,0,0,1-1.63-1.22,3.45,3.45,0,0,1-.21-2.39,4.82,4.82,0,0,1,1.07-2.22,6.8,6.8,0,0,1,2-1.68,6.55,6.55,0,0,1,3-.7,5,5,0,0,1,2.54.67,4.69,4.69,0,0,1,1.68,1.68A4.27,4.27,0,0,1,325.13,458.09ZM319,454.52a6.43,6.43,0,0,0-2,.93,5.35,5.35,0,0,0-1.9,2.35,3.81,3.81,0,0,0-.13,2.43c.22.54.77.66,1.41.45a2.84,2.84,0,0,0,1.62-1.31,6.16,6.16,0,0,0,.93-2.58A11.45,11.45,0,0,0,319,454.52Z" transform="translate(0 -0.13)"/><path class="cls-6" d="M313.55,480.74l-.21-.34c3.43-1.09,5.31-3.17,5.7-6.28h-4.85l-.16-.35h5.06c0-.45,0-.7,0-.82v-2.79h-5.35l-.16-.37h10.05l.85-1a10,10,0,0,1,1.14,1.09l-.18.3H320V473c0,.19,0,.46,0,.82h3.3l.82-1a11.21,11.21,0,0,1,1.07,1.06l-.16.3h-4.87a10.14,10.14,0,0,0,6,5.54,2.67,2.67,0,0,0-.78.86,10.39,10.39,0,0,1-5.41-5.94C319.36,477.81,317.23,479.86,313.55,480.74Z" transform="translate(0 -0.13)"/><path class="cls-6" d="M321.15,487.9c0-.51.08-1,.08-1.39v-2.16c.9,0,1.34.13,1.34.34s-.18.26-.54.38v1.44c0,.56,0,1-.06,1.39h2.4l.62-.85c.3.3.59.61.86.93l-.16.27h-3.51a8.81,8.81,0,0,0,3.83,4.27,3,3,0,0,0-.7.82,8.88,8.88,0,0,1-3.44-4.77,6.21,6.21,0,0,1-1.34,3.1,7.5,7.5,0,0,1-2.56,1.79l-.19-.34a6.47,6.47,0,0,0,2.72-2.74,8.06,8.06,0,0,0,.61-2.14H319a11.5,11.5,0,0,1-5.39,5.78l-.21-.32a12,12,0,0,0,5.3-7.24h-2.24c-.16.32-.34.64-.5,1,1.17.46,1.74.94,1.74,1.5a.38.38,0,0,1-.42.43c-.19,0-.34-.14-.43-.4a3,3,0,0,0-1.09-1.22,13.9,13.9,0,0,1-.78,1.15c1.07.59,1.62,1.17,1.62,1.74,0,.32-.14.46-.42.46s-.34-.14-.43-.46a3.74,3.74,0,0,0-1-1.46,13.18,13.18,0,0,1-1.41,1.44l-.24-.27a13.67,13.67,0,0,0,3.14-6.07c.88.24,1.33.46,1.33.62s-.22.22-.64.29a8.89,8.89,0,0,1-.32.9h2l.53-.64c.56.5.85.83.85,1s-.06.13-.14.18l-.37.18c-.13.42-.24.78-.37,1.1Zm-5.25,5.88a5,5,0,0,1-1,2.82,1.26,1.26,0,0,1-.93.56.46.46,0,0,1-.51-.53c0-.16.16-.34.46-.53a4.23,4.23,0,0,0,1.67-2.43Zm1.74-.16a4,4,0,0,1,1.07,2.43c0,.56-.21.83-.59.83s-.4-.16-.4-.5v-.1a3.75,3.75,0,0,0,0-.46,6.16,6.16,0,0,0-.38-2.07Zm2.61-.06c1.22.94,1.84,1.83,1.84,2.64q0,.67-.58.67c-.27,0-.42-.19-.46-.58a5.32,5.32,0,0,0-1.06-2.51Zm2.66-8.72c1.09.54,1.65,1.1,1.65,1.68,0,.37-.18.54-.51.54s-.35-.16-.42-.46a2.78,2.78,0,0,0-.93-1.52Zm.19,8.68a7,7,0,0,1,2.19,1.62,1.57,1.57,0,0,1,.51,1.07c0,.4-.19.61-.53.61s-.43-.19-.56-.58a6,6,0,0,0-1.83-2.46Z" transform="translate(0 -0.13)"/><path class="cls-6" d="M313.21,503.55c1.25.42,1.84,1,1.84,1.62,0,.37-.14.54-.46.54s-.4-.18-.48-.51A2.43,2.43,0,0,0,313,503.8Zm4-.61-2,6.34a4.12,4.12,0,0,0-.21,1.07,2.72,2.72,0,0,0,.06.45,10,10,0,0,1,.18,1.42c0,.58-.19.86-.61.86a.45.45,0,0,1-.5-.51s0-.3.08-.85a7,7,0,0,0,.06-.86,1.43,1.43,0,0,0-.42-1.18,1.54,1.54,0,0,0-.69-.26V509a2,2,0,0,0,.51.06.89.89,0,0,0,.85-.51,43.64,43.64,0,0,0,2.32-5.89Zm-3-2.48c1.3.4,2,.91,2,1.58,0,.35-.16.54-.5.54-.18,0-.34-.16-.43-.46a2.9,2.9,0,0,0-1.18-1.41Zm10.5,11.73h.5l.58-1s.1.13.26.37.35.56.42.69l-.16.29H315.91l-.18-.37h1.54V507a9.94,9.94,0,0,1,1,.51h5.43l.58-.66c.59.45.88.74.88.86s0,.11-.11.16l-.37.22ZM323,501.07l.53-.64c.58.45.88.74.88.88s0,.11-.14.18l-.34.19v4.82h-.83v-.66h-4.35v.79h-.83v-6a3.87,3.87,0,0,1,.9.45Zm-4.95,6.83v4.29h1.36V507.9Zm.69-6.47v1.79h4.35v-1.79Zm4.35,4v-1.91h-4.35v1.91Zm-1.52,2.42h-1.38v4.29h1.38Zm.8,0v4.29h1.46V507.9Z" transform="translate(0 -0.13)"/><path class="cls-6" d="M317.31,523.74l.48-.62c.59.5.88.83.88,1s0,.1-.13.14l-.34.14a9.18,9.18,0,0,1-4.9,4l-.22-.32a8.85,8.85,0,0,0,4.26-4h-3.47l-.14-.37Zm1.92-1.54h-3v.69h-.82v-5.38a7,7,0,0,1,.94.45h2a6.88,6.88,0,0,0,.56-1.87c1,.19,1.46.38,1.46.56s-.22.22-.64.29a7.36,7.36,0,0,1-.88,1h4l.56-.66c.59.45.88.74.88.86a.33.33,0,0,1-.14.22l-.35.26v4.16H323v-.61h-2.87a8.07,8.07,0,0,0,1.94,2.9,12.94,12.94,0,0,0,2.1-2.51c.7.48,1.06.82,1.06,1s-.11.16-.34.16l-.34,0a16.57,16.57,0,0,1-2.18,1.68,12.4,12.4,0,0,0,3.67,2,2.46,2.46,0,0,0-.69.91,9.45,9.45,0,0,1-5.25-5.25v4.85a1.12,1.12,0,0,1-.35.94,1.89,1.89,0,0,1-1.18.29.64.64,0,0,0-.43-.59,6.61,6.61,0,0,0-1.36-.34v-.38a14.63,14.63,0,0,0,2.06.14.38.38,0,0,0,.43-.43Zm3.73-2.38v-1.49h-6.77v1.49Zm0,2v-1.65h-6.77v1.65Z" transform="translate(0 -0.13)"/><path class="cls-6" d="M314.68,536.21c-.21-.21-.38-.59-.22-.77s.4,0,.61,0a2.06,2.06,0,0,0,.94.16,8.62,8.62,0,0,0,1.9-.45c.5-.14,1.6-.5,2.59-.75s2.06-.53,2.58-.61a2.49,2.49,0,0,1,1.42.14c.26.16.42.45.32.64s-.3.19-.56.14a9.3,9.3,0,0,0-1-.13,15.72,15.72,0,0,0-1.78.19l-.11,0c-.21.18-.54.42-.82.66a3.29,3.29,0,0,0-.9,1.2,7.65,7.65,0,0,0-.34,1.63,9.23,9.23,0,0,0,0,2.53,1.64,1.64,0,0,0,.62,1.2,1.85,1.85,0,0,0,1.3.32,4,4,0,0,1,1.14,0,1.24,1.24,0,0,1,.66.46c.13.19,0,.43-.35.46a10,10,0,0,1-1.55,0,3,3,0,0,1-1.73-.62,2.16,2.16,0,0,1-.72-1.47,8.51,8.51,0,0,1,0-2.3A19.48,19.48,0,0,1,319,537a2.69,2.69,0,0,1,.7-1.3,6.46,6.46,0,0,1,.77-.66,6.31,6.31,0,0,0-.83.26c-.59.22-1.54.63-2,.82a6.87,6.87,0,0,1-1.66.51A1.56,1.56,0,0,1,314.68,536.21Zm8.44,1.1a5.5,5.5,0,0,0-.93-.75c-.13-.1-.21-.21-.13-.32s.19-.06.27,0a2.93,2.93,0,0,1,.86.19,1.82,1.82,0,0,1,1,.66.39.39,0,0,1-.22.58A1,1,0,0,1,323.12,537.31Zm1.28-.67a2.5,2.5,0,0,0-1-.66c-.14-.06-.21-.21-.14-.3s.18-.06.27-.06a2.4,2.4,0,0,1,.88.14,2,2,0,0,1,1,.59.38.38,0,0,1-.21.59A.83.83,0,0,1,324.4,536.64Z" transform="translate(0 -0.13)"/><path class="cls-6" d="M325.45,552.1c-.13.14-.45.1-.66,0a9.15,9.15,0,0,0-1.39-.24,18.89,18.89,0,0,0-1.89-.08c-.29,0-.59,0-.88,0,0,.35,0,.86,0,1.26s.06.66.1,1.07a2.49,2.49,0,0,1,.21.75,4.07,4.07,0,0,1,0,1.58c0,.21-.13.72-.24,1.38a4.33,4.33,0,0,1-1,1.89,2.46,2.46,0,0,1-1.38.77c-.26,0-.43,0-.45-.08s.21-.18.37-.24a3.21,3.21,0,0,0,1.18-.85A3.12,3.12,0,0,0,320,558c0-.29,0-.7,0-1.1a1.32,1.32,0,0,1-.53.45c-.56.18-1.06-.18-1.44-.77a3,3,0,0,1-.48-1.9c0-.77.29-1.2.66-1.36a2,2,0,0,1,1.42,0l.26.14c0-.46,0-.93,0-1.34v-.21l-1,.08c-.66,0-1.31.22-1.89.32a16.88,16.88,0,0,1-2,.34,1.26,1.26,0,0,1-1.14-.4c-.24-.26-.24-.53-.1-.66a.46.46,0,0,1,.53,0,3.45,3.45,0,0,0,1.1.24,3.65,3.65,0,0,0,1.3-.08c.37,0,.94-.16,1.47-.22s1.22-.19,1.73-.27c0-.3-.06-.59-.1-.8a4.86,4.86,0,0,0-.37-1.15c-.14-.32-.18-.58,0-.67s.46,0,.82.22a.9.9,0,0,1,.35.43.35.35,0,0,1,.1.06l.69.56a11.44,11.44,0,0,0,1.33.78,6.81,6.81,0,0,0,1.15.48c.29.08.78.19,1.22.34S325.57,551.94,325.45,552.1Zm-5.52,3.06c0-.16,0-.34-.08-.54a1.14,1.14,0,0,0-1.18-.88.76.76,0,0,0-.7.78,3.26,3.26,0,0,0,.29,1.46,1.18,1.18,0,0,0,.93.58c.24,0,.45-.18.61-.58A2.26,2.26,0,0,0,319.93,555.16Zm2.16-4.15c-.26-.18-.66-.51-.83-.66l-.54-.43c0,.32,0,.85,0,1.18A6.82,6.82,0,0,1,322.09,551Z" transform="translate(0 -0.13)"/><path class="cls-6" d="M325.33,564.28a1.68,1.68,0,0,1,.88,1.52,1.8,1.8,0,0,1-1.79,1.81,1.83,1.83,0,0,1-.78-.19,1.77,1.77,0,0,1-.18-3.12,1.72,1.72,0,0,1,.94-.29A1.75,1.75,0,0,1,325.33,564.28Zm-1.87.64a1.26,1.26,0,0,0-.34.88,1.37,1.37,0,0,0,.19.7,1.23,1.23,0,0,0,1.1.59,1.3,1.3,0,0,0,1.3-1.3,1.22,1.22,0,0,0-.56-1,1.28,1.28,0,0,0-.74-.26A1.32,1.32,0,0,0,323.45,564.92Z" transform="translate(0 -0.13)"/></g></g></svg>