<svg xmlns="http://www.w3.org/2000/svg" xmlns:xlink="http://www.w3.org/1999/xlink" viewBox="0 0 763.19 600.28"><defs><style>.cls-1{fill:none;}.cls-2{clip-path:url(#clip-path);}.cls-3{opacity:0.31;}.cls-4{fill:#d48050;}.cls-5{fill:#527c68;}.cls-6{fill:#333;}</style><clipPath id="clip-path" transform="translate(0 -0.13)"><rect class="cls-1" x="252.09" width="281" height="601"/></clipPath></defs><title>Asset 10</title><g id="Layer_2" data-name="Layer 2"><g id="text"><g class="cls-2"><image class="cls-3" width="632" height="421" transform="translate(0) scale(1.21 1.43)" xlink:href="../../../190325 2/190325/design_underA/Links/BGT046.JPG"/></g><path class="cls-4" d="M393.51,45.4c0-.22.47-.36.9-.43a9.45,9.45,0,0,0,3-1.08,19.21,19.21,0,0,0,4.86-3.28,19.8,19.8,0,0,0,4.07-5.11c.25-.43.5-1,.14-1.29a3.71,3.71,0,0,0-1.3-.76c-.4-.18-.61-.43-.61-.65s.29-.4.94-.4a5.32,5.32,0,0,1,2.2.47A2.45,2.45,0,0,1,409,36.43,20.93,20.93,0,0,1,403.19,42a18.69,18.69,0,0,1-4.5,2.48,13.87,13.87,0,0,1-4,1.15C393.94,45.76,393.51,45.65,393.51,45.4ZM416,30.75a12.43,12.43,0,0,0-2.09-1.66.57.57,0,0,1-.32-.72.8.8,0,0,1,.65-.11,6.21,6.21,0,0,1,1.94.4,4.74,4.74,0,0,1,2.16,1.48.85.85,0,0,1-.54,1.3A2.14,2.14,0,0,1,416,30.75Zm5.76,8.6c.9,1.37,1,2.81,0,3.24a2,2,0,0,1-2.52-1.37,22.67,22.67,0,0,0-1.73-3.53,10.65,10.65,0,0,0-2.63-3.17c-.54-.43-.9-.72-.65-1s.72-.07,1.33.22A13.61,13.61,0,0,1,419,36,12.38,12.38,0,0,1,421.77,39.35Zm-2.92-10.08a5.11,5.11,0,0,0-2.2-1.48.52.52,0,0,1-.32-.72c.11-.14.4-.14.58-.14a6.25,6.25,0,0,1,2,.36,4.15,4.15,0,0,1,2.2,1.33.85.85,0,0,1-.4,1.33A2,2,0,0,1,418.85,29.27Z" transform="translate(0 -0.13)"/><path class="cls-4" d="M410.28,68.51c.29.54.07,1,0,1.58s-.14,3.1-.22,4.61,0,5.62,0,6.7-.07,3.92-.14,5.15-.22,2.56-.68,2.52-.58-1.12-.65-2.45-.18-3.53-.18-5.11c0-1.37,0-5.15,0-6.95s-.25-3.56-.32-4.54a3.75,3.75,0,0,0-.9-2.09c-.4-.47-.43-1.08-.18-1.29s.9-.18,1.69.29A4.27,4.27,0,0,1,410.28,68.51Z" transform="translate(0 -0.13)"/><path class="cls-4" d="M419.68,111.92c-.43.25-1,0-1.69-.14a12.89,12.89,0,0,0-3.1-.29c-.9,0-3,.22-4.64.36a6.5,6.5,0,0,1,1.55,1.19,1.22,1.22,0,0,1,.32,1.4,2.19,2.19,0,0,0-.47,1,18.08,18.08,0,0,1-.61,3.28,13.44,13.44,0,0,1-2.05,4.54,13.77,13.77,0,0,1-3.2,3.38,19.34,19.34,0,0,1-4,2.27,15.48,15.48,0,0,1-3.31.9c-.5.07-.86,0-.86-.14s.14-.36.54-.43a10.09,10.09,0,0,0,1.76-.47,12.8,12.8,0,0,0,3.42-1.83,15.93,15.93,0,0,0,3.78-4.14,22.81,22.81,0,0,0,2-4.57,25.57,25.57,0,0,0,.47-4.07,3.12,3.12,0,0,0-.65-2.23c-1.48.14-3.1.25-4,.36a20.59,20.59,0,0,1-2.88.29,3.07,3.07,0,0,1-2.27-.83c-.47-.47-.54-1.3-.22-1.51s.9.07,1.73.29a12.37,12.37,0,0,0,3.24.29,36.58,36.58,0,0,0,4.1-.22c1.4-.11,3.38-.32,4.75-.5s2.48-.36,3.42-.4a3.22,3.22,0,0,1,2.38.68C419.86,111.06,420.07,111.67,419.68,111.92Zm-17.13-5c-.58-.36-.83-1.22-.54-1.55s.9-.07,1.22,0a5.79,5.79,0,0,0,1.55.36,13.55,13.55,0,0,0,3.1-.25c.86-.14,2.16-.47,3.06-.72a5.84,5.84,0,0,1,2.45-.32,2.56,2.56,0,0,1,1.84,1.08c.29.54-.29,1-1.4.94s-1.94,0-3.2,0a31.64,31.64,0,0,0-3.31.29c-1.15.14-1.91.47-2.77.54A2.64,2.64,0,0,1,402.54,107Zm15.95-1a14.42,14.42,0,0,0-2.09-1.69c-.29-.18-.47-.43-.29-.68s.43-.18.61-.14a6.6,6.6,0,0,1,1.94.43,4.55,4.55,0,0,1,2.16,1.48.84.84,0,0,1-.5,1.3A2.32,2.32,0,0,1,418.49,105.91Zm2.88-1.48a5.55,5.55,0,0,0-2.27-1.51.5.5,0,0,1-.29-.68c.11-.14.4-.14.61-.14a5.91,5.91,0,0,1,1.94.32,4.7,4.7,0,0,1,2.23,1.37.83.83,0,0,1-.43,1.3A1.89,1.89,0,0,1,421.37,104.44Z" transform="translate(0 -0.13)"/><path class="cls-4" d="M398,166.14a17.17,17.17,0,0,0,2.27-.68,23.25,23.25,0,0,0,5.18-2.59,28,28,0,0,0,4.68-3.85,22.69,22.69,0,0,0,4.39-5.87,19.89,19.89,0,0,0,1.48-4.5,2.08,2.08,0,0,0-.76-2.16c-.54-.47-.9-1.08-.54-1.48s1.66-.25,2.3.14a3.78,3.78,0,0,1,1.62,1.66,1.9,1.9,0,0,1,.11,1.51c-.14.32-.32,1-.47,1.33a24.18,24.18,0,0,1-1.73,4.18,23.31,23.31,0,0,1-4.79,5.94,31,31,0,0,1-4.68,3.63,24.73,24.73,0,0,1-4.5,2.2,22.65,22.65,0,0,1-4.28,1.3c-.5.07-1,0-1-.18S397.58,166.28,398,166.14Zm5.72-18.68a6.06,6.06,0,0,1,1.48,2.74c.36,1.12.32,2.27-.68,2.59a1.73,1.73,0,0,1-2.09-1.33c-.18-.72-.11-1.4-.32-2.41a4.16,4.16,0,0,0-.86-1.83c-.36-.43-.68-.83-.47-1.15s.54-.18,1.12.07A6.19,6.19,0,0,1,403.77,147.46Zm14.79-2.77a10.5,10.5,0,0,0-2.05-1.66c-.32-.18-.47-.5-.32-.72s.43-.14.61-.14a6.79,6.79,0,0,1,2,.47,4.56,4.56,0,0,1,2.12,1.44.84.84,0,0,1-.5,1.3A2.25,2.25,0,0,1,418.56,144.68Zm2.84-1.51a5,5,0,0,0-2.2-1.44.53.53,0,0,1-.32-.68c.11-.18.43-.18.58-.18a7.31,7.31,0,0,1,2,.32,4.42,4.42,0,0,1,2.2,1.37.83.83,0,0,1-.43,1.3A1.85,1.85,0,0,1,421.41,143.17Z" transform="translate(0 -0.13)"/><path class="cls-4" d="M410.28,184.61c.29.54.07,1,0,1.58s-.14,3.1-.22,4.61,0,5.62,0,6.7-.07,3.92-.14,5.15-.22,2.56-.68,2.52-.58-1.12-.65-2.45-.18-3.53-.18-5.11c0-1.37,0-5.15,0-6.95s-.25-3.56-.32-4.54a3.75,3.75,0,0,0-.9-2.09c-.4-.47-.43-1.08-.18-1.29s.9-.18,1.69.29A4.27,4.27,0,0,1,410.28,184.61Z" transform="translate(0 -0.13)"/><path class="cls-4" d="M397.58,225.83c-.83-.43-1.26-.65-1.15-1s.72-.29,1.48-.18a9.49,9.49,0,0,1,2.63.68,7.47,7.47,0,0,1,2.48,1.58c.86.76,1.4,2.12.5,2.66-.72.43-1.76-.07-2.7-1.12A9.6,9.6,0,0,0,397.58,225.83Zm23.07-.5c-.43.72-1.12,1.8-2.52,3.78a32.94,32.94,0,0,1-4.54,5.36,42.31,42.31,0,0,1-6.08,4.79,18.8,18.8,0,0,1-5.58,2.63c-1.51.4-2.16.11-2.81-.61s-.79-2-.43-2.34l1.19.29a3.27,3.27,0,0,0,1.69.22,12.63,12.63,0,0,0,5.22-2,50.43,50.43,0,0,0,5.62-4.36,36.91,36.91,0,0,0,4.57-4.61c1.8-2.16,2.66-3.28,2.88-3.6s.54-.5.76-.4S420.9,224.85,420.65,225.32Z" transform="translate(0 -0.13)"/><path class="cls-4" d="M409.24,261V257c2.09,0,3.13.29,3.13.68s-.4.58-1.3.86V261h8.17l1.58-2.05a16.32,16.32,0,0,1,2.23,2.23l-.29.61H400.64v9.61c0,6.3-1.94,11.27-5.87,14.9l-.61-.58a19.81,19.81,0,0,0,4.57-12.85v-.11a31.62,31.62,0,0,1-3.28,3.46c0,.86-.14,1.33-.4,1.33-.43,0-1-.83-1.69-2.48a26.05,26.05,0,0,0,5.44-3.63V260.14a21.22,21.22,0,0,1,2.12.9Zm-14.61,2.41c2.05,1.84,3.1,3.56,3.1,5.22,0,.94-.43,1.37-1.3,1.37-.58,0-.86-.47-.9-1.4a9.8,9.8,0,0,0-1.51-4.72Zm5.51,21.42a15.73,15.73,0,0,0,5.44-5.83c1.58.86,2.41,1.48,2.41,1.91,0,.22-.29.32-.9.32h-.54a17,17,0,0,1-5.9,4.28Zm5-12.27a31.76,31.76,0,0,1-3.82,2.7l-.5-.68a24.64,24.64,0,0,0,7.56-8.42h-6.8l-.32-.79h7.52a18.69,18.69,0,0,0,1.22-3.2c1.87.36,2.77.76,2.77,1.15s-.43.43-1.3.61a11.12,11.12,0,0,1-.61,1.44h7.92l1.48-1.73c.47.36,1.15,1,2.12,1.94l-.36.58h-8.42a19.68,19.68,0,0,0,3.53,3.6,14.68,14.68,0,0,0,2.12-3.46c1.51.68,2.3,1.19,2.3,1.58s-.43.36-1.26.36a26.56,26.56,0,0,1-2.45,2.05,20.64,20.64,0,0,0,5.11,2.7,5.19,5.19,0,0,0-1.26,1.73,20,20,0,0,1-3.85-2.45v6.23H416v-.83h-3.6v5.87c0,1.55-1,2.38-2.88,2.38a1.23,1.23,0,0,0-.58-1.15,14.39,14.39,0,0,0-2.7-.65v-.86c1.66.18,2.81.25,3.46.25s.94-.29.94-.86v-5h-3.78v.83H405.1Zm-2.92-5.9c2.34.76,3.49,1.69,3.49,2.81,0,.72-.36,1.08-1,1.08-.4,0-.68-.32-.83-.86a4.55,4.55,0,0,0-2-2.45Zm4.68,4.21v2.45H416V270.9Zm9.14,6v-2.74h-9.14v2.74Zm-.65-6.8a26.69,26.69,0,0,1-2.84-3.89h-2.09a26,26,0,0,1-2.77,3.89Zm-.43,9q6.91,2.38,6.91,4.75a1,1,0,0,1-1.12,1.15q-.48,0-1.08-.86a15.81,15.81,0,0,0-5.11-4.39Z" transform="translate(0 -0.13)"/><path class="cls-4" d="M394.66,303.16c3,.9,4.54,2.09,4.54,3.6,0,.86-.36,1.26-1.12,1.26a1,1,0,0,1-1-.79,6.69,6.69,0,0,0-2.74-3.46Zm9.07-1.3-4.21,14.22-.14.43a9.93,9.93,0,0,0-.36,1.87,4.84,4.84,0,0,0,.22,1.26,10.36,10.36,0,0,1,.43,2.88c0,1.4-.5,2.12-1.51,2.12-.79,0-1.19-.36-1.19-1.12,0,0,0-.47.14-1.3a15.26,15.26,0,0,0,.22-2.38q0-3-2.7-3.46v-.86a7.68,7.68,0,0,0,1.37.14,2,2,0,0,0,2-1.15,100,100,0,0,0,4.93-13.21ZM397,296.17c3.17.79,4.75,1.91,4.75,3.42,0,.86-.4,1.26-1.12,1.26-.47,0-.83-.36-1.08-1a6.45,6.45,0,0,0-2.92-3Zm16.23,13.68h6l1.76-2.38a26.71,26.71,0,0,1,2.27,2.48l-.43.68h-9.93a.9.9,0,0,0-.18.4,68.64,68.64,0,0,1-4.75,9.18l.94,0c3.46-.14,6.73-.54,9.83-.86a31.3,31.3,0,0,0-4.25-5.11l.54-.61a25.45,25.45,0,0,1,6.62,6.3,5.05,5.05,0,0,1,1,2.59c0,.9-.4,1.33-1.15,1.33q-.65,0-1.19-1.4c-.25-.61-.65-1.4-1.08-2.23-4.39.79-9.29,1.51-14.76,2.2-.22.79-.43,1.19-.68,1.19-.43,0-.86-1-1.3-3.17l3.56-.11h.79a47.17,47.17,0,0,0,3.53-9.65h-8l-.32-.79h9.18V302.8H405l-.25-.83h6.59v-6.19c2.23.07,3.31.32,3.31.83q0,.43-1.4,1V302H418l1.48-2.2a22.17,22.17,0,0,1,2.12,2.38l-.36.65h-8Z" transform="translate(0 -0.13)"/><path class="cls-4" d="M394.34,341.89c2.74.94,4,2.16,4,3.6,0,.83-.32,1.22-1,1.22s-.94-.36-1.08-1.15a5.26,5.26,0,0,0-2.34-3.1Zm8.89-1.48-4.54,14.36a8.55,8.55,0,0,0-.5,2.34,4.93,4.93,0,0,0,.18,1.15,16.14,16.14,0,0,1,.43,3c0,1.37-.47,2.09-1.48,2.09-.76,0-1.12-.36-1.12-1.08,0-.14.07-.86.22-2.05a10.5,10.5,0,0,0,.14-1.91,3.17,3.17,0,0,0-.94-2.66,3.52,3.52,0,0,0-1.51-.54v-.86a4,4,0,0,0,1.12.14,2,2,0,0,0,2-1.15,117.06,117.06,0,0,0,5.26-13.39Zm-7-5.54c2.92.9,4.39,2.09,4.39,3.53,0,.83-.4,1.22-1.15,1.22-.4,0-.72-.32-.94-1a6.64,6.64,0,0,0-2.7-3.17Zm20.63,26.38h-9.43v2.16h-1.87V351.94a27.72,27.72,0,0,1-4.43,2.92l-.5-.65a28.72,28.72,0,0,0,10.76-13.82c1.91.43,2.84.86,2.84,1.33,0,.29-.5.5-1.51.72a31.37,31.37,0,0,0,10.76,8.78,5.94,5.94,0,0,0-1.51,1.94,31.77,31.77,0,0,1-9.68-9.79,27.23,27.23,0,0,1-6.08,8,16,16,0,0,1,1.55.5h8.89l1-1c1.26.86,1.91,1.44,1.91,1.69a.4.4,0,0,1-.22.36l-.61.43v10.08h-1.87ZM402.62,345.6a27.87,27.87,0,0,0,5-10.08c2,.65,3,1.22,3,1.69,0,.29-.5.47-1.48.54a22.35,22.35,0,0,1-5.94,8.42Zm14.25,14.83v-7.7h-9.43v7.7Zm-2.41-25c4.93,3,7.38,5.54,7.38,7.63,0,.76-.32,1.15-.94,1.15s-.94-.43-1.3-1.22c-.9-2.12-2.77-4.43-5.62-7Z" transform="translate(0 -0.13)"/><path class="cls-4" d="M399.92,391.68a43.31,43.31,0,0,0,4.64-2.63l.32.79a63.4,63.4,0,0,1-8.89,5.79c-.11.79-.25,1.22-.54,1.22s-.9-.83-1.62-2.52c1.62-.65,3.06-1.22,4.25-1.8v-10h-3.92l-.25-.79h4.18v-8.28c2.12.07,3.2.32,3.2.79,0,.22-.47.54-1.37.9v6.59h1.19l1.48-2.16a27.52,27.52,0,0,1,1.84,2.34l-.36.61h-4.14Zm19.26-1.87,1.19-1.4c1.3,1,2,1.62,2,1.91a.44.44,0,0,1-.25.36l-.83.58c0,4.93-.61,8.06-1.76,9.47a3.86,3.86,0,0,1-3.17,1.37,1.44,1.44,0,0,0-.94-1.3,19.53,19.53,0,0,0-3-.76v-.83a28.35,28.35,0,0,0,4,.4,2.06,2.06,0,0,0,2.12-1.58,28.81,28.81,0,0,0,.86-7.42H417.3l-.32.83c-1.84,4.61-5.62,8.13-11.27,10.47l-.54-.68c5-2.56,8.35-6.12,10.08-10.62h-2.77a19.63,19.63,0,0,1-9.86,8.64l-.47-.72a19.93,19.93,0,0,0,8.24-7.92h-2.63a20.69,20.69,0,0,1-6,4.68l-.54-.65a19.47,19.47,0,0,0,6.95-7.7h-5.58l-.32-.83h17.39l1.66-1.94a13.19,13.19,0,0,1,2.05,2.16l-.32.61H410.32a25,25,0,0,1-1.87,2.88Zm-2.37-15.12,1.22-1.4c1.3,1,1.91,1.62,1.91,1.87s-.07.22-.22.32l-.83.5v8.46h-1.8v-1.33h-9.18v1.55h-1.8V373.54c.61.29,1.33.65,2.2,1.15Zm-8.89.79v2.81h9.18v-2.81Zm9.18,6.8v-3.17h-9.18v3.17Z" transform="translate(0 -0.13)"/><path class="cls-5" d="M399.7,422.32H423v8h-1.4v-6.55H399.7Z" transform="translate(0 -0.13)"/><path class="cls-5" d="M418.2,449.49a6.75,6.75,0,0,1-2.23,2.38,19.9,19.9,0,0,1-3.13,1.48c.43.9.86,1.87,1.12,2.45.4,1,1.15,2.84,1.48,3.6a6.51,6.51,0,0,1,.65,2,1.6,1.6,0,0,1-.72,1.55c-1,.72-2.56-.07-4.28-1.12a9.27,9.27,0,0,0-2.77-1.12,9.39,9.39,0,0,0-4.25,0,2.73,2.73,0,0,0-2.16,2.81,4.66,4.66,0,0,0,1.84,3.1,7.05,7.05,0,0,0,3.17,1.33,11.14,11.14,0,0,0,3.49.22,21.36,21.36,0,0,1,2.38-.25,2.05,2.05,0,0,1,1.76.94c.36.61-.07,1-1.19,1.26a23.61,23.61,0,0,1-5.22.14,9.06,9.06,0,0,1-5.18-2.12,6.24,6.24,0,0,1-2.23-4.61,4.11,4.11,0,0,1,2.84-3.71,12.56,12.56,0,0,1,4.43-.47,27,27,0,0,1,3.13.61,10.7,10.7,0,0,0,2.09.5c.5,0,.83-.36.79-1a4.37,4.37,0,0,0-.43-1.4c-.25-.5-1-1.91-1.58-3.24a7.53,7.53,0,0,0-.47-.94l-.76.22a34.85,34.85,0,0,1-5,1,12.2,12.2,0,0,1-4.46-.25,7.1,7.1,0,0,1-2.52-1.19c-.43-.36-.68-.79-.47-1s.9.11,1.26.32a5.38,5.38,0,0,0,2.16.76,11.7,11.7,0,0,0,3.53-.11c1.12-.18,2.3-.47,3.49-.76.58-.14,1.19-.36,1.84-.58-.4-.65-.76-1.19-1-1.58a15.26,15.26,0,0,0-2-2.45c-.54-.5-.83-1.19-.4-1.73a1.53,1.53,0,0,1,1.84-.29c.54.29,1.26.61,2.05.94a18.17,18.17,0,0,0,3.42,1.12,14.17,14.17,0,0,0,3,.11C418.27,448.27,418.38,449,418.2,449.49Zm-3.2,0c-.43-.11-1.4-.43-2.3-.72a9.08,9.08,0,0,1-2-.83c-.47-.25-.83-.5-1-.29s.36.79.68,1.22,1,1.84,1.58,2.81c.22-.11.43-.18.61-.25a21,21,0,0,0,2.45-1.3C415.36,449.89,415.39,449.53,415,449.46Z" transform="translate(0 -0.13)"/><path class="cls-5" d="M416.19,501.77a3.7,3.7,0,0,0-1.66-3.74,6.29,6.29,0,0,0-4.86-.54,14.08,14.08,0,0,0-4.25,2.63,35.32,35.32,0,0,0-2.92,2.66,2.3,2.3,0,0,1-1.76.5c-.76,0-.86-.32-1.33-1.12a3.27,3.27,0,0,1-.61-2.37c.18-.79.4-2.12.68-3.67s.4-3.31.54-4.57.5-1.87,1.3-2.27a13.19,13.19,0,0,1,3-.79c.68-.07,1.66-.18,1.8-.54s-.25-1-.94-1.58a7.47,7.47,0,0,0-2.05-1.08c-.36-.14-.83-.32-.76-.61s.4-.32.76-.36a4.46,4.46,0,0,1,1.37,0,5.94,5.94,0,0,1,2.74,1.22,5,5,0,0,1,1.69,2.3,1.58,1.58,0,0,1-.18,1.69,1.1,1.1,0,0,1-1,.25,10.8,10.8,0,0,0-2.05-.54,7,7,0,0,0-2.77.22c-.65.18-1.12.5-1.19,1s-.25,1.51-.43,3-.36,3.42-.47,4.21-.29,1.8.22,2.05,1,.18,1.87-.36,2.23-1.48,3.74-2.3a10.2,10.2,0,0,1,4-1.33c2.92-.18,4.79.32,6.37,2a5.06,5.06,0,0,1,1,5.36,9.84,9.84,0,0,1-4.54,4.54,18.92,18.92,0,0,1-6.15,1.69,24.4,24.4,0,0,1-3.74.11c-.47,0-1-.14-1-.47s.5-.32,1-.29a18.17,18.17,0,0,0,3.64-.32,17.07,17.07,0,0,0,5.54-2.12C415,504.94,416,503.5,416.19,501.77Z" transform="translate(0 -0.13)"/><path class="cls-5" d="M418.2,526.89a6.75,6.75,0,0,1-2.23,2.38,19.9,19.9,0,0,1-3.13,1.48c.43.9.86,1.87,1.12,2.45.4,1,1.15,2.84,1.48,3.6a6.51,6.51,0,0,1,.65,2,1.6,1.6,0,0,1-.72,1.55c-1,.72-2.56-.07-4.28-1.12a9.27,9.27,0,0,0-2.77-1.12,9.39,9.39,0,0,0-4.25,0,2.73,2.73,0,0,0-2.16,2.81,4.66,4.66,0,0,0,1.84,3.1,7.05,7.05,0,0,0,3.17,1.33,11.14,11.14,0,0,0,3.49.22,21.36,21.36,0,0,1,2.38-.25,2.05,2.05,0,0,1,1.76.94c.36.61-.07,1-1.19,1.26a23.61,23.61,0,0,1-5.22.14,9.06,9.06,0,0,1-5.18-2.12,6.24,6.24,0,0,1-2.23-4.61,4.11,4.11,0,0,1,2.84-3.71,12.56,12.56,0,0,1,4.43-.47,27,27,0,0,1,3.13.61,10.7,10.7,0,0,0,2.09.5c.5,0,.83-.36.79-1a4.37,4.37,0,0,0-.43-1.4c-.25-.5-1-1.91-1.58-3.24a7.53,7.53,0,0,0-.47-.94l-.76.22a34.85,34.85,0,0,1-5,1,12.2,12.2,0,0,1-4.46-.25,7.1,7.1,0,0,1-2.52-1.19c-.43-.36-.68-.79-.47-1s.9.11,1.26.32a5.38,5.38,0,0,0,2.16.76,11.7,11.7,0,0,0,3.53-.11c1.12-.18,2.3-.47,3.49-.76.58-.14,1.19-.36,1.84-.58-.4-.65-.76-1.19-1-1.58a15.26,15.26,0,0,0-2-2.45c-.54-.5-.83-1.19-.4-1.73a1.53,1.53,0,0,1,1.84-.29c.54.29,1.26.61,2.05.94a18.17,18.17,0,0,0,3.42,1.12,14.17,14.17,0,0,0,3,.11C418.27,525.67,418.38,526.39,418.2,526.89Zm-3.2,0c-.43-.11-1.4-.43-2.3-.72a9.08,9.08,0,0,1-2-.83c-.47-.25-.83-.5-1-.29s.36.79.68,1.22,1,1.84,1.58,2.81c.22-.11.43-.18.61-.25a21,21,0,0,0,2.45-1.3C415.36,527.29,415.39,526.93,415,526.86Z" transform="translate(0 -0.13)"/><path class="cls-5" d="M394.16,560.81h1.4v6.55h21.92v1.44H394.16Z" transform="translate(0 -0.13)"/><path class="cls-6" d="M359.21,72.21l.56-.74c.59.51.9.85.9,1s0,.13-.14.18l-.37.19a13.38,13.38,0,0,1-1.47,3.57,9.78,9.78,0,0,1-3.25,3.17l-.24-.3a11.41,11.41,0,0,0,4.08-6.72h-3.49l-.13-.35Zm4.45,1.92a16.78,16.78,0,0,0,2.79-3.46c.74.51,1.12.85,1.12,1s-.11.16-.32.16a2.42,2.42,0,0,1-.38,0,22.09,22.09,0,0,1-3,2.69,13.75,13.75,0,0,0,4.21,4.1,2.47,2.47,0,0,0-.7.8A13.55,13.55,0,0,1,363.45,75a13.09,13.09,0,0,1-1.31-3.81v8.39c0,.83-.5,1.25-1.52,1.25a.59.59,0,0,0-.37-.58,7.83,7.83,0,0,0-1.63-.42v-.38a18.19,18.19,0,0,0,2.18.18c.34,0,.5-.14.5-.43V68.57c1,0,1.44.14,1.44.35s-.21.26-.59.38A13.29,13.29,0,0,0,363.66,74.13Z" transform="translate(0 -0.13)"/><path class="cls-6" d="M365.2,96.34h-5.84v.79h-.82V92.27a11,11,0,0,1-3.25,2.9l-.26-.29A11.26,11.26,0,0,0,358.94,90h-3.47l-.18-.37h5.81V88.14h-4.43l-.18-.35h4.61V86.43H356l-.14-.35h6.77l0-.11a12.77,12.77,0,0,0,1-2c.85.3,1.26.54,1.26.74s-.22.21-.66.21a7.81,7.81,0,0,1-1.15,1.15h2.61l.67-.83a5.87,5.87,0,0,1,.86.91l-.16.27h-5.22v1.36h3.23l.62-.79a6.49,6.49,0,0,1,.86.88l-.19.26h-4.53V89.6h4.35l.7-.85a10.55,10.55,0,0,1,1,.93l-.18.29h-7.91l-.06.14a7.46,7.46,0,0,1-.51,1l.08,0a.18.18,0,0,0,.11,0h5.59l.54-.64c.62.43.93.72.93.86s-.06.13-.14.18l-.37.24v5.3h-.83Zm-6.71-12.28c1.28.3,1.9.77,1.9,1.39a.53.53,0,0,1-.24.43.54.54,0,0,1-.3.13c-.21,0-.37-.16-.45-.46a2,2,0,0,0-1.06-1.22Zm6.71,8.6v-1.1h-5.84v1.1Zm0,1.6V93h-5.84v1.25Zm0,1.73V94.61h-5.84V96Z" transform="translate(0 -0.13)"/><path class="cls-6" d="M366.08,105.74a3.77,3.77,0,0,1-1.18.9c-.46.24-1.25.5-1.86.75l-.51.22c0,.18,0,.37.06.56a2.48,2.48,0,0,1-.19,1.39.87.87,0,0,1-.66.53c-.34,0-.46-.22-.37-.54a6.25,6.25,0,0,0,.24-1.47V108a6.67,6.67,0,0,0-.75.35,3.48,3.48,0,0,0-1.28,1,1.29,1.29,0,0,0-.18,1.42,2,2,0,0,0,1.57.7,10.72,10.72,0,0,0,1.5-.16,9.49,9.49,0,0,1,1.07-.21,1.25,1.25,0,0,1,1,.26c.26.19.26.46,0,.58a2.55,2.55,0,0,1-.86.18,16.51,16.51,0,0,1-2.3.14,4.68,4.68,0,0,1-2.15-.59,1.5,1.5,0,0,1-.69-1.44,2,2,0,0,1,.69-1.39,7,7,0,0,1,1.5-1.07c.27-.14.58-.3.88-.45a1.09,1.09,0,0,0-.21-.64,1.5,1.5,0,0,0-1-.58,1.8,1.8,0,0,0-1,.16,1.7,1.7,0,0,0-.29.16c-.21.27-.42.51-.61.79a1.65,1.65,0,0,1-1.17.83c-.35,0-.38-.22-.38-.51a.88.88,0,0,1,.34-.71,7.52,7.52,0,0,0,.82-.46,6.61,6.61,0,0,0,1.66-2,6.38,6.38,0,0,0,.5-1l-.38,0a2.24,2.24,0,0,1-1.33-.21.79.79,0,0,1-.3-.91c.19-.26.46-.08.82,0a2.37,2.37,0,0,0,1.26,0l.24,0a.73.73,0,0,0-.21-.77.46.46,0,0,1-.1-.58.55.55,0,0,1,.61,0,.56.56,0,0,1,.22.21c.22,0,.5.1.59.11a1.59,1.59,0,0,1,.59.19c.14.11.06.26-.06.51a2.67,2.67,0,0,1-.85.93,1.23,1.23,0,0,1-.29.14,4.67,4.67,0,0,1-.38.91,17.2,17.2,0,0,1-1,1.68,2.22,2.22,0,0,1-.16.24l.37-.14a1.81,1.81,0,0,1,1.09-.1,1.25,1.25,0,0,1,.85.48,1.63,1.63,0,0,1,.21-.26,4.33,4.33,0,0,1,1.71-1.44,2.32,2.32,0,0,1,2.19,0A.94.94,0,0,1,366.08,105.74ZM361.26,102l.21-.11c.24-.13.32-.29.27-.34s-.16-.11-.38-.14l-.18,0a1.11,1.11,0,0,1,.08.4A.52.52,0,0,1,361.26,102Zm4.15,2.79c-.1-.18-.43-.32-1-.19a2.88,2.88,0,0,0-1.34.77,3.62,3.62,0,0,0-.86,1.33c0,.1.1.21.13.29s.27-.13.42-.19a22.81,22.81,0,0,0,2.1-1C365.52,105.42,365.52,105,365.41,104.78Z" transform="translate(0 -0.13)"/><path class="cls-6" d="M365.2,128.34h-5.84v.79h-.82v-4.85a11,11,0,0,1-3.25,2.9l-.26-.29a11.26,11.26,0,0,0,3.91-4.91h-3.47l-.18-.37h5.81v-1.46h-4.43l-.18-.35h4.61v-1.36H356l-.14-.35h6.77l0-.11a12.77,12.77,0,0,0,1-2c.85.3,1.26.54,1.26.74s-.22.21-.66.21a7.81,7.81,0,0,1-1.15,1.15h2.61l.67-.83a5.87,5.87,0,0,1,.86.91l-.16.27h-5.22v1.36h3.23l.62-.79a6.49,6.49,0,0,1,.86.88l-.19.26h-4.53v1.46h4.35l.7-.85a10.55,10.55,0,0,1,1,.93l-.18.29h-7.91l-.06.14a7.46,7.46,0,0,1-.51,1l.08,0a.18.18,0,0,0,.11,0h5.59l.54-.64c.62.43.93.72.93.86s-.06.13-.14.18l-.37.24v5.3h-.83Zm-6.71-12.28c1.28.3,1.9.77,1.9,1.39a.53.53,0,0,1-.24.43.54.54,0,0,1-.3.13c-.21,0-.37-.16-.45-.46a2,2,0,0,0-1.06-1.22Zm6.71,8.6v-1.1h-5.84v1.1Zm0,1.6V125h-5.84v1.25Zm0,1.73v-1.38h-5.84V128Z" transform="translate(0 -0.13)"/><path class="cls-6" d="M365.73,133.45l.61-.72c.61.48.91.8.91.93s0,.13-.13.19l-.38.24v9.62c0,.8-.5,1.2-1.49,1.18a.64.64,0,0,0-.45-.59,12.94,12.94,0,0,0-1.44-.3v-.38a12.64,12.64,0,0,0,1.89.11c.42,0,.62-.16.62-.45v-3.14H362v4.1h-.82v-4.1h-3.51a6.82,6.82,0,0,1-2.35,5l-.29-.29a8.18,8.18,0,0,0,1.82-5.7V133a6.81,6.81,0,0,1,1,.48Zm-4.55,6.34v-2.87h-3.47v2.24c0,.27,0,.48,0,.63Zm0-6h-3.47v2.75h3.47Zm4.69,2.75V133.8H362v2.75Zm0,.37H362v2.87h3.87Z" transform="translate(0 -0.13)"/><path class="cls-6" d="M358.12,152.17c0-.53.16-1.49.16-1.81a1.94,1.94,0,0,0-.27-.8.34.34,0,0,1,0-.42c.1-.1.29,0,.45.06a1.94,1.94,0,0,1,.62.51c.24.29.13.71,0,1.11s-.27,1.17-.35,1.58-.27,1.89-.32,2.45a10,10,0,0,0-.06,2.22,2.73,2.73,0,0,0,.85,1.63,2.53,2.53,0,0,0,1.7.54,3.7,3.7,0,0,0,1.41-.34c.34-.18,1-.54,1.46-.8s1-.69,1.26-.88.62-.54.7-.61a.22.22,0,0,1,.27-.08.18.18,0,0,1,0,.26,5.24,5.24,0,0,1-.64.67c-.34.29-1,.91-1.86,1.52a5.22,5.22,0,0,1-2.5,1,3.35,3.35,0,0,1-2.15-.56,3,3,0,0,1-1.17-1.81,9.66,9.66,0,0,1,0-2.27C357.82,154.78,358.08,152.66,358.12,152.17Z" transform="translate(0 -0.13)"/><path class="cls-6" d="M356.67,168.21c-.21-.21-.38-.59-.22-.77s.38-.06.61,0a2,2,0,0,0,.94.16,8.62,8.62,0,0,0,1.9-.45c.5-.14,1.62-.5,2.59-.75s2.06-.53,2.58-.61a2.42,2.42,0,0,1,1.41.14c.27.18.43.43.32.64s-.29.19-.53.14a9.39,9.39,0,0,0-1-.13,15.72,15.72,0,0,0-1.78.19l-.11,0c-.22.18-.54.42-.83.66a3.13,3.13,0,0,0-.88,1.2,8.85,8.85,0,0,0-.34,1.63,9.23,9.23,0,0,0,0,2.53,1.68,1.68,0,0,0,.62,1.2,1.88,1.88,0,0,0,1.31.32,3.91,3.91,0,0,1,1.12,0,1.16,1.16,0,0,1,.66.46c.13.19,0,.43-.35.46a9.9,9.9,0,0,1-1.55,0,3.08,3.08,0,0,1-1.73-.62,2.23,2.23,0,0,1-.72-1.47,8.54,8.54,0,0,1,0-2.3A16.07,16.07,0,0,1,361,169a2.83,2.83,0,0,1,.7-1.3,6.47,6.47,0,0,1,.77-.66,5.44,5.44,0,0,0-.82.26c-.61.22-1.55.63-2.06.82a6.51,6.51,0,0,1-1.65.51A1.56,1.56,0,0,1,356.67,168.21Z" transform="translate(0 -0.13)"/><path class="cls-6" d="M358.35,186.8a15.66,15.66,0,0,1-2.9,4.1l-.27-.27a14.48,14.48,0,0,0,3.06-5.67l0-.13h-2.74l-.18-.35h3v-2.42c-1,.21-1.79.35-2.48.45l-.16-.35a14.86,14.86,0,0,0,4.82-1.75c.69.38,1,.67,1,.87s-.1.14-.3.14a2.42,2.42,0,0,1-.43-.06c-.37.14-.82.26-1.38.43l-.22.06v2.63h1.31l.72-1c.35.38.66.75.9,1.07l-.14.27H359.2v1.43q2.69,1.32,2.69,2.45c0,.38-.18.58-.5.58s-.4-.19-.56-.53a6.15,6.15,0,0,0-1.63-2.08v6.45h-.85Zm4.53,3.2v-7.83c.91,0,1.38.18,1.38.37s-.19.26-.58.4V190Zm.51,1.68a19.07,19.07,0,0,0,2.08.13c.43,0,.66-.16.66-.48V180.59c.91,0,1.38.18,1.38.4s-.19.24-.53.37v10.39a1.08,1.08,0,0,1-.82,1.17,2.73,2.73,0,0,1-.72.1q0-.43-.53-.62a8.26,8.26,0,0,0-1.52-.32Z" transform="translate(0 -0.13)"/><path class="cls-6" d="M365.73,197.45l.61-.72c.61.48.91.8.91.93s0,.13-.13.19l-.38.24v9.62c0,.8-.5,1.2-1.49,1.18a.64.64,0,0,0-.45-.59,12.94,12.94,0,0,0-1.44-.3v-.38a12.64,12.64,0,0,0,1.89.11c.42,0,.62-.16.62-.45v-3.14H362v4.1h-.82v-4.1h-3.51a6.82,6.82,0,0,1-2.35,5l-.29-.29a8.18,8.18,0,0,0,1.82-5.7V197a6.81,6.81,0,0,1,1,.48Zm-4.55,6.34v-2.87h-3.47v2.24c0,.27,0,.48,0,.63Zm0-6h-3.47v2.75h3.47Zm4.69,2.75V197.8H362v2.75Zm0,.37H362v2.87h3.87Z" transform="translate(0 -0.13)"/><path class="cls-6" d="M367.45,216.1c-.13.14-.45.1-.66,0a9.27,9.27,0,0,0-1.39-.24,18.87,18.87,0,0,0-1.89-.08c-.29,0-.59,0-.88,0,0,.35,0,.86,0,1.26s.06.66.1,1.07a2.51,2.51,0,0,1,.21.75,4.06,4.06,0,0,1,0,1.58c0,.21-.13.72-.24,1.38a4.34,4.34,0,0,1-1,1.89,2.46,2.46,0,0,1-1.38.77c-.26,0-.43,0-.45-.08s.21-.18.37-.24a3.19,3.19,0,0,0,1.18-.85A3.12,3.12,0,0,0,362,222c0-.29,0-.7,0-1.1a1.32,1.32,0,0,1-.53.45c-.56.18-1.06-.18-1.44-.77a3,3,0,0,1-.48-1.91c0-.77.29-1.2.66-1.36a2,2,0,0,1,1.42,0l.26.14c0-.46,0-.93,0-1.34v-.21l-1,.08c-.66,0-1.31.22-1.89.32a16.88,16.88,0,0,1-2,.34,1.25,1.25,0,0,1-1.14-.4c-.24-.26-.24-.53-.1-.66a.46.46,0,0,1,.53,0,3.45,3.45,0,0,0,1.1.24,3.65,3.65,0,0,0,1.3-.08c.37,0,.94-.16,1.47-.22s1.22-.19,1.73-.27c0-.3-.06-.59-.1-.8a4.87,4.87,0,0,0-.37-1.15c-.14-.32-.18-.58,0-.67s.46,0,.82.22a.9.9,0,0,1,.35.43l.1.06.69.56a11.17,11.17,0,0,0,1.33.78,6.79,6.79,0,0,0,1.15.48c.29.08.78.19,1.22.34S367.57,215.94,367.45,216.1Zm-5.52,3.06c0-.16,0-.34-.08-.54a1.14,1.14,0,0,0-1.18-.88.76.76,0,0,0-.7.79,3.26,3.26,0,0,0,.29,1.46,1.18,1.18,0,0,0,.93.58c.24,0,.45-.18.61-.58A2.26,2.26,0,0,0,361.93,219.16Zm2.16-4.15c-.26-.18-.66-.51-.83-.66l-.54-.43c0,.32,0,.85,0,1.18A6.82,6.82,0,0,1,364.09,215Z" transform="translate(0 -0.13)"/><path class="cls-6" d="M365.57,238.51a4.08,4.08,0,0,1-2.13,1.26,5.53,5.53,0,0,1-2.56,0c-1-.21-1.36-.54-1.36-1s.61-.86,1.14-1a2,2,0,0,1,1.67.3.81.81,0,0,1,.21,1.11,4,4,0,0,0,2-.74,2.5,2.5,0,0,0,.91-2,2.35,2.35,0,0,0-1.42-2,4,4,0,0,0-2.85-.1,4,4,0,0,0-2.13,1.46,6.42,6.42,0,0,0-1,1.79,1.16,1.16,0,0,1-.48.75.43.43,0,0,1-.53-.08.89.89,0,0,1-.18-.7,3.87,3.87,0,0,1,.7-1.09c.3-.38.72-1,1.26-1.57s1.41-1.65,1.76-2,1.44-1.75,1.62-2,.26-.4.18-.46-.35,0-.51.13l-1.41.83a2.48,2.48,0,0,1-1.2.35,1.22,1.22,0,0,1-.83-.35.56.56,0,0,1-.18-.51.26.26,0,0,1,.35-.13,2.36,2.36,0,0,0,.54.1,1.83,1.83,0,0,0,.9-.22c.48-.19,1.12-.5,1.67-.78a3.49,3.49,0,0,1,1.18-.51,1.12,1.12,0,0,1,.85.42c.21.22.22.37.19.51s-.11.22-.34.37a7.6,7.6,0,0,0-1.14,1c-.43.45-1,1.1-1.34,1.52,0,0-.38.42-1.14,1.2a3.4,3.4,0,0,1,.88-.45,4.62,4.62,0,0,1,2.1-.27,4.21,4.21,0,0,1,2.11.77,2.66,2.66,0,0,1,1.17,2A2.6,2.6,0,0,1,365.57,238.51Zm-4.61-.26c-.51,0-.83.32-.61.64a1.63,1.63,0,0,0,1.2.35C362.17,238.69,361.61,238.26,361,238.26Z" transform="translate(0 -0.13)"/><path class="cls-6" d="M359.21,248.21l.56-.74c.59.51.9.85.9,1s0,.13-.14.18l-.37.19a13.38,13.38,0,0,1-1.47,3.57,9.78,9.78,0,0,1-3.25,3.17l-.24-.3a11.41,11.41,0,0,0,4.08-6.72h-3.49l-.13-.35Zm4.45,1.92a16.78,16.78,0,0,0,2.79-3.46c.74.51,1.12.85,1.12,1s-.11.16-.32.16a2.42,2.42,0,0,1-.38,0,22.09,22.09,0,0,1-3,2.69,13.75,13.75,0,0,0,4.21,4.1,2.47,2.47,0,0,0-.7.8,13.55,13.55,0,0,1-3.92-4.37,13.09,13.09,0,0,1-1.31-3.81v8.39c0,.83-.5,1.25-1.52,1.25a.59.59,0,0,0-.37-.58,7.83,7.83,0,0,0-1.63-.42v-.38a18.19,18.19,0,0,0,2.18.18c.34,0,.5-.14.5-.43V244.57c1,0,1.44.14,1.44.35s-.21.26-.59.38A13.29,13.29,0,0,0,363.66,250.13Z" transform="translate(0 -0.13)"/><path class="cls-6" d="M361,263.64v-3.27c1,0,1.52.18,1.52.38s-.21.27-.64.43v2.45h3.91l.59-.74c.61.5.93.83.93,1s0,.13-.13.18l-.4.24v5h-.86v-1h-4v4.8H361v-4.8h-3.87v1.18h-.86v-6.35a7.92,7.92,0,0,1,1,.5Zm-3.87.35v4H361v-4Zm8.79,4v-4h-4v4Z" transform="translate(0 -0.13)"/><path class="cls-6" d="M358,286.19a3.34,3.34,0,0,0,2,1.39,15.09,15.09,0,0,0,4.15.42c1.18,0,2.54,0,4-.18a3,3,0,0,0-.46.93h-3.19a14.94,14.94,0,0,1-4.8-.54,3.45,3.45,0,0,1-2-1.63,15.23,15.23,0,0,1-1.58,2v.11c0,.3,0,.46-.16.46s-.51-.38-.91-1.1a11.25,11.25,0,0,0,2.1-1.42v-3.91h-1.94l-.14-.37h1.94l.56-.69c.59.48.88.77.88.9s0,.11-.16.18l-.32.22Zm-2.19-9.49c1.46.72,2.19,1.46,2.19,2.21,0,.37-.18.56-.53.56s-.42-.18-.51-.51a4.4,4.4,0,0,0-1.36-2Zm6.85,3.75v-1.12h-3.07l-.16-.37h3.23v-1.28c.94,0,1.41.14,1.41.35s-.21.24-.59.38V279h2.19l.56-.61-.24-.18a7.07,7.07,0,0,0,.4-.93h-6.34a2.92,2.92,0,0,1-.32,1.26c-.22.4-.46.58-.74.58a.45.45,0,0,1-.51-.5.57.57,0,0,1,.26-.42,2.71,2.71,0,0,0,.91-1.82l.35.06q0,.29,0,.48h6.24l.53-.64c.72.56,1.06.94,1.06,1.1s-.06.14-.19.16l-.48.1c-.22.19-.51.43-.88.71a5,5,0,0,1,.85.74l-.16.27H363.5v1.12h2.08l.48-.54c.56.43.85.71.85.82a.17.17,0,0,1-.08.14l-.35.24v3.43h-.8V284H363.5v1.39h2.71l.74-.9a6.53,6.53,0,0,1,.93,1l-.16.27H363.5v1.67h-.82v-1.67h-3.86l-.18-.37h4V284h-2.1v.61h-.82v-4.56a.36.36,0,0,0,.16.06,4.1,4.1,0,0,1,.59.22l.18.06Zm0,.37h-2.1V282h2.1Zm0,1.55h-2.1v1.33h2.1Zm.82-1.55V282h2.18v-1.19Zm0,1.55v1.33h2.18v-1.33Z" transform="translate(0 -0.13)"/><path class="cls-6" d="M359.21,296.53h1.63l.51-.58c.53.38.78.62.78.74s0,.14-.14.21l-.24.19v3.28H361v-.43h-1.76v1.36h1.58l.64-.74a6,6,0,0,1,.85.83l-.16.27h-2.91V303c.7-.1,1.71-.29,3-.54l.08.37a57.3,57.3,0,0,1-6.35,1.38c-.06.35-.16.54-.29.54s-.37-.42-.61-1.26c1-.08,2-.19,3.09-.34l.21,0v-1.49h-2.79l-.14-.37h2.93v-1.36h-1.68v.58h-.78v-4.42a5.66,5.66,0,0,1,.9.43h1.57v-1.23h-3.07l-.14-.35h3.22v-1.2l-.3,0c-.93.08-1.81.16-2.62.19l-.13-.37a26,26,0,0,0,5.94-1.17c.5.42.75.7.75.86s-.08.13-.22.13a3.84,3.84,0,0,1-.46-.06l-2.1.29v1.3h2l.62-.78a9.06,9.06,0,0,1,.86.9l-.14.24h-3.36Zm-.85.35h-1.68V298h1.68Zm-1.68,2.69h1.68v-1.18h-1.68ZM361,298v-1.14h-1.76V298Zm0,.37h-1.76v1.18H361Zm3-2.08h-1.83l-.14-.35h2v-3.68c.94,0,1.42.14,1.42.35s-.19.24-.58.37v2.88h1.71l.54-.69c.58.48.85.77.85.86a.25.25,0,0,1-.11.18l-.3.24c0,4.39-.27,7-.72,7.71a1.61,1.61,0,0,1-1.44.83.66.66,0,0,0-.43-.58,9,9,0,0,0-1.42-.34v-.4a11.11,11.11,0,0,0,1.71.18,1,1,0,0,0,1-.88,30.89,30.89,0,0,0,.4-5.92v-.83h-1.84a1.29,1.29,0,0,1,0,.26,13.26,13.26,0,0,1-1.15,5.52,8.24,8.24,0,0,1-2.87,3.12l-.24-.29a8.87,8.87,0,0,0,2.9-4.43,19.82,19.82,0,0,0,.51-3.89Z" transform="translate(0 -0.13)"/><path class="cls-6" d="M355.26,311.55c1.22.42,1.79,1,1.79,1.6,0,.37-.14.54-.45.54s-.42-.16-.48-.51a2.34,2.34,0,0,0-1-1.38Zm4-.66-2,6.39a3.8,3.8,0,0,0-.22,1,2.2,2.2,0,0,0,.08.51,7.17,7.17,0,0,1,.19,1.33c0,.61-.21.93-.66.93s-.5-.16-.5-.48c0-.06,0-.38.1-.91a4.64,4.64,0,0,0,.06-.85,1.41,1.41,0,0,0-.42-1.18,1.55,1.55,0,0,0-.67-.24V317a1.77,1.77,0,0,0,.5.06.89.89,0,0,0,.88-.51,52.16,52.16,0,0,0,2.34-6Zm-3.1-2.46c1.3.4,2,.93,2,1.57,0,.37-.18.54-.51.54-.18,0-.32-.14-.42-.43a3,3,0,0,0-1.2-1.41Zm9.17,11.73h-4.19v1h-.83V316a12.36,12.36,0,0,1-2,1.3l-.22-.29a12.78,12.78,0,0,0,4.79-6.15c.85.19,1.26.38,1.26.59s-.22.22-.67.32a14,14,0,0,0,4.79,3.91,2.63,2.63,0,0,0-.67.86,14.12,14.12,0,0,1-4.31-4.35,12.11,12.11,0,0,1-2.71,3.57c.1,0,.32.1.69.22h4l.45-.46c.56.38.85.64.85.75a.18.18,0,0,1-.1.16l-.27.19v4.48h-.83Zm-6.34-7a12.39,12.39,0,0,0,2.22-4.48c.9.29,1.34.54,1.34.75s-.22.21-.66.24a9.93,9.93,0,0,1-2.64,3.75Zm6.34,6.59v-3.42h-4.19v3.42Zm-1.07-11.12c2.19,1.34,3.28,2.46,3.28,3.39,0,.34-.14.51-.42.51s-.42-.19-.58-.54a9.51,9.51,0,0,0-2.5-3.11Z" transform="translate(0 -0.13)"/><path class="cls-6" d="M357.74,332.48a19.37,19.37,0,0,0,2.06-1.17l.14.35a28.13,28.13,0,0,1-4,2.58c0,.35-.11.54-.24.54s-.4-.37-.72-1.12c.72-.29,1.36-.54,1.89-.8v-4.45h-1.74l-.11-.35h1.86v-3.68c.94,0,1.42.14,1.42.35s-.21.24-.61.4v2.93h.53l.66-1a12.33,12.33,0,0,1,.82,1l-.16.27h-1.84Zm8.56-.83.53-.62c.58.45.88.72.88.85a.19.19,0,0,1-.11.16l-.37.26c0,2.19-.27,3.58-.78,4.21a1.71,1.71,0,0,1-1.41.61.64.64,0,0,0-.42-.58,8.67,8.67,0,0,0-1.31-.34v-.37a12.71,12.71,0,0,0,1.78.18.91.91,0,0,0,.94-.7,12.83,12.83,0,0,0,.38-3.3h-.94l-.14.37a8.56,8.56,0,0,1-5,4.66l-.24-.3a8.91,8.91,0,0,0,4.48-4.72h-1.23a8.72,8.72,0,0,1-4.39,3.84l-.21-.32A8.86,8.86,0,0,0,362.4,332h-1.17a9.19,9.19,0,0,1-2.67,2.08l-.24-.29a8.65,8.65,0,0,0,3.09-3.43h-2.48l-.14-.37h7.73l.74-.87a5.83,5.83,0,0,1,.91,1l-.14.27h-5.65a11.08,11.08,0,0,1-.83,1.28Zm-1.06-6.72.54-.62c.58.43.85.72.85.83s0,.1-.1.14l-.37.22v3.76h-.8v-.59h-4.08v.69h-.8v-4.95c.27.13.59.29,1,.51Zm-4,.35v1.25h4.08v-1.25Zm4.08,3v-1.41h-4.08v1.41Z" transform="translate(0 -0.13)"/><path class="cls-6" d="M367.33,340.28a1.68,1.68,0,0,1,.88,1.52,1.77,1.77,0,0,1-2.58,1.62,1.77,1.77,0,0,1-.18-3.12,1.72,1.72,0,0,1,.94-.29A1.75,1.75,0,0,1,367.33,340.28Zm-1.87.64a1.26,1.26,0,0,0-.34.88,1.37,1.37,0,0,0,.19.7,1.23,1.23,0,0,0,1.1.59,1.3,1.3,0,0,0,1.3-1.3,1.22,1.22,0,0,0-.56-1,1.28,1.28,0,0,0-.74-.26A1.32,1.32,0,0,0,365.45,340.92Z" transform="translate(0 -0.13)"/></g></g></svg>