<svg xmlns="http://www.w3.org/2000/svg" xmlns:xlink="http://www.w3.org/1999/xlink" viewBox="0 0 763.19 600.28"><defs><style>.cls-1{fill:none;}.cls-2{clip-path:url(#clip-path);}.cls-3{opacity:0.31;}.cls-4{fill:#d48050;}.cls-5{fill:#527c68;}.cls-6{fill:#333;}</style><clipPath id="clip-path" transform="translate(0)"><rect class="cls-1" x="251.83" y="-57.36" width="260" height="670" transform="translate(104.19 659.46) rotate(-90)"/></clipPath></defs><title>Asset 60</title><g id="Layer_2" data-name="Layer 2"><g id="back"><g class="cls-2"><image class="cls-3" width="632" height="421" transform="translate(0) scale(1.21 1.43)" xlink:href="../../../190325 2/190325/design_underA/Links/BGT046_9.JPG"/></g></g><g id="text"><path class="cls-4" d="M129.7,223.16l-.55-.88c9-2.86,13.95-8.32,15-16.47H131.38l-.42-.92h13.27c0-1.18,0-1.85,0-2.14v-7.31h-14l-.42-1h26.38l2.23-2.69a26.13,26.13,0,0,1,3,2.86l-.46.8H146.63v7.31c0,.5,0,1.22-.08,2.14h8.65l2.14-2.65a29,29,0,0,1,2.81,2.77l-.42.8H147q4.47,10.27,15.63,14.53a7.05,7.05,0,0,0-2.06,2.27c-7-3.53-11.76-8.7-14.2-15.58C144.95,215.47,139.36,220.85,129.7,223.16Z" transform="translate(0)"/><path class="cls-4" d="M198,200c.13-1.34.21-2.52.21-3.65v-5.67c2.35,0,3.53.34,3.53.88,0,.34-.46.67-1.43,1v3.78c0,1.47-.08,2.65-.17,3.65h6.3l1.64-2.23c.8.8,1.55,1.6,2.27,2.44l-.42.71h-9.2a23.11,23.11,0,0,0,10,11.22,8,8,0,0,0-1.85,2.14,23.28,23.28,0,0,1-9-12.52,16.29,16.29,0,0,1-3.53,8.15,19.68,19.68,0,0,1-6.72,4.71l-.5-.88a17,17,0,0,0,7.14-7.18,21.23,21.23,0,0,0,1.6-5.63h-5.5a30.18,30.18,0,0,1-14.16,15.17l-.55-.84a31.39,31.39,0,0,0,13.9-19h-5.88c-.42.84-.88,1.68-1.3,2.52,3.07,1.22,4.58,2.48,4.58,3.95a1,1,0,0,1-1.09,1.13c-.5,0-.88-.38-1.13-1.05a7.79,7.79,0,0,0-2.86-3.19,35.77,35.77,0,0,1-2.06,3c2.81,1.55,4.24,3.07,4.24,4.58,0,.84-.38,1.22-1.09,1.22-.5,0-.88-.38-1.13-1.22a9.83,9.83,0,0,0-2.6-3.82,34.49,34.49,0,0,1-3.7,3.78l-.63-.71a35.89,35.89,0,0,0,8.23-15.92c2.31.63,3.49,1.22,3.49,1.64s-.59.59-1.68.76a23.46,23.46,0,0,1-.84,2.35h5.33l1.39-1.68c1.47,1.3,2.23,2.18,2.23,2.56,0,.17-.17.34-.38.46l-1,.46c-.34,1.09-.63,2.06-1,2.9Zm-13.78,15.42a13.17,13.17,0,0,1-2.69,7.39,3.3,3.3,0,0,1-2.44,1.47,1.21,1.21,0,0,1-1.34-1.39c0-.42.42-.88,1.22-1.39,1.93-1.22,3.4-3.32,4.37-6.38Zm4.58-.42c1.89,2.35,2.81,4.45,2.81,6.39,0,1.47-.55,2.18-1.55,2.18-.71,0-1.05-.42-1.05-1.3V222a9.9,9.9,0,0,0,0-1.22,16.17,16.17,0,0,0-1-5.42Zm6.85-.17c3.19,2.48,4.83,4.79,4.83,6.93q0,1.77-1.51,1.76c-.71,0-1.09-.5-1.22-1.51a14,14,0,0,0-2.77-6.59Zm7-22.89c2.86,1.43,4.33,2.9,4.33,4.41,0,1-.46,1.43-1.34,1.43-.63,0-.92-.42-1.09-1.22a7.3,7.3,0,0,0-2.44-4Zm.5,22.77a18.48,18.48,0,0,1,5.76,4.24,4.11,4.11,0,0,1,1.34,2.81c0,1-.5,1.6-1.39,1.6-.67,0-1.13-.5-1.47-1.51-.63-2-2.27-4.2-4.79-6.47Z" transform="translate(0)"/><path class="cls-4" d="M225.42,199c3.28,1.09,4.83,2.56,4.83,4.24,0,1-.38,1.43-1.22,1.43-.67,0-1-.46-1.26-1.34a6.37,6.37,0,0,0-2.81-3.65Zm10.5-1.6-5.29,16.64a10.83,10.83,0,0,0-.55,2.81,7.17,7.17,0,0,0,.17,1.18,26.27,26.27,0,0,1,.46,3.74c0,1.51-.5,2.27-1.6,2.27a1.17,1.17,0,0,1-1.3-1.34c0-.08.08-.8.21-2.23a18.51,18.51,0,0,0,.17-2.27,3.75,3.75,0,0,0-1.09-3.11,4.09,4.09,0,0,0-1.81-.67v-1a5.12,5.12,0,0,0,1.34.17,2.33,2.33,0,0,0,2.23-1.34A114.36,114.36,0,0,0,235,196.82ZM228,190.94c3.4,1,5.13,2.39,5.13,4.16,0,.92-.42,1.43-1.3,1.43-.46,0-.88-.42-1.13-1.22a7.6,7.6,0,0,0-3.11-3.7Zm27.56,30.79h1.3l1.51-2.56s.25.34.67,1c.55.84.92,1.47,1.09,1.81l-.42.76H232.52l-.46-1h4V208.21a26.28,26.28,0,0,1,2.65,1.34H253l1.51-1.72c1.55,1.18,2.31,1.93,2.31,2.27,0,.17-.08.29-.29.42l-1,.59Zm-4.33-29.2,1.39-1.68c1.51,1.18,2.31,1.93,2.31,2.31,0,.13-.13.29-.38.46l-.88.5v12.64h-2.18v-1.72H240v2.06h-2.18V191.36a10.05,10.05,0,0,1,2.35,1.18Zm-13,17.94v11.26h3.57V210.47Zm1.81-17v4.71h11.43V193.5Zm11.43,10.63v-5H240v5Zm-4,6.34h-3.61v11.26h3.61Zm2.1,0v11.26h3.82V210.47Z" transform="translate(0)"/><path class="cls-4" d="M284.47,210.05l1.26-1.64c1.55,1.3,2.31,2.18,2.31,2.6,0,.13-.08.25-.34.38l-.88.38A24.1,24.1,0,0,1,274,222.36l-.59-.84A23.23,23.23,0,0,0,284.56,211h-9.12l-.38-1Zm5-4h-8v1.81h-2.14V193.71a18.71,18.71,0,0,1,2.48,1.18h5.38a18.07,18.07,0,0,0,1.47-4.92c2.52.5,3.82,1,3.82,1.47s-.59.59-1.68.76a19.14,19.14,0,0,1-2.31,2.69H299l1.47-1.72c1.55,1.18,2.31,1.93,2.31,2.27a.87.87,0,0,1-.38.59l-.92.67v10.92H299.3V206h-7.52a21.2,21.2,0,0,0,5.08,7.6,33.94,33.94,0,0,0,5.5-6.6c1.85,1.26,2.77,2.14,2.77,2.61,0,.29-.29.42-.88.42a5.23,5.23,0,0,1-.88-.13,43.33,43.33,0,0,1-5.71,4.41,32.55,32.55,0,0,0,9.62,5.21,6.45,6.45,0,0,0-1.81,2.39q-10.71-5.1-13.78-13.78v12.73a3,3,0,0,1-.92,2.48,5,5,0,0,1-3.11.76,1.67,1.67,0,0,0-1.13-1.55,17.2,17.2,0,0,0-3.57-.88v-1a38.15,38.15,0,0,0,5.42.38,1,1,0,0,0,1.13-1.13Zm9.79-6.26v-3.91H281.53v3.91Zm0,5.29v-4.33H281.53v4.33Z" transform="translate(0)"/><path class="cls-5" d="M354.53,190.23v1.64h-7.65v25.58h-1.68V190.23Z" transform="translate(0)"/><path class="cls-5" d="M402.16,214.38c-.17.8-1.3.67-2.6.55s-2.35-1.3-3.82-2.56a17.24,17.24,0,0,1-3.65,5.33,15.4,15.4,0,0,1-6.72,3.91c-.92.25-1.34,0-1.43-.21s.5-.63,1-.8a15.65,15.65,0,0,0,5.54-3.49,13.78,13.78,0,0,0,3.32-5.33,3.17,3.17,0,0,0,.21-.67,25.5,25.5,0,0,0-5.17-2.69,12.26,12.26,0,0,0-6-.67,4.63,4.63,0,0,0-.76.08,4.67,4.67,0,0,0-.29.67,20.64,20.64,0,0,1-3.65,6.13c-1.55,1.64-4,2.39-5.25,1.22-1-1-.38-3.65.46-4.92a9.76,9.76,0,0,1,5-3.57,18.85,18.85,0,0,1,2.52-.71c1.18-2.31,2.35-4.75,3.11-6.18s2.14-4.16,2.35-4.79-.21-.8-.8-.5a36.16,36.16,0,0,1-4.33,2.1,3.44,3.44,0,0,1-2.77-.21c-.63-.34-1-1.13-.76-1.51.42-.71,1.51-.21,2.39-.17a10.76,10.76,0,0,0,3.36-1,31.51,31.51,0,0,0,3.07-1.47,2.09,2.09,0,0,1,1.93,0c.59.25,1,.5,1.09,1.13a3.68,3.68,0,0,1-.84,2.27c-.63,1-2.18,3.36-3.24,5.33-.71,1.43-1.68,3.07-2.6,4.71,1.09-.08,2.14-.08,3.11-.08a15.67,15.67,0,0,1,6.13,1.26,23,23,0,0,1,2.52,1.22,10.93,10.93,0,0,0,.13-1.51,7.22,7.22,0,0,0-.46-2.69c-.21-.63-.63-1.34-.29-1.76s1.3-.21,2,.13a2.63,2.63,0,0,1,1.34,2.44c0,.42,0,.84-.08,1.26.29.71.67,1.47,1,2a11.55,11.55,0,0,0,2.69,3.49C401.44,212.66,402.37,213.58,402.16,214.38Zm-22.22-6a12.39,12.39,0,0,0-3.4,1.55c-1.85,1.26-2.69,2.82-1.81,3.28.55.25,1.64-.38,2.65-1.22A14.08,14.08,0,0,0,379.94,208.37Zm17.94,2.6a9.22,9.22,0,0,1-1-2.23,9.58,9.58,0,0,1-.29,1.18A16,16,0,0,1,397.87,211Z" transform="translate(0)"/><path class="cls-5" d="M449.91,205.77a16.15,16.15,0,0,1-.55,5.8,9.3,9.3,0,0,1-4.07,5.29,19.42,19.42,0,0,1-6.93,2.52,18,18,0,0,1-6.76,0c-.42,0-.63-.21-.59-.42s.25-.38.59-.34a20.43,20.43,0,0,0,2.23.13,20.85,20.85,0,0,0,5-.71A18.48,18.48,0,0,0,444,215.6a9.56,9.56,0,0,0,3.61-6,14.82,14.82,0,0,0-.55-6.93,8.77,8.77,0,0,0-3.7-5.21,11.88,11.88,0,0,0-7.31-1.55c-.34,0-.71.13-1.09.17.08.84.08,2.19.13,3.24a27.82,27.82,0,0,1-.63,5.75,18.6,18.6,0,0,1-2.94,7.39c-1.6,2.1-3.53,3.53-5.5,3.53s-3.36-1.13-4.29-3.19a9.06,9.06,0,0,1-.55-6.26,12.66,12.66,0,0,1,2.81-5.84,17.82,17.82,0,0,1,5.38-4.41,17.19,17.19,0,0,1,7.94-1.85,13.23,13.23,0,0,1,6.68,1.76,12.29,12.29,0,0,1,4.41,4.41A11.19,11.19,0,0,1,449.91,205.77ZM433.7,196.4a16.91,16.91,0,0,0-5.29,2.44,14.06,14.06,0,0,0-5,6.18,10,10,0,0,0-.34,6.38c.59,1.43,2,1.72,3.7,1.18a7.46,7.46,0,0,0,4.24-3.44,16.17,16.17,0,0,0,2.44-6.76A30.11,30.11,0,0,0,433.7,196.4Z" transform="translate(0)"/><path class="cls-5" d="M489.52,212.45a15.48,15.48,0,0,0,.67-7,6.33,6.33,0,0,0-2.1-4.45,5.66,5.66,0,0,0-4.58-1.26,6.52,6.52,0,0,0-3.65,1.76,5.83,5.83,0,0,0-1.89,4.45,7.3,7.3,0,0,0,1.6,4c.55.84.88,2.35-.08,2.9s-2.06-.34-2.9-1.68a11.63,11.63,0,0,1-1.34-5.21,18.73,18.73,0,0,1,.5-5.33,20,20,0,0,0,.71-4.16,3.28,3.28,0,0,0-1-2.73c-.5-.42-.76-.8-.67-1.18s.8-.46,1.3-.29a3.38,3.38,0,0,1,2,1.55,4.9,4.9,0,0,1,.25,4.45c-.5,1.39-1.3,3-1.18,4.45a5.11,5.11,0,0,1,1.39-2.06,9.15,9.15,0,0,1,4.66-2.23,7.29,7.29,0,0,1,5.67,1.34,8.7,8.7,0,0,1,3.19,4.87,13.61,13.61,0,0,1,.25,6.3,11.26,11.26,0,0,1-2.23,5.38,12.74,12.74,0,0,1-4.79,3.86,17.4,17.4,0,0,1-4.87,1.51,12.5,12.5,0,0,1-3.11.29c-.63,0-.92-.21-.92-.38s.21-.38.76-.42a23.74,23.74,0,0,0,2.56-.38,13.35,13.35,0,0,0,6.13-3A11.66,11.66,0,0,0,489.52,212.45Z" transform="translate(0)"/><path class="cls-5" d="M543.61,204.51l1.51-1.85c1.51,1.3,2.31,2.14,2.31,2.48a.59.59,0,0,1-.34.5l-1,.55c-.21,7.86-1.18,12.77-2.94,14.75a5.59,5.59,0,0,1-4.45,1.81c0-.76-.59-1.3-1.85-1.72a49.61,49.61,0,0,0-5.5-1.18v-1a50.67,50.67,0,0,0,7.52.71,3.34,3.34,0,0,0,3.61-2.48A46.85,46.85,0,0,0,544,205.43h-6.09l-.8,2.56-2.1-.46A77.94,77.94,0,0,0,538,195.18h-8.28v1.3c0,6.43-.92,11.76-2.81,16-2,4.62-5.63,8.28-10.67,11l-.55-.8a24,24,0,0,0,9.91-13.19,43.82,43.82,0,0,0,1.76-13v-1.34h-9.33l-.34-1h20l1.47-1.81c1.6,1.3,2.39,2.18,2.39,2.56,0,.17-.17.34-.46.46l-1,.55a66.37,66.37,0,0,1-1.89,8.53Z" transform="translate(0)"/><path class="cls-5" d="M564.06,199c3.53,1.09,5.29,2.52,5.29,4.24,0,1-.42,1.43-1.3,1.43q-.88,0-1.26-1.26a7.22,7.22,0,0,0-3.11-3.7Zm11.76-1.51-6,16.59a7.22,7.22,0,0,0-.63,2.65,6.22,6.22,0,0,0,.25,1.51,14.6,14.6,0,0,1,.42,3.32c0,1.64-.59,2.52-1.76,2.52-.88,0-1.3-.42-1.3-1.26,0,0,0-.59.17-1.6a21.34,21.34,0,0,0,.25-3,3.8,3.8,0,0,0-.92-2.94,4.49,4.49,0,0,0-2.27-.84v-1a6.92,6.92,0,0,0,1.51.17,2.6,2.6,0,0,0,2.44-1.34,115.32,115.32,0,0,0,7-15.54Zm-9-6.64c3.7.92,5.54,2.23,5.54,3.95,0,1-.46,1.51-1.39,1.51-.5,0-.92-.42-1.18-1.18a6.86,6.86,0,0,0-3.4-3.53Zm25.79,18.95,1.43-1.64c1.47,1.13,2.18,1.85,2.18,2.23a.39.39,0,0,1-.25.34l-1,.63c-.17,5.5-.76,9.12-1.89,10.75a4,4,0,0,1-3.61,1.76,1.58,1.58,0,0,0-1.13-1.51,18.29,18.29,0,0,0-3.44-.84v-1a26.22,26.22,0,0,0,4.37.38A2.48,2.48,0,0,0,592,219a30.44,30.44,0,0,0,.92-8.32h-2.48q-3.47,9-13.82,13.06L576,223c5.88-2.81,9.87-6.89,12-12.22h-3.19s-.08.13-.13.25-.08.21-.13.25c-2.23,4.16-6,7.31-11.26,9.37l-.5-.8a21.32,21.32,0,0,0,9.62-9.07h-3.11a21.23,21.23,0,0,1-7.14,5.21l-.55-.76a21.75,21.75,0,0,0,8.23-8.74h-6.13l-.34-1h19.79l1.89-2.23a18.4,18.4,0,0,1,2.44,2.48l-.42.71H582.17a18.16,18.16,0,0,1-2.06,3.36ZM579.9,192.16h10.17l1.43-1.76c1.51,1.18,2.27,2,2.27,2.35,0,.13-.08.21-.25.34l-1,.59v9.91H590.4V202H579.57v1.81h-2.14V191c.63.21,1.26.63,2.06,1Zm-.34.92v3.28H590.4v-3.28ZM590.4,201v-3.7H579.57V201Z" transform="translate(0)"/><path class="cls-5" d="M612.83,223.92v-1.64h7.65V196.7h1.68v27.22Z" transform="translate(0)"/><path class="cls-6" d="M178.37,264.5q-7.23-5.13-7.23-14.65a18.25,18.25,0,0,1,3.28-10.8,15.51,15.51,0,0,1,4-3.85h1.22c-4.54,3.56-6.77,8.46-6.77,14.65s2.23,11.09,6.77,14.65Z" transform="translate(0)"/><path class="cls-6" d="M203.32,249.2l1-1.26q1.73,1.35,1.73,1.73c0,.07-.07.18-.22.29l-.65.47V255h-1.62v-.83h-2.16v3h1.94l1.22-1.69a15,15,0,0,1,1.69,1.91l-.36.58h-4.5v3.42c1.84-.29,3.56-.58,5.33-.94l.14.86c-4.1,1-8.17,1.91-12.17,2.52-.22.68-.47,1-.65,1-.36,0-.79-.9-1.26-2.59,1-.11,1.73-.14,2-.18l.43,0v-5.79c1.84.14,2.81.43,2.81.83s-.36.47-1.12.72v4.1c1.55-.22,2.48-.29,2.74-.32v-7.45H197v1h-1.73v-6.7s.11,0,.22.11c.32.11.58.22.86.32s.47.22.86.36Zm5.15-9.18h10.29L220,238.4c1.48,1.51,2.27,2.45,2.27,2.77,0,.14-.11.25-.29.29l-1.12.25a12.46,12.46,0,0,1-2,1.91l-.58-.36a20.79,20.79,0,0,0,.65-2.41H208.47v6.62h-1.8v-6.62h-10a7.58,7.58,0,0,1-.58,2.88c-.5,1-1.15,1.55-1.87,1.55a.94.94,0,0,1-1-1.08,1.43,1.43,0,0,1,.68-1,6.28,6.28,0,0,0,1.94-4.39l.68.07a6.85,6.85,0,0,0,.07.72,1.64,1.64,0,0,0,.07.47h10v-2.2h-9.36l-.4-.79h17.6l1.62-2.09c.86.83,1.62,1.55,2.27,2.27l-.4.61h-9.54ZM197,250v3.28h6.59V250Zm5.33-4.21,1.19-1.15c.4.32,1,.79,1.62,1.4l-.43.54h-7.27l-.4-.79Zm0-2.77,1.22-1.22c.54.43,1,1,1.55,1.48l-.36.58h-7l-.36-.83Zm7.92,14.72.43.11h6.33l.9-.83c1.19.68,1.76,1.12,1.76,1.37s-.07.22-.25.32l-.47.36v5.4h-1.76v-1.26h-6.66v1.26h-1.8v-6.37a18.74,18.74,0,0,1-2.52,1l-.5-.68a25.92,25.92,0,0,0,7.31-4.46,15.19,15.19,0,0,1-2.52-2.52,20,20,0,0,1-3.71,3.35l-.65-.58a17.83,17.83,0,0,0,4.9-7.27c1.8.29,2.66.61,2.66,1,0,.18-.4.4-1.19.54-.11.18-.29.54-.58,1h4.61l1-1.12c1.26,1,1.91,1.62,1.91,1.91,0,.11-.07.22-.32.32l-.83.32a20.39,20.39,0,0,1-3,3.06,23,23,0,0,0,7.16,2,6.56,6.56,0,0,0-1.12,1.69,22.33,22.33,0,0,1-7-2.81,21.48,21.48,0,0,1-4.57,2.74A4.45,4.45,0,0,1,210.3,257.77Zm4.79-12,1.15-1.19c.36.29.94.79,1.62,1.44l-.36.54h-7.23l-.4-.79Zm-.32-2.77,1.15-1.22a9.79,9.79,0,0,1,1.62,1.51l-.32.54h-6.87l-.43-.83Zm-4.18,15.66v3.71h6.66V258.7Zm6-8.39h-5.18a2.06,2.06,0,0,0-.36.47,8.29,8.29,0,0,1,.83.79,13.1,13.1,0,0,0,2.09,1.66A16.76,16.76,0,0,0,216.6,250.32Z" transform="translate(0)"/><path class="cls-6" d="M235.47,263.63l-.47-.76c7.7-2.45,12-7.13,12.81-14.11H236.91l-.36-.79h11.37c0-1,0-1.58,0-1.83v-6.26h-12l-.36-.83h22.61l1.91-2.3a22.55,22.55,0,0,1,2.56,2.45l-.4.68H250v6.26c0,.43,0,1-.07,1.83h7.42l1.83-2.27a24.89,24.89,0,0,1,2.41,2.38l-.36.68H250.26a22.8,22.8,0,0,0,13.39,12.46,6,6,0,0,0-1.76,1.94,23.38,23.38,0,0,1-12.17-13.35C248.53,257,243.75,261.65,235.47,263.63Z" transform="translate(0)"/><path class="cls-6" d="M292.16,248.26a2.33,2.33,0,0,1,.65,1.58,2.09,2.09,0,0,1-.32,1.22,2.32,2.32,0,0,1-2,1.12,2.2,2.2,0,0,1-1.48-.54,2.34,2.34,0,0,1-.86-1.8,2.19,2.19,0,0,1,1-1.91,2.26,2.26,0,0,1,1.33-.43A2.3,2.3,0,0,1,292.16,248.26Z" transform="translate(0)"/><path class="cls-6" d="M332.59,242.65a26,26,0,0,1-.54,3.74,30.69,30.69,0,0,1,6,4.46c1.4,1.4,2.09,2.52,2.09,3.38s-.32,1.12-1,1.12c-.4,0-.76-.4-1.22-1.19a25.46,25.46,0,0,0-6.08-6.87,16.1,16.1,0,0,1-8.57,9.9l-.58-.72q7.5-4.64,8-13.82h-9.14v21.89h-1.91V240.85c.68.25,1.26.54,1.8.79l.4.22h8.85v-6.19c2.16,0,3.24.29,3.24.79,0,.25-.47.58-1.33.94v4.46H342l1.22-1.62c1.4,1.12,2.12,1.87,2.12,2.2,0,.14-.11.22-.29.36l-.86.5v18c0,1.69-1.12,2.66-3.38,2.81a1.65,1.65,0,0,0-1.3-1.4c-.54-.18-1.91-.36-3.89-.68v-.9a47.77,47.77,0,0,0,5.4.29,1.1,1.1,0,0,0,1.26-1.22V242.65Z" transform="translate(0)"/><path class="cls-6" d="M359.38,242.94c3,.94,4.54,2.16,4.54,3.64,0,.83-.36,1.22-1.12,1.22q-.76,0-1.08-1.08a6.18,6.18,0,0,0-2.66-3.17Zm10.08-1.3-5.15,14.22a6.18,6.18,0,0,0-.54,2.27,5.35,5.35,0,0,0,.22,1.3,12.51,12.51,0,0,1,.36,2.84c0,1.4-.5,2.16-1.51,2.16-.76,0-1.12-.36-1.12-1.08,0,0,0-.5.14-1.37a18.19,18.19,0,0,0,.22-2.56,3.26,3.26,0,0,0-.79-2.52,3.85,3.85,0,0,0-1.94-.72v-.86a6,6,0,0,0,1.3.14,2.22,2.22,0,0,0,2.09-1.15,98.88,98.88,0,0,0,6-13.32Zm-7.7-5.69c3.17.79,4.75,1.91,4.75,3.38,0,.9-.4,1.3-1.19,1.3-.43,0-.79-.36-1-1a5.88,5.88,0,0,0-2.92-3Zm22.1,16.23,1.22-1.4c1.26,1,1.87,1.58,1.87,1.91a.34.34,0,0,1-.22.29l-.83.54c-.14,4.71-.65,7.81-1.62,9.21a3.43,3.43,0,0,1-3.1,1.51,1.36,1.36,0,0,0-1-1.3,15.7,15.7,0,0,0-3-.72v-.86a22.57,22.57,0,0,0,3.74.32,2.12,2.12,0,0,0,2.3-1.58,26.08,26.08,0,0,0,.79-7.13H382q-3,7.72-11.84,11.19l-.54-.72A19.62,19.62,0,0,0,379.9,253h-2.74s-.07.11-.11.22-.07.18-.11.22c-1.91,3.56-5.15,6.26-9.65,8l-.43-.68a18.27,18.27,0,0,0,8.24-7.77h-2.66a18.19,18.19,0,0,1-6.12,4.46l-.47-.65a18.63,18.63,0,0,0,7.05-7.49h-5.25l-.29-.83h17l1.62-1.91A15.73,15.73,0,0,1,388,248.7l-.36.61H374.89a15.51,15.51,0,0,1-1.76,2.88Zm-10.91-15.12h8.71l1.22-1.51c1.3,1,1.94,1.69,1.94,2,0,.11-.07.18-.22.29l-.83.5v8.5h-1.84v-1.37h-9.29V247h-1.84v-11c.54.18,1.08.54,1.76.83Zm-.29.79v2.81h9.29v-2.81Zm9.29,6.8V241.5h-9.29v3.17Z" transform="translate(0)"/><path class="cls-6" d="M416.36,248.26a2.33,2.33,0,0,1,.65,1.58,2.09,2.09,0,0,1-.32,1.22,2.32,2.32,0,0,1-2,1.12,2.2,2.2,0,0,1-1.48-.54,2.34,2.34,0,0,1-.86-1.8,2.19,2.19,0,0,1,1-1.91,2.26,2.26,0,0,1,1.33-.43A2.3,2.3,0,0,1,416.36,248.26Z" transform="translate(0)"/><path class="cls-6" d="M468.82,245.56c.54.68.61,1.19.32,1.4s-.58.11-.94,0a14.32,14.32,0,0,0-3.1-.36c-1.19-.07-2.48-.07-4-.11,0,.58,0,1.15,0,1.66a16.47,16.47,0,0,1-.65,5,14.14,14.14,0,0,1-2.05,4.5,12.83,12.83,0,0,1-3.74,3.53,14.52,14.52,0,0,1-3.53,1.73c-.47.14-.61-.43-.18-.61a19.75,19.75,0,0,0,2-1,9.69,9.69,0,0,0,4.21-4.28,19.19,19.19,0,0,0,1.83-7.24c.07-1.12.14-2.23.22-3.28a49.59,49.59,0,0,0-5,.22.79.79,0,0,0-.29,0v1c0,.9.07,2.38.07,2.92,0,1.08.4,2.84-1,2.84s-1.12-1.94-1-2.81,0-2.3.07-3.71c-.68.07-1.33.18-2.09.25a24.43,24.43,0,0,1-4.21.18,3.42,3.42,0,0,1-2.38-.9c-.4-.36-.76-1-.36-1.37s1.62,0,2.48.29a13,13,0,0,0,3.6.22c1.12,0,2.05-.11,3-.14V245a17.69,17.69,0,0,0-.18-3.6,2,2,0,0,0-1-1.37c-.47-.29-.65-.68-.43-1s.9-.36,1.58-.07a2.51,2.51,0,0,1,1.51,1.33,9,9,0,0,1,.25,2.77c0,.65.07,1.55.11,2.45.11,0,.29,0,.43,0,1.26,0,3.24-.14,4.93-.22,0-.54.07-1,.11-1.55a18.32,18.32,0,0,0-.25-4,2.14,2.14,0,0,0-1.08-1.73c-.4-.29-.72-.68-.47-.94s1-.18,1.44,0a4.64,4.64,0,0,1,2.09,1.87c.54.79.25,2.09.18,3.64,0,.72-.11,1.69-.14,2.66a16.74,16.74,0,0,0,3-.22,18.84,18.84,0,0,1,2.48-.32A2.63,2.63,0,0,1,468.82,245.56Z" transform="translate(0)"/><path class="cls-6" d="M487.86,262.88c-.54,0-.94,0-1-.29s.22-.43.83-.54a22.23,22.23,0,0,0,3.6-.83,16.72,16.72,0,0,0,6.08-3.49,18.43,18.43,0,0,0,4-5.18,16.48,16.48,0,0,0,1.58-4.5,11.23,11.23,0,0,0,.22-3.56.63.63,0,0,0-.79-.68c-1.48.14-3.89.29-5,.29s-3.28.11-3.53.11-.25.18-.25.32c.11.83.22,1.51.36,2.52a5,5,0,0,1,.14,1.84c-.07.54-.32.9-.65,1a1.11,1.11,0,0,1-1-.32c-.5-.36-.58-1-.65-1.76-.07-1.33-.18-3-.29-3.67a2.17,2.17,0,0,0-.58-1.51c-.36-.29-.68-.65-.47-1s1-.25,1.55,0a3.23,3.23,0,0,1,1.15.86,1.26,1.26,0,0,0,.65.4h1.62c.43,0,.83,0,1.19,0,0-.58.07-1.73.07-2.41,0-1-.14-1.69-.65-2.05s-.83-.86-.65-1.19a1,1,0,0,1,1.12-.22,4,4,0,0,1,1.76.86c.61.54.25,1.33.11,2.05a27.3,27.3,0,0,0-.18,2.88,6.44,6.44,0,0,0,.79-.07l2.84-.14a6.51,6.51,0,0,0,2.09-.61,1.38,1.38,0,0,1,1.26-.18,5.06,5.06,0,0,1,1.33,1,.76.76,0,0,1,0,1.22,3,3,0,0,0-.83,1.87,14.76,14.76,0,0,1-.58,2.66,17.67,17.67,0,0,1-3,6.26,22,22,0,0,1-5.22,5,19.11,19.11,0,0,1-5.51,2.52,15.93,15.93,0,0,1-3.6.58Z" transform="translate(0)"/><path class="cls-6" d="M528.47,245.56a7.77,7.77,0,0,0,1.91.54,10.41,10.41,0,0,0,3.13-.07c1.62-.18,2.66-.4,3.89-.54l1-.11c0-1,0-1.8,0-2.41a26.43,26.43,0,0,0-.25-3.06,2.69,2.69,0,0,0-.86-1.84c-.54-.43-.86-1.26-.61-1.58s1.19-.22,1.94.07a3.72,3.72,0,0,1,1.69,1.15,1.66,1.66,0,0,1,.36,1.44,5.12,5.12,0,0,0-.11,1,16.84,16.84,0,0,0,0,2.66c0,.54,0,1.33,0,2.27.22,0,.43-.07.65-.07,1.4-.14,3-.25,4-.43a15.64,15.64,0,0,1,2.77-.32,4.17,4.17,0,0,1,2.2.72,1.6,1.6,0,0,1,.68,1.22c-.11.32-.72.32-1.8.29s-2.63-.07-4.39-.14a34.6,34.6,0,0,0-4.21.14c0,1.12-.14,2.23-.25,3.28a19.57,19.57,0,0,1-1,5.08,17.38,17.38,0,0,1-2.52,4.72,20.63,20.63,0,0,1-2.92,3.2c-.47.43-1.08.83-1.3.54s.14-.58.61-1a19,19,0,0,0,2.63-3.78,17.59,17.59,0,0,0,2.05-5.79,49,49,0,0,0,.54-5.51v-.54c-2,.14-3.35.36-4.25.47a41.51,41.51,0,0,1-4.17.61,2.82,2.82,0,0,1-2.63-.83c-.58-.68-.65-1.26-.29-1.55S528.07,245.42,528.47,245.56Z" transform="translate(0)"/><path class="cls-6" d="M567,264.5c4.54-3.6,6.77-8.46,6.77-14.61s-2.23-11.12-6.77-14.69h1.22c4.82,3.46,7.24,8.32,7.24,14.65a18.48,18.48,0,0,1-3.28,10.8,14.91,14.91,0,0,1-4,3.85Z" transform="translate(0)"/><path class="cls-6" d="M195,312.2l.81-1q1.34,1.05,1.34,1.34c0,.06-.06.14-.17.22l-.5.36v3.53h-1.26V316h-1.68v2.35h1.51l1-1.32a11.84,11.84,0,0,1,1.32,1.48l-.28.45h-3.5v2.66c1.43-.22,2.77-.45,4.14-.73l.11.67c-3.19.81-6.36,1.48-9.46,2-.17.53-.36.81-.5.81s-.62-.7-1-2c.81-.08,1.34-.11,1.57-.14l.34,0v-4.51c1.43.11,2.18.34,2.18.64s-.28.36-.87.56v3.19c1.2-.17,1.93-.22,2.13-.25V316h-2.1v.76h-1.34v-5.21s.08,0,.17.08c.25.08.45.17.67.25s.36.17.67.28Zm4-7.14h8l1-1.26c1.15,1.18,1.76,1.9,1.76,2.16s-.08.2-.22.22l-.87.2a9.8,9.8,0,0,1-1.54,1.48l-.45-.28a16.05,16.05,0,0,0,.5-1.88H199v5.15h-1.4V305.7h-7.78a5.91,5.91,0,0,1-.45,2.24c-.39.81-.9,1.2-1.46,1.2a.73.73,0,0,1-.81-.84,1.11,1.11,0,0,1,.53-.81,4.89,4.89,0,0,0,1.51-3.42l.53.06a5.38,5.38,0,0,0,.06.56,1.29,1.29,0,0,0,.06.36h7.81v-1.71h-7.28l-.31-.62h13.69l1.26-1.62c.67.64,1.26,1.2,1.76,1.76l-.31.48H199Zm-8.9,7.78v2.55h5.12v-2.55Zm4.14-3.28.92-.9c.31.25.76.62,1.26,1.09l-.34.42h-5.66l-.31-.62Zm0-2.16,1-1c.42.34.78.76,1.2,1.15l-.28.45h-5.46l-.28-.64Zm6.16,11.45.34.08h4.93l.7-.64c.92.53,1.37.87,1.37,1.06s-.06.17-.2.25l-.36.28v4.2h-1.37v-1h-5.18v1h-1.4v-5a14.48,14.48,0,0,1-2,.76l-.39-.53a20.14,20.14,0,0,0,5.68-3.47,11.79,11.79,0,0,1-2-2,15.6,15.6,0,0,1-2.88,2.6l-.5-.45a13.88,13.88,0,0,0,3.81-5.66c1.4.22,2.07.47,2.07.76s-.31.31-.92.42c-.08.14-.22.42-.45.81h3.58l.81-.87c1,.76,1.48,1.26,1.48,1.48s-.06.17-.25.25l-.64.25a15.74,15.74,0,0,1-2.35,2.38,17.91,17.91,0,0,0,5.57,1.57,5.13,5.13,0,0,0-.87,1.32,17.41,17.41,0,0,1-5.46-2.18,16.76,16.76,0,0,1-3.56,2.13A3.44,3.44,0,0,1,200.47,318.86Zm3.72-9.3.9-.92c.28.22.73.62,1.26,1.12l-.28.42h-5.63l-.31-.62Zm-.25-2.16.9-1a7.66,7.66,0,0,1,1.26,1.18l-.25.42H200.5l-.34-.64Zm-3.25,12.18v2.88h5.18v-2.88Zm4.68-6.52h-4a1.58,1.58,0,0,0-.28.36,6.42,6.42,0,0,1,.64.62,10.21,10.21,0,0,0,1.62,1.29A13,13,0,0,0,205.37,313.07Z" transform="translate(0)"/><path class="cls-6" d="M215.84,323.43l-.36-.59c6-1.9,9.3-5.54,10-11H217l-.28-.62h8.85c0-.78,0-1.23,0-1.43v-4.87h-9.35l-.28-.64h17.58l1.48-1.79a17.45,17.45,0,0,1,2,1.9l-.31.53h-9.55v4.87c0,.34,0,.81-.06,1.43h5.77l1.43-1.76a19.38,19.38,0,0,1,1.88,1.85l-.28.53h-8.51a17.73,17.73,0,0,0,10.42,9.69,4.69,4.69,0,0,0-1.37,1.51,18.18,18.18,0,0,1-9.46-10.39C226,318.3,222.28,321.89,215.84,323.43Z" transform="translate(0)"/><path class="cls-6" d="M247.48,303.63v4.68q0,11.21-4.2,15.82l-.56-.42c2.18-3.28,3.25-8.4,3.25-15.43v-6a2.93,2.93,0,0,0,.34.14l.5.22.87.39h12.88l1-1.2c1,.81,1.57,1.34,1.57,1.57s-.08.22-.28.36l-.62.34v2.32c0,5.6.39,9.63,1.12,12.18.42,1.34.73,2,.92,2s.56-1.6.84-4.76l.67.34-.06.81c-.08,1.54-.11,2.52-.11,2.94,0,1.57.22,2.46.7,2.69-.2.7-.53,1.06-1.09,1.06A1.87,1.87,0,0,1,264,323c-2.18-2.24-3.22-7.76-3.22-16.6v-2.74Zm5.8,6.8v-3.22c-1.32.14-2.88.31-4.7.39l-.2-.59a34,34,0,0,0,9.16-2c1,.64,1.54,1.09,1.54,1.4,0,.14-.17.22-.45.22s-.42-.06-.78-.11c-1.12.22-2.18.39-3.16.53v3.39h2.55l.9-1c1,.73,1.46,1.23,1.46,1.48a.28.28,0,0,1-.2.25l-.56.34V317h-1.4v-1.15h-2.74v4.82a31.63,31.63,0,0,0,3.22-.28l.62-.08a12,12,0,0,0-1.85-2.38l.39-.45c2.72,1.79,4.06,3.44,4.06,4.87,0,.62-.28,1-.84,1-.39,0-.64-.22-.76-.7a6.52,6.52,0,0,0-.64-1.6c-2.35.5-5.71,1-10.05,1.48-.11.53-.28.81-.42.81-.36,0-.67-.76-1-2.27,2.32-.08,4.09-.2,5.35-.25l.5,0v-4.9h-2.6v1.63h-1.43v-7.76a11.67,11.67,0,0,1,1.68.76Zm0,.64h-2.6v4.09h2.6Zm1.4,0v4.09h2.74v-4.09Z" transform="translate(0)"/><path class="cls-6" d="M287.58,303.21l.92-1.18q1.6,1.17,1.6,1.51a.3.3,0,0,1-.2.28l-.67.5v7.39h-1.51v-1.32h-4.59c-.56,1.43-1.2,2.83-1.9,4.2h8l1-1.18c1.09.78,1.65,1.32,1.65,1.54s-.08.22-.25.36l-.62.39v8.37h-1.51v-1.51H275.26v1.51h-1.51V313.85a12.7,12.7,0,0,1,1.82.76h4.76a27.83,27.83,0,0,0,.84-4.2H277v1.54h-1.46v-9.49a9.29,9.29,0,0,1,1.76.76Zm-12.32,12v6.72h14.22v-6.72Zm1.74-11.4v6h10.72v-6Z" transform="translate(0)"/><path class="cls-6" d="M305.72,311.83c-.14.31-.5,1.51-.81,2.3s-.76,2.41-1.12,3.61a6,6,0,0,0,0,2.91c.17.62.11,1.4-.31,1.48s-.81,0-1.23-.78a9.39,9.39,0,0,1-.67-3.28,20.43,20.43,0,0,1,.14-3.53,30.76,30.76,0,0,1,.64-3.36,16.51,16.51,0,0,0,.45-3.19,3.14,3.14,0,0,0-.5-2c-.25-.39-.36-.67-.17-.92s.7-.08,1,.22a4.63,4.63,0,0,1,1,1.51,3.74,3.74,0,0,1,0,2.41c-.22.76-.67,2-1.06,3.47a16.41,16.41,0,0,0-.36,3.67c0,.48.34.39.39.14.2-.56.64-1.87,1-2.63s.59-1.06,1.15-2.24c.14-.31.36-.56.56-.45S305.83,311.5,305.72,311.83Zm13.69,9.63c-.14.31-.73.34-1.09-.06a21.54,21.54,0,0,0-1.93-1.57,5.93,5.93,0,0,0-.92-.62c0,.25,0,.45,0,.62a2.73,2.73,0,0,1-2.18,2.3,6.3,6.3,0,0,1-3.89-.39,2.17,2.17,0,0,1-1.46-2.13,2.25,2.25,0,0,1,1.62-1.9,7.09,7.09,0,0,1,3.28-.34,8.35,8.35,0,0,1,1.4.22c0-.67,0-1.37,0-2,0-.92-.06-2-.06-3.28,0-.56,0-1.23,0-1.82a8.23,8.23,0,0,1-2.35-.2,4,4,0,0,1-1.93-1c-.5-.48-.53-1-.39-1.09s.53.14.92.39a4.07,4.07,0,0,0,1.32.53,8.67,8.67,0,0,0,2.46.22,2.7,2.7,0,0,0,0-.67,22.32,22.32,0,0,0-.17-2.83c-.11-.84-.2-1.12-.53-1.46s-.48-.67-.31-1,.45-.28,1.06,0a2.14,2.14,0,0,1,1.4,1.48,5.17,5.17,0,0,1,.06,2.29,5.79,5.79,0,0,0,1.4.56c.53.14,1.2.17,1.48.42s.2.92-.48,1.4a5.91,5.91,0,0,1-2.74.78c0,.7-.06,1.4,0,1.79,0,.9.08,2.46.17,3.89,0,.59,0,1.23,0,1.82.34.11.7.22,1,.37a5.78,5.78,0,0,1,2.46,1.51A1.57,1.57,0,0,1,319.41,321.47Zm-5.24-2.86c-.11-.06-.28-.11-.42-.17a7.3,7.3,0,0,0-3.08-.25c-.84.11-1.74.56-1.82,1.4s.39,1.29,1.57,1.54a3.41,3.41,0,0,0,2.6-.34,2.53,2.53,0,0,0,1.15-2.16Zm1.46-10.89a3.07,3.07,0,0,0-.06.53c-.06.28-.06.59-.11,1,.42-.11.78-.22,1.06-.31s.28-.25.08-.36S316,308.05,315.63,307.72Z" transform="translate(0)"/><path class="cls-6" d="M327.48,318.86a9.78,9.78,0,0,1,4,2.29,2.3,2.3,0,0,1,.73,1.68,1.1,1.1,0,0,1-1.2,1.26c-.45,0-.73-.34-1-1a9.38,9.38,0,0,0-2.83-3.86Z" transform="translate(0)"/><path class="cls-6" d="M359.87,307l-.08.42c-1,5.63-2.3,10.36-4.59,14.05l-.56-.36a39.91,39.91,0,0,0,3.75-13.66l.06-.45H355.2l-.22-.64h3.5c.11-1.06.25-2.63.34-4.79,1.65.2,2.44.48,2.44.84,0,.2-.31.39-1,.59,0,.62-.08,1.29-.17,2s-.11,1.29-.14,1.32h3.25l1.15-1.6a10.25,10.25,0,0,1,1.43,1.74l-.25.5Zm3.5,12.4a15.49,15.49,0,0,0-1.6-3.42l.48-.39c2.07,2.27,3.11,4.23,3.11,5.82q0,1.09-.84,1.09c-.34,0-.62-.36-.7-1.06a5.82,5.82,0,0,0-.25-1.32,43,43,0,0,1-5.38,1.93c-.08.56-.22.87-.42.87s-.64-.67-1.06-2c1-.17,1.74-.28,2.1-.36a92.44,92.44,0,0,0,1.93-10.22c1.43.42,2.1.78,2.1,1.15q0,.29-.84.42a78.5,78.5,0,0,1-2.41,8.48A31.28,31.28,0,0,0,363.37,319.42Zm3.16-9.66a34.14,34.14,0,0,1-2.46,3.25l-.5-.42a31.86,31.86,0,0,0,4.9-11.17c1.48.36,2.21.73,2.21,1.06,0,.17-.36.34-1,.48a41.78,41.78,0,0,1-1.65,4.17h3.3a32.17,32.17,0,0,0,1.71-5.49c1.48.39,2.24.78,2.24,1.12s-.36.36-1,.48a26.36,26.36,0,0,1-2.13,3.89H375l1-1.57a18,18,0,0,1,1.46,1.71l-.25.5h-4.65v4h1.76l1-1.48a14.26,14.26,0,0,1,1.37,1.6l-.25.5h-3.92v4.26h1.74l1.06-1.46a15.79,15.79,0,0,1,1.2,1.34l.22.25-.28.5h-3.95v4.56h2.72l1.2-1.65c.59.64,1.09,1.21,1.51,1.74l-.28.53h-9.83v1.6h-1.4Zm1.4-2v4h3.28v-4Zm0,4.65v4.26h3.28v-4.26Zm0,4.9v4.56h3.28v-4.56Z" transform="translate(0)"/><path class="cls-6" d="M383.81,323.79l-.39-.62c5.94-2.32,9.24-6.78,9.86-13.36H384l-.22-.62h9.6c0-.78.06-1.34.06-1.71V302.2c1.74.06,2.63.31,2.63.67s-.36.48-1.09.7v3.87c0,.36,0,1-.06,1.76H402l1.34-1.82a19.56,19.56,0,0,1,1.76,2l-.25.48H395.1a18.32,18.32,0,0,0,10.58,11.87,6,6,0,0,0-1.43,1.51,18.51,18.51,0,0,1-9.55-12.12C393.78,317.63,390.17,321.86,383.81,323.79Z" transform="translate(0)"/><path class="cls-6" d="M413.58,317.46a2.1,2.1,0,0,1,.28-1.6c.28-.5.53-1,.9-1.76s1.12-2.88,1.51-3.95c.2-.45.36-1,.56-1.57a1.58,1.58,0,0,0-.36,0,4.29,4.29,0,0,1-1.62-.64c-.42-.28-.67-.62-.53-.81s.59,0,.81.11a5.49,5.49,0,0,0,1.23.36,3.39,3.39,0,0,0,.84.08c.11-.36.25-.64.34-.87a4.34,4.34,0,0,0,.53-1.62,2.44,2.44,0,0,0-.34-1.37c-.2-.34-.17-.53,0-.7s.78,0,1,.2a2.11,2.11,0,0,1,.76,1,1.93,1.93,0,0,1,.06.81l.48.17c.39.14,1,.39,1.57.56a2.4,2.4,0,0,1,1.15.56.64.64,0,0,1,.06.87,3.18,3.18,0,0,1-1.57.76,13.79,13.79,0,0,1-2.88.5h-.08a.21.21,0,0,1-.06.14c-.14.36-.84,2.18-1.18,3s-1.06,2.72-1.34,3.5a10.93,10.93,0,0,0-.39,2.77c0,.5-.48.59-.87.39A1.81,1.81,0,0,1,413.58,317.46Zm5.24-10.05a8.54,8.54,0,0,0,1.43-.47c.42-.17.62-.39.59-.48s-.31-.25-.53-.39-.5-.25-.78-.42c-.06.25-.17.5-.25.76A9.3,9.3,0,0,1,418.81,307.41Zm6.75,9.77a12.8,12.8,0,0,0-.25-1.34c-.14-.78-.36-1.85-.5-2.58a2.78,2.78,0,0,1,.2-1.85c.2-.39.56-.7.73-.59s.08.39-.06.9a5.1,5.1,0,0,0,0,2.18c.17.84.48,2.1.73,3.05.06.14.08.28.14.42a7.75,7.75,0,0,1,2.16.84,1.81,1.81,0,0,1,.84,1c.14.5,0,1-.25,1.06s-.67-.14-1.32-.5c-.31-.17-.67-.39-1.06-.62,0,.22.06.42.06.53a2.52,2.52,0,0,1-1.2,2.32,5.29,5.29,0,0,1-4.06-.08,2.54,2.54,0,0,1-1.29-2.77c.17-1.12,1.18-1.88,2.66-2A10.64,10.64,0,0,1,425.56,317.18Zm0,1.32a5.4,5.4,0,0,0-2.55-.45c-.87,0-1.68.56-1.74,1.23a1.43,1.43,0,0,0,1.12,1.48,3.23,3.23,0,0,0,2.3-.08c.76-.28.92-1.06,1-2v-.06A.39.39,0,0,1,425.53,318.5Zm5.8-9a.84.84,0,0,1-.39,1.06,1.17,1.17,0,0,1-.92,0,2.47,2.47,0,0,0-.9-.25,9.42,9.42,0,0,0-1.29,0c-.53,0-.76-.11-.76-.22s.11-.2.34-.28a3.25,3.25,0,0,1,1.15-.28c.45,0,.59-.22.36-.53a6.91,6.91,0,0,0-1.29-1.32,4.59,4.59,0,0,0-1.29-.87c-.28-.11-.39-.31-.31-.42s.53-.17,1-.06a11,11,0,0,1,3.28,1.71A3.12,3.12,0,0,1,431.33,309.48Z" transform="translate(0)"/><path class="cls-6" d="M444.46,313.82a19.43,19.43,0,0,1-5.21,2.8l-.36-.53a16.54,16.54,0,0,0,7.42-6.22h-6.55l-.28-.62h10.14v-1.79h-7.84l-.25-.64h8.09v-1.54h-9.24l-.28-.64H452a23,23,0,0,0,1.54-3.36c1.51.39,2.27.73,2.27,1.09,0,.17-.36.34-1.12.39a18.2,18.2,0,0,1-1.76,1.88h4.93l1.23-1.48a20.3,20.3,0,0,1,1.74,1.65l-.25.48H451v1.54h5.52l1.09-1.23a11.35,11.35,0,0,1,1.6,1.46l-.34.42H451v1.79h7.45l1.18-1.48a13.84,13.84,0,0,1,1.71,1.65l-.22.45h-7a18.51,18.51,0,0,0,8,4.51,3.71,3.71,0,0,0-1.18,1.32,17.3,17.3,0,0,1-4.28-2.32l-.28.22v4.93H455v-.42h-4.7a14.41,14.41,0,0,0,3.67,2.55,20.59,20.59,0,0,0,3.75-3.3c1.15.67,1.71,1.15,1.71,1.43s-.17.25-.56.25a3.43,3.43,0,0,1-.59-.06,22.47,22.47,0,0,1-3.56,2,24,24,0,0,0,6.78,1.4,4.44,4.44,0,0,0-1.12,1.51,19.64,19.64,0,0,1-8-2.88,16.73,16.73,0,0,1-3.08-2.91h-3.47v3.7c2.18-.25,4.06-.56,5.6-.87l.08.67a79.15,79.15,0,0,1-9.21,2q-.13.84-.5.84c-.36,0-.73-.76-1.09-2.18.5,0,1.74-.08,3.72-.28Zm.64-12.52c2.21.53,3.33,1.29,3.33,2.27,0,.62-.25.92-.78.92s-.64-.25-.84-.73a4.13,4.13,0,0,0-1.93-2Zm4.51,11.42v-2.16c1.48,0,2.24.22,2.24.56s-.28.39-.84.59v1h4.06l.36-.39c-.08,0-.11-.11-.2-.17a17.11,17.11,0,0,1-2-2.3H448a12.86,12.86,0,0,1-2.27,2.74s.08,0,.11.06l.08.06Zm-3.75.62V315H455v-1.68Zm0,2.3v1.82H455v-1.82Z" transform="translate(0)"/><path class="cls-6" d="M486.24,310.44l1.37-1.79a18.12,18.12,0,0,1,1.76,1.93l-.25.5h-9a40.59,40.59,0,0,1-3.75,3.44v2.94a31.58,31.58,0,0,0,7.9-4.12q1.6,1.18,1.6,1.68,0,.25-.42.25a2.69,2.69,0,0,1-.78-.14,43.79,43.79,0,0,1-8.12,3h-.17v2.66c0,.53.17.84.48.92a20.43,20.43,0,0,0,3.78.2,29.44,29.44,0,0,0,3.86-.2,1.3,1.3,0,0,0,1.09-1.06,21.46,21.46,0,0,0,.45-3.28l.67.25a15.33,15.33,0,0,0,.25,3.25.86.86,0,0,0,.92.53,1.47,1.47,0,0,1-1.26,1.6,31.49,31.49,0,0,1-5.43.31c-3.22,0-5.1-.14-5.63-.45a1.7,1.7,0,0,1-.64-1.57v-5.66a40.54,40.54,0,0,1-7.39,4.28l-.36-.59a41.55,41.55,0,0,0,7.76-5.18v-1.48a10.67,10.67,0,0,1,1.12.53c1.06-1,1.76-1.68,2.07-2h-10.3l-.25-.62h8.09V306.4h-5.88l-.22-.62h6.24v-4.23c1.68,0,2.52.22,2.52.62,0,.22-.34.48-1,.76v2.86h2.91l1.2-1.54a10.21,10.21,0,0,1,1.32,1.43c.59-.81,1.29-1.93,2.16-3.36,1.34.7,2,1.21,2,1.54s-.25.31-.73.31a3.18,3.18,0,0,1-.53,0,58.34,58.34,0,0,1-4.87,6.3Zm-7.53.14c1.43-1.6,2.58-3,3.44-4.17h-5v4.17Z" transform="translate(0)"/><path class="cls-6" d="M498.84,320.65h6.72V302.43c1.74.06,2.55.25,2.55.59s-.34.48-1.06.76v16.88h6.89v-13.8c1.68.14,2.49.36,2.49.7s-.31.48-1,.7v15.32h-1.48v-2.29H498.84v2.52h-1.46V307c1.65.05,2.49.28,2.49.64s-.34.45-1,.7Z" transform="translate(0)"/><path class="cls-6" d="M523.45,322.89a18.13,18.13,0,0,0,5.82-6.16c1.37.7,2,1.23,2,1.57s-.25.34-.76.34l-.39,0a18.8,18.8,0,0,1-6.33,4.82Zm8-8.9a51.67,51.67,0,0,0,8-7.45c1.29.73,1.93,1.26,1.93,1.54s-.2.31-.62.31l-.59-.06c-2.16,1.85-4.68,3.58-7.34,5.46l-.25.17,2.16-.08c2.86-.08,5-.22,6.36-.31a15.88,15.88,0,0,0-2.83-2.32l.36-.48a15,15,0,0,1,5.07,3.33,3.11,3.11,0,0,1,1,1.88.78.78,0,0,1-.87.9c-.34,0-.67-.31-1-.9a10,10,0,0,0-1.18-1.74l-.84.08c-2,.17-3.89.42-5.71.56v9.21h-1.48V315l-1.71.14c-1.9.17-4,.28-6.36.39-.22.59-.42.9-.62.9s-.59-.78-.9-2.32h1.09c2.52,0,4.45,0,5.77-.08Zm1.82-9-1.82.22c-1.85.22-4.12.45-6.78.67l-.31-.62a80.55,80.55,0,0,0,16.21-3.05c1.26.7,1.88,1.18,1.88,1.48,0,.14-.17.22-.5.22a5.62,5.62,0,0,1-.9-.11c-2.32.42-4.76.78-7.22,1.09l.36.17c.81.42,1.26.73,1.26,1s-.36.28-1.09.28a23.81,23.81,0,0,1-3.19,2.8c1,.76,1.54,1.43,1.54,2.1s-.25.9-.78.9c-.34,0-.62-.25-.92-.78a10.52,10.52,0,0,0-4-3.72l.28-.45a16.34,16.34,0,0,1,3.36,1.57A22.88,22.88,0,0,0,533.28,305Zm4.65,11.54a17.5,17.5,0,0,1,5.57,3.25,2.7,2.7,0,0,1,1.09,1.79c0,.59-.28.9-.81.9-.36,0-.7-.25-1-.78a15.85,15.85,0,0,0-5.15-4.62Z" transform="translate(0)"/><path class="cls-6" d="M570.27,311.28a6.6,6.6,0,0,1-2.07,1.57c-.81.42-2.18.87-3.25,1.32l-.9.39c0,.31.08.64.11,1a4.32,4.32,0,0,1-.34,2.44,1.52,1.52,0,0,1-1.15.92c-.59.06-.81-.39-.64-1a10.91,10.91,0,0,0,.42-2.58v-.17a11.57,11.57,0,0,0-1.32.62,6.08,6.08,0,0,0-2.24,1.82,2.26,2.26,0,0,0-.31,2.49,3.54,3.54,0,0,0,2.74,1.23,18.94,18.94,0,0,0,2.63-.28,16.1,16.1,0,0,1,1.88-.36,2.19,2.19,0,0,1,1.71.45c.45.34.45.81,0,1a4.39,4.39,0,0,1-1.51.31,28.92,28.92,0,0,1-4,.25,8.18,8.18,0,0,1-3.75-1,2.62,2.62,0,0,1-1.2-2.52,3.42,3.42,0,0,1,1.2-2.44,12.18,12.18,0,0,1,2.63-1.87c.48-.25,1-.53,1.54-.79a1.91,1.91,0,0,0-.36-1.12,2.62,2.62,0,0,0-1.79-1,3.16,3.16,0,0,0-1.79.28,2.92,2.92,0,0,0-.5.28c-.36.48-.73.9-1.06,1.37a2.88,2.88,0,0,1-2,1.46c-.62,0-.67-.39-.67-.9a1.54,1.54,0,0,1,.59-1.23,13.6,13.6,0,0,0,1.43-.81,11.56,11.56,0,0,0,2.91-3.58A11.32,11.32,0,0,0,560,307l-.67.08a3.9,3.9,0,0,1-2.32-.37,1.38,1.38,0,0,1-.53-1.6c.34-.45.81-.14,1.43.08a4.14,4.14,0,0,0,2.21.06l.42-.08a1.28,1.28,0,0,0-.36-1.34.81.81,0,0,1-.17-1,1,1,0,0,1,1.06,0,1,1,0,0,1,.39.36c.39.06.87.17,1,.2a2.8,2.8,0,0,1,1,.34c.25.2.11.45-.11.9a4.65,4.65,0,0,1-1.48,1.62,2.17,2.17,0,0,1-.5.25,8.25,8.25,0,0,1-.67,1.6,30,30,0,0,1-1.71,2.94,3.61,3.61,0,0,1-.28.42c.22-.08.48-.2.64-.25a3.15,3.15,0,0,1,1.9-.17,2.18,2.18,0,0,1,1.48.84,2.84,2.84,0,0,1,.36-.45,7.56,7.56,0,0,1,3-2.52,4.05,4.05,0,0,1,3.84-.06A1.64,1.64,0,0,1,570.27,311.28Zm-8.43-6.55.36-.2c.42-.22.56-.5.48-.59s-.28-.2-.67-.25c-.11,0-.22,0-.31-.06a2,2,0,0,1,.14.7A.9.9,0,0,1,561.84,304.72Zm7.25,4.87c-.17-.31-.76-.56-1.74-.34A5.05,5.05,0,0,0,565,310.6a6.31,6.31,0,0,0-1.51,2.32c.08.17.17.36.22.5.25-.08.48-.22.73-.34a40.12,40.12,0,0,0,3.67-1.76C569.29,310.71,569.29,309.93,569.09,309.59Z" transform="translate(0)"/><path class="cls-6" d="M143.15,348v2.86h5.12l1.26-1.48a16.34,16.34,0,0,1,1.71,1.68l-.34.42h-7.76v3.11h7.28l1.4-1.6a22.32,22.32,0,0,1,1.82,1.74l-.28.48h-22l-.25-.62h10.56v-3.11H134l-.25-.62h8V348h-9l-.25-.64h17.08L150.8,346a11.67,11.67,0,0,1,1.74,1.62l-.28.45Zm-6.92-10.75v-3.61q2.44.08,2.44.59,0,.34-1,.67v2.35h2.21l1.18-1.48a13.57,13.57,0,0,1,1.54,1.68l-.25.45H135v4.4c0,.48.14.73.36.81a5.1,5.1,0,0,0,1.62.14c1.18,0,2.18-.11,3-.17.08,0,.2,0,.31,0,.59,0,.9.34.9,1,0,.22-.14.34-.48.42a21.16,21.16,0,0,1-3.25.11,9.25,9.25,0,0,1-3.36-.31,1.62,1.62,0,0,1-.5-1.43v-4.93h-2.13l-.25-.64ZM150.52,335l.81-1c1,.76,1.54,1.23,1.54,1.46s-.08.2-.25.28l-.53.31c-.06,4.79-.39,7.64-1,8.54a2.5,2.5,0,0,1-2.16,1,1.16,1.16,0,0,0-.84-1,15.37,15.37,0,0,0-1.93-.39v-.64a20.51,20.51,0,0,0,2.58.17,1.33,1.33,0,0,0,1.4-.81,7.82,7.82,0,0,0,.36-1.85H145a.87.87,0,0,0-.08.25,8.64,8.64,0,0,1-3.89,5.07l-.45-.45c2.3-2,3.44-5.12,3.44-9.3v-2.38a13.34,13.34,0,0,1,1.65.76Zm.06,5.4c0-.87.08-1.43.08-1.74l0-.39h-5.26a14.76,14.76,0,0,1-.34,2.13Zm-5.1-4.79v1.06c0,.34,0,.67,0,1h5.26v-2Z" transform="translate(0)"/><path class="cls-6" d="M179.69,341.79a3.5,3.5,0,0,1-.11,2.44.84.84,0,0,1-1.06.48c-.31-.14-.81-.48-1.18-.62a8.73,8.73,0,0,0-2.58-.36c0,.62.06,1.34.11,2a15.17,15.17,0,0,0,.62,3c.25.67.78,1.74,1,2.41a2,2,0,0,1-.67,1.88,7.86,7.86,0,0,1-2.69,1.29,12.21,12.21,0,0,1-4.56.36,5.34,5.34,0,0,1-2.74-.78,2.67,2.67,0,0,1-.87-2.1,16.3,16.3,0,0,1,.25-2.38,3.88,3.88,0,0,1-1.51-.59,3.78,3.78,0,0,1-1.6-2.74,4.94,4.94,0,0,1,.67-3.53,2.32,2.32,0,0,1,2.88-.5.37.37,0,0,1,.22.08c0-.64,0-1.37,0-2a14,14,0,0,1-1.62-.06,2.91,2.91,0,0,1-1.82-.62c-.45-.42-.64-1.12-.36-1.29s.56.14.76.31A3.35,3.35,0,0,0,164,339a5.27,5.27,0,0,0,1.62,0l.25-.08a9.44,9.44,0,0,0-.22-1.82,2.4,2.4,0,0,0-.81-1.23.83.83,0,0,1-.28-1.09c.17-.2.64-.14,1,0a2.59,2.59,0,0,1,1.12.73,2.51,2.51,0,0,1,.67,1.21,6.12,6.12,0,0,0,1.82.7c.45.06.73.2.84.48a1,1,0,0,1-.2,1.23,4.77,4.77,0,0,1-2.55,1c-.08,0-.2,0-.31.06v.48c0,.81,0,1.48,0,2.44a1.37,1.37,0,0,1,.39.84,7.15,7.15,0,0,1-.5,2.41,3.91,3.91,0,0,0-.36,1.85c.14.36,0,.76-.17,1.43a5.61,5.61,0,0,0-.14,2.8c.28.53,1.06.87,2.49.9a10.7,10.7,0,0,0,3.7-.36,6,6,0,0,0,1.9-1.23,3.71,3.71,0,0,0,.42-2,22.74,22.74,0,0,0-.39-2.3,22.27,22.27,0,0,1-.34-3.3,9.52,9.52,0,0,1,.48-3.58c.28-.64.67-1.46,1.4-1.54a3.17,3.17,0,0,1,2.16.62A4.3,4.3,0,0,1,179.69,341.79Zm-14.45,5.6c.2-.08.31-.5.42-1.2.06-.34.11-.92.17-1.54a2.07,2.07,0,0,0-.59-.7,2.29,2.29,0,0,0-1.57-.36c-.45.08-.67,1-.56,1.88a2.41,2.41,0,0,0,1.26,1.57C164.71,347.22,165,347.5,165.25,347.39Zm1.93-8.85a7,7,0,0,0,1.26-.73,3.53,3.53,0,0,1-1-.53,1.42,1.42,0,0,1-.08.48C167.29,338,167.26,338.26,167.18,338.54Zm10.7,3.44a16.66,16.66,0,0,0-1-1.74.74.74,0,0,0-1.2-.11,3.87,3.87,0,0,0-.92,2.07,6,6,0,0,0-.06.76c.2-.06.53-.11.87-.17a12.86,12.86,0,0,1,2.13-.2C178,342.6,178,342.29,177.87,342Z" transform="translate(0)"/><path class="cls-6" d="M187.81,355.79l-.39-.62c5.94-2.32,9.24-6.78,9.86-13.36H188l-.22-.62h9.6c0-.78.06-1.34.06-1.71V334.2c1.74.06,2.63.31,2.63.67s-.36.48-1.09.7v3.87c0,.36,0,1-.06,1.76H206l1.34-1.82a19.56,19.56,0,0,1,1.76,2l-.25.48H199.1a18.32,18.32,0,0,0,10.58,11.87,6,6,0,0,0-1.43,1.51,18.51,18.51,0,0,1-9.55-12.12C197.78,349.63,194.17,353.86,187.81,355.79Z" transform="translate(0)"/><path class="cls-6" d="M224.27,337.87a24.35,24.35,0,0,0,1.18-4.54c1.65.31,2.52.64,2.52,1s-.36.42-1,.53a15.08,15.08,0,0,1-1.79,3h7.22l1-1.18c1.09.81,1.65,1.34,1.65,1.6a.32.32,0,0,1-.17.25l-.64.45v17h-1.54v-2.3H220.27V356h-1.54V337c.59.25,1.23.5,1.85.84Zm-4,.64v4.26h12.38v-4.26Zm12.38,9.24v-4.37H220.27v4.37Zm0,5.35v-4.73H220.27v4.73Z" transform="translate(0)"/><path class="cls-6" d="M257.14,340c.08-.9.14-1.68.14-2.44v-3.78c1.57,0,2.35.22,2.35.59s-.31.45-1,.67v2.52c0,1-.06,1.76-.11,2.44h4.2l1.09-1.48c.53.53,1,1.06,1.51,1.63l-.28.48H259a15.4,15.4,0,0,0,6.69,7.48,5.35,5.35,0,0,0-1.23,1.43,15.52,15.52,0,0,1-6-8.34,10.85,10.85,0,0,1-2.35,5.43,13.11,13.11,0,0,1-4.48,3.14l-.34-.59a11.33,11.33,0,0,0,4.76-4.79,14.15,14.15,0,0,0,1.06-3.75h-3.67A20.12,20.12,0,0,1,244,350.7l-.36-.56a20.93,20.93,0,0,0,9.27-12.66h-3.92c-.28.56-.59,1.12-.87,1.68,2,.81,3.05,1.65,3.05,2.63a.66.66,0,0,1-.73.76c-.34,0-.59-.25-.76-.7a5.2,5.2,0,0,0-1.9-2.13,23.77,23.77,0,0,1-1.37,2c1.88,1,2.83,2,2.83,3.05,0,.56-.25.81-.73.81s-.59-.25-.76-.81a6.56,6.56,0,0,0-1.74-2.55,22.94,22.94,0,0,1-2.46,2.52l-.42-.48a23.93,23.93,0,0,0,5.49-10.61c1.54.42,2.32.81,2.32,1.09s-.39.39-1.12.5a15.71,15.71,0,0,1-.56,1.57h3.56l.92-1.12c1,.87,1.48,1.46,1.48,1.71s-.11.22-.25.31l-.64.31c-.22.73-.42,1.37-.64,1.93ZM248,350.25a8.78,8.78,0,0,1-1.79,4.93,2.2,2.2,0,0,1-1.62,1,.81.81,0,0,1-.9-.92c0-.28.28-.59.81-.92a7.39,7.39,0,0,0,2.91-4.26ZM251,350a7,7,0,0,1,1.88,4.26c0,1-.36,1.46-1,1.46-.48,0-.7-.28-.7-.87v-.17a6.52,6.52,0,0,0,0-.81,10.78,10.78,0,0,0-.67-3.61Zm4.56-.11c2.13,1.65,3.22,3.19,3.22,4.62q0,1.18-1,1.18c-.48,0-.73-.34-.81-1a9.31,9.31,0,0,0-1.85-4.4Zm4.65-15.26c1.9,1,2.88,1.93,2.88,2.94,0,.64-.31,1-.9,1-.42,0-.62-.28-.73-.81a4.87,4.87,0,0,0-1.62-2.66Zm.34,15.18a12.31,12.31,0,0,1,3.84,2.83,2.74,2.74,0,0,1,.9,1.88c0,.7-.34,1.06-.92,1.06s-.76-.34-1-1a10.53,10.53,0,0,0-3.19-4.31Z" transform="translate(0)"/><path class="cls-6" d="M292.67,349c.06.42-.28,1-1.15,1.09a4.85,4.85,0,0,1-3.47-1.32,27.59,27.59,0,0,1-3.86-4c-1.15-1.4-2.21-2.72-2.66-3.28s-1-1.12-1.51-1.15-.9.39-1.26.9-1.34,2-1.76,2.66-1.26,1.82-2,2a3,3,0,0,1-2-.25c-.56-.25-.87-.76-.73-1.09s.48-.22.84-.17a3,3,0,0,0,1.12-.2,7.65,7.65,0,0,0,1.46-1,18.44,18.44,0,0,0,1.65-1.65c.5-.53.7-.78,1.23-1.37s.87-.9,1.4-.92,1,.48,1.54,1,1.43,1.34,2.3,2.29,2,1.93,3.16,3.05a15.75,15.75,0,0,0,2.88,2.21,4.55,4.55,0,0,0,2,.62C292.2,348.48,292.65,348.59,292.67,349Z" transform="translate(0)"/><path class="cls-6" d="M335.26,334.71l1-1.12q1.43,1.09,1.43,1.43c0,.08-.11.2-.31.34l-.5.36v7.08h-1.43v-1.37h-5.66V356.1h-1.48V333.81c.5.22,1.12.53,1.79.9Zm-5.49,2.94h5.66v-2.32h-5.66Zm0,.64v2.52h5.66v-2.52ZM341.37,345v3.5h1.34l1.09-1.43.28.25c.34.36.73.78,1.12,1.29l-.25.5h-3.58v5.74H340v-5.74h-3.3a6.6,6.6,0,0,1-4.34,6.16l-.36-.56a6.73,6.73,0,0,0,3.3-5.6h-3.61l-.25-.62h3.86V345h-3.08l-.28-.64h10.28l1.09-1.4a10.2,10.2,0,0,1,1.43,1.54l-.28.5Zm-1.4,0h-3.28v3.5H340Zm6.78-10.33,1-1.15c1,.81,1.48,1.34,1.48,1.57s-.06.17-.17.22l-.59.39V354c0,1.32-.84,2-2.58,1.93a1,1,0,0,0-.76-1,18.83,18.83,0,0,0-2.44-.45v-.67c1.18.11,2.27.14,3.28.14.67,0,1-.25,1-.76V341.43H341v1.23h-1.43V334a12.42,12.42,0,0,1,1.71.76Zm.17,2.94v-2.32H341v2.32Zm0,.64H341v2.52h5.91Z" transform="translate(0)"/><path class="cls-6" d="M359.51,338.46v-5c1.68.08,2.49.31,2.49.7,0,.2-.34.39-1,.59v3.67h2.55l1.23-1.68a20.43,20.43,0,0,1,1.57,1.82l-.28.48h-6.16v1.68c0,.39,0,1.2-.06,2.38h2.86l.87-1.18c1,.84,1.48,1.37,1.48,1.6s-.06.17-.22.28l-.53.34c0,5.32-.34,8.71-.92,10.14a2.48,2.48,0,0,1-2.6,1.51,1.15,1.15,0,0,0-.64-1.12,9.38,9.38,0,0,0-1.62-.48v-.64a17.66,17.66,0,0,0,2.46.25,1.25,1.25,0,0,0,1.29-1.12,46.11,46.11,0,0,0,.62-8.93h-3.05c-.31,5.35-1.74,9.46-4.26,12.29l-.53-.42c2.24-3.5,3.39-8.48,3.39-14.92v-1.65h-3.3l-.22-.62Zm6,7.2-.56-.39a30.83,30.83,0,0,0,3.44-11.76c1.62.25,2.44.53,2.44,1,0,.2-.34.34-1,.48a35.73,35.73,0,0,1-1,4.06h6.1l1.2-1.54a15.11,15.11,0,0,1,1.57,1.71l-.25.45h-2.55a24.28,24.28,0,0,1-2.72,9.86,16.84,16.84,0,0,0,5.71,4.84,5.12,5.12,0,0,0-1.26,1.34,20.55,20.55,0,0,1-5.18-5,15.73,15.73,0,0,1-7,5.4l-.39-.59a16.07,16.07,0,0,0,6.61-6.1,25.61,25.61,0,0,1-2.74-7.92A19.62,19.62,0,0,1,365.47,345.65Zm2.94-5.46a25.39,25.39,0,0,0,2.91,8,25.19,25.19,0,0,0,2-8.6h-4.73Z" transform="translate(0)"/><path class="cls-6" d="M402,338.68c1.32.59,2,1,2,1.37s-.34.31-1.06.31a17.79,17.79,0,0,1-2.27,3.72l-.08.14c1.2,1.54,2,2.32,2.58,2.32.34,0,.62-1.26.81-3.81l.67.34c-.06.84-.08,1.51-.08,2,0,1.4.28,2.21.87,2.38-.08.81-.45,1.2-1.06,1.2q-2,0-4.62-3.28a16.26,16.26,0,0,1-4.31,3.5c1.34.78,2,1.57,2,2.32s-.28,1-.84,1c-.36,0-.62-.25-.81-.73a7.76,7.76,0,0,0-2.58-3.05l.34-.48a13.39,13.39,0,0,1,1.26.62l.17-.14a17.07,17.07,0,0,0,3.92-4,18.69,18.69,0,0,1-2.55-6.78H387v3.22c0,4.34-1.23,7.59-3.61,9.74l-.45-.42c1.71-2.27,2.55-5.35,2.55-9.32v-4.59a17.52,17.52,0,0,1,1.79.76h8.9a28.26,28.26,0,0,1-.28-3.61c1.51.08,2.27.31,2.27.64,0,.17-.28.36-.84.56a21.58,21.58,0,0,0,.22,2.32h4.68l1-1.54a16.65,16.65,0,0,1,1.57,1.68l-.28.5h-6.92a19.28,19.28,0,0,0,2.1,5.68A24.44,24.44,0,0,0,402,338.68Zm-14.48,10.7a8.08,8.08,0,0,1-1.26,4.65c-.59.81-1.18,1.2-1.71,1.2a1,1,0,0,1-.73-.34,1,1,0,0,1-.25-.64c0-.31.25-.56.76-.84a5.81,5.81,0,0,0,2.58-4.14Zm5.8-9.66,1.09-1.34c.59.56,1.06,1,1.43,1.46l-.31.5H388l-.25-.62Zm0,2.77.78-1c1,.67,1.43,1.15,1.43,1.37s-.06.2-.2.28l-.5.34v3.7h-1.37v-.7h-3.44v1.12h-1.37V341.9c.5.17,1,.37,1.48.59Zm6.78,8.63a10.22,10.22,0,0,0,.14,2.32.88.88,0,0,0,.9.59,1.46,1.46,0,0,1-1.29,1.46,31.51,31.51,0,0,1-4.79.2,18,18,0,0,1-4.45-.28c-.48-.22-.73-.76-.73-1.57V349c1.54.08,2.32.28,2.32.64,0,.17-.31.39-.87.62v3.19c0,.45.17.7.45.76a12.86,12.86,0,0,0,2.77.17,27.71,27.71,0,0,0,3.58-.14c.78-.14,1.2-1.23,1.29-3.28Zm-10.08-8v2.77h3.44v-2.77Zm9.1-9.55c1.85.45,2.8,1.12,2.8,2a.73.73,0,0,1-.84.81c-.36,0-.59-.2-.73-.62a3.56,3.56,0,0,0-1.51-1.76Zm1.57,15.34c3.25,1.51,4.9,3.05,4.9,4.59,0,.67-.31,1-.9,1-.42,0-.7-.31-1-.9a10.8,10.8,0,0,0-3.39-4.23Z" transform="translate(0)"/><path class="cls-6" d="M416.43,345.54c.42-.9.92-2,1.32-3-.39.2-.76.39-1,.5-.56.28-1.29.67-1.74.84a2.5,2.5,0,0,1-1.85-.06c-.67-.31-.92-.78-.81-1a.87.87,0,0,1,.92-.42,3.56,3.56,0,0,0,1.65,0,13.49,13.49,0,0,0,2.41-.79c.22-.08.56-.22.92-.34a12.67,12.67,0,0,0,.48-2.77,3.61,3.61,0,0,0-.36-1.82c-.2-.36-.42-.76-.06-1a1.05,1.05,0,0,1,1.32.45,4.73,4.73,0,0,1,.31,2.35,13,13,0,0,1-.59,2.41c.31-.14.56-.22.7-.28a4,4,0,0,1,2.52-.17c1.37.42,2,1.82,2.21,3.39a11.06,11.06,0,0,1-.45,4.79,7.49,7.49,0,0,1-1.9,3.47,3.42,3.42,0,0,1-1.71,1.06,1.59,1.59,0,0,1-1.12-.73,6,6,0,0,0-1.34-1.12c-.5-.31-1-.59-1-.84s.56-.31,1.12-.11,1.71.84,2.38.48a4.89,4.89,0,0,0,2-2.77,13,13,0,0,0,.56-4.14c0-1.23-.45-2.21-1.23-2.52s-1.88.11-2.72.45a3.08,3.08,0,0,0-.45.2c-.06.11-.08.2-.14.31-.5,1.2-1.06,2.83-1.6,4.06s-1.23,2.55-1.79,3.64c-.39.78-1.26,2.35-1.54,2.88s-.73,1.15-1.12,1.06a.8.8,0,0,1-.7-.87,4.68,4.68,0,0,1,1.15-1.79,19.47,19.47,0,0,0,1.6-2.38C415.26,348.06,415.82,346.78,416.43,345.54Zm16.44-.2c.14,1-.08,1.57-.64,1.74a6.87,6.87,0,0,1-1.85,0c-.53-.06-1.46-.2-1.79-.25s-.53-.25-.5-.45a.4.4,0,0,1,.42-.36,4.75,4.75,0,0,0,.84-.11,1.55,1.55,0,0,0,.9-.34c.2-.22.22-.59.25-1.26a4,4,0,0,0-.31-1.93,3.55,3.55,0,0,0-1-1.18c-.2-.17-.48-.5-.25-.76s.48,0,.81.22a7.07,7.07,0,0,1,1.62,1.48A6.27,6.27,0,0,1,432.87,345.35Zm-2.58-6.58a9.9,9.9,0,0,0-1.65-1.32c-.22-.17-.34-.36-.22-.53a.6.6,0,0,1,.48-.14,5.87,5.87,0,0,1,1.51.36,3.38,3.38,0,0,1,1.71,1.15.68.68,0,0,1-.42,1A1.67,1.67,0,0,1,430.29,338.77Zm2.21-1.18a4.16,4.16,0,0,0-1.74-1.15c-.22-.11-.36-.36-.25-.53s.34-.14.48-.14a5.83,5.83,0,0,1,1.54.25,3.64,3.64,0,0,1,1.71,1.06.65.65,0,0,1-.34,1A1.49,1.49,0,0,1,432.5,337.59Z" transform="translate(0)"/><path class="cls-6" d="M455,342.44v-3.64h-3.75l-.31-.62H455V334c1.65.08,2.46.31,2.46.7,0,.22-.36.45-1.06.67v2.8h1.85l1.09-1.57a21.8,21.8,0,0,1,1.51,1.71l-.25.48h-4.2v3.64H459l1.15-1.54a13.89,13.89,0,0,1,1.48,1.68l-.34.5h-4.65a18.49,18.49,0,0,0,5.21,6.19,3.92,3.92,0,0,0-1.23,1.32,17.38,17.38,0,0,1-4.17-6.47v8.57H455v-7.25a16.57,16.57,0,0,1-3.89,4.79,2.59,2.59,0,0,1,.76,1.57.74.74,0,0,1-.84.84c-.36,0-.56-.25-.59-.7a3.61,3.61,0,0,0-.14-.78,21.09,21.09,0,0,1-3.84,1v1c0,.5.14.78.45.84a36.11,36.11,0,0,0,5.63.2,49.07,49.07,0,0,0,6.33-.2c.64-.11,1-1.09,1.23-2.94l.62.22a6.11,6.11,0,0,0,.25,2.21.94.94,0,0,0,.78.39,1.35,1.35,0,0,1-1.2,1.37,69.49,69.49,0,0,1-7.39.2c-4.51,0-7-.14-7.5-.45s-.53-.76-.53-1.6v-8.06h-1.4v.34a17,17,0,0,1-1,6.13,9.32,9.32,0,0,1-3.78,4.34l-.42-.48a9.81,9.81,0,0,0,3.14-4.93,18.63,18.63,0,0,0,.64-5v-.39h-1v1h-1.37V336.25l.22.08c.62.28,1.06.5,1.4.7h1.62a24,24,0,0,0,.5-3.58c1.6.25,2.44.53,2.44.84s-.34.39-.92.56A13.53,13.53,0,0,1,444,337H448l.87-1.15q1.51,1.18,1.51,1.51c0,.11-.08.2-.2.28l-.67.42v8.23h-1.34v-1h-1.71v5.8a3.45,3.45,0,0,1,.62-.08,18.14,18.14,0,0,0,.9-3.89c1.32.31,2,.64,2,1,0,.14-.31.28-.92.34a14.72,14.72,0,0,1-1.2,2.49c.84-.08,1.6-.22,2.27-.31a5.77,5.77,0,0,0-.73-1.18l.39-.34c.31.22.62.45.9.67a23.41,23.41,0,0,0,3.89-6.47l.08-.22h-4.12l-.28-.64Zm-11-4.79H441.3v3.08H444Zm0,3.7H441.3v3.3H444Zm4.17-.62v-3.08h-2.77v3.08Zm0,3.92v-3.3h-2.77v3.3Z" transform="translate(0)"/><path class="cls-6" d="M468.46,340.81l-.28-.62h8c0-.36,0-.81,0-1.4v-4.65c1.82,0,2.74.22,2.74.62s-.39.5-1.12.76v3.28c0,.62,0,1,0,1.26h7.56l1-1.29c1.12.87,1.68,1.46,1.68,1.71,0,.08-.11.2-.28.34l-.59.39c0,6.61-.53,10.81-1.6,12.66a3.3,3.3,0,0,1-3.08,1.62c0-.53-.42-.9-1.18-1.15a29.26,29.26,0,0,0-3.44-.76v-.73a30.4,30.4,0,0,0,4.76.45,1.78,1.78,0,0,0,1.82-1c.76-1.79,1.15-5.66,1.12-11.56h-7.81a20.4,20.4,0,0,1-2.24,8.85,15.52,15.52,0,0,1-7.87,6.58l-.39-.59a15.55,15.55,0,0,0,7.73-8.68,22.14,22.14,0,0,0,1.15-6Z" transform="translate(0)"/><path class="cls-6" d="M516.11,343.83a10.76,10.76,0,0,1-.36,3.86,6.2,6.2,0,0,1-2.72,3.53,12.94,12.94,0,0,1-4.62,1.68,12,12,0,0,1-4.51,0c-.28,0-.42-.14-.39-.28s.17-.25.39-.22a13.54,13.54,0,0,0,1.48.08,13.93,13.93,0,0,0,3.36-.48,12.31,12.31,0,0,0,3.42-1.65,6.37,6.37,0,0,0,2.41-4,9.88,9.88,0,0,0-.36-4.62,5.85,5.85,0,0,0-2.46-3.47,7.92,7.92,0,0,0-4.87-1c-.22,0-.48.08-.73.11.06.56.06,1.46.08,2.16a18.54,18.54,0,0,1-.42,3.84,12.4,12.4,0,0,1-2,4.93c-1.06,1.4-2.35,2.35-3.67,2.35a3.09,3.09,0,0,1-2.86-2.13,6,6,0,0,1-.36-4.17,8.43,8.43,0,0,1,1.88-3.89,11.88,11.88,0,0,1,3.58-2.94,11.47,11.47,0,0,1,5.29-1.23,8.83,8.83,0,0,1,4.45,1.18,8.19,8.19,0,0,1,2.94,2.94A7.46,7.46,0,0,1,516.11,343.83Zm-10.81-6.24a11.24,11.24,0,0,0-3.53,1.62,9.37,9.37,0,0,0-3.33,4.12,6.67,6.67,0,0,0-.22,4.26c.39,1,1.34,1.15,2.46.78a5,5,0,0,0,2.83-2.3,10.78,10.78,0,0,0,1.62-4.51A20,20,0,0,0,505.31,337.59Z" transform="translate(0)"/><path class="cls-6" d="M523.84,355.43l-.36-.59c6-1.9,9.3-5.54,10-11H525l-.28-.62h8.85c0-.78,0-1.23,0-1.43v-4.87h-9.35l-.28-.64h17.58l1.48-1.79a17.45,17.45,0,0,1,2,1.9l-.31.53h-9.55v4.87c0,.34,0,.81-.06,1.43h5.77l1.43-1.76a19.38,19.38,0,0,1,1.88,1.85l-.28.53h-8.51a17.73,17.73,0,0,0,10.42,9.69,4.69,4.69,0,0,0-1.37,1.51,18.18,18.18,0,0,1-9.46-10.39C534,350.3,530.28,353.89,523.84,355.43Z" transform="translate(0)"/><path class="cls-6" d="M565.14,340c.08-.9.14-1.68.14-2.44v-3.78c1.57,0,2.35.22,2.35.59s-.31.45-1,.67v2.52c0,1-.06,1.76-.11,2.44h4.2l1.09-1.48c.53.53,1,1.06,1.51,1.63l-.28.48H567a15.4,15.4,0,0,0,6.69,7.48,5.37,5.37,0,0,0-1.23,1.43,15.51,15.51,0,0,1-6-8.34,10.85,10.85,0,0,1-2.35,5.43,13.1,13.1,0,0,1-4.48,3.14l-.34-.59a11.33,11.33,0,0,0,4.76-4.79,14.16,14.16,0,0,0,1.06-3.75h-3.67A20.12,20.12,0,0,1,552,350.7l-.36-.56a20.93,20.93,0,0,0,9.27-12.66h-3.92c-.28.56-.59,1.12-.87,1.68,2,.81,3.05,1.65,3.05,2.63a.66.66,0,0,1-.73.76c-.34,0-.59-.25-.76-.7a5.19,5.19,0,0,0-1.9-2.13,23.66,23.66,0,0,1-1.37,2c1.88,1,2.83,2,2.83,3.05,0,.56-.25.81-.73.81s-.59-.25-.76-.81a6.55,6.55,0,0,0-1.74-2.55,22.81,22.81,0,0,1-2.46,2.52l-.42-.48a23.92,23.92,0,0,0,5.49-10.61c1.54.42,2.32.81,2.32,1.09s-.39.39-1.12.5a15.69,15.69,0,0,1-.56,1.57h3.56l.92-1.12c1,.87,1.48,1.46,1.48,1.71s-.11.22-.25.31l-.64.31c-.22.73-.42,1.37-.64,1.93ZM556,350.25a8.78,8.78,0,0,1-1.79,4.93,2.2,2.2,0,0,1-1.62,1,.81.81,0,0,1-.9-.92c0-.28.28-.59.81-.92a7.39,7.39,0,0,0,2.91-4.26ZM559,350a7,7,0,0,1,1.88,4.26c0,1-.36,1.46-1,1.46-.48,0-.7-.28-.7-.87v-.17a6.75,6.75,0,0,0,0-.81,10.77,10.77,0,0,0-.67-3.61Zm4.56-.11c2.13,1.65,3.22,3.19,3.22,4.62q0,1.18-1,1.18c-.48,0-.73-.34-.81-1a9.3,9.3,0,0,0-1.85-4.4Zm4.65-15.26c1.9,1,2.88,1.93,2.88,2.94,0,.64-.31,1-.9,1-.42,0-.62-.28-.73-.81a4.88,4.88,0,0,0-1.62-2.66Zm.34,15.18a12.32,12.32,0,0,1,3.84,2.83,2.74,2.74,0,0,1,.9,1.88c0,.7-.34,1.06-.92,1.06s-.76-.34-1-1a10.53,10.53,0,0,0-3.19-4.31Z" transform="translate(0)"/><path class="cls-6" d="M579.25,339.36c2.18.73,3.22,1.71,3.22,2.83,0,.64-.25,1-.81,1s-.7-.31-.84-.9a4.25,4.25,0,0,0-1.88-2.44Zm7-1.06-3.53,11.09a7.21,7.21,0,0,0-.36,1.88,4.72,4.72,0,0,0,.11.78,17.6,17.6,0,0,1,.31,2.49c0,1-.34,1.51-1.06,1.51a.78.78,0,0,1-.87-.9c0-.06.06-.53.14-1.48a12.39,12.39,0,0,0,.11-1.51,2.5,2.5,0,0,0-.73-2.07,2.72,2.72,0,0,0-1.2-.45V349a3.42,3.42,0,0,0,.9.11,1.55,1.55,0,0,0,1.48-.9,76.22,76.22,0,0,0,4.06-10.3ZM581,334c2.27.7,3.42,1.6,3.42,2.77,0,.62-.28,1-.87,1-.31,0-.59-.28-.76-.81a5.06,5.06,0,0,0-2.07-2.46Zm18.37,20.52h.87l1-1.71s.17.22.45.64.62,1,.73,1.21l-.28.5H584l-.31-.64h2.69v-9a17.6,17.6,0,0,1,1.76.9h9.49l1-1.15c1,.78,1.54,1.29,1.54,1.51s-.06.2-.2.28l-.64.39ZM596.45,335l.92-1.12c1,.78,1.54,1.29,1.54,1.54,0,.08-.08.2-.25.31l-.59.34v8.43h-1.46v-1.15H589v1.37h-1.46v-10.5a6.76,6.76,0,0,1,1.57.78Zm-8.65,12v7.5h2.38V347Zm1.2-11.31v3.14h7.62v-3.14Zm7.62,7.08v-3.33H589v3.33ZM594,347h-2.41v7.5H594Zm1.4,0v7.5h2.55V347Z" transform="translate(0)"/><path class="cls-6" d="M614.42,346.69l.84-1.09c1,.87,1.54,1.46,1.54,1.74,0,.08-.06.17-.22.25l-.59.25a16.06,16.06,0,0,1-8.57,7.06l-.39-.56a15.49,15.49,0,0,0,7.45-7H608.4l-.25-.64Zm3.36-2.69h-5.32v1.2H611V335.8a12.39,12.39,0,0,1,1.65.78h3.58a12,12,0,0,0,1-3.28c1.68.34,2.55.67,2.55,1s-.39.39-1.12.5a12.77,12.77,0,0,1-1.54,1.79h6.94l1-1.15c1,.78,1.54,1.29,1.54,1.51a.58.58,0,0,1-.25.39l-.62.45v7.28h-1.43V344h-5a14.14,14.14,0,0,0,3.39,5.07,22.61,22.61,0,0,0,3.67-4.4c1.23.84,1.85,1.43,1.85,1.74s-.2.28-.59.28a3.56,3.56,0,0,1-.59-.08,29,29,0,0,1-3.81,2.94,21.7,21.7,0,0,0,6.41,3.47,4.3,4.3,0,0,0-1.2,1.6q-7.14-3.4-9.18-9.18v8.48a2,2,0,0,1-.62,1.65,3.31,3.31,0,0,1-2.07.5,1.11,1.11,0,0,0-.76-1,11.38,11.38,0,0,0-2.38-.59v-.67A25.51,25.51,0,0,0,617,354a.67.67,0,0,0,.76-.76Zm6.52-4.17v-2.6H612.46v2.6Zm0,3.53v-2.88H612.46v2.88Z" transform="translate(0)"/></g></g></svg>