<svg xmlns="http://www.w3.org/2000/svg" xmlns:xlink="http://www.w3.org/1999/xlink" viewBox="0 0 763.19 600.28"><defs><style>.cls-1{fill:none;}.cls-2{clip-path:url(#clip-path);}.cls-3{opacity:0.31;}.cls-4{fill:#d48050;}.cls-5{fill:#527c68;}.cls-6{fill:#333;}</style><clipPath id="clip-path" transform="translate(0 -0.13)"><rect class="cls-1" x="252.09" width="281" height="601"/></clipPath></defs><title>Asset 3</title><g id="Layer_2" data-name="Layer 2"><g id="back"><g class="cls-2"><image class="cls-3" width="632" height="421" transform="translate(0) scale(1.21 1.43)" xlink:href="../../../190325 2/190325/design_underA/Links/BGT046_5.JPG"/></g></g><g id="text"><path class="cls-4" d="M445,53l-.47-.76c7.7-2.45,12-7.13,12.81-14.11H446.42l-.36-.79h11.37c0-1,0-1.58,0-1.83V29.2h-12l-.36-.83h22.6l1.91-2.3a22.55,22.55,0,0,1,2.56,2.45l-.4.68H459.49v6.26c0,.43,0,1-.07,1.83h7.42L468.67,35a24.89,24.89,0,0,1,2.41,2.38l-.36.68H459.78a22.8,22.8,0,0,0,13.39,12.46,6,6,0,0,0-1.76,1.94,23.38,23.38,0,0,1-12.17-13.35C458.05,46.37,453.26,51,445,53Z" transform="translate(0 -0.13)"/><path class="cls-4" d="M462.08,74.49c.11-1.15.18-2.16.18-3.13V66.5c2,0,3,.29,3,.76,0,.29-.4.58-1.22.86v3.24c0,1.26-.07,2.27-.14,3.13h5.4l1.4-1.91c.68.68,1.33,1.37,1.94,2.09l-.36.61h-7.88a19.8,19.8,0,0,0,8.6,9.61,6.86,6.86,0,0,0-1.58,1.84A19.94,19.94,0,0,1,463.7,76a14,14,0,0,1-3,7,16.86,16.86,0,0,1-5.76,4l-.43-.76a14.56,14.56,0,0,0,6.12-6.16A18.16,18.16,0,0,0,462,75.28h-4.72a25.87,25.87,0,0,1-12.13,13l-.47-.72a26.9,26.9,0,0,0,11.91-16.27h-5c-.36.72-.76,1.44-1.12,2.16,2.63,1,3.92,2.12,3.92,3.38a.85.85,0,0,1-.94,1c-.43,0-.76-.32-1-.9A6.69,6.69,0,0,0,450,74.16a30.64,30.64,0,0,1-1.76,2.59c2.41,1.33,3.64,2.63,3.64,3.92,0,.72-.32,1-.94,1-.43,0-.76-.32-1-1a8.44,8.44,0,0,0-2.23-3.28,29.52,29.52,0,0,1-3.17,3.24L444,80a30.74,30.74,0,0,0,7.06-13.64c2,.54,3,1,3,1.4s-.5.5-1.44.65a20.15,20.15,0,0,1-.72,2h4.57L457.66,69c1.26,1.12,1.91,1.87,1.91,2.2,0,.14-.14.29-.32.4l-.83.4c-.29.94-.54,1.76-.83,2.48ZM450.28,87.7A11.29,11.29,0,0,1,448,94a2.83,2.83,0,0,1-2.09,1.26,1,1,0,0,1-1.15-1.19c0-.36.36-.76,1-1.19a9.5,9.5,0,0,0,3.74-5.47Zm3.92-.36c1.62,2,2.41,3.82,2.41,5.47,0,1.26-.47,1.87-1.33,1.87-.61,0-.9-.36-.9-1.12v-.22a8.45,8.45,0,0,0,0-1,13.86,13.86,0,0,0-.86-4.64Zm5.87-.14c2.74,2.12,4.14,4.1,4.14,5.94q0,1.51-1.3,1.51c-.61,0-.94-.43-1-1.3a12,12,0,0,0-2.38-5.65Zm6-19.62c2.45,1.22,3.71,2.48,3.71,3.78,0,.83-.4,1.22-1.15,1.22-.54,0-.79-.36-.94-1a6.26,6.26,0,0,0-2.09-3.42Zm.43,19.51a15.84,15.84,0,0,1,4.93,3.63,3.52,3.52,0,0,1,1.15,2.41c0,.9-.43,1.37-1.19,1.37-.58,0-1-.43-1.26-1.3a13.54,13.54,0,0,0-4.1-5.54Z" transform="translate(0 -0.13)"/><path class="cls-4" d="M444.23,115.09c2.81.94,4.14,2.2,4.14,3.64,0,.83-.32,1.22-1,1.22s-.9-.4-1.08-1.15a5.46,5.46,0,0,0-2.41-3.13Zm9-1.37L448.69,128a9.29,9.29,0,0,0-.47,2.41,6.15,6.15,0,0,0,.14,1,22.5,22.5,0,0,1,.4,3.2c0,1.3-.43,1.94-1.37,1.94a1,1,0,0,1-1.12-1.15c0-.07.07-.68.18-1.91a15.81,15.81,0,0,0,.14-1.94,3.21,3.21,0,0,0-.94-2.66,3.48,3.48,0,0,0-1.55-.58v-.86a4.41,4.41,0,0,0,1.15.14,2,2,0,0,0,1.91-1.15,98.11,98.11,0,0,0,5.22-13.25Zm-6.8-5.58c2.92.9,4.39,2.05,4.39,3.56,0,.79-.36,1.22-1.12,1.22-.4,0-.76-.36-1-1a6.51,6.51,0,0,0-2.66-3.17ZM470,134.53h1.12l1.3-2.2s.22.29.58.83c.47.72.79,1.26.94,1.55l-.36.65H450.31l-.4-.83h3.46V122.94a22.52,22.52,0,0,1,2.27,1.15h12.2l1.3-1.48c1.33,1,2,1.66,2,1.94s-.07.25-.25.36l-.83.5Zm-3.71-25,1.19-1.44c1.3,1,2,1.66,2,2,0,.11-.11.25-.32.4l-.76.43v10.83h-1.87v-1.48h-9.79V122h-1.87v-13.5a8.62,8.62,0,0,1,2,1Zm-11.12,15.37v9.65h3.06v-9.65Zm1.55-14.54v4h9.79v-4Zm9.79,9.11v-4.28h-9.79v4.28Zm-3.42,5.44H460v9.65h3.1Zm1.8,0v9.65h3.28v-9.65Z" transform="translate(0 -0.13)"/><path class="cls-4" d="M453.44,165.92l1.08-1.4c1.33,1.12,2,1.87,2,2.23,0,.11-.07.22-.29.32l-.76.32a20.64,20.64,0,0,1-11,9.07l-.5-.72a19.91,19.91,0,0,0,9.57-9H445.7l-.32-.83Zm4.32-3.46h-6.84V164h-1.84V151.92a15.79,15.79,0,0,1,2.12,1h4.61a15.48,15.48,0,0,0,1.26-4.21c2.16.43,3.28.86,3.28,1.26s-.5.5-1.44.65a16.45,16.45,0,0,1-2,2.3h8.93l1.26-1.48c1.33,1,2,1.66,2,1.94a.75.75,0,0,1-.32.5l-.79.58v9.36h-1.84v-1.37h-6.44a18.16,18.16,0,0,0,4.35,6.51,29.14,29.14,0,0,0,4.72-5.65c1.58,1.08,2.38,1.84,2.38,2.23s-.25.36-.76.36a4.59,4.59,0,0,1-.76-.11,37.32,37.32,0,0,1-4.9,3.78,27.85,27.85,0,0,0,8.24,4.46,5.54,5.54,0,0,0-1.55,2.05q-9.18-4.37-11.81-11.81v10.91a2.53,2.53,0,0,1-.79,2.12,4.25,4.25,0,0,1-2.66.65,1.43,1.43,0,0,0-1-1.33,14.73,14.73,0,0,0-3.06-.76V175a32.82,32.82,0,0,0,4.64.32.86.86,0,0,0,1-1Zm8.39-5.36v-3.35H450.92v3.35Zm0,4.54v-3.71H450.92v3.71Z" transform="translate(0 -0.13)"/><path class="cls-5" d="M449.7,210.28H473v8h-1.4v-6.55H449.7Z" transform="translate(0 -0.13)"/><path class="cls-5" d="M471.51,252.35c-.14.68-1.12.58-2.23.47s-2-1.12-3.28-2.2a14.78,14.78,0,0,1-3.13,4.57,13.21,13.21,0,0,1-5.76,3.35c-.79.22-1.15,0-1.22-.18s.43-.54.9-.68a13.42,13.42,0,0,0,4.75-3,11.8,11.8,0,0,0,2.84-4.57,2.63,2.63,0,0,0,.18-.58,21.75,21.75,0,0,0-4.43-2.3,10.5,10.5,0,0,0-5.18-.58.64.64,0,0,0-.9.65,17.7,17.7,0,0,1-3.13,5.26c-1.33,1.4-3.42,2.05-4.5,1-.86-.86-.32-3.13.4-4.21a8.37,8.37,0,0,1,4.25-3.06,16.14,16.14,0,0,1,2.16-.61c1-2,2-4.07,2.66-5.29s1.84-3.56,2-4.1-.18-.68-.68-.43a31.06,31.06,0,0,1-3.71,1.8,3,3,0,0,1-2.38-.18c-.54-.29-.86-1-.65-1.3.36-.61,1.3-.18,2.05-.14a9.19,9.19,0,0,0,2.88-.86,27.12,27.12,0,0,0,2.63-1.26,1.79,1.79,0,0,1,1.66,0c.5.22.83.43.94,1a3.16,3.16,0,0,1-.72,1.94c-.54.86-1.87,2.88-2.77,4.57-.61,1.22-1.44,2.63-2.23,4,.94-.07,1.84-.07,2.66-.07a13.4,13.4,0,0,1,5.26,1.08,19.75,19.75,0,0,1,2.16,1,9.46,9.46,0,0,0,.11-1.29,6.18,6.18,0,0,0-.4-2.3c-.18-.54-.54-1.15-.25-1.51s1.12-.18,1.69.11a2.25,2.25,0,0,1,1.15,2.09c0,.36,0,.72-.07,1.08.25.61.58,1.26.83,1.73a9.89,9.89,0,0,0,2.3,3C470.9,250.87,471.69,251.66,471.51,252.35Zm-19-5.15a10.53,10.53,0,0,0-2.92,1.33c-1.58,1.08-2.3,2.41-1.55,2.81.47.22,1.4-.32,2.27-1A12.1,12.1,0,0,0,452.47,247.2Zm15.37,2.23a7.88,7.88,0,0,1-.86-1.91,8.23,8.23,0,0,1-.25,1A13.45,13.45,0,0,1,467.84,249.43Z" transform="translate(0 -0.13)"/><path class="cls-5" d="M471,286.42a13.83,13.83,0,0,1-.47,5,8,8,0,0,1-3.49,4.54,16.65,16.65,0,0,1-5.94,2.16,15.48,15.48,0,0,1-5.8,0c-.36,0-.54-.18-.5-.36s.22-.32.5-.29a17.45,17.45,0,0,0,1.91.11,17.85,17.85,0,0,0,4.32-.61,15.82,15.82,0,0,0,4.39-2.12,8.2,8.2,0,0,0,3.1-5.11,12.72,12.72,0,0,0-.47-5.94,7.52,7.52,0,0,0-3.17-4.46,10.18,10.18,0,0,0-6.26-1.33c-.29,0-.61.11-.94.14.07.72.07,1.87.11,2.77a23.85,23.85,0,0,1-.54,4.93,15.94,15.94,0,0,1-2.52,6.33c-1.37,1.8-3,3-4.72,3s-2.88-1-3.67-2.74a7.76,7.76,0,0,1-.47-5.36,10.85,10.85,0,0,1,2.41-5,15.28,15.28,0,0,1,4.61-3.78,14.73,14.73,0,0,1,6.8-1.58,11.35,11.35,0,0,1,5.72,1.51,10.54,10.54,0,0,1,3.78,3.78A9.58,9.58,0,0,1,471,286.42Zm-13.89-8a14.46,14.46,0,0,0-4.54,2.09,12,12,0,0,0-4.28,5.29,8.58,8.58,0,0,0-.29,5.47c.5,1.22,1.73,1.48,3.17,1a6.4,6.4,0,0,0,3.64-3,13.85,13.85,0,0,0,2.09-5.79A25.8,25.8,0,0,0,457.15,278.39Z" transform="translate(0 -0.13)"/><path class="cls-5" d="M463.59,333.5a13.28,13.28,0,0,0,.58-6,5.42,5.42,0,0,0-1.8-3.82,4.85,4.85,0,0,0-3.92-1.08,5.59,5.59,0,0,0-3.13,1.51,5,5,0,0,0-1.62,3.82,6.27,6.27,0,0,0,1.37,3.42c.47.72.76,2-.07,2.48s-1.76-.29-2.48-1.44a10,10,0,0,1-1.15-4.46,16,16,0,0,1,.43-4.57,17.22,17.22,0,0,0,.61-3.56,2.81,2.81,0,0,0-.83-2.34c-.43-.36-.65-.68-.58-1s.68-.4,1.12-.25a2.89,2.89,0,0,1,1.73,1.33,4.2,4.2,0,0,1,.22,3.82,9.7,9.7,0,0,0-1,3.82,4.37,4.37,0,0,1,1.19-1.76,7.83,7.83,0,0,1,4-1.91,6.24,6.24,0,0,1,4.86,1.15,7.44,7.44,0,0,1,2.74,4.17,11.67,11.67,0,0,1,.22,5.4,9.65,9.65,0,0,1-1.91,4.61,10.92,10.92,0,0,1-4.1,3.31,14.93,14.93,0,0,1-4.18,1.3,10.7,10.7,0,0,1-2.66.25c-.54,0-.79-.18-.79-.32s.18-.32.65-.36a20.47,20.47,0,0,0,2.2-.32,11.43,11.43,0,0,0,5.25-2.56A10,10,0,0,0,463.59,333.5Z" transform="translate(0 -0.13)"/><path class="cls-5" d="M468.56,368.17l1.3-1.58c1.3,1.12,2,1.84,2,2.12a.51.51,0,0,1-.29.43l-.83.47c-.18,6.73-1,10.94-2.52,12.63a4.79,4.79,0,0,1-3.82,1.55c0-.65-.5-1.12-1.58-1.48a42.75,42.75,0,0,0-4.72-1v-.86a43.44,43.44,0,0,0,6.44.61,2.86,2.86,0,0,0,3.09-2.12,40.1,40.1,0,0,0,1.22-10h-5.22l-.68,2.2-1.8-.4a66.86,66.86,0,0,0,2.63-10.58h-7.09v1.12c0,5.51-.79,10.08-2.41,13.71a20,20,0,0,1-9.14,9.47l-.47-.68a20.58,20.58,0,0,0,8.5-11.3,37.54,37.54,0,0,0,1.51-11.16v-1.15h-8l-.29-.83h17.1l1.26-1.55c1.37,1.12,2.05,1.87,2.05,2.2,0,.14-.14.29-.4.4l-.9.47a57.08,57.08,0,0,1-1.62,7.31Z" transform="translate(0 -0.13)"/><path class="cls-5" d="M444.7,404.86c3,.94,4.54,2.16,4.54,3.64,0,.83-.36,1.22-1.12,1.22q-.76,0-1.08-1.08a6.18,6.18,0,0,0-2.66-3.17Zm10.08-1.3-5.15,14.22a6.19,6.19,0,0,0-.54,2.27,5.32,5.32,0,0,0,.22,1.3,12.51,12.51,0,0,1,.36,2.84c0,1.4-.5,2.16-1.51,2.16-.76,0-1.12-.36-1.12-1.08,0,0,0-.5.14-1.37a18.35,18.35,0,0,0,.22-2.56,3.25,3.25,0,0,0-.79-2.52,3.84,3.84,0,0,0-1.94-.72v-.86a6,6,0,0,0,1.3.14,2.22,2.22,0,0,0,2.09-1.15,98.83,98.83,0,0,0,6-13.32Zm-7.7-5.69c3.17.79,4.75,1.91,4.75,3.38,0,.9-.4,1.3-1.19,1.3-.43,0-.79-.36-1-1a5.88,5.88,0,0,0-2.92-3Zm22.1,16.23,1.22-1.4c1.26,1,1.87,1.58,1.87,1.91a.34.34,0,0,1-.22.29l-.83.54c-.14,4.71-.65,7.81-1.62,9.21a3.43,3.43,0,0,1-3.1,1.51,1.36,1.36,0,0,0-1-1.3,15.7,15.7,0,0,0-3-.72v-.86a22.57,22.57,0,0,0,3.74.32,2.12,2.12,0,0,0,2.3-1.58,26.08,26.08,0,0,0,.79-7.13H467.3q-3,7.72-11.84,11.19l-.54-.72a19.62,19.62,0,0,0,10.29-10.47h-2.74s-.07.11-.11.22-.07.18-.11.22c-1.91,3.56-5.15,6.26-9.65,8l-.43-.68a18.27,18.27,0,0,0,8.24-7.77h-2.66a18.19,18.19,0,0,1-6.12,4.46l-.47-.65a18.63,18.63,0,0,0,7.06-7.49H453l-.29-.83h17l1.62-1.91a15.73,15.73,0,0,1,2.09,2.12l-.36.61H460.21a15.56,15.56,0,0,1-1.76,2.88ZM458.27,399H467l1.22-1.51c1.3,1,1.94,1.69,1.94,2,0,.11-.07.18-.22.29l-.83.5v8.5h-1.84v-1.37H458V409h-1.84V398c.54.18,1.08.54,1.76.83Zm-.29.79v2.81h9.29v-2.81Zm9.29,6.8v-3.17H458v3.17Z" transform="translate(0 -0.13)"/><path class="cls-5" d="M444.16,439.67h1.4v6.55h21.92v1.44H444.16Z" transform="translate(0 -0.13)"/><path class="cls-6" d="M399.42,73.17c3-4.29,7.36-6.43,13-6.43a16.43,16.43,0,0,1,9.6,2.91,13.26,13.26,0,0,1,3.42,3.52v1.09a17.1,17.1,0,0,0-26,0Z" transform="translate(0 -0.13)"/><path class="cls-6" d="M408.57,98.64l.93-1.12q1.54,1.2,1.54,1.54c0,.06-.06.16-.19.26l-.58.42v4h-1.44V103h-1.92v2.69h1.73l1.09-1.5a13.29,13.29,0,0,1,1.5,1.7l-.32.51h-4v3c1.63-.26,3.17-.51,4.74-.83l.13.77c-3.65.93-7.26,1.7-10.82,2.24-.19.61-.42.93-.58.93-.32,0-.7-.8-1.12-2.3.93-.1,1.54-.13,1.79-.16l.38,0v-5.15c1.63.13,2.5.38,2.5.74s-.32.42-1,.64v3.65c1.38-.19,2.21-.26,2.43-.29V103H403v.86h-1.54v-6s.1,0,.19.1c.29.1.51.19.77.29s.42.19.77.32Zm4.58-8.16h9.15L423.42,89c1.31,1.34,2,2.18,2,2.46,0,.13-.1.22-.26.26l-1,.22a11.09,11.09,0,0,1-1.76,1.7l-.51-.32a18.39,18.39,0,0,0,.58-2.14h-9.34V97.1h-1.6V91.22h-8.9a6.75,6.75,0,0,1-.51,2.56c-.45.93-1,1.38-1.66,1.38a.84.84,0,0,1-.93-1,1.27,1.27,0,0,1,.61-.93,5.59,5.59,0,0,0,1.73-3.9l.61.06a6,6,0,0,0,.06.64,1.46,1.46,0,0,0,.06.42h8.93v-2h-8.32l-.35-.7h15.65L420,86c.77.74,1.44,1.38,2,2l-.35.54h-8.48ZM403,99.38v2.91h5.86V99.38Zm4.74-3.74,1.06-1c.35.29.86.7,1.44,1.25l-.38.48h-6.46l-.35-.7Zm0-2.46,1.09-1.09c.48.38.9.86,1.38,1.31l-.32.51h-6.24l-.32-.74Zm7,13.09.38.1h5.63l.8-.74c1.06.61,1.57,1,1.57,1.22s-.06.19-.22.29l-.42.32v4.8H421v-1.12H415v1.12h-1.6v-5.66a16.57,16.57,0,0,1-2.24.86l-.45-.61a23,23,0,0,0,6.5-4,13.46,13.46,0,0,1-2.24-2.24,17.79,17.79,0,0,1-3.3,3l-.58-.51a15.86,15.86,0,0,0,4.35-6.46c1.6.26,2.37.54,2.37.86,0,.16-.35.35-1.06.48-.1.16-.26.48-.51.93h4.1l.93-1c1.12.86,1.7,1.44,1.7,1.7,0,.1-.06.19-.29.29l-.74.29a18,18,0,0,1-2.69,2.72,20.48,20.48,0,0,0,6.37,1.79,5.85,5.85,0,0,0-1,1.5,19.88,19.88,0,0,1-6.24-2.5,19.15,19.15,0,0,1-4.06,2.43A4,4,0,0,1,414.78,106.26ZM419,95.63l1-1.06c.32.26.83.7,1.44,1.28l-.32.48h-6.43l-.35-.7Zm-.29-2.46,1-1.09a8.72,8.72,0,0,1,1.44,1.34l-.29.48h-6.11l-.38-.74ZM415,107.09v3.3H421v-3.3Zm5.34-7.46h-4.61a1.8,1.8,0,0,0-.32.42,7.3,7.3,0,0,1,.74.7,11.65,11.65,0,0,0,1.86,1.47A14.91,14.91,0,0,0,420.38,99.63Z" transform="translate(0 -0.13)"/><path class="cls-6" d="M400.35,148.27l-.42-.67c6.85-2.18,10.62-6.33,11.39-12.54h-9.7l-.32-.7h10.11c0-.9,0-1.41,0-1.63v-5.57H400.76l-.32-.74h20.09l1.7-2a20,20,0,0,1,2.27,2.18l-.35.61H413.24v5.57c0,.38,0,.93-.06,1.63h6.59l1.63-2a22.1,22.1,0,0,1,2.14,2.11l-.32.61H413.5a20.26,20.26,0,0,0,11.9,11.07,5.37,5.37,0,0,0-1.57,1.73A20.78,20.78,0,0,1,413,136C412,142.42,407.71,146.51,400.35,148.27Z" transform="translate(0 -0.13)"/><path class="cls-6" d="M413.95,171.41a2.07,2.07,0,0,1,.58,1.41,1.85,1.85,0,0,1-.29,1.09,2.06,2.06,0,0,1-1.79,1,2,2,0,0,1-1.31-.48,2.07,2.07,0,0,1-.77-1.6,2,2,0,0,1,.9-1.7,2,2,0,0,1,1.18-.38A2,2,0,0,1,413.95,171.41Z" transform="translate(0 -0.13)"/><path class="cls-6" d="M413.08,203.22a23.14,23.14,0,0,1-.48,3.33,27.21,27.21,0,0,1,5.34,4c1.25,1.25,1.86,2.24,1.86,3s-.29,1-.9,1c-.35,0-.67-.35-1.09-1.06a22.62,22.62,0,0,0-5.41-6.11,14.31,14.31,0,0,1-7.62,8.8l-.51-.64a14.6,14.6,0,0,0,7.14-12.29h-8.13v19.46h-1.7V201.62c.61.22,1.12.48,1.6.7l.35.19h7.87V197c1.92,0,2.88.26,2.88.7,0,.22-.42.51-1.18.83v4h8.29l1.09-1.44c1.25,1,1.89,1.66,1.89,2,0,.13-.1.19-.26.32l-.77.45v16c0,1.5-1,2.37-3,2.5a1.47,1.47,0,0,0-1.15-1.25c-.48-.16-1.7-.32-3.46-.61v-.8a42.33,42.33,0,0,0,4.8.26,1,1,0,0,0,1.12-1.09V203.22Z" transform="translate(0 -0.13)"/><path class="cls-6" d="M400.09,240.27c2.69.83,4,1.92,4,3.23,0,.74-.32,1.09-1,1.09q-.67,0-1-1a5.5,5.5,0,0,0-2.37-2.82Zm9-1.15-4.58,12.64a5.5,5.5,0,0,0-.48,2,4.74,4.74,0,0,0,.19,1.15,11.12,11.12,0,0,1,.32,2.53c0,1.25-.45,1.92-1.34,1.92-.67,0-1-.32-1-1,0,0,0-.45.13-1.22a16.25,16.25,0,0,0,.19-2.27,2.89,2.89,0,0,0-.7-2.24,3.41,3.41,0,0,0-1.73-.64v-.77a5.29,5.29,0,0,0,1.15.13,2,2,0,0,0,1.86-1,87.86,87.86,0,0,0,5.31-11.84Zm-6.85-5.06c2.82.7,4.22,1.7,4.22,3,0,.8-.35,1.15-1.06,1.15-.38,0-.7-.32-.9-.9a5.23,5.23,0,0,0-2.59-2.69Zm19.65,14.43,1.09-1.25c1.12.86,1.66,1.41,1.66,1.7a.3.3,0,0,1-.19.26l-.74.48c-.13,4.19-.58,6.94-1.44,8.19a3,3,0,0,1-2.75,1.34,1.21,1.21,0,0,0-.86-1.15,13.88,13.88,0,0,0-2.62-.64v-.77a20,20,0,0,0,3.33.29,1.89,1.89,0,0,0,2-1.41,23.2,23.2,0,0,0,.7-6.33h-1.89q-2.64,6.86-10.53,10l-.48-.64a17.44,17.44,0,0,0,9.15-9.31H415.9s-.06.1-.1.19-.06.16-.1.19a15.82,15.82,0,0,1-8.58,7.14l-.38-.61a16.23,16.23,0,0,0,7.33-6.91h-2.37a16.19,16.19,0,0,1-5.44,4l-.42-.58a16.57,16.57,0,0,0,6.27-6.66h-4.67l-.26-.74h15.07l1.44-1.7a14,14,0,0,1,1.86,1.89l-.32.54H413.88a13.82,13.82,0,0,1-1.57,2.56Zm-9.7-13.44h7.74l1.09-1.34c1.15.9,1.73,1.5,1.73,1.79,0,.1-.06.16-.19.26l-.74.45v7.55h-1.63v-1.22H411.9v1.38h-1.63v-9.76c.48.16,1,.48,1.57.74Zm-.26.7v2.5h8.26v-2.5Zm8.26,6V239H411.9v2.82Z" transform="translate(0 -0.13)"/><path class="cls-6" d="M413.95,281.81a2.07,2.07,0,0,1,.58,1.41,1.85,1.85,0,0,1-.29,1.09,2.06,2.06,0,0,1-1.79,1,2,2,0,0,1-1.31-.48,2.07,2.07,0,0,1-.77-1.6,2,2,0,0,1,.9-1.7,2,2,0,0,1,1.18-.38A2,2,0,0,1,413.95,281.81Z" transform="translate(0 -0.13)"/><path class="cls-6" d="M423.77,316.05c.48.61.54,1.06.29,1.25s-.51.1-.83,0a12.77,12.77,0,0,0-2.75-.32c-1.06-.06-2.21-.06-3.55-.1,0,.51,0,1,0,1.47a14.63,14.63,0,0,1-.58,4.45,12.57,12.57,0,0,1-1.82,4,11.41,11.41,0,0,1-3.33,3.14,12.87,12.87,0,0,1-3.14,1.54c-.42.13-.54-.38-.16-.54a17.59,17.59,0,0,0,1.79-.9,8.61,8.61,0,0,0,3.74-3.81,17.05,17.05,0,0,0,1.63-6.43c.06-1,.13-2,.19-2.91a44,44,0,0,0-4.42.19.7.7,0,0,0-.26,0V318c0,.8.06,2.11.06,2.59,0,1,.35,2.53-.86,2.53s-1-1.73-.93-2.5,0-2,.06-3.3c-.61.06-1.18.16-1.86.22a21.75,21.75,0,0,1-3.74.16,3,3,0,0,1-2.11-.8c-.35-.32-.67-.86-.32-1.22s1.44,0,2.21.26a11.55,11.55,0,0,0,3.2.19c1,0,1.82-.1,2.62-.13v-.51a15.65,15.65,0,0,0-.16-3.2,1.81,1.81,0,0,0-.9-1.22c-.42-.26-.58-.61-.38-.86s.8-.32,1.41-.06a2.24,2.24,0,0,1,1.34,1.18,8,8,0,0,1,.22,2.46c0,.58.06,1.38.1,2.18.1,0,.26,0,.38,0,1.12,0,2.88-.13,4.38-.19,0-.48.06-.93.1-1.38a16.23,16.23,0,0,0-.22-3.58,1.9,1.9,0,0,0-1-1.54c-.35-.26-.64-.61-.42-.83s.9-.16,1.28,0a4.12,4.12,0,0,1,1.86,1.66c.48.7.22,1.86.16,3.23,0,.64-.1,1.5-.13,2.37a14.94,14.94,0,0,0,2.62-.19,16.69,16.69,0,0,1,2.21-.29A2.34,2.34,0,0,1,423.77,316.05Z" transform="translate(0 -0.13)"/><path class="cls-6" d="M403.9,368.33c-.48,0-.83,0-.9-.26s.19-.38.74-.48a19.73,19.73,0,0,0,3.2-.74,14.86,14.86,0,0,0,5.41-3.1,16.39,16.39,0,0,0,3.52-4.61,14.65,14.65,0,0,0,1.41-4,10,10,0,0,0,.19-3.17.56.56,0,0,0-.7-.61c-1.31.13-3.46.26-4.45.26s-2.91.1-3.14.1-.22.16-.22.29c.1.74.19,1.34.32,2.24a4.4,4.4,0,0,1,.13,1.63c-.06.48-.29.8-.58.86a1,1,0,0,1-.86-.29c-.45-.32-.51-.9-.58-1.57-.06-1.18-.16-2.62-.26-3.26a1.93,1.93,0,0,0-.51-1.34c-.32-.26-.61-.58-.42-.86s.9-.22,1.38,0a2.87,2.87,0,0,1,1,.77,1.13,1.13,0,0,0,.58.35h1.44c.38,0,.74,0,1.06,0,0-.51.06-1.54.06-2.14,0-.86-.13-1.5-.58-1.82s-.74-.77-.58-1.06a.91.91,0,0,1,1-.19,3.53,3.53,0,0,1,1.57.77c.54.48.22,1.18.1,1.82a24.11,24.11,0,0,0-.16,2.56,5.7,5.7,0,0,0,.7-.06l2.53-.13a5.79,5.79,0,0,0,1.86-.54,1.23,1.23,0,0,1,1.12-.16,4.5,4.5,0,0,1,1.18.86.67.67,0,0,1,0,1.09,2.67,2.67,0,0,0-.74,1.66,13.12,13.12,0,0,1-.51,2.37,15.7,15.7,0,0,1-2.62,5.57,19.6,19.6,0,0,1-4.64,4.45,17,17,0,0,1-4.9,2.24,14.17,14.17,0,0,1-3.2.51Z" transform="translate(0 -0.13)"/><path class="cls-6" d="M403.19,389.68a6.9,6.9,0,0,0,1.7.48,9.23,9.23,0,0,0,2.78-.06c1.44-.16,2.37-.35,3.46-.48l.9-.1c0-.86,0-1.6,0-2.14a23.21,23.21,0,0,0-.22-2.72A2.39,2.39,0,0,0,411,383c-.48-.38-.77-1.12-.54-1.41s1.06-.19,1.73.06a3.3,3.3,0,0,1,1.5,1A1.47,1.47,0,0,1,414,384a4.57,4.57,0,0,0-.1.93,15,15,0,0,0,0,2.37c0,.48,0,1.18,0,2,.19,0,.38-.06.58-.06,1.25-.13,2.69-.22,3.58-.38a13.88,13.88,0,0,1,2.46-.29,3.71,3.71,0,0,1,2,.64,1.42,1.42,0,0,1,.61,1.09c-.1.29-.64.29-1.6.26s-2.34-.06-3.9-.13a30.66,30.66,0,0,0-3.74.13c0,1-.13,2-.22,2.91a17.45,17.45,0,0,1-.93,4.51,15.47,15.47,0,0,1-2.24,4.19A18.44,18.44,0,0,1,408,405c-.42.38-1,.74-1.15.48s.13-.51.54-.9a16.91,16.91,0,0,0,2.34-3.36,15.63,15.63,0,0,0,1.82-5.15,43.44,43.44,0,0,0,.48-4.9v-.48c-1.76.13-3,.32-3.78.42a36.56,36.56,0,0,1-3.71.54,2.51,2.51,0,0,1-2.34-.74c-.51-.61-.58-1.12-.26-1.38S402.84,389.55,403.19,389.68Z" transform="translate(0 -0.13)"/><path class="cls-6" d="M425.46,419.67q-4.56,6.43-13,6.43a16.36,16.36,0,0,1-9.6-2.91,13.79,13.79,0,0,1-3.42-3.52v-1.09c3.14,4,7.49,6,13,6s9.85-2,13.05-6Z" transform="translate(0 -0.13)"/><path class="cls-6" d="M349.66,74.32l.46-.56q.77.6.77.77s0,.08-.1.13l-.29.21v2h-.72v-.37h-1v1.34h.86l.54-.75A6.67,6.67,0,0,1,351,78l-.16.26h-2v1.52c.82-.13,1.58-.26,2.37-.42l.06.38c-1.82.46-3.63.85-5.41,1.12-.1.3-.21.46-.29.46s-.35-.4-.56-1.15l.9-.08.19,0V77.46c.82.06,1.25.19,1.25.37s-.16.21-.5.32V80c.69-.1,1.1-.13,1.22-.14V76.51h-1.2v.43h-.77V74l.1,0,.38.14.38.16Zm2.29-4.08h4.58l.56-.72c.66.67,1,1.09,1,1.23s0,.11-.13.13l-.5.11a5.53,5.53,0,0,1-.88.85l-.26-.16a9.28,9.28,0,0,0,.29-1.07h-4.67v2.94h-.8V70.6H346.7a3.37,3.37,0,0,1-.26,1.28c-.22.46-.51.69-.83.69a.42.42,0,0,1-.46-.48.63.63,0,0,1,.3-.46,2.8,2.8,0,0,0,.86-2l.3,0a3,3,0,0,0,0,.32.73.73,0,0,0,0,.21h4.47v-1H347l-.18-.35h7.83l.72-.93c.38.37.72.69,1,1l-.18.27h-4.24Zm-5.09,4.45v1.46h2.93V74.69Zm2.37-1.87.53-.51c.18.14.43.35.72.62l-.19.24h-3.23l-.18-.35Zm0-1.23.54-.54c.24.19.45.43.69.66l-.16.26h-3.12l-.16-.37Zm3.52,6.55.19,0h2.82l.4-.37c.53.3.78.5.78.61s0,.1-.11.14l-.21.16v2.4h-.78v-.56h-3v.56h-.8V78.29a8.21,8.21,0,0,1-1.12.43l-.22-.3a11.52,11.52,0,0,0,3.25-2,6.72,6.72,0,0,1-1.12-1.12,8.9,8.9,0,0,1-1.65,1.49l-.29-.26a7.94,7.94,0,0,0,2.18-3.23c.8.13,1.18.27,1.18.43s-.18.18-.53.24l-.26.46h2l.46-.5c.56.43.85.72.85.85s0,.1-.14.14l-.37.14A9,9,0,0,1,355,76.45a10.23,10.23,0,0,0,3.19.9,2.92,2.92,0,0,0-.5.75,9.93,9.93,0,0,1-3.12-1.25,9.59,9.59,0,0,1-2,1.22Zm2.13-5.31.51-.53c.16.13.42.35.72.64l-.16.24h-3.22l-.18-.35Zm-.14-1.23.51-.54a4.37,4.37,0,0,1,.72.67l-.14.24h-3.06l-.19-.37Zm-1.86,7v1.65h3V78.54Zm2.67-3.73h-2.3a.89.89,0,0,0-.16.21,3.68,3.68,0,0,1,.37.35,5.83,5.83,0,0,0,.93.74A7.45,7.45,0,0,0,355.57,74.81Z" transform="translate(0 -0.13)"/><path class="cls-6" d="M345.55,96.74l-.21-.34c3.43-1.09,5.31-3.17,5.7-6.27h-4.85l-.16-.35h5.06c0-.45,0-.7,0-.82V86.17h-5.35l-.16-.37h10.05l.85-1a10,10,0,0,1,1.14,1.09l-.18.3H352V89c0,.19,0,.46,0,.82h3.3l.82-1a11.15,11.15,0,0,1,1.07,1.06l-.16.3h-4.87a10.14,10.14,0,0,0,6,5.54,2.68,2.68,0,0,0-.78.86,10.39,10.39,0,0,1-5.41-5.94C351.36,93.81,349.23,95.86,345.55,96.74Z" transform="translate(0 -0.13)"/><path class="cls-6" d="M347.63,101.42v2.67q0,6.41-2.4,9l-.32-.24c1.25-1.87,1.86-4.8,1.86-8.82v-3.44l.19.08.29.13.5.22h7.36l.58-.69c.59.46.9.77.9.9s0,.13-.16.21l-.35.19V103a27.54,27.54,0,0,0,.64,7c.24.77.42,1.17.53,1.17s.32-.91.48-2.72l.38.19,0,.46c0,.88-.06,1.44-.06,1.68,0,.9.13,1.41.4,1.54-.11.4-.3.61-.62.61a1.07,1.07,0,0,1-.72-.42c-1.25-1.28-1.84-4.43-1.84-9.49v-1.57Zm3.31,3.89v-1.84c-.75.08-1.65.18-2.69.22l-.11-.34a19.37,19.37,0,0,0,5.23-1.15c.59.37.88.62.88.8s-.1.13-.26.13-.24,0-.45-.06c-.64.13-1.25.22-1.81.3v1.94h1.46l.51-.59c.54.42.83.7.83.85a.16.16,0,0,1-.11.14l-.32.19V109h-.8v-.66h-1.57v2.75a18,18,0,0,0,1.84-.16l.35,0a6.84,6.84,0,0,0-1.06-1.36l.22-.26c1.55,1,2.32,2,2.32,2.79,0,.35-.16.54-.48.54s-.37-.13-.43-.4a3.74,3.74,0,0,0-.37-.91c-1.34.29-3.27.56-5.75.85-.06.3-.16.46-.24.46s-.38-.43-.56-1.3c1.33,0,2.34-.11,3.06-.14l.29,0v-2.8h-1.49v.93h-.82v-4.43a6.71,6.71,0,0,1,1,.43Zm0,.37h-1.49V108h1.49Zm.8,0V108h1.57v-2.34Z" transform="translate(0 -0.13)"/><path class="cls-6" d="M354.54,117.18l.53-.67q.91.67.91.86a.17.17,0,0,1-.11.16l-.38.29V122h-.86v-.75H352c-.32.82-.69,1.62-1.09,2.4h4.59L356,123c.62.45.94.75.94.88s0,.13-.14.21l-.35.22v4.79h-.86v-.87H347.5v.87h-.86v-5.86a7.32,7.32,0,0,1,1,.43h2.72a15.8,15.8,0,0,0,.48-2.4h-2.38v.88h-.83v-5.43a5.34,5.34,0,0,1,1,.43Zm-7,6.87v3.84h8.13V124Zm1-6.52v3.41h6.13v-3.41Z" transform="translate(0 -0.13)"/><path class="cls-6" d="M348.91,138.06c-.08.18-.29.86-.46,1.31s-.43,1.38-.64,2.06a3.4,3.4,0,0,0,0,1.66c.1.35.06.8-.18.85s-.46,0-.7-.45a5.36,5.36,0,0,1-.38-1.87,11.69,11.69,0,0,1,.08-2,17.58,17.58,0,0,1,.37-1.92,9.45,9.45,0,0,0,.26-1.82,1.79,1.79,0,0,0-.29-1.15c-.14-.22-.21-.38-.1-.53s.4,0,.56.13a2.65,2.65,0,0,1,.56.86,2.13,2.13,0,0,1,0,1.38c-.13.43-.38,1.17-.61,2a9.38,9.38,0,0,0-.21,2.1c0,.27.19.22.22.08.11-.32.37-1.07.58-1.5s.34-.61.66-1.28c.08-.18.21-.32.32-.26S349,137.87,348.91,138.06Zm7.83,5.51c-.08.18-.42.19-.62,0a12.11,12.11,0,0,0-1.1-.9,3.38,3.38,0,0,0-.53-.35c0,.14,0,.26,0,.35a1.56,1.56,0,0,1-1.25,1.31,3.61,3.61,0,0,1-2.22-.22,1.24,1.24,0,0,1-.83-1.22,1.28,1.28,0,0,1,.93-1.09,4,4,0,0,1,1.87-.19,4.91,4.91,0,0,1,.8.13c0-.38,0-.79,0-1.12,0-.53,0-1.15,0-1.87,0-.32,0-.7,0-1a4.65,4.65,0,0,1-1.34-.11,2.27,2.27,0,0,1-1.1-.58c-.29-.27-.3-.59-.22-.62s.3.08.53.22a2.33,2.33,0,0,0,.75.3,5,5,0,0,0,1.41.13,1.53,1.53,0,0,0,0-.38,12.75,12.75,0,0,0-.1-1.62c-.06-.48-.11-.64-.3-.83s-.27-.38-.18-.54.26-.16.61,0a1.22,1.22,0,0,1,.8.85,3,3,0,0,1,0,1.31,3.31,3.31,0,0,0,.8.32,2.58,2.58,0,0,1,.85.24c.14.13.11.53-.27.8a3.39,3.39,0,0,1-1.57.45c0,.4,0,.8,0,1,0,.51,0,1.41.1,2.22,0,.34,0,.71,0,1,.19.06.4.13.59.21a3.3,3.3,0,0,1,1.41.86A.9.9,0,0,1,356.73,143.57Zm-3-1.63-.24-.1a4.17,4.17,0,0,0-1.76-.14c-.48.06-1,.32-1,.8s.22.74.9.88a2,2,0,0,0,1.49-.19,1.45,1.45,0,0,0,.66-1.23Zm.83-6.23a1.75,1.75,0,0,0,0,.3c0,.16,0,.34-.06.56l.61-.18c.16,0,.16-.14,0-.21S354.8,135.9,354.57,135.71Z" transform="translate(0 -0.13)"/><path class="cls-6" d="M355.21,148.25a5.57,5.57,0,0,1,2.26,1.31,1.38,1.38,0,0,1,.43,1c0,.5-.22.72-.69.72-.24,0-.43-.18-.56-.54a5.74,5.74,0,0,0-1.62-2.21Z" transform="translate(0 -0.13)"/><path class="cls-6" d="M347.85,167.36l0,.24a22.58,22.58,0,0,1-2.62,8l-.32-.21a22.81,22.81,0,0,0,2.14-7.81l0-.26h-1.86L345,167h2c.06-.61.14-1.5.19-2.74.94.11,1.39.27,1.39.48s-.18.22-.56.34c0,.35,0,.74-.1,1.17s-.06.74-.08.75h1.86l.66-.91a5.86,5.86,0,0,1,.82,1l-.14.29Zm2,7.09a8.88,8.88,0,0,0-.91-2l.27-.22A5.49,5.49,0,0,1,351,175.6c0,.42-.16.63-.48.63s-.35-.21-.4-.61a3.33,3.33,0,0,0-.14-.75,24.47,24.47,0,0,1-3.07,1.11c0,.32-.13.5-.24.5s-.37-.38-.61-1.15c.58-.1,1-.16,1.2-.21a52.83,52.83,0,0,0,1.1-5.84c.82.24,1.2.45,1.2.66s-.16.19-.48.24a44.93,44.93,0,0,1-1.38,4.85A18,18,0,0,0,349.85,174.45Zm1.81-5.52a19.53,19.53,0,0,1-1.41,1.86l-.29-.24a18.21,18.21,0,0,0,2.8-6.39c.85.21,1.26.42,1.26.61s-.21.19-.59.27a23.63,23.63,0,0,1-.94,2.38h1.89a18.32,18.32,0,0,0,1-3.14c.85.22,1.28.45,1.28.64s-.21.21-.59.27a15,15,0,0,1-1.22,2.22h1.68l.59-.9a10.26,10.26,0,0,1,.83,1l-.14.29h-2.66v2.3h1l.59-.85a8.14,8.14,0,0,1,.78.91l-.14.29h-2.24v2.43h1l.61-.83a8.9,8.9,0,0,1,.69.77l.13.14-.16.29h-2.26v2.61h1.55l.69-.94c.34.37.62.69.86,1l-.16.3h-5.62v.91h-.8Zm.8-1.14v2.3h1.87v-2.3Zm0,2.66v2.43h1.87v-2.43Zm0,2.8v2.61h1.87v-2.61Z" transform="translate(0 -0.13)"/><path class="cls-6" d="M345.53,192.94l-.22-.35a8.44,8.44,0,0,0,5.63-7.63h-5.33l-.13-.35H351c0-.45,0-.77,0-1v-3c1,0,1.5.18,1.5.38s-.21.27-.62.4v2.21c0,.21,0,.54,0,1h4.08l.77-1a11.23,11.23,0,0,1,1,1.12l-.14.27H352a10.47,10.47,0,0,0,6.05,6.79,3.45,3.45,0,0,0-.82.86,10.59,10.59,0,0,1-5.46-6.93A8.25,8.25,0,0,1,345.53,192.94Z" transform="translate(0 -0.13)"/><path class="cls-6" d="M346.54,205.26a1.2,1.2,0,0,1,.16-.91c.16-.29.3-.59.51-1s.64-1.65.86-2.26c.11-.26.21-.58.32-.9a.88.88,0,0,0-.21,0,2.44,2.44,0,0,1-.93-.37c-.24-.16-.38-.35-.3-.46s.34,0,.46.06a3.16,3.16,0,0,0,.7.21,2,2,0,0,0,.48,0c.06-.21.14-.37.19-.5a2.48,2.48,0,0,0,.3-.93,1.4,1.4,0,0,0-.19-.79c-.11-.19-.1-.3,0-.4s.45,0,.59.11a1.2,1.2,0,0,1,.43.59,1.11,1.11,0,0,1,0,.46l.27.1c.22.08.56.22.9.32a1.36,1.36,0,0,1,.66.32.37.37,0,0,1,0,.5,1.82,1.82,0,0,1-.9.43,7.88,7.88,0,0,1-1.65.29h0a.12.12,0,0,1,0,.08c-.08.21-.48,1.25-.67,1.73s-.61,1.55-.77,2a6.25,6.25,0,0,0-.22,1.58c0,.29-.27.34-.5.22A1,1,0,0,1,346.54,205.26Zm3-5.75a4.83,4.83,0,0,0,.82-.27c.24-.1.35-.22.34-.27s-.18-.14-.3-.22-.29-.14-.45-.24a4.32,4.32,0,0,1-.14.43A5.42,5.42,0,0,1,349.53,199.51Zm3.86,5.59a7.49,7.49,0,0,0-.14-.77c-.08-.45-.21-1.06-.29-1.47a1.58,1.58,0,0,1,.11-1.06c.11-.22.32-.4.42-.34s0,.22,0,.51a2.92,2.92,0,0,0,0,1.25c.1.48.27,1.2.42,1.74,0,.08,0,.16.08.24a4.43,4.43,0,0,1,1.23.48,1,1,0,0,1,.48.58c.08.29,0,.56-.14.61s-.38-.08-.75-.29l-.61-.35c0,.13,0,.24,0,.3a1.44,1.44,0,0,1-.69,1.33,3,3,0,0,1-2.32,0,1.45,1.45,0,0,1-.74-1.58c.1-.64.67-1.07,1.52-1.17A6.13,6.13,0,0,1,353.39,205.1Zm0,.75a3.08,3.08,0,0,0-1.46-.26c-.5,0-1,.32-1,.7a.82.82,0,0,0,.64.85,1.85,1.85,0,0,0,1.31,0c.43-.16.53-.61.56-1.17v0Zm3.31-5.15a.48.48,0,0,1-.22.61.67.67,0,0,1-.53,0,1.39,1.39,0,0,0-.51-.14,5.23,5.23,0,0,0-.74,0c-.3,0-.43-.06-.43-.13s.06-.11.19-.16a1.86,1.86,0,0,1,.66-.16c.26,0,.34-.13.21-.3a4,4,0,0,0-.74-.75,2.65,2.65,0,0,0-.74-.5c-.16-.06-.22-.18-.18-.24s.3-.1.56,0a4.38,4.38,0,0,1,.8.32,4.27,4.27,0,0,1,1.07.66A1.78,1.78,0,0,1,356.69,200.7Z" transform="translate(0 -0.13)"/><path class="cls-6" d="M348.19,219.25a11.11,11.11,0,0,1-3,1.6l-.21-.3a9.46,9.46,0,0,0,4.24-3.55H345.5l-.16-.35h5.79v-1h-4.48l-.14-.37h4.63v-.88h-5.28l-.16-.37h6.82a13.19,13.19,0,0,0,.88-1.92c.86.22,1.3.42,1.3.62s-.21.19-.64.22a10.47,10.47,0,0,1-1,1.07h2.82l.7-.85a11.51,11.51,0,0,1,1,.94l-.14.27h-5.47v.88h3.15l.62-.7a6.47,6.47,0,0,1,.91.83l-.19.24h-4.5v1h4.26l.67-.85a8,8,0,0,1,1,.94l-.13.26h-4a10.59,10.59,0,0,0,4.58,2.58,2.13,2.13,0,0,0-.67.75,9.9,9.9,0,0,1-2.45-1.33l-.16.13v2.82h-.78v-.24h-2.69a8.27,8.27,0,0,0,2.1,1.46,11.83,11.83,0,0,0,2.15-1.89c.66.38,1,.66,1,.82s-.1.14-.32.14a2,2,0,0,1-.34,0,12.87,12.87,0,0,1-2,1.15,13.75,13.75,0,0,0,3.87.8,2.54,2.54,0,0,0-.64.86,11.22,11.22,0,0,1-4.55-1.65A9.5,9.5,0,0,1,351,221.7h-2v2.11c1.25-.14,2.32-.32,3.2-.5l0,.38a45.24,45.24,0,0,1-5.27,1.12q-.07.48-.29.48c-.21,0-.42-.43-.62-1.25.29,0,1,0,2.13-.16Zm.37-7.15c1.26.3,1.9.74,1.9,1.3,0,.35-.14.53-.45.53s-.37-.14-.48-.42a2.37,2.37,0,0,0-1.1-1.12Zm2.58,6.53v-1.23c.85,0,1.28.13,1.28.32s-.16.22-.48.34v.58h2.32l.21-.22s-.06-.06-.11-.1a9.77,9.77,0,0,1-1.17-1.31h-2.95a7.32,7.32,0,0,1-1.3,1.57l.06,0,0,0ZM349,219v1h5.22v-1Zm0,1.31v1h5.22v-1Z" transform="translate(0 -0.13)"/><path class="cls-6" d="M356.06,233.31l.78-1a10.43,10.43,0,0,1,1,1.1l-.14.29h-5.15a23.18,23.18,0,0,1-2.14,2v1.68a18.08,18.08,0,0,0,4.51-2.35q.91.67.91,1t-.24.14a1.52,1.52,0,0,1-.45-.08,25,25,0,0,1-4.64,1.71h-.1v1.52c0,.3.1.48.27.53a11.65,11.65,0,0,0,2.16.11,16.77,16.77,0,0,0,2.21-.11.75.75,0,0,0,.62-.61,12.35,12.35,0,0,0,.26-1.87l.38.14a8.77,8.77,0,0,0,.14,1.86.49.49,0,0,0,.53.3.84.84,0,0,1-.72.91,18,18,0,0,1-3.11.18,10.31,10.31,0,0,1-3.22-.26,1,1,0,0,1-.37-.9v-3.23a23.25,23.25,0,0,1-4.23,2.45l-.21-.34a23.79,23.79,0,0,0,4.43-3v-.85a6,6,0,0,1,.64.3c.61-.58,1-1,1.18-1.15h-5.89l-.14-.35H350V231h-3.36l-.13-.35h3.57v-2.42c1,0,1.44.13,1.44.35s-.19.27-.59.43v1.63h1.66l.69-.88a5.89,5.89,0,0,1,.75.82c.34-.46.74-1.1,1.23-1.92.77.4,1.15.69,1.15.88s-.14.18-.42.18a1.77,1.77,0,0,1-.3,0,33.38,33.38,0,0,1-2.79,3.6Zm-4.31.08c.82-.91,1.47-1.71,2-2.38h-2.88v2.38Z" transform="translate(0 -0.13)"/><path class="cls-6" d="M347.26,255.15h3.84V244.73c1,0,1.46.14,1.46.34s-.19.27-.61.43v9.65h3.94v-7.89c1,.08,1.42.21,1.42.4s-.18.27-.58.4v8.76h-.85V255.5h-8.63v1.44h-.83v-9.59c.94,0,1.42.16,1.42.37s-.19.26-.59.4Z" transform="translate(0 -0.13)"/><path class="cls-6" d="M345.32,272.43a10.35,10.35,0,0,0,3.33-3.52c.78.4,1.17.71,1.17.9s-.14.19-.43.19l-.22,0a10.75,10.75,0,0,1-3.62,2.75Zm4.58-5.09a29.5,29.5,0,0,0,4.58-4.26c.74.42,1.1.72,1.1.88s-.11.18-.35.18l-.34,0c-1.23,1.06-2.67,2-4.19,3.12l-.14.1,1.23,0c1.63,0,2.85-.13,3.63-.18a9.09,9.09,0,0,0-1.62-1.33l.21-.27a8.57,8.57,0,0,1,2.9,1.9,1.77,1.77,0,0,1,.59,1.07.45.45,0,0,1-.5.51c-.19,0-.38-.18-.58-.51a5.68,5.68,0,0,0-.67-1l-.48,0c-1.14.1-2.22.24-3.27.32v5.27h-.85v-5.2l-1,.08c-1.09.1-2.29.16-3.63.22-.13.34-.24.51-.35.51s-.34-.45-.51-1.33h.62c1.44,0,2.54,0,3.3,0Zm1-5.12-1,.13c-1.06.13-2.35.26-3.87.38l-.18-.35a46.06,46.06,0,0,0,9.27-1.75c.72.4,1.07.67,1.07.85s-.1.13-.29.13a3.16,3.16,0,0,1-.51-.06c-1.33.24-2.72.45-4.13.62l.21.1c.46.24.72.42.72.56s-.21.16-.62.16a13.62,13.62,0,0,1-1.82,1.6c.59.43.88.82.88,1.2s-.14.51-.45.51-.35-.14-.53-.45a6,6,0,0,0-2.3-2.13l.16-.26a9.33,9.33,0,0,1,1.92.9A13.11,13.11,0,0,0,350.94,262.22Zm2.66,6.59a10,10,0,0,1,3.19,1.86,1.54,1.54,0,0,1,.62,1c0,.34-.16.51-.46.51s-.4-.14-.59-.45a9.06,9.06,0,0,0-2.95-2.64Z" transform="translate(0 -0.13)"/><path class="cls-6" d="M356.08,281.74a3.77,3.77,0,0,1-1.18.9c-.46.24-1.25.5-1.86.75l-.51.22c0,.18,0,.37.06.56a2.48,2.48,0,0,1-.19,1.39.87.87,0,0,1-.66.53c-.34,0-.46-.22-.37-.54a6.25,6.25,0,0,0,.24-1.47V284a6.67,6.67,0,0,0-.75.35,3.48,3.48,0,0,0-1.28,1,1.29,1.29,0,0,0-.18,1.42,2,2,0,0,0,1.57.7,10.72,10.72,0,0,0,1.5-.16,9.49,9.49,0,0,1,1.07-.21,1.25,1.25,0,0,1,1,.26c.26.19.26.46,0,.58a2.55,2.55,0,0,1-.86.18,16.51,16.51,0,0,1-2.3.14,4.68,4.68,0,0,1-2.15-.59,1.5,1.5,0,0,1-.69-1.44,2,2,0,0,1,.69-1.39,7,7,0,0,1,1.5-1.07c.27-.14.58-.3.88-.45a1.09,1.09,0,0,0-.21-.64,1.5,1.5,0,0,0-1-.58,1.8,1.8,0,0,0-1,.16,1.7,1.7,0,0,0-.29.16c-.21.27-.42.51-.61.79a1.65,1.65,0,0,1-1.17.83c-.35,0-.38-.22-.38-.51a.88.88,0,0,1,.34-.71,7.52,7.52,0,0,0,.82-.46,6.61,6.61,0,0,0,1.66-2,6.38,6.38,0,0,0,.5-1l-.38,0a2.24,2.24,0,0,1-1.33-.21.79.79,0,0,1-.3-.91c.19-.26.46-.08.82,0a2.37,2.37,0,0,0,1.26,0l.24,0a.73.73,0,0,0-.21-.77.46.46,0,0,1-.1-.58.55.55,0,0,1,.61,0,.56.56,0,0,1,.22.21c.22,0,.5.1.59.11a1.59,1.59,0,0,1,.59.19c.14.11.06.26-.06.51a2.67,2.67,0,0,1-.85.93,1.23,1.23,0,0,1-.29.14,4.67,4.67,0,0,1-.38.91,17.2,17.2,0,0,1-1,1.68,2.22,2.22,0,0,1-.16.24l.37-.14a1.81,1.81,0,0,1,1.09-.1,1.25,1.25,0,0,1,.85.48,1.63,1.63,0,0,1,.21-.26,4.33,4.33,0,0,1,1.71-1.44,2.32,2.32,0,0,1,2.19,0A.94.94,0,0,1,356.08,281.74ZM351.26,278l.21-.11c.24-.13.32-.29.27-.34s-.16-.11-.38-.14l-.18,0a1.11,1.11,0,0,1,.08.4A.52.52,0,0,1,351.26,278Zm4.15,2.79c-.1-.18-.43-.32-1-.19a2.88,2.88,0,0,0-1.34.77,3.62,3.62,0,0,0-.86,1.33c0,.1.1.21.13.29s.27-.13.42-.19a22.81,22.81,0,0,0,2.1-1C355.52,281.42,355.52,281,355.41,280.78Z" transform="translate(0 -0.13)"/><path class="cls-6" d="M352,300.51v1.63h2.93l.72-.85a9.32,9.32,0,0,1,1,1l-.19.24H352v1.78h4.16l.8-.91a13.17,13.17,0,0,1,1,1l-.16.27H345.27l-.14-.35h6V302.5h-4.4l-.14-.35h4.55v-1.63H346l-.14-.37h9.76l.72-.82a6.71,6.71,0,0,1,1,.93l-.16.26Zm-4-6.15V292.3q1.39,0,1.39.34t-.58.38v1.34h1.26l.67-.85a7.68,7.68,0,0,1,.88,1l-.14.26h-4.19v2.51c0,.27.08.42.21.46a2.91,2.91,0,0,0,.93.08c.67,0,1.25-.06,1.7-.1l.18,0c.34,0,.51.19.51.56,0,.13-.08.19-.27.24a12.23,12.23,0,0,1-1.86.06,5.25,5.25,0,0,1-1.92-.18q-.29-.19-.29-.82v-2.82h-1.22l-.14-.37Zm8.16-1.3.46-.58c.58.43.88.7.88.83s0,.11-.14.16l-.3.18c0,2.74-.22,4.37-.58,4.88a1.43,1.43,0,0,1-1.23.59.66.66,0,0,0-.48-.59,8.85,8.85,0,0,0-1.1-.22v-.37a11.67,11.67,0,0,0,1.47.1.76.76,0,0,0,.8-.46,4.48,4.48,0,0,0,.21-1.06h-3.14a.49.49,0,0,0,0,.14,4.94,4.94,0,0,1-2.22,2.9l-.26-.26c1.31-1.15,2-2.93,2-5.31v-1.36a7.72,7.72,0,0,1,.94.43Zm0,3.09c0-.5,0-.82,0-1l0-.22h-3a8.43,8.43,0,0,1-.19,1.22Zm-2.91-2.74V294c0,.19,0,.38,0,.54h3v-1.15Z" transform="translate(0 -0.13)"/><path class="cls-6" d="M356.89,312.9a2,2,0,0,1-.06,1.39.48.48,0,0,1-.61.27c-.18-.08-.46-.27-.67-.35a5,5,0,0,0-1.47-.21c0,.35,0,.77.06,1.15a8.66,8.66,0,0,0,.35,1.73c.14.38.45,1,.59,1.38a1.12,1.12,0,0,1-.38,1.07,4.49,4.49,0,0,1-1.54.74,7,7,0,0,1-2.61.21,3,3,0,0,1-1.57-.45,1.53,1.53,0,0,1-.5-1.2,9.31,9.31,0,0,1,.14-1.36,2.23,2.23,0,0,1-.86-.34,2.16,2.16,0,0,1-.91-1.57,2.82,2.82,0,0,1,.38-2,1.33,1.33,0,0,1,1.65-.29.21.21,0,0,1,.13,0c0-.37,0-.79,0-1.14a8.16,8.16,0,0,1-.93,0,1.67,1.67,0,0,1-1-.35c-.26-.24-.37-.64-.21-.74s.32.08.43.18a1.9,1.9,0,0,0,.66.3,3,3,0,0,0,.93,0l.14,0a5.41,5.41,0,0,0-.13-1,1.37,1.37,0,0,0-.46-.71.47.47,0,0,1-.16-.62c.1-.11.37-.08.58,0a1.48,1.48,0,0,1,.64.42,1.43,1.43,0,0,1,.38.69,3.55,3.55,0,0,0,1,.4c.26,0,.42.11.48.27a.54.54,0,0,1-.11.71,2.72,2.72,0,0,1-1.46.54l-.18,0v.27c0,.46,0,.85,0,1.39a.79.79,0,0,1,.22.48,4.08,4.08,0,0,1-.29,1.38,2.23,2.23,0,0,0-.21,1.06c.08.21,0,.43-.1.82a3.22,3.22,0,0,0-.08,1.6c.16.3.61.5,1.42.51a6.14,6.14,0,0,0,2.11-.21,3.48,3.48,0,0,0,1.09-.71,2.12,2.12,0,0,0,.24-1.12,13.06,13.06,0,0,0-.22-1.31,12.67,12.67,0,0,1-.19-1.89,5.44,5.44,0,0,1,.27-2c.16-.37.38-.83.8-.88a1.81,1.81,0,0,1,1.23.35A2.45,2.45,0,0,1,356.89,312.9Zm-8.26,3.2c.11,0,.18-.29.24-.69,0-.19.06-.53.1-.88a1.17,1.17,0,0,0-.34-.4,1.3,1.3,0,0,0-.9-.21c-.26,0-.38.56-.32,1.07a1.38,1.38,0,0,0,.72.9C348.33,316,348.52,316.17,348.64,316.1Zm1.1-5.06a4.16,4.16,0,0,0,.72-.42,2,2,0,0,1-.58-.3.82.82,0,0,1,0,.27C349.8,310.73,349.79,310.89,349.74,311Zm6.11,2a9.36,9.36,0,0,0-.54-1,.42.42,0,0,0-.69-.06,2.21,2.21,0,0,0-.53,1.18,3.52,3.52,0,0,0,0,.43c.11,0,.3-.06.5-.1a7.36,7.36,0,0,1,1.22-.11C355.93,313.37,356,313.19,355.85,313Z" transform="translate(0 -0.13)"/><path class="cls-6" d="M345.53,336.94l-.22-.35a8.44,8.44,0,0,0,5.63-7.63h-5.33l-.13-.35H351c0-.45,0-.77,0-1v-3c1,0,1.5.18,1.5.38s-.21.27-.62.4v2.21c0,.21,0,.54,0,1h4.08l.77-1a11.23,11.23,0,0,1,1,1.12l-.14.27H352a10.47,10.47,0,0,0,6.05,6.79,3.45,3.45,0,0,0-.82.86,10.59,10.59,0,0,1-5.46-6.93A8.25,8.25,0,0,1,345.53,336.94Z" transform="translate(0 -0.13)"/><path class="cls-6" d="M350.36,342.7a13.89,13.89,0,0,0,.67-2.59c.94.18,1.44.37,1.44.56s-.21.24-.59.3a8.61,8.61,0,0,1-1,1.73H355l.56-.67c.62.46.94.77.94.91a.18.18,0,0,1-.1.14l-.37.26v9.73h-.88v-1.31h-7.07v1.31h-.88V342.22c.34.14.7.29,1.06.48Zm-2.29.37v2.43h7.07v-2.43Zm7.07,5.28v-2.5h-7.07v2.5Zm0,3.06V348.7h-7.07v2.71Z" transform="translate(0 -0.13)"/><path class="cls-6" d="M353.15,359.9c0-.51.08-1,.08-1.39v-2.16c.9,0,1.34.13,1.34.34s-.18.26-.54.38v1.44c0,.56,0,1-.06,1.39h2.4l.62-.85c.3.3.59.61.86.93l-.16.27h-3.51a8.82,8.82,0,0,0,3.83,4.27,3,3,0,0,0-.7.82,8.87,8.87,0,0,1-3.44-4.77,6.21,6.21,0,0,1-1.34,3.1,7.49,7.49,0,0,1-2.56,1.79l-.19-.34a6.47,6.47,0,0,0,2.72-2.74,8.08,8.08,0,0,0,.61-2.15H351a11.5,11.5,0,0,1-5.39,5.78l-.21-.32a12,12,0,0,0,5.3-7.23h-2.24c-.16.32-.34.64-.5,1,1.17.46,1.74.94,1.74,1.5a.38.38,0,0,1-.42.43c-.19,0-.34-.14-.43-.4a3,3,0,0,0-1.09-1.22,13.9,13.9,0,0,1-.78,1.15c1.07.59,1.62,1.17,1.62,1.75,0,.32-.14.46-.42.46s-.34-.14-.43-.46a3.74,3.74,0,0,0-1-1.46,13.1,13.1,0,0,1-1.41,1.44l-.24-.27a13.67,13.67,0,0,0,3.14-6.07c.88.24,1.33.46,1.33.63s-.22.22-.64.29a8.89,8.89,0,0,1-.32.9h2l.53-.64c.56.5.85.83.85,1s-.06.13-.14.18l-.37.18c-.13.42-.24.78-.37,1.1Zm-5.25,5.88a5,5,0,0,1-1,2.82,1.26,1.26,0,0,1-.93.56.46.46,0,0,1-.51-.53c0-.16.16-.34.46-.53a4.22,4.22,0,0,0,1.67-2.43Zm1.74-.16a4,4,0,0,1,1.07,2.43c0,.56-.21.83-.59.83s-.4-.16-.4-.5v-.1a3.75,3.75,0,0,0,0-.46,6.15,6.15,0,0,0-.38-2.06Zm2.61-.06c1.22.95,1.84,1.83,1.84,2.64q0,.67-.58.67c-.27,0-.42-.19-.46-.58a5.32,5.32,0,0,0-1.06-2.51Zm2.66-8.72c1.09.54,1.65,1.1,1.65,1.68,0,.37-.18.54-.51.54s-.35-.16-.42-.46a2.78,2.78,0,0,0-.93-1.52Zm.19,8.67a7,7,0,0,1,2.19,1.62,1.57,1.57,0,0,1,.51,1.07c0,.4-.19.61-.53.61s-.43-.19-.56-.58a6,6,0,0,0-1.82-2.46Z" transform="translate(0 -0.13)"/><path class="cls-6" d="M357.45,381.06c0,.24-.16.58-.66.62a2.77,2.77,0,0,1-2-.75,15.78,15.78,0,0,1-2.21-2.27l-1.52-1.87c-.32-.37-.59-.64-.86-.66s-.51.22-.72.51-.77,1.14-1,1.52-.72,1-1.15,1.15a1.7,1.7,0,0,1-1.15-.14c-.32-.14-.5-.43-.42-.62s.27-.13.48-.1a1.74,1.74,0,0,0,.64-.11,4.39,4.39,0,0,0,.83-.59,10.51,10.51,0,0,0,.94-.94c.29-.3.4-.45.7-.78s.5-.51.8-.53.59.27.88.56.82.77,1.31,1.31,1.14,1.1,1.81,1.74a9,9,0,0,0,1.65,1.26,2.59,2.59,0,0,0,1.15.35C357.18,380.74,357.44,380.8,357.45,381.06Z" transform="translate(0 -0.13)"/><path class="cls-6" d="M317.79,68.89l.56-.64q.82.62.82.82s-.06.11-.18.19l-.29.21v4h-.82v-.78h-3.23v8.39h-.85V68.38c.29.13.64.3,1,.51Zm-3.14,1.68h3.23V69.24h-3.23Zm0,.37v1.44h3.23V70.94Zm6.63,3.86v2H322l.62-.82.16.14c.19.21.42.45.64.74l-.14.29h-2v3.28h-.8V77.15h-1.89a3.77,3.77,0,0,1-2.48,3.52l-.21-.32a3.85,3.85,0,0,0,1.89-3.2h-2.06l-.14-.35h2.21v-2H316l-.16-.37h5.87l.62-.8a5.82,5.82,0,0,1,.82.88l-.16.29Zm-.8,0H318.6v2h1.87Zm3.87-5.91.54-.66c.56.46.85.77.85.9s0,.1-.1.13l-.34.22V79.92c0,.75-.48,1.12-1.47,1.1a.58.58,0,0,0-.43-.59,10.64,10.64,0,0,0-1.39-.26v-.38c.67.06,1.3.08,1.87.08.38,0,.56-.14.56-.43V72.73h-3.38v.7h-.82v-5a7.15,7.15,0,0,1,1,.43Zm.1,1.68V69.24h-3.38v1.33Zm0,.37h-3.38v1.44h3.38Z" transform="translate(0 -0.13)"/><path class="cls-6" d="M315.64,87V84.2c1,0,1.42.18,1.42.4s-.19.22-.59.34V87h1.46l.7-1a11.63,11.63,0,0,1,.9,1l-.16.27h-3.52v1c0,.22,0,.69,0,1.36h1.63l.5-.67c.58.48.85.78.85.91s0,.1-.13.16l-.3.19a20.06,20.06,0,0,1-.53,5.79,1.42,1.42,0,0,1-1.49.86.66.66,0,0,0-.37-.64,5.41,5.41,0,0,0-.93-.27v-.37a10,10,0,0,0,1.41.14.71.71,0,0,0,.74-.64,26.34,26.34,0,0,0,.35-5.11H315.8a11.28,11.28,0,0,1-2.43,7l-.3-.24c1.28-2,1.94-4.85,1.94-8.53v-.94h-1.89L313,87Zm3.41,4.11-.32-.22a17.61,17.61,0,0,0,2-6.72c.93.14,1.39.3,1.39.54s-.19.19-.58.27a20.48,20.48,0,0,1-.56,2.32h3.49l.69-.88a8.72,8.72,0,0,1,.9,1l-.14.26h-1.46a13.88,13.88,0,0,1-1.55,5.63,9.62,9.62,0,0,0,3.27,2.77,2.93,2.93,0,0,0-.72.77,11.74,11.74,0,0,1-3-2.85,9,9,0,0,1-4,3.09l-.22-.34A9.19,9.19,0,0,0,322,93.28a14.64,14.64,0,0,1-1.57-4.53A11.2,11.2,0,0,1,319.05,91.15ZM320.73,88a14.51,14.51,0,0,0,1.66,4.58,14.39,14.39,0,0,0,1.15-4.91h-2.71Z" transform="translate(0 -0.13)"/><path class="cls-6" d="M323.9,103.16c.75.34,1.12.59,1.12.78s-.19.18-.61.18a10.17,10.17,0,0,1-1.3,2.13l0,.08c.69.88,1.17,1.33,1.47,1.33s.35-.72.46-2.18l.38.19c0,.48,0,.86,0,1.12,0,.8.16,1.26.5,1.36,0,.46-.26.69-.61.69q-1.15,0-2.64-1.87a9.31,9.31,0,0,1-2.47,2c.77.45,1.15.9,1.15,1.33s-.16.54-.48.54-.35-.14-.46-.42a4.43,4.43,0,0,0-1.47-1.75l.19-.27a7.66,7.66,0,0,1,.72.35l.1-.08a9.75,9.75,0,0,0,2.24-2.27,10.68,10.68,0,0,1-1.46-3.87h-5.31v1.84a7.15,7.15,0,0,1-2.06,5.57l-.26-.24a8.64,8.64,0,0,0,1.46-5.33v-2.62a9.81,9.81,0,0,1,1,.43h5.09a16.2,16.2,0,0,1-.16-2.06c.86,0,1.3.18,1.3.37s-.16.21-.48.32a12.48,12.48,0,0,0,.13,1.33H324l.59-.88a9.49,9.49,0,0,1,.9,1l-.16.29h-4a11,11,0,0,0,1.2,3.25A14,14,0,0,0,323.9,103.16Zm-8.28,6.11a4.62,4.62,0,0,1-.72,2.66c-.34.46-.67.69-1,.69a.59.59,0,0,1-.42-.19.56.56,0,0,1-.14-.37c0-.18.14-.32.43-.48a3.33,3.33,0,0,0,1.47-2.37Zm3.31-5.52.62-.77c.34.32.61.59.82.83l-.18.29h-4.29l-.14-.35Zm0,1.58.45-.54c.54.38.82.66.82.78s0,.11-.11.16l-.29.19V108H319v-.4h-2v.64h-.78V105c.29.1.56.21.85.34Zm3.87,4.93a5.84,5.84,0,0,0,.08,1.33.5.5,0,0,0,.51.34.83.83,0,0,1-.74.83,18.08,18.08,0,0,1-2.74.11,10.28,10.28,0,0,1-2.54-.16c-.27-.13-.42-.43-.42-.9V109c.88,0,1.33.16,1.33.37s-.18.22-.5.35v1.82c0,.26.1.4.26.43a7.36,7.36,0,0,0,1.58.1,15.86,15.86,0,0,0,2-.08c.45-.08.69-.7.74-1.87ZM317,105.69v1.58h2v-1.58Zm5.2-5.46c1.06.26,1.6.64,1.6,1.15a.42.42,0,0,1-.48.46c-.21,0-.34-.11-.42-.35a2,2,0,0,0-.86-1Zm.9,8.77c1.86.86,2.8,1.74,2.8,2.63,0,.38-.18.59-.51.59s-.4-.18-.54-.51a6.17,6.17,0,0,0-1.94-2.42Z" transform="translate(0 -0.13)"/><path class="cls-6" d="M316.17,123c.24-.51.53-1.15.75-1.73l-.58.29c-.32.16-.74.38-1,.48a1.42,1.42,0,0,1-1.06,0c-.38-.18-.53-.45-.46-.59a.49.49,0,0,1,.53-.24,2,2,0,0,0,.94,0,7.69,7.69,0,0,0,1.38-.45c.13,0,.32-.13.53-.19a7.24,7.24,0,0,0,.27-1.58,2.06,2.06,0,0,0-.21-1c-.11-.21-.24-.43,0-.59a.6.6,0,0,1,.75.26,2.7,2.7,0,0,1,.18,1.34,7.47,7.47,0,0,1-.34,1.38l.4-.16a2.29,2.29,0,0,1,1.44-.1c.78.24,1.12,1,1.26,1.94a6.33,6.33,0,0,1-.26,2.74,4.28,4.28,0,0,1-1.09,2,2,2,0,0,1-1,.61.91.91,0,0,1-.64-.42,3.42,3.42,0,0,0-.77-.64c-.29-.18-.59-.34-.56-.48s.32-.18.64-.06,1,.48,1.36.27a2.8,2.8,0,0,0,1.15-1.58,7.46,7.46,0,0,0,.32-2.37,1.48,1.48,0,0,0-.7-1.44,2.27,2.27,0,0,0-1.55.26,1.71,1.71,0,0,0-.26.11l-.08.18c-.29.69-.61,1.62-.91,2.32s-.7,1.46-1,2.08c-.22.45-.72,1.34-.88,1.65s-.42.66-.64.61a.46.46,0,0,1-.4-.5,2.68,2.68,0,0,1,.66-1,11.11,11.11,0,0,0,.91-1.36C315.5,124.44,315.82,123.7,316.17,123Zm9.4-.11c.08.59,0,.9-.37,1a3.92,3.92,0,0,1-1.06,0c-.3,0-.83-.11-1-.14s-.3-.14-.29-.26a.23.23,0,0,1,.24-.21,2.71,2.71,0,0,0,.48-.06.89.89,0,0,0,.51-.19c.11-.13.13-.34.14-.72a2.28,2.28,0,0,0-.18-1.11,2,2,0,0,0-.58-.67c-.11-.1-.27-.29-.14-.43s.27,0,.46.13a4.1,4.1,0,0,1,.93.85A3.59,3.59,0,0,1,325.57,122.88Zm-1.47-3.76a5.7,5.7,0,0,0-.94-.75c-.13-.1-.19-.21-.13-.3a.34.34,0,0,1,.27-.08,3.33,3.33,0,0,1,.86.21,1.93,1.93,0,0,1,1,.66.39.39,0,0,1-.24.58A1,1,0,0,1,324.09,119.12Zm1.26-.67a2.38,2.38,0,0,0-1-.66c-.13-.06-.21-.21-.14-.3s.19-.08.27-.08a3.33,3.33,0,0,1,.88.14,2.08,2.08,0,0,1,1,.61.37.37,0,0,1-.19.59A.85.85,0,0,1,325.36,118.45Z" transform="translate(0 -0.13)"/><path class="cls-6" d="M322.22,137.31v-2.08h-2.15l-.18-.35h2.32v-2.39c.94,0,1.41.18,1.41.4s-.21.26-.61.38v1.6h1.06l.62-.9a12.3,12.3,0,0,1,.86,1l-.14.27H323v2.08h1.46l.66-.88a7.85,7.85,0,0,1,.85,1l-.19.29h-2.66a10.58,10.58,0,0,0,3,3.54,2.23,2.23,0,0,0-.7.75,9.93,9.93,0,0,1-2.38-3.7v4.9h-.8V139a9.48,9.48,0,0,1-2.23,2.74,1.48,1.48,0,0,1,.43.9.42.42,0,0,1-.48.48c-.21,0-.32-.14-.34-.4a2,2,0,0,0-.08-.45,12.11,12.11,0,0,1-2.19.58v.54c0,.29.08.45.26.48a20.64,20.64,0,0,0,3.22.11,28.05,28.05,0,0,0,3.62-.11c.37-.06.59-.62.7-1.68l.35.13a3.48,3.48,0,0,0,.14,1.26.53.53,0,0,0,.45.22.77.77,0,0,1-.69.78,39.55,39.55,0,0,1-4.23.11,16.62,16.62,0,0,1-4.29-.26c-.21-.13-.3-.43-.3-.91v-4.61h-.8v.19a9.73,9.73,0,0,1-.58,3.5,5.33,5.33,0,0,1-2.16,2.48l-.24-.27a5.6,5.6,0,0,0,1.79-2.82,10.66,10.66,0,0,0,.37-2.87v-.22h-.58v.59h-.78v-5.76l.13,0c.35.16.61.29.8.4h.93a13.72,13.72,0,0,0,.29-2c.91.14,1.39.3,1.39.48s-.19.22-.53.32a7.75,7.75,0,0,1-.7,1.25h2.32l.5-.66q.86.67.86.86c0,.06,0,.11-.11.16l-.38.24v4.71h-.77v-.59h-1v3.31a1.89,1.89,0,0,1,.35,0,10.4,10.4,0,0,0,.51-2.22c.75.18,1.14.37,1.14.56s-.18.16-.53.19a8.38,8.38,0,0,1-.69,1.42c.48,0,.91-.13,1.3-.18a3.36,3.36,0,0,0-.42-.67l.22-.19.51.38a13.35,13.35,0,0,0,2.22-3.7l0-.13h-2.35l-.16-.37Zm-6.29-2.74h-1.55v1.76h1.55Zm0,2.11h-1.55v1.89h1.55Zm2.38-.35v-1.76h-1.58v1.76Zm0,2.24v-1.89h-1.58v1.89Z" transform="translate(0 -0.13)"/><path class="cls-6" d="M313.9,152.38l-.16-.35h4.58c0-.21,0-.46,0-.8v-2.66c1,0,1.57.13,1.57.35s-.22.29-.64.43v1.87c0,.35,0,.59,0,.72h4.32l.58-.74c.64.5,1,.83,1,1s-.06.11-.16.19l-.34.22c0,3.78-.3,6.18-.91,7.23a1.89,1.89,0,0,1-1.76.93c0-.3-.24-.51-.67-.66a16.57,16.57,0,0,0-2-.43v-.42a17.38,17.38,0,0,0,2.72.26,1,1,0,0,0,1-.59c.43-1,.66-3.23.64-6.61h-4.47a11.67,11.67,0,0,1-1.28,5.06,8.87,8.87,0,0,1-4.5,3.76l-.22-.34a8.89,8.89,0,0,0,4.42-5,12.65,12.65,0,0,0,.66-3.46Z" transform="translate(0 -0.13)"/><path class="cls-6" d="M325.13,170.09a6.16,6.16,0,0,1-.21,2.21,3.55,3.55,0,0,1-1.55,2,7.41,7.41,0,0,1-2.64,1,6.88,6.88,0,0,1-2.58,0c-.16,0-.24-.08-.22-.16s.1-.14.22-.13a7.83,7.83,0,0,0,.85,0,8,8,0,0,0,1.92-.27,7.08,7.08,0,0,0,2-.94,3.64,3.64,0,0,0,1.38-2.27,5.65,5.65,0,0,0-.21-2.64,3.34,3.34,0,0,0-1.41-2,4.52,4.52,0,0,0-2.79-.59l-.42.06c0,.32,0,.83,0,1.23a10.57,10.57,0,0,1-.24,2.19,7.09,7.09,0,0,1-1.12,2.82A2.87,2.87,0,0,1,316,174a1.77,1.77,0,0,1-1.63-1.22,3.45,3.45,0,0,1-.21-2.38,4.82,4.82,0,0,1,1.07-2.22,6.79,6.79,0,0,1,2-1.68,6.55,6.55,0,0,1,3-.7,5.05,5.05,0,0,1,2.55.67,4.69,4.69,0,0,1,1.68,1.68A4.27,4.27,0,0,1,325.13,170.09ZM319,166.52a6.45,6.45,0,0,0-2,.93,5.35,5.35,0,0,0-1.9,2.35,3.81,3.81,0,0,0-.13,2.43c.22.54.77.66,1.41.45a2.84,2.84,0,0,0,1.62-1.31,6.17,6.17,0,0,0,.93-2.58A11.45,11.45,0,0,0,319,166.52Z" transform="translate(0 -0.13)"/><path class="cls-6" d="M313.55,192.74l-.21-.34c3.43-1.09,5.31-3.17,5.7-6.28h-4.85l-.16-.35h5.06c0-.45,0-.7,0-.82v-2.79h-5.35l-.16-.37h10.05l.85-1a10,10,0,0,1,1.14,1.09l-.18.3H320V185c0,.19,0,.46,0,.82h3.3l.82-1a11.09,11.09,0,0,1,1.07,1.06l-.16.3h-4.87a10.14,10.14,0,0,0,6,5.54,2.68,2.68,0,0,0-.78.86,10.39,10.39,0,0,1-5.41-5.94C319.36,189.81,317.23,191.86,313.55,192.74Z" transform="translate(0 -0.13)"/><path class="cls-6" d="M321.15,199.9c0-.51.08-1,.08-1.39v-2.16c.9,0,1.34.13,1.34.34s-.18.26-.54.38v1.44c0,.56,0,1-.06,1.39h2.4l.62-.85c.3.3.59.61.86.93l-.16.27h-3.51a8.82,8.82,0,0,0,3.83,4.27,3,3,0,0,0-.7.82,8.87,8.87,0,0,1-3.44-4.77,6.21,6.21,0,0,1-1.34,3.1,7.49,7.49,0,0,1-2.56,1.79l-.19-.34a6.47,6.47,0,0,0,2.72-2.74,8.08,8.08,0,0,0,.61-2.15H319a11.5,11.5,0,0,1-5.39,5.78l-.21-.32a12,12,0,0,0,5.3-7.23h-2.24c-.16.32-.34.64-.5,1,1.17.46,1.74.94,1.74,1.5a.38.38,0,0,1-.42.43c-.19,0-.34-.14-.43-.4a3,3,0,0,0-1.09-1.22,13.9,13.9,0,0,1-.78,1.15c1.07.59,1.62,1.17,1.62,1.75,0,.32-.14.46-.42.46s-.34-.14-.43-.46a3.74,3.74,0,0,0-1-1.46,13.1,13.1,0,0,1-1.41,1.44l-.24-.27a13.67,13.67,0,0,0,3.14-6.07c.88.24,1.33.46,1.33.63s-.22.22-.64.29a8.89,8.89,0,0,1-.32.9h2l.53-.64c.56.5.85.83.85,1s-.06.13-.14.18l-.37.18c-.13.42-.24.78-.37,1.1Zm-5.25,5.88a5,5,0,0,1-1,2.82,1.26,1.26,0,0,1-.93.56.46.46,0,0,1-.51-.53c0-.16.16-.34.46-.53a4.22,4.22,0,0,0,1.67-2.43Zm1.74-.16a4,4,0,0,1,1.07,2.43c0,.56-.21.83-.59.83s-.4-.16-.4-.5v-.1a3.75,3.75,0,0,0,0-.46,6.15,6.15,0,0,0-.38-2.06Zm2.61-.06c1.22.95,1.84,1.83,1.84,2.64q0,.67-.58.67c-.27,0-.42-.19-.46-.58a5.32,5.32,0,0,0-1.06-2.51Zm2.66-8.72c1.09.54,1.65,1.1,1.65,1.68,0,.37-.18.54-.51.54s-.35-.16-.42-.46a2.78,2.78,0,0,0-.93-1.52Zm.19,8.67a7,7,0,0,1,2.19,1.62,1.57,1.57,0,0,1,.51,1.07c0,.4-.19.61-.53.61s-.43-.19-.56-.58a6,6,0,0,0-1.82-2.46Z" transform="translate(0 -0.13)"/><path class="cls-6" d="M313.21,215.55c1.25.42,1.84,1,1.84,1.62,0,.37-.14.54-.46.54s-.4-.18-.48-.51A2.43,2.43,0,0,0,313,215.8Zm4-.61-2,6.34a4.11,4.11,0,0,0-.21,1.07,2.72,2.72,0,0,0,.06.45,10,10,0,0,1,.18,1.42c0,.58-.19.86-.61.86a.45.45,0,0,1-.5-.51s0-.3.08-.85a7,7,0,0,0,.06-.87,1.43,1.43,0,0,0-.42-1.18,1.53,1.53,0,0,0-.69-.26V221a2,2,0,0,0,.51.06.89.89,0,0,0,.85-.51,43.59,43.59,0,0,0,2.32-5.89Zm-3-2.48c1.3.4,2,.91,2,1.58,0,.35-.16.54-.5.54-.18,0-.34-.16-.43-.46a2.9,2.9,0,0,0-1.18-1.41Zm10.5,11.73h.5l.58-1s.1.13.26.37.35.56.42.69l-.16.29H315.92l-.18-.37h1.54V219a10.16,10.16,0,0,1,1,.51h5.43l.58-.66c.59.45.88.74.88.86a.18.18,0,0,1-.11.16l-.37.22ZM323,213.07l.53-.64c.58.45.88.74.88.88s0,.11-.14.18l-.34.19v4.82h-.83v-.66h-4.35v.78h-.83v-6a3.87,3.87,0,0,1,.9.45Zm-4.95,6.83v4.29h1.36V219.9Zm.69-6.47v1.79h4.35v-1.79Zm4.35,4v-1.91h-4.35v1.91Zm-1.52,2.42h-1.38v4.29h1.38Zm.8,0v4.29h1.46V219.9Z" transform="translate(0 -0.13)"/><path class="cls-6" d="M317.31,235.74l.48-.62c.59.5.88.83.88,1s0,.1-.13.14l-.34.14a9.18,9.18,0,0,1-4.9,4l-.22-.32a8.85,8.85,0,0,0,4.26-4h-3.47l-.14-.37Zm1.92-1.54h-3v.69h-.82v-5.38a7.17,7.17,0,0,1,.94.45h2a6.88,6.88,0,0,0,.56-1.87c1,.19,1.46.38,1.46.56s-.22.22-.64.29a7.36,7.36,0,0,1-.88,1h4l.56-.66c.59.45.88.74.88.86a.33.33,0,0,1-.14.22l-.35.26v4.16H323v-.61h-2.87a8.08,8.08,0,0,0,1.94,2.9,13,13,0,0,0,2.1-2.51c.7.48,1.06.82,1.06,1s-.11.16-.34.16l-.34,0a16.57,16.57,0,0,1-2.18,1.68,12.38,12.38,0,0,0,3.67,2,2.47,2.47,0,0,0-.69.91,9.45,9.45,0,0,1-5.25-5.25v4.85a1.12,1.12,0,0,1-.35.94,1.89,1.89,0,0,1-1.18.29.64.64,0,0,0-.43-.59,6.61,6.61,0,0,0-1.36-.34v-.38a14.49,14.49,0,0,0,2.06.14.38.38,0,0,0,.43-.43Zm3.73-2.38v-1.49h-6.77v1.49Zm0,2v-1.65h-6.77v1.65Z" transform="translate(0 -0.13)"/></g></g></svg>