<svg xmlns="http://www.w3.org/2000/svg" xmlns:xlink="http://www.w3.org/1999/xlink" viewBox="0 0 763.19 600.28"><defs><style>.cls-1{fill:none;}.cls-2{clip-path:url(#clip-path);}.cls-3{opacity:0.31;}.cls-4{fill:#d48050;}.cls-5{fill:#527c68;}.cls-6{fill:#333;}</style><clipPath id="clip-path" transform="translate(0 -0.13)"><rect class="cls-1" x="252.09" width="281" height="601"/></clipPath></defs><title>Asset 9</title><g id="Layer_2" data-name="Layer 2"><g id="text"><g class="cls-2"><image class="cls-3" width="632" height="421" transform="translate(0) scale(1.21 1.43)" xlink:href="../../../190325 2/190325/design_underA/Links/BGT046_2.JPG"/></g><path class="cls-4" d="M466.08,36.54l.4-.4A15.41,15.41,0,0,1,460.71,31l-7.49.61-.43-.9,7.42-.54a18.17,18.17,0,0,1-2-5.47c2.09,0,3.1.22,3.1.68,0,.18-.32.43-1,.72A11.32,11.32,0,0,0,462,30l6.66-.47L470,27.58a18.19,18.19,0,0,1,2.16,1.94l-.25.58-9.25.72a13.77,13.77,0,0,0,5.72,4.32,3.4,3.4,0,0,0,1.12.32q1,0,1.3-3.89l.79.32a15.86,15.86,0,0,0,.25,3.46,1.18,1.18,0,0,0,1,.65q-.05,1.62-1.51,1.62a8,8,0,0,1-2.63-.5c0,.07-.11.14-.25.22l-.5.32V48.49h-1.8v-.86H451.32V49h-1.84V37.48h-.65V31.83a29.85,29.85,0,0,1-4.54,3.1l-.47-.68a26.5,26.5,0,0,0,8.57-9.39c1.69.72,2.52,1.26,2.52,1.69,0,.25-.43.4-1.37.43a25.62,25.62,0,0,1-2.74,3.1c.68.22,1,.43,1,.68s-.4.5-1.19.65v4.72s.43.18,1,.43ZM444.16,53.06a26.13,26.13,0,0,0,10-4.46c1.69.76,2.56,1.33,2.56,1.69s-.29.32-.9.32a5,5,0,0,1-.79,0,33.54,33.54,0,0,1-10.44,3.28Zm22-13.28V37.37H451.32v2.41Zm0,.83H451.32v2.63h14.83Zm0,6.19V44H451.32V46.8Zm-5.22,2c7.59.79,11.41,2,11.41,3.74q0,1.08-1,1.08a1.62,1.62,0,0,1-.9-.36,32.35,32.35,0,0,0-10-3.74Zm1.8-24c3.09.65,4.61,1.62,4.61,2.81,0,.76-.36,1.12-1.08,1.12-.4,0-.72-.25-1-.79a6.38,6.38,0,0,0-2.81-2.56Z" transform="translate(0 -0.13)"/><path class="cls-4" d="M449.74,76.83V85.5a1,1,0,0,0,.47.94,6.23,6.23,0,0,0,1.94.14c1.33,0,2.12-.14,2.41-.47s.68-1.91.86-4.32c0-.43.07-.79.07-1l.83.43V82a19,19,0,0,0,.18,3.24c.14.65.5,1,1.08.94a1.65,1.65,0,0,1-1.08,1.73,17.57,17.57,0,0,1-4.25.29,9,9,0,0,1-3.64-.43c-.5-.32-.72-1-.72-2V77.19l-3.85.68-.47-.83,4.32-.79V67.47q3.13.11,3.13.76c0,.29-.4.58-1.3.94v6.73l4.46-.79,1.26-2.37.5.4a16.94,16.94,0,0,1,1.8,1.58l-.29.68Zm13.53-6.7v3c0,5.62-.76,10.08-2.27,13.43a18,18,0,0,1-8.49,8.64l-.58-.68a19.46,19.46,0,0,0,6.8-7.45c1.73-3.42,2.59-8.13,2.59-14V70.13H455l-.32-.79h14.47l1.22-1.66c1.4,1.15,2.09,1.87,2.09,2.2,0,.14-.11.25-.29.36l-.86.5q0,17.33-1.19,21.09A4.17,4.17,0,0,1,465.93,95c0-.68-.47-1.15-1.33-1.44a28.56,28.56,0,0,0-3.6-.79v-.83a39.39,39.39,0,0,0,4.86.43,2.4,2.4,0,0,0,2.59-2.12c.65-3.2,1-9.11,1-17.67V70.13Z" transform="translate(0 -0.13)"/><path class="cls-4" d="M449.66,110.31v6q0,14.42-5.4,20.34l-.72-.54c2.81-4.21,4.18-10.8,4.18-19.83v-7.74a4.16,4.16,0,0,0,.43.18l.65.29c.25.11.61.29,1.12.5h16.56l1.3-1.55c1.33,1,2,1.73,2,2s-.11.29-.36.47l-.79.43v3c0,7.2.5,12.38,1.44,15.66.54,1.73.94,2.63,1.19,2.63s.72-2.05,1.08-6.12l.86.43-.07,1c-.11,2-.14,3.24-.14,3.78,0,2,.29,3.17.9,3.46-.25.9-.68,1.37-1.4,1.37a2.4,2.4,0,0,1-1.62-.94c-2.81-2.88-4.14-10-4.14-21.34v-3.53Zm7.45,8.75v-4.14c-1.69.18-3.71.4-6,.5l-.25-.76a43.62,43.62,0,0,0,11.77-2.59c1.33.83,2,1.4,2,1.8,0,.18-.22.29-.58.29-.18,0-.54-.07-1-.14-1.44.29-2.81.5-4.07.68v4.36h3.28l1.15-1.33c1.22.94,1.87,1.58,1.87,1.91a.37.37,0,0,1-.25.32l-.72.43v7.06h-1.8V126h-3.53v6.19a40.68,40.68,0,0,0,4.14-.36l.79-.11a15.38,15.38,0,0,0-2.38-3.06l.5-.58c3.49,2.3,5.22,4.43,5.22,6.26,0,.79-.36,1.22-1.08,1.22-.5,0-.83-.29-1-.9a8.36,8.36,0,0,0-.83-2.05c-3,.65-7.34,1.26-12.92,1.91-.14.68-.36,1-.54,1-.47,0-.86-1-1.26-2.92,3-.11,5.26-.25,6.88-.32l.65,0V126h-3.35v2.09h-1.84v-10a15.14,15.14,0,0,1,2.16,1Zm0,.83h-3.35v5.26h3.35Zm1.8,0v5.26h3.53v-5.26Z" transform="translate(0 -0.13)"/><path class="cls-4" d="M465.21,151.17l1.19-1.51q2.05,1.51,2.05,1.94a.39.39,0,0,1-.25.36l-.86.65v9.5h-1.94v-1.69h-5.9c-.72,1.83-1.55,3.63-2.45,5.4h10.33l1.22-1.51c1.4,1,2.12,1.69,2.12,2s-.11.29-.32.47l-.79.5V178h-1.94v-1.94H449.38V178h-1.94V164.84a16.27,16.27,0,0,1,2.34,1h6.12a35.77,35.77,0,0,0,1.08-5.4h-5.36v2h-1.87V150.2a11.88,11.88,0,0,1,2.27,1Zm-15.84,15.44v8.64h18.29v-8.64ZM451.61,152v7.67h13.79V152Z" transform="translate(0 -0.13)"/><path class="cls-5" d="M449.7,210.28H473v8h-1.4v-6.55H449.7Z" transform="translate(0 -0.13)"/><path class="cls-5" d="M451.1,252.3a8.78,8.78,0,0,0,3.35,1.62,19.79,19.79,0,0,0,6,.76,20,20,0,0,0,4.18-1,2.61,2.61,0,0,1,2,0,2.08,2.08,0,0,1,1.12,1c.07.4-.18.83-1.58,1.26a21.22,21.22,0,0,1-6.12.61,23.14,23.14,0,0,1-6.12-1,9,9,0,0,1-3.49-1.8,4.24,4.24,0,0,1-1-2.2c-.11-.68,0-1.12.25-1.12s.5.4.61.72A3,3,0,0,0,451.1,252.3Zm9.07-13.82c-.79,0-1.58-.14-2.84-.32a27.77,27.77,0,0,1-3.24-.61c-.72-.25-1.08-.79-.86-1s.72-.22,1.15,0a7.3,7.3,0,0,0,2,.29,19.24,19.24,0,0,0,2.81-.32c1.08-.18,2.52-.72,3.38-.79s1.19.18,1.33.79-.4.86-1,1.19a7,7,0,0,0-1.15.83c-.43.32-1.15.79-1.55,1.08s-.68.32-.83.22-.14-.4,0-.58A9,9,0,0,0,460.17,238.48Z" transform="translate(0 -0.13)"/><path class="cls-5" d="M471.77,281.94c-.29.32-1,.22-1.48,0a20.89,20.89,0,0,0-3.13-.54c-1.22-.11-2.27-.18-4.25-.18-.65,0-1.33,0-2,.07,0,.79-.07,1.94,0,2.84,0,.58.14,1.48.22,2.41a5.68,5.68,0,0,1,.47,1.69,9.17,9.17,0,0,1,.07,3.56c-.07.47-.29,1.62-.54,3.1a9.76,9.76,0,0,1-2.34,4.25,5.53,5.53,0,0,1-3.1,1.73c-.58.07-1,0-1-.18s.47-.4.83-.54a7.23,7.23,0,0,0,2.66-1.91,7,7,0,0,0,1.44-3.1c.07-.65.07-1.58.07-2.48a3,3,0,0,1-1.19,1c-1.26.4-2.38-.4-3.24-1.73a6.66,6.66,0,0,1-1.08-4.28c0-1.73.65-2.7,1.48-3.06a4.41,4.41,0,0,1,3.2-.07c.22.11.4.22.58.32,0-1,.07-2.09.11-3v-.47c-.86.07-1.66.14-2.27.18-1.48.11-3,.5-4.25.72a38.49,38.49,0,0,1-4.61.76,2.83,2.83,0,0,1-2.56-.9c-.54-.58-.54-1.19-.22-1.48a1,1,0,0,1,1.19,0,7.78,7.78,0,0,0,2.48.54,8.16,8.16,0,0,0,2.92-.18c.83-.11,2.12-.36,3.31-.5s2.74-.43,3.89-.61c-.07-.68-.14-1.33-.22-1.8a10.93,10.93,0,0,0-.83-2.59c-.32-.72-.4-1.3,0-1.51s1,0,1.84.5a2,2,0,0,1,.79,1,.75.75,0,0,1,.22.14c.4.32,1.08.9,1.55,1.26a25.19,25.19,0,0,0,3,1.76,15.48,15.48,0,0,0,2.59,1.08c.65.18,1.76.43,2.74.76S472,281.58,471.77,281.94Zm-12.42,6.88c0-.36-.11-.76-.18-1.22a2.56,2.56,0,0,0-2.66-2,1.71,1.71,0,0,0-1.58,1.76,7.34,7.34,0,0,0,.65,3.28,2.66,2.66,0,0,0,2.09,1.3c.54,0,1-.4,1.37-1.3A5.07,5.07,0,0,0,459.35,288.81Zm4.86-9.32c-.58-.4-1.48-1.15-1.87-1.48l-1.22-1c0,.72-.07,1.91-.11,2.66A15.31,15.31,0,0,1,464.21,279.49Z" transform="translate(0 -0.13)"/><path class="cls-5" d="M467.23,335.52a5.93,5.93,0,0,1-1.3,3.85,8.65,8.65,0,0,1-3.89,2.48,10.55,10.55,0,0,1-5.11.29,5.82,5.82,0,0,1-4-2.59,9.78,9.78,0,0,1-1-5.36c0-.43,0-.9.07-1.33-.14-.07-.29-.18-.43-.25-1.08-.65-1.58-1.15-1.58-1.94a2.49,2.49,0,0,1,1.15-1.94c.36-.29.86-.65,1.48-1.08.25-1.33.43-2.34.61-3.13-.22-.07-.4-.18-.65-.25a3.69,3.69,0,0,1-2.05-1.66c-.43-.79-.47-1.62-.18-1.69.58-.22.86.47,1.4.94a5.3,5.3,0,0,0,1.87.86,8.38,8.38,0,0,0,.25-1.15,17.38,17.38,0,0,0,.4-2,4.3,4.3,0,0,0-.07-1.69,3.77,3.77,0,0,0-.76-1.33c-.32-.32-.5-.61-.36-.86s.5-.32,1-.18a5.5,5.5,0,0,1,2.05,1.26c.61.61.47,1.73,0,3.2-.25.86-.61,2-.9,3.1a14.87,14.87,0,0,0,1.76.22c1,.07,1.73.36,1.94.94a1.34,1.34,0,0,1-.76,1.62,32.56,32.56,0,0,1-3.06,1.58c-.32.14-.65.29-.94.43q-.22,1.13-.32,2.27c-.07.5-.14.94-.22,1.4a10.83,10.83,0,0,0,3.13.47,2.44,2.44,0,0,1,1.69.29c.43.25.79.9.65,1.22s-.47.5-1.19.58a10.94,10.94,0,0,1-3.49-.29l-.9-.25a12.11,12.11,0,0,0,0,1.62,5.43,5.43,0,0,0,2.12,4.5,7,7,0,0,0,6.12.43A4.62,4.62,0,0,0,465,336a8,8,0,0,0-.94-4.46,9.59,9.59,0,0,0-2.45-3.06,12.27,12.27,0,0,0-1.8-1.26c-.32-.14-.58-.36-.43-.61s.43-.18.68-.07a8.48,8.48,0,0,1,1.87,1,14.53,14.53,0,0,1,3.92,3.42A8.13,8.13,0,0,1,467.23,335.52Zm-15-4.71a16.22,16.22,0,0,1,.25-2c-.14.07-.25.18-.4.25-.72.43-.79.94-.36,1.37A4.88,4.88,0,0,0,452.22,330.81Zm2.56-5.94a.51.51,0,0,1-.07.22c-.14.43-.22.94-.32,1.4a14.12,14.12,0,0,0,1.33-.83c.36-.25.54-.76-.47-.79Z" transform="translate(0 -0.13)"/><path class="cls-5" d="M471.77,364.74c-.29.32-1,.22-1.48,0a20.89,20.89,0,0,0-3.13-.54c-1.22-.11-2.27-.18-4.25-.18-.65,0-1.33,0-2,.07,0,.79-.07,1.94,0,2.84,0,.58.14,1.48.22,2.41a5.68,5.68,0,0,1,.47,1.69,9.17,9.17,0,0,1,.07,3.56c-.07.47-.29,1.62-.54,3.1a9.76,9.76,0,0,1-2.34,4.25,5.53,5.53,0,0,1-3.1,1.73c-.58.07-1,0-1-.18s.47-.4.83-.54a7.23,7.23,0,0,0,2.66-1.91,7,7,0,0,0,1.44-3.1c.07-.65.07-1.58.07-2.48a3,3,0,0,1-1.19,1c-1.26.4-2.38-.4-3.24-1.73a6.66,6.66,0,0,1-1.08-4.28c0-1.73.65-2.7,1.48-3.06a4.41,4.41,0,0,1,3.2-.07c.22.11.4.22.58.32,0-1,.07-2.09.11-3v-.47c-.86.07-1.66.14-2.27.18-1.48.11-3,.5-4.25.72a38.49,38.49,0,0,1-4.61.76,2.83,2.83,0,0,1-2.56-.9c-.54-.58-.54-1.19-.22-1.48a1,1,0,0,1,1.19,0,7.78,7.78,0,0,0,2.48.54,8.16,8.16,0,0,0,2.92-.18c.83-.11,2.12-.36,3.31-.5s2.74-.43,3.89-.61c-.07-.68-.14-1.33-.22-1.8a11,11,0,0,0-.83-2.59c-.32-.72-.4-1.29,0-1.51s1,0,1.84.5a2,2,0,0,1,.79,1,.73.73,0,0,1,.22.14c.4.32,1.08.9,1.55,1.26a25.19,25.19,0,0,0,3,1.76,15.48,15.48,0,0,0,2.59,1.08c.65.18,1.76.43,2.74.76S472,364.38,471.77,364.74Zm-12.42,6.88c0-.36-.11-.76-.18-1.22a2.56,2.56,0,0,0-2.66-2,1.71,1.71,0,0,0-1.58,1.76,7.34,7.34,0,0,0,.65,3.28,2.66,2.66,0,0,0,2.09,1.3c.54,0,1-.4,1.37-1.3A5.07,5.07,0,0,0,459.35,371.61Zm4.86-9.32c-.58-.4-1.48-1.15-1.87-1.48l-1.22-1c0,.72-.07,1.91-.11,2.66A15.31,15.31,0,0,1,464.21,362.29Z" transform="translate(0 -0.13)"/><path class="cls-5" d="M444.16,398.27h1.4v6.55h21.92v1.44H444.16Z" transform="translate(0 -0.13)"/><path class="cls-6" d="M354.93,73.44l.18-.18a6.86,6.86,0,0,1-2.56-2.3l-3.33.27-.19-.4,3.3-.24a8.06,8.06,0,0,1-.88-2.43c.93,0,1.38.1,1.38.3s-.14.19-.45.32a5,5,0,0,0,.77,1.73l3-.21.56-.85a8.12,8.12,0,0,1,1,.87l-.11.26-4.11.32a6.11,6.11,0,0,0,2.54,1.92,1.5,1.5,0,0,0,.5.14q.43,0,.58-1.73l.35.14a7,7,0,0,0,.11,1.54.52.52,0,0,0,.46.29q0,.72-.67.72a3.57,3.57,0,0,1-1.17-.22s0,.06-.11.1l-.22.14v4.82H355v-.38h-6.59V79h-.82V73.85h-.29V71.34a13.17,13.17,0,0,1-2,1.38l-.21-.3a11.8,11.8,0,0,0,3.81-4.18c.75.32,1.12.56,1.12.75s-.19.18-.61.19a11.39,11.39,0,0,1-1.22,1.38c.3.1.45.19.45.3s-.18.22-.53.29v2.1l.46.19Zm-9.75,7.35a11.6,11.6,0,0,0,4.47-2c.75.34,1.14.59,1.14.75s-.13.14-.4.14a2.21,2.21,0,0,1-.35,0,14.89,14.89,0,0,1-4.64,1.46ZM355,74.88V73.81h-6.59v1.07Zm0,.37h-6.59v1.17H355ZM355,78V76.77h-6.59V78Zm-2.32.88c3.38.35,5.07.9,5.07,1.67q0,.48-.43.48a.72.72,0,0,1-.4-.16,14.4,14.4,0,0,0-4.43-1.67Zm.8-10.68c1.38.29,2,.72,2,1.25,0,.34-.16.5-.48.5s-.32-.11-.45-.35a2.84,2.84,0,0,0-1.25-1.14Z" transform="translate(0 -0.13)"/><path class="cls-6" d="M347.66,88.94V92.8a.43.43,0,0,0,.21.42,2.76,2.76,0,0,0,.86.06c.59,0,.94-.06,1.07-.21a4.41,4.41,0,0,0,.38-1.92c0-.19,0-.35,0-.45l.37.19v.37a8.5,8.5,0,0,0,.08,1.44c.06.29.22.43.48.42a.73.73,0,0,1-.48.77,7.76,7.76,0,0,1-1.89.13,4,4,0,0,1-1.62-.19c-.22-.14-.32-.43-.32-.88V89.1l-1.71.3-.21-.37,1.92-.35V84.78q1.39,0,1.39.34c0,.13-.18.26-.58.42v3l2-.35.56-1.06.22.18a7.5,7.5,0,0,1,.8.7l-.13.3Zm6-3v1.31a14.7,14.7,0,0,1-1,6,8,8,0,0,1-3.78,3.84l-.26-.3a8.65,8.65,0,0,0,3-3.31,14.06,14.06,0,0,0,1.15-6.24V86H350l-.14-.35h6.43l.54-.74c.62.51.93.83.93,1s0,.11-.13.16l-.38.22q0,7.71-.53,9.38A1.85,1.85,0,0,1,354.86,97c0-.3-.21-.51-.59-.64a12.44,12.44,0,0,0-1.6-.35v-.37a17.63,17.63,0,0,0,2.16.19,1.07,1.07,0,0,0,1.15-.94,46.94,46.94,0,0,0,.43-7.86V86Z" transform="translate(0 -0.13)"/><path class="cls-6" d="M347.63,101.42v2.67q0,6.41-2.4,9l-.32-.24c1.25-1.87,1.86-4.8,1.86-8.82v-3.44l.19.08.29.13.5.22h7.36l.58-.69c.59.46.9.77.9.9s0,.13-.16.21l-.35.19V103a27.54,27.54,0,0,0,.64,7c.24.77.42,1.17.53,1.17s.32-.91.48-2.72l.38.19,0,.46c0,.88-.06,1.44-.06,1.68,0,.9.13,1.41.4,1.54-.11.4-.3.61-.62.61a1.07,1.07,0,0,1-.72-.42c-1.25-1.28-1.84-4.43-1.84-9.49v-1.57Zm3.31,3.89v-1.84c-.75.08-1.65.18-2.69.22l-.11-.34a19.33,19.33,0,0,0,5.23-1.15c.59.37.88.63.88.8s-.1.13-.26.13-.24,0-.45-.06c-.64.13-1.25.22-1.81.3v1.94h1.46l.51-.59c.54.42.83.7.83.85a.16.16,0,0,1-.11.14l-.32.19V109h-.8v-.66h-1.57v2.75a17.75,17.75,0,0,0,1.84-.16l.35,0a6.84,6.84,0,0,0-1.06-1.36l.22-.26c1.55,1,2.32,2,2.32,2.79,0,.35-.16.54-.48.54s-.37-.13-.43-.4a3.74,3.74,0,0,0-.37-.91c-1.34.29-3.27.56-5.75.85-.06.3-.16.46-.24.46s-.38-.43-.56-1.3c1.33,0,2.34-.11,3.06-.14l.29,0v-2.8h-1.49v.93h-.82v-4.43a6.75,6.75,0,0,1,1,.43Zm0,.37h-1.49V108h1.49Zm.8,0V108h1.57v-2.34Z" transform="translate(0 -0.13)"/><path class="cls-6" d="M354.54,117.18l.53-.67c.61.45.91.74.91.86a.17.17,0,0,1-.11.16l-.38.29V122h-.86v-.75H352c-.32.82-.69,1.62-1.09,2.4h4.59L356,123c.62.45.94.75.94.88s0,.13-.14.21l-.35.22v4.79h-.86v-.87H347.5v.87h-.86v-5.86a7.32,7.32,0,0,1,1,.43h2.72a15.86,15.86,0,0,0,.48-2.4h-2.38v.88h-.83v-5.43a5.33,5.33,0,0,1,1,.43Zm-7,6.87v3.84h8.13V124Zm1-6.52v3.41h6.13v-3.41Z" transform="translate(0 -0.13)"/><path class="cls-6" d="M346.68,136.21c-.21-.21-.38-.59-.22-.77s.4,0,.61,0a2,2,0,0,0,.94.16,8.62,8.62,0,0,0,1.9-.45c.5-.14,1.6-.5,2.59-.75s2.06-.53,2.58-.61a2.49,2.49,0,0,1,1.42.14c.26.16.42.45.32.64s-.3.19-.56.14a9,9,0,0,0-1-.13,15.72,15.72,0,0,0-1.78.19l-.11,0c-.21.18-.54.42-.82.66a3.29,3.29,0,0,0-.9,1.2,7.66,7.66,0,0,0-.34,1.63,9.23,9.23,0,0,0,0,2.53,1.64,1.64,0,0,0,.62,1.2,1.86,1.86,0,0,0,1.3.32,4,4,0,0,1,1.14,0,1.24,1.24,0,0,1,.66.46c.13.19,0,.43-.35.46a9.89,9.89,0,0,1-1.55,0,3,3,0,0,1-1.73-.62,2.16,2.16,0,0,1-.72-1.47,8.51,8.51,0,0,1,0-2.3A19.46,19.46,0,0,1,351,137a2.7,2.7,0,0,1,.7-1.3,6.46,6.46,0,0,1,.77-.66,6.31,6.31,0,0,0-.83.26c-.59.22-1.54.63-2,.82a6.83,6.83,0,0,1-1.66.51A1.56,1.56,0,0,1,346.68,136.21Zm8.44,1.1a5.45,5.45,0,0,0-.93-.75c-.13-.1-.21-.21-.13-.32s.19-.06.27,0a2.9,2.9,0,0,1,.86.19,1.81,1.81,0,0,1,1,.66.39.39,0,0,1-.22.58A1,1,0,0,1,355.12,137.31Zm1.28-.67a2.48,2.48,0,0,0-1-.66c-.14-.06-.21-.21-.14-.3s.18-.06.27-.06a2.42,2.42,0,0,1,.88.14,2,2,0,0,1,1,.59.38.38,0,0,1-.21.59A.83.83,0,0,1,356.4,136.64Z" transform="translate(0 -0.13)"/><path class="cls-6" d="M351.37,158.55a5.73,5.73,0,0,0,.82-1.14l-.27-.11a4.49,4.49,0,0,1-2.08-2.22,5.39,5.39,0,0,1-.24-3.17c-.11.13-.22.27-.32.4a6.15,6.15,0,0,0-1.09,2.18,3.81,3.81,0,0,0-.18,2.35c.16.63.21,1.14-.06,1.23s-.58-.18-.86-.75a6.14,6.14,0,0,1-.53-2,6.8,6.8,0,0,1,.21-2.24,4.86,4.86,0,0,0,.18-1.76,3,3,0,0,0-.45-1.25c-.13-.18-.16-.43,0-.51s.37.08.54.29a3.4,3.4,0,0,1,.67,1.17,3.92,3.92,0,0,1,0,1.87,6.76,6.76,0,0,0-.1,2.27,4.1,4.1,0,0,1,.24-1.09,6.32,6.32,0,0,1,1.52-2.77,8,8,0,0,1,.67-.62,2.18,2.18,0,0,1,1.52-1.38,1.79,1.79,0,0,1,1,.08,3.86,3.86,0,0,1,2.61.38,3.35,3.35,0,0,1,1.57,2.21,5.86,5.86,0,0,1,0,2.69,4.3,4.3,0,0,1-1.58,2.38,3,3,0,0,1-2.29.58,8.9,8.9,0,0,1-.83,1.06,6.47,6.47,0,0,1-1.31,1.14c-.18.1-.37.14-.42.06s0-.21.11-.32A7.83,7.83,0,0,0,351.37,158.55Zm1.14-1.73a5.78,5.78,0,0,0,.54-1.73,10.17,10.17,0,0,0,.1-2.13,5.71,5.71,0,0,0-.54-2.4.93.93,0,0,0-.38-.4,5.36,5.36,0,0,0-.72.3,6.5,6.5,0,0,0-1.1.7,4.24,4.24,0,0,0-.24,1.3,5.69,5.69,0,0,0,.5,2.71A3.45,3.45,0,0,0,352.51,156.82Zm.74-6.88a4.19,4.19,0,0,1,.27.45,5.49,5.49,0,0,1,.59,2.26,8.87,8.87,0,0,1-.18,2.43,6.62,6.62,0,0,1-.74,1.84,2.53,2.53,0,0,0,2.22-1.28,5.36,5.36,0,0,0,.58-3.36,2.71,2.71,0,0,0-1.74-2.21A4.1,4.1,0,0,0,353.24,149.94Z" transform="translate(0 -0.13)"/><path class="cls-6" d="M356.4,169.82a1.66,1.66,0,0,0-.42-1.25,1.76,1.76,0,0,0-1.25-.58,2.55,2.55,0,0,0-1.22.19,7.84,7.84,0,0,0-1.22.75c-.34.24-.83.67-1.23,1a2.27,2.27,0,0,1-1.33.51,1.92,1.92,0,0,1-1.1-.43c-.21-.19-.35-.43-.27-.51s.29-.1.4-.06a2.45,2.45,0,0,0,.74.08,2,2,0,0,0,.77-.29c.24-.11,1-.58,1.38-.77a11.3,11.3,0,0,1,1.31-.66,4.66,4.66,0,0,1,1.71-.43,2.66,2.66,0,0,1,1.76.74,2.25,2.25,0,0,1,.72,1.52,2.58,2.58,0,0,1-.48,1.84,4.27,4.27,0,0,1-1.66,1.25,10.06,10.06,0,0,1-1.76.67,5.29,5.29,0,0,1-1,.16c-.14,0-.26-.06-.26-.13a.2.2,0,0,1,.22-.16,3.15,3.15,0,0,0,.86-.14,9.64,9.64,0,0,0,1.7-.72,4.28,4.28,0,0,0,1.23-1.15A3,3,0,0,0,356.4,169.82Z" transform="translate(0 -0.13)"/><path class="cls-6" d="M348.49,186.58a16,16,0,0,0,.59-1.68l-.59,0a3.89,3.89,0,0,1-1.46-.19c-.3-.13-.38-.43-.29-.54s.18,0,.27,0a2.32,2.32,0,0,0,.42.16,2.1,2.1,0,0,0,.72,0,4.11,4.11,0,0,0,1.15-.21,5.73,5.73,0,0,0,.18-1.52,2.17,2.17,0,0,0-.32-1c-.13-.19-.24-.48-.06-.61s.42,0,.64.11a1.18,1.18,0,0,1,.51.78,1.44,1.44,0,0,1,0,.74,4.88,4.88,0,0,0,1,.38c.3.06.58.14.66.3s0,.32-.19.58a3.15,3.15,0,0,1-1.31.7c-.22,0-.46.1-.72.13,0,.19-.1.34-.13.46-.11.42-.48,1.46-.59,1.84s-.53,1.7-.74,2.34a24.25,24.25,0,0,1-1,2.37.4.4,0,0,1-.59.14c-.24-.14-.24-.53-.24-.78a3.82,3.82,0,0,1,.43-1.06c.18-.45.42-.95.67-1.51S348.3,187,348.49,186.58Zm1.66-3.43c0,.11,0,.22-.08.3s-.06.27-.11.48a3.64,3.64,0,0,0,.58-.3c.11,0,.08-.18,0-.26A2.77,2.77,0,0,0,350.16,183.15Zm6.53,8.21c.19.3-.14.61-.54.64a10.54,10.54,0,0,1-2.69-.08,2.25,2.25,0,0,1-2-1.28,2.33,2.33,0,0,1,.19-2,5.91,5.91,0,0,1,.61-1.15c.1-.13.19-.21.26-.16s0,.16-.06.3a6.11,6.11,0,0,0-.51,1.2,1.68,1.68,0,0,0,.06,1.46,2,2,0,0,0,1.23.75,4.73,4.73,0,0,0,1.34,0,9.53,9.53,0,0,1,1.22-.16A1,1,0,0,1,356.69,191.36Zm-2.15-6.51c0-.08-.22-.14-.37-.16a3.33,3.33,0,0,0-1.07,0,4.58,4.58,0,0,0-.74.16c-.18,0-.43.08-.48,0s.19-.32.37-.38a10.75,10.75,0,0,1,1.23-.35,3.41,3.41,0,0,1,1-.08,1.59,1.59,0,0,1,.94.24.57.57,0,0,1,.29.62.56.56,0,0,1-.37.32l-.7.3a9.25,9.25,0,0,0-1,.53,2.14,2.14,0,0,0-.66.53c-.1.11-.21.3-.27.26s0-.19,0-.32a5.45,5.45,0,0,1,.66-.82,5.92,5.92,0,0,1,.8-.59C354.41,185,354.56,184.91,354.54,184.85Z" transform="translate(0 -0.13)"/><path class="cls-6" d="M353.82,204.62a5.91,5.91,0,0,0,.26-2.67,2.41,2.41,0,0,0-.8-1.7,2.16,2.16,0,0,0-1.75-.48,2.49,2.49,0,0,0-1.39.67,2.22,2.22,0,0,0-.72,1.7,2.79,2.79,0,0,0,.61,1.52c.21.32.34.9,0,1.1s-.78-.13-1.1-.64a4.43,4.43,0,0,1-.51-2,7.12,7.12,0,0,1,.19-2,7.63,7.63,0,0,0,.27-1.58,1.25,1.25,0,0,0-.37-1c-.19-.16-.29-.3-.26-.45s.3-.18.5-.11a1.28,1.28,0,0,1,.77.59,1.87,1.87,0,0,1,.1,1.7,4.32,4.32,0,0,0-.45,1.7,2,2,0,0,1,.53-.78,3.5,3.5,0,0,1,1.78-.85,2.78,2.78,0,0,1,2.16.51,3.31,3.31,0,0,1,1.22,1.86,5.18,5.18,0,0,1,.1,2.4,4.29,4.29,0,0,1-.85,2,4.86,4.86,0,0,1-1.82,1.47,6.69,6.69,0,0,1-1.86.58,4.77,4.77,0,0,1-1.18.11c-.24,0-.35-.08-.35-.14s.08-.14.29-.16a8.85,8.85,0,0,0,1-.14,5.07,5.07,0,0,0,2.34-1.14A4.45,4.45,0,0,0,353.82,204.62Z" transform="translate(0 -0.13)"/><path class="cls-6" d="M354.67,223.17c-.86.1-2.27.14-3.36.14a3.72,3.72,0,0,1-2.67-.82,1.75,1.75,0,0,1-.08-2,4.85,4.85,0,0,1,1.62-1.47,1.38,1.38,0,0,1-.69-.88,8.38,8.38,0,0,1,.08-1.86c0-.58.11-1.2.13-1.67a2,2,0,0,0-.22-1.07c-.14-.19-.29-.43-.22-.58s.46-.08.67.1a3.09,3.09,0,0,1,.67.91,1.66,1.66,0,0,1,0,1,9.9,9.9,0,0,0-.34,1.36,15.28,15.28,0,0,0-.18,1.76.94.94,0,0,0,.35.74c.94-.58,2-1.1,3-1.58.26-.14.16-.46,0-.67s0-.34.3-.3a1.35,1.35,0,0,1,.66.32c.27.22.53.86,0,1.1a31.7,31.7,0,0,0-4.58,2.32c-1,.72-1.18,1.49-.66,2.08a3.06,3.06,0,0,0,2.18.64,8.4,8.4,0,0,0,2.27-.32c.51-.18,1.44-.27,1.7.13S355.12,223.12,354.67,223.17Z" transform="translate(0 -0.13)"/><path class="cls-6" d="M348.12,232.17c0-.53.16-1.49.16-1.81a1.94,1.94,0,0,0-.27-.8.34.34,0,0,1,0-.42c.1-.1.29,0,.45.06a1.94,1.94,0,0,1,.62.51c.24.29.13.71,0,1.11s-.27,1.17-.35,1.58-.27,1.89-.32,2.45a10,10,0,0,0-.06,2.22,2.73,2.73,0,0,0,.85,1.63,2.53,2.53,0,0,0,1.7.54,3.7,3.7,0,0,0,1.41-.34c.34-.18,1-.54,1.46-.8s1-.69,1.26-.88.62-.54.7-.61a.22.22,0,0,1,.27-.08.18.18,0,0,1,0,.26,5.26,5.26,0,0,1-.64.67c-.34.29-1,.91-1.86,1.52a5.22,5.22,0,0,1-2.5,1,3.35,3.35,0,0,1-2.15-.56,3,3,0,0,1-1.17-1.81,9.66,9.66,0,0,1,0-2.27C347.82,234.78,348.07,232.66,348.12,232.17Z" transform="translate(0 -0.13)"/><path class="cls-6" d="M348.49,250.58a16,16,0,0,0,.59-1.68l-.59,0a3.89,3.89,0,0,1-1.46-.19c-.3-.13-.38-.43-.29-.54s.18,0,.27,0a2.32,2.32,0,0,0,.42.16,2.1,2.1,0,0,0,.72,0,4.11,4.11,0,0,0,1.15-.21,5.73,5.73,0,0,0,.18-1.52,2.17,2.17,0,0,0-.32-1c-.13-.19-.24-.48-.06-.61s.42,0,.64.11a1.18,1.18,0,0,1,.51.78,1.44,1.44,0,0,1,0,.74,4.88,4.88,0,0,0,1,.38c.3.06.58.14.66.3s0,.32-.19.58a3.15,3.15,0,0,1-1.31.7c-.22,0-.46.1-.72.13,0,.19-.1.34-.13.46-.11.42-.48,1.46-.59,1.84s-.53,1.7-.74,2.34a24.25,24.25,0,0,1-1,2.37.4.4,0,0,1-.59.14c-.24-.14-.24-.53-.24-.78a3.82,3.82,0,0,1,.43-1.06c.18-.45.42-.95.67-1.51S348.3,251,348.49,250.58Zm1.66-3.43c0,.11,0,.22-.08.3s-.06.27-.11.48a3.64,3.64,0,0,0,.58-.3c.11,0,.08-.18,0-.26A2.77,2.77,0,0,0,350.16,247.15Zm6.53,8.21c.19.3-.14.61-.54.64a10.54,10.54,0,0,1-2.69-.08,2.25,2.25,0,0,1-2-1.28,2.33,2.33,0,0,1,.19-2,5.91,5.91,0,0,1,.61-1.15c.1-.13.19-.21.26-.16s0,.16-.06.3a6.11,6.11,0,0,0-.51,1.2,1.68,1.68,0,0,0,.06,1.46,2,2,0,0,0,1.23.75,4.73,4.73,0,0,0,1.34,0,9.53,9.53,0,0,1,1.22-.16A1,1,0,0,1,356.69,255.36Zm-2.15-6.51c0-.08-.22-.14-.37-.16a3.33,3.33,0,0,0-1.07,0,4.58,4.58,0,0,0-.74.16c-.18,0-.43.08-.48,0s.19-.32.37-.38a10.75,10.75,0,0,1,1.23-.35,3.41,3.41,0,0,1,1-.08,1.59,1.59,0,0,1,.94.24.57.57,0,0,1,.29.62.56.56,0,0,1-.37.32l-.7.3a9.25,9.25,0,0,0-1,.53,2.14,2.14,0,0,0-.66.53c-.1.11-.21.3-.27.26s0-.19,0-.32a5.45,5.45,0,0,1,.66-.82,5.92,5.92,0,0,1,.8-.59C354.41,249,354.56,248.91,354.54,248.85Z" transform="translate(0 -0.13)"/><path class="cls-6" d="M348.6,261.64l.54-.67c.54.45.82.74.82.87a.28.28,0,0,1-.14.22l-.29.19v8.92h-.8v-1h-2.23v1.54h-.8V261.2a10.12,10.12,0,0,1,1,.45Zm-2.1.37v3.55h2.23V262Zm2.23,7.76v-3.84h-2.23v3.84Zm5.28-7V265h2.63l.7-1c.4.43.69.79.9,1.06l-.14.29h-8.23l-.16-.37h3.51v-2.24h-2.69l-.18-.37h2.86V260.2c.93,0,1.39.14,1.39.32s-.21.26-.59.4v1.44h1.9l.69-.93a10.84,10.84,0,0,1,.88,1l-.16.29Zm2,5v4.13c0,.74-.5,1.12-1.49,1.12a.56.56,0,0,0-.35-.56,9.59,9.59,0,0,0-1.6-.34v-.38c.86.06,1.55.11,2.08.11.37,0,.54-.14.54-.45v-3.63h-5.09l-.16-.35h5.25v-2c.88.18,1.31.35,1.31.5s-.18.21-.5.3v1.22h.74l.59-1a9.12,9.12,0,0,1,.78,1l-.16.3Zm-4.72.38c1.42.69,2.13,1.36,2.13,2,0,.37-.16.54-.5.54a.43.43,0,0,1-.43-.32,4.52,4.52,0,0,0-1.39-2Z" transform="translate(0 -0.13)"/><path class="cls-6" d="M349.79,276.89l.54-.64c.5.42.75.69.75.82s0,.14-.1.18l-.29.18v4h-.8v-.75h-3.27v8.48h-.86V276.4a10.28,10.28,0,0,1,1.06.5Zm-3.15.35v1.26h3.27v-1.26Zm0,3h3.27v-1.39h-3.27Zm6.31,2.13.48-.59c.58.45.88.74.88.86a.2.2,0,0,1-.11.16l-.34.22v4.51h-.8v-.79h-3.3v1h-.83V282l.91.4Zm-3.19.35v1.58h3.3v-1.58Zm3.3,3.68V284.7h-3.3v1.73Zm3.33-9.54.5-.64c.58.45.86.74.86.86s0,.11-.11.18l-.29.21V288c0,.7-.48,1-1.44,1a.62.62,0,0,0-.46-.61,8,8,0,0,0-1.09-.24v-.37a13.21,13.21,0,0,0,1.57.1c.37,0,.56-.14.56-.43v-6.83h-3.43v.67h-.82v-4.85c.37.16.7.29,1,.43Zm-3.33.35v1.26h3.43v-1.26Zm3.43,3v-1.39h-3.43v1.39Z" transform="translate(0 -0.13)"/><path class="cls-6" d="M356.08,297.74a3.77,3.77,0,0,1-1.18.9c-.46.24-1.25.5-1.86.75l-.51.22c0,.18,0,.37.06.56a2.48,2.48,0,0,1-.19,1.39.87.87,0,0,1-.66.53c-.34,0-.46-.22-.37-.54a6.25,6.25,0,0,0,.24-1.47V300a6.67,6.67,0,0,0-.75.35,3.48,3.48,0,0,0-1.28,1,1.29,1.29,0,0,0-.18,1.42,2,2,0,0,0,1.57.7,10.72,10.72,0,0,0,1.5-.16,9.49,9.49,0,0,1,1.07-.21,1.25,1.25,0,0,1,1,.26c.26.19.26.46,0,.58a2.55,2.55,0,0,1-.86.18,16.51,16.51,0,0,1-2.3.14,4.68,4.68,0,0,1-2.15-.59,1.5,1.5,0,0,1-.69-1.44,2,2,0,0,1,.69-1.39,7,7,0,0,1,1.5-1.07c.27-.14.58-.3.88-.45a1.09,1.09,0,0,0-.21-.64,1.5,1.5,0,0,0-1-.58,1.8,1.8,0,0,0-1,.16,1.7,1.7,0,0,0-.29.16c-.21.27-.42.51-.61.79a1.65,1.65,0,0,1-1.17.83c-.35,0-.38-.22-.38-.51a.88.88,0,0,1,.34-.71,7.52,7.52,0,0,0,.82-.46,6.61,6.61,0,0,0,1.66-2,6.38,6.38,0,0,0,.5-1l-.38,0a2.24,2.24,0,0,1-1.33-.21.79.79,0,0,1-.3-.91c.19-.26.46-.08.82,0a2.37,2.37,0,0,0,1.26,0l.24,0a.73.73,0,0,0-.21-.77.46.46,0,0,1-.1-.58.55.55,0,0,1,.61,0,.56.56,0,0,1,.22.21c.22,0,.5.1.59.11a1.59,1.59,0,0,1,.59.19c.14.11.06.26-.06.51a2.67,2.67,0,0,1-.85.93,1.23,1.23,0,0,1-.29.14,4.7,4.7,0,0,1-.38.91,17.2,17.2,0,0,1-1,1.68,2.22,2.22,0,0,1-.16.24l.37-.14a1.81,1.81,0,0,1,1.09-.1,1.25,1.25,0,0,1,.85.48,1.66,1.66,0,0,1,.21-.26,4.33,4.33,0,0,1,1.71-1.44,2.32,2.32,0,0,1,2.19,0A.94.94,0,0,1,356.08,297.74ZM351.26,294l.21-.11c.24-.13.32-.29.27-.34s-.16-.11-.38-.14l-.18,0a1.11,1.11,0,0,1,.08.4A.52.52,0,0,1,351.26,294Zm4.15,2.79c-.1-.18-.43-.32-1-.19a2.88,2.88,0,0,0-1.34.77,3.62,3.62,0,0,0-.86,1.33c0,.1.1.21.13.29s.27-.13.42-.19a22.81,22.81,0,0,0,2.1-1C355.52,297.42,355.52,297,355.41,296.78Z" transform="translate(0 -0.13)"/><path class="cls-6" d="M357.33,308.28a1.68,1.68,0,0,1,.88,1.52,1.77,1.77,0,0,1-2.58,1.62,1.77,1.77,0,0,1-.18-3.12,1.72,1.72,0,0,1,.94-.29A1.75,1.75,0,0,1,357.33,308.28Zm-1.87.64a1.26,1.26,0,0,0-.34.88,1.37,1.37,0,0,0,.19.7,1.23,1.23,0,0,0,1.1.59,1.3,1.3,0,0,0,1.3-1.3,1.22,1.22,0,0,0-.56-1,1.28,1.28,0,0,0-.74-.26A1.32,1.32,0,0,0,355.45,308.92Z" transform="translate(0 -0.13)"/><path class="cls-6" d="M323.44,77.52a2.64,2.64,0,0,1-.58,1.71,3.84,3.84,0,0,1-1.73,1.1,4.7,4.7,0,0,1-2.27.13,2.59,2.59,0,0,1-1.79-1.15,4.35,4.35,0,0,1-.43-2.38c0-.19,0-.4,0-.59l-.19-.11c-.48-.29-.7-.51-.7-.86a1.11,1.11,0,0,1,.51-.86c.16-.13.38-.29.66-.48.11-.59.19-1,.27-1.39-.1,0-.18-.08-.29-.11a1.65,1.65,0,0,1-.91-.74c-.19-.35-.21-.72-.08-.75s.38.21.62.42a2.35,2.35,0,0,0,.83.38,3.75,3.75,0,0,0,.11-.51,7.74,7.74,0,0,0,.18-.88,1.91,1.91,0,0,0,0-.75,1.68,1.68,0,0,0-.34-.59c-.14-.14-.22-.27-.16-.38s.22-.14.45-.08a2.44,2.44,0,0,1,.91.56c.27.27.21.77,0,1.42-.11.38-.27.9-.4,1.38a6.51,6.51,0,0,0,.78.1c.46,0,.77.16.86.42a.59.59,0,0,1-.34.72,14.08,14.08,0,0,1-1.36.71l-.42.19q-.1.51-.14,1c0,.22-.06.42-.1.62a4.8,4.8,0,0,0,1.39.21,1.09,1.09,0,0,1,.75.13c.19.11.35.4.29.54s-.21.22-.53.26a4.83,4.83,0,0,1-1.55-.13l-.4-.11a5.37,5.37,0,0,0,0,.72,2.41,2.41,0,0,0,.94,2,3.12,3.12,0,0,0,2.72.19,2.05,2.05,0,0,0,1.41-1.84,3.57,3.57,0,0,0-.42-2,4.26,4.26,0,0,0-1.09-1.36,5.48,5.48,0,0,0-.8-.56c-.14-.06-.26-.16-.19-.27s.19-.08.3,0a3.78,3.78,0,0,1,.83.43,6.46,6.46,0,0,1,1.75,1.52A3.62,3.62,0,0,1,323.44,77.52Zm-6.67-2.1a7.22,7.22,0,0,1,.11-.9l-.18.11c-.32.19-.35.42-.16.61A2,2,0,0,0,316.76,75.42Zm1.14-2.64a.22.22,0,0,1,0,.1c-.06.19-.1.42-.14.63a6.41,6.41,0,0,0,.59-.37c.16-.11.24-.34-.21-.35Z" transform="translate(0 -0.13)"/><path class="cls-6" d="M316.3,88.23a3.56,3.56,0,0,0,.85-.06,13.6,13.6,0,0,0,.18-1.6,1.52,1.52,0,0,0-.27-.93c-.16-.19-.22-.43-.1-.58s.67,0,.93.22a1.57,1.57,0,0,1,.43,1,1.87,1.87,0,0,1-.13.59,1.17,1.17,0,0,0,.21.13,4.59,4.59,0,0,0,1,.4c.26,0,.56.1.69.3s-.13.43-.35.53a12.47,12.47,0,0,1-1.78.45.56.56,0,0,1-.24,0,1.65,1.65,0,0,0,0,.35,15.16,15.16,0,0,0-.18,1.57,1.49,1.49,0,0,0,.27.93c.11.14.24.18.35.08s.45-.26.85-.46a6.6,6.6,0,0,1,1.82-.61,4.05,4.05,0,0,1,2,.06,1.84,1.84,0,0,1,1.31,1.2,2.43,2.43,0,0,1-.06,1.75,4,4,0,0,1-1.1,1.28,5.13,5.13,0,0,1-1.39.77,10,10,0,0,1-1.84.35c-.46,0-.82.08-1,.08s-.24-.1-.24-.13,0-.14.21-.14a2.78,2.78,0,0,0,.59,0,11.27,11.27,0,0,0,1.62-.46,5.42,5.42,0,0,0,2.08-1.38,2.16,2.16,0,0,0,.34-2,1.43,1.43,0,0,0-1-1,3.36,3.36,0,0,0-1.54,0,6.18,6.18,0,0,0-1.58.64,2.76,2.76,0,0,0-.85.8,5.16,5.16,0,0,0-.37.86c-.14.27-.24.37-.43.43a.44.44,0,0,1-.5-.13,3,3,0,0,1-.3-1.41c0-.62.08-1.26.13-1.92,0-.48.13-1,.22-1.54a5.07,5.07,0,0,1-.75,0,2.6,2.6,0,0,1-1-.29c-.18-.08-.34-.27-.21-.38s.26,0,.43,0A3,3,0,0,0,316.3,88.23Zm1.74-1a1.11,1.11,0,0,0-.08.21c0,.13-.08.32-.13.54a3.25,3.25,0,0,0,.56-.21c.14-.08.13-.21.08-.22a1.44,1.44,0,0,1-.37-.24A.32.32,0,0,0,318,87.25Z" transform="translate(0 -0.13)"/><path class="cls-6" d="M324.19,107.82a2.24,2.24,0,0,1-.19,1.83,3.42,3.42,0,0,1-1.33,1.23,7.89,7.89,0,0,1-1.57.69,8.59,8.59,0,0,1-1.6.34c-.27,0-.45,0-.5-.1s.22-.22.32-.24a11.14,11.14,0,0,0,1.23-.4,5.43,5.43,0,0,0,2.15-1.38,2,2,0,0,0,.43-2.26,2,2,0,0,0-1.63-1,4.35,4.35,0,0,0-2,.22,6.22,6.22,0,0,0-1.94,1.18,5,5,0,0,0-1.28,1.73c-.29.66-.4,1.25-.51,1.46s-.26.22-.46.14-.32-.38-.4-.74a1.47,1.47,0,0,1,.32-1.11c.26-.32.53-.72,1-1.23s.8-1.2,1.22-1.79,1.42-1.92,1.73-2.37,1-1.46,1.07-1.58.1-.24,0-.29-.19,0-.29.13-.53.34-.72.48a6.94,6.94,0,0,1-.86.5,1.34,1.34,0,0,1-.93.08,2,2,0,0,1-.75-.38c-.19-.16-.24-.54-.11-.66s.48,0,.75.1a1.39,1.39,0,0,0,1,0,9.78,9.78,0,0,0,1.52-.67,4.49,4.49,0,0,1,1-.48.87.87,0,0,1,.64.37.77.77,0,0,1,.08.75c-.08.19-.37.3-.51.4a4.34,4.34,0,0,0-.67.77c-.21.3-.78,1-1.38,1.74a22.45,22.45,0,0,0-1.66,2.34,6.51,6.51,0,0,1,1.12-.86,5,5,0,0,1,2.16-.8,4.36,4.36,0,0,1,2.48.5A2.16,2.16,0,0,1,324.19,107.82Z" transform="translate(0 -0.13)"/><path class="cls-6" d="M325.09,124.06a7.8,7.8,0,0,1-.8,2.06,2.57,2.57,0,0,1-2,1.47,2.48,2.48,0,0,1-2.32-1,3.4,3.4,0,0,1-.38-2.71,1,1,0,0,0-1-1.26,2.35,2.35,0,0,0-1.62.69,9.79,9.79,0,0,0-1.41,1.49,3.17,3.17,0,0,0-.1.3,5.9,5.9,0,0,0-.21,2.1c0,.5,0,.67-.08.74s-.29.11-.56-.06a1.16,1.16,0,0,1-.43-.85,7.89,7.89,0,0,1,.61-2,20.52,20.52,0,0,1,1.31-2.71c.32-.53.88-1.42,1.3-2s1-1.49,1.23-1.81a.53.53,0,0,0,0-.67c-.08-.13-.13-.32,0-.42s.35,0,.5,0a2,2,0,0,1,.51.48.61.61,0,0,1-.08.8A13,13,0,0,0,318.3,120a23.89,23.89,0,0,0-1.7,2.48c-.14.24-.29.53-.43.8a5.14,5.14,0,0,1,1.57-1.22,2.31,2.31,0,0,1,2.3.16c.56.48.45,1.3.32,2.27a2.21,2.21,0,0,0,.58,2.06,1.77,1.77,0,0,0,2,.14,3,3,0,0,0,1.15-1.18,11.7,11.7,0,0,0,.59-1.52c.06-.19.16-.37.27-.35S325.13,123.87,325.09,124.06Z" transform="translate(0 -0.13)"/><path class="cls-6" d="M313.79,141.91c0-.29.21-.54.56-.66a2.05,2.05,0,0,1,1.2.1,7.09,7.09,0,0,0,.83-.46c.19-.11.69-.38,1.22-.71,0-.54,0-1.23,0-2,0-.22,0-.43,0-.64a8.09,8.09,0,0,1-.85.21,2.24,2.24,0,0,1-1.1-.11,3.58,3.58,0,0,1-.67-.46c-.1-.1-.19-.27-.06-.38s.27-.08.42,0a2.32,2.32,0,0,0,.62.34,1.56,1.56,0,0,0,.9,0,4.65,4.65,0,0,0,.74-.29c0-.48,0-.86,0-1.07a8.86,8.86,0,0,0-.16-1.14,1.23,1.23,0,0,0-.53-.74.25.25,0,0,1-.06-.4c.06-.1.21-.13.46-.08a1.92,1.92,0,0,1,.7.42,1.14,1.14,0,0,1,.3.66c0,.06,0,.16,0,.29a8,8,0,0,0,.88.5,2.09,2.09,0,0,0,.86.18.38.38,0,0,1,.4.32.71.71,0,0,1-.42.74,7.77,7.77,0,0,1-1.57.71l-.08,0c0,.35,0,.69,0,.91v1.52a11.79,11.79,0,0,1,2.42-1.22,3.48,3.48,0,0,1,2.63.13,2,2,0,0,1,1.18,1.63,3.62,3.62,0,0,1-3.07,3.36,1.24,1.24,0,0,1-1.5-.82,4,4,0,0,1,0-1.73,3.7,3.7,0,0,1,.53-1.22c.16-.21.35,0,.24.18a2.36,2.36,0,0,0-.38,1.06c-.14.64,0,1.54.59,1.68a2.1,2.1,0,0,0,1.79-.61,2.5,2.5,0,0,0,.86-1.63,1.37,1.37,0,0,0-.48-1.22,2.31,2.31,0,0,0-1.62-.4,5.74,5.74,0,0,0-2.16.72l-1.07.66v1a7.2,7.2,0,0,0,.06,1,1.24,1.24,0,0,1-.18.82,1.42,1.42,0,0,1-.4.51.54.54,0,0,1-.34.06.27.27,0,0,1-.26-.13,4.88,4.88,0,0,1-.43-.62,4.78,4.78,0,0,0-.78-1,1.2,1.2,0,0,1-.27.16,2.11,2.11,0,0,1-1.18.27C314.11,142.36,313.82,142.18,313.79,141.91Zm.56-.21c0,.06.14.1.29.06a1.35,1.35,0,0,0,.53-.18C314.67,141.45,314.3,141.59,314.35,141.7Zm2,0c.27.14.5.29.7.42s.38.26.45.22.14-.21.14-.38,0-.67,0-1.18l-.42.3C316.88,141.32,316.59,141.54,316.35,141.7Zm1.87-6.39c0,.32,0,.67,0,.94,0,.1,0,.21,0,.3a5.12,5.12,0,0,0,.61-.35c.16-.1.19-.24,0-.37A4.76,4.76,0,0,1,318.22,135.31Zm7.06,1.66a.62.62,0,0,1-.85-.13,2.08,2.08,0,0,0-.75-.67,1.28,1.28,0,0,0-1-.13,1.22,1.22,0,0,0-.59.3c-.08.1-.16.14-.26.08a.23.23,0,0,1,0-.26,1.56,1.56,0,0,1,.69-.62,2.18,2.18,0,0,1,1.52-.06,2,2,0,0,1,1.18.7C325.45,136.5,325.49,136.8,325.28,137Z" transform="translate(0 -0.13)"/><path class="cls-6" d="M313.42,151.53c1.34.42,2,1,2,1.62,0,.37-.16.54-.5.54s-.38-.16-.48-.48a2.75,2.75,0,0,0-1.18-1.41Zm4.48-.58-2.29,6.32a2.75,2.75,0,0,0-.24,1,2.37,2.37,0,0,0,.1.58,5.58,5.58,0,0,1,.16,1.26c0,.62-.22,1-.67,1s-.5-.16-.5-.48c0,0,0-.22.06-.61a8.13,8.13,0,0,0,.1-1.14,1.45,1.45,0,0,0-.35-1.12,1.7,1.7,0,0,0-.86-.32V157a2.65,2.65,0,0,0,.58.06,1,1,0,0,0,.93-.51,43.94,43.94,0,0,0,2.66-5.92Zm-3.43-2.53c1.41.35,2.11.85,2.11,1.5,0,.4-.18.58-.53.58-.19,0-.35-.16-.45-.45a2.61,2.61,0,0,0-1.3-1.35Zm9.83,7.22.54-.62c.56.43.83.71.83.85a.15.15,0,0,1-.1.13l-.37.24c-.06,2.1-.29,3.47-.72,4.1a1.52,1.52,0,0,1-1.38.67.6.6,0,0,0-.43-.58,7,7,0,0,0-1.31-.32v-.38a10.07,10.07,0,0,0,1.67.14.94.94,0,0,0,1-.7,11.63,11.63,0,0,0,.35-3.17h-.94a8.65,8.65,0,0,1-5.27,5l-.24-.32a8.72,8.72,0,0,0,4.58-4.66h-1.22s0,0,0,.1,0,.08,0,.1a7.91,7.91,0,0,1-4.29,3.57l-.19-.3a8.12,8.12,0,0,0,3.67-3.46h-1.18a8.1,8.1,0,0,1-2.72,2l-.21-.29a8.29,8.29,0,0,0,3.14-3.33H317.1L317,154h7.54l.72-.85a7,7,0,0,1,.93.94l-.16.27h-5.68a6.91,6.91,0,0,1-.78,1.28Zm-4.85-6.72h3.87l.54-.67c.58.45.86.75.86.9s0,.08-.1.13l-.37.22v3.78h-.82v-.61h-4.13v.69h-.82v-4.88c.24.08.48.24.78.37Zm-.13.35v1.25h4.13v-1.25Zm4.13,3v-1.41h-4.13v1.41Z" transform="translate(0 -0.13)"/><path class="cls-6" d="M316.91,170.06c-.08.18-.29.86-.46,1.31s-.43,1.38-.64,2.06a3.4,3.4,0,0,0,0,1.66c.1.35.06.8-.18.85s-.46,0-.7-.45a5.36,5.36,0,0,1-.38-1.87,11.69,11.69,0,0,1,.08-2,17.58,17.58,0,0,1,.37-1.92,9.41,9.41,0,0,0,.26-1.82,1.79,1.79,0,0,0-.29-1.15c-.14-.22-.21-.38-.1-.53s.4,0,.56.13a2.65,2.65,0,0,1,.56.86,2.13,2.13,0,0,1,0,1.38c-.13.43-.38,1.17-.61,2a9.38,9.38,0,0,0-.21,2.1c0,.27.19.22.22.08.11-.32.37-1.07.58-1.5s.34-.61.66-1.28c.08-.18.21-.32.32-.26S317,169.87,316.91,170.06Zm7.83,5.51c-.08.18-.42.19-.62,0a12.11,12.11,0,0,0-1.1-.9,3.38,3.38,0,0,0-.53-.35c0,.14,0,.26,0,.35a1.56,1.56,0,0,1-1.25,1.31,3.61,3.61,0,0,1-2.22-.22,1.24,1.24,0,0,1-.83-1.22,1.28,1.28,0,0,1,.93-1.09,4,4,0,0,1,1.87-.19,4.91,4.91,0,0,1,.8.13c0-.38,0-.79,0-1.12,0-.53,0-1.15,0-1.87,0-.32,0-.7,0-1a4.65,4.65,0,0,1-1.34-.11,2.27,2.27,0,0,1-1.1-.58c-.29-.27-.3-.59-.22-.62s.3.08.53.22a2.33,2.33,0,0,0,.75.3,5,5,0,0,0,1.41.13,1.53,1.53,0,0,0,0-.38,12.75,12.75,0,0,0-.1-1.62c-.06-.48-.11-.64-.3-.83s-.27-.38-.18-.54.26-.16.61,0a1.22,1.22,0,0,1,.8.85,3,3,0,0,1,0,1.31,3.31,3.31,0,0,0,.8.32,2.58,2.58,0,0,1,.85.24c.14.13.11.53-.27.8a3.39,3.39,0,0,1-1.57.45c0,.4,0,.8,0,1,0,.51,0,1.41.1,2.22,0,.34,0,.71,0,1,.19.06.4.13.59.21a3.3,3.3,0,0,1,1.41.86A.9.9,0,0,1,324.73,175.57Zm-3-1.63-.24-.1a4.17,4.17,0,0,0-1.76-.14c-.48.06-1,.32-1,.8s.22.74.9.88a2,2,0,0,0,1.49-.19,1.45,1.45,0,0,0,.66-1.23Zm.83-6.23a1.75,1.75,0,0,0,0,.3c0,.16,0,.34-.06.56l.61-.18c.16,0,.16-.14,0-.21S322.8,167.9,322.57,167.71Z" transform="translate(0 -0.13)"/><path class="cls-6" d="M323.21,180.25a5.57,5.57,0,0,1,2.26,1.31,1.38,1.38,0,0,1,.43,1c0,.5-.22.72-.69.72-.24,0-.43-.18-.56-.54a5.74,5.74,0,0,0-1.62-2.21Z" transform="translate(0 -0.13)"/><path class="cls-6" d="M315,200.64a3.43,3.43,0,0,0,.85.24,4.63,4.63,0,0,0,1.39,0c.72-.08,1.18-.18,1.73-.24l.45,0c0-.43,0-.8,0-1.07a11.61,11.61,0,0,0-.11-1.36,1.19,1.19,0,0,0-.38-.82c-.24-.19-.38-.56-.27-.71s.53-.1.86,0a1.64,1.64,0,0,1,.75.51.74.74,0,0,1,.16.64,2.26,2.26,0,0,0,0,.46,7.61,7.61,0,0,0,0,1.19c0,.24,0,.59,0,1,.1,0,.19,0,.29,0,.62-.06,1.34-.11,1.79-.19a7,7,0,0,1,1.23-.14,1.86,1.86,0,0,1,1,.32.71.71,0,0,1,.3.54c0,.14-.32.14-.8.13s-1.17,0-2-.06a15.26,15.26,0,0,0-1.87.06c0,.5-.06,1-.11,1.46a8.72,8.72,0,0,1-.46,2.26,7.75,7.75,0,0,1-1.12,2.1,9.18,9.18,0,0,1-1.3,1.42c-.21.19-.48.37-.58.24s.06-.26.27-.45a8.44,8.44,0,0,0,1.17-1.68,7.82,7.82,0,0,0,.91-2.58,21.74,21.74,0,0,0,.24-2.45v-.24c-.88.06-1.49.16-1.89.21a18.14,18.14,0,0,1-1.86.27,1.25,1.25,0,0,1-1.17-.37c-.26-.3-.29-.56-.13-.69S314.79,200.57,315,200.64Z" transform="translate(0 -0.13)"/><path class="cls-6" d="M318.52,217.93c0,.29,0,1.54,0,2.1a16.83,16.83,0,0,0,.08,2c.08.53.19,1,.29,1.41s0,1-.35,1.07a1,1,0,0,1-.93-.66,2.25,2.25,0,0,1-.11-1.34c.08-.43.14-1,.21-1.73s.1-1.71.11-2.58.08-1.62.11-2.3a8.2,8.2,0,0,0-.06-1.6,1.37,1.37,0,0,0-.46-.94c-.24-.21-.37-.48-.24-.64s.42-.14.66-.08a1.26,1.26,0,0,1,.77.51,1.31,1.31,0,0,1,.06.88c0,.26-.08.69-.11,1.18s0,1.07,0,1.7c0,.21.19.21.34.22a4.35,4.35,0,0,1,1.76.37,4.23,4.23,0,0,1,1.55,1.1c.46.5.75,1.34.13,1.58s-1-.5-1.31-1.09a3.25,3.25,0,0,0-1.1-1.23,2.42,2.42,0,0,0-1.07-.38C318.59,217.48,318.52,217.62,318.52,217.93Z" transform="translate(0 -0.13)"/><path class="cls-6" d="M316.23,240a11.36,11.36,0,0,0,1.46-.59,6.77,6.77,0,0,0,2.21-1.6,5.75,5.75,0,0,0,1.34-2.45,10.91,10.91,0,0,0,.34-2.77,19.18,19.18,0,0,0-.11-2.3,1.07,1.07,0,0,0-.43-.85c-.22-.19-.4-.37-.24-.56s.4-.21.94,0a1.79,1.79,0,0,1,.66.38.66.66,0,0,1,.3.61,3.37,3.37,0,0,0-.06.59c0,.37,0,1.07,0,2a8.22,8.22,0,0,1-.5,3.09,6.48,6.48,0,0,1-1.42,2.29,7.66,7.66,0,0,1-2,1.5,11.06,11.06,0,0,1-2.43.88c-.24.06-.4,0-.43-.06S316.06,240.09,316.23,240Zm2.56-9a15.49,15.49,0,0,0,0,1.78c0,.9,0,1.81.08,2.26a1.59,1.59,0,0,1-.27,1,.35.35,0,0,1-.56.08c-.13-.14-.19-.35-.16-.91s0-1.42.08-2.32,0-1.34,0-1.86a.89.89,0,0,0-.37-.86c-.21-.16-.42-.3-.35-.48s.24-.18.62-.11a1.59,1.59,0,0,1,.94.53C319.05,230.39,318.86,230.71,318.8,231Z" transform="translate(0 -0.13)"/><path class="cls-6" d="M315.32,256.37c-.24,0-.42,0-.45-.13s.1-.19.37-.24a9.93,9.93,0,0,0,1.6-.37,7.46,7.46,0,0,0,2.71-1.55,8.19,8.19,0,0,0,1.76-2.31,7.34,7.34,0,0,0,.7-2,5,5,0,0,0,.1-1.58.28.28,0,0,0-.35-.3c-.66.06-1.73.13-2.23.13s-1.46,0-1.57,0-.11.08-.11.14c0,.37.1.67.16,1.12a2.2,2.2,0,0,1,.06.82c0,.24-.14.4-.29.43a.5.5,0,0,1-.43-.14c-.22-.16-.26-.45-.29-.78,0-.59-.08-1.31-.13-1.63a1,1,0,0,0-.26-.67c-.16-.13-.3-.29-.21-.43s.45-.11.69,0a1.44,1.44,0,0,1,.51.38.56.56,0,0,0,.29.18h.72c.19,0,.37,0,.53,0,0-.26,0-.77,0-1.07s-.06-.75-.29-.91-.37-.38-.29-.53a.45.45,0,0,1,.5-.1,1.76,1.76,0,0,1,.78.38c.27.24.11.59,0,.91a12.09,12.09,0,0,0-.08,1.28,3,3,0,0,0,.35,0l1.26-.06a2.88,2.88,0,0,0,.93-.27A.62.62,0,0,1,323,247a2.28,2.28,0,0,1,.59.43.34.34,0,0,1,0,.54,1.34,1.34,0,0,0-.37.83A6.52,6.52,0,0,1,323,250a7.85,7.85,0,0,1-1.31,2.79,9.81,9.81,0,0,1-2.32,2.23,8.47,8.47,0,0,1-2.45,1.12,7.11,7.11,0,0,1-1.6.26Z" transform="translate(0 -0.13)"/><path class="cls-6" d="M324.41,268.94c.46.75.74,1.74.11,1.94s-1-.5-1.33-1.44a2.8,2.8,0,0,0-.13-.34l-2.54.62c-.7.18-2.42.58-2.93.67a1.89,1.89,0,0,0-1.25.66,1,1,0,0,1-.62.3,1.75,1.75,0,0,1-1-.42,1.16,1.16,0,0,1-.43-1c0-.26.32-.22.69-.26s.56-.35,1-1.06.75-1.36,1.33-2.35a25.48,25.48,0,0,0,1.41-2.74,1.4,1.4,0,0,0-.18-1.25c-.14-.22-.29-.45-.14-.54s.61-.1,1,.21a1.28,1.28,0,0,1,.53,1,1.52,1.52,0,0,1-.45,1c-.26.38-1.15,1.86-1.63,2.64s-1.5,2.54-1.6,2.72,0,.24.11.24a10.94,10.94,0,0,0,1.1-.16c.62-.14,2.11-.37,2.85-.5s1.63-.32,2.47-.45a5,5,0,0,0-.91-1.19c-.21-.19-.35-.37-.26-.46s.32,0,.72.19A6.56,6.56,0,0,1,324.41,268.94Z" transform="translate(0 -0.13)"/><path class="cls-6" d="M320.35,281.9a1,1,0,0,1,.29.7.93.93,0,0,1-.14.54,1,1,0,0,1-.9.5,1,1,0,0,1-.66-.24,1,1,0,0,1-.38-.8,1,1,0,0,1,.45-.85,1,1,0,0,1,.59-.19A1,1,0,0,1,320.35,281.9Z" transform="translate(0 -0.13)"/><path class="cls-6" d="M314.28,304.34a8.73,8.73,0,0,0,.91-.7,11.43,11.43,0,0,0,2-2.16,11.7,11.7,0,0,0,1.23-2.4,18.1,18.1,0,0,0,.56-1.73l-1.09.13a9.46,9.46,0,0,1-1.14.11,2.22,2.22,0,0,1-1.25-.4c-.32-.29-.43-.58-.34-.72s.58-.08.86,0a6,6,0,0,0,1.47.19c.61,0,1.1,0,1.63-.06a.05.05,0,0,0,0,0,15.93,15.93,0,0,0,.24-1.83,1.57,1.57,0,0,0-.27-.94c-.16-.22-.24-.43-.18-.56s.3-.13.66,0a1.49,1.49,0,0,1,.74.46.6.6,0,0,1,.14.63,2.13,2.13,0,0,0-.14.56c-.11.56-.18,1.09-.29,1.63.4,0,.8-.1,1.22-.16a7.88,7.88,0,0,0,1.23-.24,2,2,0,0,0,.67-.35c.14-.13.37-.14.64.06a2,2,0,0,1,.59.67.42.42,0,0,1-.1.46.92.92,0,0,0-.19.42l-.16,1.31c-.1.67-.22,1.33-.43,2.26a5.81,5.81,0,0,1-.67,1.81c-.24.37-.46.46-.72.4s-.29-.18-.38-.46a1.8,1.8,0,0,0-.46-.74,2.93,2.93,0,0,0-.75-.58c-.14-.08-.22-.19-.19-.27s.16-.1.34,0,.58.19,1,.32.69.08.83-.22a5,5,0,0,0,.4-1.39,20.56,20.56,0,0,0,.29-2.3c0-.3,0-.48,0-.53a.92.92,0,0,0-.3-.13,1.17,1.17,0,0,0-.34,0c-.1,0-.26.06-.75.14s-1,.13-1.92.26c0,.13-.1.26-.14.42a18.35,18.35,0,0,1-1.06,2.37,12.12,12.12,0,0,1-1.33,2.07,9.9,9.9,0,0,1-1.86,1.81,7.12,7.12,0,0,1-1.07.66C314.2,304.65,314.07,304.47,314.28,304.34Z" transform="translate(0 -0.13)"/><path class="cls-6" d="M315.27,318.7a5.9,5.9,0,0,1-1.42,1c-.24.1-.43.16-.5.06s.1-.19.26-.3a5.34,5.34,0,0,0,1.14-.87,6.94,6.94,0,0,0,1.33-1.81,9.12,9.12,0,0,0,.8-2.11,11,11,0,0,0,.34-2c0-.77,0-1.14-.37-1.44s-.35-.4-.24-.54.29-.16.66-.06a1.78,1.78,0,0,1,1,.61c.3.34.29.58.19.72a.78.78,0,0,0-.16.45,13.6,13.6,0,0,1-.21,1.73,7.55,7.55,0,0,1-1.06,2.67A9.48,9.48,0,0,1,315.27,318.7Zm4.61-2.26c.14-.16.19-.32.19-.82s0-1.46,0-2.34,0-1.54,0-2.07a1.1,1.1,0,0,0-.42-1.09c-.32-.24-.42-.5-.32-.64a.52.52,0,0,1,.53-.1,2.36,2.36,0,0,1,.94.4.68.68,0,0,1,.32.88,5.94,5.94,0,0,0-.18,2c0,1.34-.06,2.48-.08,2.85s0,.46.24.46a2.22,2.22,0,0,0,1-.45,10.19,10.19,0,0,0,1.52-1.14c.61-.53,1.15-1,1.46-1.33s.59-.51.69-.4,0,.3-.35.7-1.18,1.31-2,2a18.4,18.4,0,0,1-2,1.65,2.12,2.12,0,0,1-1.06.54.89.89,0,0,1-.7-.45C319.61,316.89,319.68,316.68,319.88,316.44Z" transform="translate(0 -0.13)"/><path class="cls-6" d="M314,329.55c0-.22.58-.16,1-.14a4.13,4.13,0,0,1,1.34.27,2.32,2.32,0,0,1,.83.58.64.64,0,0,1,0,1,.69.69,0,0,1-.91-.24,3.84,3.84,0,0,0-.85-.75,2.71,2.71,0,0,0-1.07-.46C314.07,329.69,314,329.68,314,329.55Zm4.45-1.73a.67.67,0,0,1,.13.91.65.65,0,0,1-.85,0,3.91,3.91,0,0,1-.86-.77,2.37,2.37,0,0,0-1.46-.85c-.24,0-.35-.11-.35-.21s.24-.18.43-.18a4.67,4.67,0,0,1,.72,0,6,6,0,0,1,1.17.32A2.82,2.82,0,0,1,318.43,327.82Zm6.45.16a16.67,16.67,0,0,1-1.62,2.11c-.64.7-1,1-2,2a17.92,17.92,0,0,1-3.07,2.3,3.6,3.6,0,0,1-1.73.66,1.1,1.1,0,0,1-1-.69c-.16-.34-.21-.72,0-.82s.3,0,.51.13a1.28,1.28,0,0,0,.75.26,5,5,0,0,0,2.08-.93,18.57,18.57,0,0,0,2-1.44,15.43,15.43,0,0,0,2.1-1.89c.58-.66,1.25-1.55,1.5-1.92s.54-.75.69-.66S325.23,327.45,324.88,328Z" transform="translate(0 -0.13)"/><path class="cls-6" d="M315.32,352.37c-.24,0-.42,0-.45-.13s.1-.19.37-.24a9.93,9.93,0,0,0,1.6-.37,7.46,7.46,0,0,0,2.71-1.55,8.19,8.19,0,0,0,1.76-2.31,7.34,7.34,0,0,0,.7-2,5,5,0,0,0,.1-1.58.28.28,0,0,0-.35-.3c-.66.06-1.73.13-2.23.13s-1.46,0-1.57,0-.11.08-.11.14c0,.37.1.67.16,1.12a2.2,2.2,0,0,1,.06.82c0,.24-.14.4-.29.43a.5.5,0,0,1-.43-.14c-.22-.16-.26-.45-.29-.78,0-.59-.08-1.31-.13-1.63a1,1,0,0,0-.26-.67c-.16-.13-.3-.29-.21-.43s.45-.11.69,0a1.44,1.44,0,0,1,.51.38.56.56,0,0,0,.29.18h.72c.19,0,.37,0,.53,0,0-.26,0-.77,0-1.07s-.06-.75-.29-.91-.37-.38-.29-.53a.45.45,0,0,1,.5-.1,1.76,1.76,0,0,1,.78.38c.27.24.11.59,0,.91a12.09,12.09,0,0,0-.08,1.28,3,3,0,0,0,.35,0l1.26-.06a2.88,2.88,0,0,0,.93-.27A.62.62,0,0,1,323,343a2.28,2.28,0,0,1,.59.43.34.34,0,0,1,0,.54,1.34,1.34,0,0,0-.37.83A6.52,6.52,0,0,1,323,346a7.85,7.85,0,0,1-1.31,2.79,9.81,9.81,0,0,1-2.32,2.23,8.47,8.47,0,0,1-2.45,1.12,7.11,7.11,0,0,1-1.6.26Z" transform="translate(0 -0.13)"/><path class="cls-6" d="M324.41,364.94c.46.75.74,1.74.11,1.94s-1-.5-1.33-1.44a2.8,2.8,0,0,0-.13-.34l-2.54.62c-.7.18-2.42.58-2.93.67a1.89,1.89,0,0,0-1.25.66,1,1,0,0,1-.62.3,1.75,1.75,0,0,1-1-.42,1.16,1.16,0,0,1-.43-1c0-.26.32-.22.69-.26s.56-.35,1-1.06.75-1.36,1.33-2.35a25.48,25.48,0,0,0,1.41-2.74,1.4,1.4,0,0,0-.18-1.25c-.14-.22-.29-.45-.14-.54s.61-.1,1,.21a1.28,1.28,0,0,1,.53,1,1.52,1.52,0,0,1-.45,1c-.26.38-1.15,1.86-1.63,2.64s-1.5,2.54-1.6,2.72,0,.24.11.24a10.94,10.94,0,0,0,1.1-.16c.62-.14,2.11-.37,2.85-.5s1.63-.32,2.47-.45a5,5,0,0,0-.91-1.19c-.21-.19-.35-.37-.26-.46s.32,0,.72.19A6.56,6.56,0,0,1,324.41,364.94Z" transform="translate(0 -0.13)"/><path class="cls-6" d="M320.35,377.9a1,1,0,0,1,.29.7.93.93,0,0,1-.14.54,1,1,0,0,1-.9.5,1,1,0,0,1-.66-.24,1,1,0,0,1-.38-.8,1,1,0,0,1,.45-.85,1,1,0,0,1,.59-.19A1,1,0,0,1,320.35,377.9Z" transform="translate(0 -0.13)"/><path class="cls-6" d="M319.05,388.19c.86.21,1.3.42,1.3.59s-.21.24-.62.3c-.18.5-.34.86-.45,1.14h4.82l.67-.91a6,6,0,0,1,.93,1l-.14.29H319.1a8.73,8.73,0,0,1-1.86,2.56l-.26-.22c.08-.1.19-.26.34-.46h-1.6v4.83l.06,0c.58-.24,1.09-.43,1.52-.62l0,.38a30.27,30.27,0,0,1-3.49,1.73c0,.37-.13.54-.26.54s-.45-.4-.67-1.2q1.22-.31,2-.53v-5.12h-1.74l-.13-.35h1.87v-3.75c.94,0,1.41.14,1.41.37s-.19.26-.59.4v3h.62l.58-.88a5.7,5.7,0,0,1,.67.8A15.24,15.24,0,0,0,319.05,388.19Zm5.7,12.08h.43l.53-1a9.39,9.39,0,0,1,.62,1l-.16.29H316.11l-.19-.35h1.94v-4.4a8.75,8.75,0,0,1,.91.48h5.06l.56-.59c.53.4.8.67.8.8a.17.17,0,0,1-.08.14l-.35.27Zm-1.55-8.2.58-.61c.5.38.77.64.77.77s0,.11-.13.18l-.29.21v2.69h-.78v-.56h-4v.66h-.78v-3.78a6.83,6.83,0,0,1,.94.45Zm-4.55,4.63v3.57h1.18V396.7Zm.72-4.27v2h4v-2Zm2.46,4.27h-1.18v3.57h1.18Zm.83,0v3.57h1.28V396.7Z" transform="translate(0 -0.13)"/><path class="cls-6" d="M317.19,408.81c0,.14-.19.27-.58.4v7.91h-.85v-7.57a19.93,19.93,0,0,1-2.26,3l-.3-.24a23.93,23.93,0,0,0,3.87-8.07c.91.24,1.38.46,1.38.67s-.22.24-.67.3a28.64,28.64,0,0,1-1.41,3.22C316.92,408.53,317.19,408.64,317.19,408.81Zm3.41,1.63a.42.42,0,0,0,.18-.08,14.25,14.25,0,0,0,3.62-3.23c.72.5,1.07.86,1.07,1.06s-.1.16-.3.16a2.81,2.81,0,0,1-.45-.06A19.22,19.22,0,0,1,320.6,411v4.45a.5.5,0,0,0,.24.5c.18,0,.72,0,1.7,0a9.63,9.63,0,0,0,1.76-.1c.43-.14.69-1.15.8-3l.38.18a9.18,9.18,0,0,0,.16,2.37.44.44,0,0,0,.45.29.84.84,0,0,1-.62.88,16.38,16.38,0,0,1-3,.14,5.36,5.36,0,0,1-2.47-.3,1.21,1.21,0,0,1-.24-.88V404.38c1,0,1.49.18,1.49.4s-.21.26-.62.42Z" transform="translate(0 -0.13)"/><path class="cls-6" d="M316.3,423.95v3.42c.86-.24,1.6-.43,2.21-.64l0,.37-2.21.86-.1,0v5.12h-.82v-4.83c-.53.18-1.06.34-1.55.48,0,.35-.13.51-.26.51s-.4-.42-.62-1.23c.85-.14,1.68-.29,2.48-.48v-3.62h-1.15a13.73,13.73,0,0,1-1,3.09l-.34-.13a21.66,21.66,0,0,0,.72-5.87c.86,0,1.3.18,1.3.35s-.14.22-.46.34a17.92,17.92,0,0,1-.21,1.86h1.1V420.2c.91,0,1.38.13,1.38.32s-.19.26-.56.42v2.64h.75l.61-.93a7.66,7.66,0,0,1,.78,1l-.16.26Zm7.25-.43a16,16,0,0,1-1.22,4.43,11,11,0,0,1-4.39,4.75l-.26-.27a12.62,12.62,0,0,0,5-8.92h-1.09a10.33,10.33,0,0,1-4.13,6.39l-.26-.26a11.25,11.25,0,0,0,3.55-6.13h-1.17a12.57,12.57,0,0,1-1.87,3.06l-.3-.19a14.84,14.84,0,0,0,2.22-6.21c.88.16,1.33.34,1.33.54s-.19.21-.54.3a18,18,0,0,1-.69,2.14h4.71l.51-.67c.59.45.88.75.88.91s0,.14-.16.21l-.32.19c0,4.19-.26,6.91-.7,8.15a1.66,1.66,0,0,1-1.78,1.07c0-.29-.14-.48-.48-.61a9.15,9.15,0,0,0-1.5-.38v-.38a13,13,0,0,0,2,.19,1,1,0,0,0,1-.64c.4-1.25.58-3.81.59-7.68Z" transform="translate(0 -0.13)"/><path class="cls-6" d="M317.31,443.74l.48-.62c.59.5.88.83.88,1s0,.1-.13.14l-.34.14a9.18,9.18,0,0,1-4.9,4l-.22-.32a8.85,8.85,0,0,0,4.26-4h-3.47l-.14-.37Zm1.92-1.54h-3v.69h-.82v-5.38a7.17,7.17,0,0,1,.94.45h2a6.88,6.88,0,0,0,.56-1.87c1,.19,1.46.38,1.46.56s-.22.22-.64.29a7.36,7.36,0,0,1-.88,1h4l.56-.66c.59.45.88.74.88.86a.33.33,0,0,1-.14.22l-.35.26v4.16H323v-.61h-2.87a8.08,8.08,0,0,0,1.94,2.9,13,13,0,0,0,2.1-2.51c.7.48,1.06.82,1.06,1s-.11.16-.34.16l-.34,0a16.57,16.57,0,0,1-2.18,1.68,12.38,12.38,0,0,0,3.67,2,2.47,2.47,0,0,0-.69.91,9.45,9.45,0,0,1-5.25-5.25v4.85a1.12,1.12,0,0,1-.35.94,1.89,1.89,0,0,1-1.18.29.64.64,0,0,0-.43-.59,6.61,6.61,0,0,0-1.36-.34v-.38a14.49,14.49,0,0,0,2.06.14.38.38,0,0,0,.43-.43Zm3.73-2.38v-1.49h-6.77v1.49Zm0,2v-1.65h-6.77v1.65Z" transform="translate(0 -0.13)"/><path class="cls-6" d="M325.13,458.09a6.16,6.16,0,0,1-.21,2.21,3.55,3.55,0,0,1-1.55,2,7.41,7.41,0,0,1-2.64,1,6.88,6.88,0,0,1-2.58,0c-.16,0-.24-.08-.22-.16s.1-.14.22-.13a7.83,7.83,0,0,0,.85,0,8,8,0,0,0,1.92-.27,7.08,7.08,0,0,0,2-.94,3.64,3.64,0,0,0,1.38-2.27,5.65,5.65,0,0,0-.21-2.64,3.34,3.34,0,0,0-1.41-2,4.52,4.52,0,0,0-2.79-.59l-.42.06c0,.32,0,.83,0,1.23a10.57,10.57,0,0,1-.24,2.19,7.09,7.09,0,0,1-1.12,2.82A2.87,2.87,0,0,1,316,462a1.77,1.77,0,0,1-1.63-1.22,3.45,3.45,0,0,1-.21-2.38,4.81,4.81,0,0,1,1.07-2.22,6.79,6.79,0,0,1,2-1.68,6.55,6.55,0,0,1,3-.7,5.05,5.05,0,0,1,2.54.67,4.69,4.69,0,0,1,1.68,1.68A4.27,4.27,0,0,1,325.13,458.09ZM319,454.52a6.45,6.45,0,0,0-2,.93,5.35,5.35,0,0,0-1.9,2.35,3.81,3.81,0,0,0-.13,2.43c.22.54.77.66,1.41.45a2.84,2.84,0,0,0,1.62-1.31,6.17,6.17,0,0,0,.93-2.58A11.45,11.45,0,0,0,319,454.52Z" transform="translate(0 -0.13)"/><path class="cls-6" d="M313.55,480.74l-.21-.34c3.43-1.09,5.31-3.17,5.7-6.28h-4.85l-.16-.35h5.06c0-.45,0-.7,0-.82v-2.79h-5.35l-.16-.37h10.05l.85-1a10,10,0,0,1,1.14,1.09l-.18.3H320V473c0,.19,0,.46,0,.82h3.3l.82-1a11.09,11.09,0,0,1,1.07,1.06l-.16.3h-4.87a10.14,10.14,0,0,0,6,5.54,2.68,2.68,0,0,0-.78.86,10.39,10.39,0,0,1-5.41-5.94C319.36,477.81,317.23,479.86,313.55,480.74Z" transform="translate(0 -0.13)"/><path class="cls-6" d="M321.15,487.9c0-.51.08-1,.08-1.39v-2.16c.9,0,1.34.13,1.34.34s-.18.26-.54.38v1.44c0,.56,0,1-.06,1.39h2.4l.62-.85c.3.3.59.61.86.93l-.16.27h-3.51a8.82,8.82,0,0,0,3.83,4.27,3,3,0,0,0-.7.82,8.87,8.87,0,0,1-3.44-4.77,6.2,6.2,0,0,1-1.34,3.1,7.49,7.49,0,0,1-2.56,1.79l-.19-.34a6.47,6.47,0,0,0,2.72-2.74,8.08,8.08,0,0,0,.61-2.15H319a11.5,11.5,0,0,1-5.39,5.78l-.21-.32a12,12,0,0,0,5.3-7.23h-2.24c-.16.32-.34.64-.5,1,1.17.46,1.74.94,1.74,1.5a.38.38,0,0,1-.42.43c-.19,0-.34-.14-.43-.4a3,3,0,0,0-1.09-1.22,13.9,13.9,0,0,1-.78,1.15c1.07.59,1.62,1.17,1.62,1.75,0,.32-.14.46-.42.46s-.34-.14-.43-.46a3.74,3.74,0,0,0-1-1.46,13.1,13.1,0,0,1-1.41,1.44l-.24-.27a13.67,13.67,0,0,0,3.14-6.07c.88.24,1.33.46,1.33.63s-.22.22-.64.29a8.89,8.89,0,0,1-.32.9h2l.53-.64c.56.5.85.83.85,1s-.06.13-.14.18l-.37.18c-.13.42-.24.78-.37,1.1Zm-5.25,5.88a5,5,0,0,1-1,2.82,1.26,1.26,0,0,1-.93.56.46.46,0,0,1-.51-.53c0-.16.16-.34.46-.53a4.22,4.22,0,0,0,1.67-2.43Zm1.74-.16a4,4,0,0,1,1.07,2.43c0,.56-.21.83-.59.83s-.4-.16-.4-.5v-.1a3.75,3.75,0,0,0,0-.46,6.15,6.15,0,0,0-.38-2.06Zm2.61-.06c1.22.95,1.84,1.83,1.84,2.64q0,.67-.58.67c-.27,0-.42-.19-.46-.58a5.32,5.32,0,0,0-1.06-2.51Zm2.66-8.72c1.09.54,1.65,1.1,1.65,1.68,0,.37-.18.54-.51.54s-.35-.16-.42-.46a2.78,2.78,0,0,0-.93-1.52Zm.19,8.67a7,7,0,0,1,2.19,1.62,1.57,1.57,0,0,1,.51,1.07c0,.4-.19.61-.53.61s-.43-.19-.56-.58a6,6,0,0,0-1.83-2.46Z" transform="translate(0 -0.13)"/><path class="cls-6" d="M313.21,503.55c1.25.42,1.84,1,1.84,1.62,0,.37-.14.54-.46.54s-.4-.18-.48-.51A2.43,2.43,0,0,0,313,503.8Zm4-.61-2,6.34a4.11,4.11,0,0,0-.21,1.07,2.72,2.72,0,0,0,.06.45,10,10,0,0,1,.18,1.42c0,.58-.19.86-.61.86a.45.45,0,0,1-.5-.51s0-.3.08-.85a7,7,0,0,0,.06-.87,1.43,1.43,0,0,0-.42-1.18,1.53,1.53,0,0,0-.69-.26V509a2,2,0,0,0,.51.06.89.89,0,0,0,.85-.51,43.59,43.59,0,0,0,2.32-5.89Zm-3-2.48c1.3.4,2,.91,2,1.58,0,.35-.16.54-.5.54-.18,0-.34-.16-.43-.46a2.9,2.9,0,0,0-1.18-1.41Zm10.5,11.73h.5l.58-1s.1.13.26.37.35.56.42.69l-.16.29H315.91l-.18-.37h1.54V507a10.21,10.21,0,0,1,1,.51h5.43l.58-.66c.59.45.88.74.88.86a.18.18,0,0,1-.11.16l-.37.22ZM323,501.07l.53-.64c.58.45.88.74.88.88s0,.11-.14.18l-.34.19v4.82h-.83v-.66h-4.35v.78h-.83v-6a3.87,3.87,0,0,1,.9.45Zm-4.95,6.83v4.29h1.36V507.9Zm.69-6.47v1.79h4.35v-1.79Zm4.35,4v-1.91h-4.35v1.91Zm-1.52,2.42h-1.38v4.29h1.38Zm.8,0v4.29h1.46V507.9Z" transform="translate(0 -0.13)"/><path class="cls-6" d="M317.31,523.74l.48-.62c.59.5.88.83.88,1s0,.1-.13.14l-.34.14a9.18,9.18,0,0,1-4.9,4l-.22-.32a8.85,8.85,0,0,0,4.26-4h-3.47l-.14-.37Zm1.92-1.54h-3v.69h-.82v-5.38a7.17,7.17,0,0,1,.94.45h2a6.88,6.88,0,0,0,.56-1.87c1,.19,1.46.38,1.46.56s-.22.22-.64.29a7.36,7.36,0,0,1-.88,1h4l.56-.66c.59.45.88.74.88.86a.33.33,0,0,1-.14.22l-.35.26v4.16H323v-.61h-2.87a8.08,8.08,0,0,0,1.94,2.9,13,13,0,0,0,2.1-2.51c.7.48,1.06.82,1.06,1s-.11.16-.34.16l-.34,0a16.57,16.57,0,0,1-2.18,1.68,12.38,12.38,0,0,0,3.67,2,2.47,2.47,0,0,0-.69.91,9.45,9.45,0,0,1-5.25-5.25v4.85a1.12,1.12,0,0,1-.35.94,1.89,1.89,0,0,1-1.18.29.64.64,0,0,0-.43-.59,6.61,6.61,0,0,0-1.36-.34v-.38a14.49,14.49,0,0,0,2.06.14.38.38,0,0,0,.43-.43Zm3.73-2.38v-1.49h-6.77v1.49Zm0,2v-1.65h-6.77v1.65Z" transform="translate(0 -0.13)"/><path class="cls-6" d="M314.68,536.21c-.21-.21-.38-.59-.22-.77s.4,0,.61,0a2,2,0,0,0,.94.16,8.62,8.62,0,0,0,1.9-.45c.5-.14,1.6-.5,2.59-.75s2.06-.53,2.58-.61a2.49,2.49,0,0,1,1.42.14c.26.16.42.45.32.64s-.3.19-.56.14a9,9,0,0,0-1-.13,15.72,15.72,0,0,0-1.78.19l-.11,0c-.21.18-.54.42-.82.66a3.29,3.29,0,0,0-.9,1.2,7.66,7.66,0,0,0-.34,1.63,9.23,9.23,0,0,0,0,2.53,1.64,1.64,0,0,0,.62,1.2,1.86,1.86,0,0,0,1.3.32,4,4,0,0,1,1.14,0,1.24,1.24,0,0,1,.66.46c.13.19,0,.43-.35.46a9.89,9.89,0,0,1-1.55,0,3,3,0,0,1-1.73-.62,2.16,2.16,0,0,1-.72-1.47,8.51,8.51,0,0,1,0-2.3A19.46,19.46,0,0,1,319,537a2.7,2.7,0,0,1,.7-1.3,6.46,6.46,0,0,1,.77-.66,6.31,6.31,0,0,0-.83.26c-.59.22-1.54.63-2,.82a6.83,6.83,0,0,1-1.66.51A1.56,1.56,0,0,1,314.68,536.21Zm8.44,1.1a5.45,5.45,0,0,0-.93-.75c-.13-.1-.21-.21-.13-.32s.19-.06.27,0a2.9,2.9,0,0,1,.86.19,1.81,1.81,0,0,1,1,.66.39.39,0,0,1-.22.58A1,1,0,0,1,323.12,537.31Zm1.28-.67a2.48,2.48,0,0,0-1-.66c-.14-.06-.21-.21-.14-.3s.18-.06.27-.06a2.42,2.42,0,0,1,.88.14,2,2,0,0,1,1,.59.38.38,0,0,1-.21.59A.83.83,0,0,1,324.4,536.64Z" transform="translate(0 -0.13)"/><path class="cls-6" d="M325.45,552.1c-.13.14-.45.1-.66,0a9.27,9.27,0,0,0-1.39-.24,18.89,18.89,0,0,0-1.89-.08c-.29,0-.59,0-.88,0,0,.35,0,.86,0,1.26s.06.66.1,1.07a2.51,2.51,0,0,1,.21.75,4.06,4.06,0,0,1,0,1.58c0,.21-.13.72-.24,1.38a4.34,4.34,0,0,1-1,1.89,2.46,2.46,0,0,1-1.38.77c-.26,0-.43,0-.45-.08s.21-.18.37-.24a3.19,3.19,0,0,0,1.18-.85A3.12,3.12,0,0,0,320,558c0-.29,0-.7,0-1.1a1.32,1.32,0,0,1-.53.45c-.56.18-1.06-.18-1.44-.77a3,3,0,0,1-.48-1.91c0-.77.29-1.2.66-1.36a2,2,0,0,1,1.42,0l.26.14c0-.46,0-.93,0-1.34v-.21l-1,.08c-.66,0-1.31.22-1.89.32a16.88,16.88,0,0,1-2,.34,1.25,1.25,0,0,1-1.14-.4c-.24-.26-.24-.53-.1-.66a.46.46,0,0,1,.53,0,3.45,3.45,0,0,0,1.1.24,3.65,3.65,0,0,0,1.3-.08c.37,0,.94-.16,1.47-.22s1.22-.19,1.73-.27c0-.3-.06-.59-.1-.8a4.87,4.87,0,0,0-.37-1.15c-.14-.32-.18-.58,0-.67s.46,0,.82.22a.9.9,0,0,1,.35.43l.1.06.69.56a11.17,11.17,0,0,0,1.33.78,6.81,6.81,0,0,0,1.15.48c.29.08.78.19,1.22.34S325.57,551.94,325.45,552.1Zm-5.52,3.06c0-.16,0-.34-.08-.54a1.14,1.14,0,0,0-1.18-.88.76.76,0,0,0-.7.79,3.26,3.26,0,0,0,.29,1.46,1.18,1.18,0,0,0,.93.58c.24,0,.45-.18.61-.58A2.26,2.26,0,0,0,319.93,555.16Zm2.16-4.15c-.26-.18-.66-.51-.83-.66l-.54-.43c0,.32,0,.85,0,1.18A6.82,6.82,0,0,1,322.09,551Z" transform="translate(0 -0.13)"/><path class="cls-6" d="M325.33,564.28a1.68,1.68,0,0,1,.88,1.52,1.77,1.77,0,0,1-2.58,1.62,1.77,1.77,0,0,1-.18-3.12,1.72,1.72,0,0,1,.94-.29A1.75,1.75,0,0,1,325.33,564.28Zm-1.87.64a1.26,1.26,0,0,0-.34.88,1.37,1.37,0,0,0,.19.7,1.23,1.23,0,0,0,1.1.59,1.3,1.3,0,0,0,1.3-1.3,1.22,1.22,0,0,0-.56-1,1.28,1.28,0,0,0-.74-.26A1.32,1.32,0,0,0,323.45,564.92Z" transform="translate(0 -0.13)"/></g></g></svg>