<svg xmlns="http://www.w3.org/2000/svg" xmlns:xlink="http://www.w3.org/1999/xlink" viewBox="0 0 763.19 600.28"><defs><style>.cls-1{fill:none;}.cls-2{clip-path:url(#clip-path);}.cls-3{opacity:0.31;}.cls-4{fill:#d48050;}.cls-5{fill:#527c68;}.cls-6{fill:#333;}</style><clipPath id="clip-path" transform="translate(0 -0.13)"><rect class="cls-1" x="252.09" width="281" height="601"/></clipPath></defs><title>Asset 18</title><g id="Layer_2" data-name="Layer 2"><g id="back"><g class="cls-2"><image class="cls-3" width="632" height="421" transform="translate(0) scale(1.21 1.43)" xlink:href="../../../190325 2/190325/design_underA/Links/BGT046_7.JPG"/></g></g><g id="text"><path class="cls-4" d="M449.34,32.3V28.85h-5.4l-.25-.83h5.65V23.77c2.05,0,3.06.29,3.06.68s-.43.5-1.3.79V28h2.74l1.33-1.87a15.05,15.05,0,0,1,1.8,2.12l-.36.58H451.1V32.3h2.09l1-1.33c1.15.94,1.73,1.55,1.73,1.87a.39.39,0,0,1-.14.32l-.72.47v9.43h-1.69V41.91H451.1v3.92h2.74l1.37-1.91a16.87,16.87,0,0,1,1.91,2.16l-.32.58H451.1v6.16h-1.76V46.66H443.9l-.18-.83h5.62V41.91h-2.2v1.33h-1.69v-12c.83.47,1.4.86,1.76,1.08Zm4,4.28V33.13h-6.23v3.46Zm0,.79h-6.23v3.74h6.23Zm15-2.92,1-1.37c1.26.9,1.84,1.51,1.84,1.8s-.07.25-.25.36l-.65.47v4.75h-1.76v-1h-2.2V42.6h2.77L470.54,41a16.56,16.56,0,0,1,1.76,1.8l-.36.61h-5.51V47.2h3.89l1.4-1.76a12.35,12.35,0,0,1,1.84,2l-.36.61h-6.77v4.79H464.6V48h-8.67l-.32-.83h2.81V41.59a20.37,20.37,0,0,1,2,1h4.21V39.46h-4.21v1.15h-1.73V33.56a15.24,15.24,0,0,1,1.91.9Zm.79-3.17h1.51l1.15-1.69c.14.11.32.32.58.58a13.42,13.42,0,0,1,1,1.33l-.29.61H456.43l-.32-.83h4.82c.4-1.12.72-2.34,1-3.53h-4l-.29-.79h4.5c.32-1.37.54-2.52.72-3.46,1.84.22,2.74.5,2.74.86s-.43.43-1.3.68A19,19,0,0,1,464,27h3.35l1.12-1.33c1.19.94,1.8,1.58,1.8,1.87,0,.11-.07.18-.18.25l-.83.47ZM464.6,47.2V43.42h-4.43V47.2Zm-4.21-12v3.42h8.24V35.25Zm7.13-4V27.77h-3.74c-.29,1.19-.58,2.38-1,3.53Z" transform="translate(0 -0.13)"/><path class="cls-4" d="M468.81,67.51l1.26-1.58c1.37,1.08,2.09,1.76,2.09,2.09,0,.14-.07.29-.32.43L471,69V94.22H469.1V92H447.72v2.23h-1.94V66.5c.83.36,1.58.68,2.27,1Zm-21.09.83V91.16H469.1V68.34Zm11.34,11.19v7h5.33l1.37-1.91a22.87,22.87,0,0,1,1.87,2.12l-.36.61H449.48l-.36-.83h8.1v-7h-5.94l-.25-.79h6.19V72.87h-6.87L450,72h13.28l1.51-1.91a29.07,29.07,0,0,1,2.12,2.16l-.32.58h-7.56v5.87h3.53L464,76.91a.59.59,0,0,0,.22.18,2.11,2.11,0,0,1,.29.25,9,9,0,0,1,1.4,1.66l-.29.54Zm1.76,1c2.59,1.12,3.89,2.27,3.89,3.49,0,.79-.36,1.19-1.12,1.19-.4,0-.72-.32-.94-1a6.71,6.71,0,0,0-2.23-3.13Z" transform="translate(0 -0.13)"/><path class="cls-4" d="M459,168.85H444.41l-.29-.79h6.3v-9.39c1,.43,1.8.76,2.27,1H459v-6.16h-7.13a.56.56,0,0,0-.11.25,29.13,29.13,0,0,1-6,8.42l-.65-.58a36.32,36.32,0,0,0,6.52-13.79c2.12.54,3.2,1.08,3.2,1.51s-.5.54-1.55.61c-.29.9-.65,1.8-1,2.77h15.33l1.62-2.16a22.94,22.94,0,0,1,2.3,2.27l-.4.68H460.93v6.16h5.51l1.62-2.09a19.21,19.21,0,0,1,2.16,2.27l-.36.65h-8.93v7.56h8.24l1.8-2.3a19.61,19.61,0,0,1,2.3,2.45l-.4.65h-12V177h-2Zm0-.79V160.5h-6.62v7.56Z" transform="translate(0 -0.13)"/><path class="cls-4" d="M471,202.62a13.83,13.83,0,0,1-.47,5,8,8,0,0,1-3.49,4.54,16.65,16.65,0,0,1-5.94,2.16,15.48,15.48,0,0,1-5.8,0c-.36,0-.54-.18-.5-.36s.22-.32.5-.29a17.45,17.45,0,0,0,1.91.11,17.85,17.85,0,0,0,4.32-.61A15.82,15.82,0,0,0,466,211a8.2,8.2,0,0,0,3.1-5.11,12.72,12.72,0,0,0-.47-5.94,7.52,7.52,0,0,0-3.17-4.46,10.18,10.18,0,0,0-6.26-1.33c-.29,0-.61.11-.94.14.07.72.07,1.87.11,2.77a23.85,23.85,0,0,1-.54,4.93,15.94,15.94,0,0,1-2.52,6.33c-1.37,1.8-3,3-4.72,3s-2.88-1-3.67-2.74a7.76,7.76,0,0,1-.47-5.36,10.85,10.85,0,0,1,2.41-5,15.28,15.28,0,0,1,4.61-3.78,14.73,14.73,0,0,1,6.8-1.58,11.35,11.35,0,0,1,5.72,1.51,10.54,10.54,0,0,1,3.78,3.78A9.58,9.58,0,0,1,471,202.62Zm-13.89-8a14.46,14.46,0,0,0-4.54,2.09,12,12,0,0,0-4.28,5.29,8.58,8.58,0,0,0-.29,5.47c.5,1.22,1.73,1.48,3.17,1a6.4,6.4,0,0,0,3.64-3,13.85,13.85,0,0,0,2.09-5.79A25.8,25.8,0,0,0,457.15,194.59Z" transform="translate(0 -0.13)"/><path class="cls-4" d="M468.71,250.06l1.66-2.09a15,15,0,0,1,2.12,2.23l-.36.65H459.63c2.59,3.6,7.2,5.79,13.79,6.55a7.32,7.32,0,0,0-1.55,2.05c-6.41-1.3-10.73-4-12.92-8q-2,7.07-14.36,8.39l-.43-.76c7.56-1.22,11.91-4,13-8.28H445.13l-.36-.79h12.6a7.64,7.64,0,0,0,.07-1.22V246c2.09.36,3.17.76,3.17,1.15,0,.22-.43.43-1.26.61v1a8.8,8.8,0,0,1-.07,1.22Zm-8-14.22a30.47,30.47,0,0,0,2.45-5.54c2,.54,3,1.08,3,1.58,0,.25-.47.43-1.37.47a25.39,25.39,0,0,1-2.92,3.49h6.08l1.51-2a24.1,24.1,0,0,1,2.09,2.16l-.29.61H459.42v3.71h7.7l1.48-1.91a16.6,16.6,0,0,1,2.12,2.09l-.4.61H459.42v4h9.65l1.66-2.05a27.1,27.1,0,0,1,2.05,2.2l-.32.68H444.63l-.29-.83h13.21v-4H447.18l-.32-.79h10.69v-3.71H446l-.36-.79Zm-9.32-5.4c3,1.15,4.43,2.48,4.43,4a1.1,1.1,0,0,1-1.26,1.22q-.7,0-1-.86a7.14,7.14,0,0,0-2.63-3.74Z" transform="translate(0 -0.13)"/><path class="cls-4" d="M467.27,291.79l-.58.43v9h-1.91v-1.84H452v1.84h-1.91v-9.29a35.93,35.93,0,0,1-5.9,2.84l-.47-.76A30.82,30.82,0,0,0,458,281.89c1.76.43,2.7.86,2.7,1.26s-.47.43-1.4.54l0,0a34.32,34.32,0,0,0,14,8.1,5,5,0,0,0-1.44,1.83c-1.69-.72-3.1-1.4-4.32-2.05A1,1,0,0,1,467.27,291.79Zm-9.72-15v-4.64c2.16.07,3.24.32,3.24.72s-.43.58-1.4.94v3h9.72l1.26-1.58c1.58,1.51,2.34,2.45,2.34,2.84,0,.18-.14.29-.47.36l-1.08.22a27.5,27.5,0,0,1-3.1,2.59l-.65-.5a19.76,19.76,0,0,0,1.73-3.1H448.08a2.08,2.08,0,0,1,0,.5,8,8,0,0,1-.86,4c-.47.79-1,1.22-1.55,1.22-.83,0-1.22-.4-1.22-1.12a1.5,1.5,0,0,1,.5-1c1.26-1.26,1.91-3.17,2.09-5.65l.79.07a5.93,5.93,0,0,1,.18,1.15Zm-11.48,9.83a22.83,22.83,0,0,0,7.13-7.56c1.69.54,2.59,1.08,2.59,1.51s-.47.47-1.4.5a20,20,0,0,1-7.81,6.19Zm19.44,3.71a36.74,36.74,0,0,1-6.77-5.94,28.93,28.93,0,0,1-6.95,6.44c.18.11.47.18.76.32h12.17Zm-.72,8.24V292H452v6.62Zm-3.46-19.4c5.76,1.91,8.6,3.82,8.6,5.69,0,.68-.32,1-1,1q-.49,0-1.08-.76c-1.37-1.91-3.71-3.64-7-5.26Z" transform="translate(0 -0.13)"/><path class="cls-4" d="M450.35,323.61c0,.29-.43.58-1.33.86v18.14h-1.84V326.17a45.1,45.1,0,0,1-3,6l-.68-.5a61.72,61.72,0,0,0,5.4-18.14c2,.43,3,.9,3,1.33s-.47.5-1.4.65a74.53,74.53,0,0,1-2,7.23C449.74,323,450.35,323.29,450.35,323.61Zm.86,6.8.79-.4a20.53,20.53,0,0,0,2.56,4.18,34,34,0,0,0,1.51-7.52h-2.52c0,.07-.11.18-.22.43-.25.54-.47,1-.72,1.48l-1.58-.47a67.22,67.22,0,0,0,4.25-10.73H451l-.29-.83h4.39l1.08-1.37c1.15,1,1.73,1.73,1.73,2s-.07.25-.25.36l-.79.43a73.8,73.8,0,0,1-3,7.88h1.94l1.08-1.4c1.22,1.08,1.84,1.73,1.84,2a.43.43,0,0,1-.25.36l-.76.5a38.51,38.51,0,0,1-2,8.24c2.66,2.7,6.84,4.1,12.63,4.1,1.37,0,3.13-.11,5.22-.29a7.13,7.13,0,0,0-1,2.12h-3.92c-6.16,0-10.69-1.51-13.53-4.61a15.6,15.6,0,0,1-4.93,5.69l-.54-.61a17.43,17.43,0,0,0,4.28-6.51A21.9,21.9,0,0,1,451.21,330.42ZM463.38,322h-6.16l-.25-.83h6.41v-3h-4l-.32-.79h4.32v-3.78c2.05,0,3.1.29,3.1.72,0,.25-.43.54-1.26.83v2.23h2.74l1.15-1.48c1.26,1.08,1.91,1.76,1.91,2a.34.34,0,0,1-.22.29l-.83.58v2.38h1l1.08-1.76a15.72,15.72,0,0,1,1.48,1.91l-.36.68H470v5.11H468.2v-1.15h-3v3.28h3.28l1.26-1.62a23.22,23.22,0,0,1,2,1.87l-.36.58h-6.16v3.2h4l1.51-1.84a19.93,19.93,0,0,1,2,1.94l-.4.68h-7.13v4.36h-1.84V334h-5.54l-.36-.79h5.9V330h-4.32l-.32-.83h4.64v-3.28h-4l-.36-.79h4.36Zm1.84-.83h3v-3h-3Zm0,.83v3.17h3V322Z" transform="translate(0 -0.13)"/><path class="cls-4" d="M459,367.6H448.55c0,7.34-1.55,12.92-4.57,16.63l-.68-.47c2.23-3.92,3.38-9.58,3.38-17v-8.67l2.27,1h8.82V355c2.2,0,3.24.29,3.24.76,0,.29-.43.54-1.37.83v2.63h9.14l1.62-2.09a23.54,23.54,0,0,1,2.16,2.3l-.32.61H448.55v6.77H459v-2.84h-7.7l-.32-.83h8v-3c2.09.29,3.13.65,3.13,1s-.47.5-1.33.72v1.26h5.47l1.12-1.3c1.33.94,2,1.58,2,1.87,0,.11-.07.22-.25.32l-.79.54v2.23h1.4l1.3-2a18.11,18.11,0,0,1,1.84,2.23l-.29.61h-4.25v4.46a3,3,0,0,1,.4-.58c1.4,1,2.16,1.62,2.16,2,0,.22-.18.32-.61.32-.22,0-.47,0-.83-.07a25.62,25.62,0,0,1-4.25,3.06,20.52,20.52,0,0,0,7.56,3.38,4.92,4.92,0,0,0-1.55,1.84,17,17,0,0,1-7.77-4.9,17.62,17.62,0,0,1-2.63-4.46v8.78a2.16,2.16,0,0,1-1.26,2.27,6.71,6.71,0,0,1-1.94.25,1.44,1.44,0,0,0-.65-1.22,11.35,11.35,0,0,0-2.88-.76v-.86a34.19,34.19,0,0,0,3.85.29c.72,0,1.08-.32,1.08-.94v-9h-8l-.32-.83H459Zm-.5,8.31a63.73,63.73,0,0,1-8,4.86c0,.86-.18,1.29-.47,1.29s-1-.86-1.76-2.48a72,72,0,0,0,9.94-4.39Zm-7.67-4c2.84,1,4.28,2.16,4.28,3.46,0,.76-.36,1.12-1,1.12-.5,0-.83-.36-1.08-1.12a5.82,5.82,0,0,0-2.56-2.84Zm10-8v2.84h5.72v-2.84Zm0,3.67v3h5.72v-3Zm5.72,3.85h-5.4a14.26,14.26,0,0,0,3.46,4.82,30.54,30.54,0,0,0,3.53-3.89h-1.58Z" transform="translate(0 -0.13)"/><path class="cls-4" d="M444.66,403.86c3,.9,4.54,2.09,4.54,3.6,0,.86-.36,1.26-1.12,1.26a1,1,0,0,1-1-.79,6.69,6.69,0,0,0-2.74-3.46Zm9.07-1.3-4.21,14.22-.14.43a9.93,9.93,0,0,0-.36,1.87,4.84,4.84,0,0,0,.22,1.26,10.36,10.36,0,0,1,.43,2.88c0,1.4-.5,2.12-1.51,2.12-.79,0-1.19-.36-1.19-1.12,0,0,0-.47.14-1.3a15.26,15.26,0,0,0,.22-2.38q0-3-2.7-3.46v-.86a7.68,7.68,0,0,0,1.37.14,2,2,0,0,0,2-1.15A100,100,0,0,0,452.9,402ZM447,396.87c3.17.79,4.75,1.91,4.75,3.42,0,.86-.4,1.26-1.12,1.26-.47,0-.83-.36-1.08-1a6.45,6.45,0,0,0-2.92-3Zm16.23,13.68h6l1.76-2.38a26.71,26.71,0,0,1,2.27,2.48l-.43.68h-9.93a.9.9,0,0,0-.18.4,68.64,68.64,0,0,1-4.75,9.18l.94,0c3.46-.14,6.73-.54,9.83-.86a31.3,31.3,0,0,0-4.25-5.11l.54-.61a25.45,25.45,0,0,1,6.62,6.3,5.05,5.05,0,0,1,1,2.59c0,.9-.4,1.33-1.15,1.33q-.65,0-1.19-1.4c-.25-.61-.65-1.4-1.08-2.23-4.39.79-9.29,1.51-14.76,2.2-.22.79-.43,1.19-.68,1.19-.43,0-.86-1-1.3-3.17l3.56-.11h.79a47.17,47.17,0,0,0,3.53-9.65h-8l-.32-.79h9.18V403.5H455l-.25-.83h6.59v-6.19c2.23.07,3.31.32,3.31.83q0,.43-1.4,1v4.39H468l1.48-2.2a22.17,22.17,0,0,1,2.12,2.38l-.36.65h-8Z" transform="translate(0 -0.13)"/><path class="cls-5" d="M395.7,67.08H419v8h-1.4V68.52H395.7Z" transform="translate(0 -0.13)"/><path class="cls-5" d="M396.92,104.41a25,25,0,0,1-6.69,3.6l-.47-.68a21.27,21.27,0,0,0,9.54-8h-8.42l-.36-.79h13v-2.3H393.47l-.32-.83h10.4v-2H391.67l-.36-.83h15.33a29.63,29.63,0,0,0,2-4.32c1.94.5,2.92.94,2.92,1.4,0,.22-.47.43-1.44.5a23.43,23.43,0,0,1-2.27,2.41h6.34l1.58-1.91A25.56,25.56,0,0,1,418,92.82l-.32.61H405.35v2h7.09l1.4-1.58a14.55,14.55,0,0,1,2.05,1.87l-.43.54H405.35v2.3h9.57l1.51-1.91a17.75,17.75,0,0,1,2.2,2.12l-.29.58h-9a23.8,23.8,0,0,0,10.29,5.8,4.77,4.77,0,0,0-1.51,1.69,22.24,22.24,0,0,1-5.51-3l-.36.29v6.33h-1.76v-.54h-6a18.52,18.52,0,0,0,4.72,3.28,26.52,26.52,0,0,0,4.82-4.25c1.48.86,2.2,1.48,2.2,1.84s-.22.32-.72.32a4.5,4.5,0,0,1-.76-.07,29,29,0,0,1-4.57,2.59,30.87,30.87,0,0,0,8.71,1.8,5.7,5.7,0,0,0-1.44,1.94c-4.36-.76-7.78-2-10.22-3.71a21.43,21.43,0,0,1-4-3.74h-4.46v4.75c2.81-.32,5.22-.72,7.2-1.12l.11.86a101.56,101.56,0,0,1-11.84,2.52Q394,118,393.54,118c-.47,0-.94-1-1.4-2.81.65,0,2.23-.11,4.79-.36Zm.83-16.09C400.6,89,402,90,402,91.23c0,.79-.32,1.19-1,1.19-.5,0-.83-.32-1.08-.94A5.32,5.32,0,0,0,397.46,89Zm5.8,14.69v-2.77c1.91,0,2.88.29,2.88.72q0,.38-1.08.76V103h5.22l.47-.5c-.11,0-.14-.14-.25-.22a22,22,0,0,1-2.63-3h-6.62a16.49,16.49,0,0,1-2.92,3.53s.11,0,.14.07a.45.45,0,0,1,.11.07Zm-4.82.79V106h11.73V103.8Zm0,3v2.34h11.73v-2.34Z" transform="translate(0 -0.13)"/><path class="cls-5" d="M414.63,141.45l1.76-2.3a23.25,23.25,0,0,1,2.27,2.48l-.32.65H406.75a52.12,52.12,0,0,1-4.82,4.43v3.78a40.63,40.63,0,0,0,10.15-5.29q2.05,1.51,2.05,2.16c0,.22-.18.32-.54.32a3.47,3.47,0,0,1-1-.18,56.27,56.27,0,0,1-10.44,3.85h-.22v3.42c0,.68.22,1.08.61,1.19a26.37,26.37,0,0,0,4.86.25,38,38,0,0,0,5-.25,1.68,1.68,0,0,0,1.4-1.37,27.63,27.63,0,0,0,.58-4.21l.86.32a19.72,19.72,0,0,0,.32,4.18,1.11,1.11,0,0,0,1.19.68,1.89,1.89,0,0,1-1.62,2.05,40.48,40.48,0,0,1-7,.4c-4.14,0-6.55-.18-7.24-.58a2.19,2.19,0,0,1-.83-2v-7.27a52.13,52.13,0,0,1-9.5,5.51l-.47-.76a53.52,53.52,0,0,0,10-6.66v-1.91a13.83,13.83,0,0,1,1.44.68c1.37-1.3,2.27-2.16,2.66-2.59H390.91l-.32-.79H401v-5.36h-7.56l-.29-.79h8V130c2.16,0,3.24.29,3.24.79,0,.29-.43.61-1.33,1v3.67h3.74l1.55-2a13.09,13.09,0,0,1,1.69,1.83c.76-1,1.66-2.48,2.77-4.32,1.73.9,2.59,1.55,2.59,2,0,.25-.32.4-.94.4a4.12,4.12,0,0,1-.68,0,74.73,74.73,0,0,1-6.26,8.1Zm-9.68.18c1.84-2.05,3.31-3.85,4.43-5.36H402.9v5.36Z" transform="translate(0 -0.13)"/><path class="cls-5" d="M390.66,178.86c3,.94,4.54,2.16,4.54,3.56,0,.86-.36,1.26-1,1.26s-.94-.36-1.12-1a5.85,5.85,0,0,0-2.66-3.17Zm9.94-1.26-5,14.22a7.33,7.33,0,0,0-.5,2.2,6.5,6.5,0,0,0,.22,1.33,11.91,11.91,0,0,1,.36,2.74c0,1.48-.54,2.27-1.62,2.27-.68,0-1-.4-1-1.15,0,0,0-.43.14-1.3a17.17,17.17,0,0,0,.18-2.52,3,3,0,0,0-.9-2.59,4.44,4.44,0,0,0-2-.68v-.86c.61.07,1.08.11,1.33.11a2.72,2.72,0,0,0,2.48-1.51,93.44,93.44,0,0,0,5.54-12.67ZM393,171.87c3.17.79,4.75,1.94,4.75,3.42,0,.86-.4,1.26-1.15,1.26a1,1,0,0,1-1-.76,5.72,5.72,0,0,0-3-3.28Zm16.59,3.38v10.22h5.62l1.8-2.38a28.88,28.88,0,0,1,2.27,2.56l-.32.61h-9.36v14.15h-2V186.27h-8.42l-.29-.79h8.71V175.26h-7.13l-.25-.79h13.64l1.69-2.3a24.46,24.46,0,0,1,2.27,2.48l-.36.61Z" transform="translate(0 -0.13)"/><path class="cls-5" d="M398.08,223.75l1.12-1.4c1.33,1.12,2,1.84,2,2.09s-.11.29-.36.4l-.83.36c-1.8,3.82-5.08,6.73-9.83,8.71l-.4-.68a18.14,18.14,0,0,0,8.35-8.67h-6.41l-.4-.79Zm9.83-7.2H401v2.3h-1.76v-2.3h-8.42l-.32-.83h8.75v-3c2.09,0,3.13.25,3.13.68s-.47.61-1.37.9v1.37h6.95v-3c2,0,3,.25,3,.65s-.4.54-1.22.83v1.48h5.65l1.51-2.05a25.87,25.87,0,0,1,2.09,2.23l-.36.65h-8.89v2.3H407.9Zm-12.63,19.33a7.9,7.9,0,0,1-1.76,5,2.34,2.34,0,0,1-1.76,1.08c-.76,0-1.15-.36-1.15-1.08a1.16,1.16,0,0,1,.72-1,6.89,6.89,0,0,0,3.2-4.28Zm16.05-2.2,1.51-1.76c.76.61,1.48,1.26,2.16,1.91l-.43.65H394.48l-.4-.79Zm0-7.16a21.21,21.21,0,0,0,4.46-4.75c1.48,1,2.2,1.73,2.2,2.16,0,.18-.25.32-.68.32a1.18,1.18,0,0,1-.29,0c-.22,0-.32,0-.43,0a38.32,38.32,0,0,1-4.68,3,21.8,21.8,0,0,0,7.31,4.57,6.53,6.53,0,0,0-1.51,1.8A18.94,18.94,0,0,1,410,227a19.85,19.85,0,0,1-1.87-3.82s-.07,0-.11,0a.11.11,0,0,1-.07,0l-.86.25c-.43.11-.76.22-1,.29.4.14.58.32.58.47s-.36.43-1.15.58v5.8c0,1-.32,1.73-1,2a5,5,0,0,1-1.94.29,1.43,1.43,0,0,0-1.08-1.3,14.55,14.55,0,0,0-2.45-.47v-.83c1.48.14,2.77.25,3.82.25.61,0,.9-.32.9-.94v-6.41a9.43,9.43,0,0,1,1.15.22,30,30,0,0,0,5.18-2.59H395.27l-.36-.83h15.33l1.26-1.12c1.48,1.12,2.2,1.91,2.2,2.27,0,.14-.14.25-.36.29l-1.15.14a26.56,26.56,0,0,1-3.24,1.33A16.53,16.53,0,0,0,411.29,226.52Zm-10.87,8.71c1.51,1.76,2.3,3.31,2.3,4.61,0,1.08-.47,1.58-1.4,1.58-.54,0-.83-.29-.83-.9,0-.18,0-.32,0-.47v-.43a13,13,0,0,0-.76-4Zm6.34-.07c2.41,1.76,3.6,3.35,3.6,4.79,0,.94-.4,1.37-1.15,1.37-.58,0-.9-.4-1-1.22a10,10,0,0,0-2.05-4.54Zm6.55.07c3.67,1.58,5.47,3.2,5.47,4.89,0,.83-.4,1.26-1.12,1.26a1,1,0,0,1-1-.79,10.78,10.78,0,0,0-3.78-4.75Z" transform="translate(0 -0.13)"/><path class="cls-5" d="M411.93,260.33l1.19-1.3c1.22.9,1.84,1.51,1.84,1.76s-.14.32-.36.5l-.61.43v6.88h-1.8v-1h-9.57c-.61,1.12-1.12,1.87-1.48,2.41h14l1.66-2.05a22.29,22.29,0,0,1,2.27,2.23l-.36.61h-9.07a20.33,20.33,0,0,0,9.79,4.1,5.69,5.69,0,0,0-1.3,1.8,18.73,18.73,0,0,1-4.36-1.76l-.4.32v4.17c0,1.58-1,2.34-3,2.34a1.26,1.26,0,0,0-.79-1.19,8.62,8.62,0,0,0-2.3-.58v-.79a30,30,0,0,0,3.17.18q1.08,0,1.08-1v-3.28h-6.19v8h-1.84v-8h-5.9v6.62h-1.8v-6.73a25.83,25.83,0,0,1-5.65,2.92l-.43-.72a24.31,24.31,0,0,0,8.5-6.44h-7.81L390,270h8.89a26.83,26.83,0,0,0,1.48-2.41h-3.71v1h-1.8v-9.32c.83.36,1.55.65,2.16,1Zm-12.71-2.66h-8.46l-.32-.83h8.78V254c2.05,0,3.1.25,3.1.72,0,.25-.47.54-1.37.86v1.3h6.95v-2.92c2,0,3,.25,3,.72,0,.22-.4.5-1.26.83v1.37h5.47l1.62-2a10.36,10.36,0,0,1,2.12,2.23l-.32.61h-8.89v1.87H407.9v-1.87H401v1.87h-1.73Zm-2.56,3.49v2.34h15.51v-2.34Zm15.51,3.13H396.67v2.52h15.51Zm-11.66,6.55a22.18,22.18,0,0,1-3.24,3.17,2.48,2.48,0,0,0,.47.25,1.27,1.27,0,0,1,.29.11h5.51v-2.84c2.05.11,3.06.36,3.06.76s-.43.5-1.22.79v1.29h6l.54-.5a19.74,19.74,0,0,1-3.46-3Z" transform="translate(0 -0.13)"/><path class="cls-5" d="M390.16,296.47h1.4V303h21.92v1.44H390.16Z" transform="translate(0 -0.13)"/><path class="cls-6" d="M343.82,69V67.2c1,0,1.42.14,1.42.35s-.19.22-.59.37V69h4l.74-.94c.37.35.72.7,1,1l-.14.27H338.36l-.14-.37Zm4.85,5,.56-.62c.59.45.9.75.9.88s0,.11-.13.18l-.37.24v4.16c0,.77-.48,1.17-1.44,1.17v0a.53.53,0,0,0-.34-.5,5.64,5.64,0,0,0-1.57-.3v-.4a15.75,15.75,0,0,0,1.7.1,1.33,1.33,0,0,0,.75-.13.44.44,0,0,0,.08-.29V74.33h-9v5.79H339V73.54a7.28,7.28,0,0,1,1,.43Zm-2.06-3.52.54-.62c.56.43.85.72.85.85a.19.19,0,0,1-.13.18l-.34.22v2.21h-.8v-.54h-4.85v.59h-.8V70.05a9.73,9.73,0,0,1,1,.4Zm-.78,5,.54-.58c.58.42.86.69.86.83s0,.1-.11.14l-.38.24V78.3h-.78v-.45h-3.46v.83h-.8V75c.42.18.74.34.94.45Zm-3.94-4.69v1.58h4.85V70.8Zm.61,5v1.63h3.46V75.85Z" transform="translate(0 -0.13)"/><path class="cls-6" d="M348.57,85.73a3,3,0,0,1-1,1.06,8.85,8.85,0,0,1-1.39.66c.19.4.38.83.5,1.09.18.43.51,1.26.66,1.6a2.91,2.91,0,0,1,.29.88.71.71,0,0,1-.32.69c-.46.32-1.14,0-1.9-.5a4.14,4.14,0,0,0-1.23-.5,4.18,4.18,0,0,0-1.89,0,1.21,1.21,0,0,0-1,1.25,2.07,2.07,0,0,0,.82,1.38,3.13,3.13,0,0,0,1.41.59,5,5,0,0,0,1.55.1,9.47,9.47,0,0,1,1.06-.11.91.91,0,0,1,.78.42c.16.27,0,.46-.53.56a10.49,10.49,0,0,1-2.32.06,4,4,0,0,1-2.3-.94,2.77,2.77,0,0,1-1-2,1.83,1.83,0,0,1,1.26-1.65,5.59,5.59,0,0,1,2-.21,12,12,0,0,1,1.39.27,4.78,4.78,0,0,0,.93.22c.22,0,.37-.16.35-.46a1.94,1.94,0,0,0-.19-.62c-.11-.22-.43-.85-.7-1.44a3.33,3.33,0,0,0-.21-.42l-.34.1a15.59,15.59,0,0,1-2.22.43,5.43,5.43,0,0,1-2-.11,3.15,3.15,0,0,1-1.12-.53c-.19-.16-.3-.35-.21-.45s.4,0,.56.14a2.4,2.4,0,0,0,1,.34,5.19,5.19,0,0,0,1.57,0c.5-.08,1-.21,1.55-.34.26-.06.53-.16.82-.26-.18-.29-.34-.53-.46-.7a6.79,6.79,0,0,0-.88-1.09c-.24-.22-.37-.53-.18-.77a.68.68,0,0,1,.82-.13c.24.13.56.27.91.42a8.06,8.06,0,0,0,1.52.5,6.29,6.29,0,0,0,1.33,0C348.6,85.19,348.65,85.51,348.57,85.73Zm-1.42,0c-.19,0-.62-.19-1-.32a4,4,0,0,1-.88-.37c-.21-.11-.37-.22-.46-.13s.16.35.3.54.46.82.7,1.25l.27-.11a9.26,9.26,0,0,0,1.09-.58C347.3,85.91,347.32,85.75,347.15,85.71Z" transform="translate(0 -0.13)"/><path class="cls-6" d="M347.91,115.25a5.58,5.58,0,0,1,2.26,1.31,1.39,1.39,0,0,1,.43,1c0,.5-.22.72-.69.72-.24,0-.43-.18-.56-.54a5.73,5.73,0,0,0-1.62-2.21Z" transform="translate(0 -0.13)"/><path class="cls-6" d="M344.62,134.4a11.47,11.47,0,0,1-.24,1.66,13.63,13.63,0,0,1,2.67,2,2.52,2.52,0,0,1,.93,1.5c0,.32-.14.5-.45.5s-.34-.18-.54-.53a11.32,11.32,0,0,0-2.71-3.06,7.16,7.16,0,0,1-3.81,4.4l-.26-.32a7.3,7.3,0,0,0,3.57-6.15h-4.07v9.73h-.85V133.6c.3.11.56.24.8.35l.18.1h3.94V131.3c1,0,1.44.13,1.44.35s-.21.26-.59.42v2h4.15l.54-.72c.62.5.94.83.94,1s0,.1-.13.16l-.38.22v8c0,.75-.5,1.18-1.5,1.25a.73.73,0,0,0-.58-.62c-.24-.08-.85-.16-1.73-.3v-.4a21.3,21.3,0,0,0,2.4.13.49.49,0,0,0,.56-.54V134.4Z" transform="translate(0 -0.13)"/><path class="cls-6" d="M341.17,153.4c0,.13-.18.24-.51.34v6.39h-.8v-6.19a15.79,15.79,0,0,1-2,1.92l-.24-.27a18,18,0,0,0,3.67-5.63c.74.3,1.12.56,1.12.75s-.21.22-.61.26a18,18,0,0,1-1.31,2.13C341,153.16,341.17,153.27,341.17,153.4Zm-3.43-1.92a13.79,13.79,0,0,0,3.17-4.42c.74.3,1.12.58,1.12.78s-.21.21-.61.21a13.83,13.83,0,0,1-3.44,3.68Zm5.78-2.83h-1.2l-.14-.35h5.87l.58-.72c.66.56,1,.93,1,1.09s0,.11-.14.16L349,149a13,13,0,0,1-2.08,2.8,13.1,13.1,0,0,0,4,1.62,2.13,2.13,0,0,0-.64.88,13,13,0,0,1-3.89-1.92,12,12,0,0,1-4.66,2.32l-.21-.34a11.18,11.18,0,0,0,4.21-2.54A12.31,12.31,0,0,1,343.53,148.64Zm2.16,10.64v-2.93h-3l-.16-.37h3.14V153.7c1,0,1.47.19,1.47.42s-.21.26-.64.4V156h1.86l.74-1a10,10,0,0,1,1,1.07l-.18.26h-3.38v2.93h2.61l.83-1a7.37,7.37,0,0,1,.93,1l-.18.34h-8.9l-.19-.37Zm2.42-10.64H344a10.25,10.25,0,0,0,2.24,2.69A11.23,11.23,0,0,0,348.11,148.64Z" transform="translate(0 -0.13)"/><path class="cls-6" d="M347.91,179.25a5.58,5.58,0,0,1,2.26,1.31,1.39,1.39,0,0,1,.43,1c0,.5-.22.72-.69.72-.24,0-.43-.18-.56-.54a5.73,5.73,0,0,0-1.62-2.21Z" transform="translate(0 -0.13)"/><path class="cls-6" d="M340.34,196.05h10.37v3.55h-.62V196.7h-9.75Z" transform="translate(0 -0.13)"/><path class="cls-6" d="M344.07,213.55a5.76,5.76,0,0,0,.82-1.14l-.27-.11a4.48,4.48,0,0,1-2.08-2.22,5.39,5.39,0,0,1-.24-3.17c-.11.13-.22.27-.32.4a6.16,6.16,0,0,0-1.09,2.18,3.81,3.81,0,0,0-.18,2.35c.16.62.21,1.14-.06,1.23s-.58-.18-.86-.75a6.13,6.13,0,0,1-.53-2,6.81,6.81,0,0,1,.21-2.24,4.86,4.86,0,0,0,.18-1.76,3,3,0,0,0-.45-1.25c-.13-.18-.16-.43,0-.51s.37.08.54.29a3.39,3.39,0,0,1,.67,1.17,3.92,3.92,0,0,1,0,1.87,6.76,6.76,0,0,0-.1,2.27,4.1,4.1,0,0,1,.24-1.09,6.31,6.31,0,0,1,1.52-2.77,8,8,0,0,1,.67-.62,2.18,2.18,0,0,1,1.52-1.38,1.8,1.8,0,0,1,1,.08,3.87,3.87,0,0,1,2.61.38,3.35,3.35,0,0,1,1.57,2.21,5.86,5.86,0,0,1,0,2.69,4.3,4.3,0,0,1-1.58,2.38,3,3,0,0,1-2.29.58,8.94,8.94,0,0,1-.83,1.06,6.45,6.45,0,0,1-1.31,1.14c-.18.1-.37.14-.42.06s0-.21.11-.32A7.83,7.83,0,0,0,344.07,213.55Zm1.14-1.73a5.78,5.78,0,0,0,.54-1.73,10.17,10.17,0,0,0,.1-2.13,5.71,5.71,0,0,0-.54-2.4.93.93,0,0,0-.38-.4,5.3,5.3,0,0,0-.72.3,6.47,6.47,0,0,0-1.1.7,4.24,4.24,0,0,0-.24,1.3,5.69,5.69,0,0,0,.5,2.71A3.45,3.45,0,0,0,345.21,211.82Zm.74-6.88a4.14,4.14,0,0,1,.27.45,5.49,5.49,0,0,1,.59,2.26,8.87,8.87,0,0,1-.18,2.43,6.62,6.62,0,0,1-.74,1.84,2.53,2.53,0,0,0,2.22-1.28,5.36,5.36,0,0,0,.58-3.36,2.71,2.71,0,0,0-1.74-2.21A4.12,4.12,0,0,0,345.94,204.94Z" transform="translate(0 -0.13)"/><path class="cls-6" d="M350.47,223.83c.14.21,0,.48-.42.61a5,5,0,0,1-1.54,0c-.42,0-.85,0-1.57,0l-.38,0c0,.59-.08,1.33-.08,1.42a2.77,2.77,0,0,1-.06.78,1.93,1.93,0,0,1-.59.72c-.32.27-.56.35-.75.19a2.87,2.87,0,0,1-.38-.77,1.77,1.77,0,0,0-.53-.64.53.53,0,0,1-.24-.34c0-.1.16-.16.35-.08a7,7,0,0,1,.77.51c.13.11.24.16.35.06a1,1,0,0,0,.34-.56,8.61,8.61,0,0,0,.13-1.28l-1.44.1c-.67,0-1.68.16-2.23.19l-.06,0c0,.26,0,.48,0,.61,0,.34-.16,1.55-.16,2.06a2.59,2.59,0,0,0,.53,1.55,2.66,2.66,0,0,0,1.52.67,10.06,10.06,0,0,0,1.66.06,2.22,2.22,0,0,1,1.06.13.5.5,0,0,1,.29.56c0,.19-.32.26-.82.24a15.91,15.91,0,0,1-1.7-.13,6.06,6.06,0,0,1-1.58-.37,2.82,2.82,0,0,1-1.15-.88,2.54,2.54,0,0,1-.42-1.28c0-.46,0-1.41,0-1.81v-1.33c-.48.08-1,.16-1.34.19a2.73,2.73,0,0,1-1.52-.14c-.35-.19-.46-.75-.3-.88a.38.38,0,0,1,.3-.11,6.2,6.2,0,0,1,.64.24,1.55,1.55,0,0,0,.74.14c.3,0,.9,0,1.49-.06a.6.6,0,0,1,0-.16,13.13,13.13,0,0,0-.08-1.63,1.55,1.55,0,0,0-.46-1c-.18-.13-.32-.32-.26-.45.16-.3.69-.06,1,0a1.07,1.07,0,0,1,.67.69,7.36,7.36,0,0,1,0,1.6c0,.19,0,.48,0,.78.62-.08,1.39-.19,1.87-.22s1.36-.18,1.89-.24a14.48,14.48,0,0,0-.08-1.7,2.06,2.06,0,0,0-.35-.91c-.18-.22-.24-.5-.14-.62s.35,0,.58,0a1.32,1.32,0,0,1,.59.67,1.78,1.78,0,0,1,.14,1v.11a4.51,4.51,0,0,0,.38.4,8.21,8.21,0,0,0,.8.58,1.44,1.44,0,0,0,.66.18,9.72,9.72,0,0,1,1.12,0A1,1,0,0,1,350.47,223.83Zm-2.95-.27a3.8,3.8,0,0,1-.9-.8c0,.26,0,.58,0,.86Z" transform="translate(0 -0.13)"/><path class="cls-6" d="M349.79,243.06a7.82,7.82,0,0,1-.8,2.06,2.57,2.57,0,0,1-2,1.47,2.48,2.48,0,0,1-2.32-1,3.4,3.4,0,0,1-.38-2.71,1,1,0,0,0-1-1.26,2.35,2.35,0,0,0-1.62.69,9.81,9.81,0,0,0-1.41,1.49,3.17,3.17,0,0,0-.1.3,5.9,5.9,0,0,0-.21,2.1c0,.5,0,.67-.08.74s-.29.11-.56-.06a1.16,1.16,0,0,1-.43-.85,7.89,7.89,0,0,1,.61-2,20.49,20.49,0,0,1,1.31-2.71c.32-.53.88-1.42,1.3-2s1-1.49,1.23-1.81a.53.53,0,0,0,0-.67c-.08-.13-.13-.32,0-.42s.35,0,.5,0a2,2,0,0,1,.51.48.61.61,0,0,1-.08.8A13.18,13.18,0,0,0,343,239a24,24,0,0,0-1.7,2.48c-.14.24-.29.53-.43.8a5.15,5.15,0,0,1,1.57-1.22,2.31,2.31,0,0,1,2.3.16c.56.48.45,1.3.32,2.27a2.21,2.21,0,0,0,.58,2.06,1.77,1.77,0,0,0,2,.14,3,3,0,0,0,1.15-1.18,11.75,11.75,0,0,0,.59-1.52c.06-.19.16-.37.27-.35S349.83,242.87,349.79,243.06Z" transform="translate(0 -0.13)"/><path class="cls-6" d="M349.83,257.09a6.16,6.16,0,0,1-.21,2.21,3.54,3.54,0,0,1-1.55,2,7.41,7.41,0,0,1-2.64,1,6.88,6.88,0,0,1-2.58,0c-.16,0-.24-.08-.22-.16s.1-.14.22-.13a7.74,7.74,0,0,0,.85,0,8,8,0,0,0,1.92-.27,7.06,7.06,0,0,0,2-.94,3.64,3.64,0,0,0,1.38-2.27,5.65,5.65,0,0,0-.21-2.64,3.34,3.34,0,0,0-1.41-2,4.52,4.52,0,0,0-2.79-.59l-.42.06c0,.32,0,.83,0,1.23a10.58,10.58,0,0,1-.24,2.19,7.09,7.09,0,0,1-1.12,2.82,2.87,2.87,0,0,1-2.1,1.34,1.77,1.77,0,0,1-1.63-1.22,3.45,3.45,0,0,1-.21-2.39,4.82,4.82,0,0,1,1.07-2.22,6.79,6.79,0,0,1,2-1.68,6.55,6.55,0,0,1,3-.7,5,5,0,0,1,2.55.67,4.69,4.69,0,0,1,1.68,1.68A4.27,4.27,0,0,1,349.83,257.09Zm-6.18-3.57a6.44,6.44,0,0,0-2,.93,5.35,5.35,0,0,0-1.9,2.35,3.82,3.82,0,0,0-.13,2.43c.22.54.77.66,1.41.45a2.84,2.84,0,0,0,1.62-1.31,6.16,6.16,0,0,0,.93-2.58A11.46,11.46,0,0,0,343.66,253.52Z" transform="translate(0 -0.13)"/><path class="cls-6" d="M347.69,268.48l.56-.69c.62.48.93.78.93.93a.24.24,0,0,1-.14.19l-.37.22v5.75h-.85v-.7h-3.15v2.23h3l.74-.88a6.42,6.42,0,0,1,1,1l-.14.24h-4.59v2.37h4.15l.82-1a3.89,3.89,0,0,0,.29.27,9,9,0,0,1,.74.83l-.18.27H338.15l-.16-.35h5.83v-2.37h-4.48l-.16-.35h4.64v-2.23h-3.06v.9h-.83v-7c.22.08.56.22,1,.42Zm-6.93.35v2.26h3.06v-2.26Zm3.06,2.61h-3.06v2.39h3.06Zm4-.35v-2.26h-3.15v2.26Zm0,2.74v-2.39h-3.15v2.39Z" transform="translate(0 -0.13)"/><path class="cls-6" d="M337.88,283.6h.62v2.91h9.75v.64H337.88Z" transform="translate(0 -0.13)"/><path class="cls-6" d="M349.83,305.09a6.16,6.16,0,0,1-.21,2.21,3.54,3.54,0,0,1-1.55,2,7.41,7.41,0,0,1-2.64,1,6.88,6.88,0,0,1-2.58,0c-.16,0-.24-.08-.22-.16s.1-.14.22-.13a7.74,7.74,0,0,0,.85,0,8,8,0,0,0,1.92-.27,7.06,7.06,0,0,0,2-.94,3.64,3.64,0,0,0,1.38-2.27,5.65,5.65,0,0,0-.21-2.64,3.34,3.34,0,0,0-1.41-2,4.52,4.52,0,0,0-2.79-.59l-.42.06c0,.32,0,.83,0,1.23a10.58,10.58,0,0,1-.24,2.19,7.09,7.09,0,0,1-1.12,2.82,2.87,2.87,0,0,1-2.1,1.34,1.77,1.77,0,0,1-1.63-1.22,3.45,3.45,0,0,1-.21-2.39,4.82,4.82,0,0,1,1.07-2.22,6.79,6.79,0,0,1,2-1.68,6.55,6.55,0,0,1,3-.7,5,5,0,0,1,2.55.67,4.69,4.69,0,0,1,1.68,1.68A4.27,4.27,0,0,1,349.83,305.09Zm-6.18-3.57a6.44,6.44,0,0,0-2,.93,5.35,5.35,0,0,0-1.9,2.35,3.82,3.82,0,0,0-.13,2.43c.22.54.77.66,1.41.45a2.84,2.84,0,0,0,1.62-1.31,6.16,6.16,0,0,0,.93-2.58A11.46,11.46,0,0,0,343.66,301.52Z" transform="translate(0 -0.13)"/><path class="cls-6" d="M338.68,320.55c0-.22.58-.16,1-.14a4.12,4.12,0,0,1,1.34.27,2.33,2.33,0,0,1,.83.58.64.64,0,0,1,0,1A.69.69,0,0,1,341,322a3.81,3.81,0,0,0-.85-.75,2.71,2.71,0,0,0-1.07-.46C338.77,320.69,338.66,320.68,338.68,320.55Zm4.45-1.73a.67.67,0,0,1,.13.91.65.65,0,0,1-.85,0,3.92,3.92,0,0,1-.86-.77,2.38,2.38,0,0,0-1.46-.85c-.24,0-.35-.11-.35-.21s.24-.18.43-.18a4.72,4.72,0,0,1,.72,0,6,6,0,0,1,1.17.32A2.81,2.81,0,0,1,343.13,318.82Zm6.45.16a16.59,16.59,0,0,1-1.62,2.11c-.64.7-1,1-2,2a17.86,17.86,0,0,1-3.07,2.3,3.6,3.6,0,0,1-1.73.66,1.11,1.11,0,0,1-1-.69c-.16-.34-.21-.72,0-.82s.3,0,.51.13a1.28,1.28,0,0,0,.75.26,5,5,0,0,0,2.08-.93,18.5,18.5,0,0,0,2-1.44,15.43,15.43,0,0,0,2.1-1.89c.58-.66,1.25-1.55,1.5-1.92s.54-.75.69-.66S349.93,318.45,349.58,319Z" transform="translate(0 -0.13)"/><path class="cls-6" d="M339.4,334.56c-.37-.19-.56-.29-.51-.45s.32-.13.66-.08a4.21,4.21,0,0,1,1.17.3,3.31,3.31,0,0,1,1.1.7c.38.34.62.94.22,1.18s-.78,0-1.2-.5A4.28,4.28,0,0,0,339.4,334.56Zm10.26-.22c-.19.32-.5.8-1.12,1.68a14.67,14.67,0,0,1-2,2.38,18.79,18.79,0,0,1-2.71,2.13,8.34,8.34,0,0,1-2.48,1.17c-.67.18-1,0-1.25-.27s-.35-.9-.19-1l.53.13a1.46,1.46,0,0,0,.75.1,5.62,5.62,0,0,0,2.32-.88,22.37,22.37,0,0,0,2.5-1.94,16.44,16.44,0,0,0,2-2c.8-1,1.18-1.46,1.28-1.6s.24-.22.34-.18S349.77,334.13,349.66,334.34Z" transform="translate(0 -0.13)"/><path class="cls-6" d="M338.74,357.21a.6.6,0,0,1,.35-.82,3.66,3.66,0,0,0,.94-.69,3,3,0,0,0,.69-.85c.06-.16.16-.35.34-.34s.22.18.22.42a2.87,2.87,0,0,1-.38,1.39,2.37,2.37,0,0,1-1,1C339.46,357.54,339,357.59,338.74,357.21Zm.21-6c.18-.16.64.06,1,.14a5.13,5.13,0,0,0,1.36.1l2.58-.1a10.92,10.92,0,0,0,0-1.18,1.72,1.72,0,0,0-.37-.94c-.21-.24-.42-.51-.32-.72s.29-.24.58-.18a1.84,1.84,0,0,1,.91.51.85.85,0,0,1,.24.91,2.4,2.4,0,0,0-.13.88v.66l1.44-.1c.66-.06,1.36-.19,1.82-.27a1.4,1.4,0,0,1,1.06.1c.27.16.48.35.43.59s-.3.3-.7.24a7.45,7.45,0,0,0-1.46-.13c-.66,0-1.84.08-2.59.14,0,.42,0,.85,0,1.22,0,.85,0,1.87,0,2.45s.11,1.39.13,1.84a2,2,0,0,1-.26,1.23.47.47,0,0,1-.7.11c-.26-.16-.27-.59-.4-.94a1.39,1.39,0,0,0-.74-.85c-.24-.1-.14-.34,0-.29s.29,0,.61.06.46-.16.48-.45,0-.75,0-1.57,0-1.31,0-2.37V352l-1.68.16a16.28,16.28,0,0,1-1.84.14,1.66,1.66,0,0,1-1.2-.29C338.87,351.7,338.76,351.43,338.95,351.24Zm9.65-2a6.44,6.44,0,0,0-.93-.74c-.14-.08-.21-.21-.14-.32s.19,0,.29,0a2.5,2.5,0,0,1,.86.19,2,2,0,0,1,1,.64.38.38,0,0,1-.24.58A.91.91,0,0,1,348.6,349.27Zm1.22,6.95c.3.77.16,1.1-.22,1.28a.75.75,0,0,1-.9-.29,3.11,3.11,0,0,1-.38-1.15,2.79,2.79,0,0,0-.59-1.28c-.18-.21-.24-.3-.16-.45s.26-.08.45,0a3.59,3.59,0,0,1,.8.46A2.82,2.82,0,0,1,349.82,356.21Zm0-7.6a2.24,2.24,0,0,0-1-.66.26.26,0,0,1-.14-.32.41.41,0,0,1,.27-.06,3.31,3.31,0,0,1,.88.16,1.94,1.94,0,0,1,1,.59.38.38,0,0,1-.18.59A.87.87,0,0,1,349.87,348.61Z" transform="translate(0 -0.13)"/><path class="cls-6" d="M340,373.7a5.9,5.9,0,0,1-1.42,1c-.24.1-.43.16-.5.06s.1-.19.26-.3a5.34,5.34,0,0,0,1.14-.86,6.94,6.94,0,0,0,1.33-1.81,9.14,9.14,0,0,0,.8-2.11,11,11,0,0,0,.34-2c0-.77,0-1.14-.37-1.44s-.35-.4-.24-.54.29-.16.66-.06a1.78,1.78,0,0,1,1,.61c.3.34.29.58.19.72a.77.77,0,0,0-.16.45,13.61,13.61,0,0,1-.21,1.73,7.55,7.55,0,0,1-1.06,2.67A9.45,9.45,0,0,1,340,373.7Zm4.61-2.26c.14-.16.19-.32.19-.82s0-1.46,0-2.34,0-1.54,0-2.06a1.1,1.1,0,0,0-.42-1.09c-.32-.24-.42-.5-.32-.64a.52.52,0,0,1,.53-.1,2.36,2.36,0,0,1,.94.4.68.68,0,0,1,.32.88,5.94,5.94,0,0,0-.18,2c0,1.34-.06,2.48-.08,2.85s0,.46.24.46a2.23,2.23,0,0,0,1-.45,10.16,10.16,0,0,0,1.52-1.14c.61-.53,1.15-1,1.46-1.33s.59-.51.69-.4,0,.3-.35.7-1.18,1.31-2,2a18.45,18.45,0,0,1-2,1.65,2.12,2.12,0,0,1-1.06.54.89.89,0,0,1-.7-.45C344.31,371.89,344.38,371.68,344.58,371.44Z" transform="translate(0 -0.13)"/><path class="cls-6" d="M339.38,383.21c-.21-.21-.38-.59-.22-.77s.4,0,.61,0a2,2,0,0,0,.94.16,8.62,8.62,0,0,0,1.9-.45c.5-.14,1.6-.5,2.59-.75s2.06-.53,2.58-.61a2.49,2.49,0,0,1,1.42.14c.26.16.42.45.32.64s-.3.19-.56.14a9.3,9.3,0,0,0-1-.13,15.82,15.82,0,0,0-1.78.19l-.11,0c-.21.18-.54.42-.82.66a3.29,3.29,0,0,0-.9,1.2,7.64,7.64,0,0,0-.34,1.63,9.23,9.23,0,0,0,0,2.53,1.64,1.64,0,0,0,.62,1.2,1.86,1.86,0,0,0,1.3.32,4,4,0,0,1,1.14,0,1.24,1.24,0,0,1,.66.46c.13.19,0,.43-.35.46a10,10,0,0,1-1.55,0,3,3,0,0,1-1.73-.62,2.16,2.16,0,0,1-.72-1.47,8.51,8.51,0,0,1,0-2.3,19.5,19.5,0,0,1,.37-1.94,2.69,2.69,0,0,1,.7-1.3,6.37,6.37,0,0,1,.77-.66,6.16,6.16,0,0,0-.83.26c-.59.22-1.54.62-2,.82a6.87,6.87,0,0,1-1.66.51A1.56,1.56,0,0,1,339.38,383.21Zm8.44,1.1a5.46,5.46,0,0,0-.93-.75c-.13-.1-.21-.21-.13-.32s.19-.06.27,0a2.93,2.93,0,0,1,.86.19,1.82,1.82,0,0,1,1,.66.39.39,0,0,1-.22.58A1,1,0,0,1,347.82,384.31Zm1.28-.67a2.5,2.5,0,0,0-1-.66c-.14-.06-.21-.21-.14-.3s.18-.06.27-.06a2.4,2.4,0,0,1,.88.14,2,2,0,0,1,1,.59.38.38,0,0,1-.21.59A.83.83,0,0,1,349.1,383.64Z" transform="translate(0 -0.13)"/><path class="cls-6" d="M348.14,404.52a2.64,2.64,0,0,1-.58,1.71,3.84,3.84,0,0,1-1.73,1.1,4.7,4.7,0,0,1-2.27.13,2.59,2.59,0,0,1-1.79-1.15,4.35,4.35,0,0,1-.43-2.38c0-.19,0-.4,0-.59l-.19-.11c-.48-.29-.7-.51-.7-.86a1.11,1.11,0,0,1,.51-.86c.16-.13.38-.29.66-.48.11-.59.19-1,.27-1.39-.1,0-.18-.08-.29-.11a1.64,1.64,0,0,1-.91-.74c-.19-.35-.21-.72-.08-.75s.38.21.62.42a2.35,2.35,0,0,0,.83.38,3.77,3.77,0,0,0,.11-.51,7.78,7.78,0,0,0,.18-.88,1.91,1.91,0,0,0,0-.75,1.67,1.67,0,0,0-.34-.59c-.14-.14-.22-.27-.16-.38s.22-.14.45-.08a2.43,2.43,0,0,1,.91.56c.27.27.21.77,0,1.42-.11.38-.27.9-.4,1.38a6.51,6.51,0,0,0,.78.1c.46,0,.77.16.86.42a.59.59,0,0,1-.34.72,14.44,14.44,0,0,1-1.36.7l-.42.19q-.1.5-.14,1c0,.22-.06.42-.1.62a4.82,4.82,0,0,0,1.39.21,1.09,1.09,0,0,1,.75.13c.19.11.35.4.29.54s-.21.22-.53.26a4.84,4.84,0,0,1-1.55-.13l-.4-.11a5.37,5.37,0,0,0,0,.72,2.42,2.42,0,0,0,.94,2,3.12,3.12,0,0,0,2.72.19,2.05,2.05,0,0,0,1.41-1.84,3.57,3.57,0,0,0-.42-2,4.27,4.27,0,0,0-1.09-1.36,5.44,5.44,0,0,0-.8-.56c-.14-.06-.26-.16-.19-.27s.19-.08.3,0a3.77,3.77,0,0,1,.83.43,6.45,6.45,0,0,1,1.75,1.52A3.62,3.62,0,0,1,348.14,404.52Zm-6.67-2.1a7.18,7.18,0,0,1,.11-.9l-.18.11c-.32.19-.35.42-.16.61A2.13,2.13,0,0,0,341.46,402.42Zm1.14-2.64a.23.23,0,0,1,0,.1c-.06.19-.1.42-.14.62a6.23,6.23,0,0,0,.59-.37c.16-.11.24-.34-.21-.35Z" transform="translate(0 -0.13)"/><path class="cls-6" d="M339.43,419.81a5,5,0,0,1,1.68-2.5,5.18,5.18,0,0,1,1.39-.8s0,0,0-.06c0-.38,0-1.07.08-1.54a2.42,2.42,0,0,1-1.36-.14c-.27-.14-.43-.4-.34-.51s.43,0,.56,0a1.48,1.48,0,0,0,.64.11,3,3,0,0,0,.53-.06c0-.43,0-1.3,0-1.55a.74.74,0,0,0-.34-.62.31.31,0,0,1-.11-.42c.11-.13.5,0,.72.19a1.15,1.15,0,0,1,.51.56,2.13,2.13,0,0,1,0,.82c0,.19,0,.48,0,.78a3.24,3.24,0,0,0,.58-.38,1.66,1.66,0,0,1,.67-.45.69.69,0,0,1,.69,0c.16.11.13.29,0,.5a2.56,2.56,0,0,1-.93.62c-.3.11-.64.22-1,.32v.1c0,.35,0,.91,0,1.42a3,3,0,0,1,.48-.11,1.42,1.42,0,0,0,0-.14c-.13-.21-.21-.42-.11-.48s.34,0,.45.18a.87.87,0,0,1,.18.37,6.41,6.41,0,0,1,3.27.37,2.78,2.78,0,0,1,1.73,2.32,3.39,3.39,0,0,1-1,3,5.72,5.72,0,0,1-2.75,1.39,10.67,10.67,0,0,1-2.27.19c-.21,0-.3-.11-.3-.19s.13-.13.27-.14a13.43,13.43,0,0,0,2.22-.32,4.29,4.29,0,0,0,2.63-1.86,3,3,0,0,0,.21-2.75,2.33,2.33,0,0,0-1.73-1.26,6.53,6.53,0,0,0-2.18-.1,4.3,4.3,0,0,1-.62,2.19c-.13.26-.26.48-.37.7s0,.62,0,.83a1.73,1.73,0,0,1-.16,1,.46.46,0,0,1-.59.26c-.14-.06-.11-.38-.13-.74v-.06c-.16.19-.32.4-.5.59a1.77,1.77,0,0,1-2.08.61C339.24,421.73,339.19,420.74,339.43,419.81Zm1,1.25a1.16,1.16,0,0,0,1.18-.29,7.55,7.55,0,0,0,.91-1v-1c0-.24,0-1,0-1.63a4,4,0,0,0-.83.53,3.81,3.81,0,0,0-1.28,1.7C340.15,420.07,340.07,420.85,340.39,421.06Zm3.46-4.13s0-.1,0-.14a5.43,5.43,0,0,0-.54.11c0,.48,0,1.14,0,1.55a1.38,1.38,0,0,0,.08-.14A4.64,4.64,0,0,0,343.85,416.93Z" transform="translate(0 -0.13)"/><path class="cls-6" d="M348.27,437.51a4.07,4.07,0,0,1-2.13,1.26,5.52,5.52,0,0,1-2.56,0c-1-.21-1.36-.54-1.36-1s.61-.86,1.14-1a2,2,0,0,1,1.67.3.81.81,0,0,1,.21,1.1,4,4,0,0,0,2-.74,2.5,2.5,0,0,0,.91-2,2.35,2.35,0,0,0-1.42-2,4,4,0,0,0-2.85-.1,4,4,0,0,0-2.13,1.46,6.42,6.42,0,0,0-1,1.79,1.16,1.16,0,0,1-.48.75.43.43,0,0,1-.53-.08.89.89,0,0,1-.18-.7,3.88,3.88,0,0,1,.7-1.09c.3-.38.72-1,1.26-1.57s1.41-1.65,1.76-2,1.44-1.74,1.62-2,.26-.4.18-.46-.35,0-.51.13l-1.41.83a2.48,2.48,0,0,1-1.2.35,1.23,1.23,0,0,1-.83-.35.56.56,0,0,1-.18-.51.26.26,0,0,1,.35-.13,2.37,2.37,0,0,0,.54.1,1.82,1.82,0,0,0,.9-.22c.48-.19,1.12-.5,1.67-.78a3.49,3.49,0,0,1,1.18-.51,1.12,1.12,0,0,1,.85.42c.21.22.22.37.19.51s-.11.22-.34.37a7.6,7.6,0,0,0-1.14,1c-.43.45-1,1.1-1.34,1.52,0,0-.38.42-1.14,1.2a3.4,3.4,0,0,1,.88-.45,4.62,4.62,0,0,1,2.1-.27,4.21,4.21,0,0,1,2.11.77,2.66,2.66,0,0,1,1.17,2A2.6,2.6,0,0,1,348.27,437.51Zm-4.61-.26c-.51,0-.83.32-.61.64a1.63,1.63,0,0,0,1.2.35C344.87,437.69,344.31,437.26,343.66,437.26Z" transform="translate(0 -0.13)"/><path class="cls-6" d="M341,452.33a3.9,3.9,0,0,0,1.49.72,8.78,8.78,0,0,0,2.67.34A8.9,8.9,0,0,0,347,453a1.16,1.16,0,0,1,.9,0,.92.92,0,0,1,.5.45c0,.18-.08.37-.7.56a9.45,9.45,0,0,1-2.72.27,10.3,10.3,0,0,1-2.72-.46,4,4,0,0,1-1.55-.8,1.88,1.88,0,0,1-.43-1c0-.3,0-.5.11-.5s.22.18.27.32A1.32,1.32,0,0,0,341,452.33Zm4-6.15c-.35,0-.7-.06-1.26-.14a12.35,12.35,0,0,1-1.44-.27c-.32-.11-.48-.35-.38-.45s.32-.1.51,0a3.24,3.24,0,0,0,.9.13,8.53,8.53,0,0,0,1.25-.14c.48-.08,1.12-.32,1.5-.35s.53.08.59.35-.18.38-.45.53a3.14,3.14,0,0,0-.51.37c-.19.14-.51.35-.69.48s-.3.14-.37.1-.06-.18,0-.26A4.08,4.08,0,0,0,345,446.18Z" transform="translate(0 -0.13)"/><path class="cls-6" d="M349.83,465.09a6.16,6.16,0,0,1-.21,2.21,3.54,3.54,0,0,1-1.55,2,7.41,7.41,0,0,1-2.64,1,6.88,6.88,0,0,1-2.58,0c-.16,0-.24-.08-.22-.16s.1-.14.22-.13a7.74,7.74,0,0,0,.85,0,8,8,0,0,0,1.92-.27,7.06,7.06,0,0,0,2-.94,3.64,3.64,0,0,0,1.38-2.27,5.65,5.65,0,0,0-.21-2.64,3.34,3.34,0,0,0-1.41-2,4.52,4.52,0,0,0-2.79-.59l-.42.06c0,.32,0,.83,0,1.23a10.58,10.58,0,0,1-.24,2.19,7.09,7.09,0,0,1-1.12,2.82,2.87,2.87,0,0,1-2.1,1.34,1.77,1.77,0,0,1-1.63-1.22,3.45,3.45,0,0,1-.21-2.39,4.82,4.82,0,0,1,1.07-2.22,6.79,6.79,0,0,1,2-1.68,6.55,6.55,0,0,1,3-.7,5,5,0,0,1,2.55.67,4.69,4.69,0,0,1,1.68,1.68A4.27,4.27,0,0,1,349.83,465.09Zm-6.18-3.57a6.44,6.44,0,0,0-2,.93,5.35,5.35,0,0,0-1.9,2.35,3.82,3.82,0,0,0-.13,2.43c.22.54.77.66,1.41.45a2.84,2.84,0,0,0,1.62-1.31,6.16,6.16,0,0,0,.93-2.58A11.46,11.46,0,0,0,343.66,461.52Z" transform="translate(0 -0.13)"/><path class="cls-6" d="M343.8,477.38v-2.23q1.49,0,1.49.34c0,.14-.21.27-.64.43v1.46h4.27l.59-.7c.74.69,1.09,1.12,1.09,1.31s0,.14-.19.16l-.54.08a8.52,8.52,0,0,1-1.33,1l-.26-.21a5,5,0,0,0,.69-1.28H339.8a3.59,3.59,0,0,1-.3,1.9c-.22.43-.48.64-.77.64s-.56-.16-.56-.48a.65.65,0,0,1,.21-.43,4,4,0,0,0,1-2.54l.35,0a4.17,4.17,0,0,1,.1.51Zm0,9.78v-3.6h-4.26l-.16-.37h8.13l.75-.9a7.88,7.88,0,0,1,1,1l-.16.26h-4.47v3.6h4l.8-1a8.43,8.43,0,0,1,1.07,1.07l-.14.26h-12l-.19-.35Zm-5.54-4.82a6.85,6.85,0,0,0,4-4.11c.91.18,1.34.38,1.34.61s-.21.22-.66.26a7,7,0,0,1-4.55,3.57Zm7-.69a1,1,0,0,1-.29-.86v-2.64c.86.08,1.3.22,1.3.42s-.18.22-.53.27v1.81c0,.21.06.34.18.37a8.29,8.29,0,0,0,1.52.06,5.13,5.13,0,0,0,1.26-.1.47.47,0,0,0,.32-.26,5,5,0,0,0,.3-1.49l.35.06c0,.16,0,.38,0,.69a2.32,2.32,0,0,0,.1.88.39.39,0,0,0,.35.14.63.63,0,0,1-.4.66,8.33,8.33,0,0,1-2.27.18A6.36,6.36,0,0,1,345.27,481.65Z" transform="translate(0 -0.13)"/><path class="cls-6" d="M342.49,491.89l.54-.64c.5.42.75.69.75.82s0,.14-.1.18l-.29.18v4h-.8v-.75h-3.27v8.48h-.86V491.4a10.49,10.49,0,0,1,1.06.5Zm-3.15.35v1.26h3.27v-1.26Zm0,3h3.27v-1.39h-3.27Zm6.31,2.13.48-.59c.58.45.88.74.88.86a.2.2,0,0,1-.11.16l-.34.22v4.51h-.8v-.78h-3.3v1h-.83V497l.91.4Zm-3.19.35v1.58h3.3v-1.58Zm3.3,3.68V499.7h-3.3v1.73Zm3.33-9.54.5-.64q.86.67.86.86c0,.06,0,.11-.11.18l-.29.21V503c0,.7-.48,1-1.44,1a.62.62,0,0,0-.46-.61,8.08,8.08,0,0,0-1.09-.24v-.37a13.1,13.1,0,0,0,1.57.1c.37,0,.56-.14.56-.43v-6.83h-3.43v.67h-.82v-4.85c.37.16.7.29,1,.43Zm-3.33.35v1.26h3.43v-1.26Zm3.43,3v-1.39h-3.43v1.39Z" transform="translate(0 -0.13)"/><path class="cls-6" d="M341.61,513.06c-.08.18-.29.86-.46,1.31s-.43,1.38-.64,2.06a3.41,3.41,0,0,0,0,1.67c.1.35.06.8-.18.85s-.46,0-.7-.45a5.36,5.36,0,0,1-.38-1.87,11.7,11.7,0,0,1,.08-2,17.57,17.57,0,0,1,.37-1.92,9.45,9.45,0,0,0,.26-1.82,1.79,1.79,0,0,0-.29-1.15c-.14-.22-.21-.38-.1-.53s.4,0,.56.13a2.65,2.65,0,0,1,.56.86,2.14,2.14,0,0,1,0,1.38c-.13.43-.38,1.17-.61,2a9.38,9.38,0,0,0-.21,2.1c0,.27.19.22.22.08.11-.32.37-1.07.58-1.5s.34-.61.66-1.28c.08-.18.21-.32.32-.26S341.67,512.87,341.61,513.06Zm7.83,5.51c-.08.18-.42.19-.62,0a12.2,12.2,0,0,0-1.1-.9,3.34,3.34,0,0,0-.53-.35c0,.14,0,.26,0,.35a1.56,1.56,0,0,1-1.25,1.31,3.6,3.6,0,0,1-2.22-.22,1.24,1.24,0,0,1-.83-1.22,1.28,1.28,0,0,1,.93-1.09,4.05,4.05,0,0,1,1.87-.19,4.85,4.85,0,0,1,.8.13c0-.38,0-.78,0-1.12,0-.53,0-1.15,0-1.87,0-.32,0-.7,0-1a4.68,4.68,0,0,1-1.34-.11,2.29,2.29,0,0,1-1.1-.58c-.29-.27-.3-.59-.22-.62s.3.08.53.22a2.32,2.32,0,0,0,.75.3,5,5,0,0,0,1.41.13,1.53,1.53,0,0,0,0-.38,12.74,12.74,0,0,0-.1-1.62c-.06-.48-.11-.64-.3-.83s-.27-.38-.18-.54.26-.16.61,0a1.22,1.22,0,0,1,.8.85,3,3,0,0,1,0,1.31,3.33,3.33,0,0,0,.8.32,2.56,2.56,0,0,1,.85.24c.14.13.11.53-.27.8a3.38,3.38,0,0,1-1.57.45c0,.4,0,.8,0,1,0,.51,0,1.41.1,2.22,0,.34,0,.7,0,1,.19.06.4.13.59.21a3.31,3.31,0,0,1,1.41.86A.9.9,0,0,1,349.43,518.57Zm-3-1.63-.24-.1a4.19,4.19,0,0,0-1.76-.14c-.48.06-1,.32-1,.8s.22.74.9.88a2,2,0,0,0,1.49-.19,1.45,1.45,0,0,0,.66-1.23Zm.83-6.23a1.76,1.76,0,0,0,0,.3c0,.16,0,.34-.06.56l.61-.18c.16,0,.16-.14,0-.21S347.5,510.9,347.27,510.71Z" transform="translate(0 -0.13)"/><path class="cls-6" d="M347.91,523.25a5.58,5.58,0,0,1,2.26,1.31,1.39,1.39,0,0,1,.43,1c0,.5-.22.72-.69.72-.24,0-.43-.18-.56-.54a5.73,5.73,0,0,0-1.62-2.21Z" transform="translate(0 -0.13)"/><path class="cls-6" d="M308.61,68.76h-2.21l-.11-.37h5.07l.56-.69q.86.7.86.91a.25.25,0,0,1-.11.18l-.35.24V73.4c0,3.15-.14,5-.45,5.46a1.65,1.65,0,0,1-1.47.66.7.7,0,0,0-.4-.64,6,6,0,0,0-1.2-.35v-.37a11.5,11.5,0,0,0,1.7.18c.5,0,.77-.19.85-.61a28.79,28.79,0,0,0,.14-3h-2.31v.1A7.61,7.61,0,0,1,306,79.93l-.24-.3a8.41,8.41,0,0,0,2.58-4.91H306.2l-.11-.34h2.32a17,17,0,0,0,.21-2.85h-2.35l-.11-.35h2.46Zm2.88,2.77h-2v0a18.85,18.85,0,0,1-.21,2.8h2.24Zm-2-2.77v2.42h2V68.76Zm9,7.09c0,1.42-.54,2.19-1.62,2.27a.68.68,0,0,0-.42-.66,7.52,7.52,0,0,0-1.17-.27v-.37a11.35,11.35,0,0,0,1.39.13.81.81,0,0,0,.88-.61,4,4,0,0,0,.06-.82,4.22,4.22,0,0,0-1.78-3.23l0,0v0l0,0A21.69,21.69,0,0,0,317,68.74h-2.27V80.12h-.85V67.89c.34.16.66.32.93.48H317l.45-.62c.62.54.94.9.94,1s0,.1-.13.14l-.4.16a17.4,17.4,0,0,1-1.6,3.11A4.31,4.31,0,0,1,318.43,75.85Z" transform="translate(0 -0.13)"/><path class="cls-6" d="M305.75,95.24a14.06,14.06,0,0,0,4.16-4.34c.72.43,1.1.75,1.1.94s-.11.14-.34.14a2.29,2.29,0,0,1-.34,0A12.58,12.58,0,0,1,306,95.54Zm.27-4.15A13.13,13.13,0,0,0,309.57,87c.72.43,1.09.75,1.09,1s-.11.16-.32.16a2.17,2.17,0,0,1-.32,0,12.76,12.76,0,0,1-3.76,3.31Zm0-3.78a12,12,0,0,0,3.28-3.49c.67.38,1,.67,1,.86s-.11.16-.3.16a1.4,1.4,0,0,1-.29,0,10.27,10.27,0,0,1-3.52,2.77Zm3.06,8.45a10.77,10.77,0,0,0,3.84-2.29q1.06.58,1.06.82c0,.11-.13.16-.35.16l-.35,0a12.41,12.41,0,0,1-4,1.65Zm4.37-9.46a13.27,13.27,0,0,0,.29-1.84h-3.06l-.19-.37h6.4l.75-.94a9.28,9.28,0,0,1,1.06,1.06l-.13.26H315a16,16,0,0,1-1,1.84h2.59l.58-.69c.58.46.88.75.88.9a.23.23,0,0,1-.13.16l-.32.24v6.59h-.83V93h-4.27v.54h-.83V85.88a3.18,3.18,0,0,0,.35.16,5.75,5.75,0,0,1,.56.27Zm3.22,2v-1.6h-4.27v1.6Zm0,.37h-4.27v1.74h4.27Zm0,4V90.73h-4.27V92.6Zm-1.54.88c2.45.54,3.68,1.18,3.68,1.92a.44.44,0,0,1-.48.5.59.59,0,0,1-.42-.19,9,9,0,0,0-3-1.94Z" transform="translate(0 -0.13)"/><path class="cls-6" d="M311.82,101V99.2c1,0,1.42.14,1.42.35s-.19.22-.59.37V101h4l.74-.94c.37.35.72.7,1,1l-.14.27H306.36l-.14-.37Zm4.85,5,.56-.62c.59.45.9.75.9.88s0,.11-.13.18l-.37.24v4.16c0,.77-.48,1.17-1.44,1.17v0a.53.53,0,0,0-.34-.5,5.64,5.64,0,0,0-1.57-.3v-.4a15.75,15.75,0,0,0,1.7.1,1.33,1.33,0,0,0,.75-.13.44.44,0,0,0,.08-.29v-4.11h-9v5.79H307v-6.58a7.28,7.28,0,0,1,1,.43Zm-2.06-3.52.54-.62c.56.43.85.72.85.85a.19.19,0,0,1-.13.18l-.34.22v2.21h-.8v-.54h-4.85v.59h-.8v-3.28a9.73,9.73,0,0,1,1,.4Zm-.78,5,.54-.58c.58.42.86.69.86.83s0,.1-.11.14l-.38.24v2.16h-.78v-.45h-3.46v.83h-.8V107c.42.18.74.34.94.45Zm-3.94-4.69v1.58h4.85V102.8Zm.61,5v1.63h3.46v-1.63Z" transform="translate(0 -0.13)"/><path class="cls-6" d="M315.61,118.6l.54-.66c.61.45.9.74.9.86a.27.27,0,0,1-.16.22l-.34.21v4.24h-.82V123h-2.21v4c0,.7-.46,1-1.42,1a.6.6,0,0,0-.3-.54,7.09,7.09,0,0,0-1.42-.32v-.37a16,16,0,0,0,1.76.1c.24,0,.4,0,.46-.08a.68.68,0,0,0,.1-.37V123h-2.42v.59h-.8v-5.38l.13,0,.18.1.59.27h1.79a14.35,14.35,0,0,0,.37-1.87H308v3c0,3.7-.69,6.45-2.08,8.29l-.34-.21c1-1.83,1.54-4.51,1.54-8.08v-3.83l1,.42h8.4l.77-1a9,9,0,0,1,1.06,1l-.14.3h-4.55a12.42,12.42,0,0,1-1.06,1.87Zm-8.07,8.85a9.72,9.72,0,0,0,2.72-3.47c.78.32,1.17.59,1.17.75s-.22.22-.67.22a7.65,7.65,0,0,1-3,2.79Zm8.2-6.92v-1.58h-5.46v1.58Zm0,2.06v-1.71h-5.46v1.71Zm-1.09,1.28a8.56,8.56,0,0,1,2.51,1.68,1.89,1.89,0,0,1,.69,1.18c0,.37-.16.54-.51.54-.14,0-.32-.16-.51-.5a8.94,8.94,0,0,0-2.37-2.64Z" transform="translate(0 -0.13)"/><path class="cls-6" d="M313,136.9a1,1,0,0,1,.29.7.93.93,0,0,1-.14.54,1,1,0,0,1-.9.5,1,1,0,0,1-.66-.24,1,1,0,0,1-.38-.8,1,1,0,0,1,.45-.85,1,1,0,0,1,.59-.19A1,1,0,0,1,313,136.9Z" transform="translate(0 -0.13)"/><path class="cls-6" d="M308.6,157l-.8-.3A22.66,22.66,0,0,0,310,153h-3.94l-.18-.35h4.29a24.4,24.4,0,0,0,1.06-2.5c.88.19,1.31.37,1.31.56s-.22.22-.69.3c-.26.62-.46,1.1-.61,1.39l-.11.24h5.75l.8-1a9.53,9.53,0,0,1,1,1.07l-.16.29h-3a13.19,13.19,0,0,1-2,4.11c2.72,1,4.1,1.83,4.1,2.39,0,.27-.13.4-.38.4a1.9,1.9,0,0,1-.74-.37,24.46,24.46,0,0,0-3.38-1.84c-1.39,1.44-3.68,2.24-6.85,2.37l-.14-.37q4.2-.41,6.19-2.35c-1.15-.48-2.23-.88-3.19-1.2Zm3.22-7.78v-2c1,0,1.44.13,1.44.34s-.19.26-.61.42v1.25h4.43l.58-.69c.67.66,1,1.07,1,1.26s-.08.14-.21.16L318,150c-.43.45-.93.93-1.5,1.42l-.3-.22a9.6,9.6,0,0,0,.91-1.65h-9.51a4.45,4.45,0,0,1-.26,1.62q-.31.82-.82.82c-.35,0-.53-.16-.53-.5a1.1,1.1,0,0,1,.32-.58,3.59,3.59,0,0,0,.85-2.32l.37,0,0,.35v.08a.61.61,0,0,1,0,.14Zm1,7.63a11.9,11.9,0,0,0,1.78-3.83H311a27.67,27.67,0,0,1-1.55,2.79C310.82,156.21,312,156.57,312.78,156.85Z" transform="translate(0 -0.13)"/><path class="cls-6" d="M308,174.15h3.84V163.73c1,0,1.46.14,1.46.34s-.19.27-.61.43v9.65h3.94v-7.89c1,.08,1.42.21,1.42.4s-.18.27-.58.4v8.76h-.85V174.5H308v1.44h-.83v-9.59c.94,0,1.42.16,1.42.37s-.19.26-.59.4Z" transform="translate(0 -0.13)"/><path class="cls-6" d="M315.95,191.16h-6.16v1h-.85v-3.75a11.92,11.92,0,0,1-3.06,2.42l-.24-.29a11.53,11.53,0,0,0,4.34-5.36h-3.76l-.13-.35h10.53l.83-1c.38.3.67.62,1,.9l.14.14-.18.29H311a10.21,10.21,0,0,1-1.25,2.21l.14.06.1,0h5.79l.56-.67c.61.45.9.74.9.88a.23.23,0,0,1-.13.19l-.34.22v4h-.85Zm-4.13-8.63v-3.25c1,0,1.44.13,1.44.35s-.19.27-.61.4v2.5H316v-2.9c1,0,1.47.14,1.47.38s-.22.26-.64.4v3.19H316v-.7h-7.54v.82h-.82v-4.08c1,0,1.49.14,1.49.35s-.22.26-.67.4v2.15Zm4.13,8.26v-3h-6.16v3Z" transform="translate(0 -0.13)"/><path class="cls-6" d="M317.83,201.09a6.16,6.16,0,0,1-.21,2.21,3.54,3.54,0,0,1-1.55,2,7.41,7.41,0,0,1-2.64,1,6.88,6.88,0,0,1-2.58,0c-.16,0-.24-.08-.22-.16s.1-.14.22-.13a7.74,7.74,0,0,0,.85,0,8,8,0,0,0,1.92-.27,7.06,7.06,0,0,0,2-.94,3.64,3.64,0,0,0,1.38-2.27,5.65,5.65,0,0,0-.21-2.64,3.34,3.34,0,0,0-1.41-2,4.52,4.52,0,0,0-2.79-.59l-.42.06c0,.32,0,.83,0,1.23a10.58,10.58,0,0,1-.24,2.19,7.09,7.09,0,0,1-1.12,2.82,2.87,2.87,0,0,1-2.1,1.34,1.77,1.77,0,0,1-1.63-1.22,3.45,3.45,0,0,1-.21-2.39,4.82,4.82,0,0,1,1.07-2.22,6.79,6.79,0,0,1,2-1.68,6.55,6.55,0,0,1,3-.7,5,5,0,0,1,2.55.67,4.69,4.69,0,0,1,1.68,1.68A4.27,4.27,0,0,1,317.83,201.09Zm-6.18-3.57a6.44,6.44,0,0,0-2,.93,5.35,5.35,0,0,0-1.9,2.35,3.82,3.82,0,0,0-.13,2.43c.22.54.77.66,1.41.45a2.84,2.84,0,0,0,1.62-1.31,6.16,6.16,0,0,0,.93-2.58A11.46,11.46,0,0,0,311.66,197.52Z" transform="translate(0 -0.13)"/><path class="cls-6" d="M316.31,222.76h-6.4v1.15H309v-5.76a14.67,14.67,0,0,1-3.22,3.06l-.24-.32a15.69,15.69,0,0,0,5-7.72H306.2l-.13-.37h10.61l.83-1a9.6,9.6,0,0,1,1.09,1.07l-.16.3h-6.83l-.1.22a20.39,20.39,0,0,1-1.86,3.89l.37.18h6.13l.59-.72c.66.5.94.8.94.93s0,.11-.14.19l-.38.26v5.79h-.85Zm0-.35v-4.58h-6.4v4.58Z" transform="translate(0 -0.13)"/><path class="cls-6" d="M308.73,237.21a3.3,3.3,0,0,0,2,1.38,15,15,0,0,0,4.11.42c1.23,0,2.58,0,4-.18a3.85,3.85,0,0,0-.43.93H315a13.33,13.33,0,0,1-4.64-.59,3.55,3.55,0,0,1-1.89-1.58,18,18,0,0,1-1.54,2c0,.38,0,.58-.18.58s-.5-.38-.9-1.1a13.34,13.34,0,0,0,2-1.44v-3.89H306l-.14-.37h1.92l.58-.66c.58.45.85.74.85.86a.22.22,0,0,1-.13.18l-.32.22Zm-2.16-9.46c1.49.67,2.22,1.41,2.22,2.18,0,.37-.18.56-.51.56a.46.46,0,0,1-.45-.34,4.78,4.78,0,0,0-1.49-2.13Zm7,1.79v-2.35c.91,0,1.38.16,1.38.35s-.19.24-.56.38v1.62h2l.67-.9a6.23,6.23,0,0,1,.85.86l.11.14-.14.26h-3.54v2.19H317l.67-.9a8.31,8.31,0,0,1,1,1l-.18.27h-8.92l-.19-.37h4.13v-2.19h-2.18a7.55,7.55,0,0,1-1.31,1.87l-.3-.24a11.43,11.43,0,0,0,1.54-4.15c.88.16,1.33.34,1.33.53s-.19.22-.58.29a7.38,7.38,0,0,1-.48,1.33Zm2.66,4.34.48-.62c.59.45.88.74.88.88a.13.13,0,0,1-.08.13l-.37.26V238h-.82v-.78h-4.67v.85h-.83v-4.66a7.88,7.88,0,0,1,1,.45Zm-4.58.37v2.63h4.67v-2.62Z" transform="translate(0 -0.13)"/><path class="cls-6" d="M314.52,251.62a5.91,5.91,0,0,0,.26-2.67,2.41,2.41,0,0,0-.8-1.7,2.16,2.16,0,0,0-1.75-.48,2.49,2.49,0,0,0-1.39.67,2.22,2.22,0,0,0-.72,1.7,2.79,2.79,0,0,0,.61,1.52c.21.32.34.9,0,1.1s-.78-.13-1.1-.64a4.43,4.43,0,0,1-.51-2,7.12,7.12,0,0,1,.19-2,7.63,7.63,0,0,0,.27-1.58,1.25,1.25,0,0,0-.37-1c-.19-.16-.29-.3-.26-.45s.3-.18.5-.11a1.29,1.29,0,0,1,.77.59,1.87,1.87,0,0,1,.1,1.7,4.32,4.32,0,0,0-.45,1.7,2,2,0,0,1,.53-.78,3.49,3.49,0,0,1,1.78-.85,2.78,2.78,0,0,1,2.16.51,3.31,3.31,0,0,1,1.22,1.86,5.19,5.19,0,0,1,.1,2.4,4.29,4.29,0,0,1-.85,2,4.86,4.86,0,0,1-1.82,1.47,6.65,6.65,0,0,1-1.86.58,4.76,4.76,0,0,1-1.18.11c-.24,0-.35-.08-.35-.14s.08-.14.29-.16a9,9,0,0,0,1-.14,5.08,5.08,0,0,0,2.34-1.14A4.44,4.44,0,0,0,314.52,251.62Z" transform="translate(0 -0.13)"/><path class="cls-6" d="M317.83,265.09a6.16,6.16,0,0,1-.21,2.21,3.54,3.54,0,0,1-1.55,2,7.41,7.41,0,0,1-2.64,1,6.88,6.88,0,0,1-2.58,0c-.16,0-.24-.08-.22-.16s.1-.14.22-.13a7.74,7.74,0,0,0,.85,0,8,8,0,0,0,1.92-.27,7.06,7.06,0,0,0,2-.94,3.64,3.64,0,0,0,1.38-2.27,5.65,5.65,0,0,0-.21-2.64,3.34,3.34,0,0,0-1.41-2,4.52,4.52,0,0,0-2.79-.59l-.42.06c0,.32,0,.83,0,1.23a10.58,10.58,0,0,1-.24,2.19,7.09,7.09,0,0,1-1.12,2.82,2.87,2.87,0,0,1-2.1,1.34,1.77,1.77,0,0,1-1.63-1.22,3.45,3.45,0,0,1-.21-2.39,4.82,4.82,0,0,1,1.07-2.22,6.79,6.79,0,0,1,2-1.68,6.55,6.55,0,0,1,3-.7,5,5,0,0,1,2.55.67,4.69,4.69,0,0,1,1.68,1.68A4.27,4.27,0,0,1,317.83,265.09Zm-6.18-3.57a6.44,6.44,0,0,0-2,.93,5.35,5.35,0,0,0-1.9,2.35,3.82,3.82,0,0,0-.13,2.43c.22.54.77.66,1.41.45a2.84,2.84,0,0,0,1.62-1.31,6.16,6.16,0,0,0,.93-2.58A11.46,11.46,0,0,0,311.66,261.52Z" transform="translate(0 -0.13)"/><path class="cls-6" d="M308.9,284.92a3.21,3.21,0,0,0,2,1.62A13.53,13.53,0,0,0,315,287a38.42,38.42,0,0,0,3.86-.21,2.18,2.18,0,0,0-.43,1h-3.17a13.7,13.7,0,0,1-4.47-.56,3.64,3.64,0,0,1-2.08-1.73,20.79,20.79,0,0,1-1.81,2.06c0,.38-.08.58-.21.58s-.5-.38-.88-1.15a14.41,14.41,0,0,0,2.29-1.44v-3.84H306l-.18-.37H308l.56-.66c.56.46.85.75.85.88s0,.11-.13.16l-.34.22Zm-2.34-9.17c1.63.67,2.46,1.39,2.46,2.18,0,.38-.18.58-.56.58-.21,0-.4-.18-.53-.53a4.59,4.59,0,0,0-1.58-1.94Zm6.8,2.83v-1.44h-3l-.18-.35h3.14v-1.63c.93,0,1.39.11,1.39.32s-.19.26-.58.38v.93H316l.66-.82a6.83,6.83,0,0,1,.9.91l-.16.26h-3.23v1.44h2.46l.69-.88a3.36,3.36,0,0,0,.24.24,7.34,7.34,0,0,1,.66.72l-.18.29h-8.4l-.18-.37Zm2.56,1.41.5-.54c.53.38.78.64.78.75a.22.22,0,0,1-.1.16l-.3.24v1.9l.5-.78c.61.4.91.69.91.83s-.14.18-.43.18l-.19,0a6,6,0,0,1-1.39,1.06c1.12.54,1.68,1,1.68,1.42a.42.42,0,0,1-.48.46c-.11,0-.29-.11-.5-.35a8.45,8.45,0,0,0-2.72-1.89v2.95h-.82v-3.09a11.86,11.86,0,0,1-3.52,2.29l-.22-.3a12.42,12.42,0,0,0,3.73-3h-2v.46h-.78v-3a5.85,5.85,0,0,1,.86.32Zm.1,1.87v-1.5H311.4v1.5Zm0,.37h-1.71c-.06.06-.1.13-.13.16V283a.41.41,0,0,1,.18,0,12,12,0,0,1,1.5.54,9.13,9.13,0,0,0,.85-1H316Z" transform="translate(0 -0.13)"/><path class="cls-6" d="M314.28,296.61v6.21c0,.77-.5,1.14-1.5,1.12a.68.68,0,0,0-.34-.61A5.89,5.89,0,0,0,311,303v-.4a17.28,17.28,0,0,0,1.92.11c.3,0,.46-.06.5-.14a.6.6,0,0,0,.06-.32v-5.63h-2v.58a8.91,8.91,0,0,1-1,4.51,6.79,6.79,0,0,1-2.9,2.45l-.26-.3a6.45,6.45,0,0,0,2.8-3.36,10.15,10.15,0,0,0,.46-3.31v-.56h-4.42l-.14-.37h5.89v-2.19h-4.45l-.14-.37h4.59v-2.35c1,0,1.52.16,1.52.37s-.22.26-.67.38v1.6h2.85l.7-.94a7.65,7.65,0,0,1,1,1l-.16.29h-4.39v2.19h3.91l.78-1a7.54,7.54,0,0,1,1.07,1.12l-.14.29ZM306,301.94a10.14,10.14,0,0,0,2.16-4.35q1.34.43,1.34.77t-.62.24a9.17,9.17,0,0,1-2.59,3.6Zm9.16-4.5a9.22,9.22,0,0,1,2.4,2.31,2.28,2.28,0,0,1,.51,1.25c0,.38-.18.58-.54.58s-.43-.22-.58-.69a8.54,8.54,0,0,0-2-3.19Z" transform="translate(0 -0.13)"/><path class="cls-6" d="M309.24,310a17.43,17.43,0,0,1-.93,2.37c1.36.67,2,1.31,2,2,0,.34-.16.5-.45.5a.44.44,0,0,1-.43-.35,4.54,4.54,0,0,0-1.33-1.78,12.28,12.28,0,0,1-2.13,2.83l-.27-.24a17.12,17.12,0,0,0,3.22-8c.91.18,1.38.35,1.38.54s-.21.24-.61.35c-.13.58-.26,1.06-.38,1.49h2.27l.51-.67c.59.51.9.83.9,1s0,.11-.13.16l-.32.18a14.3,14.3,0,0,0,1.6,1.89v-4.69c1,0,1.46.18,1.46.38s-.21.24-.62.37V313a15.68,15.68,0,0,0,4,2.39,2.32,2.32,0,0,0-.62.8,16,16,0,0,1-3.36-2.31v6.21h-.83v-7a13,13,0,0,1-1.71-2.22c-.9,4.35-3,7.46-6.35,9.28l-.24-.3a12.86,12.86,0,0,0,4.45-5.15,18.74,18.74,0,0,0,1.39-4.61Z" transform="translate(0 -0.13)"/><path class="cls-6" d="M305.65,335a13.68,13.68,0,0,0,.75-4c.85.16,1.26.34,1.26.51s-.14.19-.45.26a9,9,0,0,1-1.26,3.38Zm4.24-10.13c.72.32,1.07.58,1.07.8s-.19.18-.59.18a21.6,21.6,0,0,1-2.72,3.36c1-.08,1.7-.13,2.26-.19a4.42,4.42,0,0,0-.66-1.06l.22-.24c1,.77,1.55,1.49,1.55,2.18,0,.37-.16.54-.48.54s-.34-.16-.37-.53a2.16,2.16,0,0,0-.13-.51l-1.22.26v6.48H308v-6.34c-.38.06-.9.14-1.55.21q-.14.48-.29.48c-.14,0-.32-.42-.5-1.22l1.42,0A27,27,0,0,0,309.89,324.85ZM308.28,323c.77.29,1.15.53,1.15.7s-.18.19-.53.21a18.86,18.86,0,0,1-1.46,2,1.8,1.8,0,0,1,.75,1.18c0,.34-.16.51-.46.51s-.35-.16-.46-.5A4.23,4.23,0,0,0,306,325.4l.18-.26a7.76,7.76,0,0,1,1,.56A15.52,15.52,0,0,0,308.28,323Zm1.22,7.81a3.91,3.91,0,0,1,1.33,2.59c0,.4-.16.59-.48.59s-.37-.19-.4-.59a5.76,5.76,0,0,0-.7-2.43Zm3.3,0,.51-.64c.56.51.85.83.85.94s-.06.13-.14.18l-.34.16a6.94,6.94,0,0,1-3.23,4.08l-.22-.29a7.75,7.75,0,0,0,2.66-4.08h-2l-.13-.35Zm1.7-1.66h-1.87v.66h-.82v-5.12q.5.22.91.43h1.2a10.17,10.17,0,0,0,.37-1.87q1.39.19,1.39.48c0,.1-.19.21-.58.29a9.51,9.51,0,0,1-.72,1.1h2.39l.53-.66c.58.45.86.75.86.88a.21.21,0,0,1-.14.19l-.34.21v4h-.8v-.64H315.3a8.4,8.4,0,0,0,1.14,2.8,11.42,11.42,0,0,0,1.42-2.08c.62.43.93.72.93.91s-.1.18-.3.18a.8.8,0,0,1-.24,0,11.68,11.68,0,0,1-1.58,1.36,8.84,8.84,0,0,0,2.46,2.34,2.61,2.61,0,0,0-.77.8,9.07,9.07,0,0,1-3.07-5.07v4.64c0,.74-.45,1.09-1.34,1.07a.62.62,0,0,0-.43-.59c-.13,0-.5-.13-1-.26v-.37a11.57,11.57,0,0,0,1.55.11c.3,0,.46-.14.46-.42Zm2.38-2.26v-1.41h-4.26v1.41Zm0,1.9v-1.54h-4.26v1.54Z" transform="translate(0 -0.13)"/><path class="cls-6" d="M311.29,344.94c0,.29,0,1.54,0,2.1a14.13,14.13,0,0,0,.06,2c.1.53.21,1,.29,1.41s0,1-.32,1.07a1,1,0,0,1-.94-.66,2.25,2.25,0,0,1-.11-1.34c.08-.43.16-1,.22-1.73s.06-1.71.1-2.58.06-1.62.1-2.3a7.24,7.24,0,0,0,0-1.6,1.42,1.42,0,0,0-.45-.94c-.27-.21-.37-.48-.26-.64s.42-.14.66-.08a1.39,1.39,0,0,1,.77.51,1.41,1.41,0,0,1,0,.88c0,.26,0,.69-.08,1.18s0,1.07,0,1.7c0,.21.19.21.34.22a4.16,4.16,0,0,1,1.74.37,4.36,4.36,0,0,1,1.58,1.1c.45.5.74,1.34.11,1.58s-.94-.5-1.3-1.09a3.41,3.41,0,0,0-1.12-1.23,2.5,2.5,0,0,0-1.06-.38C311.35,344.49,311.29,344.63,311.29,344.94Zm4.24-.78a5.49,5.49,0,0,0-.93-.74c-.13-.1-.19-.21-.13-.32s.19-.06.27,0a2.57,2.57,0,0,1,.88.19,2.15,2.15,0,0,1,.94.64.39.39,0,0,1-.22.59A1,1,0,0,1,315.53,344.15Zm1.28-.66a2.34,2.34,0,0,0-1-.66c-.13-.06-.21-.21-.14-.3s.18-.06.27-.06a2.4,2.4,0,0,1,.88.14,2,2,0,0,1,1,.59.39.39,0,0,1-.19.59A.84.84,0,0,1,316.81,343.5Z" transform="translate(0 -0.13)"/><path class="cls-6" d="M313,357.44c.13.24,0,.45,0,.7s-.06,1.38-.1,2,0,2.5,0,3,0,1.74-.06,2.29-.1,1.14-.3,1.12-.26-.5-.29-1.09-.08-1.57-.08-2.27,0-2.29,0-3.09-.11-1.58-.14-2a1.66,1.66,0,0,0-.4-.93c-.18-.21-.19-.48-.08-.58s.4-.08.75.13A1.9,1.9,0,0,1,313,357.44Z" transform="translate(0 -0.13)"/><path class="cls-6" d="M317.11,379.94c.46.75.74,1.74.11,1.94s-1-.5-1.33-1.44a2.86,2.86,0,0,0-.13-.34l-2.54.62c-.7.18-2.42.58-2.93.67a1.89,1.89,0,0,0-1.25.66,1,1,0,0,1-.62.3,1.75,1.75,0,0,1-1-.42,1.16,1.16,0,0,1-.43-1c0-.26.32-.22.69-.26s.56-.35,1-1.06.75-1.36,1.33-2.35a25.44,25.44,0,0,0,1.41-2.74,1.4,1.4,0,0,0-.18-1.25c-.14-.22-.29-.45-.14-.54s.61-.1,1,.21a1.28,1.28,0,0,1,.53,1,1.51,1.51,0,0,1-.45,1c-.26.38-1.15,1.86-1.63,2.64s-1.5,2.54-1.6,2.72,0,.24.11.24.53,0,1.1-.16,2.11-.37,2.85-.5,1.63-.32,2.47-.45a5,5,0,0,0-.91-1.18c-.21-.19-.35-.37-.26-.46s.32,0,.72.19A6.56,6.56,0,0,1,317.11,379.94Z" transform="translate(0 -0.13)"/><path class="cls-6" d="M318,391.62c.24.3.27.53.14.62s-.26,0-.42,0a6.39,6.39,0,0,0-1.38-.16c-.53,0-1.1,0-1.78,0,0,.26,0,.51,0,.74a7.32,7.32,0,0,1-.29,2.22,6.29,6.29,0,0,1-.91,2,5.71,5.71,0,0,1-1.67,1.57,6.42,6.42,0,0,1-1.57.77c-.21.06-.27-.19-.08-.27a8.81,8.81,0,0,0,.9-.45,4.31,4.31,0,0,0,1.87-1.9,8.53,8.53,0,0,0,.82-3.22c0-.5.06-1,.1-1.46a21.87,21.87,0,0,0-2.21.1l-.13,0v.43c0,.4,0,1.06,0,1.3,0,.48.18,1.26-.43,1.26s-.5-.86-.46-1.25,0-1,0-1.65l-.93.11a10.89,10.89,0,0,1-1.87.08,1.52,1.52,0,0,1-1.06-.4c-.18-.16-.34-.43-.16-.61s.72,0,1.1.13a5.78,5.78,0,0,0,1.6.1l1.31-.06v-.26a7.85,7.85,0,0,0-.08-1.6.9.9,0,0,0-.45-.61c-.21-.13-.29-.3-.19-.43s.4-.16.7,0a1.12,1.12,0,0,1,.67.59,4,4,0,0,1,.11,1.23c0,.29,0,.69,0,1.09l.19,0,2.19-.1,0-.69a8.11,8.11,0,0,0-.11-1.79,1,1,0,0,0-.48-.77c-.18-.13-.32-.3-.21-.42s.45-.08.64,0a2.06,2.06,0,0,1,.93.83c.24.35.11.93.08,1.62,0,.32,0,.75-.06,1.18a7.48,7.48,0,0,0,1.31-.1,8.2,8.2,0,0,1,1.1-.14A1.17,1.17,0,0,1,318,391.62Z" transform="translate(0 -0.13)"/><path class="cls-6" d="M308,415.36c-.24,0-.42,0-.45-.13s.1-.19.37-.24a9.87,9.87,0,0,0,1.6-.37,7.44,7.44,0,0,0,2.71-1.55,8.18,8.18,0,0,0,1.76-2.31,7.34,7.34,0,0,0,.7-2,5,5,0,0,0,.1-1.58.28.28,0,0,0-.35-.3c-.66.06-1.73.13-2.23.13s-1.46,0-1.57,0-.11.08-.11.14c0,.37.1.67.16,1.12a2.2,2.2,0,0,1,.06.82c0,.24-.14.4-.29.43a.49.49,0,0,1-.43-.14c-.22-.16-.26-.45-.29-.78,0-.59-.08-1.31-.13-1.63a1,1,0,0,0-.26-.67c-.16-.13-.3-.29-.21-.43s.45-.11.69,0a1.43,1.43,0,0,1,.51.38.57.57,0,0,0,.29.18h.72c.19,0,.37,0,.53,0,0-.26,0-.77,0-1.07s-.06-.75-.29-.91-.37-.38-.29-.53a.45.45,0,0,1,.5-.1,1.76,1.76,0,0,1,.78.38c.27.24.11.59,0,.91a12.12,12.12,0,0,0-.08,1.28,2.85,2.85,0,0,0,.35,0l1.26-.06a2.88,2.88,0,0,0,.93-.27.62.62,0,0,1,.56-.08,2.25,2.25,0,0,1,.59.43.34.34,0,0,1,0,.54,1.34,1.34,0,0,0-.37.83,6.54,6.54,0,0,1-.26,1.18,7.85,7.85,0,0,1-1.31,2.79,9.8,9.8,0,0,1-2.32,2.23,8.48,8.48,0,0,1-2.45,1.12,7.1,7.1,0,0,1-1.6.26Z" transform="translate(0 -0.13)"/><path class="cls-6" d="M307.67,423.64a3.45,3.45,0,0,0,.85.24,4.62,4.62,0,0,0,1.39,0c.72-.08,1.18-.18,1.73-.24l.45,0c0-.43,0-.8,0-1.07a11.63,11.63,0,0,0-.11-1.36,1.2,1.2,0,0,0-.38-.82c-.24-.19-.38-.56-.27-.7s.53-.1.86,0a1.65,1.65,0,0,1,.75.51.74.74,0,0,1,.16.64,2.27,2.27,0,0,0,0,.46,7.53,7.53,0,0,0,0,1.18c0,.24,0,.59,0,1,.1,0,.19,0,.29,0,.62-.06,1.34-.11,1.79-.19a7,7,0,0,1,1.23-.14,1.86,1.86,0,0,1,1,.32.71.71,0,0,1,.3.54c0,.14-.32.14-.8.13s-1.17,0-2-.06a15.45,15.45,0,0,0-1.87.06c0,.5-.06,1-.11,1.46a8.72,8.72,0,0,1-.46,2.26,7.74,7.74,0,0,1-1.12,2.1,9.21,9.21,0,0,1-1.3,1.42c-.21.19-.48.37-.58.24s.06-.26.27-.45a8.44,8.44,0,0,0,1.17-1.68,7.82,7.82,0,0,0,.91-2.58,21.75,21.75,0,0,0,.24-2.45v-.24c-.88.06-1.49.16-1.89.21a18.28,18.28,0,0,1-1.86.27,1.25,1.25,0,0,1-1.17-.37c-.26-.3-.29-.56-.13-.69S307.49,423.57,307.67,423.64Z" transform="translate(0 -0.13)"/><path class="cls-6" d="M318,435.28a1.69,1.69,0,0,1,.88,1.52,1.8,1.8,0,0,1-1.79,1.81,1.83,1.83,0,0,1-.78-.19,1.77,1.77,0,0,1-.18-3.12,1.72,1.72,0,0,1,.94-.29A1.75,1.75,0,0,1,318,435.28Zm-1.87.64a1.26,1.26,0,0,0-.34.88,1.37,1.37,0,0,0,.19.7,1.23,1.23,0,0,0,1.1.59,1.3,1.3,0,0,0,1.3-1.3,1.22,1.22,0,0,0-.56-1,1.28,1.28,0,0,0-.74-.26A1.32,1.32,0,0,0,316.15,435.92Z" transform="translate(0 -0.13)"/><path class="cls-4" d="M444.88,120.59a4.88,4.88,0,0,1,4,1.91,7.14,7.14,0,0,1,1.51,4.79,8.89,8.89,0,0,1-1.37,5,5.23,5.23,0,0,1-9.25-.5,15.49,15.49,0,0,1-1.58-7.6,19.55,19.55,0,0,1,2-9.5q2-3.56,5.18-3.56a4.92,4.92,0,0,1,3.35,1.15,2.92,2.92,0,0,1,1.12,2.2c0,1.19-.5,1.76-1.51,1.76s-1.48-.47-1.48-1.44a1.35,1.35,0,0,1,.76-1.33,2,2,0,0,0-2.2-1.37c-1.51,0-2.74,1.12-3.67,3.31a20.32,20.32,0,0,0-1.33,7.63A5.24,5.24,0,0,1,444.88,120.59Zm-3.24,11c.76,1.51,1.69,2.27,2.88,2.27a2.93,2.93,0,0,0,2.48-1.58,8.78,8.78,0,0,0,1.22-4.93,7.44,7.44,0,0,0-.83-3.71,3.3,3.3,0,0,0-2.92-2,4,4,0,0,0-2.23.79,5.64,5.64,0,0,0-1.44,1.37c-.29.43-.43.68-.43.68A16.69,16.69,0,0,0,441.64,131.61Z" transform="translate(0 -0.13)"/><path class="cls-4" d="M464.71,114c1.26,2.2,1.91,5.29,1.91,9.32a19.4,19.4,0,0,1-1.33,7.67c-1.12,2.56-2.81,3.85-4.9,3.85s-3.56-1.15-4.71-3.46a18.72,18.72,0,0,1-1.51-8.06c0-4.28.72-7.52,2.12-9.68a4.74,4.74,0,0,1,4.07-2.52C462.12,111.13,463.6,112.1,464.71,114Zm-8.28,9.29c0,7.06,1.3,10.58,4,10.58s4-3.53,4-10.55c0-7.52-1.3-11.23-4-11.23S456.43,115.81,456.43,123.29Z" transform="translate(0 -0.13)"/><path class="cls-4" d="M480.91,114c1.26,2.2,1.91,5.29,1.91,9.32a19.4,19.4,0,0,1-1.33,7.67c-1.12,2.56-2.81,3.85-4.9,3.85s-3.56-1.15-4.71-3.46a18.72,18.72,0,0,1-1.51-8.06c0-4.28.72-7.52,2.12-9.68a4.74,4.74,0,0,1,4.07-2.52C478.32,111.13,479.8,112.1,480.91,114Zm-8.28,9.29c0,7.06,1.3,10.58,4,10.58s4-3.53,4-10.55c0-7.52-1.3-11.23-4-11.23S472.63,115.81,472.63,123.29Z" transform="translate(0 -0.13)"/><path class="cls-6" d="M339.41,103.93a2.3,2.3,0,0,1-1.81-.85,3.22,3.22,0,0,1-.69-2.11,4,4,0,0,1,.5-2,2.4,2.4,0,0,1,2.19-1.34q2.74,0,2.74,4.85a9.3,9.3,0,0,1-.7,3.92,2.64,2.64,0,0,1-2.42,1.78,2.24,2.24,0,0,1-1.36-.45,1.64,1.64,0,0,1-.72-1.33c0-.53.22-.8.71-.8a.6.6,0,0,1,.69.69.66.66,0,0,1-.43.61,1,1,0,0,0,1.1.85c.69,0,1.2-.48,1.58-1.42a9.52,9.52,0,0,0,.58-3.46A2.21,2.21,0,0,1,339.41,103.93Zm.21-5.89a1.36,1.36,0,0,0-1.17.7,3.74,3.74,0,0,0-.56,2.18,3.25,3.25,0,0,0,.38,1.63,1.49,1.49,0,0,0,1.31.86,1.69,1.69,0,0,0,1.06-.38,2.26,2.26,0,0,0,.48-.48,1.06,1.06,0,0,0,.24-.42C341.36,99.4,340.78,98,339.61,98Z" transform="translate(0 -0.13)"/><path class="cls-6" d="M345.92,107.88v-.32a.6.6,0,0,0,.53-.24,1.53,1.53,0,0,0,.08-.59V102.3c0-.35-.06-.58-.18-.64a.85.85,0,0,0-.45-.11v-.32a5.39,5.39,0,0,0,1.34-.43v1c.38-.66.82-1,1.25-1a1.05,1.05,0,0,1,1.07.94,1.54,1.54,0,0,1,1.26-.94c.85,0,1.26.58,1.26,1.73v4.15a1,1,0,0,0,.19.72,1,1,0,0,0,.42.11v.32h-2v-.32a.65.65,0,0,0,.51-.24,1.55,1.55,0,0,0,.08-.59v-4c0-.88-.22-1.33-.64-1.33s-.74.34-1,1v4.32a1.15,1.15,0,0,0,.13.66.66.66,0,0,0,.46.18v.32h-2v-.32a.57.57,0,0,0,.51-.26,1.33,1.33,0,0,0,.08-.58v-4c0-.88-.19-1.33-.58-1.33s-.74.34-1,1v4.32a1.19,1.19,0,0,0,.11.64.65.65,0,0,0,.48.19v.32Z" transform="translate(0 -0.13)"/><path class="cls-6" d="M340,166.82a2.17,2.17,0,0,1,1.78.85,3.17,3.17,0,0,1,.67,2.13,4,4,0,0,1-.61,2.23,2.32,2.32,0,0,1-4.11-.22,6.89,6.89,0,0,1-.7-3.38,8.69,8.69,0,0,1,.88-4.23,2.62,2.62,0,0,1,2.3-1.58,2.19,2.19,0,0,1,1.49.51,1.3,1.3,0,0,1,.5,1c0,.53-.22.78-.67.78s-.66-.21-.66-.64a.6.6,0,0,1,.34-.59.91.91,0,0,0-1-.61c-.67,0-1.22.5-1.63,1.47a9,9,0,0,0-.59,3.39A2.33,2.33,0,0,1,340,166.82Zm-1.44,4.9c.34.67.75,1,1.28,1a1.3,1.3,0,0,0,1.1-.7,3.91,3.91,0,0,0,.54-2.19,3.31,3.31,0,0,0-.37-1.65,1.47,1.47,0,0,0-1.3-.88,1.78,1.78,0,0,0-1,.35,2.51,2.51,0,0,0-.64.61c-.13.19-.19.3-.19.3A7.42,7.42,0,0,0,338.56,171.71Z" transform="translate(0 -0.13)"/><path class="cls-6" d="M345.92,172.88v-.32a.6.6,0,0,0,.53-.24,1.53,1.53,0,0,0,.08-.59V167.3c0-.35-.06-.58-.18-.64a.85.85,0,0,0-.45-.11v-.32a5.39,5.39,0,0,0,1.34-.43v1c.38-.66.82-1,1.25-1a1.05,1.05,0,0,1,1.07.94,1.54,1.54,0,0,1,1.26-.94c.85,0,1.26.58,1.26,1.73v4.15a1,1,0,0,0,.19.72,1,1,0,0,0,.42.11v.32h-2v-.32a.65.65,0,0,0,.51-.24,1.55,1.55,0,0,0,.08-.59v-4c0-.88-.22-1.33-.64-1.33s-.74.34-1,1v4.32a1.15,1.15,0,0,0,.13.66.66.66,0,0,0,.46.18v.32h-2v-.32a.57.57,0,0,0,.51-.26,1.33,1.33,0,0,0,.08-.58v-4c0-.88-.19-1.33-.58-1.33s-.74.34-1,1v4.32a1.19,1.19,0,0,0,.11.64.65.65,0,0,0,.48.19v.32Z" transform="translate(0 -0.13)"/></g></g></svg>