<svg xmlns="http://www.w3.org/2000/svg" xmlns:xlink="http://www.w3.org/1999/xlink" viewBox="0 0 763.19 599.28"><defs><style>.cls-1,.cls-7{fill:none;}.cls-2{clip-path:url(#clip-path);}.cls-3{opacity:0.31;}.cls-4{fill:#d48050;}.cls-5{fill:#527c68;}.cls-6{fill:#333;}.cls-7{stroke:gray;stroke-miterlimit:10;stroke-width:0.5px;}.cls-8{fill:#fff;}</style><clipPath id="clip-path" transform="translate(0 -0.13)"><rect class="cls-1" x="163.09" width="370" height="600"/></clipPath></defs><title>Asset 46</title><g id="Layer_2" data-name="Layer 2"><g id="text"><g class="cls-2"><image class="cls-3" width="632" height="421" transform="translate(0) scale(1.21 1.42)" xlink:href="../../../190325 2/190325/design_underA/Links/BGT046.JPG"/></g><path class="cls-4" d="M201.44,110.38a35.15,35.15,0,0,1-6,9.11l-.65-.54a36.91,36.91,0,0,0,6.55-13.07h-5.9l-.32-.83h6.37V99.51l-.5.14c-1.15.29-2.81.54-5,.94l-.43-.76a35.48,35.48,0,0,0,10.73-3.89c1.51.79,2.23,1.37,2.23,1.73s-.29.36-.83.36a4.75,4.75,0,0,1-.79-.07c-1,.36-2.12.72-3.49,1.08v6h2.81l1.55-2.2a15.74,15.74,0,0,1,2.05,2.48l-.32.54h-6.08v2.66c3.89,1.87,5.79,3.56,5.79,5,0,.79-.36,1.15-1,1.15a1,1,0,0,1-.94-.58,13.76,13.76,0,0,0-3.82-4.68V124h-1.91ZM219.8,99.44,221,97.81c1.33,1.15,2,1.87,2,2.16a.43.43,0,0,1-.25.32l-.79.5v21.38h-1.87v-2.92h-7.16v3.53H211V98.39a20.84,20.84,0,0,1,2.23,1Zm-6.87.79v18.21h7.16V100.23Z" transform="translate(0 -0.13)"/><path class="cls-4" d="M241.76,97.71v6q0,14.42-5.4,20.34l-.72-.54c2.81-4.21,4.17-10.8,4.17-19.83V95.94a3.67,3.67,0,0,0,.43.18l.65.29c.25.11.61.29,1.12.5h16.56l1.3-1.55c1.33,1,2,1.73,2,2s-.11.29-.36.47l-.79.43v3c0,7.2.5,12.38,1.44,15.66.54,1.73.94,2.63,1.19,2.63s.72-2.05,1.08-6.12l.86.43-.07,1c-.11,2-.14,3.24-.14,3.78,0,2,.29,3.17.9,3.46-.25.9-.68,1.37-1.4,1.37a2.4,2.4,0,0,1-1.62-.94c-2.81-2.88-4.14-10-4.14-21.35V97.71Zm7.45,8.75v-4.14c-1.69.18-3.71.4-6,.5l-.25-.76a43.55,43.55,0,0,0,11.77-2.59c1.33.83,2,1.4,2,1.8,0,.18-.22.29-.58.29-.18,0-.54-.07-1-.14-1.44.29-2.81.5-4.07.68v4.36h3.28l1.15-1.33c1.22.94,1.87,1.58,1.87,1.91a.37.37,0,0,1-.25.32l-.72.43v7.05h-1.8v-1.48H251v6.19a40.77,40.77,0,0,0,4.14-.36l.79-.11a15.37,15.37,0,0,0-2.38-3.06l.5-.58c3.49,2.3,5.22,4.43,5.22,6.26,0,.79-.36,1.22-1.08,1.22-.5,0-.83-.29-1-.9a8.39,8.39,0,0,0-.83-2.05c-3,.65-7.34,1.26-12.92,1.91-.14.68-.36,1-.54,1-.47,0-.86-1-1.26-2.92,3-.11,5.25-.25,6.88-.32l.65,0v-6.3h-3.35v2.09H244v-10a15,15,0,0,1,2.16,1Zm0,.83h-3.35v5.26h3.35Zm1.8,0v5.26h3.53v-5.26Z" transform="translate(0 -0.13)"/><path class="cls-4" d="M291.3,114.48a20.55,20.55,0,0,0,3-4.1,4.07,4.07,0,0,0-.47-.58,8.78,8.78,0,0,0-2.52-2c-.32-.22-.36-.47-.29-.58.22-.29.72-.14,1,0a14.18,14.18,0,0,1,3,1.73,33.58,33.58,0,0,0,1.84-3.53,13.78,13.78,0,0,0,1-3.1c0-.5-.22-.5-.54-.5-.68,0-1.26,0-2.41.07a20.7,20.7,0,0,0-3.2.43l-.65.11a20,20,0,0,1-2.45,3.53,22.37,22.37,0,0,1-3.06,3.28A13,13,0,0,1,283,111c-.58.25-1,.4-1.12.14s.07-.54.4-.72a9.16,9.16,0,0,0,1.55-1.12,23.14,23.14,0,0,0,3.35-3.74,36.05,36.05,0,0,0,2.23-3.74,13.14,13.14,0,0,0,1-2.77,1.21,1.21,0,0,0-.43-1.37.58.58,0,0,1-.22-.79c.18-.29.68-.29,1.33,0a2,2,0,0,1,1.4,1.58,6.28,6.28,0,0,1-.65,2.66c1.12,0,2.63-.14,3.67-.25a7.57,7.57,0,0,0,2.23-.47,5.79,5.79,0,0,0,.68-.65,1.31,1.31,0,0,1,1.26-.32,3.5,3.5,0,0,1,1.55,1.44c.25.5.22.86-.43,1.37a3.3,3.3,0,0,0-1.22,1.44c-.29.65-.61,1.58-1.15,2.84a23.17,23.17,0,0,1-1.87,3.6,19.62,19.62,0,0,1,1.51,1.44c.79.86,1.4,2.41.29,3.1s-2.2-.79-2.63-1.84a8.74,8.74,0,0,0-.4-.83,30.18,30.18,0,0,1-2.41,2.88,22,22,0,0,1-3.78,3.24,25.88,25.88,0,0,1-5.65,3.1,11.66,11.66,0,0,1-2.05.72c-.4.11-.76.07-.83-.07s0-.47.61-.65a23,23,0,0,0,2.66-1.12,23.34,23.34,0,0,0,3.1-1.83A28.4,28.4,0,0,0,291.3,114.48Zm10.55-15.77A12.4,12.4,0,0,0,299.76,97c-.29-.18-.43-.43-.29-.68s.43-.14.58-.14a6.15,6.15,0,0,1,2,.43,4.73,4.73,0,0,1,2.16,1.48.86.86,0,0,1-.54,1.29A2.07,2.07,0,0,1,301.85,98.71Zm2.84-1.48a5.16,5.16,0,0,0-2.2-1.51c-.32-.14-.47-.47-.32-.68s.43-.14.58-.14a6.46,6.46,0,0,1,2,.32,4.19,4.19,0,0,1,2.2,1.37.82.82,0,0,1-.47,1.29A1.91,1.91,0,0,1,304.69,97.24Z" transform="translate(0 -0.13)"/><path class="cls-4" d="M321.65,112.79a20.71,20.71,0,0,0,2.3-1.19,38.8,38.8,0,0,0,5.47-3.71,75.22,75.22,0,0,0,5.69-5,47.17,47.17,0,0,0,3.28-3.6c.65-.79.61-1.26.4-1.66s-.29-.94,0-1.08c.76-.47,2.12.36,2.59.94a1.68,1.68,0,0,1,.32,1.73,5.91,5.91,0,0,1-1.4,1.48c-.65.54-1.84,1.51-3,2.63l-1.69,1.58a4.73,4.73,0,0,1,1.29.36c.79.36,1.33.79,1.44,1.37s-.22.86-.36,1.44a25.24,25.24,0,0,0-.18,3.31c-.07,1.15-.07,2.81,0,4.32s.11,3.31.11,4.61-.36,2.12-1.3,2.09-1.26-1.44-1.15-2.09a28.21,28.21,0,0,0,.32-3.53c0-1.4.11-3.2.18-4.79s.07-2.56,0-3.56a4.61,4.61,0,0,0-.43-2.3,1.16,1.16,0,0,0-.72-.5c-.36.29-.68.58-1,.86a48.28,48.28,0,0,1-5.11,3.63,37.65,37.65,0,0,1-3.71,2.05,17.4,17.4,0,0,1-3.1,1.26C321.36,113.58,321.11,113,321.65,112.79Z" transform="translate(0 -0.13)"/><path class="cls-4" d="M362.29,113c.32-.36.94-.18,1.37.07a4.87,4.87,0,0,0,1.73.72,22.52,22.52,0,0,0,3.82.29c1.55,0,3.31-.18,4.9-.32s3.28-.29,4.82-.4,3.13-.32,4.39-.54a5.11,5.11,0,0,1,3.38.4c.86.54,1.33,1.55.68,1.94s-2.16,0-3.6-.11a47.89,47.89,0,0,0-6.16-.11c-2.23.07-3.85.25-5.79.43s-3.38.36-5.18.4-2.84-.22-3.67-.94S362,113.29,362.29,113Zm4.39-8.32c-.68-.54-1-1.3-.68-1.58s1.08.22,1.62.36a7.67,7.67,0,0,0,2.34.29,31.38,31.38,0,0,0,3.24,0c1,0,2.41,0,3.42,0a21.08,21.08,0,0,0,3.6-.29,3.74,3.74,0,0,1,2.88.14c.47.29,1.26,1,.83,1.47s-1.12.25-2.12.18-2.41-.11-4.21-.18-3.6.07-5,.18a27.11,27.11,0,0,1-3.28.36A4.09,4.09,0,0,1,366.68,104.69Z" transform="translate(0 -0.13)"/><path class="cls-4" d="M405.28,102.6c-.83-.43-1.26-.65-1.15-1s.72-.29,1.48-.18a9.5,9.5,0,0,1,2.63.68,7.46,7.46,0,0,1,2.48,1.58c.86.76,1.4,2.12.5,2.66-.72.43-1.76-.07-2.7-1.12A9.61,9.61,0,0,0,405.28,102.6Zm23.07-.5c-.43.72-1.12,1.8-2.52,3.78a32.94,32.94,0,0,1-4.54,5.36,42.41,42.41,0,0,1-6.08,4.79,18.8,18.8,0,0,1-5.58,2.63c-1.51.4-2.16.11-2.81-.61s-.79-2-.43-2.34l1.19.29a3.27,3.27,0,0,0,1.69.22,12.64,12.64,0,0,0,5.22-2,50.31,50.31,0,0,0,5.62-4.36,36.77,36.77,0,0,0,4.57-4.61c1.8-2.16,2.66-3.28,2.88-3.6s.54-.5.76-.4S428.6,101.63,428.35,102.1Z" transform="translate(0 -0.13)"/><path class="cls-4" d="M467.66,102a1.28,1.28,0,0,1,.54,1c0,.32-.43.61-.94.94s-.94,1.33-1.37,2.3a31.06,31.06,0,0,1-3.06,4.82A29.81,29.81,0,0,1,459,115.6a23.3,23.3,0,0,1-5.26,3.67,32,32,0,0,1-5.54,2.45c-.4.14-.76,0-.79-.22s.25-.36.54-.47a19.66,19.66,0,0,0,4.36-2.16,35.24,35.24,0,0,0,4.39-3.46,24.5,24.5,0,0,0,4-4.54,26,26,0,0,0,2.41-4.28,12.78,12.78,0,0,0,.94-2.88,1.39,1.39,0,0,0-.07-.94,5.4,5.4,0,0,0-.86-.07c-.54,0-2.23,0-3,0h-1.76c-.36.68-.76,1.4-1.15,2.05a17.26,17.26,0,0,1-3.74,4.25,14.23,14.23,0,0,1-4.39,2.66c-.32.11-.68.11-.79-.11s.25-.47.5-.61a14.86,14.86,0,0,0,3.67-2.74,19,19,0,0,0,3.06-3.85,16.44,16.44,0,0,0,1.55-3.28,4.28,4.28,0,0,0,.29-1.91,2,2,0,0,0-.72-1c-.25-.32-.54-.76-.29-1s.94-.14,1.58.11a4.69,4.69,0,0,1,1.73,1c.4.43.29,1.08,0,1.91-.11.29-.32.72-.58,1.33.25,0,.61.07.94.11a13.82,13.82,0,0,0,2.45,0,4.14,4.14,0,0,0,1.94-.68,1.81,1.81,0,0,1,1.76,0A5,5,0,0,1,467.66,102Zm-1.26-2.41A12.43,12.43,0,0,0,464.31,98c-.32-.18-.47-.43-.32-.72s.43-.11.65-.11a6.61,6.61,0,0,1,1.94.43A5,5,0,0,1,468.74,99a.87.87,0,0,1-.54,1.33A2.11,2.11,0,0,1,466.4,99.62Zm2.84-1.44A5.08,5.08,0,0,0,467,96.66c-.29-.11-.47-.47-.32-.68s.43-.14.61-.14a6.08,6.08,0,0,1,2,.32,4,4,0,0,1,2.2,1.37.88.88,0,0,1-.4,1.33A2,2,0,0,1,469.25,98.18Z" transform="translate(0 -0.13)"/><path class="cls-5" d="M204.79,139.94v1.4h-6.55v21.92H196.8V139.94Z" transform="translate(0 -0.13)"/><path class="cls-5" d="M217,142.38h4.21l3.31,17.31,3.64-17.31h4.07v.76a1.9,1.9,0,0,0-1.4.58,3,3,0,0,0-.25,1.48v16.92a2.38,2.38,0,0,0,.4,1.62,2.06,2.06,0,0,0,1.26.47v.72H227v-.72a1.92,1.92,0,0,0,1.44-.58,2.86,2.86,0,0,0,.25-1.51V144.58l-4.17,19.62h-.79l-4-19.83v17.75a2.52,2.52,0,0,0,.4,1.62,2.46,2.46,0,0,0,1.33.47v.72H217v-.72c.76-.11,1.26-.32,1.44-.69a3.24,3.24,0,0,0,.22-1.4V145.19a2.42,2.42,0,0,0-.4-1.66,2.23,2.23,0,0,0-1.26-.4Z" transform="translate(0 -0.13)"/><path class="cls-5" d="M242.77,142.38h6.84v.76c-1.08.07-1.8.29-2.09.68a2.28,2.28,0,0,0-.32,1.44V162q0,1.46.76,1.84a5.93,5.93,0,0,0,1.66.32v.72h-6.84v-.72a3,3,0,0,0,2.09-.69,2.48,2.48,0,0,0,.32-1.47V145.26c0-1-.25-1.55-.76-1.8a4,4,0,0,0-1.66-.32Z" transform="translate(0 -0.13)"/><path class="cls-5" d="M260.59,142.38h4l7.31,17.53V145.26a2.39,2.39,0,0,0-.43-1.69,2.44,2.44,0,0,0-1.51-.43v-.76h5v.76c-.94.07-1.55.29-1.76.72a3.26,3.26,0,0,0-.18,1.4v20.26h-.83L263.65,145v17c0,.9.14,1.47.47,1.73a3,3,0,0,0,1.48.43v.72h-5v-.72c.9-.14,1.48-.32,1.69-.69a3.75,3.75,0,0,0,.25-1.47V145.23a2.35,2.35,0,0,0-.43-1.66,2.62,2.62,0,0,0-1.51-.43Z" transform="translate(0 -0.13)"/><path class="cls-5" d="M293.75,144.47c1.37,2.09,2.09,5.18,2.09,9.18a19.58,19.58,0,0,1-1.3,7.74c-1.19,2.74-2.92,4.14-5.15,4.14a5.14,5.14,0,0,1-4.39-2.66c-1.37-2.12-2.05-5.15-2.05-9.18s.68-7.09,2.05-9.18a4.91,4.91,0,0,1,8.75,0Zm-7.31.79c-.83,1.87-1.26,4.68-1.26,8.42,0,7.23,1.4,10.87,4.21,10.87,1.22,0,2.2-.86,3-2.52.86-1.91,1.26-4.68,1.26-8.31,0-3.92-.47-6.88-1.4-8.75-.72-1.47-1.69-2.2-2.81-2.2S287.2,143.61,286.44,145.26Z" transform="translate(0 -0.13)"/><path class="cls-5" d="M303.87,142.38h6.26a8.35,8.35,0,0,1,3.92.83,4.73,4.73,0,0,1,2.7,4.57c0,2.88-1.58,4.68-4.75,5.44l3.89,8.85a3.3,3.3,0,0,0,2.59,2.13v.72h-3.71c-1.22-3.42-2.81-7.27-4.75-11.48H307.9v8.68q0,1.35.54,1.73a3.3,3.3,0,0,0,1.51.36v.72h-6.08v-.72c1-.07,1.62-.29,1.84-.69a3,3,0,0,0,.25-1.4V145.19a2.05,2.05,0,0,0-.5-1.66,2.65,2.65,0,0,0-1.58-.4Zm4,10.15h2.2a4.31,4.31,0,0,0,3.31-1.37,5,5,0,0,0,1.15-3.38c0-3-1.48-4.5-4.46-4.5-1.08,0-1.73.22-2,.58a2.31,2.31,0,0,0-.22,1.33Z" transform="translate(0 -0.13)"/><path class="cls-5" d="M329.17,142.38H336v.76c-1.08.07-1.8.29-2.09.68a2.28,2.28,0,0,0-.32,1.44V162q0,1.46.76,1.84a5.93,5.93,0,0,0,1.66.32v.72h-6.84v-.72a3,3,0,0,0,2.09-.69,2.48,2.48,0,0,0,.32-1.47V145.26c0-1-.25-1.55-.76-1.8a4,4,0,0,0-1.66-.32Z" transform="translate(0 -0.13)"/><path class="cls-5" d="M348.79,168.8v-1.4h6.55V145.48h1.44V168.8Z" transform="translate(0 -0.13)"/><path class="cls-6" d="M199.06,204.7a13.92,13.92,0,0,0,.67-2.59c.94.18,1.44.37,1.44.56s-.21.24-.59.3a8.64,8.64,0,0,1-1,1.73h4.13l.56-.67c.62.46.94.77.94.91a.18.18,0,0,1-.1.14l-.37.26v9.73h-.88v-1.31h-7.07v1.31h-.88V204.22c.34.14.7.29,1.06.48Zm-2.29.37v2.43h7.07v-2.43Zm7.07,5.28v-2.5h-7.07v2.5Zm0,3.06V210.7h-7.07v2.71Z" transform="translate(0 -0.13)"/><path class="cls-6" d="M217.85,205.9c0-.51.08-1,.08-1.39v-2.16c.9,0,1.34.13,1.34.34s-.18.26-.54.38v1.44c0,.56,0,1-.06,1.39h2.4l.62-.85c.3.3.59.61.86.93l-.16.27h-3.51a8.82,8.82,0,0,0,3.83,4.27,3,3,0,0,0-.7.82,8.87,8.87,0,0,1-3.44-4.77,6.21,6.21,0,0,1-1.34,3.1,7.49,7.49,0,0,1-2.56,1.79l-.19-.34a6.47,6.47,0,0,0,2.72-2.74,8.08,8.08,0,0,0,.61-2.15h-2.1a11.5,11.5,0,0,1-5.39,5.78l-.21-.32a12,12,0,0,0,5.3-7.23h-2.24c-.16.32-.34.64-.5,1,1.17.46,1.74.94,1.74,1.5a.38.38,0,0,1-.42.43c-.19,0-.34-.14-.43-.4a3,3,0,0,0-1.09-1.22,13.9,13.9,0,0,1-.78,1.15c1.07.59,1.62,1.17,1.62,1.75,0,.32-.14.46-.42.46s-.34-.14-.43-.46a3.74,3.74,0,0,0-1-1.46,13.1,13.1,0,0,1-1.41,1.44l-.24-.27A13.67,13.67,0,0,0,213,202.3c.88.24,1.33.46,1.33.63s-.22.22-.64.29a8.89,8.89,0,0,1-.32.9h2l.53-.64c.56.5.85.83.85,1s-.06.13-.14.18l-.37.18c-.13.42-.24.78-.37,1.1Zm-5.25,5.88a5,5,0,0,1-1,2.82,1.26,1.26,0,0,1-.93.56.46.46,0,0,1-.51-.53c0-.16.16-.34.46-.53a4.22,4.22,0,0,0,1.67-2.43Zm1.74-.16a4,4,0,0,1,1.07,2.43c0,.56-.21.83-.59.83s-.4-.16-.4-.5v-.1a3.75,3.75,0,0,0,0-.46,6.15,6.15,0,0,0-.38-2.06Zm2.61-.06c1.22.95,1.84,1.83,1.84,2.64q0,.67-.58.67c-.27,0-.42-.19-.46-.58a5.32,5.32,0,0,0-1.06-2.51Zm2.66-8.72c1.09.54,1.65,1.1,1.65,1.68,0,.37-.18.54-.51.54s-.35-.16-.42-.46a2.78,2.78,0,0,0-.93-1.52Zm.19,8.67a7,7,0,0,1,2.19,1.62,1.57,1.57,0,0,1,.51,1.07c0,.4-.19.61-.53.61s-.43-.19-.56-.58a6,6,0,0,0-1.82-2.46Z" transform="translate(0 -0.13)"/><path class="cls-6" d="M236.78,207.79a3.76,3.76,0,0,1-1.18.9c-.46.24-1.25.5-1.86.75l-.51.22c0,.18,0,.37.06.56a2.48,2.48,0,0,1-.19,1.39.86.86,0,0,1-.66.53c-.34,0-.46-.22-.37-.54a6.26,6.26,0,0,0,.24-1.47V210a6.5,6.5,0,0,0-.75.35,3.47,3.47,0,0,0-1.28,1,1.29,1.29,0,0,0-.18,1.42,2,2,0,0,0,1.57.7,10.87,10.87,0,0,0,1.5-.16,9.28,9.28,0,0,1,1.07-.21,1.26,1.26,0,0,1,1,.26c.26.19.26.46,0,.58a2.49,2.49,0,0,1-.86.18,16.5,16.5,0,0,1-2.3.14,4.67,4.67,0,0,1-2.15-.59,1.5,1.5,0,0,1-.69-1.44,2,2,0,0,1,.69-1.39,7,7,0,0,1,1.5-1.07c.27-.14.58-.3.88-.45a1.09,1.09,0,0,0-.21-.64,1.5,1.5,0,0,0-1-.58,1.79,1.79,0,0,0-1,.16,1.64,1.64,0,0,0-.29.16c-.21.27-.42.51-.61.78a1.65,1.65,0,0,1-1.17.83c-.35,0-.38-.22-.38-.51a.88.88,0,0,1,.34-.7,7.89,7.89,0,0,0,.82-.46,6.6,6.6,0,0,0,1.66-2,6.42,6.42,0,0,0,.5-1l-.38,0a2.23,2.23,0,0,1-1.33-.21.79.79,0,0,1-.3-.91c.19-.26.46-.08.82,0a2.36,2.36,0,0,0,1.26,0l.24,0a.73.73,0,0,0-.21-.77.46.46,0,0,1-.1-.58.65.65,0,0,1,.83.22c.22,0,.5.1.59.11a1.63,1.63,0,0,1,.59.19c.14.11.06.26-.06.51a2.65,2.65,0,0,1-.85.93,1.19,1.19,0,0,1-.29.14,4.67,4.67,0,0,1-.38.91,17.1,17.1,0,0,1-1,1.68,2.14,2.14,0,0,1-.16.24l.37-.14a1.8,1.8,0,0,1,1.09-.1,1.25,1.25,0,0,1,.85.48,1.63,1.63,0,0,1,.21-.26,4.31,4.31,0,0,1,1.71-1.44,2.32,2.32,0,0,1,2.19,0A.93.93,0,0,1,236.78,207.79ZM232,204l.21-.11c.24-.13.32-.29.27-.34s-.16-.11-.38-.14l-.18,0a1.11,1.11,0,0,1,.08.4A.52.52,0,0,1,232,204Zm4.15,2.79c-.1-.18-.43-.32-1-.19a2.89,2.89,0,0,0-1.34.77,3.61,3.61,0,0,0-.86,1.33c0,.1.1.21.13.29a4.33,4.33,0,0,0,.42-.19,23.06,23.06,0,0,0,2.1-1C236.22,207.47,236.22,207,236.11,206.83Z" transform="translate(0 -0.13)"/><path class="cls-6" d="M248.71,210.51v1.63h2.93l.72-.85a9.32,9.32,0,0,1,1,1l-.19.24h-4.43v1.78h4.16l.8-.91a13.17,13.17,0,0,1,1,1l-.16.27H242l-.14-.35h6V212.5h-4.4l-.14-.35h4.55v-1.63h-5.12l-.14-.37h9.76l.72-.82a6.71,6.71,0,0,1,1,.93l-.16.26Zm-4-6.15V202.3q1.39,0,1.39.34t-.58.38v1.34h1.26l.67-.85a7.68,7.68,0,0,1,.88,1l-.14.26h-4.19v2.51c0,.27.08.42.21.46a2.91,2.91,0,0,0,.93.08c.67,0,1.25-.06,1.7-.1l.18,0c.34,0,.51.19.51.56,0,.13-.08.19-.27.24a12.23,12.23,0,0,1-1.86.06,5.25,5.25,0,0,1-1.92-.18q-.29-.19-.29-.82v-2.82H242l-.14-.37Zm8.16-1.3.46-.58c.58.43.88.7.88.83s0,.11-.14.16l-.3.18c0,2.74-.22,4.37-.58,4.88a1.43,1.43,0,0,1-1.23.59.66.66,0,0,0-.48-.59,8.85,8.85,0,0,0-1.1-.22v-.37a11.67,11.67,0,0,0,1.47.1.76.76,0,0,0,.8-.46,4.48,4.48,0,0,0,.21-1.06h-3.14a.49.49,0,0,0,0,.14,4.94,4.94,0,0,1-2.22,2.9l-.26-.26c1.31-1.15,2-2.93,2-5.31v-1.36a7.72,7.72,0,0,1,.94.43Zm0,3.09c0-.5,0-.82,0-1l0-.22h-3a8.43,8.43,0,0,1-.19,1.22ZM250,203.42V204c0,.19,0,.38,0,.54h3v-1.15Z" transform="translate(0 -0.13)"/><path class="cls-6" d="M270,211.39c-.06.3-.5.26-1,.21s-.9-.5-1.46-1a6.58,6.58,0,0,1-1.39,2,5.87,5.87,0,0,1-2.56,1.49c-.35.1-.51,0-.54-.08s.19-.24.4-.3a6,6,0,0,0,2.11-1.33,5.25,5.25,0,0,0,1.26-2,1.2,1.2,0,0,0,.08-.26,9.71,9.71,0,0,0-2-1,4.67,4.67,0,0,0-2.3-.26,1.7,1.7,0,0,0-.29,0,1.77,1.77,0,0,0-.11.26,7.85,7.85,0,0,1-1.39,2.34c-.59.63-1.52.91-2,.46s-.14-1.39.18-1.87a3.72,3.72,0,0,1,1.89-1.36,7.25,7.25,0,0,1,1-.27c.45-.88.9-1.81,1.18-2.35s.82-1.58.9-1.83-.08-.3-.3-.19a14.06,14.06,0,0,1-1.65.8,1.31,1.31,0,0,1-1.06-.08c-.24-.13-.38-.43-.29-.58s.58-.08.91-.06a4.09,4.09,0,0,0,1.28-.38,11.82,11.82,0,0,0,1.17-.56.8.8,0,0,1,.74,0c.22.1.37.19.42.43a1.4,1.4,0,0,1-.32.86c-.24.38-.83,1.28-1.23,2-.27.54-.64,1.17-1,1.79.42,0,.82,0,1.18,0a6,6,0,0,1,2.34.48,9,9,0,0,1,1,.46,4.21,4.21,0,0,0,0-.58,2.74,2.74,0,0,0-.18-1c-.08-.24-.24-.51-.11-.67s.5-.08.75,0a1,1,0,0,1,.51.93,4.81,4.81,0,0,1,0,.48c.11.27.26.56.37.77a4.41,4.41,0,0,0,1,1.33C269.77,210.73,270.12,211.09,270,211.39Zm-8.47-2.29a4.71,4.71,0,0,0-1.3.59c-.7.48-1,1.07-.69,1.25s.62-.14,1-.46A5.36,5.36,0,0,0,261.57,209.1Zm6.83,1a3.49,3.49,0,0,1-.38-.85,3.71,3.71,0,0,1-.11.45A6,6,0,0,1,268.41,210.09Z" transform="translate(0 -0.13)"/><path class="cls-6" d="M275.24,211.33a1.2,1.2,0,0,1,.16-.91c.16-.29.3-.59.51-1s.64-1.65.86-2.26c.11-.26.21-.58.32-.9a.88.88,0,0,0-.21,0,2.46,2.46,0,0,1-.93-.37c-.24-.16-.38-.35-.3-.46s.34,0,.46.06a3.12,3.12,0,0,0,.7.21,1.92,1.92,0,0,0,.48,0c.06-.21.14-.37.19-.5a2.48,2.48,0,0,0,.3-.93,1.4,1.4,0,0,0-.19-.79c-.11-.19-.1-.3,0-.4s.45,0,.59.11a1.21,1.21,0,0,1,.43.59,1.11,1.11,0,0,1,0,.46l.27.1c.22.08.56.22.9.32a1.38,1.38,0,0,1,.66.32.37.37,0,0,1,0,.5,1.82,1.82,0,0,1-.9.43,7.88,7.88,0,0,1-1.65.29h0a.12.12,0,0,1,0,.08c-.08.21-.48,1.25-.67,1.73s-.61,1.55-.77,2a6.24,6.24,0,0,0-.22,1.58c0,.29-.27.34-.5.22A1,1,0,0,1,275.24,211.33Zm3-5.75a4.91,4.91,0,0,0,.82-.27c.24-.1.35-.22.34-.27s-.18-.14-.3-.22l-.45-.24a4.3,4.3,0,0,1-.14.43A5.34,5.34,0,0,1,278.23,205.58Zm3.86,5.59a7.51,7.51,0,0,0-.14-.77c-.08-.45-.21-1.06-.29-1.47a1.59,1.59,0,0,1,.11-1.06c.11-.22.32-.4.42-.34s0,.22,0,.51a2.92,2.92,0,0,0,0,1.25c.1.48.27,1.2.42,1.75,0,.08,0,.16.08.24a4.4,4.4,0,0,1,1.23.48,1,1,0,0,1,.48.58c.08.29,0,.56-.14.61s-.38-.08-.75-.29l-.61-.35c0,.13,0,.24,0,.3a1.44,1.44,0,0,1-.69,1.33,3,3,0,0,1-2.32,0,1.45,1.45,0,0,1-.74-1.59c.1-.64.67-1.07,1.52-1.17A6.13,6.13,0,0,1,282.09,211.17Zm0,.75a3.08,3.08,0,0,0-1.46-.26c-.5,0-1,.32-1,.7a.81.81,0,0,0,.64.85,1.85,1.85,0,0,0,1.31,0c.43-.16.53-.61.56-1.17v0Zm3.31-5.15a.48.48,0,0,1-.22.61.67.67,0,0,1-.53,0,1.41,1.41,0,0,0-.51-.14,5.23,5.23,0,0,0-.74,0c-.3,0-.43-.06-.43-.13s.06-.11.19-.16a1.84,1.84,0,0,1,.66-.16c.26,0,.34-.13.21-.3a4,4,0,0,0-.74-.75,2.63,2.63,0,0,0-.74-.5c-.16-.06-.22-.18-.18-.24s.3-.1.56,0a6.26,6.26,0,0,1,1.87,1A1.79,1.79,0,0,1,285.39,206.77Z" transform="translate(0 -0.13)"/><path class="cls-6" d="M292.87,209.09c.24-.51.53-1.15.75-1.73l-.58.29c-.32.16-.74.38-1,.48a1.42,1.42,0,0,1-1.06,0c-.38-.18-.53-.45-.46-.59a.49.49,0,0,1,.53-.24,2,2,0,0,0,.94,0,7.69,7.69,0,0,0,1.38-.45c.13,0,.32-.13.53-.19a7.24,7.24,0,0,0,.27-1.58,2.06,2.06,0,0,0-.21-1c-.11-.21-.24-.43,0-.59a.6.6,0,0,1,.75.26,2.7,2.7,0,0,1,.18,1.34,7.46,7.46,0,0,1-.34,1.38l.4-.16a2.29,2.29,0,0,1,1.44-.1c.78.24,1.12,1,1.26,1.94a6.33,6.33,0,0,1-.26,2.74,4.28,4.28,0,0,1-1.09,2,2,2,0,0,1-1,.61.91.91,0,0,1-.64-.42,3.42,3.42,0,0,0-.77-.64c-.29-.18-.59-.34-.56-.48s.32-.18.64-.06,1,.48,1.36.27a2.8,2.8,0,0,0,1.15-1.58,7.46,7.46,0,0,0,.32-2.37,1.48,1.48,0,0,0-.7-1.44,2.27,2.27,0,0,0-1.55.26,1.71,1.71,0,0,0-.26.11l-.08.18c-.29.69-.61,1.62-.91,2.32s-.7,1.46-1,2.08c-.22.45-.72,1.34-.88,1.65s-.42.66-.64.61a.46.46,0,0,1-.4-.5,2.68,2.68,0,0,1,.66-1,11.11,11.11,0,0,0,.91-1.36C292.2,210.53,292.52,209.79,292.87,209.09Zm9.4-.11c.08.59,0,.9-.37,1a3.92,3.92,0,0,1-1.06,0c-.3,0-.83-.11-1-.14s-.3-.14-.29-.26a.23.23,0,0,1,.24-.21,2.71,2.71,0,0,0,.48-.06.89.89,0,0,0,.51-.19c.11-.13.13-.34.14-.72a2.28,2.28,0,0,0-.18-1.11,2,2,0,0,0-.58-.67c-.11-.1-.27-.29-.14-.43s.27,0,.46.13a4.1,4.1,0,0,1,.93.85A3.59,3.59,0,0,1,302.27,209Zm-1.47-3.76a5.72,5.72,0,0,0-.94-.75c-.13-.1-.19-.21-.13-.3a.34.34,0,0,1,.27-.08,3.33,3.33,0,0,1,.86.21,1.93,1.93,0,0,1,1,.66.39.39,0,0,1-.24.58A1,1,0,0,1,300.79,205.21Zm1.26-.67a2.38,2.38,0,0,0-1-.66c-.13-.06-.21-.21-.14-.3s.19-.08.27-.08a3.31,3.31,0,0,1,.88.14,2.08,2.08,0,0,1,1,.61.37.37,0,0,1-.19.59A.85.85,0,0,1,302.06,204.54Z" transform="translate(0 -0.13)"/><path class="cls-6" d="M315.67,210.78a1.65,1.65,0,0,0-.74-1.67,2.8,2.8,0,0,0-2.16-.24,6.28,6.28,0,0,0-1.89,1.17,15.81,15.81,0,0,0-1.3,1.18,1,1,0,0,1-.78.22c-.34,0-.38-.14-.59-.5a1.45,1.45,0,0,1-.27-1.06c.08-.35.18-.94.3-1.63s.18-1.47.24-2,.22-.83.58-1a5.82,5.82,0,0,1,1.33-.35c.3,0,.74-.08.8-.24s-.11-.46-.42-.71a3.38,3.38,0,0,0-.91-.48c-.16-.06-.37-.14-.34-.27s.18-.14.34-.16a2,2,0,0,1,.61,0,2.65,2.65,0,0,1,1.22.54,2.2,2.2,0,0,1,.75,1,.7.7,0,0,1-.08.75.49.49,0,0,1-.45.11,4.81,4.81,0,0,0-.91-.24,3.1,3.1,0,0,0-1.23.1c-.29.08-.5.22-.53.46s-.11.67-.19,1.33-.16,1.52-.21,1.87-.13.8.1.91.45.08.83-.16,1-.66,1.66-1a4.54,4.54,0,0,1,1.79-.59,3.23,3.23,0,0,1,2.83.88,2.25,2.25,0,0,1,.46,2.38,4.37,4.37,0,0,1-2,2,8.41,8.41,0,0,1-2.74.75,10.79,10.79,0,0,1-1.66,0c-.21,0-.46-.06-.46-.21s.22-.14.45-.13a8.09,8.09,0,0,0,1.62-.14,7.6,7.6,0,0,0,2.46-.95A2.66,2.66,0,0,0,315.67,210.78Z" transform="translate(0 -0.13)"/><path class="cls-6" d="M322,212.13a5.61,5.61,0,0,1,2.29,1.31,1.31,1.31,0,0,1,.42,1,.63.63,0,0,1-.69.72c-.26,0-.42-.19-.56-.54a5.36,5.36,0,0,0-1.62-2.21Z" transform="translate(0 -0.13)"/><path class="cls-6" d="M344.33,208.72h-1v.8h-.8v-2.88c-.34.32-.72.67-1.15,1l-.26-.27a14,14,0,0,0,3.27-5.17c.88.24,1.31.45,1.31.64s-.21.21-.67.24a3.75,3.75,0,0,1-.34.67h1.92l.54-.66c.61.51.9.85.9,1s0,.1-.13.13l-.43.13a15,15,0,0,1-1.33,1.36h2.27l.53-.64c.56.46.85.77.85.9s0,.1-.11.16l-.34.21v3.06h-.8v-.74h-1.36v3.06c0,.26.08.4.22.45a4.81,4.81,0,0,0,1.07.06c.43,0,.69,0,.78-.13a4.89,4.89,0,0,0,.42-2l.37.13a7.16,7.16,0,0,0,.11,1.58.5.5,0,0,0,.5.29c0,.43-.14.66-.38.77a6.78,6.78,0,0,1-1.89.14,3.75,3.75,0,0,1-1.78-.26c-.16-.13-.22-.37-.22-.78v-3.3h-1.18c-.06,2.4-1.07,4-3,4.66a12.86,12.86,0,0,0,4.66.62c1.17,0,2.53,0,4-.18a2.66,2.66,0,0,0-.46.93h-3.15a14.89,14.89,0,0,1-4.79-.54,3.48,3.48,0,0,1-2-1.65,18.41,18.41,0,0,1-1.52,2c0,.38,0,.58-.18.58s-.51-.38-.9-1.15a14.18,14.18,0,0,0,2.06-1.42v-3.81H338l-.14-.35h1.9l.58-.72c.58.46.86.75.86.9s0,.11-.13.16l-.34.21v3.28a3.26,3.26,0,0,0,1,.94A4.62,4.62,0,0,0,344.33,208.72Zm-5.71-6c1.49.66,2.24,1.38,2.24,2.13q0,.58-.53.58c-.24,0-.42-.16-.51-.5a4.12,4.12,0,0,0-1.39-2Zm4.67,3.36v2.24h2.16v-2.24Zm.26-.35h2.11a8.8,8.8,0,0,0,.93-1.65h-2.13a12.21,12.21,0,0,1-1.09,1.54Zm5,2.59v-2.24h-2.29v2.24Z" transform="translate(0 -0.13)"/><path class="cls-6" d="M358.41,209.44l.5-.61c.58.43.88.7.88.83s0,.13-.14.18l-.29.22v4.77h-.83v-.94h-3.11V215h-.82v-6a5.73,5.73,0,0,1,1,.42Zm-3,.37v3.73h3.11v-3.73Zm2.48-6.37h4.79l.54-.66c.59.45.88.72.88.87a.15.15,0,0,1-.1.14l-.34.24v4.23h-.86v-.9h-5.07v1h-.85V203c.19.08.48.22.88.42Zm-.16.35V207h5.07v-3.2Zm7.25,5.65.56-.64c.56.45.83.74.83.86a.31.31,0,0,1-.11.18l-.32.22V215h-.83v-1.1h-3.28V215H361v-6a8.74,8.74,0,0,1,.94.46Zm-3.15.37v3.73h3.28v-3.73Z" transform="translate(0 -0.13)"/><path class="cls-6" d="M372.84,209.09c.24-.51.53-1.15.77-1.73l-.58.29c-.34.16-.74.38-1,.48a1.42,1.42,0,0,1-1.06,0c-.4-.18-.51-.45-.46-.59a.48.48,0,0,1,.53-.24,2.23,2.23,0,0,0,.93,0,7.3,7.3,0,0,0,1.38-.45c.14,0,.32-.13.53-.19a7.3,7.3,0,0,0,.27-1.58,1.89,1.89,0,0,0-.19-1c-.13-.21-.24-.43,0-.59a.58.58,0,0,1,.74.26,2.7,2.7,0,0,1,.18,1.34,6.33,6.33,0,0,1-.34,1.38c.18-.08.34-.13.42-.16a2.28,2.28,0,0,1,1.44-.1,2.18,2.18,0,0,1,1.26,1.94,6.33,6.33,0,0,1-.26,2.74,4.36,4.36,0,0,1-1.1,2,2,2,0,0,1-1,.61.88.88,0,0,1-.62-.42,3,3,0,0,0-.77-.64c-.29-.18-.61-.34-.56-.48s.32-.18.62-.06,1,.48,1.38.27a2.93,2.93,0,0,0,1.15-1.58,8,8,0,0,0,.32-2.37,1.51,1.51,0,0,0-.7-1.44,2.32,2.32,0,0,0-1.57.26,1.54,1.54,0,0,0-.26.11c0,.06,0,.11-.06.18-.26.71-.59,1.62-.91,2.32s-.7,1.44-1,2.08c-.22.45-.7,1.34-.88,1.65s-.4.66-.62.61a.46.46,0,0,1-.42-.5c0-.22.38-.67.66-1a9.53,9.53,0,0,0,.91-1.36C372.17,210.53,372.5,209.79,372.84,209.09Zm9.4-.11c.08.59,0,.9-.35,1a3.91,3.91,0,0,1-1.06,0c-.3,0-.83-.11-1-.14s-.3-.14-.3-.26a.26.26,0,0,1,.26-.21,2.55,2.55,0,0,0,.46-.06.87.87,0,0,0,.51-.19,1.22,1.22,0,0,0,.16-.72,2.1,2.1,0,0,0-.19-1.11,2,2,0,0,0-.56-.67c-.13-.11-.27-.29-.14-.43s.27,0,.46.13a4.11,4.11,0,0,1,.93.85A3.76,3.76,0,0,1,382.23,209Z" transform="translate(0 -0.13)"/><path class="cls-6" d="M395.67,210.78a1.65,1.65,0,0,0-.74-1.67,2.8,2.8,0,0,0-2.16-.24,6.28,6.28,0,0,0-1.89,1.17,15.81,15.81,0,0,0-1.3,1.18,1,1,0,0,1-.78.22c-.34,0-.38-.14-.59-.5a1.45,1.45,0,0,1-.27-1.06c.08-.35.18-.94.3-1.63s.18-1.47.24-2,.22-.83.58-1a5.82,5.82,0,0,1,1.33-.35c.3,0,.74-.08.8-.24s-.11-.46-.42-.71a3.38,3.38,0,0,0-.91-.48c-.16-.06-.37-.14-.34-.27s.18-.14.34-.16a2,2,0,0,1,.61,0,2.65,2.65,0,0,1,1.22.54,2.2,2.2,0,0,1,.75,1,.7.7,0,0,1-.08.75.49.49,0,0,1-.45.11,4.81,4.81,0,0,0-.91-.24,3.1,3.1,0,0,0-1.23.1c-.29.08-.5.22-.53.46s-.11.67-.19,1.33-.16,1.52-.21,1.87-.13.8.1.91.45.08.83-.16,1-.66,1.66-1a4.54,4.54,0,0,1,1.79-.59,3.23,3.23,0,0,1,2.83.88,2.25,2.25,0,0,1,.46,2.38,4.37,4.37,0,0,1-2,2,8.41,8.41,0,0,1-2.74.75,10.79,10.79,0,0,1-1.66,0c-.21,0-.46-.06-.46-.21s.22-.14.45-.13a8.09,8.09,0,0,0,1.62-.14,7.6,7.6,0,0,0,2.46-.95A2.66,2.66,0,0,0,395.67,210.78Z" transform="translate(0 -0.13)"/><path class="cls-6" d="M404.69,208.43c0,.13-.19.26-.54.35v6.34h-.78v-5.91a14.22,14.22,0,0,1-1.5,1.87l-.27-.24a17.42,17.42,0,0,0,2.88-5.68c.72.22,1.09.43,1.09.59s-.18.19-.51.26a17.07,17.07,0,0,1-1,2.1C404.47,208.19,404.69,208.29,404.69,208.43Zm-3-2.06a12.82,12.82,0,0,0,2.56-4.13c.7.26,1,.48,1,.66s-.16.18-.51.18a11.09,11.09,0,0,1-2.85,3.54Zm6.66-1.7v2.54h.83l.64-.9a9.29,9.29,0,0,1,.82.95l-.16.3h-2.13v2h.72l.59-.77a6.33,6.33,0,0,1,.75.85l-.16.27h-1.9v2.67c.46-.1,1.14-.29,2.06-.58l.06.38a47.43,47.43,0,0,1-4.75,1.62c-.06.34-.14.51-.27.51s-.4-.42-.67-1.22l.64-.11.3,0V209c.86,0,1.3.16,1.3.34s-.18.26-.54.4V213s.3,0,.8-.16l.29-.08v-5.2h-2.37l-.16-.35h2.53v-2.54h-.82a8.37,8.37,0,0,1-1.18,2.14l-.29-.19a12.86,12.86,0,0,0,1.23-4.39c.85.16,1.28.34,1.28.53s-.18.19-.53.3a10.28,10.28,0,0,1-.37,1.25h2l.58-.83a9.45,9.45,0,0,1,.85.88l-.18.3Zm3.3-1.12h1.73l.51-.62c.58.45.86.74.86.86s0,.14-.14.21l-.34.22v7.49q0,1.15-1.2,1.15c0-.38-.32-.64-1-.77v-.37a9,9,0,0,0,1.06.08c.27,0,.42-.14.42-.45v-7.44h-1.9v11.21h-.82v-12a8.53,8.53,0,0,1,.78.34Z" transform="translate(0 -0.13)"/><path class="cls-6" d="M425.13,204.76a.36.36,0,0,1,.08-.16,14.13,14.13,0,0,0,.91-2.42c.9.3,1.36.54,1.36.75s-.22.21-.66.22a12.17,12.17,0,0,1-1.18,1.6h3.44l.75-1a13.17,13.17,0,0,1,1,1.07l-.14.29H417.94l-.14-.35Zm-2.43,1.89.53-.7c.59.51.9.83.9.94s0,.11-.13.18l-.34.21v6.56q0,1.1-1.34,1.1a.63.63,0,0,0-.45-.59,6.89,6.89,0,0,0-1-.24v-.38a14.42,14.42,0,0,0,1.5.1c.32,0,.48-.14.48-.45v-2H420v3.78h-.82v-9a10.8,10.8,0,0,1,1,.5Zm.16,2.1V207H420v1.74Zm0,.37H420V211h2.85Zm-1.78-6.85c1.3.5,2,1.09,2,1.79a.52.52,0,0,1-.58.59c-.24,0-.38-.18-.46-.56a3,3,0,0,0-1.12-1.55Zm4.5,10v-5.63c.93,0,1.38.19,1.38.38s-.18.24-.58.38v4.87Zm.37,1.41a19.41,19.41,0,0,0,2,.11.45.45,0,0,0,.5-.5V206c.91.06,1.39.19,1.39.38s-.19.27-.56.42v7c0,.8-.5,1.19-1.47,1.19a.62.62,0,0,0-.45-.59,8.83,8.83,0,0,0-1.46-.32Z" transform="translate(0 -0.13)"/><path class="cls-6" d="M444.71,213.68c-.27.22-.74-.08-1.07-.26a12.73,12.73,0,0,0-1.6-.72c-.29-.11-.58-.21-.85-.29a1.77,1.77,0,0,1-.18,1.09,1.55,1.55,0,0,1-1,.72,5.22,5.22,0,0,1-1.46.1,3.67,3.67,0,0,1-1.52-.45,1.57,1.57,0,0,1-.78-1.07,1.12,1.12,0,0,1,.5-1.07,3.57,3.57,0,0,1,1.76-.51,11.17,11.17,0,0,1,1.76.13,1.64,1.64,0,0,0,0-.29c0-.5-.06-1.22-.06-1.7,0-.08,0-.16,0-.26a.87.87,0,0,1-.21,0,9.55,9.55,0,0,1-1.63-.16,6.43,6.43,0,0,1-1.42-.53c-.19-.1-.3-.32-.18-.45s.24-.08.43,0,.32.1.74.21a8.65,8.65,0,0,0,1.84.16h.4c0-.35,0-.69,0-.91s0-.58,0-.93a11.38,11.38,0,0,1-1.25.19,3.56,3.56,0,0,1-1.44-.26,6.21,6.21,0,0,1-1-.48c-.26-.16-.43-.43-.32-.56s.35,0,.56.1a5.12,5.12,0,0,0,.85.3,4.74,4.74,0,0,0,1.41.1c.35,0,.83-.1,1.25-.18,0,0,0-.06,0-.1,0-.51,0-1-.08-1.38a1.28,1.28,0,0,0-.38-.87c-.19-.19-.29-.42-.18-.58s.38-.14.72,0a2,2,0,0,1,.8.88,3.15,3.15,0,0,1,0,1.39c0,.13,0,.29,0,.46a13.56,13.56,0,0,0,1.33-.4,6.18,6.18,0,0,1,1.18-.42,1,1,0,0,1,.88.29c.24.22,0,.45-.22.56a14.66,14.66,0,0,1-1.57.38l-1.66.37c0,.16,0,.32,0,.48,0,.46,0,1-.06,1.46l.59,0a5.25,5.25,0,0,0,1-.21c.26-.08.21-.22,0-.34l-.54-.32a1.18,1.18,0,0,1-.45-.45c-.08-.14,0-.29.24-.14a3.44,3.44,0,0,0,1,.51,4.57,4.57,0,0,0,1,.24c.24,0,.43.14.42.37s-.34.42-.66.58a7.36,7.36,0,0,1-1.58.45l-1.09.14c0,.43,0,.93,0,1.26s.1.79.16,1.15c.48.11,1,.26,1.46.4a10.44,10.44,0,0,1,1.74.69C444.81,212.85,445,213.46,444.71,213.68Zm-4.42-1.54a.47.47,0,0,1-.14,0,8.27,8.27,0,0,0-1.36-.16,5.65,5.65,0,0,0-1,0,.82.82,0,0,0-.75.56.73.73,0,0,0,.43.8,2.52,2.52,0,0,0,1.2.24,2.19,2.19,0,0,0,1.22-.37,1,1,0,0,0,.43-.83C440.28,212.32,440.3,212.24,440.3,212.14Z" transform="translate(0 -0.13)"/><path class="cls-6" d="M451.38,206.25c-.21-.21-.38-.59-.22-.77s.4,0,.61,0a2,2,0,0,0,.94.16,8.62,8.62,0,0,0,1.9-.45c.5-.14,1.6-.5,2.59-.75s2.06-.53,2.58-.61a2.49,2.49,0,0,1,1.42.14c.26.16.42.45.32.64s-.3.19-.56.14a9,9,0,0,0-1-.13,15.72,15.72,0,0,0-1.78.19l-.11,0c-.21.18-.54.42-.82.66a3.29,3.29,0,0,0-.9,1.2,7.66,7.66,0,0,0-.34,1.63,9.23,9.23,0,0,0,0,2.53,1.64,1.64,0,0,0,.62,1.2,1.86,1.86,0,0,0,1.3.32,4,4,0,0,1,1.14,0,1.24,1.24,0,0,1,.66.46c.13.19,0,.43-.35.46a9.89,9.89,0,0,1-1.55,0,3,3,0,0,1-1.73-.62,2.16,2.16,0,0,1-.72-1.47,8.51,8.51,0,0,1,0-2.3,19.46,19.46,0,0,1,.37-1.94,2.7,2.7,0,0,1,.7-1.3,6.46,6.46,0,0,1,.77-.66,6.31,6.31,0,0,0-.83.26c-.59.22-1.54.63-2,.82a6.83,6.83,0,0,1-1.66.51A1.56,1.56,0,0,1,451.38,206.25Zm8.44,1.1a5.43,5.43,0,0,0-.93-.75c-.13-.1-.21-.21-.13-.32s.19-.06.27,0a2.9,2.9,0,0,1,.86.19,1.81,1.81,0,0,1,1,.66.39.39,0,0,1-.22.58A1,1,0,0,1,459.82,207.36Zm1.28-.67a2.48,2.48,0,0,0-1-.66c-.14-.06-.21-.21-.14-.3s.18-.06.27-.06a2.42,2.42,0,0,1,.88.14,2,2,0,0,1,1,.59.38.38,0,0,1-.21.59A.83.83,0,0,1,461.1,206.69Z" transform="translate(0 -0.13)"/><path class="cls-6" d="M468.41,211.89a1.66,1.66,0,0,1,.88,1.54,1.77,1.77,0,0,1-.51,1.23,1.67,1.67,0,0,1-1.3.56,1.56,1.56,0,0,1-.77-.19,1.68,1.68,0,0,1-1-1.6,1.84,1.84,0,0,1,1.78-1.81A1.76,1.76,0,0,1,468.41,211.89Zm-1.87.66a1.19,1.19,0,0,0-.35.88,1.38,1.38,0,0,0,.21.69,1.24,1.24,0,0,0,1.09.61,1.27,1.27,0,0,0,.85-.32,1.3,1.3,0,0,0,.45-1,1.23,1.23,0,0,0-.54-1.06,1.27,1.27,0,0,0-.75-.24A1.26,1.26,0,0,0,466.53,212.54Z" transform="translate(0 -0.13)"/><path class="cls-6" d="M194.49,243.94c0-.29.21-.54.56-.66a2,2,0,0,1,1.2.1,7,7,0,0,0,.83-.46c.19-.11.69-.38,1.22-.7,0-.54,0-1.23,0-2,0-.22,0-.43,0-.64a7.77,7.77,0,0,1-.85.21,2.2,2.2,0,0,1-1.1-.11,3.62,3.62,0,0,1-.67-.46c-.1-.1-.19-.27-.06-.38s.27-.08.42,0a2.41,2.41,0,0,0,.62.34,1.59,1.59,0,0,0,.9,0,4.55,4.55,0,0,0,.74-.29c0-.48,0-.87,0-1.07a8.85,8.85,0,0,0-.16-1.14,1.23,1.23,0,0,0-.53-.74.25.25,0,0,1-.06-.4c.06-.1.21-.13.46-.08a1.93,1.93,0,0,1,.7.42,1.15,1.15,0,0,1,.3.66c0,.06,0,.16,0,.29a8.29,8.29,0,0,0,.88.5,2.07,2.07,0,0,0,.86.18.38.38,0,0,1,.4.32.71.71,0,0,1-.42.74,7.77,7.77,0,0,1-1.57.7l-.08,0c0,.35,0,.69,0,.91v1.52a11.74,11.74,0,0,1,2.42-1.22,3.49,3.49,0,0,1,2.63.13,2,2,0,0,1,1.18,1.63,3.62,3.62,0,0,1-3.07,3.36,1.24,1.24,0,0,1-1.5-.82,3.94,3.94,0,0,1,0-1.73,3.72,3.72,0,0,1,.53-1.22c.16-.21.35,0,.24.18a2.37,2.37,0,0,0-.38,1.06c-.14.64,0,1.54.59,1.68a2.11,2.11,0,0,0,1.79-.61,2.49,2.49,0,0,0,.86-1.63,1.37,1.37,0,0,0-.48-1.22,2.31,2.31,0,0,0-1.62-.4,5.72,5.72,0,0,0-2.16.72l-1.07.66v1a7.23,7.23,0,0,0,.06,1,1.24,1.24,0,0,1-.18.82,1.42,1.42,0,0,1-.4.51.55.55,0,0,1-.34.06.28.28,0,0,1-.26-.13,4.84,4.84,0,0,1-.43-.62,4.75,4.75,0,0,0-.78-1,1.19,1.19,0,0,1-.27.16,2.12,2.12,0,0,1-1.18.27C194.81,244.38,194.52,244.21,194.49,243.94Zm.56-.21c0,.06.14.1.29.06a1.37,1.37,0,0,0,.53-.18C195.37,243.47,195,243.62,195,243.73Zm2,0c.27.14.5.29.7.42s.38.26.45.22.14-.21.14-.38,0-.67,0-1.18l-.42.3C197.57,243.34,197.29,243.57,197,243.73Zm1.87-6.39c0,.32,0,.67,0,.95,0,.1,0,.21,0,.3a5,5,0,0,0,.61-.35c.16-.1.19-.24,0-.37A4.72,4.72,0,0,1,198.92,237.34ZM206,239a.62.62,0,0,1-.85-.13,2.08,2.08,0,0,0-.75-.67,1.29,1.29,0,0,0-1-.13,1.23,1.23,0,0,0-.59.3c-.08.1-.16.14-.26.08a.23.23,0,0,1,0-.26,1.57,1.57,0,0,1,.69-.62,2.2,2.2,0,0,1,1.52-.06,1.94,1.94,0,0,1,1.18.7C206.15,238.53,206.19,238.83,206,239Z" transform="translate(0 -0.13)"/><path class="cls-6" d="M210.18,246.69l-.27-.27a14.65,14.65,0,0,0,3.46-5.38,23.83,23.83,0,0,0,1-3.54h-4.19l-.11-.37h4.35c.11-.64.26-1.6.37-2.88q1.49.19,1.49.48c0,.13-.19.26-.61.38-.08.46-.14,1-.22,1.44a5.34,5.34,0,0,1-.1.58h5.38l.82-1.06a10.48,10.48,0,0,1,1.1,1.12l-.14.3h-7.23a19.82,19.82,0,0,1-.58,2.37h4.75l.56-.69c.62.5.93.8.93,1s-.06.11-.16.19l-.38.19a15.31,15.31,0,0,1-2.43,3.22,13.69,13.69,0,0,0,4.85,2.34,2.68,2.68,0,0,0-.72.87,14,14,0,0,1-4.67-2.66.26.26,0,0,1-.1.1,13.81,13.81,0,0,1-5.25,2.69l-.19-.32a13.56,13.56,0,0,0,4.91-3.06,13.4,13.4,0,0,1-2.26-3.25A13.81,13.81,0,0,1,210.18,246.69Zm9.28-6.45h-4.61a12.47,12.47,0,0,0,2.42,3A14.26,14.26,0,0,0,219.46,240.24Z" transform="translate(0 -0.13)"/><path class="cls-6" d="M228.73,244.18a3.46,3.46,0,0,0,2,1.41,15,15,0,0,0,4,.42c1.2,0,2.54,0,4-.18a2.59,2.59,0,0,0-.4.93h-3.38a13.47,13.47,0,0,1-4.72-.59,3.53,3.53,0,0,1-1.87-1.58,23.94,23.94,0,0,1-1.55,2c0,.38,0,.58-.18.58s-.51-.38-.9-1.1a15,15,0,0,0,2.06-1.44v-3.89H226l-.14-.37h1.94l.56-.67c.58.46.86.77.86.9s0,.11-.14.16l-.34.22Zm-2.13-9.41c1.47.69,2.21,1.41,2.21,2.18,0,.37-.18.56-.53.56s-.37-.16-.48-.48a4.4,4.4,0,0,0-1.42-2Zm7.64,5.36v1.3h2.11l.62-.77a7.2,7.2,0,0,1,.86.9l-.14.24h-3.46v1.47h2.88l.66-.82a8.37,8.37,0,0,1,.93.93l-.14.24h-4.32v1.76h-.85v-1.76h-3.79l-.19-.35h4v-1.47h-3.07l-.18-.37h3.25v-1.3h-3.62l-.14-.35h2.53a.58.58,0,0,1-.22-.4,2.29,2.29,0,0,0-.75-1.23l.19-.26c1,.45,1.46.93,1.46,1.44a.48.48,0,0,1-.29.45h2a9.27,9.27,0,0,0,.72-1.9h-5.71l-.16-.35h4v-1.38h-3.28l-.16-.35h3.44v-1.67c1,0,1.44.16,1.44.37s-.19.27-.61.4v.9h2.21L237,235a6.7,6.7,0,0,1,.83.93l-.16.24h-3.47v1.38h2.83l.61-.78a11.19,11.19,0,0,1,.88.9l-.14.24h-3.12c.8.3,1.18.53,1.18.69s-.19.18-.58.21a10.18,10.18,0,0,1-.83,1H237l.64-.82a1.3,1.3,0,0,1,.19.18,6.19,6.19,0,0,1,.64.74l-.14.26Z" transform="translate(0 -0.13)"/><path class="cls-6" d="M253.72,238.46a2.18,2.18,0,0,1-1.44,3.23,3.77,3.77,0,0,1-2.16-.21,4.29,4.29,0,0,1-1.86-1.36c-.1-.13-.1-.29,0-.32a.3.3,0,0,1,.35.1,3.84,3.84,0,0,0,1.81,1.07,2.47,2.47,0,0,0,2.24-.34,1.46,1.46,0,0,0,.1-2.06,2.88,2.88,0,0,0-2.66-.62,8.33,8.33,0,0,0-2.51,1.09l-1,.54c.24.62.54,1.39.72,1.79s.77,1.7,1,2.34a4.81,4.81,0,0,1,.34,1.86c0,.61-.27,1-.61,1s-.5-.42-.46-.9a4.87,4.87,0,0,0-.13-1.5c-.21-.83-.53-1.58-.82-2.5-.19-.66-.4-1.25-.61-1.78-.48.27-.93.51-1.2.64a2.46,2.46,0,0,1-1.26.43,1.24,1.24,0,0,1-.8-.32c-.18-.16-.32-.38-.24-.54s.43-.22.8-.19a2.66,2.66,0,0,0,1.22-.26l1.15-.54c-.24-.54-.48-1-.62-1.41a2.25,2.25,0,0,1,0-1.38,1.19,1.19,0,0,1,.85-.75,2.76,2.76,0,0,1,1.3.06,4,4,0,0,1,.88.35c.16.08.32.18.42.08a1.08,1.08,0,0,0,0-.46c0-.18,0-.4.16-.42s.27.11.42.26a6.87,6.87,0,0,1,.46.51,1,1,0,0,1,.24.66c0,.24,0,.48-.19.59a.87.87,0,0,1-.78-.06,4.52,4.52,0,0,1-.72-.58A2.67,2.67,0,0,0,247,236a1.05,1.05,0,0,0-1.1.27,1.6,1.6,0,0,0-.1,1.28,10.45,10.45,0,0,0,.51,1.33l.62-.29c.74-.32,1.78-.8,2.59-1.06a4.36,4.36,0,0,1,2.4-.21A2.66,2.66,0,0,1,253.72,238.46Z" transform="translate(0 -0.13)"/><path class="cls-6" d="M261,243.34a4,4,0,0,0,1.5.72,8.66,8.66,0,0,0,2.66.32A7.91,7.91,0,0,0,267,244a1.24,1.24,0,0,1,.9,0,.91.91,0,0,1,.5.48c0,.16-.08.35-.7.54a9,9,0,0,1-2.72.26,10.06,10.06,0,0,1-2.71-.45,4,4,0,0,1-1.57-.8,1.88,1.88,0,0,1-.43-1c0-.29,0-.46.13-.48s.22.18.26.32A1.31,1.31,0,0,0,261,243.34Zm4-6.15a12.35,12.35,0,0,1-1.25-.14c-.56-.1-1.14-.18-1.46-.27s-.46-.35-.38-.45.34-.1.51,0a3.39,3.39,0,0,0,.9.11,8,8,0,0,0,1.25-.13c.48-.1,1.12-.3,1.52-.35s.51.06.58.35-.18.38-.45.53a6.07,6.07,0,0,0-.51.35c-.21.14-.5.37-.69.5s-.3.14-.37.1,0-.18,0-.26A3.47,3.47,0,0,0,265,237.2Zm3.36-.22a6.2,6.2,0,0,0-.93-.75c-.13-.08-.19-.19-.13-.29s.19-.08.26-.08a2.89,2.89,0,0,1,.88.21,2,2,0,0,1,1,.64.38.38,0,0,1-.22.58A.94.94,0,0,1,268.36,237Zm1.26-.66a2.32,2.32,0,0,0-1-.67.21.21,0,0,1-.14-.29c0-.08.18-.08.26-.08a3.45,3.45,0,0,1,.9.14,2,2,0,0,1,1,.61.38.38,0,0,1-.21.59A.91.91,0,0,1,269.63,236.32Z" transform="translate(0 -0.13)"/><path class="cls-6" d="M281.5,244.48c0,1.75-.69,2.63-2,2.63a.61.61,0,0,0-.34-.58,6.59,6.59,0,0,0-1.52-.42v-.4a12,12,0,0,0,2,.19.87.87,0,0,0,.9-.46,3.9,3.9,0,0,0,.19-1.31,5.5,5.5,0,0,0-.14-1.22,18.2,18.2,0,0,1-6.43,3.35l-.21-.34a16.06,16.06,0,0,0,6.37-3.87,6.34,6.34,0,0,0-.42-.91,15.1,15.1,0,0,1-5.38,2.63l-.21-.3a14.84,14.84,0,0,0,5.15-3l-.08-.14-.42-.56a14,14,0,0,1-4.32,1.75l-.21-.32a12.4,12.4,0,0,0,4.9-2.63H276l-.18-.37H283l.77-.9a8.5,8.5,0,0,1,1,1l-.19.27h-3.27a9.74,9.74,0,0,0,1.36,3.17,19.52,19.52,0,0,0,2-2.51c.7.43,1.07.77,1.07,1s-.13.16-.32.16a1.68,1.68,0,0,1-.32,0A18.8,18.8,0,0,1,283,242a10.86,10.86,0,0,0,3.78,3.14,3.35,3.35,0,0,0-.74.83,11,11,0,0,1-5.11-7.48h-.46a15.49,15.49,0,0,1-1.22,1A7.34,7.34,0,0,1,281.5,244.48ZM279.83,236v-1.89q1.44,0,1.44.34c0,.13-.19.26-.62.4V236h4.51l.53-.67c.7.67,1,1.09,1,1.26s0,.13-.18.16l-.51.06a9,9,0,0,1-1.07,1l-.29-.21a6.85,6.85,0,0,0,.56-1.23h-9.64v.11a3.4,3.4,0,0,1-.45,1.89.71.71,0,0,1-.56.38.66.66,0,0,1-.43-.19.46.46,0,0,1-.14-.32,1.14,1.14,0,0,1,.35-.59,3.32,3.32,0,0,0,.82-2.16l.34,0a2.49,2.49,0,0,1,.08.5Z" transform="translate(0 -0.13)"/><path class="cls-6" d="M292.33,237.26v1.41c0,.32,0,.62,0,.91h1.5l.51-.64c.53.45.8.74.8.86a.22.22,0,0,1-.1.16l-.3.19a27.15,27.15,0,0,1-.42,5.78,1.39,1.39,0,0,1-1.5,1,.65.65,0,0,0-.35-.58,4.15,4.15,0,0,0-.94-.29v-.37a6.55,6.55,0,0,0,1.28.13c.4,0,.64-.14.74-.42a22.35,22.35,0,0,0,.42-5.49h-1.65v.1a11.15,11.15,0,0,1-2.35,7.06l-.32-.24a10.74,10.74,0,0,0,1.62-4.35,26.77,26.77,0,0,0,.24-3.84v-1.41h-1.63l-.13-.35h2.47V234.2q1.39,0,1.39.34t-.58.38v2h1.12l.64-.86a5.93,5.93,0,0,1,.82.93l-.16.29Zm4.45-.14a9.43,9.43,0,0,1-1.6,2l-.26-.24a12.73,12.73,0,0,0,2-4.67c.88.21,1.31.4,1.31.61s-.19.21-.59.27a12.81,12.81,0,0,1-.69,1.63h4.11l.7-1,.14.14a6.41,6.41,0,0,1,.85.9l-.14.29Zm2.5,2.71v2.42h1.92l.66-.86a5.55,5.55,0,0,1,.91.94l-.19.27h-3.19a6,6,0,0,0,3.62,3.5,2.88,2.88,0,0,0-.7.8,5.75,5.75,0,0,1-3.11-3.71,4.92,4.92,0,0,1-3.91,3.92l-.19-.34a4.69,4.69,0,0,0,3.31-4.18H295.3l-.14-.35h3.28v-2.42h-1.09a8.54,8.54,0,0,1-1.42,2.13l-.29-.22a10.91,10.91,0,0,0,1.47-4.1q1.25.26,1.25.58c0,.1-.19.19-.56.27a7.07,7.07,0,0,1-.3,1h3.19l.67-.85a9.88,9.88,0,0,1,.85.93l-.16.29Z" transform="translate(0 -0.13)"/><path class="cls-6" d="M315.37,245.3c-.86.1-2.27.14-3.36.14a3.71,3.71,0,0,1-2.67-.82,1.75,1.75,0,0,1-.08-2,4.84,4.84,0,0,1,1.62-1.47,1.38,1.38,0,0,1-.69-.88,8.39,8.39,0,0,1,.08-1.86c0-.58.11-1.2.13-1.66a2,2,0,0,0-.22-1.07c-.14-.19-.29-.43-.22-.58s.46-.08.67.1a3.06,3.06,0,0,1,.67.91,1.66,1.66,0,0,1,0,1,9.92,9.92,0,0,0-.34,1.36,15.33,15.33,0,0,0-.18,1.76.94.94,0,0,0,.35.74c.94-.58,2-1.11,3-1.59.26-.14.16-.46,0-.67s0-.34.3-.3a1.37,1.37,0,0,1,.66.32c.27.22.53.87,0,1.11a31.7,31.7,0,0,0-4.58,2.32c-1,.72-1.18,1.49-.66,2.08a3.06,3.06,0,0,0,2.18.64,8.41,8.41,0,0,0,2.27-.32c.51-.18,1.44-.27,1.7.13S315.82,245.25,315.37,245.3Z" transform="translate(0 -0.13)"/><path class="cls-6" d="M322.49,243.94c0-.29.21-.54.56-.66a2,2,0,0,1,1.2.1,7,7,0,0,0,.83-.46c.19-.11.69-.38,1.22-.7,0-.54,0-1.23,0-2,0-.22,0-.43,0-.64a7.77,7.77,0,0,1-.85.21,2.2,2.2,0,0,1-1.1-.11,3.62,3.62,0,0,1-.67-.46c-.1-.1-.19-.27-.06-.38s.27-.08.42,0a2.41,2.41,0,0,0,.62.34,1.59,1.59,0,0,0,.9,0,4.55,4.55,0,0,0,.74-.29c0-.48,0-.87,0-1.07a8.85,8.85,0,0,0-.16-1.14,1.23,1.23,0,0,0-.53-.74.25.25,0,0,1-.06-.4c.06-.1.21-.13.46-.08a1.93,1.93,0,0,1,.7.42,1.15,1.15,0,0,1,.3.66c0,.06,0,.16,0,.29a8.29,8.29,0,0,0,.88.5,2.07,2.07,0,0,0,.86.18.38.38,0,0,1,.4.32.71.71,0,0,1-.42.74,7.77,7.77,0,0,1-1.57.7l-.08,0c0,.35,0,.69,0,.91v1.52a11.74,11.74,0,0,1,2.42-1.22,3.49,3.49,0,0,1,2.63.13,2,2,0,0,1,1.18,1.63,3.62,3.62,0,0,1-3.07,3.36,1.24,1.24,0,0,1-1.5-.82,3.94,3.94,0,0,1,0-1.73,3.72,3.72,0,0,1,.53-1.22c.16-.21.35,0,.24.18a2.37,2.37,0,0,0-.38,1.06c-.14.64,0,1.54.59,1.68a2.11,2.11,0,0,0,1.79-.61,2.49,2.49,0,0,0,.86-1.63,1.37,1.37,0,0,0-.48-1.22,2.31,2.31,0,0,0-1.62-.4,5.72,5.72,0,0,0-2.16.72l-1.07.66v1a7.23,7.23,0,0,0,.06,1,1.24,1.24,0,0,1-.18.82,1.42,1.42,0,0,1-.4.51.55.55,0,0,1-.34.06.28.28,0,0,1-.26-.13,4.84,4.84,0,0,1-.43-.62,4.75,4.75,0,0,0-.78-1,1.19,1.19,0,0,1-.27.16,2.12,2.12,0,0,1-1.18.27C322.81,244.38,322.52,244.21,322.49,243.94Zm.56-.21c0,.06.14.1.29.06a1.37,1.37,0,0,0,.53-.18C323.37,243.47,323,243.62,323,243.73Zm2,0c.27.14.5.29.7.42s.38.26.45.22.14-.21.14-.38,0-.67,0-1.18l-.42.3C325.57,243.34,325.29,243.57,325,243.73Zm1.87-6.39c0,.32,0,.67,0,.95,0,.1,0,.21,0,.3a5,5,0,0,0,.61-.35c.16-.1.19-.24,0-.37A4.72,4.72,0,0,1,326.92,237.34ZM334,239a.62.62,0,0,1-.85-.13,2.08,2.08,0,0,0-.75-.67,1.29,1.29,0,0,0-1-.13,1.23,1.23,0,0,0-.59.3c-.08.1-.16.14-.26.08a.23.23,0,0,1,0-.26,1.57,1.57,0,0,1,.69-.62,2.2,2.2,0,0,1,1.52-.06,1.94,1.94,0,0,1,1.18.7C334.15,238.53,334.19,238.83,334,239Z" transform="translate(0 -0.13)"/><path class="cls-6" d="M343.8,242.3v-1.49c.91,0,1.38.14,1.38.34s-.18.22-.53.35v.8H349l.72-.9a13.22,13.22,0,0,1,1,1l-.18.3h-5.55l.42.34a14.1,14.1,0,0,0,5.52,2.66,2.63,2.63,0,0,0-.69.85,13.38,13.38,0,0,1-5.52-3.57v4.18h-.85v-3.75a15.74,15.74,0,0,1-5.92,3.35l-.22-.3a14.87,14.87,0,0,0,5.7-3.75h-5.19l-.14-.37Zm-2.24-3.62a21.64,21.64,0,0,1-2.58,1.94c0,.38-.1.58-.22.58s-.43-.37-.77-1.12a20,20,0,0,0,3.43-1.7Zm-3.19-3.25a5.48,5.48,0,0,1,2,1.07,1.29,1.29,0,0,1,.5.87c0,.37-.16.54-.48.54s-.37-.16-.53-.46a4.71,4.71,0,0,0-1.71-1.73Zm5.17.48a10.89,10.89,0,0,0,.3-1.87c.94.16,1.39.3,1.39.48s-.16.21-.53.29a7.08,7.08,0,0,1-.75,1.1h1.74l.54-.62c.56.43.83.72.83.85s0,.13-.13.18l-.29.18v4.64h-.82v-.64h-3.12v.74h-.82v-5.75a7.18,7.18,0,0,1,1,.43Zm-.82.35v1.68h3.12v-1.68Zm3.12,3.86v-1.81h-3.12v1.81Zm1.33-1.74a8.26,8.26,0,0,1,2.69,1.14,1.1,1.1,0,0,1,.59.85c0,.32-.14.48-.45.48s-.32-.13-.54-.38a7,7,0,0,0-2.43-1.79Zm-.1-.8a12.18,12.18,0,0,0,2.29-2.51c.69.45,1,.77,1,1s-.11.16-.32.16l-.34,0a14,14,0,0,1-2.46,1.67Z" transform="translate(0 -0.13)"/><path class="cls-6" d="M356.82,238.22c0-.53.16-1.49.16-1.81a1.94,1.94,0,0,0-.27-.8.34.34,0,0,1,0-.42c.1-.1.29,0,.45.06a1.94,1.94,0,0,1,.62.51c.24.29.13.71,0,1.11s-.27,1.17-.35,1.58-.27,1.89-.32,2.45a10,10,0,0,0-.06,2.22,2.73,2.73,0,0,0,.85,1.63,2.53,2.53,0,0,0,1.7.54,3.7,3.7,0,0,0,1.41-.34c.34-.18,1-.54,1.46-.8s1-.69,1.26-.88.62-.54.7-.61a.22.22,0,0,1,.27-.08.18.18,0,0,1,0,.26,5.24,5.24,0,0,1-.64.67c-.34.29-1,.91-1.86,1.52a5.22,5.22,0,0,1-2.5,1,3.35,3.35,0,0,1-2.15-.56,3,3,0,0,1-1.17-1.81,9.66,9.66,0,0,1,0-2.27C356.52,240.83,356.77,238.72,356.82,238.22Z" transform="translate(0 -0.13)"/><path class="cls-6" d="M382,243.39c-.06.3-.5.26-1,.21s-.9-.5-1.46-1a6.58,6.58,0,0,1-1.39,2,5.87,5.87,0,0,1-2.56,1.49c-.35.1-.51,0-.54-.08s.19-.24.4-.3a6,6,0,0,0,2.11-1.33,5.25,5.25,0,0,0,1.26-2,1.2,1.2,0,0,0,.08-.26,9.71,9.71,0,0,0-2-1,4.67,4.67,0,0,0-2.3-.26,1.7,1.7,0,0,0-.29,0,1.77,1.77,0,0,0-.11.26,7.85,7.85,0,0,1-1.39,2.34c-.59.63-1.52.91-2,.46s-.14-1.39.18-1.87a3.72,3.72,0,0,1,1.89-1.36,7.25,7.25,0,0,1,1-.27c.45-.88.9-1.81,1.18-2.35s.82-1.58.9-1.83-.08-.3-.3-.19a14.06,14.06,0,0,1-1.65.8,1.31,1.31,0,0,1-1.06-.08c-.24-.13-.38-.43-.29-.58s.58-.08.91-.06a4.09,4.09,0,0,0,1.28-.38,11.82,11.82,0,0,0,1.17-.56.8.8,0,0,1,.74,0c.22.1.37.19.42.43a1.4,1.4,0,0,1-.32.86c-.24.38-.83,1.28-1.23,2-.27.54-.64,1.17-1,1.79.42,0,.82,0,1.18,0a6,6,0,0,1,2.34.48,9,9,0,0,1,1,.46,4.21,4.21,0,0,0,0-.58,2.74,2.74,0,0,0-.18-1c-.08-.24-.24-.51-.11-.67s.5-.08.75,0a1,1,0,0,1,.51.93,4.81,4.81,0,0,1,0,.48c.11.27.26.56.37.77a4.41,4.41,0,0,0,1,1.33C381.77,242.73,382.12,243.09,382,243.39Zm-8.47-2.29a4.71,4.71,0,0,0-1.3.59c-.7.48-1,1.07-.69,1.25s.62-.14,1-.46A5.36,5.36,0,0,0,373.57,241.1Zm6.83,1a3.49,3.49,0,0,1-.38-.85,3.71,3.71,0,0,1-.11.45A6,6,0,0,1,380.41,242.09Z" transform="translate(0 -0.13)"/><path class="cls-6" d="M391.29,239.23a3.11,3.11,0,0,0-.42,1.2c0,.19.29.46.48.72s.62.78,1.06,1.3a10.08,10.08,0,0,1,1.1,1.63,4.15,4.15,0,0,1,.51,1.75c0,.48-.13.75-.38.78a.49.49,0,0,1-.56-.43c-.08-.3-.18-.64-.32-1.17a9.91,9.91,0,0,0-.78-1.73,13,13,0,0,0-1-1.63c-.22-.34-.62-.75-.66-1.14a3.66,3.66,0,0,1,.53-1.58A15.75,15.75,0,0,1,392.1,237c.38-.46,1-1.09,1.1-1.3a.83.83,0,0,0,0-.67c0-.18,0-.34.08-.42s.42.06.64.29a1,1,0,0,1,.35.82,1.29,1.29,0,0,1-.51.86c-.32.29-.93.72-1.34,1.1A7.13,7.13,0,0,0,391.29,239.23Z" transform="translate(0 -0.13)"/><path class="cls-6" d="M405.24,240.64c.13-.32.38-1.07.58-1.68-.19,0-.42,0-.61,0a4,4,0,0,1-1.46-.19.45.45,0,0,1-.29-.54c.08-.08.19,0,.29,0a2.17,2.17,0,0,0,.42.16,2.12,2.12,0,0,0,.72,0,4.07,4.07,0,0,0,1.15-.21,5.63,5.63,0,0,0,.16-1.52,1.79,1.79,0,0,0-.3-1c-.13-.19-.24-.48-.06-.61s.42,0,.64.11a1.19,1.19,0,0,1,.51.79,1.28,1.28,0,0,1,0,.74,5.05,5.05,0,0,0,1,.37c.32.06.58.16.66.32s0,.32-.18.58a3.24,3.24,0,0,1-1.33.71c-.21,0-.46.1-.72.13,0,.19-.08.35-.11.46-.13.42-.5,1.46-.61,1.84s-.53,1.7-.74,2.34-.85,2.16-1,2.37a.4.4,0,0,1-.59.14c-.24-.14-.24-.53-.24-.78a4.27,4.27,0,0,1,.42-1.06c.19-.45.43-.94.69-1.5S405.06,241.09,405.24,240.64Zm1.65-3.42c0,.11-.06.22-.08.3a3.58,3.58,0,0,1-.11.48,3.84,3.84,0,0,0,.58-.3.15.15,0,0,0,0-.26A2.75,2.75,0,0,0,406.89,237.21Zm6.51,8.21c.19.3-.13.61-.53.64a10.49,10.49,0,0,1-2.67-.08c-1.17-.19-1.7-.59-2-1.3a2.4,2.4,0,0,1,.18-2,6.46,6.46,0,0,1,.62-1.15c.1-.14.19-.21.24-.16s.06.18,0,.3a5.07,5.07,0,0,0-.53,1.2,1.62,1.62,0,0,0,.08,1.46,2,2,0,0,0,1.22.75,4.28,4.28,0,0,0,1.34,0,10.15,10.15,0,0,1,1.22-.16A1,1,0,0,1,413.4,245.42Zm-2.13-6.51c0-.08-.21-.14-.35-.16a3.37,3.37,0,0,0-1.07,0c-.3,0-.58.11-.75.16s-.43.08-.48,0,.21-.32.37-.38a7.92,7.92,0,0,1,1.23-.35,4,4,0,0,1,1-.08,1.68,1.68,0,0,1,1,.24.62.62,0,0,1,.29.63.59.59,0,0,1-.38.32l-.7.3a9.42,9.42,0,0,0-1,.53,2.1,2.1,0,0,0-.64.53c-.1.11-.22.3-.27.26s0-.21,0-.32a4.21,4.21,0,0,1,.69-.82,4.33,4.33,0,0,1,.78-.59C411.13,239,411.29,239,411.27,238.91Zm1.07-1.22a7.43,7.43,0,0,0-.93-.74c-.13-.08-.19-.21-.13-.3s.19-.08.26-.06a2.37,2.37,0,0,1,.88.19,2,2,0,0,1,1,.64.37.37,0,0,1-.22.58A.93.93,0,0,1,412.35,237.69Zm1.26-.66a2.36,2.36,0,0,0-1-.67c-.14-.06-.21-.18-.14-.29s.19-.08.26-.08a3,3,0,0,1,.9.16,1.94,1.94,0,0,1,1,.59.37.37,0,0,1-.21.59A.86.86,0,0,1,413.61,237Z" transform="translate(0 -0.13)"/><path class="cls-6" d="M428.57,236.78a3,3,0,0,1-1,1.06,8.85,8.85,0,0,1-1.39.66c.19.4.38.83.5,1.09.18.43.51,1.26.66,1.6a2.91,2.91,0,0,1,.29.88.71.71,0,0,1-.32.69c-.46.32-1.14,0-1.9-.5a4.23,4.23,0,0,0-3.12-.5,1.21,1.21,0,0,0-1,1.25,2.07,2.07,0,0,0,.82,1.38,3.13,3.13,0,0,0,1.41.59,5,5,0,0,0,1.55.1,9.37,9.37,0,0,1,1.06-.11.91.91,0,0,1,.78.42c.16.27,0,.46-.53.56a10.42,10.42,0,0,1-2.32.06,4,4,0,0,1-2.3-.94,2.77,2.77,0,0,1-1-2,1.83,1.83,0,0,1,1.26-1.65,5.58,5.58,0,0,1,2-.21,11.9,11.9,0,0,1,1.39.27,4.78,4.78,0,0,0,.93.22c.22,0,.37-.16.35-.46a1.93,1.93,0,0,0-.19-.62c-.11-.22-.43-.85-.7-1.44a3.37,3.37,0,0,0-.21-.42l-.34.1a15.53,15.53,0,0,1-2.22.43,5.45,5.45,0,0,1-2-.11,3.15,3.15,0,0,1-1.12-.53c-.19-.16-.3-.35-.21-.45s.4,0,.56.14a2.42,2.42,0,0,0,1,.34,5.19,5.19,0,0,0,1.57,0c.5-.08,1-.21,1.55-.34.26-.06.53-.16.82-.26-.18-.29-.34-.53-.46-.7a6.82,6.82,0,0,0-.88-1.09c-.24-.22-.37-.53-.18-.77a.68.68,0,0,1,.82-.13,10,10,0,0,0,.91.42,8.06,8.06,0,0,0,1.52.5,6.32,6.32,0,0,0,1.33,0C428.6,236.24,428.65,236.56,428.57,236.78Zm-1.42,0c-.19,0-.62-.19-1-.32a4,4,0,0,1-.88-.37c-.21-.11-.37-.22-.46-.13s.16.35.3.54.46.82.7,1.25l.27-.11a9.43,9.43,0,0,0,1.09-.58C427.3,237,427.32,236.8,427.15,236.76Z" transform="translate(0 -0.13)"/><path class="cls-6" d="M434.74,236.65c.1-.18.43,0,.59,0a1.84,1.84,0,0,1,.67.61,2.78,2.78,0,0,1,.19,1.58c0,.67,0,1.36,0,2.32a2.58,2.58,0,0,0,.42,1.67,1.86,1.86,0,0,0,.75.51,1.51,1.51,0,0,0,.74,0c.13,0,.16-.14.18-.21a1.11,1.11,0,0,1,.1-.38,2.07,2.07,0,0,1,.43-.64c.11-.11.26-.14.29-.1s.08.13,0,.22a1.22,1.22,0,0,0-.21.61,1.46,1.46,0,0,0,.21.85.86.86,0,0,1,.26.64c0,.22-.4.27-.8.26a3,3,0,0,1-1.78-.67,3.66,3.66,0,0,1-1.15-1.67,9.26,9.26,0,0,1-.24-2c0-.71,0-1.78,0-2.27a1.22,1.22,0,0,0-.34-.91C434.84,237,434.69,236.78,434.74,236.65Zm8.28,1.57c0-.13.11-.16.37-.13a2.62,2.62,0,0,1,2.31,1.58,3.17,3.17,0,0,1,.16,1.41.46.46,0,0,1-.53.46.6.6,0,0,1-.59-.38,5.55,5.55,0,0,1,0-1.23,1.23,1.23,0,0,0-.54-1.12,2.8,2.8,0,0,0-1-.38C443.07,238.4,443,238.32,443,238.22Z" transform="translate(0 -0.13)"/><path class="cls-6" d="M452.41,243.89a1.66,1.66,0,0,1,.88,1.54,1.77,1.77,0,0,1-.51,1.23,1.67,1.67,0,0,1-1.3.56,1.56,1.56,0,0,1-.77-.19,1.68,1.68,0,0,1-1-1.6,1.84,1.84,0,0,1,1.78-1.81A1.76,1.76,0,0,1,452.41,243.89Zm-1.87.66a1.19,1.19,0,0,0-.35.88,1.38,1.38,0,0,0,.21.69,1.24,1.24,0,0,0,1.09.61,1.27,1.27,0,0,0,.85-.32,1.3,1.3,0,0,0,.45-1,1.23,1.23,0,0,0-.54-1.06,1.27,1.27,0,0,0-.75-.24A1.26,1.26,0,0,0,450.53,244.54Z" transform="translate(0 -0.13)"/><path class="cls-5" d="M196.28,358.36h4.13a10.21,10.21,0,0,0-1.7,3,15.75,15.75,0,0,0,0,9.32,10.21,10.21,0,0,0,1.7,3h-4.13Z" transform="translate(0 -0.13)"/><path class="cls-5" d="M204.31,360.3a12.45,12.45,0,0,0-1.68.1v-1.15a11.91,11.91,0,0,0,1.7.1h9.59a12.07,12.07,0,0,0,1.7-.1v1.15a12.46,12.46,0,0,0-1.68-.1h-4.37v5.94h5a9.21,9.21,0,0,0,1.71-.11v1.2a9.28,9.28,0,0,0-1.74-.11h-4.95v4.42a12.45,12.45,0,0,0,.11,1.75h-1.31a12.45,12.45,0,0,0,.11-1.75v-4.42H203.7a9.71,9.71,0,0,0-1.76.11v-1.2a9.61,9.61,0,0,0,1.75.11h4.79V360.3Zm.26.77a21.48,21.48,0,0,1,2.06,3.91l-1,.51a17.8,17.8,0,0,0-2-4Zm9.92.45a15.92,15.92,0,0,1-2.27,4.16l-1-.48a12.32,12.32,0,0,0,2.26-4.15Z" transform="translate(0 -0.13)"/><path class="cls-5" d="M235.89,361.18a11.21,11.21,0,0,0-.08-1.57,13,13,0,0,0,1.71.08h7.2a11.54,11.54,0,0,0,1.65-.08,10.08,10.08,0,0,0-.08,1.47v10.26a12.25,12.25,0,0,0,.1,1.71h-1.17v-1H237v1H235.8a12.32,12.32,0,0,0,.1-1.7Zm1.07,4h8.26v-4.48H237Zm0,5.89h8.26v-4.91H237Z" transform="translate(0 -0.13)"/><path class="cls-5" d="M249.78,373.63a10.21,10.21,0,0,0,1.7-3,15.75,15.75,0,0,0,0-9.32,10.21,10.21,0,0,0-1.7-3h4.13v15.27Z" transform="translate(0 -0.13)"/><path class="cls-6" d="M267.67,359.74a7.81,7.81,0,0,0,1.33.08h1a9.2,9.2,0,0,0,1.33-.08,26.19,26.19,0,0,0-.14,2.66v7.78a10.2,10.2,0,0,0,.13,1.81H269.8a10.13,10.13,0,0,0,.13-1.81v-9.27h-.86a9.61,9.61,0,0,0-1.39.1Z" transform="translate(0 -0.13)"/><path class="cls-6" d="M278.18,359.74a7.81,7.81,0,0,0,1.33.08h1a9.2,9.2,0,0,0,1.33-.08,26.19,26.19,0,0,0-.14,2.66v7.78a10.2,10.2,0,0,0,.13,1.81h-1.52a10.13,10.13,0,0,0,.13-1.81v-9.27h-.86a9.61,9.61,0,0,0-1.39.1Z" transform="translate(0 -0.13)"/><path class="cls-6" d="M294.9,363.26h-1.58v-1.58h1.58Zm-1.58,7.06v-1.58h1.58v1.58Z" transform="translate(0 -0.13)"/><path class="cls-6" d="M304.44,371.09a4,4,0,0,1-1-1.47,11.07,11.07,0,0,1-.61-3.7,9.35,9.35,0,0,1,.93-4.35,4.29,4.29,0,0,1,6.51-.83,4,4,0,0,1,1,1.47,11,11,0,0,1,.61,3.71,8.35,8.35,0,0,1-1.12,4.63,3.91,3.91,0,0,1-3.39,1.68A4,4,0,0,1,304.44,371.09Zm.93-9.57a3.28,3.28,0,0,0-.72,1.17,9.94,9.94,0,0,0-.5,3.23,8.84,8.84,0,0,0,.75,3.81,2.73,2.73,0,0,0,2.48,1.39,2.67,2.67,0,0,0,2-.75,3.15,3.15,0,0,0,.75-1.25,9.93,9.93,0,0,0,.5-3.23,9.07,9.07,0,0,0-.72-3.73,2.7,2.7,0,0,0-2.51-1.46A2.61,2.61,0,0,0,305.37,361.52Z" transform="translate(0 -0.13)"/><path class="cls-6" d="M314.95,371.09a4,4,0,0,1-1-1.47,11.07,11.07,0,0,1-.61-3.7,9.35,9.35,0,0,1,.93-4.35,4.29,4.29,0,0,1,6.51-.83,4,4,0,0,1,1,1.47,11,11,0,0,1,.61,3.71,8.35,8.35,0,0,1-1.12,4.63,3.91,3.91,0,0,1-3.39,1.68A4,4,0,0,1,314.95,371.09Zm.93-9.57a3.28,3.28,0,0,0-.72,1.17,9.94,9.94,0,0,0-.5,3.23,8.84,8.84,0,0,0,.75,3.81,2.73,2.73,0,0,0,2.48,1.39,2.67,2.67,0,0,0,2-.75,3.15,3.15,0,0,0,.75-1.25,9.93,9.93,0,0,0,.5-3.23,9.07,9.07,0,0,0-.72-3.73,2.7,2.7,0,0,0-2.51-1.46A2.61,2.61,0,0,0,315.88,361.52Z" transform="translate(0 -0.13)"/><path class="cls-6" d="M328,366c1.42-1.39,2.42-1.89,3.86-1.89a4.32,4.32,0,0,1,2,.46,9.79,9.79,0,0,1,1.5,1,5.21,5.21,0,0,0,3.07,1.31,3.12,3.12,0,0,0,1.28-.27A4.27,4.27,0,0,0,341.5,365l.83.72a6.55,6.55,0,0,1-1.84,1.65,4.32,4.32,0,0,1-2.11.54,5,5,0,0,1-1.52-.26,8,8,0,0,1-2.22-1.3,4.35,4.35,0,0,0-2.88-1.22,3.29,3.29,0,0,0-1.65.42,5.66,5.66,0,0,0-1.34,1.12Z" transform="translate(0 -0.13)"/><path class="cls-6" d="M349.72,359.74a7.81,7.81,0,0,0,1.33.08h1a9.2,9.2,0,0,0,1.33-.08,26.19,26.19,0,0,0-.14,2.66v7.78a10.2,10.2,0,0,0,.13,1.81h-1.52a10.13,10.13,0,0,0,.13-1.81v-9.27h-.86a9.61,9.61,0,0,0-1.39.1Z" transform="translate(0 -0.13)"/><path class="cls-6" d="M360.47,364.46a4.64,4.64,0,0,1-.13.72,3.89,3.89,0,0,1,2.8-1.11,4,4,0,0,1,2.88,1.09A3.72,3.72,0,0,1,367.1,368a4,4,0,0,1-4.32,4.23,4.33,4.33,0,0,1-3.06-1.09,5,5,0,0,1-1-1.5l1.31-.38a2.42,2.42,0,0,0,.51.93,3,3,0,0,0,2.27.94,2.86,2.86,0,0,0,3-3.06,2.69,2.69,0,0,0-2.8-2.91,3.32,3.32,0,0,0-2.1.67,2.05,2.05,0,0,0-.74,1l-1.2-.11a12.8,12.8,0,0,0,.24-1.65l.35-3.62c0-.46,0-.66,0-1a6.45,6.45,0,0,0,0-.69,11,11,0,0,0,1.7.08h3.3a10.54,10.54,0,0,0,1.87-.13v1.36a11,11,0,0,0-1.87-.13h-3.76Z" transform="translate(0 -0.13)"/><path class="cls-6" d="M377,363.26h-1.58v-1.58H377Zm-1.58,7.06v-1.58H377v1.58Z" transform="translate(0 -0.13)"/><path class="cls-6" d="M386.48,371.09a4,4,0,0,1-1-1.47,11.07,11.07,0,0,1-.61-3.7,9.35,9.35,0,0,1,.93-4.35,4.29,4.29,0,0,1,6.51-.83,4,4,0,0,1,1,1.47,11,11,0,0,1,.61,3.71,8.35,8.35,0,0,1-1.12,4.63,3.91,3.91,0,0,1-3.39,1.68A4,4,0,0,1,386.48,371.09Zm.93-9.57a3.28,3.28,0,0,0-.72,1.17,9.94,9.94,0,0,0-.5,3.23,8.84,8.84,0,0,0,.75,3.81,2.73,2.73,0,0,0,2.48,1.39,2.67,2.67,0,0,0,2-.75,3.15,3.15,0,0,0,.75-1.25,9.93,9.93,0,0,0,.5-3.23,9.07,9.07,0,0,0-.72-3.73,2.7,2.7,0,0,0-2.51-1.46A2.61,2.61,0,0,0,387.41,361.52Z" transform="translate(0 -0.13)"/><path class="cls-6" d="M397,371.09a4,4,0,0,1-1-1.47,11.07,11.07,0,0,1-.61-3.7,9.35,9.35,0,0,1,.93-4.35,4.29,4.29,0,0,1,6.51-.83,4,4,0,0,1,1,1.47,11,11,0,0,1,.61,3.71,8.35,8.35,0,0,1-1.12,4.63,3.91,3.91,0,0,1-3.39,1.68A4,4,0,0,1,397,371.09Zm.93-9.57a3.28,3.28,0,0,0-.72,1.17,9.94,9.94,0,0,0-.5,3.23,8.84,8.84,0,0,0,.75,3.81,2.73,2.73,0,0,0,2.48,1.39,2.67,2.67,0,0,0,2-.75,3.15,3.15,0,0,0,.75-1.25,9.93,9.93,0,0,0,.5-3.23,9.07,9.07,0,0,0-.72-3.73,2.7,2.7,0,0,0-2.51-1.46A2.61,2.61,0,0,0,397.92,361.52Z" transform="translate(0 -0.13)"/><path class="cls-6" d="M268.39,401.38a10.77,10.77,0,0,1-2.23-3.44,10.48,10.48,0,0,1,0-7.87,10.76,10.76,0,0,1,2.23-3.44h1.42a10.1,10.1,0,0,0-2.43,3.31,10,10,0,0,0,0,8.13,10.13,10.13,0,0,0,2.43,3.31Z" transform="translate(0 -0.13)"/><path class="cls-6" d="M279.93,393c0-.11,0-.35,0-1a9.91,9.91,0,0,1-1.2,1.79,18.68,18.68,0,0,1-3.79,3.54,24.47,24.47,0,0,1-2.64,1.65,2.6,2.6,0,0,0-.8-1,18.17,18.17,0,0,0,5.43-3.83,15.46,15.46,0,0,0,2.3-2.91l-5.25,0a12.69,12.69,0,0,0-1.78.06v-1.2a9.08,9.08,0,0,0,1.81.11l5.83,0,0-1.57a7.64,7.64,0,0,0-.08-1.3h1.28a6.1,6.1,0,0,0-.06.88v.38l0,1.6h2.11a8.09,8.09,0,0,0,1.6-.1v1.17a13,13,0,0,0-1.33,0H281l.11,7.79a14.58,14.58,0,0,0,.08,1.63h-1.3a9.49,9.49,0,0,0,.06-1.26v-.35l-.06-5.89V393Z" transform="translate(0 -0.13)"/><path class="cls-6" d="M287.81,393.28a11.33,11.33,0,0,0,2,.1h9.3a12.56,12.56,0,0,0,1.94-.08v1.3a18.32,18.32,0,0,0-2-.06H289.8a17.49,17.49,0,0,0-2,.06Z" transform="translate(0 -0.13)"/><path class="cls-6" d="M309.85,387.23a5.33,5.33,0,0,0-.56,1.06,8.18,8.18,0,0,1-.5.88,5.31,5.31,0,0,1,.59,0l4.18,0a2.88,2.88,0,0,0,.93-.16l.85.88a3.11,3.11,0,0,0-.48,1,24.67,24.67,0,0,1-2.1,4.27,15.41,15.41,0,0,1-7.08,5.76,2.84,2.84,0,0,0-.78-1,14.44,14.44,0,0,0,3.31-1.75,11.2,11.2,0,0,0,2.77-2.53A20.16,20.16,0,0,0,307.4,393l.74-.82a22.89,22.89,0,0,1,3.54,2.48A19.11,19.11,0,0,0,313.9,390l-5.6.08a15.9,15.9,0,0,1-3.81,4.26,2.94,2.94,0,0,0-.93-.77,13.92,13.92,0,0,0,4.08-4.56,8.74,8.74,0,0,0,.94-2.19Zm5.41-.13a12.33,12.33,0,0,1,1.6,2.26l-.77.42a11.53,11.53,0,0,0-1.57-2.27Zm1.47-.75a11.63,11.63,0,0,1,1.6,2.24l-.77.43a11,11,0,0,0-1.58-2.27Z" transform="translate(0 -0.13)"/><path class="cls-6" d="M319.81,393.28a11.33,11.33,0,0,0,2,.1h9.3a12.56,12.56,0,0,0,1.94-.08v1.3a18.32,18.32,0,0,0-2-.06H321.8a17.49,17.49,0,0,0-2,.06Z" transform="translate(0 -0.13)"/><path class="cls-6" d="M347.93,400.22a29.75,29.75,0,0,0-5.12-4.95,17.34,17.34,0,0,1-3.06,2.86,20.62,20.62,0,0,1-3.14,1.92,3.56,3.56,0,0,0-.78-1.06,12.89,12.89,0,0,0,3.25-1.84,17.35,17.35,0,0,0,5.71-7.22c0-.1,0-.11.08-.19a.33.33,0,0,0,0-.11l-.38,0-5.35.08a10.72,10.72,0,0,0-1.65.13l0-1.3a7.58,7.58,0,0,0,1.26.08h.42l5.71-.06a3,3,0,0,0,1-.13l.67.69a3,3,0,0,0-.45.78,19.36,19.36,0,0,1-2.64,4.48,39.83,39.83,0,0,1,5.33,4.8Z" transform="translate(0 -0.13)"/><path class="cls-6" d="M355.16,400.58a10.29,10.29,0,0,0,.1-1.68V389a9.5,9.5,0,0,0-.1-1.63h1.38a10.09,10.09,0,0,0-.08,1.67v3a39.77,39.77,0,0,1,7.12,3.38l-.69,1.18a32.66,32.66,0,0,0-6-3.17,1.77,1.77,0,0,1-.5-.27l0,0a5.56,5.56,0,0,1,.06.94v4.82a10.92,10.92,0,0,0,.08,1.7Z" transform="translate(0 -0.13)"/><path class="cls-6" d="M370.42,391.29a17.54,17.54,0,0,1,1.58,3.55l-1.09.37a13.2,13.2,0,0,0-1.5-3.58Zm9-.1a9.46,9.46,0,0,0-.35,1.3,14.42,14.42,0,0,1-1.41,3.58,11.6,11.6,0,0,1-5.3,4.63,3.24,3.24,0,0,0-.74-.9,10.28,10.28,0,0,0,5.07-4.18,12.09,12.09,0,0,0,1.36-3.44,6.76,6.76,0,0,0,.18-1.09v-.16Zm-5.76-.54a16,16,0,0,1,1.55,3.44l-1.06.37a14,14,0,0,0-1.47-3.5Z" transform="translate(0 -0.13)"/><path class="cls-6" d="M394.54,388.89a2.53,2.53,0,0,1,0-.3,1.65,1.65,0,1,1,1.65,1.66,1.52,1.52,0,0,1-.35,0,16.38,16.38,0,0,1-2.22,5.12,13.79,13.79,0,0,1-3.94,3.67,14.44,14.44,0,0,1-2.94,1.42,3.12,3.12,0,0,0-.78-1.1,12.29,12.29,0,0,0,3.62-1.7,11.84,11.84,0,0,0,5-7.63h-8.15a11.13,11.13,0,0,0-1.79.1v-1.28a11.45,11.45,0,0,0,1.81.1h8.1Zm.64-.29a1,1,0,0,0,1,1,1,1,0,1,0-1-1Z" transform="translate(0 -0.13)"/><path class="cls-6" d="M417,387.74a7.81,7.81,0,0,0,1.33.08h1a9.2,9.2,0,0,0,1.33-.08,26.19,26.19,0,0,0-.14,2.66v7.78a10.2,10.2,0,0,0,.13,1.81h-1.52a10.13,10.13,0,0,0,.13-1.81v-9.27h-.86a9.61,9.61,0,0,0-1.39.1Z" transform="translate(0 -0.13)"/><path class="cls-6" d="M425.43,395.74c.34-.38.7-.83,1-1.23l4-5.06a18.14,18.14,0,0,0,1.2-1.63h1.2a26.53,26.53,0,0,0-.1,2.71v5.25h.61a10.74,10.74,0,0,0,1.66-.11V397a11,11,0,0,0-1.68-.11h-.59v1.38A9.21,9.21,0,0,0,433,400h-1.46a9.28,9.28,0,0,0,.13-1.73v-1.38h-4.29c-.9,0-1.38,0-1.9.06Zm6.21-4a19.46,19.46,0,0,1,.1-2.18c-.34.48-.74,1-1.2,1.6l-3.68,4.64h4.79Z" transform="translate(0 -0.13)"/><path class="cls-6" d="M444.3,391.26h-1.58v-1.58h1.58Zm-1.58,7.06v-1.58h1.58v1.58Z" transform="translate(0 -0.13)"/><path class="cls-6" d="M453.57,397a2.41,2.41,0,0,0,1,1.52,3.53,3.53,0,0,0,2.06.58c1.86,0,3-1,3-2.48s-1.14-2.45-3.27-2.45a11.27,11.27,0,0,0-1.28.08V393a6.88,6.88,0,0,0,1.18.1,3.2,3.2,0,0,0,2.34-.74,2.21,2.21,0,0,0,.64-1.55c0-1.38-1-2.18-2.58-2.18a2.52,2.52,0,0,0-2.13.85,3,3,0,0,0-.51,1.14l-1.33-.29a3.64,3.64,0,0,1,.86-1.6,4.16,4.16,0,0,1,3.19-1.17c2.32,0,3.79,1.22,3.79,3.14a2.81,2.81,0,0,1-1.12,2.34,3.29,3.29,0,0,1-1.5.58,3.43,3.43,0,0,1,2,.69,2.93,2.93,0,0,1,1.07,2.42c0,2.16-1.67,3.51-4.34,3.51a4.58,4.58,0,0,1-3.59-1.31,4.17,4.17,0,0,1-.82-1.55Z" transform="translate(0 -0.13)"/><path class="cls-6" d="M464.34,399.09a4,4,0,0,1-1-1.47,11.07,11.07,0,0,1-.61-3.7,9.35,9.35,0,0,1,.93-4.35,4.29,4.29,0,0,1,6.51-.83,4,4,0,0,1,1,1.47,11,11,0,0,1,.61,3.71,8.35,8.35,0,0,1-1.12,4.63,3.91,3.91,0,0,1-3.39,1.68A4,4,0,0,1,464.34,399.09Zm.93-9.57a3.28,3.28,0,0,0-.72,1.17,9.94,9.94,0,0,0-.5,3.23,8.84,8.84,0,0,0,.75,3.81,2.73,2.73,0,0,0,2.48,1.39,2.67,2.67,0,0,0,2-.75,3.15,3.15,0,0,0,.75-1.25,9.93,9.93,0,0,0,.5-3.23,9.07,9.07,0,0,0-.72-3.73,2.7,2.7,0,0,0-2.51-1.46A2.61,2.61,0,0,0,465.27,389.52Z" transform="translate(0 -0.13)"/><path class="cls-6" d="M473.14,401.38a10,10,0,0,0,2.43-3.31,10,10,0,0,0,0-8.13,10,10,0,0,0-2.43-3.31h1.42a10.76,10.76,0,0,1,2.23,3.44,10.48,10.48,0,0,1,0,7.88,10.77,10.77,0,0,1-2.23,3.44Z" transform="translate(0 -0.13)"/><path class="cls-6" d="M265,415.74a7.81,7.81,0,0,0,1.33.08h1a9.2,9.2,0,0,0,1.33-.08,26.19,26.19,0,0,0-.14,2.66v7.78a10.2,10.2,0,0,0,.13,1.81h-1.52a10.13,10.13,0,0,0,.13-1.81v-9.27h-.86a9.61,9.61,0,0,0-1.39.1Z" transform="translate(0 -0.13)"/><path class="cls-6" d="M282.41,416.91a6.24,6.24,0,0,0-1.18,1.54,20.58,20.58,0,0,0-3.59,9.54h-1.52a21.06,21.06,0,0,1,1.94-6.39,26,26,0,0,1,2.88-4.64h-5.2a12.44,12.44,0,0,0-1.81.11v-1.36a12.53,12.53,0,0,0,1.83.11h4.8a14.07,14.07,0,0,0,1.86-.08Z" transform="translate(0 -0.13)"/><path class="cls-6" d="M292.23,419.26h-1.58v-1.58h1.58Zm-1.58,7.06v-1.58h1.58v1.58Z" transform="translate(0 -0.13)"/><path class="cls-6" d="M301.76,427.09a4,4,0,0,1-1-1.47,11.07,11.07,0,0,1-.61-3.7,9.35,9.35,0,0,1,.93-4.35,4.29,4.29,0,0,1,6.51-.83,4,4,0,0,1,1,1.47,11,11,0,0,1,.61,3.71,8.35,8.35,0,0,1-1.12,4.63,3.91,3.91,0,0,1-3.39,1.68A4,4,0,0,1,301.76,427.09Zm.93-9.57a3.28,3.28,0,0,0-.72,1.17,9.94,9.94,0,0,0-.5,3.23,8.84,8.84,0,0,0,.75,3.81,2.73,2.73,0,0,0,2.48,1.39,2.67,2.67,0,0,0,2-.75,3.15,3.15,0,0,0,.75-1.25,9.93,9.93,0,0,0,.5-3.23,9.07,9.07,0,0,0-.72-3.73,2.7,2.7,0,0,0-2.51-1.46A2.61,2.61,0,0,0,302.69,417.52Z" transform="translate(0 -0.13)"/><path class="cls-6" d="M312.28,427.09a4,4,0,0,1-1-1.47,11.07,11.07,0,0,1-.61-3.7,9.35,9.35,0,0,1,.93-4.35,4.29,4.29,0,0,1,6.51-.83,4,4,0,0,1,1,1.47,11,11,0,0,1,.61,3.71,8.35,8.35,0,0,1-1.12,4.63,3.91,3.91,0,0,1-3.39,1.68A4,4,0,0,1,312.28,427.09Zm.93-9.57a3.28,3.28,0,0,0-.72,1.17,9.94,9.94,0,0,0-.5,3.23,8.84,8.84,0,0,0,.75,3.81,2.73,2.73,0,0,0,2.48,1.39,2.67,2.67,0,0,0,2-.75,3.15,3.15,0,0,0,.75-1.25,9.93,9.93,0,0,0,.5-3.23,9.07,9.07,0,0,0-.72-3.73,2.7,2.7,0,0,0-2.51-1.46A2.61,2.61,0,0,0,313.21,417.52Z" transform="translate(0 -0.13)"/><path class="cls-6" d="M325.28,422c1.42-1.39,2.42-1.89,3.86-1.89a4.32,4.32,0,0,1,2,.46,9.79,9.79,0,0,1,1.5,1,5.21,5.21,0,0,0,3.07,1.31,3.12,3.12,0,0,0,1.28-.27,4.27,4.27,0,0,0,1.82-1.55l.83.72a6.55,6.55,0,0,1-1.84,1.65,4.32,4.32,0,0,1-2.11.54,5,5,0,0,1-1.52-.26,8,8,0,0,1-2.22-1.3,4.35,4.35,0,0,0-2.88-1.22,3.29,3.29,0,0,0-1.65.42,5.66,5.66,0,0,0-1.34,1.12Z" transform="translate(0 -0.13)"/><path class="cls-6" d="M347.17,428a11.41,11.41,0,0,0-1.76.08,7.35,7.35,0,0,1,.46-2.11A7,7,0,0,1,348,423.2a21.74,21.74,0,0,1,2.45-1.76c1.58-1.07,2.11-1.78,2.11-2.75,0-1.22-1-2-2.66-2a2.64,2.64,0,0,0-2.32,1,3.23,3.23,0,0,0-.56,1.62l-1.34-.22a4.35,4.35,0,0,1,1-2.3,4.09,4.09,0,0,1,3.22-1.23c2.42,0,4,1.22,4,3.1a3.34,3.34,0,0,1-.94,2.27,12.57,12.57,0,0,1-2.72,2.06,8.74,8.74,0,0,0-2.3,2,4.48,4.48,0,0,0-.91,1.86h5.11a14,14,0,0,0,2-.11v1.34a17.9,17.9,0,0,0-2-.1Z" transform="translate(0 -0.13)"/><path class="cls-6" d="M357.56,415.74a7.81,7.81,0,0,0,1.33.08h1a9.2,9.2,0,0,0,1.33-.08,26.19,26.19,0,0,0-.14,2.66v7.78a10.2,10.2,0,0,0,.13,1.81h-1.52a10.13,10.13,0,0,0,.13-1.81v-9.27h-.86a9.61,9.61,0,0,0-1.39.1Z" transform="translate(0 -0.13)"/><path class="cls-6" d="M374.28,419.26h-1.58v-1.58h1.58Zm-1.58,7.06v-1.58h1.58v1.58Z" transform="translate(0 -0.13)"/><path class="cls-6" d="M382,423.74c.34-.38.7-.83,1-1.23l4-5.06a18.14,18.14,0,0,0,1.2-1.63h1.2a26.53,26.53,0,0,0-.1,2.71v5.25H390a10.74,10.74,0,0,0,1.66-.11V425a11,11,0,0,0-1.68-.11h-.59v1.38a9.21,9.21,0,0,0,.13,1.73h-1.46a9.28,9.28,0,0,0,.13-1.73v-1.38h-4.29c-.9,0-1.38,0-1.9.06Zm6.21-4a19.46,19.46,0,0,1,.1-2.18c-.34.48-.74,1-1.2,1.6l-3.68,4.64h4.79Z" transform="translate(0 -0.13)"/><path class="cls-6" d="M394.88,420.46a4.64,4.64,0,0,1-.13.72,3.89,3.89,0,0,1,2.8-1.11,4,4,0,0,1,2.88,1.09,3.72,3.72,0,0,1,1.07,2.82,4,4,0,0,1-4.32,4.23,4.33,4.33,0,0,1-3.06-1.09,5,5,0,0,1-1-1.5l1.31-.38a2.42,2.42,0,0,0,.51.93,3,3,0,0,0,2.27.94,2.86,2.86,0,0,0,3-3.06,2.69,2.69,0,0,0-2.8-2.91,3.32,3.32,0,0,0-2.1.67,2.05,2.05,0,0,0-.74,1l-1.2-.11a12.8,12.8,0,0,0,.24-1.65l.35-3.62c0-.46,0-.66,0-1a6.45,6.45,0,0,0,0-.69,11,11,0,0,0,1.7.08H399a10.54,10.54,0,0,0,1.87-.13v1.36a11,11,0,0,0-1.87-.13h-3.76Z" transform="translate(0 -0.13)"/><path class="cls-6" d="M268.39,457.38a10.77,10.77,0,0,1-2.23-3.44,10.48,10.48,0,0,1,0-7.87,10.76,10.76,0,0,1,2.23-3.44h1.42a10.1,10.1,0,0,0-2.43,3.31,10,10,0,0,0,0,8.13,10.13,10.13,0,0,0,2.43,3.31Z" transform="translate(0 -0.13)"/><path class="cls-6" d="M279.93,449c0-.11,0-.35,0-1a9.91,9.91,0,0,1-1.2,1.79,18.68,18.68,0,0,1-3.79,3.54,24.47,24.47,0,0,1-2.64,1.65,2.6,2.6,0,0,0-.8-1,18.17,18.17,0,0,0,5.43-3.83,15.46,15.46,0,0,0,2.3-2.91l-5.25,0a12.69,12.69,0,0,0-1.78.06v-1.2a9.08,9.08,0,0,0,1.81.11l5.83,0,0-1.57a7.64,7.64,0,0,0-.08-1.3h1.28a6.1,6.1,0,0,0-.06.88v.38l0,1.6h2.11a8.09,8.09,0,0,0,1.6-.1v1.17a13,13,0,0,0-1.33,0H281l.11,7.79a14.58,14.58,0,0,0,.08,1.63h-1.3a9.49,9.49,0,0,0,.06-1.26v-.35l-.06-5.89V449Z" transform="translate(0 -0.13)"/><path class="cls-6" d="M287.81,449.28a11.33,11.33,0,0,0,2,.1h9.3a12.56,12.56,0,0,0,1.94-.08v1.3a18.32,18.32,0,0,0-2-.06H289.8a17.49,17.49,0,0,0-2,.06Z" transform="translate(0 -0.13)"/><path class="cls-6" d="M309.85,443.23a5.33,5.33,0,0,0-.56,1.06,8.18,8.18,0,0,1-.5.88,5.31,5.31,0,0,1,.59,0l4.18,0a2.88,2.88,0,0,0,.93-.16l.85.88a3.11,3.11,0,0,0-.48,1,24.67,24.67,0,0,1-2.1,4.27,15.41,15.41,0,0,1-7.08,5.76,2.84,2.84,0,0,0-.78-1,14.44,14.44,0,0,0,3.31-1.75,11.2,11.2,0,0,0,2.77-2.53A20.16,20.16,0,0,0,307.4,449l.74-.82a22.89,22.89,0,0,1,3.54,2.48A19.11,19.11,0,0,0,313.9,446l-5.6.08a15.9,15.9,0,0,1-3.81,4.26,2.94,2.94,0,0,0-.93-.77,13.92,13.92,0,0,0,4.08-4.56,8.74,8.74,0,0,0,.94-2.19Zm5.41-.13a12.33,12.33,0,0,1,1.6,2.26l-.77.42a11.53,11.53,0,0,0-1.57-2.27Zm1.47-.75a11.63,11.63,0,0,1,1.6,2.24l-.77.43a11,11,0,0,0-1.58-2.27Z" transform="translate(0 -0.13)"/><path class="cls-6" d="M319.81,449.28a11.33,11.33,0,0,0,2,.1h9.3a12.56,12.56,0,0,0,1.94-.08v1.3a18.32,18.32,0,0,0-2-.06H321.8a17.49,17.49,0,0,0-2,.06Z" transform="translate(0 -0.13)"/><path class="cls-6" d="M347.93,456.22a29.75,29.75,0,0,0-5.12-4.95,17.34,17.34,0,0,1-3.06,2.86,20.62,20.62,0,0,1-3.14,1.92,3.56,3.56,0,0,0-.78-1.06,12.89,12.89,0,0,0,3.25-1.84,17.35,17.35,0,0,0,5.71-7.22c0-.1,0-.11.08-.19a.33.33,0,0,0,0-.11l-.38,0-5.35.08a10.72,10.72,0,0,0-1.65.13l0-1.3a7.58,7.58,0,0,0,1.26.08h.42l5.71-.06a3,3,0,0,0,1-.13l.67.69a3,3,0,0,0-.45.78,19.36,19.36,0,0,1-2.64,4.48,39.83,39.83,0,0,1,5.33,4.8Z" transform="translate(0 -0.13)"/><path class="cls-6" d="M355.16,456.58a10.29,10.29,0,0,0,.1-1.68V445a9.5,9.5,0,0,0-.1-1.63h1.38a10.09,10.09,0,0,0-.08,1.67v3a39.77,39.77,0,0,1,7.12,3.38l-.69,1.18a32.66,32.66,0,0,0-6-3.17,1.77,1.77,0,0,1-.5-.27l0,0a5.56,5.56,0,0,1,.06.94v4.82a10.92,10.92,0,0,0,.08,1.7Z" transform="translate(0 -0.13)"/><path class="cls-6" d="M370.42,447.29a17.54,17.54,0,0,1,1.58,3.55l-1.09.37a13.2,13.2,0,0,0-1.5-3.58Zm9-.1a9.46,9.46,0,0,0-.35,1.3,14.42,14.42,0,0,1-1.41,3.58,11.6,11.6,0,0,1-5.3,4.63,3.24,3.24,0,0,0-.74-.9,10.28,10.28,0,0,0,5.07-4.18,12.09,12.09,0,0,0,1.36-3.44,6.76,6.76,0,0,0,.18-1.09v-.16Zm-5.76-.54a16,16,0,0,1,1.55,3.44l-1.06.37a14,14,0,0,0-1.47-3.5Z" transform="translate(0 -0.13)"/><path class="cls-6" d="M394.54,444.89a2.53,2.53,0,0,1,0-.3,1.65,1.65,0,1,1,1.65,1.66,1.52,1.52,0,0,1-.35,0,16.38,16.38,0,0,1-2.22,5.12,13.79,13.79,0,0,1-3.94,3.67,14.44,14.44,0,0,1-2.94,1.42,3.12,3.12,0,0,0-.78-1.1,12.29,12.29,0,0,0,3.62-1.7,11.84,11.84,0,0,0,5-7.63h-8.15a11.13,11.13,0,0,0-1.79.1v-1.28a11.45,11.45,0,0,0,1.81.1h8.1Zm.64-.29a1,1,0,0,0,1,1,1,1,0,1,0-1-1Z" transform="translate(0 -0.13)"/><path class="cls-6" d="M417.13,456a11.41,11.41,0,0,0-1.76.08,7.35,7.35,0,0,1,.46-2.11,7,7,0,0,1,2.08-2.75,21.74,21.74,0,0,1,2.45-1.76c1.58-1.07,2.11-1.78,2.11-2.75,0-1.22-1-2-2.66-2a2.64,2.64,0,0,0-2.32,1,3.23,3.23,0,0,0-.56,1.62l-1.34-.22a4.35,4.35,0,0,1,1-2.3,4.09,4.09,0,0,1,3.22-1.23c2.42,0,4,1.22,4,3.1a3.34,3.34,0,0,1-.94,2.27,12.57,12.57,0,0,1-2.72,2.06,8.74,8.74,0,0,0-2.3,2,4.48,4.48,0,0,0-.91,1.86H422a14,14,0,0,0,2-.11v1.34a17.9,17.9,0,0,0-2-.1Z" transform="translate(0 -0.13)"/><path class="cls-6" d="M427.51,443.74a7.81,7.81,0,0,0,1.33.08h1a9.2,9.2,0,0,0,1.33-.08,26.19,26.19,0,0,0-.14,2.66v7.78a10.2,10.2,0,0,0,.13,1.81h-1.52a10.13,10.13,0,0,0,.13-1.81v-9.27h-.86a9.61,9.61,0,0,0-1.39.1Z" transform="translate(0 -0.13)"/><path class="cls-6" d="M444.23,447.26h-1.58v-1.58h1.58Zm-1.58,7.06v-1.58h1.58v1.58Z" transform="translate(0 -0.13)"/><path class="cls-6" d="M453.76,455.09a4,4,0,0,1-1-1.47,11.07,11.07,0,0,1-.61-3.7,9.35,9.35,0,0,1,.93-4.35,4.29,4.29,0,0,1,6.51-.83,4,4,0,0,1,1,1.47,11,11,0,0,1,.61,3.71,8.35,8.35,0,0,1-1.12,4.63,3.91,3.91,0,0,1-3.39,1.68A4,4,0,0,1,453.76,455.09Zm.93-9.57a3.28,3.28,0,0,0-.72,1.17,9.94,9.94,0,0,0-.5,3.23,8.84,8.84,0,0,0,.75,3.81,2.73,2.73,0,0,0,2.48,1.39,2.67,2.67,0,0,0,2-.75,3.15,3.15,0,0,0,.75-1.25,9.93,9.93,0,0,0,.5-3.23,9.07,9.07,0,0,0-.72-3.73,2.7,2.7,0,0,0-2.51-1.46A2.61,2.61,0,0,0,454.69,445.52Z" transform="translate(0 -0.13)"/><path class="cls-6" d="M464.28,455.09a4,4,0,0,1-1-1.47,11.07,11.07,0,0,1-.61-3.7,9.35,9.35,0,0,1,.93-4.35,4.29,4.29,0,0,1,6.51-.83,4,4,0,0,1,1,1.47,11,11,0,0,1,.61,3.71,8.35,8.35,0,0,1-1.12,4.63,3.91,3.91,0,0,1-3.39,1.68A4,4,0,0,1,464.28,455.09Zm.93-9.57a3.28,3.28,0,0,0-.72,1.17,9.94,9.94,0,0,0-.5,3.23,8.84,8.84,0,0,0,.75,3.81,2.73,2.73,0,0,0,2.48,1.39,2.67,2.67,0,0,0,2-.75,3.15,3.15,0,0,0,.75-1.25,9.93,9.93,0,0,0,.5-3.23,9.07,9.07,0,0,0-.72-3.73,2.7,2.7,0,0,0-2.51-1.46A2.61,2.61,0,0,0,465.21,445.52Z" transform="translate(0 -0.13)"/><path class="cls-6" d="M473.08,457.38a10,10,0,0,0,2.43-3.31,10,10,0,0,0,0-8.13,10,10,0,0,0-2.43-3.31h1.42a10.76,10.76,0,0,1,2.23,3.44,10.48,10.48,0,0,1,0,7.88,10.77,10.77,0,0,1-2.23,3.44Z" transform="translate(0 -0.13)"/><path class="cls-5" d="M196.28,470.36h4.13a10.21,10.21,0,0,0-1.7,3,15.75,15.75,0,0,0,0,9.32,10.21,10.21,0,0,0,1.7,3h-4.13Z" transform="translate(0 -0.13)"/><path class="cls-5" d="M208.41,472.57a11.32,11.32,0,0,0-.11-1.68h1.31a10.82,10.82,0,0,0-.11,1.68V476h3.73a11.51,11.51,0,0,0,1.73-.1v1.17a12.67,12.67,0,0,0-1.73-.08H209.5v6.39h4.93a14.08,14.08,0,0,0,1.81-.1v1.22a12.75,12.75,0,0,0-1.81-.11H203.91a13.86,13.86,0,0,0-1.9.11V483.3a15,15,0,0,0,1.9.1h4.5V477H205a12.64,12.64,0,0,0-1.74.08v-1.17a11.9,11.9,0,0,0,1.74.1h3.36Z" transform="translate(0 -0.13)"/><path class="cls-5" d="M219.89,473.18a11.21,11.21,0,0,0-.08-1.57,13,13,0,0,0,1.71.08h7.2a11.54,11.54,0,0,0,1.65-.08,10.08,10.08,0,0,0-.08,1.47v10.26a12.25,12.25,0,0,0,.1,1.71h-1.17v-1H221v1H219.8a12.32,12.32,0,0,0,.1-1.7Zm1.07,4h8.26v-4.48H221Zm0,5.89h8.26v-4.91H221Z" transform="translate(0 -0.13)"/><path class="cls-5" d="M237.27,483.5a8.43,8.43,0,0,0,.11,1.66h-1.2a10.34,10.34,0,0,0,.1-1.66v-4.83a14.91,14.91,0,0,1-2.34,2,4.43,4.43,0,0,0-.54-.88,13.3,13.3,0,0,0,2.88-2.38,11.45,11.45,0,0,0,2-3h-2.93a9.86,9.86,0,0,0-1.3.06v-1a8.88,8.88,0,0,0,1.26.06h1v-1.54a8.48,8.48,0,0,0-.1-1.28h1.2a6.85,6.85,0,0,0-.1,1.28v1.54h.75a7.42,7.42,0,0,0,1,0l.53.58c-.13.22-.13.22-.66,1.26a12.27,12.27,0,0,1-1.46,2.11,9,9,0,0,0,2.48,1.89,3.4,3.4,0,0,0-.51.9,12.34,12.34,0,0,1-2.16-1.78Zm4-6.07a10.2,10.2,0,0,0-1.28.06,11.3,11.3,0,0,0,.06-1.41v-3.22a11.23,11.23,0,0,0-.06-1.33,13.1,13.1,0,0,0,1.52.06H246a12,12,0,0,0,1.44-.06,10.2,10.2,0,0,0-.06,1.31v3.35a9.93,9.93,0,0,0,.06,1.3,10.31,10.31,0,0,0-1.3-.06h-.85c0,6.16,0,6.16,0,6.23s.24.22.72.22c.82,0,1.18,0,1.3-.18s.29-.83.3-2.56a3,3,0,0,0,1,.45c-.16,2.32-.24,2.74-.69,3a3.68,3.68,0,0,1-1.76.24c-.91,0-1.25,0-1.54-.24s-.3-.34-.3-.75v-6.4h-1.42a10.78,10.78,0,0,1-.72,4.11,6.3,6.3,0,0,1-1.55,2.37,6.81,6.81,0,0,1-1.79,1.22,4.47,4.47,0,0,0-.77-.87,5.43,5.43,0,0,0,2.26-1.57c1.07-1.25,1.52-2.72,1.58-5.27Zm-.22-.9h5.35v-4H241Z" transform="translate(0 -0.13)"/><path class="cls-5" d="M249.78,485.63a10.21,10.21,0,0,0,1.7-3,15.75,15.75,0,0,0,0-9.32,10.21,10.21,0,0,0-1.7-3h4.13v15.27Z" transform="translate(0 -0.13)"/><path class="cls-6" d="M267.67,471.74a7.81,7.81,0,0,0,1.33.08h1a9.2,9.2,0,0,0,1.33-.08,26.19,26.19,0,0,0-.14,2.66v7.78a10.2,10.2,0,0,0,.13,1.81H269.8a10.13,10.13,0,0,0,.13-1.81v-9.27h-.86a9.61,9.61,0,0,0-1.39.1Z" transform="translate(0 -0.13)"/><path class="cls-6" d="M278.18,471.74a7.81,7.81,0,0,0,1.33.08h1a9.2,9.2,0,0,0,1.33-.08,26.19,26.19,0,0,0-.14,2.66v7.78a10.2,10.2,0,0,0,.13,1.81h-1.52a10.13,10.13,0,0,0,.13-1.81v-9.27h-.86a9.61,9.61,0,0,0-1.39.1Z" transform="translate(0 -0.13)"/><path class="cls-6" d="M294.9,475.26h-1.58v-1.58h1.58Zm-1.58,7.06v-1.58h1.58v1.58Z" transform="translate(0 -0.13)"/><path class="cls-6" d="M304.44,483.09a4,4,0,0,1-1-1.47,11.07,11.07,0,0,1-.61-3.7,9.35,9.35,0,0,1,.93-4.35,4.29,4.29,0,0,1,6.51-.83,4,4,0,0,1,1,1.47,11,11,0,0,1,.61,3.71,8.35,8.35,0,0,1-1.12,4.63,3.91,3.91,0,0,1-3.39,1.68A4,4,0,0,1,304.44,483.09Zm.93-9.57a3.28,3.28,0,0,0-.72,1.17,9.94,9.94,0,0,0-.5,3.23,8.84,8.84,0,0,0,.75,3.81,2.73,2.73,0,0,0,2.48,1.39,2.67,2.67,0,0,0,2-.75,3.15,3.15,0,0,0,.75-1.25,9.93,9.93,0,0,0,.5-3.23,9.07,9.07,0,0,0-.72-3.73,2.7,2.7,0,0,0-2.51-1.46A2.61,2.61,0,0,0,305.37,473.52Z" transform="translate(0 -0.13)"/><path class="cls-6" d="M314.95,483.09a4,4,0,0,1-1-1.47,11.07,11.07,0,0,1-.61-3.7,9.35,9.35,0,0,1,.93-4.35,4.29,4.29,0,0,1,6.51-.83,4,4,0,0,1,1,1.47,11,11,0,0,1,.61,3.71,8.35,8.35,0,0,1-1.12,4.63,3.91,3.91,0,0,1-3.39,1.68A4,4,0,0,1,314.95,483.09Zm.93-9.57a3.28,3.28,0,0,0-.72,1.17,9.94,9.94,0,0,0-.5,3.23,8.84,8.84,0,0,0,.75,3.81,2.73,2.73,0,0,0,2.48,1.39,2.67,2.67,0,0,0,2-.75,3.15,3.15,0,0,0,.75-1.25,9.93,9.93,0,0,0,.5-3.23,9.07,9.07,0,0,0-.72-3.73,2.7,2.7,0,0,0-2.51-1.46A2.61,2.61,0,0,0,315.88,473.52Z" transform="translate(0 -0.13)"/><path class="cls-6" d="M328,478c1.42-1.39,2.42-1.89,3.86-1.89a4.32,4.32,0,0,1,2,.46,9.79,9.79,0,0,1,1.5,1,5.21,5.21,0,0,0,3.07,1.31,3.12,3.12,0,0,0,1.28-.27A4.27,4.27,0,0,0,341.5,477l.83.72a6.55,6.55,0,0,1-1.84,1.65,4.32,4.32,0,0,1-2.11.54,5,5,0,0,1-1.52-.26,8,8,0,0,1-2.22-1.3,4.35,4.35,0,0,0-2.88-1.22,3.29,3.29,0,0,0-1.65.42,5.66,5.66,0,0,0-1.34,1.12Z" transform="translate(0 -0.13)"/><path class="cls-6" d="M349.85,484a11.41,11.41,0,0,0-1.76.08,7.35,7.35,0,0,1,.46-2.11,7,7,0,0,1,2.08-2.75,21.74,21.74,0,0,1,2.45-1.76c1.58-1.07,2.11-1.78,2.11-2.75,0-1.22-1-2-2.66-2a2.64,2.64,0,0,0-2.32,1,3.23,3.23,0,0,0-.56,1.62l-1.34-.22a4.35,4.35,0,0,1,1-2.3,4.09,4.09,0,0,1,3.22-1.23c2.42,0,4,1.22,4,3.1a3.34,3.34,0,0,1-.94,2.27,12.57,12.57,0,0,1-2.72,2.06,8.74,8.74,0,0,0-2.3,2,4.48,4.48,0,0,0-.91,1.86h5.11a14,14,0,0,0,2-.11v1.34a17.9,17.9,0,0,0-2-.1Z" transform="translate(0 -0.13)"/><path class="cls-6" d="M360.23,471.74a7.81,7.81,0,0,0,1.33.08h1a9.2,9.2,0,0,0,1.33-.08,26.19,26.19,0,0,0-.14,2.66v7.78a10.2,10.2,0,0,0,.13,1.81h-1.52a10.13,10.13,0,0,0,.13-1.81v-9.27h-.86a9.61,9.61,0,0,0-1.39.1Z" transform="translate(0 -0.13)"/><path class="cls-6" d="M377,475.26h-1.58v-1.58H377Zm-1.58,7.06v-1.58H377v1.58Z" transform="translate(0 -0.13)"/><path class="cls-6" d="M384.66,479.74c.34-.38.7-.83,1-1.23l4-5.06a18.14,18.14,0,0,0,1.2-1.63h1.2a26.53,26.53,0,0,0-.1,2.71v5.25h.61a10.74,10.74,0,0,0,1.66-.11V481a11,11,0,0,0-1.68-.11h-.59v1.38a9.21,9.21,0,0,0,.13,1.73h-1.46a9.28,9.28,0,0,0,.13-1.73v-1.38h-4.29c-.9,0-1.38,0-1.9.06Zm6.21-4a19.46,19.46,0,0,1,.1-2.18c-.34.48-.74,1-1.2,1.6l-3.68,4.64h4.79Z" transform="translate(0 -0.13)"/><path class="cls-6" d="M397.56,476.46a4.64,4.64,0,0,1-.13.72,3.89,3.89,0,0,1,2.8-1.11,4,4,0,0,1,2.88,1.09,3.72,3.72,0,0,1,1.07,2.82,4,4,0,0,1-4.32,4.23,4.33,4.33,0,0,1-3.06-1.09,5,5,0,0,1-1-1.5l1.31-.38a2.42,2.42,0,0,0,.51.93,3,3,0,0,0,2.27.94,2.86,2.86,0,0,0,3-3.06,2.69,2.69,0,0,0-2.8-2.91,3.32,3.32,0,0,0-2.1.67,2.05,2.05,0,0,0-.74,1l-1.2-.11a12.8,12.8,0,0,0,.24-1.65l.35-3.62c0-.46,0-.66,0-1a6.45,6.45,0,0,0,0-.69,11,11,0,0,0,1.7.08h3.3a10.54,10.54,0,0,0,1.87-.13v1.36a11,11,0,0,0-1.87-.13h-3.76Z" transform="translate(0 -0.13)"/><path class="cls-6" d="M268.39,513.38a10.77,10.77,0,0,1-2.23-3.44,10.48,10.48,0,0,1,0-7.87,10.76,10.76,0,0,1,2.23-3.44h1.42a10.1,10.1,0,0,0-2.43,3.31,10,10,0,0,0,0,8.13,10.13,10.13,0,0,0,2.43,3.31Z" transform="translate(0 -0.13)"/><path class="cls-6" d="M279.93,505c0-.11,0-.35,0-1a9.91,9.91,0,0,1-1.2,1.79,18.68,18.68,0,0,1-3.79,3.54,24.47,24.47,0,0,1-2.64,1.65,2.6,2.6,0,0,0-.8-1,18.17,18.17,0,0,0,5.43-3.83,15.46,15.46,0,0,0,2.3-2.91l-5.25,0a12.69,12.69,0,0,0-1.78.06v-1.2a9.08,9.08,0,0,0,1.81.11l5.83,0,0-1.57a7.64,7.64,0,0,0-.08-1.3h1.28a6.1,6.1,0,0,0-.06.88v.38l0,1.6h2.11a8.09,8.09,0,0,0,1.6-.1v1.17a13,13,0,0,0-1.33,0H281l.11,7.79a14.58,14.58,0,0,0,.08,1.63h-1.3a9.49,9.49,0,0,0,.06-1.26v-.35l-.06-5.89V505Z" transform="translate(0 -0.13)"/><path class="cls-6" d="M287.81,505.28a11.33,11.33,0,0,0,2,.1h9.3a12.56,12.56,0,0,0,1.94-.08v1.3a18.32,18.32,0,0,0-2-.06H289.8a17.49,17.49,0,0,0-2,.06Z" transform="translate(0 -0.13)"/><path class="cls-6" d="M309.85,499.23a5.33,5.33,0,0,0-.56,1.06,8.18,8.18,0,0,1-.5.88,5.31,5.31,0,0,1,.59,0l4.18,0a2.88,2.88,0,0,0,.93-.16l.85.88a3.11,3.11,0,0,0-.48,1,24.67,24.67,0,0,1-2.1,4.27,15.41,15.41,0,0,1-7.08,5.76,2.84,2.84,0,0,0-.78-1,14.44,14.44,0,0,0,3.31-1.75,11.2,11.2,0,0,0,2.77-2.53A20.16,20.16,0,0,0,307.4,505l.74-.82a22.89,22.89,0,0,1,3.54,2.48A19.11,19.11,0,0,0,313.9,502l-5.6.08a15.9,15.9,0,0,1-3.81,4.26,2.94,2.94,0,0,0-.93-.77,13.92,13.92,0,0,0,4.08-4.56,8.74,8.74,0,0,0,.94-2.19Zm5.41-.13a12.33,12.33,0,0,1,1.6,2.26l-.77.42a11.53,11.53,0,0,0-1.57-2.27Zm1.47-.75a11.63,11.63,0,0,1,1.6,2.24l-.77.43a11,11,0,0,0-1.58-2.27Z" transform="translate(0 -0.13)"/><path class="cls-6" d="M319.81,505.28a11.33,11.33,0,0,0,2,.1h9.3a12.56,12.56,0,0,0,1.94-.08v1.3a18.32,18.32,0,0,0-2-.06H321.8a17.49,17.49,0,0,0-2,.06Z" transform="translate(0 -0.13)"/><path class="cls-6" d="M347.93,512.22a29.75,29.75,0,0,0-5.12-4.95,17.34,17.34,0,0,1-3.06,2.86,20.62,20.62,0,0,1-3.14,1.92,3.56,3.56,0,0,0-.78-1.06,12.89,12.89,0,0,0,3.25-1.84,17.35,17.35,0,0,0,5.71-7.22c0-.1,0-.11.08-.19a.33.33,0,0,0,0-.11l-.38,0-5.35.08a10.72,10.72,0,0,0-1.65.13l0-1.3a7.58,7.58,0,0,0,1.26.08h.42l5.71-.06a3,3,0,0,0,1-.13l.67.69a3,3,0,0,0-.45.78,19.36,19.36,0,0,1-2.64,4.48,39.83,39.83,0,0,1,5.33,4.8Z" transform="translate(0 -0.13)"/><path class="cls-6" d="M355.16,512.58a10.29,10.29,0,0,0,.1-1.68V501a9.5,9.5,0,0,0-.1-1.63h1.38a10.09,10.09,0,0,0-.08,1.67v3a39.77,39.77,0,0,1,7.12,3.38l-.69,1.18a32.66,32.66,0,0,0-6-3.17,1.77,1.77,0,0,1-.5-.27l0,0a5.56,5.56,0,0,1,.06.94v4.82a10.92,10.92,0,0,0,.08,1.7Z" transform="translate(0 -0.13)"/><path class="cls-6" d="M370.42,503.29a17.54,17.54,0,0,1,1.58,3.55l-1.09.37a13.2,13.2,0,0,0-1.5-3.58Zm9-.1a9.46,9.46,0,0,0-.35,1.3,14.42,14.42,0,0,1-1.41,3.58,11.6,11.6,0,0,1-5.3,4.63,3.24,3.24,0,0,0-.74-.9,10.28,10.28,0,0,0,5.07-4.18,12.09,12.09,0,0,0,1.36-3.44,6.76,6.76,0,0,0,.18-1.09v-.16Zm-5.76-.54a16,16,0,0,1,1.55,3.44l-1.06.37a14,14,0,0,0-1.47-3.5Z" transform="translate(0 -0.13)"/><path class="cls-6" d="M394.54,500.89a2.53,2.53,0,0,1,0-.3,1.65,1.65,0,1,1,1.65,1.66,1.52,1.52,0,0,1-.35,0,16.38,16.38,0,0,1-2.22,5.12,13.79,13.79,0,0,1-3.94,3.67,14.44,14.44,0,0,1-2.94,1.42,3.12,3.12,0,0,0-.78-1.1,12.29,12.29,0,0,0,3.62-1.7,11.84,11.84,0,0,0,5-7.63h-8.15a11.13,11.13,0,0,0-1.79.1v-1.28a11.45,11.45,0,0,0,1.81.1h8.1Zm.64-.29a1,1,0,0,0,1,1,1,1,0,1,0-1-1Z" transform="translate(0 -0.13)"/><path class="cls-6" d="M417.13,512a11.41,11.41,0,0,0-1.76.08,7.35,7.35,0,0,1,.46-2.11,7,7,0,0,1,2.08-2.75,21.74,21.74,0,0,1,2.45-1.76c1.58-1.07,2.11-1.78,2.11-2.75,0-1.22-1-2-2.66-2a2.64,2.64,0,0,0-2.32,1,3.23,3.23,0,0,0-.56,1.62l-1.34-.22a4.35,4.35,0,0,1,1-2.3,4.09,4.09,0,0,1,3.22-1.23c2.42,0,4,1.22,4,3.1a3.34,3.34,0,0,1-.94,2.27,12.57,12.57,0,0,1-2.72,2.06,8.74,8.74,0,0,0-2.3,2,4.48,4.48,0,0,0-.91,1.86H422a14,14,0,0,0,2-.11v1.34a17.9,17.9,0,0,0-2-.1Z" transform="translate(0 -0.13)"/><path class="cls-6" d="M427.51,499.74a7.81,7.81,0,0,0,1.33.08h1a9.2,9.2,0,0,0,1.33-.08,26.19,26.19,0,0,0-.14,2.66v7.78a10.2,10.2,0,0,0,.13,1.81h-1.52a10.13,10.13,0,0,0,.13-1.81v-9.27h-.86a9.61,9.61,0,0,0-1.39.1Z" transform="translate(0 -0.13)"/><path class="cls-6" d="M444.23,503.26h-1.58v-1.58h1.58Zm-1.58,7.06v-1.58h1.58v1.58Z" transform="translate(0 -0.13)"/><path class="cls-6" d="M453.76,511.09a4,4,0,0,1-1-1.47,11.07,11.07,0,0,1-.61-3.7,9.35,9.35,0,0,1,.93-4.35,4.29,4.29,0,0,1,6.51-.83,4,4,0,0,1,1,1.47,11,11,0,0,1,.61,3.71,8.35,8.35,0,0,1-1.12,4.63,3.91,3.91,0,0,1-3.39,1.68A4,4,0,0,1,453.76,511.09Zm.93-9.57a3.28,3.28,0,0,0-.72,1.17,9.94,9.94,0,0,0-.5,3.23,8.84,8.84,0,0,0,.75,3.81,2.73,2.73,0,0,0,2.48,1.39,2.67,2.67,0,0,0,2-.75,3.15,3.15,0,0,0,.75-1.25,9.93,9.93,0,0,0,.5-3.23,9.07,9.07,0,0,0-.72-3.73,2.7,2.7,0,0,0-2.51-1.46A2.61,2.61,0,0,0,454.69,501.52Z" transform="translate(0 -0.13)"/><path class="cls-6" d="M464.28,511.09a4,4,0,0,1-1-1.47,11.07,11.07,0,0,1-.61-3.7,9.35,9.35,0,0,1,.93-4.35,4.29,4.29,0,0,1,6.51-.83,4,4,0,0,1,1,1.47,11,11,0,0,1,.61,3.71,8.35,8.35,0,0,1-1.12,4.63,3.91,3.91,0,0,1-3.39,1.68A4,4,0,0,1,464.28,511.09Zm.93-9.57a3.28,3.28,0,0,0-.72,1.17,9.94,9.94,0,0,0-.5,3.23,8.84,8.84,0,0,0,.75,3.81,2.73,2.73,0,0,0,2.48,1.39,2.67,2.67,0,0,0,2-.75,3.15,3.15,0,0,0,.75-1.25,9.93,9.93,0,0,0,.5-3.23,9.07,9.07,0,0,0-.72-3.73,2.7,2.7,0,0,0-2.51-1.46A2.61,2.61,0,0,0,465.21,501.52Z" transform="translate(0 -0.13)"/><path class="cls-6" d="M473.08,513.38a10,10,0,0,0,2.43-3.31,10,10,0,0,0,0-8.13,10,10,0,0,0-2.43-3.31h1.42a10.76,10.76,0,0,1,2.23,3.44,10.48,10.48,0,0,1,0,7.88,10.77,10.77,0,0,1-2.23,3.44Z" transform="translate(0 -0.13)"/><line class="cls-7" x1="193.09" y1="277.37" x2="503.09" y2="277.37"/><rect class="cls-5" x="193.09" y="307.87" width="80" height="30"/><path class="cls-8" d="M209.94,320a14.94,14.94,0,0,0,1.42-3c.93.32,1.39.59,1.39.8s-.22.21-.66.22a12.17,12.17,0,0,1-1.63,2h2.64l.58-.72c.66.66,1,1,1,1.22s-.08.14-.19.18l-.43.11a15.07,15.07,0,0,1-1.41,1.31l-.29-.22a6.85,6.85,0,0,0,.77-1.5h-9.51a3.86,3.86,0,0,1-.3,1.63c-.22.53-.5.8-.83.8s-.51-.16-.51-.48a.67.67,0,0,1,.22-.45,3.8,3.8,0,0,0,1-2.45l.38.08s0,.21,0,.5Zm-6.13-2.79Q206,318,206,319c0,.37-.18.54-.51.54s-.37-.14-.48-.43a3.75,3.75,0,0,0-1.39-1.62Zm7,4.53.48-.58c.56.42.85.7.85.8s0,.11-.13.18l-.32.19V325h-.77v-.56h-2.27a13.46,13.46,0,0,1-1.07,1.71h4.18l.51-.61q.91.67.91.86c0,.06,0,.13-.16.19l-.34.19V330h-.8v-.85h-7.24V330h-.82v-4.27l.93.4h2.34a9,9,0,0,0,.46-1.71h-2V325h-.78v-3.62l.91.32Zm1.07,7.08v-2.31h-7.24v2.31Zm-6.31-6.71v2h5.35v-2Zm1.26-5.11c1.36.56,2,1.18,2,1.87,0,.4-.19.58-.56.58s-.38-.16-.46-.48a3.53,3.53,0,0,0-1.22-1.71Z" transform="translate(0 -0.13)"/><path class="cls-8" d="M224.63,322.81v1.25h3.12l.67-.77a8.6,8.6,0,0,1,.94.88l-.19.26h-4.55v1.31h4.27l.77-.88a12.73,12.73,0,0,1,1,.93l-.18.3h-5.6a14.75,14.75,0,0,0,5.94,2.38,4.14,4.14,0,0,0-.69.88,12.77,12.77,0,0,1-5.51-3V330h-.85v-3.38a14.08,14.08,0,0,1-5.75,3.06l-.21-.32a13.38,13.38,0,0,0,5.35-3.31h-5.11l-.16-.35h5.87v-1.31h-4.07l-.14-.37h4.21v-1.25h-5.06l-.18-.35h3.84a.54.54,0,0,1-.3-.43,2.22,2.22,0,0,0-.78-1.12l.16-.24c1,.32,1.58.75,1.58,1.3a.54.54,0,0,1-.4.5h2.71a9.91,9.91,0,0,0,.75-1.86c.78.27,1.17.51,1.17.69s-.19.18-.58.19a7.34,7.34,0,0,1-.83,1h2.5l.74-.86a10.85,10.85,0,0,1,1,1l-.18.26Zm1.87-2.58a18.31,18.31,0,0,0,1.15-2.72c.78.32,1.17.56,1.17.74s-.18.19-.58.21a10.46,10.46,0,0,1-1.3,1.78h2l.69-.93a9.18,9.18,0,0,1,1,1l-.16.29h-12.2l-.16-.35h4.58v-3.06c.88,0,1.31.14,1.31.34s-.18.22-.51.35v2.37H225v-3.09c.88,0,1.33.16,1.33.37s-.19.24-.54.37v2.35Zm-6.67-2.54c1.22.58,1.81,1.2,1.81,1.9,0,.37-.16.56-.5.56s-.4-.18-.48-.53a3.07,3.07,0,0,0-1-1.68Z" transform="translate(0 -0.13)"/><path class="cls-8" d="M237.3,318.56l.54-.67q.82.67.82.86a.28.28,0,0,1-.14.22l-.29.19v8.92h-.8v-1h-2.23v1.54h-.8V318.12a10.12,10.12,0,0,1,1,.45Zm-2.1.37v3.55h2.23v-3.55Zm2.23,7.76v-3.84h-2.23v3.84Zm5.28-7v2.24h2.63l.7-1c.4.43.69.78.9,1.06l-.14.29h-8.23l-.16-.37h3.51v-2.24h-2.69l-.18-.37h2.86v-2.16c.93,0,1.39.14,1.39.32s-.21.26-.59.4v1.44h1.9l.69-.93a10.73,10.73,0,0,1,.88,1l-.16.29Zm2,5v4.13c0,.74-.5,1.12-1.49,1.12a.56.56,0,0,0-.35-.56,9.55,9.55,0,0,0-1.6-.34v-.38c.86.06,1.55.11,2.08.11.37,0,.54-.14.54-.45v-3.63h-5.09l-.16-.35h5.25v-2c.88.18,1.31.35,1.31.5s-.18.21-.5.3v1.22h.74l.59-1a9.21,9.21,0,0,1,.78,1l-.16.3Zm-4.72.38c1.42.69,2.13,1.36,2.13,2,0,.37-.16.54-.5.54a.43.43,0,0,1-.43-.32,4.52,4.52,0,0,0-1.39-2Z" transform="translate(0 -0.13)"/><path class="cls-8" d="M254.49,317.81l.54-.64c.5.42.75.69.75.82s0,.14-.1.18l-.29.18v4h-.8v-.75h-3.27V330h-.86V317.32a10.28,10.28,0,0,1,1.06.5Zm-3.15.35v1.26h3.27v-1.26Zm0,3h3.27V319.8h-3.27Zm6.31,2.13.48-.59c.58.45.88.74.88.86a.2.2,0,0,1-.11.16l-.34.22v4.51h-.8v-.79h-3.3v1h-.83v-5.79l.91.4Zm-3.19.35v1.58h3.3v-1.58Zm3.3,3.68v-1.73h-3.3v1.73Zm3.33-9.54.5-.64q.86.67.86.86c0,.06,0,.11-.11.18l-.29.21v10.5c0,.7-.48,1-1.44,1a.62.62,0,0,0-.46-.61,8.32,8.32,0,0,0-1.09-.24v-.37a13,13,0,0,0,1.57.1c.37,0,.56-.14.56-.43v-6.83h-3.43v.67h-.82v-4.85c.37.16.7.29,1,.43Zm-3.33.35v1.26h3.43v-1.26Zm3.43,3V319.8h-3.43v1.39Z" transform="translate(0 -0.13)"/></g></g></svg>