<svg xmlns="http://www.w3.org/2000/svg" xmlns:xlink="http://www.w3.org/1999/xlink" viewBox="0 0 763.19 599.28"><defs><style>.cls-1,.cls-6{fill:none;}.cls-2{clip-path:url(#clip-path);}.cls-3{opacity:0.31;}.cls-4{fill:#527c68;}.cls-5{fill:#333;}.cls-6{stroke:gray;stroke-miterlimit:10;stroke-width:0.5px;}.cls-7{fill:#fff;}</style><clipPath id="clip-path" transform="translate(0 -0.13)"><rect class="cls-1" x="163.09" width="370" height="600"/></clipPath></defs><title>Asset 32</title><g id="Layer_2" data-name="Layer 2"><g id="text"><g class="cls-2"><image class="cls-3" width="632" height="421" transform="translate(0) scale(1.21 1.42)" xlink:href="../../../190325 2/190325/design_underA/Links/BGT046_3.JPG"/></g><path class="cls-4" d="M204.79,96.94v1.4h-6.55v21.92H196.8V96.94Z" transform="translate(0 -0.13)"/><path class="cls-4" d="M229.92,102.59a31.31,31.31,0,0,0,1.51-5.83c2.12.4,3.24.83,3.24,1.26s-.47.54-1.33.68a19.35,19.35,0,0,1-2.3,3.89h9.29l1.26-1.51c1.4,1,2.12,1.73,2.12,2.05a.42.42,0,0,1-.22.32l-.83.58v21.88h-2v-3H224.77v3h-2V101.51c.76.32,1.58.65,2.38,1.08Zm-5.15.83v5.47h15.91v-5.47Zm15.91,11.88v-5.62H224.77v5.62Zm0,6.88v-6.08H224.77v6.08Z" transform="translate(0 -0.13)"/><path class="cls-4" d="M277.58,105.29c.11-1.15.18-2.16.18-3.13V97.29c2,0,3,.29,3,.76,0,.29-.4.58-1.22.87v3.24c0,1.26-.07,2.27-.14,3.13h5.4l1.4-1.91c.68.68,1.33,1.37,1.94,2.09l-.36.61h-7.88a19.81,19.81,0,0,0,8.6,9.61,6.83,6.83,0,0,0-1.58,1.84,19.94,19.94,0,0,1-7.74-10.73,14,14,0,0,1-3,7,16.86,16.86,0,0,1-5.76,4l-.43-.76a14.56,14.56,0,0,0,6.12-6.15,18.15,18.15,0,0,0,1.37-4.82h-4.71a25.86,25.86,0,0,1-12.13,13l-.47-.72a26.91,26.91,0,0,0,11.92-16.27h-5c-.36.72-.76,1.44-1.12,2.16,2.63,1,3.92,2.12,3.92,3.38a.85.85,0,0,1-.94,1c-.43,0-.76-.32-1-.9a6.69,6.69,0,0,0-2.45-2.74,30.62,30.62,0,0,1-1.76,2.59c2.41,1.33,3.64,2.63,3.64,3.92,0,.72-.32,1-.94,1-.43,0-.76-.32-1-1a8.41,8.41,0,0,0-2.23-3.28,29.6,29.6,0,0,1-3.17,3.24l-.54-.61a30.76,30.76,0,0,0,7.05-13.64c2,.54,3,1,3,1.4s-.5.5-1.44.65a20.21,20.21,0,0,1-.72,2H272l1.19-1.44c1.26,1.12,1.91,1.87,1.91,2.2,0,.14-.14.29-.32.4l-.83.4c-.29.94-.54,1.76-.83,2.48ZM265.78,118.5a11.29,11.29,0,0,1-2.3,6.34,2.83,2.83,0,0,1-2.09,1.26,1,1,0,0,1-1.15-1.19c0-.36.36-.76,1-1.19a9.51,9.51,0,0,0,3.74-5.47Zm3.92-.36c1.62,2,2.41,3.82,2.41,5.47,0,1.26-.47,1.87-1.33,1.87-.61,0-.9-.36-.9-1.12v-.21a8.47,8.47,0,0,0,0-1,13.85,13.85,0,0,0-.86-4.64Zm5.87-.14c2.74,2.13,4.14,4.1,4.14,5.94q0,1.51-1.3,1.51c-.61,0-.94-.43-1-1.29A12,12,0,0,0,275,118.5Zm6-19.62c2.45,1.22,3.71,2.48,3.71,3.78,0,.83-.4,1.22-1.15,1.22-.54,0-.79-.36-.94-1a6.25,6.25,0,0,0-2.09-3.42Zm.43,19.51a15.83,15.83,0,0,1,4.93,3.64,3.52,3.52,0,0,1,1.15,2.41c0,.9-.43,1.37-1.19,1.37-.58,0-1-.43-1.26-1.3a13.54,13.54,0,0,0-4.1-5.54Z" transform="translate(0 -0.13)"/><path class="cls-4" d="M327.95,110.25a13.83,13.83,0,0,1-.47,5,8,8,0,0,1-3.49,4.54,16.65,16.65,0,0,1-5.94,2.16,15.47,15.47,0,0,1-5.8,0c-.36,0-.54-.18-.5-.36s.22-.32.5-.29a16,16,0,0,0,6.23-.5,15.82,15.82,0,0,0,4.39-2.12,8.19,8.19,0,0,0,3.1-5.11,12.72,12.72,0,0,0-.47-5.94,7.52,7.52,0,0,0-3.17-4.46,10.19,10.19,0,0,0-6.26-1.33c-.29,0-.61.11-.94.14.07.72.07,1.87.11,2.77a23.85,23.85,0,0,1-.54,4.93,16,16,0,0,1-2.52,6.34c-1.37,1.8-3,3-4.72,3s-2.88-1-3.67-2.74a7.77,7.77,0,0,1-.47-5.36,10.86,10.86,0,0,1,2.41-5,15.27,15.27,0,0,1,4.61-3.78,14.74,14.74,0,0,1,6.8-1.58,11.34,11.34,0,0,1,5.72,1.51,10.55,10.55,0,0,1,3.78,3.78A9.58,9.58,0,0,1,327.95,110.25Zm-13.89-8a14.49,14.49,0,0,0-4.54,2.09,12,12,0,0,0-4.28,5.29,8.58,8.58,0,0,0-.29,5.47c.5,1.22,1.73,1.48,3.17,1a6.39,6.39,0,0,0,3.63-3,13.86,13.86,0,0,0,2.09-5.79A25.76,25.76,0,0,0,314.05,102.23Z" transform="translate(0 -0.13)"/><path class="cls-4" d="M347.64,117.09a10.23,10.23,0,0,1-1.73,5.87q-1.08,1.51-2.16,1.51a1.41,1.41,0,0,1-.86-.36,1.25,1.25,0,0,1-.43-.83c0-.4.36-.79,1-1.19,1.69-1,2.81-2.7,3.35-5.25Zm8.13-12.53v-2.92H343.36l-.4-.79h12.81V97c2.27.07,3.38.32,3.38.83,0,.29-.5.61-1.48.94v2.09h9.18l1.69-2.27a15.59,15.59,0,0,1,2.23,2.41l-.36.65H357.68v2.92h6.88l1.22-1.4c1.33,1,2,1.62,2,1.94a.45.45,0,0,1-.29.43l-.79.5v9.11h-1.83v-1.33h-16.2v1.76h-1.84v-12a4.36,4.36,0,0,0,.65.22c.72.29,1.3.58,1.69.76Zm-7.09.83v3.28h7.09v-3.28Zm7.09,4.1h-7.09V113h7.09Zm8.39,9.83a11.18,11.18,0,0,0,.25,3.06,1.12,1.12,0,0,0,1.12.76,1.77,1.77,0,0,1-1.58,1.8,49.55,49.55,0,0,1-6.7.25c-3.42,0-5.36-.14-5.83-.5a2.26,2.26,0,0,1-.65-1.87V116c2.12.11,3.2.4,3.2.9,0,.22-.47.5-1.33.83v4.64c0,.54.22.83.5.9a19,19,0,0,0,3.92.22,25.54,25.54,0,0,0,4.68-.25c.83-.22,1.33-1.62,1.48-4.21Zm-8.42-4.82c3.28,1.51,4.93,3.06,4.93,4.64,0,.83-.4,1.19-1.12,1.19-.47,0-.79-.32-1-1a9.81,9.81,0,0,0-3.24-4.25Zm9.14-5.83v-3.28h-7.2v3.28Zm0,4.32V109.5h-7.2V113Zm.47,3.24c4.1,1.91,6.16,3.89,6.16,6q0,1.29-1.19,1.29c-.5,0-.9-.36-1.22-1.19a12.54,12.54,0,0,0-4.21-5.47Z" transform="translate(0 -0.13)"/><path class="cls-4" d="M384.79,125.8v-1.4h6.55V102.48h1.44V125.8Z" transform="translate(0 -0.13)"/><path class="cls-5" d="M203.85,166.45a6.17,6.17,0,0,0,.86-1.46c.67.34,1,.58,1,.74s-.18.18-.56.18c-.26.22-.56.45-.88.69,1,.4,1.55.8,1.55,1.23s-.13.45-.4.45-.3-.13-.48-.35a5.51,5.51,0,0,0-1.78-1.33,4.24,4.24,0,0,0,1.39,2.45,1.78,1.78,0,0,0,.91.56c.3,0,.54-.61.75-1.84l.37.16a12.85,12.85,0,0,0-.13,1.39c0,.46.14.72.43.78a.67.67,0,0,1-.74.63,3.43,3.43,0,0,1-2.29-1.12,6,6,0,0,1-1.62-4.51h-1.87v5.75h-.82v-5.75h-2.08a8.75,8.75,0,0,1-.77,3.25,6.55,6.55,0,0,1-2.67,2.74l-.24-.3a7.48,7.48,0,0,0,2.83-5.62h-2.54l-.11-.35h2.66a5.54,5.54,0,0,0,0-.61v-2a20.23,20.23,0,0,1-2.27.61l-.18-.34a12.55,12.55,0,0,0,4.1-2c.61.35.91.64.91.78s-.13.14-.35.14l-.35,0c-.32.16-.67.32-1,.46v2.9h2.06v-4.15c.94,0,1.39.16,1.39.37s-.18.26-.58.38v3.39h1.73l.56-.62c.58.45.85.72.85.83s0,.11-.13.18l-.34.21c0,.4,0,.69,0,.9C203.45,166.3,203.71,166.4,203.85,166.45Zm0-5.36a6.73,6.73,0,0,0,.88-1.58c.67.35,1,.61,1,.78s-.19.18-.58.18a7.56,7.56,0,0,1-.91.77c.91.32,1.38.69,1.38,1s-.13.43-.4.43a.76.76,0,0,1-.48-.32,4.56,4.56,0,0,0-1.63-1.17,3.63,3.63,0,0,0,1.38,2.27,1.75,1.75,0,0,0,.83.4c.24,0,.45-.5.61-1.54l.35.16c0,.46-.06.78-.06.93q0,.74.43.82a.65.65,0,0,1-.74.64,3.36,3.36,0,0,1-2.34-1.11,5.9,5.9,0,0,1-1.39-4.06h-7.6l-.13-.37h7.6l.53-.66c.59.45.9.75.9.88a.33.33,0,0,1-.14.21L203,160c0,.38,0,.67.06.86C203.4,160.94,203.67,161,203.88,161.08Z" transform="translate(0 -0.13)"/><path class="cls-5" d="M210.73,167.07a10.73,10.73,0,0,1,.1,1.19c0,1.42-.3,2.14-.88,2.14-.27,0-.42-.13-.42-.4a.87.87,0,0,1,.18-.38,4.93,4.93,0,0,0,.66-2.58Zm2.59-1.66h1.09l.5-.61c.54.43.82.72.82.86a.19.19,0,0,1-.1.14l-.32.19c0,2.45-.22,4-.61,4.51a1.38,1.38,0,0,1-1.26.58.6.6,0,0,0-.43-.56,5.91,5.91,0,0,0-1-.21V170c.5,0,1,.08,1.49.08a.68.68,0,0,0,.75-.58,16.51,16.51,0,0,0,.32-3.7h-3.25v.63h-.82V158.7l.14.06.21.08a1.64,1.64,0,0,0,.21.11,1.54,1.54,0,0,0,.27.11l.1.06h2.75l.61-.78c.29.27.58.56.85.86l-.16.29h-2.11v1.62h.56l.53-.75a4.52,4.52,0,0,1,.77.86l-.14.26h-1.71v1.73h.54l.56-.74a7.1,7.1,0,0,1,.78.85l-.19.24h-1.7ZM211.45,167a5,5,0,0,1,.56,2c0,.5-.16.75-.46.75s-.35-.11-.35-.32c0,0,0-.11,0-.24a4.66,4.66,0,0,0,.06-.72,5.65,5.65,0,0,0-.19-1.33Zm-.18-5.87h1.26V159.5h-1.26Zm1.26.37h-1.26v1.73h1.26Zm0,3.92v-1.84h-1.26v1.84Zm-.27,1.36a3.35,3.35,0,0,1,.88,2c0,.32-.14.48-.42.48s-.3-.18-.3-.51a4.32,4.32,0,0,0-.46-1.87Zm.8-.34a2.52,2.52,0,0,1,1.06,1.73c0,.27-.11.42-.35.42s-.3-.16-.34-.45a3.34,3.34,0,0,0-.59-1.54Zm6.93-4.88a20.3,20.3,0,0,0,1.18-3.35c.86.29,1.31.56,1.31.77s-.21.22-.61.24a13.46,13.46,0,0,1-1.44,2.34h.7l.51-.59c.56.43.83.72.83.85a.21.21,0,0,1-.1.14l-.35.22v4.42h-.8V166h-1.79v1.74h1.92l.69-.86a7,7,0,0,1,.9.94l-.16.27h-3.35v3.06h-.8v-3.06h-3l-.11-.35h3.15V166h-1.71v.74h-.8v-5.62c.3.14.61.3.9.46Zm-4-3.25c1.14.74,1.7,1.49,1.7,2.24,0,.4-.19.58-.51.58s-.4-.19-.45-.61a3.79,3.79,0,0,0-1-2Zm.93,3.62v1.6h1.71v-1.6Zm1.71,2h-1.71v1.73h1.71ZM218,158.2a2.91,2.91,0,0,1,1.49,2.21c0,.38-.18.58-.51.58s-.38-.14-.4-.45a3.81,3.81,0,0,0-.82-2.11Zm3.22,5.31v-1.6h-1.79v1.6Zm0,2.08v-1.73h-1.79v1.73Z" transform="translate(0 -0.13)"/><path class="cls-5" d="M232.79,162.43v3.65h3.92l.83-1a9.33,9.33,0,0,1,1,1.09l-.16.29h-5.59v4.69h-.86v-4.69H226.2l-.13-.35h5.86v-3.65h-3.2a11.2,11.2,0,0,1-1.87,3l-.27-.21a17.09,17.09,0,0,0,2.1-6.07c1,.19,1.49.38,1.49.62s-.22.24-.64.3c-.21.72-.42,1.39-.64,2h3v-3.54c1,0,1.57.13,1.57.37s-.26.29-.7.43v2.74h2.88l.74-1a6.91,6.91,0,0,1,1,1l-.16.3Z" transform="translate(0 -0.13)"/><path class="cls-5" d="M253.72,162.46a2.18,2.18,0,0,1-1.44,3.23,3.77,3.77,0,0,1-2.16-.21,4.29,4.29,0,0,1-1.86-1.36c-.1-.13-.1-.29,0-.32a.3.3,0,0,1,.35.1,3.84,3.84,0,0,0,1.81,1.07,2.47,2.47,0,0,0,2.24-.34,1.46,1.46,0,0,0,.1-2.06,2.88,2.88,0,0,0-2.66-.62,8.33,8.33,0,0,0-2.51,1.09l-1,.54c.24.62.54,1.39.72,1.79s.77,1.7,1,2.34a4.81,4.81,0,0,1,.34,1.86c0,.61-.27,1-.61,1s-.5-.42-.46-.9a4.87,4.87,0,0,0-.13-1.5c-.21-.83-.53-1.58-.82-2.5-.19-.66-.4-1.25-.61-1.78-.48.27-.93.51-1.2.64a2.46,2.46,0,0,1-1.26.43,1.24,1.24,0,0,1-.8-.32c-.18-.16-.32-.38-.24-.54s.43-.22.8-.19a2.66,2.66,0,0,0,1.22-.26l1.15-.54c-.24-.54-.48-1-.62-1.41a2.25,2.25,0,0,1,0-1.38,1.19,1.19,0,0,1,.85-.75,2.76,2.76,0,0,1,1.3.06,4,4,0,0,1,.88.35c.16.08.32.18.42.08a1.08,1.08,0,0,0,0-.46c0-.18,0-.4.16-.42s.27.11.42.26a6.87,6.87,0,0,1,.46.51,1,1,0,0,1,.24.66c0,.24,0,.48-.19.59a.87.87,0,0,1-.78-.06,4.52,4.52,0,0,1-.72-.58A2.67,2.67,0,0,0,247,160a1.05,1.05,0,0,0-1.1.27,1.6,1.6,0,0,0-.1,1.28,10.45,10.45,0,0,0,.51,1.33l.62-.29c.74-.32,1.78-.8,2.59-1.06a4.36,4.36,0,0,1,2.4-.21A2.66,2.66,0,0,1,253.72,162.46Z" transform="translate(0 -0.13)"/><path class="cls-5" d="M260.89,165.25a11.11,11.11,0,0,1-3,1.6l-.21-.3a9.46,9.46,0,0,0,4.24-3.55H258.2l-.16-.35h5.79v-1h-4.48l-.14-.37h4.63v-.88h-5.28l-.16-.37h6.82a13.19,13.19,0,0,0,.88-1.92c.86.22,1.3.42,1.3.62s-.21.19-.64.22a10.47,10.47,0,0,1-1,1.07h2.82l.7-.85a11.51,11.51,0,0,1,1,.94l-.14.27h-5.47v.88h3.15l.62-.7a6.47,6.47,0,0,1,.91.83l-.19.24h-4.5v1h4.26l.67-.85a8,8,0,0,1,1,.94l-.13.26h-4a10.59,10.59,0,0,0,4.58,2.58,2.13,2.13,0,0,0-.67.75,9.9,9.9,0,0,1-2.45-1.33l-.16.13v2.82h-.78v-.24h-2.69a8.27,8.27,0,0,0,2.1,1.46,11.83,11.83,0,0,0,2.15-1.89c.66.38,1,.66,1,.82s-.1.14-.32.14a2,2,0,0,1-.34,0,12.87,12.87,0,0,1-2,1.15,13.75,13.75,0,0,0,3.87.8,2.54,2.54,0,0,0-.64.86,11.22,11.22,0,0,1-4.55-1.65,9.5,9.5,0,0,1-1.76-1.66h-2v2.11c1.25-.14,2.32-.32,3.2-.5l0,.38a45.24,45.24,0,0,1-5.27,1.12q-.07.48-.29.48c-.21,0-.42-.43-.62-1.25.29,0,1,0,2.13-.16Zm.37-7.15c1.26.3,1.9.74,1.9,1.3,0,.35-.14.53-.45.53s-.37-.14-.48-.42a2.37,2.37,0,0,0-1.1-1.12Zm2.58,6.53v-1.23c.85,0,1.28.13,1.28.32s-.16.22-.48.34v.58H267l.21-.22s-.06-.06-.11-.1a9.77,9.77,0,0,1-1.17-1.31h-2.95a7.32,7.32,0,0,1-1.3,1.57l.06,0,0,0Zm-2.15.35v1h5.22v-1Zm0,1.31v1h5.22v-1Z" transform="translate(0 -0.13)"/><path class="cls-5" d="M284.76,163.31l.78-1a10.43,10.43,0,0,1,1,1.1l-.14.29h-5.15a23.18,23.18,0,0,1-2.14,2v1.68a18.08,18.08,0,0,0,4.51-2.35q.91.67.91,1t-.24.14a1.52,1.52,0,0,1-.45-.08,25,25,0,0,1-4.64,1.71h-.1v1.52c0,.3.1.48.27.53a11.65,11.65,0,0,0,2.16.11,16.77,16.77,0,0,0,2.21-.11.75.75,0,0,0,.62-.61,12.35,12.35,0,0,0,.26-1.87l.38.14a8.77,8.77,0,0,0,.14,1.86.49.49,0,0,0,.53.3.84.84,0,0,1-.72.91,18,18,0,0,1-3.11.18,10.31,10.31,0,0,1-3.22-.26,1,1,0,0,1-.37-.9v-3.23a23.25,23.25,0,0,1-4.23,2.45l-.21-.34a23.79,23.79,0,0,0,4.43-3v-.85a6,6,0,0,1,.64.3c.61-.58,1-1,1.18-1.15h-5.89l-.14-.35h4.63V161h-3.36l-.13-.35h3.57v-2.42c1,0,1.44.13,1.44.35s-.19.27-.59.43v1.63h1.66l.69-.88a5.89,5.89,0,0,1,.75.82c.34-.46.74-1.1,1.23-1.92.77.4,1.15.69,1.15.88s-.14.18-.42.18a1.77,1.77,0,0,1-.3,0,33.38,33.38,0,0,1-2.79,3.6Zm-4.31.08c.82-.91,1.47-1.71,2-2.38h-2.88v2.38Z" transform="translate(0 -0.13)"/><path class="cls-5" d="M292,169.15h3.84V158.73c1,0,1.46.14,1.46.34s-.19.27-.61.43v9.65h3.94v-7.89c1,.08,1.42.21,1.42.4s-.18.27-.58.4v8.76h-.85V169.5H292v1.44h-.83v-9.59c.94,0,1.42.16,1.42.37s-.19.26-.59.4Z" transform="translate(0 -0.13)"/><path class="cls-5" d="M311.67,163.17v-1.31a1.52,1.52,0,0,0,.32,0l.21,0a6,6,0,0,0,1.89-1.92h-4.58v.38c.1,0,.14,0,.22,0,1.23.22,1.86.59,1.86,1.14,0,.29-.14.43-.45.43a.52.52,0,0,1-.42-.29,2.68,2.68,0,0,0-1.22-1v2.1h-.75v-2a9.79,9.79,0,0,1-2.82,2.24l-.21-.27a9.24,9.24,0,0,0,2.64-2.71h-2.21l-.16-.35h2.75v-1.5c.86,0,1.31.13,1.31.34s-.18.22-.56.35v.82h1.33l.64-.83a5.51,5.51,0,0,1,.74.83h2.37v-1.5q1.3.07,1.3.38c0,.1-.18.21-.53.34v.78h1.73l.66-.85a12.7,12.7,0,0,1,.91.93l-.16.27h-2.93a7.92,7.92,0,0,0,3.11,1.73,2.1,2.1,0,0,0-.51.75,6.78,6.78,0,0,1-2.8-2.21v2.51h-.77v-2.18a6.53,6.53,0,0,1-1.87,1.41c.16,0,.22.11.22.18s-.16.22-.5.35v.66h4.15l.64-.7.16.11a.77.77,0,0,0,.16.13c.13.11.34.27.62.54l-.14.29h-3.75v1.12h2.1l.48-.53c.53.35.78.58.78.71a.22.22,0,0,1-.13.18l-.29.19V167h-.77v-.43h-8.71a7,7,0,0,1-1.86,4.61l-.29-.19a8.37,8.37,0,0,0,1.33-5v-3.23c.4.16.72.3.94.42Zm-2,5.36v1.3c1-.1,2-.21,3-.35l.06.34a41.81,41.81,0,0,1-4.77.91c-.06.29-.14.45-.27.45s-.37-.4-.53-1.22l1.68-.08v-3c.88,0,1.31.16,1.31.35s-.16.21-.53.35v.59h1.58l.59-.72a7.89,7.89,0,0,1,.82.85l-.16.24Zm-1.94-5v1.12h2.5v-1.12Zm0,1.47v1.18h2.5V165Zm3.25-1.47v1.12h2.53v-1.12Zm2.53,1.47H311v1.18h2.53Zm.42,3.55a10.69,10.69,0,0,0,3.2-1.23c.62.3.93.53.93.67s-.1.16-.34.14l-.35,0a18.82,18.82,0,0,1-3.44.8v.69c0,.27.18.43.54.43l1.74,0a2.2,2.2,0,0,0,1.23-.18c.22-.16.37-.61.42-1.34l.35.13a3,3,0,0,0,.11,1.09.38.38,0,0,0,.35.16.7.7,0,0,1-.61.75,17.84,17.84,0,0,1-2.58.11,6.63,6.63,0,0,1-2-.18c-.24-.1-.35-.37-.35-.83v-2.95c.9,0,1.33.14,1.33.32s-.18.22-.54.35Zm.34-3.55v1.18h2.18V165Z" transform="translate(0 -0.13)"/><path class="cls-5" d="M325.14,159l.53-.69c.53.45.8.74.8.86a.19.19,0,0,1-.13.18l-.3.21v10.28c0,.74-.43,1.1-1.3,1.09a.68.68,0,0,0-.46-.62,6.23,6.23,0,0,0-.94-.22v-.37a12.19,12.19,0,0,0,1.28.1,1.34,1.34,0,0,0,.56-.08.46.46,0,0,0,.08-.3v-3.65h-1.84l0,.11a10,10,0,0,1-1.52,5.17l-.3-.21a15.4,15.4,0,0,0,1.07-6.48V158.6c.29.11.61.27.93.43Zm.11,6.4v-3h-1.81v1.89c0,.46,0,.82,0,1.07Zm-1.81-6v2.72h1.81v-2.72Zm3.06,3.84-.19-.29a9.59,9.59,0,0,0,3.35-3.25h-2.8l-.16-.35H333l.69-.9a9.57,9.57,0,0,1,1,1l-.16.27h-3.12a15.77,15.77,0,0,0,.75,4.24,12.16,12.16,0,0,0,1.17-2.58c.74.46,1.09.8,1.09,1s-.1.16-.3.16a1.41,1.41,0,0,1-.26,0,12.09,12.09,0,0,1-1.55,1.86,14.86,14.86,0,0,0,2.56,4.23,2.89,2.89,0,0,0-.69.91,16.05,16.05,0,0,1-2.9-6.76,21.38,21.38,0,0,1-.3-3h-.38a9.93,9.93,0,0,1-1.36,1.68,11.22,11.22,0,0,1,2.34,6.48,3.89,3.89,0,0,1-.64,2.63,1.71,1.71,0,0,1-1.34.53.73.73,0,0,0-.43-.64,6.45,6.45,0,0,0-1.3-.37v-.38a10.13,10.13,0,0,0,1.84.18.78.78,0,0,0,.82-.51,5.79,5.79,0,0,0,.22-1.92,7.76,7.76,0,0,0-.14-1.5,11.93,11.93,0,0,1-4.07,3.41l-.22-.3a12.75,12.75,0,0,0,4-4.11l0,0c-.16-.5-.32-.91-.46-1.26a11.43,11.43,0,0,1-3.38,2.72l-.19-.32a10.6,10.6,0,0,0,3.19-3.23c-.16-.32-.34-.67-.56-1.06A10.19,10.19,0,0,1,326.5,163.23Z" transform="translate(0 -0.13)"/><path class="cls-5" d="M339.24,167.33a1.2,1.2,0,0,1,.16-.91c.16-.29.3-.59.51-1s.64-1.65.86-2.26c.11-.26.21-.58.32-.9a.88.88,0,0,0-.21,0,2.46,2.46,0,0,1-.93-.37c-.24-.16-.38-.35-.3-.46s.34,0,.46.06a3.12,3.12,0,0,0,.7.21,1.92,1.92,0,0,0,.48,0c.06-.21.14-.37.19-.5a2.48,2.48,0,0,0,.3-.93,1.4,1.4,0,0,0-.19-.79c-.11-.19-.1-.3,0-.4s.45,0,.59.11a1.21,1.21,0,0,1,.43.59,1.11,1.11,0,0,1,0,.46l.27.1c.22.08.56.22.9.32a1.38,1.38,0,0,1,.66.32.37.37,0,0,1,0,.5,1.82,1.82,0,0,1-.9.43,7.88,7.88,0,0,1-1.65.29h0a.12.12,0,0,1,0,.08c-.08.21-.48,1.25-.67,1.73s-.61,1.55-.77,2a6.24,6.24,0,0,0-.22,1.58c0,.29-.27.34-.5.22A1,1,0,0,1,339.24,167.33Zm3-5.75a4.91,4.91,0,0,0,.82-.27c.24-.1.35-.22.34-.27s-.18-.14-.3-.22l-.45-.24a4.3,4.3,0,0,1-.14.43A5.34,5.34,0,0,1,342.23,161.58Zm3.86,5.59a7.51,7.51,0,0,0-.14-.77c-.08-.45-.21-1.06-.29-1.47a1.59,1.59,0,0,1,.11-1.06c.11-.22.32-.4.42-.34s0,.22,0,.51a2.92,2.92,0,0,0,0,1.25c.1.48.27,1.2.42,1.75,0,.08,0,.16.08.24a4.4,4.4,0,0,1,1.23.48,1,1,0,0,1,.48.58c.08.29,0,.56-.14.61s-.38-.08-.75-.29l-.61-.35c0,.13,0,.24,0,.3a1.44,1.44,0,0,1-.69,1.33,3,3,0,0,1-2.32,0,1.45,1.45,0,0,1-.74-1.59c.1-.64.67-1.07,1.52-1.17A6.13,6.13,0,0,1,346.09,167.17Zm0,.75a3.08,3.08,0,0,0-1.46-.26c-.5,0-1,.32-1,.7a.81.81,0,0,0,.64.85,1.85,1.85,0,0,0,1.31,0c.43-.16.53-.61.56-1.17v0Zm3.31-5.15a.48.48,0,0,1-.22.61.67.67,0,0,1-.53,0,1.41,1.41,0,0,0-.51-.14,5.23,5.23,0,0,0-.74,0c-.3,0-.43-.06-.43-.13s.06-.11.19-.16a1.84,1.84,0,0,1,.66-.16c.26,0,.34-.13.21-.3a4,4,0,0,0-.74-.75,2.63,2.63,0,0,0-.74-.5c-.16-.06-.22-.18-.18-.24s.3-.1.56,0a6.26,6.26,0,0,1,1.87,1A1.79,1.79,0,0,1,349.39,162.77Z" transform="translate(0 -0.13)"/><path class="cls-5" d="M363.37,169.3c-.86.1-2.27.14-3.36.14a3.71,3.71,0,0,1-2.67-.82,1.75,1.75,0,0,1-.08-2,4.84,4.84,0,0,1,1.62-1.47,1.38,1.38,0,0,1-.69-.88,8.39,8.39,0,0,1,.08-1.86c0-.58.11-1.2.13-1.66a2,2,0,0,0-.22-1.07c-.14-.19-.29-.43-.22-.58s.46-.08.67.1a3.06,3.06,0,0,1,.67.91,1.66,1.66,0,0,1,0,1,9.92,9.92,0,0,0-.34,1.36,15.33,15.33,0,0,0-.18,1.76.94.94,0,0,0,.35.74c.94-.58,2-1.11,3-1.59.26-.14.16-.46,0-.67s0-.34.3-.3a1.37,1.37,0,0,1,.66.32c.27.22.53.87,0,1.11a31.7,31.7,0,0,0-4.58,2.32c-1,.72-1.18,1.49-.66,2.08a3.06,3.06,0,0,0,2.18.64,8.41,8.41,0,0,0,2.27-.32c.51-.18,1.44-.27,1.7.13S363.82,169.25,363.37,169.3Zm.35-7a5.27,5.27,0,0,0-.91-.74c-.14-.08-.21-.21-.14-.32s.19-.06.27,0a2.84,2.84,0,0,1,.88.18,2,2,0,0,1,.94.66.37.37,0,0,1-.22.58A1,1,0,0,1,363.72,162.3Zm1.26-.66a2.23,2.23,0,0,0-1-.67c-.14-.06-.21-.19-.14-.3s.19-.06.26-.06a2.81,2.81,0,0,1,.9.16,1.84,1.84,0,0,1,1,.59.38.38,0,0,1-.19.59A.9.9,0,0,1,365,161.64Z" transform="translate(0 -0.13)"/><path class="cls-5" d="M370,168.13a5.61,5.61,0,0,1,2.29,1.31,1.31,1.31,0,0,1,.42,1,.63.63,0,0,1-.69.72c-.26,0-.42-.19-.56-.54a5.36,5.36,0,0,0-1.62-2.21Z" transform="translate(0 -0.13)"/><path class="cls-5" d="M387.67,163.84h2.42v-1.25h-1.65l-.19-.35h3.28l.54-.72a8,8,0,0,1,.83.83l-.18.24h-1.86v1.25h1.3l.58-.72a4.9,4.9,0,0,1,.8.85l-.14.24h-1.07v6.92h-.8V169a24.83,24.83,0,0,1-3.07.82c-.08.34-.16.51-.27.51s-.38-.4-.61-1.2c.37,0,.78-.06,1.22-.11v-4.83h-1.12c0,3.15-.59,5.44-1.74,6.9l-.32-.24c.83-1.46,1.23-3.68,1.23-6.61v-3.89a9,9,0,0,1,1,.45h6.27a14.38,14.38,0,0,0,1.2-2.62c.88.3,1.3.56,1.3.75s-.22.21-.66.21a10.25,10.25,0,0,1-1.31,1.67H397l.72-.93a7.74,7.74,0,0,1,1,1l-.14.27H387.67Zm.74-5.51c1.17.5,1.74,1.07,1.74,1.73a.49.49,0,0,1-.54.54c-.22,0-.35-.13-.42-.4a2.82,2.82,0,0,0-1-1.62Zm1.18,5.87v1.22h1.94v-1.22Zm0,2.88h1.94v-1.3h-1.94Zm1.94.35h-1.94v1.5c.62-.1,1.28-.22,1.94-.35Zm-.06-9.28q1.44.82,1.44,1.78a.5.5,0,0,1-.56.58c-.26,0-.4-.21-.43-.61a2.81,2.81,0,0,0-.67-1.52Zm1.57,8.75-.32-.21a14.3,14.3,0,0,0,1.6-5.19c.88.16,1.33.35,1.33.56s-.21.21-.59.29c-.16.62-.29,1.1-.38,1.38h2.53l.61-.83a9,9,0,0,1,.85.94l-.14.26h-1.23a10.12,10.12,0,0,1-1.06,3.94,9.07,9.07,0,0,0,2.66,2.08,2.87,2.87,0,0,0-.69.77,9.58,9.58,0,0,1-2.35-2.18,7,7,0,0,1-3,2.5l-.21-.29a7.68,7.68,0,0,0,2.8-2.88,9.5,9.5,0,0,1-1.2-3A10.28,10.28,0,0,1,393,166.91Zm2.69.48a10,10,0,0,0,.69-3.28h-1.87c-.06.18-.11.29-.11.29A9.19,9.19,0,0,0,395.72,167.39Z" transform="translate(0 -0.13)"/><path class="cls-5" d="M404.71,168.19a3.11,3.11,0,0,0,.83.82,8.14,8.14,0,0,0,2.74-1.73c.66.32,1,.58,1,.72s-.14.14-.43.14h-.24a12.49,12.49,0,0,1-2.66,1.14,11.22,11.22,0,0,0,4.72.72c1.2,0,2.61,0,4.21-.18a4,4,0,0,0-.43.93h-3.19a13.82,13.82,0,0,1-4.87-.56,3.77,3.77,0,0,1-2-1.65,18.43,18.43,0,0,1-1.52,2c0,.35,0,.54-.18.54s-.46-.35-.9-1.07a11.45,11.45,0,0,0,2-1.47v-3.86H402l-.14-.37h2l.53-.66c.58.46.88.75.88.88s0,.13-.16.16l-.34.22Zm-2.11-9.46c1.5.69,2.26,1.41,2.26,2.18,0,.37-.18.56-.53.56s-.4-.18-.53-.53a4.36,4.36,0,0,0-1.44-1.94Zm8.37,5.81v-1.33c.93,0,1.38.14,1.38.32s-.18.21-.54.34v.67h1.1l.59-.83a.33.33,0,0,1,.1.11,6.91,6.91,0,0,1,.75.78l-.16.29H411.8v1.63h1.57l.66-.85.13.13.11.08a4,4,0,0,1,.61.69l-.14.3H405.4l-.16-.35h2.59v-1.63h-2l-.14-.35h2.18V163.2c.9,0,1.36.13,1.36.34s-.19.22-.54.34v.67Zm-4.19-3.76v1.09a.41.41,0,0,0,.11.34,2.94,2.94,0,0,0,1,.08c.67,0,1-.06,1.15-.19a2.06,2.06,0,0,0,.21-.75l.32.1c0,.06,0,.11,0,.19,0,.34.14.51.43.5v0a.64.64,0,0,1-.34.66,5.22,5.22,0,0,1-1.6.16,5.69,5.69,0,0,1-1.78-.16c-.18-.1-.26-.35-.26-.74v-2c.14,0,.43.18.88.37h1.7v-1.14h-2.83l-.14-.35h2.85l.48-.59c.53.4.77.64.77.74a.17.17,0,0,1-.11.18l-.26.18v1.68h-.75v-.32Zm4.19,5.75v-1.63h-2.32v1.63Zm.27-5.75v1c0,.18,0,.3.08.35s.45.11,1.07.11,1.1-.08,1.2-.24a1.88,1.88,0,0,0,.24-.74l.32.11a1.71,1.71,0,0,0,.08.61.44.44,0,0,0,.37.16.63.63,0,0,1-.43.66,5.88,5.88,0,0,1-1.7.14,4.45,4.45,0,0,1-1.76-.21.7.7,0,0,1-.22-.61v-2.08l.85.35h1.73v-1.14h-2.75l-.16-.35h2.79l.5-.59c.53.4.77.66.77.75s0,.11-.13.18l-.27.19v1.68h-.74v-.35Zm-.5,6.61c2.23.38,3.31.9,3.31,1.49q0,.48-.43.48a.66.66,0,0,1-.46-.22,6.52,6.52,0,0,0-2.61-1.44Z" transform="translate(0 -0.13)"/><path class="cls-5" d="M428.57,160.78a3,3,0,0,1-1,1.06,8.85,8.85,0,0,1-1.39.66c.19.4.38.83.5,1.09.18.43.51,1.26.66,1.6a2.91,2.91,0,0,1,.29.88.71.71,0,0,1-.32.69c-.46.32-1.14,0-1.9-.5a4.23,4.23,0,0,0-3.12-.5,1.21,1.21,0,0,0-1,1.25,2.07,2.07,0,0,0,.82,1.38,3.13,3.13,0,0,0,1.41.59,5,5,0,0,0,1.55.1,9.37,9.37,0,0,1,1.06-.11.91.91,0,0,1,.78.42c.16.27,0,.46-.53.56a10.42,10.42,0,0,1-2.32.06,4,4,0,0,1-2.3-.94,2.77,2.77,0,0,1-1-2,1.83,1.83,0,0,1,1.26-1.65,5.58,5.58,0,0,1,2-.21,11.9,11.9,0,0,1,1.39.27,4.78,4.78,0,0,0,.93.22c.22,0,.37-.16.35-.46a1.93,1.93,0,0,0-.19-.62c-.11-.22-.43-.85-.7-1.44a3.37,3.37,0,0,0-.21-.42l-.34.1a15.53,15.53,0,0,1-2.22.43,5.45,5.45,0,0,1-2-.11,3.15,3.15,0,0,1-1.12-.53c-.19-.16-.3-.35-.21-.45s.4,0,.56.14a2.42,2.42,0,0,0,1,.34,5.19,5.19,0,0,0,1.57,0c.5-.08,1-.21,1.55-.34.26-.06.53-.16.82-.26-.18-.29-.34-.53-.46-.7a6.82,6.82,0,0,0-.88-1.09c-.24-.22-.37-.53-.18-.77a.68.68,0,0,1,.82-.13,10,10,0,0,0,.91.42,8.06,8.06,0,0,0,1.52.5,6.32,6.32,0,0,0,1.33,0C428.6,160.24,428.65,160.56,428.57,160.78Zm-1.42,0c-.19,0-.62-.19-1-.32a4,4,0,0,1-.88-.37c-.21-.11-.37-.22-.46-.13s.16.35.3.54.46.82.7,1.25l.27-.11a9.43,9.43,0,0,0,1.09-.58C427.3,161,427.32,160.8,427.15,160.76Z" transform="translate(0 -0.13)"/><path class="cls-5" d="M446.44,167.55a5.6,5.6,0,0,1-1,1.14,2.48,2.48,0,0,1-1.34.69,1.51,1.51,0,0,1-1.1-.18,1.4,1.4,0,0,1-.74-.94,8.9,8.9,0,0,1,0-2.16c0-.78.06-1.5.1-2.14s.06-1.38-.16-1.6a1.22,1.22,0,0,0-1.14-.16,4.55,4.55,0,0,0-1.66.85,20.09,20.09,0,0,0-1.55,1.36v.27c0,.82.06,1.66.11,2.21s0,1,.06,1.7a3.85,3.85,0,0,1-.14,1.34.63.63,0,0,1-.5.43.34.34,0,0,1-.45-.29c0-.19-.06-.56-.18-1s-.35-1.09-.62-1.94c-.06-.18-.11-.35-.18-.51h0a5,5,0,0,0-.85,1.67c-.13.51-.26.75-.45.8s-.35,0-.53-.29-.08-.46.19-1,.69-1.07,1.1-1.68c.06-.11.14-.22.22-.35-.13-.34-.24-.62-.32-.85a9.1,9.1,0,0,0-.59-1.39c-.19-.29,0-.59.35-.9a6.55,6.55,0,0,1,1.39-.77,2.16,2.16,0,0,1,.78-.19,9.82,9.82,0,0,0-.06-1.06,1.83,1.83,0,0,0-.53-1c-.22-.24-.3-.53-.18-.62s.46-.08.8.16a2.51,2.51,0,0,1,.83,1,1.72,1.72,0,0,1,0,1.26,3.3,3.3,0,0,0-.1.42.64.64,0,0,1,.35.27.91.91,0,0,1-.06.7c-.13.19-.22.37-.19.4s.14.08.32-.1a20,20,0,0,1,2-1.41,2.66,2.66,0,0,1,1.46-.5,1.19,1.19,0,0,1,1,.5,2,2,0,0,1,.35,1.2,16.53,16.53,0,0,1-.08,2c-.11.94-.14,1.87-.16,2.66s.3,1.09.8,1.12a2.41,2.41,0,0,0,1.38-.48,9.73,9.73,0,0,0,1-.8C446.39,167.23,446.59,167.31,446.44,167.55Zm-9.19-4.77a.45.45,0,0,0-.42-.18,3.1,3.1,0,0,0-1,.3.89.89,0,0,0-.4,1.1c.16.37.34.8.54,1.33.34-.48.7-.94.88-1.17a2.46,2.46,0,0,0,.37-.58C437.24,163.31,437.25,163,437.25,162.78Zm0,5.27c0-.21,0-.51,0-1.17,0-.48,0-1.09,0-1.78a12.41,12.41,0,0,0-.9,1.06c.29.77.56,1.57.67,1.84S437.24,168.26,437.24,168Z" transform="translate(0 -0.13)"/><path class="cls-5" d="M453.19,164.64a15.9,15.9,0,0,0,.59-1.68l-.59,0a3.87,3.87,0,0,1-1.46-.19c-.3-.13-.38-.43-.29-.54s.18,0,.27,0a2.17,2.17,0,0,0,.42.16,2.13,2.13,0,0,0,.72,0,4.08,4.08,0,0,0,1.15-.21,5.73,5.73,0,0,0,.18-1.52,2.17,2.17,0,0,0-.32-1c-.13-.19-.24-.48-.06-.61s.42,0,.64.11a1.19,1.19,0,0,1,.51.79,1.44,1.44,0,0,1,0,.74,4.88,4.88,0,0,0,1,.38c.3.06.58.14.66.3s0,.32-.19.58a3.17,3.17,0,0,1-1.31.71c-.22,0-.46.1-.72.13,0,.19-.1.34-.13.46-.11.42-.48,1.46-.59,1.84s-.53,1.7-.74,2.34a24.39,24.39,0,0,1-1,2.37.4.4,0,0,1-.59.14c-.24-.14-.24-.53-.24-.78a3.84,3.84,0,0,1,.43-1.06c.18-.45.42-.94.67-1.5S453,165.09,453.19,164.64Zm1.66-3.42c0,.11,0,.22-.08.3s-.06.27-.11.48a3.82,3.82,0,0,0,.58-.3c.11,0,.08-.18,0-.26A2.69,2.69,0,0,0,454.86,161.21Zm6.53,8.21c.19.3-.14.61-.54.64a10.63,10.63,0,0,1-2.69-.08,2.25,2.25,0,0,1-2-1.28,2.32,2.32,0,0,1,.19-2,5.84,5.84,0,0,1,.61-1.15c.1-.13.19-.21.26-.16s0,.16-.06.3a6.15,6.15,0,0,0-.51,1.2,1.68,1.68,0,0,0,.06,1.46,2,2,0,0,0,1.23.75,4.8,4.8,0,0,0,1.34,0,9.36,9.36,0,0,1,1.22-.16A1,1,0,0,1,461.39,169.42Zm-2.15-6.51c0-.08-.22-.14-.37-.16a3.35,3.35,0,0,0-1.07,0,5,5,0,0,0-.74.16c-.18,0-.43.08-.48,0s.19-.32.37-.38a11,11,0,0,1,1.23-.35,3.41,3.41,0,0,1,1-.08,1.6,1.6,0,0,1,.94.24.57.57,0,0,1,.29.63.56.56,0,0,1-.37.32l-.7.3a9.08,9.08,0,0,0-1,.53,2.17,2.17,0,0,0-.66.53c-.1.11-.21.3-.27.26s0-.19,0-.32a5.39,5.39,0,0,1,.66-.82,5.86,5.86,0,0,1,.8-.59C459.11,163,459.26,163,459.24,162.91Z" transform="translate(0 -0.13)"/><path class="cls-5" d="M468.55,162.43v4.95c.69-.22,1.38-.43,2.08-.67l0,.37a41.47,41.47,0,0,1-4.1,1.78c0,.32-.13.48-.26.48s-.43-.42-.62-1.25c.94-.19,1.63-.35,2.06-.46v-5.19h-1.89l-.11-.35h2v-3.73c.94,0,1.41.16,1.41.35s-.21.26-.61.42v3h.69l.64-.94c.34.38.61.7.83,1l-.16.29Zm3.39.74v6a.5.5,0,0,0,.26.5,12.15,12.15,0,0,0,2.46.13c1.78,0,2.72-.11,2.88-.37a5.78,5.78,0,0,0,.5-2.24l.37.14c0,.64,0,1,0,1.12q0,1.18.53,1.15a.81.81,0,0,1-.64.8,20.19,20.19,0,0,1-3.52.18,9.41,9.41,0,0,1-3.27-.29c-.26-.16-.38-.54-.38-1.1v-5.79l-1.5.48-.24-.35,1.74-.56v-3.83c.93,0,1.39.11,1.39.32s-.19.26-.56.42v2.83l2-.62v-3.92q1.39,0,1.39.34c0,.11-.21.26-.59.42v2.91l1.94-.62.51-.75c.62.43.93.7.93.85a.2.2,0,0,1-.11.16l-.35.27v4.45c0,.77-.45,1.15-1.33,1.14a.64.64,0,0,0-.34-.61,3.44,3.44,0,0,0-.91-.22v-.37a8.76,8.76,0,0,0,1.23.1c.35,0,.53-.14.53-.45v-4.16l-2.1.66v5.84h-.8v-5.59Z" transform="translate(0 -0.13)"/><path class="cls-5" d="M490.15,164.06v5.36a.45.45,0,0,0,.24.46l1.17,0a10,10,0,0,0,1.3-.06.69.69,0,0,0,.4-.51,12.88,12.88,0,0,0,.29-2.19l.38.14a11.94,11.94,0,0,0,.1,2c.08.3.24.45.53.43a.78.78,0,0,1-.59.85,12.31,12.31,0,0,1-2.21.11,5.2,5.2,0,0,1-2.22-.27,1.07,1.07,0,0,1-.26-.83V164H487a9.08,9.08,0,0,1-1,4.64,6.4,6.4,0,0,1-3.79,2.45l-.21-.34a6.63,6.63,0,0,0,3-2,8.45,8.45,0,0,0,1.17-4.74h-3.67l-.16-.35h10.16l.85-1.11c.24.22.61.61,1.12,1.15l-.14.3Zm1-4.27.83-1.06a10.3,10.3,0,0,1,1.09,1.15l-.16.27h-9.35l-.14-.37Z" transform="translate(0 -0.13)"/><path class="cls-5" d="M205.83,196.11a6.16,6.16,0,0,1-.21,2.21,3.55,3.55,0,0,1-1.55,2,7.41,7.41,0,0,1-2.64,1,6.88,6.88,0,0,1-2.58,0c-.16,0-.24-.08-.22-.16s.1-.14.22-.13a7.83,7.83,0,0,0,.85,0,8,8,0,0,0,1.92-.27,7.08,7.08,0,0,0,2-.94,3.64,3.64,0,0,0,1.38-2.27,5.65,5.65,0,0,0-.21-2.64,3.34,3.34,0,0,0-1.41-2,4.52,4.52,0,0,0-2.79-.59l-.42.06c0,.32,0,.83,0,1.23a10.57,10.57,0,0,1-.24,2.19,7.09,7.09,0,0,1-1.12,2.82,2.87,2.87,0,0,1-2.1,1.34,1.77,1.77,0,0,1-1.63-1.22,3.45,3.45,0,0,1-.21-2.38,4.82,4.82,0,0,1,1.07-2.22,6.79,6.79,0,0,1,2-1.68,6.55,6.55,0,0,1,3-.7,5.05,5.05,0,0,1,2.55.67,4.69,4.69,0,0,1,1.68,1.68A4.27,4.27,0,0,1,205.83,196.11Zm-6.18-3.57a6.45,6.45,0,0,0-2,.93,5.35,5.35,0,0,0-1.9,2.35,3.81,3.81,0,0,0-.13,2.43c.22.54.77.66,1.41.45a2.84,2.84,0,0,0,1.62-1.31,6.17,6.17,0,0,0,.93-2.58A11.45,11.45,0,0,0,199.66,192.54Z" transform="translate(0 -0.13)"/><path class="cls-5" d="M219.74,198.75c.08-.08.24-.32.51-.66.64.42,1,.71,1,.9s-.11.14-.35.14l-.27,0a17.41,17.41,0,0,1-2.16,1.55,10,10,0,0,0,4.07,1.44,2.48,2.48,0,0,0-.69.88,8.72,8.72,0,0,1-6-4.53h-2.29v3.19c1.34-.19,2.54-.4,3.65-.64l0,.38a42.67,42.67,0,0,1-5.54,1.33c-.08.32-.18.5-.29.5s-.42-.43-.67-1.28l2-.19v-7a17.92,17.92,0,0,1-2.69,1.46l-.21-.3a14,14,0,0,0,6.18-5.81c.82.19,1.22.37,1.22.56s-.21.19-.61.26a15.52,15.52,0,0,0,6.16,3.63,2.2,2.2,0,0,0-.64.83,15.65,15.65,0,0,1-5.78-4.13,13.27,13.27,0,0,1-3,3l.3.16h2.06v-1.75c.91,0,1.36.16,1.36.38s-.19.22-.58.35v1h2.35l.4-.35c.54.32.8.54.8.66s0,.1-.11.16l-.22.21Zm-.78-2.58v-1.39h-5.41v1.39Zm0,1.94v-1.57h-5.41v1.57Zm0,.8v-.45h-2.62a7.1,7.1,0,0,0,1.78,2,13.47,13.47,0,0,0,1.5-1.52Z" transform="translate(0 -0.13)"/><path class="cls-5" d="M228.21,196.27A16.7,16.7,0,0,1,226,200.5l-.29-.24a20.71,20.71,0,0,0,2.45-6.28H226l-.11-.35h2.29v-3.41c.94,0,1.41.14,1.41.37s-.18.26-.58.42v2.63h.77l.67-1c.29.32.58.67.86,1l-.16.29H229v1.55a5.63,5.63,0,0,1,1.38,1.07,2.24,2.24,0,0,1,.77,1.38c0,.32-.14.5-.45.5s-.38-.19-.5-.54A5.25,5.25,0,0,0,229,196v7.11h-.83Zm7.31-.75a15.63,15.63,0,0,1-5,5.47l-.26-.29a16.68,16.68,0,0,0,5.06-6.72H231.9l-.13-.35h3.71V190.3c1,0,1.46.18,1.46.37s-.21.26-.62.4v2.56h1l.7-1a11.67,11.67,0,0,1,.86,1l-.14.29h-2.34v7.81c0,.8-.5,1.22-1.47,1.2,0-.29-.16-.51-.51-.64a9.89,9.89,0,0,0-1.52-.32v-.38c1,.08,1.71.13,2.18.13s.5-.14.5-.45Z" transform="translate(0 -0.13)"/><path class="cls-5" d="M252.78,195.79a3.76,3.76,0,0,1-1.18.9c-.46.24-1.25.5-1.86.75l-.51.22c0,.18,0,.37.06.56a2.48,2.48,0,0,1-.19,1.39.86.86,0,0,1-.66.53c-.34,0-.46-.22-.37-.54a6.26,6.26,0,0,0,.24-1.47V198a6.5,6.5,0,0,0-.75.35,3.47,3.47,0,0,0-1.28,1,1.29,1.29,0,0,0-.18,1.42,2,2,0,0,0,1.57.7,10.87,10.87,0,0,0,1.5-.16,9.28,9.28,0,0,1,1.07-.21,1.26,1.26,0,0,1,1,.26c.26.19.26.46,0,.58a2.49,2.49,0,0,1-.86.18,16.5,16.5,0,0,1-2.3.14,4.67,4.67,0,0,1-2.15-.59,1.5,1.5,0,0,1-.69-1.44,2,2,0,0,1,.69-1.39,7,7,0,0,1,1.5-1.07c.27-.14.58-.3.88-.45a1.09,1.09,0,0,0-.21-.64,1.5,1.5,0,0,0-1-.58,1.79,1.79,0,0,0-1,.16,1.64,1.64,0,0,0-.29.16c-.21.27-.42.51-.61.78a1.65,1.65,0,0,1-1.17.83c-.35,0-.38-.22-.38-.51a.88.88,0,0,1,.34-.7,7.89,7.89,0,0,0,.82-.46,6.6,6.6,0,0,0,1.66-2,6.42,6.42,0,0,0,.5-1l-.38,0a2.23,2.23,0,0,1-1.33-.21.79.79,0,0,1-.3-.91c.19-.26.46-.08.82,0a2.36,2.36,0,0,0,1.26,0l.24,0a.73.73,0,0,0-.21-.77.46.46,0,0,1-.1-.58.65.65,0,0,1,.83.22c.22,0,.5.1.59.11a1.63,1.63,0,0,1,.59.19c.14.11.06.26-.06.51a2.65,2.65,0,0,1-.85.93,1.19,1.19,0,0,1-.29.14,4.67,4.67,0,0,1-.38.91,17.1,17.1,0,0,1-1,1.68,2.14,2.14,0,0,1-.16.24l.37-.14a1.8,1.8,0,0,1,1.09-.1,1.25,1.25,0,0,1,.85.48,1.63,1.63,0,0,1,.21-.26,4.31,4.31,0,0,1,1.71-1.44,2.32,2.32,0,0,1,2.19,0A.93.93,0,0,1,252.78,195.79ZM248,192l.21-.11c.24-.13.32-.29.27-.34s-.16-.11-.38-.14l-.18,0a1.11,1.11,0,0,1,.08.4A.52.52,0,0,1,248,192Zm4.15,2.79c-.1-.18-.43-.32-1-.19a2.89,2.89,0,0,0-1.34.77,3.61,3.61,0,0,0-.86,1.33c0,.1.1.21.13.29a4.33,4.33,0,0,0,.42-.19,23.06,23.06,0,0,0,2.1-1C252.22,195.47,252.22,195,252.11,194.83Z" transform="translate(0 -0.13)"/><path class="cls-5" d="M263.7,193.64v-3.27c1,0,1.52.18,1.52.38s-.21.27-.64.43v2.45h3.91l.59-.74c.61.5.93.83.93,1s0,.13-.13.18l-.4.24v5h-.86v-1h-4v4.8h-.88v-4.8h-3.87v1.18H259v-6.35a8.06,8.06,0,0,1,1,.5Zm-3.87.35v4h3.87v-4Zm8.79,4v-4h-4v4Z" transform="translate(0 -0.13)"/><path class="cls-5" d="M276.29,195.31v.35a8.87,8.87,0,0,1-.77,4c-.37.72-.77,1.07-1.18,1.07s-.51-.16-.51-.48.14-.42.45-.69c.86-.79,1.41-2.24,1.65-4.39Zm1.82-4.67a11.67,11.67,0,0,1,2.9,1.49c.67.5,1,1,1,1.41a.46.46,0,0,1-.51.51c-.14,0-.35-.14-.58-.48a8.63,8.63,0,0,0-3-2.64Zm5.51,8.18v1a4.48,4.48,0,0,0,.14,1.44.4.4,0,0,0,.42.24.81.81,0,0,1-.61.85,13,13,0,0,1-2.55.13,7.22,7.22,0,0,1-2.74-.26,1,1,0,0,1-.3-.88v-7.67c1,0,1.5.16,1.5.4s-.21.26-.62.38v6.64c0,.29.06.46.22.51a7.06,7.06,0,0,0,1.7.11,7.51,7.51,0,0,0,1.74-.11c.32-.16.56-1.14.7-2.91Zm-.21-3.94a12.6,12.6,0,0,1,2.56,2.75,3.37,3.37,0,0,1,.72,1.7c0,.45-.19.67-.56.67s-.43-.24-.56-.69a10.87,10.87,0,0,0-2.4-4.16Z" transform="translate(0 -0.13)"/><path class="cls-5" d="M291.21,197.23a19.25,19.25,0,0,1,.38-2.16c.18-.85.32-1.23.42-1.75a2.06,2.06,0,0,0-.13-1.25c-.14-.19-.26-.45-.13-.56s.5,0,.72.27a1.88,1.88,0,0,1,.43,1,3.08,3.08,0,0,1-.24,1.2c-.11.3-.35.93-.48,1.36a9.87,9.87,0,0,0-.32,1.36,8.78,8.78,0,0,0-.13,1.14c0,.27,0,.46.06.46s.13-.16.19-.3a5.79,5.79,0,0,1,.51-.86c.11-.14.21-.22.3-.18s.06.19,0,.32a3.75,3.75,0,0,0-.35,1.57,5.12,5.12,0,0,0,.32,1.79c.13.42.11,1-.14,1.07s-.59-.11-.82-.43a3.43,3.43,0,0,1-.54-1.65A9.53,9.53,0,0,1,291.21,197.23Zm5.07,2a3.39,3.39,0,0,0,.9.48,4.58,4.58,0,0,0,1.73.13c.7,0,1.34-.27,1.68-.27s.72.06.83.38-.3.56-.86.7a6.61,6.61,0,0,1-1.87.11,5.47,5.47,0,0,1-1.7-.43,3.68,3.68,0,0,1-1.09-.83c-.21-.24-.27-.5-.14-.56S296.1,199.15,296.28,199.28Zm0-6.23c-.22-.1-.42-.22-.35-.37s.27-.11.62,0a4.14,4.14,0,0,0,1.3.1,5.22,5.22,0,0,0,1.39-.3c.37-.13.75-.11.86.1s-.06.54-.53.7a4.51,4.51,0,0,1-1.76.16A5.28,5.28,0,0,1,296.28,193.05Z" transform="translate(0 -0.13)"/><path class="cls-5" d="M309,199.34a4,4,0,0,0,1.5.72,8.66,8.66,0,0,0,2.66.32A7.91,7.91,0,0,0,315,200a1.24,1.24,0,0,1,.9,0,.91.91,0,0,1,.5.48c0,.16-.08.35-.7.54a9,9,0,0,1-2.72.26,10.06,10.06,0,0,1-2.71-.45,4,4,0,0,1-1.57-.8,1.88,1.88,0,0,1-.43-1c0-.29,0-.46.13-.48s.22.18.26.32A1.31,1.31,0,0,0,309,199.34Zm4-6.15a12.35,12.35,0,0,1-1.25-.14c-.56-.1-1.14-.18-1.46-.27s-.46-.35-.38-.45.34-.1.51,0a3.39,3.39,0,0,0,.9.11,8,8,0,0,0,1.25-.13c.48-.1,1.12-.3,1.52-.35s.51.06.58.35-.18.38-.45.53a6.07,6.07,0,0,0-.51.35c-.21.14-.5.37-.69.5s-.3.14-.37.1,0-.18,0-.26A3.47,3.47,0,0,0,313,193.2Zm3.36-.22a6.2,6.2,0,0,0-.93-.75c-.13-.08-.19-.19-.13-.29s.19-.08.26-.08a2.89,2.89,0,0,1,.88.21,2,2,0,0,1,1,.64.38.38,0,0,1-.22.58A.94.94,0,0,1,316.36,193Zm1.26-.66a2.32,2.32,0,0,0-1-.67.21.21,0,0,1-.14-.29c0-.08.18-.08.26-.08a3.45,3.45,0,0,1,.9.14,2,2,0,0,1,1,.61.38.38,0,0,1-.21.59A.91.91,0,0,1,317.63,192.32Z" transform="translate(0 -0.13)"/><path class="cls-5" d="M324.61,193.69v2.66l.13-.06c.5-.22,1.06-.56,1.71-.94l.11.37c-.59.43-1.18.85-1.76,1.22l-.19.13V202q0,1.1-1.3,1.1a.7.7,0,0,0-.43-.62c-.14,0-.46-.14-.93-.26v-.35a10.52,10.52,0,0,0,1.36.11c.3,0,.46-.14.46-.43v-4l-.62.37-.45.26c0,.4-.11.61-.26.61s-.43-.38-.72-1.15c.77-.3,1.41-.61,2-.83l.1,0v-3.06h-1.86l-.13-.35h2V190.2c1,0,1.44.14,1.44.35s-.19.26-.61.38v2.4h.7l.69-1a9.84,9.84,0,0,1,.86,1.07l-.16.27Zm6.07,8.08a10.22,10.22,0,0,0,2.08.21,19.2,19.2,0,0,0,2.22-.14,2.9,2.9,0,0,0-.46,1h-1.46a7.53,7.53,0,0,1-3.52-.67,4.81,4.81,0,0,1-1.87-2.11,7,7,0,0,1-2.16,3.12l-.27-.27a9.7,9.7,0,0,0,2.11-5.22c.85.22,1.26.43,1.26.61s-.19.21-.56.29c0,.19-.11.48-.21.88a4.23,4.23,0,0,0,2,2.08v-4.66h-3.68l-.16-.35h7l.77-1a9,9,0,0,1,.93,1l-.16.3h-3.89V199h1.84l.74-.93c.32.34.62.66.91,1l-.18.3h-3.31Zm1.54-10.66.56-.66q.86.65.86.87a.22.22,0,0,1-.1.16l-.38.26v3.92h-.8v-.53h-4v.66h-.83v-5.15l1,.48Zm-3.87.37v1.39h4v-1.39Zm4,3.3v-1.55h-4v1.55Z" transform="translate(0 -0.13)"/><path class="cls-5" d="M341,194.78c0,.11-.21.24-.61.37v8h-.85v-7.35a17.39,17.39,0,0,1-1.68,2.64l-.3-.22a24.89,24.89,0,0,0,3.17-8c.88.19,1.33.4,1.33.63s-.22.24-.67.3a20.14,20.14,0,0,1-1.17,3.26C340.69,194.51,341,194.62,341,194.78Zm2.54,3.12v-3.84h-2l-.16-.37h2.21v-3.22c1,0,1.42.16,1.42.37s-.18.26-.58.4v2.45h2.42v-3.31c1,.08,1.46.22,1.46.45s-.21.26-.62.38v2.48h1.07l.69-.95a5.85,5.85,0,0,1,.93,1l-.16.3h-2.53v3.84H349l.75-1a7.92,7.92,0,0,1,.94,1.07l-.16.29h-9.7l-.14-.37Zm-2.62,4.74a9.77,9.77,0,0,0,2.9-3.79c.83.38,1.25.67,1.25.85s-.24.18-.69.18a9.24,9.24,0,0,1-3.22,3.07Zm3.47-4.74h2.42v-3.84h-2.42Zm2.29,1c2.42,1.33,3.62,2.43,3.62,3.3,0,.4-.16.58-.51.58-.16,0-.35-.16-.53-.5a10.8,10.8,0,0,0-2.8-3.11Z" transform="translate(0 -0.13)"/><path class="cls-5" d="M356.82,194.22c0-.53.16-1.49.16-1.81a1.94,1.94,0,0,0-.27-.8.34.34,0,0,1,0-.42c.1-.1.29,0,.45.06a1.94,1.94,0,0,1,.62.51c.24.29.13.71,0,1.11s-.27,1.17-.35,1.58-.27,1.89-.32,2.45a10,10,0,0,0-.06,2.22,2.73,2.73,0,0,0,.85,1.63,2.53,2.53,0,0,0,1.7.54,3.7,3.7,0,0,0,1.41-.34c.34-.18,1-.54,1.46-.8s1-.69,1.26-.88.62-.54.7-.61a.22.22,0,0,1,.27-.08.18.18,0,0,1,0,.26,5.24,5.24,0,0,1-.64.67c-.34.29-1,.91-1.86,1.52a5.22,5.22,0,0,1-2.5,1,3.35,3.35,0,0,1-2.15-.56,3,3,0,0,1-1.17-1.81,9.66,9.66,0,0,1,0-2.27C356.52,196.83,356.77,194.72,356.82,194.22Z" transform="translate(0 -0.13)"/><path class="cls-5" d="M380.71,201.68c-.27.22-.74-.08-1.07-.26a12.73,12.73,0,0,0-1.6-.72c-.29-.11-.58-.21-.85-.29a1.77,1.77,0,0,1-.18,1.09,1.55,1.55,0,0,1-1,.72,5.22,5.22,0,0,1-1.46.1,3.67,3.67,0,0,1-1.52-.45,1.57,1.57,0,0,1-.78-1.07,1.12,1.12,0,0,1,.5-1.07,3.57,3.57,0,0,1,1.76-.51,11.17,11.17,0,0,1,1.76.13,1.64,1.64,0,0,0,0-.29c0-.5-.06-1.22-.06-1.7,0-.08,0-.16,0-.26a.87.87,0,0,1-.21,0,9.55,9.55,0,0,1-1.63-.16,6.43,6.43,0,0,1-1.42-.53c-.19-.1-.3-.32-.18-.45s.24-.08.43,0,.32.1.74.21a8.65,8.65,0,0,0,1.84.16h.4c0-.35,0-.69,0-.91s0-.58,0-.93a11.38,11.38,0,0,1-1.25.19,3.56,3.56,0,0,1-1.44-.26,6.21,6.21,0,0,1-1-.48c-.26-.16-.43-.43-.32-.56s.35,0,.56.1a5.12,5.12,0,0,0,.85.3,4.74,4.74,0,0,0,1.41.1c.35,0,.83-.1,1.25-.18,0,0,0-.06,0-.1,0-.51,0-1-.08-1.38a1.28,1.28,0,0,0-.38-.87c-.19-.19-.29-.42-.18-.58s.38-.14.72,0a2,2,0,0,1,.8.88,3.15,3.15,0,0,1,0,1.39c0,.13,0,.29,0,.46a13.56,13.56,0,0,0,1.33-.4,6.18,6.18,0,0,1,1.18-.42,1,1,0,0,1,.88.29c.24.22,0,.45-.22.56a14.66,14.66,0,0,1-1.57.38l-1.66.37c0,.16,0,.32,0,.48,0,.46,0,1-.06,1.46l.59,0a5.25,5.25,0,0,0,1-.21c.26-.08.21-.22,0-.34l-.54-.32a1.18,1.18,0,0,1-.45-.45c-.08-.14,0-.29.24-.14a3.44,3.44,0,0,0,1,.51,4.57,4.57,0,0,0,1,.24c.24,0,.43.14.42.37s-.34.42-.66.58a7.36,7.36,0,0,1-1.58.45l-1.09.14c0,.43,0,.93,0,1.26s.1.79.16,1.15c.48.11,1,.26,1.46.4a10.44,10.44,0,0,1,1.74.69C380.81,200.85,381,201.46,380.71,201.68Zm-4.42-1.54a.47.47,0,0,1-.14,0,8.27,8.27,0,0,0-1.36-.16,5.65,5.65,0,0,0-1,0,.82.82,0,0,0-.75.56.73.73,0,0,0,.43.8,2.52,2.52,0,0,0,1.2.24,2.19,2.19,0,0,0,1.22-.37,1,1,0,0,0,.43-.83C376.28,200.32,376.3,200.24,376.3,200.14Z" transform="translate(0 -0.13)"/><path class="cls-5" d="M398.15,194.17c-.13.14-.45.1-.66,0a9,9,0,0,0-1.39-.24,18.58,18.58,0,0,0-1.89-.08c-.29,0-.59,0-.88,0,0,.35,0,.87,0,1.26s.06.66.1,1.07a2.49,2.49,0,0,1,.21.75,4.06,4.06,0,0,1,0,1.58c0,.21-.13.72-.24,1.38a4.34,4.34,0,0,1-1,1.89,2.46,2.46,0,0,1-1.38.77c-.26,0-.43,0-.45-.08s.21-.18.37-.24a3.2,3.2,0,0,0,1.18-.85,3.11,3.11,0,0,0,.64-1.38c0-.29,0-.7,0-1.1a1.32,1.32,0,0,1-.53.45c-.56.18-1.06-.18-1.44-.77a3,3,0,0,1-.48-1.9c0-.77.29-1.2.66-1.36a2,2,0,0,1,1.42,0l.26.14c0-.46,0-.93,0-1.34v-.21l-1,.08c-.66,0-1.31.22-1.89.32a17.07,17.07,0,0,1-2,.34,1.26,1.26,0,0,1-1.14-.4c-.24-.26-.24-.53-.1-.66a.46.46,0,0,1,.53,0,3.48,3.48,0,0,0,1.1.24,3.65,3.65,0,0,0,1.3-.08c.37,0,.94-.16,1.47-.22s1.22-.19,1.73-.27c0-.3-.06-.59-.1-.8a4.86,4.86,0,0,0-.37-1.15c-.14-.32-.18-.58,0-.67s.46,0,.82.22a.91.91,0,0,1,.35.43l.1.06.69.56a11.28,11.28,0,0,0,1.33.79,6.88,6.88,0,0,0,1.15.48c.29.08.78.19,1.22.34S398.27,194,398.15,194.17Zm-5.52,3.06c0-.16,0-.34-.08-.54a1.14,1.14,0,0,0-1.18-.88.76.76,0,0,0-.7.78A3.26,3.26,0,0,0,391,198a1.18,1.18,0,0,0,.93.58c.24,0,.45-.18.61-.58A2.26,2.26,0,0,0,392.63,197.23Zm2.16-4.15c-.26-.18-.66-.51-.83-.66l-.54-.43c0,.32,0,.85,0,1.18A6.82,6.82,0,0,1,394.79,193.08Z" transform="translate(0 -0.13)"/><path class="cls-5" d="M404.41,199.89a1.66,1.66,0,0,1,.88,1.54,1.77,1.77,0,0,1-.51,1.23,1.67,1.67,0,0,1-1.3.56,1.56,1.56,0,0,1-.77-.19,1.68,1.68,0,0,1-1-1.6,1.84,1.84,0,0,1,1.78-1.81A1.76,1.76,0,0,1,404.41,199.89Zm-1.87.66a1.19,1.19,0,0,0-.35.88,1.38,1.38,0,0,0,.21.69,1.24,1.24,0,0,0,1.09.61,1.27,1.27,0,0,0,.85-.32,1.3,1.3,0,0,0,.45-1,1.23,1.23,0,0,0-.54-1.06,1.27,1.27,0,0,0-.75-.24A1.26,1.26,0,0,0,402.53,200.54Z" transform="translate(0 -0.13)"/><path class="cls-4" d="M196.28,314.36h4.13a10.21,10.21,0,0,0-1.7,3,15.75,15.75,0,0,0,0,9.32,10.21,10.21,0,0,0,1.7,3h-4.13Z" transform="translate(0 -0.13)"/><path class="cls-4" d="M203.3,319.68a11.49,11.49,0,0,0,1.87.1h8.21a2.68,2.68,0,0,0,1-.11l.59.69a4.62,4.62,0,0,0-.45,1c-1.36,3.73-3.57,5.78-7.72,7.17a3.49,3.49,0,0,0-.69-1.1,11,11,0,0,0,4.75-2.43,9.86,9.86,0,0,0,2.59-4.19h-8.36a14.65,14.65,0,0,0-1.86.08Zm1.38-3.71a7.36,7.36,0,0,0,1.68.11h5.35a7.36,7.36,0,0,0,1.68-.11v1.23a10.73,10.73,0,0,0-1.66-.08h-5.38a10.73,10.73,0,0,0-1.66.08Z" transform="translate(0 -0.13)"/><path class="cls-4" d="M219.35,326.69a13.94,13.94,0,0,0,4.66-1.23,12.1,12.1,0,0,0,6.53-7.12,3.2,3.2,0,0,0,1,.94,14,14,0,0,1-4.88,6.11,16.11,16.11,0,0,1-6,2.38,8.59,8.59,0,0,0-1,.26Zm1-9.92a20.81,20.81,0,0,1,3.86,3l-.83,1a17.67,17.67,0,0,0-3.81-3.14Z" transform="translate(0 -0.13)"/><path class="cls-4" d="M246.14,316.46a3.47,3.47,0,0,0-.5.16,24.82,24.82,0,0,1-3.52,1c0,1.54,0,2.58,0,3.2h3.84a7.63,7.63,0,0,0,1.68-.11v1.22a12.32,12.32,0,0,0-1.68-.08H242a7.62,7.62,0,0,1-1,3.54,8.64,8.64,0,0,1-4,3.35,3,3,0,0,0-.86-1,7.49,7.49,0,0,0,3.75-2.75,6,6,0,0,0,1-3.14h-4.5a12.32,12.32,0,0,0-1.68.08V320.7a7.63,7.63,0,0,0,1.68.11h4.59c0-.7,0-1.6,0-3a30.32,30.32,0,0,1-4.74.45,4.17,4.17,0,0,0-.38-1.07c.45,0,.69,0,.93,0a25.71,25.71,0,0,0,6.72-1,6.69,6.69,0,0,0,1.82-.77Z" transform="translate(0 -0.13)"/><path class="cls-4" d="M257.14,315.23a5.33,5.33,0,0,0-.56,1.06,8.1,8.1,0,0,1-.5.88c.22,0,.22,0,4.95-.08a2.8,2.8,0,0,0,.93-.16l.72.72a3.58,3.58,0,0,0-.46,1.06,18.21,18.21,0,0,1-4.18,6.88,17.86,17.86,0,0,1-5.06,3.3,2.85,2.85,0,0,0-.78-1,14.45,14.45,0,0,0,3.31-1.75,11.2,11.2,0,0,0,2.77-2.53,20.16,20.16,0,0,0-3.59-2.59l.74-.82a22.85,22.85,0,0,1,3.54,2.48,19.12,19.12,0,0,0,2.23-4.64l-5.6.08a15.89,15.89,0,0,1-3.81,4.26,2.94,2.94,0,0,0-.93-.77,13.92,13.92,0,0,0,4.08-4.56,8.74,8.74,0,0,0,.94-2.19Z" transform="translate(0 -0.13)"/><path class="cls-4" d="M278.73,316.16a3.62,3.62,0,0,0-.7.67,28.2,28.2,0,0,1-3.75,3.22v6.82a10.65,10.65,0,0,0,.08,1.7H273a8.34,8.34,0,0,0,.1-1.67v-6.08a25,25,0,0,1-6.18,2.8,3.67,3.67,0,0,0-.62-1.07,22.54,22.54,0,0,0,8.31-4.15,13.45,13.45,0,0,0,3.06-3Z" transform="translate(0 -0.13)"/><path class="cls-4" d="M289.22,315.69a6.31,6.31,0,0,0-.43,1.15,86.63,86.63,0,0,1-3.33,9.36c2.13-.14,5.89-.64,7.78-1a31.11,31.11,0,0,0-2.46-4.15l1-.54a41.45,41.45,0,0,1,4,7.24l-1.12.61a21.71,21.71,0,0,0-.94-2.16,98.57,98.57,0,0,1-9.84,1.33,11.43,11.43,0,0,0-1.36.18l-.16-1.33.45,0c.11,0,1,0,1.36-.08a60.93,60.93,0,0,0,2.42-6.34,30.33,30.33,0,0,0,1.26-4.61Z" transform="translate(0 -0.13)"/><path class="cls-4" d="M297.78,329.63a10.21,10.21,0,0,0,1.7-3,15.75,15.75,0,0,0,0-9.32,10.21,10.21,0,0,0-1.7-3h4.13v15.27Z" transform="translate(0 -0.13)"/><path class="cls-5" d="M195.67,343.74a7.81,7.81,0,0,0,1.33.08h1a9.2,9.2,0,0,0,1.33-.08,26.19,26.19,0,0,0-.14,2.66v7.78a10.2,10.2,0,0,0,.13,1.81H197.8a10.13,10.13,0,0,0,.13-1.81v-9.27h-.86a9.61,9.61,0,0,0-1.39.1Z" transform="translate(0 -0.13)"/><path class="cls-5" d="M206.18,343.74a7.81,7.81,0,0,0,1.33.08h1a9.2,9.2,0,0,0,1.33-.08,26.19,26.19,0,0,0-.14,2.66v7.78a10.2,10.2,0,0,0,.13,1.81h-1.52a10.13,10.13,0,0,0,.13-1.81v-9.27h-.86a9.61,9.61,0,0,0-1.39.1Z" transform="translate(0 -0.13)"/><path class="cls-5" d="M222.9,347.26h-1.58v-1.58h1.58Zm-1.58,7.06v-1.58h1.58v1.58Z" transform="translate(0 -0.13)"/><path class="cls-5" d="M232.44,355.09a4,4,0,0,1-1-1.47,11.07,11.07,0,0,1-.61-3.7,9.35,9.35,0,0,1,.93-4.35,4.29,4.29,0,0,1,6.51-.83,4,4,0,0,1,1,1.47,11,11,0,0,1,.61,3.71,8.35,8.35,0,0,1-1.12,4.63,3.91,3.91,0,0,1-3.39,1.68A4,4,0,0,1,232.44,355.09Zm.93-9.57a3.28,3.28,0,0,0-.72,1.17,9.94,9.94,0,0,0-.5,3.23,8.84,8.84,0,0,0,.75,3.81,2.73,2.73,0,0,0,2.48,1.39,2.67,2.67,0,0,0,2-.75,3.15,3.15,0,0,0,.75-1.25,9.93,9.93,0,0,0,.5-3.23,9.07,9.07,0,0,0-.72-3.73,2.7,2.7,0,0,0-2.51-1.46A2.61,2.61,0,0,0,233.37,345.52Z" transform="translate(0 -0.13)"/><path class="cls-5" d="M242.95,355.09a4,4,0,0,1-1-1.47,11.07,11.07,0,0,1-.61-3.7,9.35,9.35,0,0,1,.93-4.35,4.29,4.29,0,0,1,6.51-.83,4,4,0,0,1,1,1.47,11,11,0,0,1,.61,3.71,8.35,8.35,0,0,1-1.12,4.63,3.91,3.91,0,0,1-3.39,1.68A4,4,0,0,1,242.95,355.09Zm.93-9.57a3.28,3.28,0,0,0-.72,1.17,9.94,9.94,0,0,0-.5,3.23,8.84,8.84,0,0,0,.75,3.81,2.73,2.73,0,0,0,2.48,1.39,2.67,2.67,0,0,0,2-.75,3.15,3.15,0,0,0,.75-1.25,9.93,9.93,0,0,0,.5-3.23,9.07,9.07,0,0,0-.72-3.73,2.7,2.7,0,0,0-2.51-1.46A2.61,2.61,0,0,0,243.88,345.52Z" transform="translate(0 -0.13)"/><path class="cls-5" d="M256,350c1.42-1.39,2.42-1.89,3.86-1.89a4.32,4.32,0,0,1,2,.46,9.79,9.79,0,0,1,1.5,1,5.21,5.21,0,0,0,3.07,1.31,3.12,3.12,0,0,0,1.28-.27A4.27,4.27,0,0,0,269.5,349l.83.72a6.55,6.55,0,0,1-1.84,1.65,4.32,4.32,0,0,1-2.11.54,5,5,0,0,1-1.52-.26,8,8,0,0,1-2.22-1.3,4.35,4.35,0,0,0-2.88-1.22,3.29,3.29,0,0,0-1.65.42,5.66,5.66,0,0,0-1.34,1.12Z" transform="translate(0 -0.13)"/><path class="cls-5" d="M277.72,343.74a7.81,7.81,0,0,0,1.33.08h1a9.2,9.2,0,0,0,1.33-.08,26.19,26.19,0,0,0-.14,2.66v7.78a10.2,10.2,0,0,0,.13,1.81h-1.52a10.13,10.13,0,0,0,.13-1.81v-9.27h-.86a9.61,9.61,0,0,0-1.39.1Z" transform="translate(0 -0.13)"/><path class="cls-5" d="M286.15,351.74c.34-.38.7-.83,1-1.23l4-5.06a18.14,18.14,0,0,0,1.2-1.63h1.2a26.53,26.53,0,0,0-.1,2.71v5.25h.61a10.74,10.74,0,0,0,1.66-.11V353a11,11,0,0,0-1.68-.11h-.59v1.38a9.21,9.21,0,0,0,.13,1.73h-1.46a9.28,9.28,0,0,0,.13-1.73v-1.38h-4.29c-.9,0-1.38,0-1.9.06Zm6.21-4a19.46,19.46,0,0,1,.1-2.18c-.34.48-.74,1-1.2,1.6l-3.68,4.64h4.79Z" transform="translate(0 -0.13)"/><path class="cls-5" d="M305,347.26h-1.58v-1.58H305Zm-1.58,7.06v-1.58H305v1.58Z" transform="translate(0 -0.13)"/><path class="cls-5" d="M314.29,353a2.41,2.41,0,0,0,1,1.52,3.53,3.53,0,0,0,2.06.58c1.86,0,3-1,3-2.48s-1.14-2.45-3.27-2.45a11.27,11.27,0,0,0-1.28.08V349a6.88,6.88,0,0,0,1.18.1,3.2,3.2,0,0,0,2.34-.74,2.21,2.21,0,0,0,.64-1.55c0-1.38-1-2.18-2.58-2.18a2.52,2.52,0,0,0-2.13.85,3,3,0,0,0-.51,1.14l-1.33-.29a3.64,3.64,0,0,1,.86-1.6,4.16,4.16,0,0,1,3.19-1.17c2.32,0,3.79,1.22,3.79,3.14a2.81,2.81,0,0,1-1.12,2.34,3.29,3.29,0,0,1-1.5.58,3.43,3.43,0,0,1,2,.69,2.93,2.93,0,0,1,1.07,2.42c0,2.16-1.67,3.51-4.34,3.51a4.58,4.58,0,0,1-3.59-1.31,4.17,4.17,0,0,1-.82-1.55Z" transform="translate(0 -0.13)"/><path class="cls-5" d="M325.06,355.09a4,4,0,0,1-1-1.47,11.07,11.07,0,0,1-.61-3.7,9.35,9.35,0,0,1,.93-4.35,4.29,4.29,0,0,1,6.51-.83,4,4,0,0,1,1,1.47,11,11,0,0,1,.61,3.71,8.35,8.35,0,0,1-1.12,4.63,3.91,3.91,0,0,1-3.39,1.68A4,4,0,0,1,325.06,355.09Zm.93-9.57a3.28,3.28,0,0,0-.72,1.17,9.94,9.94,0,0,0-.5,3.23,8.84,8.84,0,0,0,.75,3.81,2.73,2.73,0,0,0,2.48,1.39,2.67,2.67,0,0,0,2-.75,3.15,3.15,0,0,0,.75-1.25,9.93,9.93,0,0,0,.5-3.23,9.07,9.07,0,0,0-.72-3.73A2.7,2.7,0,0,0,328,344.7,2.61,2.61,0,0,0,326,345.52Z" transform="translate(0 -0.13)"/><path class="cls-5" d="M204.39,385.38a10.77,10.77,0,0,1-2.23-3.44,10.48,10.48,0,0,1,0-7.87,10.76,10.76,0,0,1,2.23-3.44h1.42a10.1,10.1,0,0,0-2.43,3.31,10,10,0,0,0,0,8.13,10.13,10.13,0,0,0,2.43,3.31Z" transform="translate(0 -0.13)"/><path class="cls-5" d="M215.93,377c0-.11,0-.35,0-1a9.91,9.91,0,0,1-1.2,1.79,18.68,18.68,0,0,1-3.79,3.54,24.47,24.47,0,0,1-2.64,1.65,2.6,2.6,0,0,0-.8-1,18.17,18.17,0,0,0,5.43-3.83,15.46,15.46,0,0,0,2.3-2.91l-5.25,0a12.69,12.69,0,0,0-1.78.06v-1.2a9.08,9.08,0,0,0,1.81.11l5.83,0,0-1.57a7.64,7.64,0,0,0-.08-1.3h1.28a6.1,6.1,0,0,0-.06.88v.38l0,1.6h2.11a8.09,8.09,0,0,0,1.6-.1v1.17a13,13,0,0,0-1.33,0H217l.11,7.79a14.58,14.58,0,0,0,.08,1.63h-1.3a9.49,9.49,0,0,0,.06-1.26v-.35l-.06-5.89V377Z" transform="translate(0 -0.13)"/><path class="cls-5" d="M223.81,377.28a11.33,11.33,0,0,0,2,.1h9.3a12.56,12.56,0,0,0,1.94-.08v1.3a18.32,18.32,0,0,0-2-.06H225.8a17.49,17.49,0,0,0-2,.06Z" transform="translate(0 -0.13)"/><path class="cls-5" d="M245.85,371.23a5.33,5.33,0,0,0-.56,1.06,8.18,8.18,0,0,1-.5.88,5.31,5.31,0,0,1,.59,0l4.18,0a2.88,2.88,0,0,0,.93-.16l.85.88a3.11,3.11,0,0,0-.48,1,24.67,24.67,0,0,1-2.1,4.27,15.41,15.41,0,0,1-7.08,5.76,2.84,2.84,0,0,0-.78-1,14.44,14.44,0,0,0,3.31-1.75,11.2,11.2,0,0,0,2.77-2.53A20.16,20.16,0,0,0,243.4,377l.74-.82a22.89,22.89,0,0,1,3.54,2.48A19.11,19.11,0,0,0,249.9,374l-5.6.08a15.9,15.9,0,0,1-3.81,4.26,2.94,2.94,0,0,0-.93-.77,13.92,13.92,0,0,0,4.08-4.56,8.74,8.74,0,0,0,.94-2.19Zm5.41-.13a12.33,12.33,0,0,1,1.6,2.26l-.77.42a11.53,11.53,0,0,0-1.57-2.27Zm1.47-.75a11.63,11.63,0,0,1,1.6,2.24l-.77.43a11,11,0,0,0-1.58-2.27Z" transform="translate(0 -0.13)"/><path class="cls-5" d="M255.81,377.28a11.33,11.33,0,0,0,2,.1h9.3a12.56,12.56,0,0,0,1.94-.08v1.3a18.32,18.32,0,0,0-2-.06H257.8a17.49,17.49,0,0,0-2,.06Z" transform="translate(0 -0.13)"/><path class="cls-5" d="M283.93,384.22a29.75,29.75,0,0,0-5.12-4.95,17.34,17.34,0,0,1-3.06,2.86,20.62,20.62,0,0,1-3.14,1.92,3.56,3.56,0,0,0-.78-1.06,12.89,12.89,0,0,0,3.25-1.84,17.35,17.35,0,0,0,5.71-7.22c0-.1,0-.11.08-.19a.33.33,0,0,0,0-.11l-.38,0-5.35.08a10.72,10.72,0,0,0-1.65.13l0-1.3a7.58,7.58,0,0,0,1.26.08h.42l5.71-.06a3,3,0,0,0,1-.13l.67.69a3,3,0,0,0-.45.78,19.36,19.36,0,0,1-2.64,4.48,39.83,39.83,0,0,1,5.33,4.8Z" transform="translate(0 -0.13)"/><path class="cls-5" d="M291.16,384.58a10.29,10.29,0,0,0,.1-1.68V373a9.5,9.5,0,0,0-.1-1.63h1.38a10.09,10.09,0,0,0-.08,1.67v3a39.77,39.77,0,0,1,7.12,3.38l-.69,1.18a32.66,32.66,0,0,0-6-3.17,1.77,1.77,0,0,1-.5-.27l0,0a5.56,5.56,0,0,1,.06.94v4.82a10.92,10.92,0,0,0,.08,1.7Z" transform="translate(0 -0.13)"/><path class="cls-5" d="M306.42,375.29a17.54,17.54,0,0,1,1.58,3.55l-1.09.37a13.2,13.2,0,0,0-1.5-3.58Zm9-.1a9.46,9.46,0,0,0-.35,1.3,14.42,14.42,0,0,1-1.41,3.58,11.6,11.6,0,0,1-5.3,4.63,3.24,3.24,0,0,0-.74-.9,10.28,10.28,0,0,0,5.07-4.18,12.09,12.09,0,0,0,1.36-3.44,6.76,6.76,0,0,0,.18-1.09v-.16Zm-5.76-.54a16,16,0,0,1,1.55,3.44l-1.06.37a14,14,0,0,0-1.47-3.5Z" transform="translate(0 -0.13)"/><path class="cls-5" d="M330.54,372.89a2.53,2.53,0,0,1,0-.3,1.65,1.65,0,1,1,1.65,1.66,1.52,1.52,0,0,1-.35,0,16.38,16.38,0,0,1-2.22,5.12,13.79,13.79,0,0,1-3.94,3.67,14.44,14.44,0,0,1-2.94,1.42,3.12,3.12,0,0,0-.78-1.1,12.29,12.29,0,0,0,3.62-1.7,11.84,11.84,0,0,0,5-7.63h-8.15a11.13,11.13,0,0,0-1.79.1v-1.28a11.45,11.45,0,0,0,1.81.1h8.1Zm.64-.29a1,1,0,0,0,1,1,1,1,0,1,0-1-1Z" transform="translate(0 -0.13)"/><path class="cls-5" d="M353,371.74a7.81,7.81,0,0,0,1.33.08h1a9.2,9.2,0,0,0,1.33-.08,26.19,26.19,0,0,0-.14,2.66v7.78a10.2,10.2,0,0,0,.13,1.81h-1.52a10.13,10.13,0,0,0,.13-1.81v-9.27h-.86a9.61,9.61,0,0,0-1.39.1Z" transform="translate(0 -0.13)"/><path class="cls-5" d="M361.43,379.74c.34-.38.7-.83,1-1.23l4-5.06a18.14,18.14,0,0,0,1.2-1.63h1.2a26.53,26.53,0,0,0-.1,2.71v5.25h.61a10.74,10.74,0,0,0,1.66-.11V381a11,11,0,0,0-1.68-.11h-.59v1.38A9.21,9.21,0,0,0,369,384h-1.46a9.28,9.28,0,0,0,.13-1.73v-1.38h-4.29c-.9,0-1.38,0-1.9.06Zm6.21-4a19.46,19.46,0,0,1,.1-2.18c-.34.48-.74,1-1.2,1.6l-3.68,4.64h4.79Z" transform="translate(0 -0.13)"/><path class="cls-5" d="M380.3,375.26h-1.58v-1.58h1.58Zm-1.58,7.06v-1.58h1.58v1.58Z" transform="translate(0 -0.13)"/><path class="cls-5" d="M389.83,383.09a4,4,0,0,1-1-1.47,11.07,11.07,0,0,1-.61-3.7,9.35,9.35,0,0,1,.93-4.35,4.29,4.29,0,0,1,6.51-.83,4,4,0,0,1,1,1.47,11,11,0,0,1,.61,3.71,8.35,8.35,0,0,1-1.12,4.63,3.91,3.91,0,0,1-3.39,1.68A4,4,0,0,1,389.83,383.09Zm.93-9.57a3.28,3.28,0,0,0-.72,1.17,9.94,9.94,0,0,0-.5,3.23,8.84,8.84,0,0,0,.75,3.81,2.73,2.73,0,0,0,2.48,1.39,2.67,2.67,0,0,0,2-.75,3.15,3.15,0,0,0,.75-1.25,9.93,9.93,0,0,0,.5-3.23,9.07,9.07,0,0,0-.72-3.73,2.7,2.7,0,0,0-2.51-1.46A2.61,2.61,0,0,0,390.76,373.52Z" transform="translate(0 -0.13)"/><path class="cls-5" d="M400.34,383.09a4,4,0,0,1-1-1.47,11.07,11.07,0,0,1-.61-3.7,9.35,9.35,0,0,1,.93-4.35,4.29,4.29,0,0,1,6.51-.83,4,4,0,0,1,1,1.47,11,11,0,0,1,.61,3.71,8.35,8.35,0,0,1-1.12,4.63,3.91,3.91,0,0,1-3.39,1.68A4,4,0,0,1,400.34,383.09Zm.93-9.57a3.28,3.28,0,0,0-.72,1.17,9.94,9.94,0,0,0-.5,3.23,8.84,8.84,0,0,0,.75,3.81,2.73,2.73,0,0,0,2.48,1.39,2.67,2.67,0,0,0,2-.75,3.15,3.15,0,0,0,.75-1.25,9.93,9.93,0,0,0,.5-3.23,9.07,9.07,0,0,0-.72-3.73,2.7,2.7,0,0,0-2.51-1.46A2.61,2.61,0,0,0,401.27,373.52Z" transform="translate(0 -0.13)"/><path class="cls-5" d="M409.14,385.38a10,10,0,0,0,2.43-3.31,10,10,0,0,0,0-8.13,10,10,0,0,0-2.43-3.31h1.42a10.76,10.76,0,0,1,2.23,3.44,10.48,10.48,0,0,1,0,7.88,10.77,10.77,0,0,1-2.23,3.44Z" transform="translate(0 -0.13)"/><path class="cls-4" d="M196.28,398.36h4.13a10.21,10.21,0,0,0-1.7,3,15.75,15.75,0,0,0,0,9.32,10.21,10.21,0,0,0,1.7,3h-4.13Z" transform="translate(0 -0.13)"/><path class="cls-4" d="M209.9,405.1a14.9,14.9,0,0,1-.18,1.7,6.3,6.3,0,0,1-2.16,4.23,9.42,9.42,0,0,1-2.82,1.58,2.79,2.79,0,0,0-.75-1,6.07,6.07,0,0,0,4-3.15,9.15,9.15,0,0,0,.64-3.31h-4.34a14.53,14.53,0,0,0-1.84.08V404a11.51,11.51,0,0,0,1.86.1h9.36a11.51,11.51,0,0,0,1.86-.1v1.19a14.53,14.53,0,0,0-1.84-.08ZM204.12,400a8.88,8.88,0,0,0,1.84.11h5.17A9.54,9.54,0,0,0,213,400v1.22a12.81,12.81,0,0,0-1.82-.08h-5.2a12.8,12.8,0,0,0-1.82.08Zm10,.5a11.36,11.36,0,0,1,1.28,2.32l-.88.35a9.9,9.9,0,0,0-1.25-2.34Zm1.6-.66a10.84,10.84,0,0,1,1.28,2.3l-.86.37a9.73,9.73,0,0,0-1.26-2.35Z" transform="translate(0 -0.13)"/><path class="cls-4" d="M229.72,402.89a2,2,0,0,0-.38.37,27,27,0,0,1-3.22,2.82v5.41a8.5,8.5,0,0,0,.08,1.41H225a9.22,9.22,0,0,0,.06-1.39v-4.75A18.67,18.67,0,0,1,220.1,409a3,3,0,0,0-.56-1,15.78,15.78,0,0,0,3.71-1.41,17.6,17.6,0,0,0,4.58-3.33,5.23,5.23,0,0,0,.9-1Z" transform="translate(0 -0.13)"/><path class="cls-4" d="M245.71,403.42a9.81,9.81,0,0,0,1.87-.11v1.25a14.84,14.84,0,0,0-1.86-.08H242.1a8.84,8.84,0,0,1-1.18,4.66,9.22,9.22,0,0,1-4,3.35,3.5,3.5,0,0,0-.82-1,7.39,7.39,0,0,0,4-3.3,8.06,8.06,0,0,0,.82-3.68h-4.43a14.84,14.84,0,0,0-1.86.08v-1.25a9.9,9.9,0,0,0,1.87.11H241c0-.59,0-.91,0-1.41v-1.15a7.7,7.7,0,0,0-.08-1.36h1.34a7.74,7.74,0,0,0-.08,1.36l0,1.15v1.41Z" transform="translate(0 -0.13)"/><path class="cls-4" d="M250.49,405.28a11.33,11.33,0,0,0,2,.1h9.3a12.56,12.56,0,0,0,1.94-.08v1.3a18.32,18.32,0,0,0-2-.06h-9.28a17.49,17.49,0,0,0-2,.06Z" transform="translate(0 -0.13)"/><path class="cls-4" d="M273.14,399.23a5.33,5.33,0,0,0-.56,1.06,8.1,8.1,0,0,1-.5.88c.22,0,.22,0,4.95-.08a2.8,2.8,0,0,0,.93-.16l.72.72a3.58,3.58,0,0,0-.46,1.06,18.21,18.21,0,0,1-4.18,6.88,17.86,17.86,0,0,1-5.06,3.3,2.85,2.85,0,0,0-.78-1,14.45,14.45,0,0,0,3.31-1.75,11.2,11.2,0,0,0,2.77-2.53,20.16,20.16,0,0,0-3.59-2.59l.74-.82a22.85,22.85,0,0,1,3.54,2.48,19.12,19.12,0,0,0,2.23-4.64l-5.6.08a15.89,15.89,0,0,1-3.81,4.26,2.94,2.94,0,0,0-.93-.77,13.92,13.92,0,0,0,4.08-4.56,8.74,8.74,0,0,0,.94-2.19Z" transform="translate(0 -0.13)"/><path class="cls-4" d="M294.73,400.16a3.62,3.62,0,0,0-.7.67,28.2,28.2,0,0,1-3.75,3.22v6.82a10.65,10.65,0,0,0,.08,1.7H289a8.34,8.34,0,0,0,.1-1.67v-6.08a25,25,0,0,1-6.18,2.8,3.67,3.67,0,0,0-.62-1.07,22.54,22.54,0,0,0,8.31-4.15,13.45,13.45,0,0,0,3.06-3Z" transform="translate(0 -0.13)"/><path class="cls-4" d="M305.22,399.69a6.31,6.31,0,0,0-.43,1.15,86.63,86.63,0,0,1-3.33,9.36c2.13-.14,5.89-.64,7.78-1a31.11,31.11,0,0,0-2.46-4.15l1-.54a41.45,41.45,0,0,1,4,7.24l-1.12.61a21.71,21.71,0,0,0-.94-2.16,98.57,98.57,0,0,1-9.84,1.33,11.43,11.43,0,0,0-1.36.18l-.16-1.33.45,0c.11,0,1,0,1.36-.08a60.93,60.93,0,0,0,2.42-6.34,30.33,30.33,0,0,0,1.26-4.61Z" transform="translate(0 -0.13)"/><path class="cls-4" d="M313.78,413.63a10.21,10.21,0,0,0,1.7-3,15.75,15.75,0,0,0,0-9.32,10.21,10.21,0,0,0-1.7-3h4.13v15.27Z" transform="translate(0 -0.13)"/><path class="cls-5" d="M195.67,427.74a7.81,7.81,0,0,0,1.33.08h1a9.2,9.2,0,0,0,1.33-.08,26.19,26.19,0,0,0-.14,2.66v7.78a10.2,10.2,0,0,0,.13,1.81H197.8a10.13,10.13,0,0,0,.13-1.81v-9.27h-.86a9.61,9.61,0,0,0-1.39.1Z" transform="translate(0 -0.13)"/><path class="cls-5" d="M213.08,428.91a6.24,6.24,0,0,0-1.18,1.54,20.58,20.58,0,0,0-3.59,9.54h-1.52a21.06,21.06,0,0,1,1.94-6.39,26,26,0,0,1,2.88-4.64h-5.2a12.44,12.44,0,0,0-1.81.11v-1.36a12.53,12.53,0,0,0,1.83.11h4.8a14.07,14.07,0,0,0,1.86-.08Z" transform="translate(0 -0.13)"/><path class="cls-5" d="M222.9,431.26h-1.58v-1.58h1.58Zm-1.58,7.06v-1.58h1.58v1.58Z" transform="translate(0 -0.13)"/><path class="cls-5" d="M232.18,437a2.41,2.41,0,0,0,1,1.52,3.53,3.53,0,0,0,2.06.58c1.86,0,3-1,3-2.48s-1.14-2.45-3.27-2.45a11.27,11.27,0,0,0-1.28.08V433a6.88,6.88,0,0,0,1.18.1,3.2,3.2,0,0,0,2.34-.74,2.21,2.21,0,0,0,.64-1.55c0-1.38-1-2.18-2.58-2.18a2.52,2.52,0,0,0-2.13.85,3,3,0,0,0-.51,1.14l-1.33-.29a3.64,3.64,0,0,1,.86-1.6,4.16,4.16,0,0,1,3.19-1.17c2.32,0,3.79,1.22,3.79,3.14A2.81,2.81,0,0,1,238,433a3.29,3.29,0,0,1-1.5.58,3.43,3.43,0,0,1,2,.69,2.93,2.93,0,0,1,1.07,2.42c0,2.16-1.67,3.51-4.34,3.51a4.58,4.58,0,0,1-3.59-1.31,4.17,4.17,0,0,1-.82-1.55Z" transform="translate(0 -0.13)"/><path class="cls-5" d="M242.95,439.09a4,4,0,0,1-1-1.47,11.07,11.07,0,0,1-.61-3.7,9.35,9.35,0,0,1,.93-4.35,4.29,4.29,0,0,1,6.51-.83,4,4,0,0,1,1,1.47,11,11,0,0,1,.61,3.71,8.35,8.35,0,0,1-1.12,4.63,3.91,3.91,0,0,1-3.39,1.68A4,4,0,0,1,242.95,439.09Zm.93-9.57a3.28,3.28,0,0,0-.72,1.17,9.94,9.94,0,0,0-.5,3.23,8.84,8.84,0,0,0,.75,3.81,2.73,2.73,0,0,0,2.48,1.39,2.67,2.67,0,0,0,2-.75,3.15,3.15,0,0,0,.75-1.25,9.93,9.93,0,0,0,.5-3.23,9.07,9.07,0,0,0-.72-3.73,2.7,2.7,0,0,0-2.51-1.46A2.61,2.61,0,0,0,243.88,429.52Z" transform="translate(0 -0.13)"/><path class="cls-5" d="M256,434c1.42-1.39,2.42-1.89,3.86-1.89a4.32,4.32,0,0,1,2,.46,9.79,9.79,0,0,1,1.5,1,5.21,5.21,0,0,0,3.07,1.31,3.12,3.12,0,0,0,1.28-.27A4.27,4.27,0,0,0,269.5,433l.83.72a6.55,6.55,0,0,1-1.84,1.65,4.32,4.32,0,0,1-2.11.54,5,5,0,0,1-1.52-.26,8,8,0,0,1-2.22-1.3,4.35,4.35,0,0,0-2.88-1.22,3.29,3.29,0,0,0-1.65.42,5.66,5.66,0,0,0-1.34,1.12Z" transform="translate(0 -0.13)"/><path class="cls-5" d="M277.85,440a11.41,11.41,0,0,0-1.76.08,7.35,7.35,0,0,1,.46-2.11,7,7,0,0,1,2.08-2.75,21.74,21.74,0,0,1,2.45-1.76c1.58-1.07,2.11-1.78,2.11-2.75,0-1.22-1-2-2.66-2a2.64,2.64,0,0,0-2.32,1,3.23,3.23,0,0,0-.56,1.62l-1.34-.22a4.35,4.35,0,0,1,1-2.3,4.09,4.09,0,0,1,3.22-1.23c2.42,0,4,1.22,4,3.1a3.34,3.34,0,0,1-.94,2.27,12.57,12.57,0,0,1-2.72,2.06,8.74,8.74,0,0,0-2.3,2,4.48,4.48,0,0,0-.91,1.86h5.11a14,14,0,0,0,2-.11v1.34a17.9,17.9,0,0,0-2-.1Z" transform="translate(0 -0.13)"/><path class="cls-5" d="M288.23,427.74a7.81,7.81,0,0,0,1.33.08h1a9.2,9.2,0,0,0,1.33-.08,26.19,26.19,0,0,0-.14,2.66v7.78a10.2,10.2,0,0,0,.13,1.81h-1.52a10.13,10.13,0,0,0,.13-1.81v-9.27h-.86a9.61,9.61,0,0,0-1.39.1Z" transform="translate(0 -0.13)"/><path class="cls-5" d="M305,431.26h-1.58v-1.58H305Zm-1.58,7.06v-1.58H305v1.58Z" transform="translate(0 -0.13)"/><path class="cls-5" d="M314.23,437a2.41,2.41,0,0,0,1,1.52,3.53,3.53,0,0,0,2.06.58c1.86,0,3-1,3-2.48s-1.14-2.45-3.27-2.45a11.27,11.27,0,0,0-1.28.08V433a6.88,6.88,0,0,0,1.18.1,3.2,3.2,0,0,0,2.34-.74,2.21,2.21,0,0,0,.64-1.55c0-1.38-1-2.18-2.58-2.18a2.52,2.52,0,0,0-2.13.85,3,3,0,0,0-.51,1.14l-1.33-.29a3.64,3.64,0,0,1,.86-1.6,4.16,4.16,0,0,1,3.19-1.17c2.32,0,3.79,1.22,3.79,3.14a2.81,2.81,0,0,1-1.12,2.34,3.29,3.29,0,0,1-1.5.58,3.43,3.43,0,0,1,2,.69,2.93,2.93,0,0,1,1.07,2.42c0,2.16-1.67,3.51-4.34,3.51a4.58,4.58,0,0,1-3.59-1.31,4.17,4.17,0,0,1-.82-1.55Z" transform="translate(0 -0.13)"/><path class="cls-5" d="M325,439.09a4,4,0,0,1-1-1.47,11.07,11.07,0,0,1-.61-3.7,9.35,9.35,0,0,1,.93-4.35,4.29,4.29,0,0,1,6.51-.83,4,4,0,0,1,1,1.47,11,11,0,0,1,.61,3.71,8.35,8.35,0,0,1-1.12,4.63,3.91,3.91,0,0,1-3.39,1.68A4,4,0,0,1,325,439.09Zm.93-9.57a3.28,3.28,0,0,0-.72,1.17,9.94,9.94,0,0,0-.5,3.23,8.84,8.84,0,0,0,.75,3.81,2.73,2.73,0,0,0,2.48,1.39,2.67,2.67,0,0,0,2-.75,3.15,3.15,0,0,0,.75-1.25,9.93,9.93,0,0,0,.5-3.23,9.07,9.07,0,0,0-.72-3.73,2.7,2.7,0,0,0-2.51-1.46A2.61,2.61,0,0,0,325.92,429.52Z" transform="translate(0 -0.13)"/><path class="cls-5" d="M204.39,469.38a10.77,10.77,0,0,1-2.23-3.44,10.48,10.48,0,0,1,0-7.87,10.76,10.76,0,0,1,2.23-3.44h1.42a10.1,10.1,0,0,0-2.43,3.31,10,10,0,0,0,0,8.13,10.13,10.13,0,0,0,2.43,3.31Z" transform="translate(0 -0.13)"/><path class="cls-5" d="M215.93,461c0-.11,0-.35,0-1a9.91,9.91,0,0,1-1.2,1.79,18.68,18.68,0,0,1-3.79,3.54,24.47,24.47,0,0,1-2.64,1.65,2.6,2.6,0,0,0-.8-1,18.17,18.17,0,0,0,5.43-3.83,15.46,15.46,0,0,0,2.3-2.91l-5.25,0a12.69,12.69,0,0,0-1.78.06v-1.2a9.08,9.08,0,0,0,1.81.11l5.83,0,0-1.57a7.64,7.64,0,0,0-.08-1.3h1.28a6.1,6.1,0,0,0-.06.88v.38l0,1.6h2.11a8.09,8.09,0,0,0,1.6-.1v1.17a13,13,0,0,0-1.33,0H217l.11,7.79a14.58,14.58,0,0,0,.08,1.63h-1.3a9.49,9.49,0,0,0,.06-1.26v-.35l-.06-5.89V461Z" transform="translate(0 -0.13)"/><path class="cls-5" d="M223.81,461.28a11.33,11.33,0,0,0,2,.1h9.3a12.56,12.56,0,0,0,1.94-.08v1.3a18.32,18.32,0,0,0-2-.06H225.8a17.49,17.49,0,0,0-2,.06Z" transform="translate(0 -0.13)"/><path class="cls-5" d="M245.85,455.23a5.33,5.33,0,0,0-.56,1.06,8.18,8.18,0,0,1-.5.88,5.31,5.31,0,0,1,.59,0l4.18,0a2.88,2.88,0,0,0,.93-.16l.85.88a3.11,3.11,0,0,0-.48,1,24.67,24.67,0,0,1-2.1,4.27,15.41,15.41,0,0,1-7.08,5.76,2.84,2.84,0,0,0-.78-1,14.44,14.44,0,0,0,3.31-1.75,11.2,11.2,0,0,0,2.77-2.53A20.16,20.16,0,0,0,243.4,461l.74-.82a22.89,22.89,0,0,1,3.54,2.48A19.11,19.11,0,0,0,249.9,458l-5.6.08a15.9,15.9,0,0,1-3.81,4.26,2.94,2.94,0,0,0-.93-.77,13.92,13.92,0,0,0,4.08-4.56,8.74,8.74,0,0,0,.94-2.19Zm5.41-.13a12.33,12.33,0,0,1,1.6,2.26l-.77.42a11.53,11.53,0,0,0-1.57-2.27Zm1.47-.75a11.63,11.63,0,0,1,1.6,2.24l-.77.43a11,11,0,0,0-1.58-2.27Z" transform="translate(0 -0.13)"/><path class="cls-5" d="M255.81,461.28a11.33,11.33,0,0,0,2,.1h9.3a12.56,12.56,0,0,0,1.94-.08v1.3a18.32,18.32,0,0,0-2-.06H257.8a17.49,17.49,0,0,0-2,.06Z" transform="translate(0 -0.13)"/><path class="cls-5" d="M283.93,468.22a29.75,29.75,0,0,0-5.12-4.95,17.34,17.34,0,0,1-3.06,2.86,20.62,20.62,0,0,1-3.14,1.92,3.56,3.56,0,0,0-.78-1.06,12.89,12.89,0,0,0,3.25-1.84,17.35,17.35,0,0,0,5.71-7.22c0-.1,0-.11.08-.19a.33.33,0,0,0,0-.11l-.38,0-5.35.08a10.72,10.72,0,0,0-1.65.13l0-1.3a7.58,7.58,0,0,0,1.26.08h.42l5.71-.06a3,3,0,0,0,1-.13l.67.69a3,3,0,0,0-.45.78,19.36,19.36,0,0,1-2.64,4.48,39.83,39.83,0,0,1,5.33,4.8Z" transform="translate(0 -0.13)"/><path class="cls-5" d="M291.16,468.58a10.29,10.29,0,0,0,.1-1.68V457a9.5,9.5,0,0,0-.1-1.63h1.38a10.09,10.09,0,0,0-.08,1.67v3a39.77,39.77,0,0,1,7.12,3.38l-.69,1.18a32.66,32.66,0,0,0-6-3.17,1.77,1.77,0,0,1-.5-.27l0,0a5.56,5.56,0,0,1,.06.94v4.82a10.92,10.92,0,0,0,.08,1.7Z" transform="translate(0 -0.13)"/><path class="cls-5" d="M306.42,459.29a17.54,17.54,0,0,1,1.58,3.55l-1.09.37a13.2,13.2,0,0,0-1.5-3.58Zm9-.1a9.46,9.46,0,0,0-.35,1.3,14.42,14.42,0,0,1-1.41,3.58,11.6,11.6,0,0,1-5.3,4.63,3.24,3.24,0,0,0-.74-.9,10.28,10.28,0,0,0,5.07-4.18,12.09,12.09,0,0,0,1.36-3.44,6.76,6.76,0,0,0,.18-1.09v-.16Zm-5.76-.54a16,16,0,0,1,1.55,3.44l-1.06.37a14,14,0,0,0-1.47-3.5Z" transform="translate(0 -0.13)"/><path class="cls-5" d="M330.54,456.89a2.53,2.53,0,0,1,0-.3,1.65,1.65,0,1,1,1.65,1.66,1.52,1.52,0,0,1-.35,0,16.38,16.38,0,0,1-2.22,5.12,13.79,13.79,0,0,1-3.94,3.67,14.44,14.44,0,0,1-2.94,1.42,3.12,3.12,0,0,0-.78-1.1,12.29,12.29,0,0,0,3.62-1.7,11.84,11.84,0,0,0,5-7.63h-8.15a11.13,11.13,0,0,0-1.79.1v-1.28a11.45,11.45,0,0,0,1.81.1h8.1Zm.64-.29a1,1,0,0,0,1,1,1,1,0,1,0-1-1Z" transform="translate(0 -0.13)"/><path class="cls-5" d="M353.13,468a11.41,11.41,0,0,0-1.76.08,7.35,7.35,0,0,1,.46-2.11,7,7,0,0,1,2.08-2.75,21.74,21.74,0,0,1,2.45-1.76c1.58-1.07,2.11-1.78,2.11-2.75,0-1.22-1-2-2.66-2a2.64,2.64,0,0,0-2.32,1,3.23,3.23,0,0,0-.56,1.62l-1.34-.22a4.35,4.35,0,0,1,1-2.3,4.09,4.09,0,0,1,3.22-1.23c2.42,0,4,1.22,4,3.1a3.34,3.34,0,0,1-.94,2.27,12.57,12.57,0,0,1-2.72,2.06,8.74,8.74,0,0,0-2.3,2,4.48,4.48,0,0,0-.91,1.86H358a14,14,0,0,0,2-.11v1.34a17.9,17.9,0,0,0-2-.1Z" transform="translate(0 -0.13)"/><path class="cls-5" d="M363.25,467.09a4,4,0,0,1-1-1.47,11.07,11.07,0,0,1-.61-3.7,9.35,9.35,0,0,1,.93-4.35,4.29,4.29,0,0,1,6.51-.83,4,4,0,0,1,1,1.47,11,11,0,0,1,.61,3.71,8.35,8.35,0,0,1-1.12,4.63,3.91,3.91,0,0,1-3.39,1.68A4,4,0,0,1,363.25,467.09Zm.93-9.57a3.28,3.28,0,0,0-.72,1.17,9.94,9.94,0,0,0-.5,3.23,8.84,8.84,0,0,0,.75,3.81,2.73,2.73,0,0,0,2.48,1.39,2.67,2.67,0,0,0,2-.75,3.15,3.15,0,0,0,.75-1.25,9.93,9.93,0,0,0,.5-3.23,9.07,9.07,0,0,0-.72-3.73,2.7,2.7,0,0,0-2.51-1.46A2.61,2.61,0,0,0,364.18,457.52Z" transform="translate(0 -0.13)"/><path class="cls-5" d="M380.23,459.26h-1.58v-1.58h1.58Zm-1.58,7.06v-1.58h1.58v1.58Z" transform="translate(0 -0.13)"/><path class="cls-5" d="M389.51,465a2.41,2.41,0,0,0,1,1.52,3.53,3.53,0,0,0,2.06.58c1.86,0,3-1,3-2.48s-1.14-2.45-3.27-2.45a11.27,11.27,0,0,0-1.28.08V461a6.88,6.88,0,0,0,1.18.1,3.2,3.2,0,0,0,2.34-.74,2.21,2.21,0,0,0,.64-1.55c0-1.38-1-2.18-2.58-2.18a2.52,2.52,0,0,0-2.13.85,3,3,0,0,0-.51,1.14l-1.33-.29a3.64,3.64,0,0,1,.86-1.6,4.16,4.16,0,0,1,3.19-1.17c2.32,0,3.79,1.22,3.79,3.14a2.81,2.81,0,0,1-1.12,2.34,3.29,3.29,0,0,1-1.5.58,3.43,3.43,0,0,1,2,.69,2.93,2.93,0,0,1,1.07,2.42c0,2.16-1.67,3.51-4.34,3.51a4.58,4.58,0,0,1-3.59-1.31,4.17,4.17,0,0,1-.82-1.55Z" transform="translate(0 -0.13)"/><path class="cls-5" d="M400.28,467.09a4,4,0,0,1-1-1.47,11.07,11.07,0,0,1-.61-3.7,9.35,9.35,0,0,1,.93-4.35,4.29,4.29,0,0,1,6.51-.83,4,4,0,0,1,1,1.47,11,11,0,0,1,.61,3.71,8.35,8.35,0,0,1-1.12,4.63,3.91,3.91,0,0,1-3.39,1.68A4,4,0,0,1,400.28,467.09Zm.93-9.57a3.28,3.28,0,0,0-.72,1.17,9.94,9.94,0,0,0-.5,3.23,8.84,8.84,0,0,0,.75,3.81,2.73,2.73,0,0,0,2.48,1.39,2.67,2.67,0,0,0,2-.75,3.15,3.15,0,0,0,.75-1.25,9.93,9.93,0,0,0,.5-3.23,9.07,9.07,0,0,0-.72-3.73,2.7,2.7,0,0,0-2.51-1.46A2.61,2.61,0,0,0,401.21,457.52Z" transform="translate(0 -0.13)"/><path class="cls-5" d="M409.08,469.38a10,10,0,0,0,2.43-3.31,10,10,0,0,0,0-8.13,10,10,0,0,0-2.43-3.31h1.42a10.76,10.76,0,0,1,2.23,3.44,10.48,10.48,0,0,1,0,7.88,10.77,10.77,0,0,1-2.23,3.44Z" transform="translate(0 -0.13)"/><path class="cls-5" d="M206.78,483.75l.51.53L201.61,490l5.68,5.68-.51.53-5.68-5.63-5.67,5.63-.53-.53,5.68-5.68-5.68-5.71.53-.53,5.67,5.68Zm-9,6.23a1.22,1.22,0,0,1-1.22,1.23,1.24,1.24,0,0,1-1.23-1.23,1.22,1.22,0,0,1,2.45,0Zm4.58,4.67a1.24,1.24,0,0,1-1.22,1.23,1.24,1.24,0,0,1-.11-2.47h0l0,0,0,0A1.22,1.22,0,0,1,202.31,494.66Zm0-9.3a1.22,1.22,0,0,1-1.22,1.23,1.24,1.24,0,0,1-1.23-1.23,1.23,1.23,0,0,1,1.23-1.22A1.22,1.22,0,0,1,202.33,485.36Zm4.56,4.64a1.22,1.22,0,1,1-1.22-1.22A1.22,1.22,0,0,1,206.89,490Z" transform="translate(0 -0.13)"/><path class="cls-5" d="M216.58,484.17a8,8,0,0,0-.1-1.44h1.23a7.84,7.84,0,0,0-.1,1.44v4.74h4.11a6.43,6.43,0,0,0,1.26-.1,10.32,10.32,0,0,0-.06,1.27v5.65a12.57,12.57,0,0,0,.1,1.62h-1.12v-.85H212.2a10.34,10.34,0,0,0-1.49.1v-1.15a9,9,0,0,0,1.47.08h9.73v-2.45h-9.12a8.7,8.7,0,0,0-1.42.08V492a8.55,8.55,0,0,0,1.47.08h9.08v-2.21h-9.6a9.52,9.52,0,0,0-1.46.08v-1.14a9.69,9.69,0,0,0,1.5.08h4.23Zm-4.55-.45a17.37,17.37,0,0,1,2.5,3.89l-.94.54a15.87,15.87,0,0,0-2.45-3.94Zm11,.38a16.18,16.18,0,0,1-2.67,4.32l-.88-.54a13,13,0,0,0,2.56-4.26Z" transform="translate(0 -0.13)"/><path class="cls-5" d="M227.89,485.18a11.21,11.21,0,0,0-.08-1.57,13,13,0,0,0,1.71.08h7.2a11.54,11.54,0,0,0,1.65-.08,10.08,10.08,0,0,0-.08,1.47v10.26a12.25,12.25,0,0,0,.1,1.71h-1.17v-1H229v1H227.8a12.32,12.32,0,0,0,.1-1.7Zm1.07,4h8.26v-4.48H229Zm0,5.89h8.26v-4.91H229Z" transform="translate(0 -0.13)"/><path class="cls-5" d="M247.58,484.75a5.45,5.45,0,0,0-.35-1.36l1.26-.21a8.22,8.22,0,0,0,.18,1.36l.32,1.76,3.62-.56a7.54,7.54,0,0,0,1.41-.32l.22,1.15c-.43,0-.43,0-1.42.21l-3.63.56.61,3.23,4-.64a9.87,9.87,0,0,0,1.58-.37l.22,1.18a4.58,4.58,0,0,0-.7.08c-.06,0-.22,0-.5.08L254,491l-4,.64.66,3.54a8.66,8.66,0,0,0,.35,1.52l-1.28.24a12.72,12.72,0,0,0-.19-1.54l-.66-3.58-4.29.69a8.49,8.49,0,0,0-1.54.32l-.21-1.22a8.33,8.33,0,0,0,1.58-.14l4.26-.69-.58-3.23-3.3.51a13.1,13.1,0,0,0-1.6.35l-.22-1.22a11.9,11.9,0,0,0,1.67-.16l3.27-.51Z" transform="translate(0 -0.13)"/><path class="cls-5" d="M262.28,487.36a4.46,4.46,0,0,0-.3-1.17l1.17-.18a5.23,5.23,0,0,0,.18,1.2l.26,1.38,5.38-.88a2.26,2.26,0,0,0,.69-.19l.67.59a3.06,3.06,0,0,0-.37.7,8.19,8.19,0,0,1-3.1,3.76,2.84,2.84,0,0,0-.86-.69,6.57,6.57,0,0,0,2.9-3.07,1.09,1.09,0,0,1,.06-.14l-.42.1-4.77.78,1.15,6a5.19,5.19,0,0,0,.3,1.26l-1.23.22a6,6,0,0,0-.14-1.28l-1.12-6.07-1.58.27a6.51,6.51,0,0,0-1.39.32l-.22-1.14A7.77,7.77,0,0,0,261,489l1.54-.26Z" transform="translate(0 -0.13)"/><path class="cls-5" d="M275.35,494.69a13.94,13.94,0,0,0,4.66-1.23,12.1,12.1,0,0,0,6.53-7.12,3.2,3.2,0,0,0,1,.94,14,14,0,0,1-4.88,6.11,16.11,16.11,0,0,1-6,2.38,8.59,8.59,0,0,0-1,.26Zm1-9.92a20.81,20.81,0,0,1,3.86,3l-.83,1a17.67,17.67,0,0,0-3.81-3.14Z" transform="translate(0 -0.13)"/><path class="cls-5" d="M294,485.12a9.2,9.2,0,0,0-.06-1.47h1.3a9.19,9.19,0,0,0-.08,1.47v2.34l6.5-.87a1.79,1.79,0,0,0,.91-.22l.78.66a4.91,4.91,0,0,0-.26.45,10.79,10.79,0,0,1-1.22,2,12.28,12.28,0,0,1-2.72,2.5,2.72,2.72,0,0,0-1-.77,8.86,8.86,0,0,0,3.63-3.71l-.37.08-.19,0-6.11.85v3.78c0,1.49.06,1.83.4,2.11s1,.4,2.32.4a18.14,18.14,0,0,0,4.66-.56l.08,1.3c-.43,0-.53,0-1,.08a28.38,28.38,0,0,1-3.79.29c-1.82,0-2.75-.22-3.27-.75s-.59-1-.59-2.64v-3.86l-1.94.27a10.06,10.06,0,0,0-1.57.27l-.14-1.2h.24c.27,0,.83,0,1.38-.11l2-.27Z" transform="translate(0 -0.13)"/><path class="cls-5" d="M310.73,484a8,8,0,0,0-.1,1.38c-.13,4.34-.26,5.52-.86,7.14a9.78,9.78,0,0,1-2.77,4,3,3,0,0,0-1-.86,7.92,7.92,0,0,0,2.71-3.68,21.85,21.85,0,0,0,.72-6.87,7.1,7.1,0,0,0-.06-1.14Zm4-.18a6.2,6.2,0,0,0-.1,1.41l-.1,9.67a7.39,7.39,0,0,0,3-1.86,7.92,7.92,0,0,0,1.89-3.2,4.47,4.47,0,0,0,.9.93,9.1,9.1,0,0,1-3.22,4.11,10.51,10.51,0,0,1-2.29,1.17l-.51.19a2.64,2.64,0,0,0-.37.18l-.64-.74a2.71,2.71,0,0,0,.11-1.09l.1-9.36a6.42,6.42,0,0,0-.06-1.42Z" transform="translate(0 -0.13)"/><path class="cls-5" d="M325.38,483.72a22.83,22.83,0,0,0-1.23,7.51c0,.56,0,1.5.06,2.24,0,.13,0,.16,0,.45v.3l.06,0a14.23,14.23,0,0,1,.94-2.82,2.21,2.21,0,0,0,.13-.32l.78.37a13.82,13.82,0,0,0-1.38,4.54,1.76,1.76,0,0,0,0,.32l-1.14.11c0-.14,0-.22-.1-.59a25.48,25.48,0,0,1-.45-4.75,27.11,27.11,0,0,1,.83-6.58,7.3,7.3,0,0,0,.18-1Zm1.62,3a11.06,11.06,0,0,0,2.88.26c.62,0,1.06,0,1.71,0,0-1.5,0-1.5,0-2.72a3.53,3.53,0,0,0,0-.66h1.2a16.37,16.37,0,0,0-.11,2.51c0,.18,0,.43,0,.78a10.94,10.94,0,0,0,2.77-.59l0,1.09-1.12.22a15.3,15.3,0,0,1-1.7.26c0,1.58,0,2.4.18,4.53a11.63,11.63,0,0,1,2.67,1.57l.4.27-.5,1.12a8.65,8.65,0,0,0-2.27-1.67l-.16-.1-.14-.1a2.31,2.31,0,0,1,0,.42,2.34,2.34,0,0,1-2.86,2.43c-1.86,0-3-.88-3-2.27s1.26-2.27,3-2.27a4.53,4.53,0,0,1,1.78.32c0-.34-.11-1.84-.16-4.18-.72,0-1.22,0-1.82,0s-1.25,0-1.81,0a4.17,4.17,0,0,0-.51,0l-.27,0-.16,0H327Zm3.07,6c-1.25,0-2.06.53-2.06,1.33s.74,1.3,1.86,1.3a2.21,2.21,0,0,0,1.63-.56,1.87,1.87,0,0,0,.3-1.25c0-.11,0-.48,0-.48A4.14,4.14,0,0,0,330.07,492.7Z" transform="translate(0 -0.13)"/><path class="cls-5" d="M342.39,490.41c-1,.86-1.52,1.6-1.52,2.35s.46,1.26,1.36,1.57a10.23,10.23,0,0,0,2.93.32A15.16,15.16,0,0,0,350,494l.14,1.31a4.63,4.63,0,0,0-.54.08,26.1,26.1,0,0,1-4.32.37,11.3,11.3,0,0,1-3.68-.5,2.55,2.55,0,0,1-1.82-2.42,4.21,4.21,0,0,1,1.84-3.09Zm-1.68-5.84A18.28,18.28,0,0,0,345,485a17.48,17.48,0,0,0,4-.34l.08,1.06a22.78,22.78,0,0,0-4,2.43l-.82-.66a24.6,24.6,0,0,1,2.13-1.33l.4-.21c.11-.06.14-.06.3-.16a12.64,12.64,0,0,1-2.42.21,31.33,31.33,0,0,1-3.52-.21,3.88,3.88,0,0,0-.53,0Zm8,2.47a12.19,12.19,0,0,1,1.63,2.13l-.78.45a10.63,10.63,0,0,0-1.62-2.14Zm1.47-.87a12.27,12.27,0,0,1,1.63,2.13l-.78.45a10.63,10.63,0,0,0-1.62-2.14Z" transform="translate(0 -0.13)"/><path class="cls-5" d="M366.54,484.25a20.24,20.24,0,0,1-4.34,3.06c.45.32.64.45,1.25.91l-.42.42h2.9a9.5,9.5,0,0,0,1.7-.08l.62.69a6,6,0,0,0-.43.53,12.9,12.9,0,0,1-2.8,2.8,4,4,0,0,0-.83-.66,10.85,10.85,0,0,0,2.56-2.32h-4.87v6.21c0,1-.38,1.3-1.87,1.3-.5,0-1.34,0-1.89-.08a4,4,0,0,0-.26-1.1,13.45,13.45,0,0,0,2.24.19c.54,0,.7-.11.7-.46V489.6h-5a12,12,0,0,0-1.65.1v-1.15a12,12,0,0,0,1.78.1h6.4a23.88,23.88,0,0,0-4.42-2.72l.66-.7c1.41.74,2,1,2.72,1.52a15.58,15.58,0,0,0,3.41-2.27h-7.41a10.75,10.75,0,0,0-1.65.08v-1.09a9.56,9.56,0,0,0,1.68.1h7.33a10.73,10.73,0,0,0,1.18,0Z" transform="translate(0 -0.13)"/><path class="cls-5" d="M369.86,489.73a3.63,3.63,0,0,0,.58,0l.82,0c.59-.71.75-.91,1.22-1.54a15.88,15.88,0,0,0-2.43-2.45l.59-.75c.35.34.43.4.69.66a11.92,11.92,0,0,0,1.58-3l1,.45a6,6,0,0,0-.37.61,24.38,24.38,0,0,1-1.58,2.51c.48.48.74.77,1.07,1.17a16.33,16.33,0,0,0,1.84-3l.94.56c-.14.19-.24.34-.46.66a35.11,35.11,0,0,1-3,4c1.2-.08,1.49-.1,2.59-.24a13.43,13.43,0,0,0-.64-1.26l.74-.29a17.34,17.34,0,0,1,1.41,3l-.82.37c-.16-.51-.21-.66-.37-1.07a2.54,2.54,0,0,1-.4,0l-1.1.13v5.27a11.57,11.57,0,0,0,.1,1.63h-1.17a11.89,11.89,0,0,0,.1-1.65v-5.15l-1.79.16a5.87,5.87,0,0,0-1,.11Zm2,2a14.17,14.17,0,0,1-1.06,4.53l-.88-.42a11.85,11.85,0,0,0,1.06-4.29Zm3.63-.27a25.47,25.47,0,0,1,.94,3.81l-.93.3a21.09,21.09,0,0,0-.82-3.86Zm2.71-5.06a12.44,12.44,0,0,1-1.63,2.5,2.93,2.93,0,0,0-.83-.62,10.39,10.39,0,0,0,1.79-2.74,10,10,0,0,0,.9-2.64l1.09.27c-.13.3-.13.3-.42,1.11-.13.35-.26.67-.46,1.18h4a8.55,8.55,0,0,0,1.3-.06,23.9,23.9,0,0,0-.08,2.47,40.1,40.1,0,0,1-.69,7.25c-.37,1.54-.77,1.87-2.3,1.87-.46,0-1.06,0-1.7-.1a3.87,3.87,0,0,0-.27-1.1A12.59,12.59,0,0,0,381,496c.75,0,.93-.19,1.15-1.22a44.82,44.82,0,0,0,.69-8.37Zm1.7,6.42a15.5,15.5,0,0,0-2.19-4l.83-.48a19.16,19.16,0,0,1,2.27,3.9Z" transform="translate(0 -0.13)"/><path class="cls-5" d="M393.45,486.06c0,.3,0,.42-.1.69a9.64,9.64,0,0,0,1.62,2.83,10.75,10.75,0,0,0,3.17,2.53,3.47,3.47,0,0,0-.7.93,10.89,10.89,0,0,1-4.4-4.87,7.44,7.44,0,0,1-.9,2,9.1,9.1,0,0,1-3.33,3,3,3,0,0,0-.72-.82,8.31,8.31,0,0,0,2.77-2.15,7.52,7.52,0,0,0,1.57-4.16h-4.61v9.33a11.7,11.7,0,0,0,.08,1.78h-1.25a11.14,11.14,0,0,0,.11-1.78v-8.93a12,12,0,0,0-.06-1.44,12.42,12.42,0,0,0,1.58.08h4.24c0-.54,0-.74,0-1.33a5.4,5.4,0,0,0-.11-1.15h1.25a4.57,4.57,0,0,0-.11,1.15c0,.72,0,.94,0,1.33h4.4a12.62,12.62,0,0,0,1.62-.08,11.45,11.45,0,0,0-.06,1.41v9.25c0,1-.34,1.2-2,1.2-.53,0-1.17,0-1.82-.08a3.72,3.72,0,0,0-.26-1.11,11.63,11.63,0,0,0,2.19.21c.75,0,.86,0,.86-.42v-9.43Z" transform="translate(0 -0.13)"/><path class="cls-5" d="M404.76,492.27l-.32.22a15.94,15.94,0,0,1-1.86,1.07,3,3,0,0,0-.61-.9,15.86,15.86,0,0,0,3.89-2.26,11.26,11.26,0,0,0,2.77-2.95h1a11.92,11.92,0,0,0,3.06,3.12,15.13,15.13,0,0,0,3.65,2,3.46,3.46,0,0,0-.59,1,24.12,24.12,0,0,1-2.29-1.33v3.62a10,10,0,0,0,.1,1.42h-1.09v-.8h-6.72v.8h-1.1a10.54,10.54,0,0,0,.1-1.44Zm3.65-8.63a4.22,4.22,0,0,0-.11-1h1.25a4.18,4.18,0,0,0-.1,1v.5h4.75c.62,0,1.09,0,1.6-.06a7.4,7.4,0,0,0-.06,1.09v1a7.36,7.36,0,0,0,.06,1.11h-1v-2.23H403.53v2.23h-1.06a7.58,7.58,0,0,0,.06-1.11v-1a7.33,7.33,0,0,0-.06-1.09c.5,0,1,.06,1.62.06h4.32Zm-.93,2.64a12.54,12.54,0,0,1-2,2,10.26,10.26,0,0,1-2,1.39,3,3,0,0,0-.77-.8,8.15,8.15,0,0,0,1.89-1.1,10.17,10.17,0,0,0,2-2Zm5,5.31a13.86,13.86,0,0,1-3.35-3.28,13.69,13.69,0,0,1-2,2.16,12,12,0,0,1-1.44,1.12Zm-6.75,4h6.72v-3.06h-6.72Zm5.68-9.81a10.2,10.2,0,0,0,4.13,3,3.91,3.91,0,0,0-.61.88,12.91,12.91,0,0,1-4.34-3.35Z" transform="translate(0 -0.13)"/><path class="cls-5" d="M424.39,491.82c-.93,2.11-1.87,3.07-3,3.07-1.52,0-2.66-1.67-2.66-3.91a6.5,6.5,0,0,1,6.85-6.55A6.2,6.2,0,0,1,430,486a5.36,5.36,0,0,1,1.55,3.91,5.83,5.83,0,0,1-3.67,5.52,12.36,12.36,0,0,1-2.43.74,2.55,2.55,0,0,0-.56-1.07,9.55,9.55,0,0,0,2.67-.75,4.83,4.83,0,0,0,2.83-4.48,4.22,4.22,0,0,0-2.55-4,4.59,4.59,0,0,0-1.86-.4A24,24,0,0,1,424.39,491.82Zm-2-5.59a5.54,5.54,0,0,0-2.61,4.77c0,1.54.67,2.72,1.54,2.72.67,0,1.31-.75,2-2.32a22,22,0,0,0,1.46-5.92A5.06,5.06,0,0,0,422.42,486.24Z" transform="translate(0 -0.13)"/><path class="cls-5" d="M441.62,483a12.48,12.48,0,0,0,3.12,3.25,16.47,16.47,0,0,0,4,2.24,4.31,4.31,0,0,0-.69,1.06,22.73,22.73,0,0,1-4.07-2.58,14,14,0,0,1-2.93-3.07,13.13,13.13,0,0,1-2.56,2.88,19.91,19.91,0,0,1-4.11,2.72,3.14,3.14,0,0,0-.7-1,17.44,17.44,0,0,0,4-2.45,12.55,12.55,0,0,0,2.71-3.09ZM438,489.42a9.47,9.47,0,0,0-1.49.08v-1.09a9,9,0,0,0,1.44.08h6.15a8.93,8.93,0,0,0,1.44-.08v1.09a9.25,9.25,0,0,0-1.47-.08h-2.59v2.43h3a9.12,9.12,0,0,0,1.47-.08v1.09a9.13,9.13,0,0,0-1.47-.08h-3v2.87h4.83a13.08,13.08,0,0,0,1.76-.1v1.17a11.83,11.83,0,0,0-1.74-.11H435.88a12.14,12.14,0,0,0-1.78.11v-1.17a13.28,13.28,0,0,0,1.79.1h4.55v-2.87h-2.67a9.35,9.35,0,0,0-1.49.08v-1.09a9.22,9.22,0,0,0,1.49.08h2.67v-2.43Z" transform="translate(0 -0.13)"/><path class="cls-5" d="M451.19,493.26c0-.34,0-.66,0-1-.32.19-.51.3-1.06.58a2.09,2.09,0,0,0-.54-.82,12,12,0,0,0,3.46-2.15,8.5,8.5,0,0,1-1.23-1.38,10.57,10.57,0,0,1-1.41,1.39,2.88,2.88,0,0,0-.62-.69,7.82,7.82,0,0,0,2.29-2.53,4.07,4.07,0,0,0,.54-1.22l.93.27a5.15,5.15,0,0,0-.27.5c-.08.16-.13.24-.22.42h1.7a4.77,4.77,0,0,0,.93-.08l.54.56a4.85,4.85,0,0,0-.37.56,12.66,12.66,0,0,1-1.57,2.15,11.91,11.91,0,0,0,2.86,1.54,2.83,2.83,0,0,0-.43.88,13.78,13.78,0,0,1-3-1.82,13.25,13.25,0,0,1-2,1.55c.24,0,.37,0,.69,0h2.48a6.41,6.41,0,0,0,1.14-.06,10.51,10.51,0,0,0-.06,1.41v1.42a11.43,11.43,0,0,0,0,1.41c-.16,0-.54,0-1.18,0h-2.61v1h-1c0-.34.06-.83.06-1.46Zm1.87-9.35a5.12,5.12,0,0,0-.1-1.07h1.17a4.21,4.21,0,0,0-.1,1.09v.5h1.6a10.32,10.32,0,0,0,1.3,0,7.57,7.57,0,0,0,0,1v.53a6.73,6.73,0,0,0,0,.91H456v-1.52h-5V487h-1a5.34,5.34,0,0,0,.06-.91v-.71a7.56,7.56,0,0,0-.06-1,10.46,10.46,0,0,0,1.31,0h1.7Zm-.94,11.38H455v-2.5h-2.85Zm.42-7.86c-.08.14-.13.19-.26.4a7.29,7.29,0,0,0,1.31,1.46,8.63,8.63,0,0,0,1.38-1.86Zm7.22,7.56a10.8,10.8,0,0,1-3.35,2.38,3.27,3.27,0,0,0-.67-.82,8.24,8.24,0,0,0,3.23-2.18Zm-1.34-10.77a9.57,9.57,0,0,0-1.57.1v-1.09a7.92,7.92,0,0,0,1.57.1h4.29a8.73,8.73,0,0,0,1.57-.1v1.09a8.5,8.5,0,0,0-1.57-.1h-1.54a13.29,13.29,0,0,1-.62,1.75h1.6a10,10,0,0,0,1.44-.06c0,.45,0,.82,0,1.46v5.3c0,.66,0,1,0,1.54-.48,0-.88,0-1.38,0h-3.49c-.48,0-.88,0-1.38,0,0-.48,0-.93,0-1.46v-5.31a12.16,12.16,0,0,0-.06-1.5c.38,0,.72,0,1.39,0h.86a15,15,0,0,0,.59-1.75Zm-.1,4.15h4.27v-1.54h-4.27Zm0,2.43h4.27v-1.58h-4.27Zm0,2.5h4.27v-1.65h-4.27Zm3.27,1.1a10.21,10.21,0,0,0,3.14,2.08,3.91,3.91,0,0,0-.66.9,11.7,11.7,0,0,1-3.22-2.38Z" transform="translate(0 -0.13)"/><path class="cls-5" d="M472.39,491.82c-.93,2.11-1.87,3.07-3,3.07-1.52,0-2.66-1.67-2.66-3.91a6.5,6.5,0,0,1,6.85-6.55A6.2,6.2,0,0,1,478,486a5.36,5.36,0,0,1,1.55,3.91,5.83,5.83,0,0,1-3.67,5.52,12.36,12.36,0,0,1-2.43.74,2.55,2.55,0,0,0-.56-1.07,9.55,9.55,0,0,0,2.67-.75,4.83,4.83,0,0,0,2.83-4.48,4.22,4.22,0,0,0-2.55-4,4.59,4.59,0,0,0-1.86-.4A24,24,0,0,1,472.39,491.82Zm-2-5.59a5.54,5.54,0,0,0-2.61,4.77c0,1.54.67,2.72,1.54,2.72.67,0,1.31-.75,2-2.32a22,22,0,0,0,1.46-5.92A5.06,5.06,0,0,0,470.42,486.24Z" transform="translate(0 -0.13)"/><path class="cls-5" d="M199.58,512.75a5.45,5.45,0,0,0-.35-1.36l1.26-.21a8.22,8.22,0,0,0,.18,1.36l.32,1.76,3.62-.56a7.54,7.54,0,0,0,1.41-.32l.22,1.15c-.43,0-.43,0-1.42.21l-3.63.56.61,3.23,4-.64a9.87,9.87,0,0,0,1.58-.37l.22,1.18a4.58,4.58,0,0,0-.7.08c-.06,0-.22,0-.5.08L206,519l-4,.64.66,3.54a8.66,8.66,0,0,0,.35,1.52l-1.28.24a12.72,12.72,0,0,0-.19-1.54l-.66-3.58-4.29.69a8.49,8.49,0,0,0-1.54.32l-.21-1.22a8.33,8.33,0,0,0,1.58-.14l4.26-.69-.58-3.23-3.3.51a13.1,13.1,0,0,0-1.6.35l-.22-1.22a11.9,11.9,0,0,0,1.67-.16l3.27-.51Z" transform="translate(0 -0.13)"/><path class="cls-5" d="M214.28,515.36a4.46,4.46,0,0,0-.3-1.17l1.17-.18a5.23,5.23,0,0,0,.18,1.2l.26,1.38,5.38-.88a2.26,2.26,0,0,0,.69-.19l.67.59a3.06,3.06,0,0,0-.37.7,8.19,8.19,0,0,1-3.1,3.76,2.84,2.84,0,0,0-.86-.69,6.57,6.57,0,0,0,2.9-3.07,1.09,1.09,0,0,1,.06-.14l-.42.1-4.77.78,1.15,6a5.19,5.19,0,0,0,.3,1.26l-1.23.22a6,6,0,0,0-.14-1.28l-1.12-6.07-1.58.27a6.51,6.51,0,0,0-1.39.32l-.22-1.14A7.77,7.77,0,0,0,213,517l1.54-.26Z" transform="translate(0 -0.13)"/><path class="cls-5" d="M227.35,522.69a13.94,13.94,0,0,0,4.66-1.23,12.1,12.1,0,0,0,6.53-7.12,3.2,3.2,0,0,0,1,.94,14,14,0,0,1-4.88,6.11,16.11,16.11,0,0,1-6,2.38,8.59,8.59,0,0,0-1,.26Zm1-9.92a20.81,20.81,0,0,1,3.86,3l-.83,1a17.67,17.67,0,0,0-3.81-3.14Z" transform="translate(0 -0.13)"/><path class="cls-5" d="M246,513.12a9.2,9.2,0,0,0-.06-1.47h1.3a9.19,9.19,0,0,0-.08,1.47v2.34l6.5-.87a1.79,1.79,0,0,0,.91-.22l.78.66a4.91,4.91,0,0,0-.26.45,10.79,10.79,0,0,1-1.22,2,12.28,12.28,0,0,1-2.72,2.5,2.72,2.72,0,0,0-1-.77,8.86,8.86,0,0,0,3.63-3.71l-.37.08-.19,0-6.11.85v3.78c0,1.49.06,1.83.4,2.11s1,.4,2.32.4a18.14,18.14,0,0,0,4.66-.56l.08,1.3c-.43,0-.53,0-1,.08a28.38,28.38,0,0,1-3.79.29c-1.82,0-2.75-.22-3.27-.75s-.59-1-.59-2.64v-3.86l-1.94.27a10.06,10.06,0,0,0-1.57.27l-.14-1.2h.24c.27,0,.83,0,1.38-.11l2-.27Z" transform="translate(0 -0.13)"/><path class="cls-5" d="M262.73,512a8,8,0,0,0-.1,1.38c-.13,4.34-.26,5.52-.86,7.14a9.78,9.78,0,0,1-2.77,4,3,3,0,0,0-1-.86,7.92,7.92,0,0,0,2.71-3.68,21.85,21.85,0,0,0,.72-6.87,7.1,7.1,0,0,0-.06-1.14Zm4-.18a6.2,6.2,0,0,0-.1,1.41l-.1,9.67a7.39,7.39,0,0,0,3-1.86,7.92,7.92,0,0,0,1.89-3.2,4.47,4.47,0,0,0,.9.93,9.1,9.1,0,0,1-3.22,4.11,10.51,10.51,0,0,1-2.29,1.17l-.51.19a2.64,2.64,0,0,0-.37.18l-.64-.74a2.71,2.71,0,0,0,.11-1.09l.1-9.36a6.42,6.42,0,0,0-.06-1.42Z" transform="translate(0 -0.13)"/><path class="cls-5" d="M275.7,517.2a7.85,7.85,0,0,0-1.39.08v-1a7.21,7.21,0,0,0,1.39.08H277v-3.78a11.33,11.33,0,0,0-.1-1.71H278a10.69,10.69,0,0,0-.1,1.7v3.79h1a7.7,7.7,0,0,0,1.18-.06v1a8.33,8.33,0,0,0-1.2-.06H278a9.55,9.55,0,0,0,2.29,3,5.6,5.6,0,0,0-.56.87,9.46,9.46,0,0,1-1.87-2.82c0,.64.08,2.07.08,2.37v3a13.18,13.18,0,0,0,.1,1.76h-1.17a14.13,14.13,0,0,0,.1-1.78v-2.72c0-.74,0-1.63.08-2.48a12.16,12.16,0,0,1-2.46,4.58,3.37,3.37,0,0,0-.61-.9,10.14,10.14,0,0,0,1.9-2.69,13,13,0,0,0,.9-2.14Zm-.48-5.36a18.81,18.81,0,0,1,1.07,3.43l-.85.37a14.16,14.16,0,0,0-1.06-3.43Zm5.25.3a18,18,0,0,1-1.3,3.49l-.78-.37a12,12,0,0,0,1.17-3.47Zm5.19.38a10.18,10.18,0,0,0-.1-1.68h1.22a11.49,11.49,0,0,0-.1,1.67v7.36l.24,0a10,10,0,0,0,1.47-.45l.19,1.12a11.55,11.55,0,0,0-1.54.27l-.37.1v2.67a12.45,12.45,0,0,0,.1,1.75h-1.22a9.41,9.41,0,0,0,.1-1.76V521.1l-4.21,1a11.22,11.22,0,0,0-1.49.43l-.21-1.14a8.7,8.7,0,0,0,1.54-.26l4.37-1ZM281.38,516a14.23,14.23,0,0,1,2.87,2.43l-.67.8a11.78,11.78,0,0,0-2.9-2.5Zm.48-4a16.43,16.43,0,0,1,2.88,2.5l-.66.83a13.59,13.59,0,0,0-2.91-2.59Z" transform="translate(0 -0.13)"/><path class="cls-5" d="M294.9,513.31a6.8,6.8,0,0,0,.77-2.19l1.28.22a3.41,3.41,0,0,0-.42.86c-.21.51-.42.94-.5,1.09l.34,0a22.6,22.6,0,0,0,5-.61l.1,1.09a5,5,0,0,0-.64.08,51.65,51.65,0,0,1-5.28.42,11.81,11.81,0,0,1-1.44,2.27c-.16.19-.48.56-.54.61l-.21.16a0,0,0,0,1,0,0v0l0,0,.74-.56a4.26,4.26,0,0,1,2.42-.78,1.94,1.94,0,0,1,2.11,1.78c1.17-.46,2.08-.8,2.79-1.06a3.54,3.54,0,0,0,1.09-.46l.51,1.12a26.46,26.46,0,0,0-4.27,1.41c0,.42,0,.58,0,1,0,.21,0,.56,0,.88s0,.58,0,.72a3.45,3.45,0,0,0,0,.58l-1.09,0c0-.35.1-1.33.1-2.31a4.17,4.17,0,0,0,0-.48c-2.18,1-3,1.78-3,2.74s1,1.52,3.25,1.52a13.44,13.44,0,0,0,4.27-.62l.14,1.23a6,6,0,0,0-.64.08,25,25,0,0,1-3.89.32c-2.87,0-4.26-.82-4.26-2.47a3.31,3.31,0,0,1,1.63-2.53,12.44,12.44,0,0,1,2.38-1.28c-.13-.88-.51-1.26-1.26-1.26a6,6,0,0,0-3.57,1.7,5.3,5.3,0,0,0-1.23,1.33l-.9-.9a15.94,15.94,0,0,0,3.59-4.58l.14-.24-.3,0-2.35,0h-.26l-.35,0,0-1.1a22.37,22.37,0,0,0,3.43.18Z" transform="translate(0 -0.13)"/><path class="cls-5" d="M310.39,518.41c-1,.86-1.52,1.6-1.52,2.35s.46,1.26,1.36,1.57a10.23,10.23,0,0,0,2.93.32A15.16,15.16,0,0,0,318,522l.14,1.31a4.63,4.63,0,0,0-.54.08,26.1,26.1,0,0,1-4.32.37,11.3,11.3,0,0,1-3.68-.5,2.55,2.55,0,0,1-1.82-2.42,4.21,4.21,0,0,1,1.84-3.09Zm-1.68-5.84A18.28,18.28,0,0,0,313,513a17.48,17.48,0,0,0,4-.34l.08,1.06a22.78,22.78,0,0,0-4,2.43l-.82-.66a24.6,24.6,0,0,1,2.13-1.33l.4-.21c.11-.06.14-.06.3-.16a12.64,12.64,0,0,1-2.42.21,31.33,31.33,0,0,1-3.52-.21,3.88,3.88,0,0,0-.53,0Zm8,2.47a12.19,12.19,0,0,1,1.63,2.13l-.78.45a10.63,10.63,0,0,0-1.62-2.14Zm1.47-.87a12.27,12.27,0,0,1,1.63,2.13l-.78.45a10.63,10.63,0,0,0-1.62-2.14Z" transform="translate(0 -0.13)"/><path class="cls-5" d="M323.35,512.78a12.2,12.2,0,0,0-1.42.06v-1.07a9.42,9.42,0,0,0,1.42.1h2.48a9.76,9.76,0,0,0,1.34-.08v1.06a9.6,9.6,0,0,0-1.33-.06h-.56v10.56c0,1-.37,1.31-1.52,1.31-.42,0-.88,0-1.52-.06a4,4,0,0,0-.22-1.06,9.77,9.77,0,0,0,1.7.16c.42,0,.56-.1.56-.38V512.78ZM330.46,523a11.5,11.5,0,0,1-3.7,2.29,3.68,3.68,0,0,0-.66-.83,8.37,8.37,0,0,0,3.51-2Zm-1.39-10.58a14.15,14.15,0,0,0-1.58.06v-1.07a10.82,10.82,0,0,0,1.58.1h5.62a7.47,7.47,0,0,0,1.52-.1v1.09a10.5,10.5,0,0,0-1.49-.08h-2.59l-.13.35a9.15,9.15,0,0,1-.56,1.28h2.48a9.51,9.51,0,0,0,1.47-.06,11.17,11.17,0,0,0-.06,1.49v5.15a13.57,13.57,0,0,0,.06,1.58,11.83,11.83,0,0,0-1.46-.06h-4.72a10,10,0,0,0-1.39.06,14.23,14.23,0,0,0,.06-1.58v-5.22a10.46,10.46,0,0,0-.06-1.42,7.72,7.72,0,0,0,1.34.06h1.25a11.54,11.54,0,0,0,.67-1.63Zm-.22,4h5.51v-1.51h-5.51Zm0,2.42h5.51v-1.57h-5.51Zm0,2.48h5.51v-1.63h-5.51Zm4.19,1.12a10.55,10.55,0,0,0,3.46,2,3.32,3.32,0,0,0-.67.85,14,14,0,0,1-3.55-2.23Z" transform="translate(0 -0.13)"/><path class="cls-5" d="M351.47,516.46a7.52,7.52,0,0,0-.32,1,16.88,16.88,0,0,1-1.65,3.92,9.54,9.54,0,0,0,.83,1.84c.27.45.61.8.75.8s.5-.9.67-2.38a3.33,3.33,0,0,0,.86.69c-.37,2-.78,2.82-1.44,2.82s-1.6-1-2.32-2.77a13.84,13.84,0,0,1-2.77,3,2.48,2.48,0,0,0-.77-.7,11.08,11.08,0,0,0,3.17-3.3,25.84,25.84,0,0,1-.93-6.53h-8a11,11,0,0,0-1.58.1v-1a8.92,8.92,0,0,0,1.58.1h2.69v-1.17h-1.84a8.18,8.18,0,0,0-1.39.08v-1a8,8,0,0,0,1.39.08h1.84v-.13a3.87,3.87,0,0,0-.1-1.06h1.1a4.94,4.94,0,0,0-.1,1.06V512h1.73a7.76,7.76,0,0,0,1.38-.08v1a8.09,8.09,0,0,0-1.38-.08h-1.73V514h4.4c0-.4,0-.4,0-1.84a6.87,6.87,0,0,0-.1-1.23h1.17a8.19,8.19,0,0,0-.1,1.44c0,.35,0,.58,0,1.63h2.13a8.91,8.91,0,0,0,1.58-.1v1a11,11,0,0,0-1.58-.1h-2.1a26,26,0,0,0,.61,5.36,11.91,11.91,0,0,0,1.3-4.07Zm-11.43,3c-.37,0-.69,0-1.09,0a8.9,8.9,0,0,0,.06-1.2v-1.55a9.1,9.1,0,0,0-.06-1.2,7.88,7.88,0,0,0,1.22.06h5.07a7.78,7.78,0,0,0,1.2-.06c0,.38,0,.71,0,1.22v1.52c0,.53,0,.83,0,1.22-.4,0-.7,0-1.12,0h-.67v.8h.77a10,10,0,0,0,1.33-.06v.85a10.38,10.38,0,0,0-1.33-.06h-.77v.91h1.15a10.92,10.92,0,0,0,1.38-.06v.86a11.23,11.23,0,0,0-1.38-.06h-6.45a8.2,8.2,0,0,0-1.38.08v-.9a8.31,8.31,0,0,0,1.38.08h1.41V521h-.93a7.56,7.56,0,0,0-1.34.08v-.88a7.56,7.56,0,0,0,1.34.08h.93v-.8Zm1.73,3.87a7.33,7.33,0,0,1-2.87,2,2.51,2.51,0,0,0-.75-.64,5.77,5.77,0,0,0,2.78-1.71Zm-1.92-7v.88h2.4v-.88Zm0,1.55v.9h2.4v-.9Zm1.78,2.38h2.18v-.8h-2.18Zm0,1.63h2.18V521h-2.18Zm1.44-5.57v.88h2.5v-.88Zm0,1.55v.9h2.5v-.9Zm.8,4.91a5.1,5.1,0,0,0,1.73,1.26,3.77,3.77,0,0,0-.66.67,10.1,10.1,0,0,1-1.79-1.47Zm7.17-9.17a9.56,9.56,0,0,0-1.86-2l.67-.45a10,10,0,0,1,1.89,1.89Z" transform="translate(0 -0.13)"/><path class="cls-5" d="M356.61,512.75a11.58,11.58,0,0,0-.11,1.9,27.41,27.41,0,0,0,.42,5c.35,1.63,1,2.74,1.62,2.74.29,0,.56-.27.8-.8a11.51,11.51,0,0,0,.83-2.74,5.13,5.13,0,0,0,.94.91c-.78,2.8-1.52,3.87-2.66,3.87-.9,0-1.73-.9-2.27-2.43s-.78-3.57-.86-7.51a8.6,8.6,0,0,0,0-.94Zm7.73.85a13.89,13.89,0,0,1,2.29,3.65,15.34,15.34,0,0,1,1.2,4.27l-1.14.46a14.14,14.14,0,0,0-3.33-7.89Z" transform="translate(0 -0.13)"/><path class="cls-5" d="M370.87,514a11,11,0,0,0,2,.14c.32,0,.5,0,1,0a15.64,15.64,0,0,0,.35-2.95l1.26.13a15.1,15.1,0,0,0-.29,1.52c-.08.51-.13.74-.21,1.22a13.26,13.26,0,0,0,2.88-.54l.08,1.1-.45.08a23.13,23.13,0,0,1-2.71.38c-.24,1.27-.69,3.07-1.12,4.53a42.24,42.24,0,0,1-1.84,4.88l-1.17-.5a32.19,32.19,0,0,0,3-8.85c-.32,0-.51,0-1.1,0s-.7,0-1.33,0h-.06l-.27,0Zm7.15,5.81a5.27,5.27,0,0,0-.48.61,1.92,1.92,0,0,0-.4,1.14c0,1,1,1.47,2.8,1.47a11.88,11.88,0,0,0,3.54-.54l.11,1.2-.7.11a16.09,16.09,0,0,1-2.85.27c-2.62,0-4-.82-4-2.4,0-.72.22-1.22,1.07-2.3Zm4.95-2.77a16.06,16.06,0,0,0-1.89-.11,13.92,13.92,0,0,0-4,.54l-.11-1.09a18.13,18.13,0,0,1,4.24-.53c.3,0,.54,0,1.75,0Z" transform="translate(0 -0.13)"/><path class="cls-5" d="M390.2,511.6A24.68,24.68,0,0,0,390,515c-.06,1.92-.11,4.1-.11,4.82,0,.19,0,.59,0,1a2.52,2.52,0,0,0,.75,1.92,3,3,0,0,0,2,.62,4.6,4.6,0,0,0,4.29-2.79,9.51,9.51,0,0,0,.78-2.51,4.53,4.53,0,0,0,1.15.77,9.74,9.74,0,0,1-1.78,3.63,5.6,5.6,0,0,1-4.51,2,3.8,3.8,0,0,1-3-1.12c-.66-.75-.88-1.6-.88-3.28,0-1.07,0-1.47.14-6.51,0-.48,0-.79,0-1a4.88,4.88,0,0,0-.06-.85Z" transform="translate(0 -0.13)"/><path class="cls-5" d="M414.46,523.92a12.92,12.92,0,0,0-3.27-2.29c-.27-.14-.64-.3-1.07-.48a4.66,4.66,0,0,1,0,.58,2.78,2.78,0,0,1-.4,1.75,3.22,3.22,0,0,1-2.71,1,4.17,4.17,0,0,1-2.48-.64,2.09,2.09,0,0,1-.86-1.68c0-1.06.83-1.89,2.24-2.21a7,7,0,0,1,1.66-.16,7.16,7.16,0,0,1,1.44.13s0,0,0-.19a1.3,1.3,0,0,1,0-.18c0-.14,0-.48,0-.95,0-.21,0-.51,0-.93l-1.89,0c-1,0-1.71,0-2.71-.11l-.4,0h-.13l0-1.06a19.65,19.65,0,0,0,3.67.26c.42,0,1,0,1.42,0l0-2.19-1.09,0c-1.17,0-2.46,0-3.91-.16l-.29,0-.22,0,0-1.09a19.93,19.93,0,0,0,4.1.32l1.39,0a12.56,12.56,0,0,0-.08-2.31h1.23a17.92,17.92,0,0,0-.11,2.26,22.6,22.6,0,0,0,4.74-.66l.08,1.09c-.27,0-.27,0-1.1.13a33.18,33.18,0,0,1-3.71.38c0,1.31,0,1.31,0,2.16a19.29,19.29,0,0,0,4.43-.66l.06,1.1c-.21,0-.37,0-.93.11-1.1.18-2.37.3-3.55.38,0,.9,0,.9.1,2.45a14,14,0,0,1,4.47,2.34,5.55,5.55,0,0,0,.54.37Zm-5.41-3a5.89,5.89,0,0,0-1.63-.18c-1.58,0-2.63.58-2.63,1.42s.8,1.33,2.19,1.33a2.31,2.31,0,0,0,1.76-.53,2.09,2.09,0,0,0,.32-1.44Z" transform="translate(0 -0.13)"/><path class="cls-5" d="M425.91,512.16a5.37,5.37,0,0,0-.06-.93H427a13.26,13.26,0,0,0-.08,2v.18c3,0,4.26,0,4.79-.11v1.14a28.61,28.61,0,0,0-3.06-.08l-1.71,0v3.17a4.59,4.59,0,0,1,.38,1.89,5.15,5.15,0,0,1-2.15,4.18,10.14,10.14,0,0,1-2.53,1.3,3.51,3.51,0,0,0-.7-1,8.21,8.21,0,0,0,2.59-1.2,4.14,4.14,0,0,0,1.79-3.38,2.23,2.23,0,0,1-.43.78,2.68,2.68,0,0,1-4.64-1.67,2.66,2.66,0,0,1,2.83-2.64,2.45,2.45,0,0,1,1.86.72c0-.22,0-.29,0-.88,0-.06,0-.22,0-.42v-.83c-3.22.06-6.45.22-7.52.4l0-1.17.64,0c.46,0,.46,0,3-.1,1.54-.06,2.79-.1,3.87-.13Zm-.69,4.82a2,2,0,0,0-1.07-.26,1.69,1.69,0,0,0-1.78,1.68A1.55,1.55,0,0,0,424,520a1.79,1.79,0,0,0,1.87-1.89A1.16,1.16,0,0,0,425.22,517Z" transform="translate(0 -0.13)"/><path class="cls-5" d="M438.77,522.72a2.4,2.4,0,1,1-2.4-2.4A2.4,2.4,0,0,1,438.77,522.72Zm-3.89,0a1.49,1.49,0,1,0,1.49-1.49A1.5,1.5,0,0,0,434.89,522.72Z" transform="translate(0 -0.13)"/><line class="cls-6" x1="193.09" y1="233.37" x2="503.09" y2="233.37"/><rect class="cls-4" x="193.09" y="263.87" width="80" height="30"/><path class="cls-7" d="M209.94,276a14.94,14.94,0,0,0,1.42-3c.93.32,1.39.59,1.39.8s-.22.21-.66.22a12.17,12.17,0,0,1-1.63,2h2.64l.58-.72c.66.66,1,1,1,1.22s-.08.14-.19.18l-.43.11a15.07,15.07,0,0,1-1.41,1.31l-.29-.22a6.85,6.85,0,0,0,.77-1.5h-9.51a3.86,3.86,0,0,1-.3,1.63c-.22.53-.5.8-.83.8s-.51-.16-.51-.48a.67.67,0,0,1,.22-.45,3.8,3.8,0,0,0,1-2.45l.38.08s0,.21,0,.5Zm-6.13-2.79Q206,274,206,275c0,.37-.18.54-.51.54s-.37-.14-.48-.43a3.75,3.75,0,0,0-1.39-1.62Zm7,4.53.48-.58c.56.42.85.7.85.8s0,.11-.13.18l-.32.19V281h-.77v-.56h-2.27a13.46,13.46,0,0,1-1.07,1.71h4.18l.51-.61q.91.67.91.86c0,.06,0,.13-.16.19l-.34.19V286h-.8v-.85h-7.24V286h-.82v-4.27l.93.4h2.34a9,9,0,0,0,.46-1.71h-2V281h-.78v-3.62l.91.32Zm1.07,7.08v-2.31h-7.24v2.31Zm-6.31-6.71v2h5.35v-2Zm1.26-5.11c1.36.56,2,1.18,2,1.87,0,.4-.19.58-.56.58s-.38-.16-.46-.48a3.53,3.53,0,0,0-1.22-1.71Z" transform="translate(0 -0.13)"/><path class="cls-7" d="M224.63,278.81v1.25h3.12l.67-.77a8.6,8.6,0,0,1,.94.88l-.19.26h-4.55v1.31h4.27l.77-.88a12.73,12.73,0,0,1,1,.93l-.18.3h-5.6a14.75,14.75,0,0,0,5.94,2.38,4.14,4.14,0,0,0-.69.88,12.77,12.77,0,0,1-5.51-3V286h-.85v-3.38a14.08,14.08,0,0,1-5.75,3.06l-.21-.32a13.38,13.38,0,0,0,5.35-3.31h-5.11l-.16-.35h5.87v-1.31h-4.07l-.14-.37h4.21v-1.25h-5.06l-.18-.35h3.84a.54.54,0,0,1-.3-.43,2.22,2.22,0,0,0-.78-1.12l.16-.24c1,.32,1.58.75,1.58,1.3a.54.54,0,0,1-.4.5h2.71a9.91,9.91,0,0,0,.75-1.86c.78.27,1.17.51,1.17.69s-.19.18-.58.19a7.34,7.34,0,0,1-.83,1h2.5l.74-.86a10.85,10.85,0,0,1,1,1l-.18.26Zm1.87-2.58a18.31,18.31,0,0,0,1.15-2.72c.78.32,1.17.56,1.17.74s-.18.19-.58.21a10.46,10.46,0,0,1-1.3,1.78h2l.69-.93a9.18,9.18,0,0,1,1,1l-.16.29h-12.2l-.16-.35h4.58v-3.06c.88,0,1.31.14,1.31.34s-.18.22-.51.35v2.37H225v-3.09c.88,0,1.33.16,1.33.37s-.19.24-.54.37v2.35Zm-6.67-2.54c1.22.58,1.81,1.2,1.81,1.9,0,.37-.16.56-.5.56s-.4-.18-.48-.53a3.07,3.07,0,0,0-1-1.68Z" transform="translate(0 -0.13)"/><path class="cls-7" d="M237.3,274.56l.54-.67q.82.67.82.86a.28.28,0,0,1-.14.22l-.29.19v8.92h-.8v-1h-2.23v1.54h-.8V274.12a10.12,10.12,0,0,1,1,.45Zm-2.1.37v3.55h2.23v-3.55Zm2.23,7.76v-3.84h-2.23v3.84Zm5.28-7v2.24h2.63l.7-1c.4.43.69.78.9,1.06l-.14.29h-8.23l-.16-.37h3.51v-2.24h-2.69l-.18-.37h2.86v-2.16c.93,0,1.39.14,1.39.32s-.21.26-.59.4v1.44h1.9l.69-.93a10.73,10.73,0,0,1,.88,1l-.16.29Zm2,5v4.13c0,.74-.5,1.12-1.49,1.12a.56.56,0,0,0-.35-.56,9.55,9.55,0,0,0-1.6-.34v-.38c.86.06,1.55.11,2.08.11.37,0,.54-.14.54-.45v-3.63h-5.09l-.16-.35h5.25v-2c.88.18,1.31.35,1.31.5s-.18.21-.5.3v1.22h.74l.59-1a9.21,9.21,0,0,1,.78,1l-.16.3Zm-4.72.38c1.42.69,2.13,1.36,2.13,2,0,.37-.16.54-.5.54a.43.43,0,0,1-.43-.32,4.52,4.52,0,0,0-1.39-2Z" transform="translate(0 -0.13)"/><path class="cls-7" d="M254.49,273.81l.54-.64c.5.42.75.69.75.82s0,.14-.1.18l-.29.18v4h-.8v-.75h-3.27V286h-.86V273.32a10.28,10.28,0,0,1,1.06.5Zm-3.15.35v1.26h3.27v-1.26Zm0,3h3.27V275.8h-3.27Zm6.31,2.13.48-.59c.58.45.88.74.88.86a.2.2,0,0,1-.11.16l-.34.22v4.51h-.8v-.79h-3.3v1h-.83v-5.79l.91.4Zm-3.19.35v1.58h3.3v-1.58Zm3.3,3.68v-1.73h-3.3v1.73Zm3.33-9.54.5-.64q.86.67.86.86c0,.06,0,.11-.11.18l-.29.21v10.5c0,.7-.48,1-1.44,1a.62.62,0,0,0-.46-.61,8.32,8.32,0,0,0-1.09-.24v-.37a13,13,0,0,0,1.57.1c.37,0,.56-.14.56-.43v-6.83h-3.43v.67h-.82v-4.85c.37.16.7.29,1,.43Zm-3.33.35v1.26h3.43v-1.26Zm3.43,3V275.8h-3.43v1.39Z" transform="translate(0 -0.13)"/></g></g></svg>