<svg xmlns="http://www.w3.org/2000/svg" xmlns:xlink="http://www.w3.org/1999/xlink" viewBox="0 0 669.19 852.22"><defs><style>.cls-1,.cls-6{fill:none;}.cls-2{clip-path:url(#clip-path);}.cls-3{opacity:0.31;}.cls-4{fill:#527c68;}.cls-5{fill:#333;}.cls-6{stroke:gray;stroke-miterlimit:10;stroke-width:0.71px;}.cls-7{fill:#fff;}</style><clipPath id="clip-path" transform="translate(-0.66)"><rect class="cls-1" x="12.5" y="169.62" width="645" height="670" transform="translate(839.62 169.62) rotate(90)"/></clipPath></defs><title>Asset 69</title><g id="Layer_2" data-name="Layer 2"><g id="text"><g class="cls-2"><image class="cls-3" width="632" height="421" transform="translate(669.19) rotate(90) scale(1.35 1.59)" xlink:href="../../../190325 2/190325/design_underA/Links/BGT046_8.JPG"/></g><path class="cls-4" d="M33.66,222.59v1.64H26v25.58H24.33V222.59Z" transform="translate(-0.66)"/><path class="cls-4" d="M63,229.18a36.52,36.52,0,0,0,1.76-6.81c2.48.46,3.78,1,3.78,1.47,0,.34-.55.63-1.55.8a22.63,22.63,0,0,1-2.69,4.54H75.11l1.47-1.77c1.64,1.22,2.48,2,2.48,2.39a.48.48,0,0,1-.25.38l-1,.67v25.54H75.53V253H57v3.45H54.65V227.92c.88.38,1.85.76,2.77,1.26Zm-6,1v6.39H75.53v-6.39ZM75.53,244v-6.55H57V244Zm0,8v-7.1H57V252Z" transform="translate(-0.66)"/><path class="cls-4" d="M118.58,232.34c.13-1.34.21-2.52.21-3.66V223c2.35,0,3.53.34,3.53.88,0,.34-.46.67-1.43,1v3.78c0,1.47-.08,2.65-.17,3.66H127l1.64-2.23c.8.8,1.55,1.6,2.27,2.44l-.42.71h-9.2a23.11,23.11,0,0,0,10,11.22,8,8,0,0,0-1.85,2.14,23.28,23.28,0,0,1-9-12.52,16.29,16.29,0,0,1-3.53,8.15,19.66,19.66,0,0,1-6.72,4.71l-.5-.88a17,17,0,0,0,7.14-7.18,21.21,21.21,0,0,0,1.6-5.63h-5.5a30.18,30.18,0,0,1-14.16,15.16l-.55-.84a31.39,31.39,0,0,0,13.9-19h-5.88c-.42.84-.88,1.68-1.3,2.52,3.07,1.22,4.58,2.48,4.58,3.95a1,1,0,0,1-1.09,1.13c-.5,0-.88-.38-1.13-1a7.8,7.8,0,0,0-2.86-3.19,35.93,35.93,0,0,1-2.06,3c2.81,1.55,4.24,3.07,4.24,4.58,0,.84-.38,1.22-1.09,1.22-.5,0-.88-.38-1.13-1.22a9.82,9.82,0,0,0-2.6-3.82,34.57,34.57,0,0,1-3.7,3.78l-.63-.71a35.89,35.89,0,0,0,8.23-15.92c2.31.63,3.49,1.22,3.49,1.64s-.59.59-1.68.76a23.49,23.49,0,0,1-.84,2.35H112l1.39-1.68c1.47,1.3,2.23,2.18,2.23,2.56,0,.17-.17.34-.38.46l-1,.46c-.34,1.09-.63,2.06-1,2.9ZM104.8,247.75a13.17,13.17,0,0,1-2.69,7.39,3.3,3.3,0,0,1-2.44,1.47,1.21,1.21,0,0,1-1.34-1.38c0-.42.42-.88,1.22-1.39,1.93-1.22,3.4-3.32,4.37-6.39Zm4.58-.42c1.89,2.35,2.81,4.45,2.81,6.38,0,1.47-.55,2.19-1.55,2.19-.71,0-1.05-.42-1.05-1.3v-.25a9.93,9.93,0,0,0,0-1.22,16.17,16.17,0,0,0-1-5.42Zm6.85-.17c3.19,2.48,4.83,4.79,4.83,6.93q0,1.76-1.51,1.76c-.71,0-1.09-.5-1.22-1.51a14,14,0,0,0-2.77-6.6Zm7-22.89c2.86,1.43,4.33,2.9,4.33,4.41,0,1-.46,1.43-1.34,1.43-.63,0-.92-.42-1.09-1.22a7.3,7.3,0,0,0-2.44-4Zm.5,22.77a18.47,18.47,0,0,1,5.76,4.24,4.11,4.11,0,0,1,1.34,2.81c0,1-.5,1.6-1.39,1.6-.67,0-1.13-.5-1.47-1.51-.63-2-2.27-4.2-4.79-6.47Z" transform="translate(-0.66)"/><path class="cls-4" d="M177.34,238.13a16.15,16.15,0,0,1-.55,5.8,9.3,9.3,0,0,1-4.07,5.29,19.4,19.4,0,0,1-6.93,2.52,18.05,18.05,0,0,1-6.76,0c-.42,0-.63-.21-.59-.42s.25-.38.59-.34a18.66,18.66,0,0,0,7.27-.59,18.51,18.51,0,0,0,5.13-2.48,9.56,9.56,0,0,0,3.61-6,14.82,14.82,0,0,0-.55-6.93,8.76,8.76,0,0,0-3.7-5.21,11.88,11.88,0,0,0-7.31-1.55c-.34,0-.71.13-1.09.17.08.84.08,2.18.13,3.23a27.83,27.83,0,0,1-.63,5.76,18.61,18.61,0,0,1-2.94,7.39c-1.6,2.1-3.53,3.53-5.5,3.53s-3.36-1.13-4.29-3.19a9.06,9.06,0,0,1-.55-6.26,12.65,12.65,0,0,1,2.81-5.84,17.82,17.82,0,0,1,5.38-4.41,17.2,17.2,0,0,1,7.94-1.85,13.24,13.24,0,0,1,6.68,1.76,12.3,12.3,0,0,1,4.41,4.41A11.19,11.19,0,0,1,177.34,238.13Zm-16.21-9.37a16.94,16.94,0,0,0-5.29,2.44,14.05,14.05,0,0,0-5,6.18,10,10,0,0,0-.34,6.38c.59,1.43,2,1.72,3.7,1.18a7.46,7.46,0,0,0,4.24-3.44,16.17,16.17,0,0,0,2.44-6.76A30.12,30.12,0,0,0,161.12,228.76Z" transform="translate(-0.66)"/><path class="cls-4" d="M200.31,246.11a11.92,11.92,0,0,1-2,6.85q-1.26,1.76-2.52,1.76a1.64,1.64,0,0,1-1-.42,1.45,1.45,0,0,1-.5-1c0-.46.42-.92,1.18-1.39,2-1.13,3.28-3.15,3.91-6.13Zm9.49-14.62v-3.4H195.31l-.46-.92h15v-4.49c2.65.08,3.95.38,3.95,1,0,.34-.59.71-1.72,1.09v2.44h10.71l2-2.65a18.37,18.37,0,0,1,2.6,2.81l-.42.76H212v3.4h8l1.43-1.64c1.55,1.13,2.35,1.89,2.35,2.27a.52.52,0,0,1-.34.5l-.92.59v10.63h-2.14v-1.55h-18.9v2.06h-2.14v-14a5,5,0,0,0,.76.25c.84.34,1.51.67,2,.88Zm-8.28,1v3.82h8.28v-3.82Zm8.28,4.79h-8.28v4.08h8.28Zm9.79,11.47a13,13,0,0,0,.29,3.57,1.31,1.31,0,0,0,1.3.88,2.06,2.06,0,0,1-1.85,2.1,57.55,57.55,0,0,1-7.81.29c-4,0-6.26-.17-6.8-.59a2.63,2.63,0,0,1-.76-2.18v-8c2.48.13,3.74.46,3.74,1,0,.25-.55.59-1.55,1v5.42c0,.63.25,1,.59,1a22.24,22.24,0,0,0,4.58.25,29.8,29.8,0,0,0,5.46-.29c1-.25,1.55-1.89,1.72-4.92Zm-9.83-5.63c3.82,1.76,5.75,3.57,5.75,5.42,0,1-.46,1.39-1.3,1.39-.55,0-.92-.38-1.18-1.18a11.45,11.45,0,0,0-3.78-5Zm10.67-6.81v-3.82H212v3.82Zm0,5v-4.08H212v4.08Zm.55,3.78c4.79,2.23,7.18,4.54,7.18,7q0,1.51-1.39,1.51c-.59,0-1.05-.42-1.43-1.39a14.62,14.62,0,0,0-4.91-6.38Z" transform="translate(-0.66)"/><path class="cls-4" d="M243.65,256.28v-1.64h7.65V229.06H253v27.22Z" transform="translate(-0.66)"/><path class="cls-5" d="M38.82,295.4a10.75,10.75,0,0,0,1.51-2.55c1.18.59,1.71,1,1.71,1.29s-.31.31-1,.31c-.45.39-1,.78-1.54,1.2,1.79.7,2.72,1.4,2.72,2.16,0,.5-.22.78-.7.78-.25,0-.53-.22-.84-.62a9.66,9.66,0,0,0-3.11-2.32A7.42,7.42,0,0,0,40,299.94a3.13,3.13,0,0,0,1.6,1c.53,0,1-1.06,1.32-3.22l.64.28a22.62,22.62,0,0,0-.22,2.44c0,.81.25,1.26.76,1.37a1.18,1.18,0,0,1-1.29,1.09,6,6,0,0,1-4-2c-1.88-1.76-2.8-4.4-2.83-7.9H32.71v10.05H31.28V293H27.64a15.29,15.29,0,0,1-1.34,5.68,11.44,11.44,0,0,1-4.68,4.79L21.2,303a13.08,13.08,0,0,0,5-9.83H21.71l-.2-.62h4.65a9.75,9.75,0,0,0,.06-1.06v-3.58a35.49,35.49,0,0,1-4,1.06l-.31-.59a21.94,21.94,0,0,0,7.17-3.44c1.06.62,1.6,1.12,1.6,1.37s-.22.25-.62.25l-.62,0c-.56.28-1.18.56-1.79.81v5.07h3.61v-7.25c1.65.08,2.44.28,2.44.64s-.31.45-1,.67v5.94h3l1-1.09c1,.78,1.48,1.26,1.48,1.46s-.08.2-.22.31l-.59.36c0,.7.06,1.2.08,1.57C38.12,295.15,38.56,295.32,38.82,295.4Zm.06-9.38a11.77,11.77,0,0,0,1.54-2.77c1.18.62,1.79,1.06,1.79,1.37s-.34.31-1,.31a13.31,13.31,0,0,1-1.6,1.34c1.6.56,2.41,1.2,2.41,1.82s-.22.76-.7.76a1.32,1.32,0,0,1-.84-.56,8,8,0,0,0-2.86-2,6.35,6.35,0,0,0,2.41,4,3.06,3.06,0,0,0,1.46.7c.42,0,.78-.87,1.06-2.69l.62.28c-.08.81-.11,1.37-.11,1.62q0,1.3.76,1.43a1.14,1.14,0,0,1-1.29,1.12,5.87,5.87,0,0,1-4.09-1.93c-1.48-1.46-2.3-3.84-2.44-7.11H22.69l-.22-.64h13.3l.92-1.15c1,.78,1.57,1.32,1.57,1.54a.58.58,0,0,1-.25.36l-.62.36c0,.67.08,1.18.11,1.51C38,285.77,38.51,285.89,38.87,286Z" transform="translate(-0.66)"/><path class="cls-5" d="M50.86,296.5a18.71,18.71,0,0,1,.17,2.07c0,2.49-.53,3.75-1.54,3.75-.48,0-.73-.22-.73-.7a1.52,1.52,0,0,1,.31-.67,8.63,8.63,0,0,0,1.15-4.51Zm4.54-2.91h1.9l.87-1.06q1.43,1.13,1.43,1.51a.34.34,0,0,1-.17.25l-.56.34c0,4.28-.39,6.92-1.06,7.9a2.42,2.42,0,0,1-2.21,1,1,1,0,0,0-.76-1,10.16,10.16,0,0,0-1.82-.36v-.64c.87.08,1.74.14,2.6.14a1.19,1.19,0,0,0,1.32-1,28.9,28.9,0,0,0,.56-6.47H51.81v1.09H50.38V281.85l.25.11a1.92,1.92,0,0,0,.36.14,3,3,0,0,0,.36.2,2.91,2.91,0,0,0,.48.2l.17.11h4.82l1.06-1.37c.5.48,1,1,1.48,1.51l-.28.5h-3.7v2.83h1l.92-1.32a7.93,7.93,0,0,1,1.34,1.51l-.25.45h-3v3h1l1-1.29a12.39,12.39,0,0,1,1.37,1.48l-.34.42h-3Zm-3.28,2.77a8.81,8.81,0,0,1,1,3.42c0,.87-.28,1.32-.81,1.32s-.62-.2-.62-.56c0-.06.06-.2.08-.42a8.06,8.06,0,0,0,.11-1.26,9.9,9.9,0,0,0-.34-2.32Zm-.31-10.28H54v-2.83H51.81Zm2.21.64H51.81v3H54Zm0,6.86v-3.22H51.81v3.22ZM53.54,296a5.86,5.86,0,0,1,1.54,3.53c0,.56-.25.84-.73.84s-.53-.31-.53-.9a7.55,7.55,0,0,0-.81-3.28Zm1.4-.59q1.85,1.64,1.85,3c0,.48-.2.73-.62.73s-.53-.28-.59-.78a5.83,5.83,0,0,0-1-2.69Zm12.12-8.54A35.47,35.47,0,0,0,69.14,281c1.51.5,2.3,1,2.3,1.34s-.36.39-1.06.42a23.57,23.57,0,0,1-2.52,4.09h1.23l.9-1c1,.76,1.46,1.26,1.46,1.48a.37.37,0,0,1-.17.25l-.62.39v7.73h-1.4v-1.09H66.12v3.05h3.36l1.2-1.51a12.26,12.26,0,0,1,1.57,1.65l-.28.48H66.12v5.35h-1.4v-5.35H59.4l-.2-.62h5.52v-3.05h-3v1.29h-1.4V286c.53.25,1.06.53,1.57.81Zm-7-5.68c2,1.29,3,2.6,3,3.92,0,.7-.34,1-.9,1s-.7-.34-.78-1.06a6.63,6.63,0,0,0-1.68-3.47Zm1.62,6.33v2.8h3v-2.8Zm3,3.42h-3v3h3ZM63.62,281c1.71,1.23,2.6,2.52,2.6,3.86,0,.67-.31,1-.9,1s-.67-.25-.7-.78a6.68,6.68,0,0,0-1.43-3.7Zm5.63,9.3v-2.8H66.12v2.8Zm0,3.64v-3H66.12v3Z" transform="translate(-0.66)"/><path class="cls-5" d="M89.47,288.38v6.38h6.86L97.78,293a16.46,16.46,0,0,1,1.74,1.9l-.28.5H89.47v8.2H88v-8.2h-10l-.22-.62H88v-6.38h-5.6a19.58,19.58,0,0,1-3.28,5.24l-.48-.36a29.89,29.89,0,0,0,3.67-10.61c1.71.34,2.6.67,2.6,1.09,0,.22-.39.42-1.12.53-.36,1.26-.73,2.44-1.12,3.5H88v-6.19c1.79,0,2.74.22,2.74.64,0,.25-.45.5-1.23.76v4.79h5L95.8,286a12.1,12.1,0,0,1,1.76,1.82l-.28.53Z" transform="translate(-0.66)"/><path class="cls-5" d="M126.09,288.43a3.82,3.82,0,0,1-2.52,5.66,6.61,6.61,0,0,1-3.78-.36,7.51,7.51,0,0,1-3.25-2.38c-.17-.22-.17-.5-.06-.56a.53.53,0,0,1,.62.17,6.72,6.72,0,0,0,3.16,1.88,4.32,4.32,0,0,0,3.92-.59,2.55,2.55,0,0,0,.17-3.61,5,5,0,0,0-4.65-1.09,14.61,14.61,0,0,0-4.4,1.9c-.45.25-1.06.62-1.68,1,.42,1.09,1,2.44,1.26,3.14.39.9,1.34,3,1.74,4.09a8.4,8.4,0,0,1,.59,3.25c-.08,1.06-.48,1.82-1.06,1.76s-.87-.73-.81-1.57a8.52,8.52,0,0,0-.22-2.63c-.36-1.46-.92-2.77-1.43-4.37-.34-1.15-.7-2.18-1.06-3.11-.84.48-1.62.9-2.1,1.12a4.31,4.31,0,0,1-2.21.76,2.16,2.16,0,0,1-1.4-.56c-.31-.28-.56-.67-.42-1s.76-.39,1.4-.34a4.63,4.63,0,0,0,2.13-.45l2-1c-.42-1-.84-1.82-1.09-2.46a3.93,3.93,0,0,1-.08-2.41,2.08,2.08,0,0,1,1.48-1.32,4.85,4.85,0,0,1,2.27.11,7,7,0,0,1,1.54.62c.28.14.56.31.73.14a1.89,1.89,0,0,0,.06-.81c0-.31,0-.7.28-.73s.48.2.73.45a11.71,11.71,0,0,1,.81.9,1.8,1.8,0,0,1,.42,1.15c0,.42,0,.84-.34,1a1.52,1.52,0,0,1-1.37-.11,8,8,0,0,1-1.26-1,4.69,4.69,0,0,0-1.9-1.06,1.85,1.85,0,0,0-1.93.48,2.8,2.8,0,0,0-.17,2.24,18.28,18.28,0,0,0,.9,2.32c.39-.17.78-.36,1.09-.5,1.29-.56,3.11-1.4,4.54-1.85a7.63,7.63,0,0,1,4.2-.36A4.67,4.67,0,0,1,126.09,288.43Z" transform="translate(-0.66)"/><path class="cls-5" d="M138.64,293.3a19.45,19.45,0,0,1-5.21,2.8l-.36-.53a16.55,16.55,0,0,0,7.42-6.22h-6.55l-.28-.62h10.14v-1.79h-7.84l-.25-.64h8.09v-1.54h-9.24l-.28-.64H146.2a23,23,0,0,0,1.54-3.36c1.51.39,2.27.73,2.27,1.09,0,.17-.36.34-1.12.39a18.3,18.3,0,0,1-1.76,1.88H152l1.23-1.48a20.08,20.08,0,0,1,1.74,1.65l-.25.48h-9.58v1.54h5.52l1.09-1.23a11.34,11.34,0,0,1,1.6,1.46l-.34.42h-7.87v1.79h7.45l1.18-1.48a13.84,13.84,0,0,1,1.71,1.65l-.22.45h-7a18.51,18.51,0,0,0,8,4.51,3.71,3.71,0,0,0-1.18,1.32,17.24,17.24,0,0,1-4.28-2.32l-.28.22V298h-1.37v-.42h-4.7a14.44,14.44,0,0,0,3.67,2.55,20.6,20.6,0,0,0,3.75-3.3c1.15.67,1.71,1.15,1.71,1.43s-.17.25-.56.25a3.49,3.49,0,0,1-.59-.06,22.55,22.55,0,0,1-3.56,2,24,24,0,0,0,6.78,1.4,4.43,4.43,0,0,0-1.12,1.51,19.64,19.64,0,0,1-8-2.88,16.7,16.7,0,0,1-3.08-2.91H140v3.7c2.18-.25,4.06-.56,5.6-.87l.08.67a79,79,0,0,1-9.21,2q-.13.84-.5.84c-.36,0-.73-.76-1.09-2.18.5,0,1.74-.08,3.72-.28Zm.64-12.52c2.21.53,3.33,1.29,3.33,2.27,0,.62-.25.92-.78.92s-.64-.25-.84-.73a4.14,4.14,0,0,0-1.93-2Zm4.51,11.42v-2.16c1.48,0,2.24.22,2.24.56s-.28.39-.84.59v1h4.06l.36-.39c-.08,0-.11-.11-.2-.17a17,17,0,0,1-2-2.3h-5.15A12.83,12.83,0,0,1,140,292.1s.08,0,.11.06l.08.06Zm-3.75.62v1.68h9.13v-1.68Zm0,2.3v1.82h9.13v-1.82Z" transform="translate(-0.66)"/><path class="cls-5" d="M180.41,289.92l1.37-1.79a18.12,18.12,0,0,1,1.76,1.93l-.25.5h-9a40.45,40.45,0,0,1-3.75,3.44v2.94a31.57,31.57,0,0,0,7.9-4.12q1.6,1.17,1.6,1.68,0,.25-.42.25a2.71,2.71,0,0,1-.78-.14,43.79,43.79,0,0,1-8.12,3h-.17v2.66c0,.53.17.84.48.92a20.57,20.57,0,0,0,3.78.2,29.66,29.66,0,0,0,3.86-.2,1.3,1.3,0,0,0,1.09-1.06,21.49,21.49,0,0,0,.45-3.28l.67.25a15.32,15.32,0,0,0,.25,3.25.86.86,0,0,0,.92.53,1.47,1.47,0,0,1-1.26,1.6,31.46,31.46,0,0,1-5.43.31c-3.22,0-5.1-.14-5.63-.45a1.7,1.7,0,0,1-.64-1.57v-5.66a40.66,40.66,0,0,1-7.39,4.28l-.36-.59a41.55,41.55,0,0,0,7.76-5.18v-1.48a10.89,10.89,0,0,1,1.12.53c1.06-1,1.76-1.68,2.07-2H162l-.25-.62h8.09v-4.17h-5.88l-.22-.62h6.24V281c1.68,0,2.52.22,2.52.62,0,.22-.34.48-1,.76v2.86h2.91l1.2-1.54a10.21,10.21,0,0,1,1.32,1.43c.59-.81,1.29-1.93,2.16-3.36,1.34.7,2,1.2,2,1.54s-.25.31-.73.31a3.29,3.29,0,0,1-.53,0,58.32,58.32,0,0,1-4.87,6.3Zm-7.53.14c1.43-1.6,2.58-3,3.44-4.17h-5v4.17Z" transform="translate(-0.66)"/><path class="cls-5" d="M193,300.14h6.72V281.91c1.74.06,2.55.25,2.55.59s-.34.48-1.06.76v16.88h6.89v-13.8c1.68.14,2.49.36,2.49.7s-.31.48-1,.7V303H208.1v-2.3H193v2.52h-1.46V286.5c1.65.06,2.49.28,2.49.64s-.34.45-1,.7Z" transform="translate(-0.66)"/><path class="cls-5" d="M227.51,289.67v-2.3a2.82,2.82,0,0,0,.56,0,1.84,1.84,0,0,0,.36,0,10.52,10.52,0,0,0,3.3-3.36h-8v.67c.17,0,.25.06.39.06,2.16.39,3.25,1,3.25,2,0,.5-.25.76-.78.76a.92.92,0,0,1-.73-.5,4.7,4.7,0,0,0-2.13-1.76v3.67h-1.32v-3.58a17.11,17.11,0,0,1-4.93,3.92l-.36-.48a16.18,16.18,0,0,0,4.62-4.73h-3.86l-.28-.62h4.82v-2.63c1.51,0,2.3.22,2.3.59,0,.2-.31.39-1,.62v1.43h2.32l1.12-1.46a9.59,9.59,0,0,1,1.29,1.46h4.14v-2.63q2.27.13,2.27.67,0,.25-.92.59v1.37h3l1.15-1.48a22.49,22.49,0,0,1,1.6,1.62l-.28.48h-5.12a13.84,13.84,0,0,0,5.43,3,3.67,3.67,0,0,0-.9,1.32,11.86,11.86,0,0,1-4.9-3.86v4.4H232.6v-3.81a11.44,11.44,0,0,1-3.28,2.46c.28.08.39.2.39.31s-.28.39-.87.62v1.15h7.25l1.12-1.23a1.44,1.44,0,0,0,.28.2,1.32,1.32,0,0,0,.28.22c.22.2.59.48,1.09,1l-.25.5h-6.55v2h3.67l.84-.92c.92.62,1.37,1,1.37,1.23a.39.39,0,0,1-.22.31l-.5.34v3.14h-1.34v-.76H220.65a12.18,12.18,0,0,1-3.25,8.06l-.5-.34c1.54-2.13,2.32-5,2.32-8.74v-5.66c.7.28,1.26.53,1.65.73ZM224,299v2.27c1.79-.17,3.56-.36,5.32-.62l.11.59a72.75,72.75,0,0,1-8.34,1.6c-.11.5-.25.78-.48.78s-.64-.7-.92-2.13l2.94-.14v-5.26c1.54.08,2.3.28,2.3.62s-.28.36-.92.62v1h2.77l1-1.26a13.84,13.84,0,0,1,1.43,1.48L229,299Zm-3.39-8.74v2H225v-2Zm0,2.58V295H225v-2.07Zm5.68-2.58v2h4.42v-2Zm4.42,2.58h-4.42V295h4.42Zm.73,6.22a18.69,18.69,0,0,0,5.6-2.16c1.09.53,1.62.92,1.62,1.18s-.17.28-.59.25l-.62-.06a32.85,32.85,0,0,1-6,1.4v1.2c0,.48.31.76,1,.76l3.05,0a3.86,3.86,0,0,0,2.16-.31c.39-.28.64-1.06.73-2.35l.62.22a5.31,5.31,0,0,0,.2,1.9.66.66,0,0,0,.62.28,1.22,1.22,0,0,1-1.06,1.32,31.15,31.15,0,0,1-4.51.2,11.65,11.65,0,0,1-3.5-.31c-.42-.17-.62-.64-.62-1.46V296c1.57.06,2.32.25,2.32.56s-.31.39-1,.62Zm.59-6.22V295h3.81v-2.07Z" transform="translate(-0.66)"/><path class="cls-5" d="M251.08,282.44l.92-1.2c.92.78,1.4,1.29,1.4,1.51a.34.34,0,0,1-.22.31l-.53.36v18c0,1.29-.76,1.93-2.27,1.9a1.2,1.2,0,0,0-.81-1.09,11.11,11.11,0,0,0-1.65-.39v-.64a21.45,21.45,0,0,0,2.24.17,2.38,2.38,0,0,0,1-.14.81.81,0,0,0,.14-.53v-6.38h-3.22l-.06.2a17.44,17.44,0,0,1-2.66,9l-.53-.36c1.29-2.69,1.88-6.47,1.88-11.34V281.68c.5.2,1.06.48,1.62.76Zm.2,11.2v-5.18h-3.16v3.3c0,.81,0,1.43,0,1.88Zm-3.16-10.58v4.76h3.16v-4.76Zm5.35,6.72-.34-.5a16.78,16.78,0,0,0,5.85-5.68h-4.9l-.28-.62h11.09l1.2-1.57a16.8,16.8,0,0,1,1.76,1.71l-.28.48h-5.46a27.56,27.56,0,0,0,1.32,7.42,21.32,21.32,0,0,0,2-4.51c1.29.81,1.9,1.4,1.9,1.74,0,.17-.17.28-.53.28a2.47,2.47,0,0,1-.45,0,21.2,21.2,0,0,1-2.72,3.25,26,26,0,0,0,4.48,7.39,5.09,5.09,0,0,0-1.2,1.6,28.08,28.08,0,0,1-5.07-11.82,37.36,37.36,0,0,1-.53-5.32h-.67a17.35,17.35,0,0,1-2.38,2.94c2.72,3.84,4.09,7.62,4.09,11.34,0,2.27-.36,3.81-1.12,4.59a3,3,0,0,1-2.35.92,1.28,1.28,0,0,0-.76-1.12,11.31,11.31,0,0,0-2.27-.64v-.67a18,18,0,0,0,3.22.31,1.35,1.35,0,0,0,1.43-.9,10.12,10.12,0,0,0,.39-3.36,13.53,13.53,0,0,0-.25-2.63,20.87,20.87,0,0,1-7.11,6l-.39-.53a22.33,22.33,0,0,0,7-7.2l.06-.08c-.28-.87-.56-1.6-.81-2.21a20,20,0,0,1-5.91,4.76l-.34-.56a18.54,18.54,0,0,0,5.57-5.66c-.28-.56-.59-1.18-1-1.85A17.83,17.83,0,0,1,253.46,289.78Z" transform="translate(-0.66)"/><path class="cls-5" d="M275.75,296.94a2.1,2.1,0,0,1,.28-1.6c.28-.5.53-1,.9-1.76s1.12-2.88,1.51-3.95c.2-.45.36-1,.56-1.57a1.63,1.63,0,0,0-.36,0,4.3,4.3,0,0,1-1.62-.64c-.42-.28-.67-.62-.53-.81s.59,0,.81.11a5.5,5.5,0,0,0,1.23.36,3.35,3.35,0,0,0,.84.08c.11-.36.25-.64.34-.87a4.33,4.33,0,0,0,.53-1.62,2.44,2.44,0,0,0-.34-1.37c-.2-.34-.17-.53,0-.7s.78,0,1,.2a2.12,2.12,0,0,1,.76,1,1.93,1.93,0,0,1,.06.81l.48.17c.39.14,1,.39,1.57.56a2.39,2.39,0,0,1,1.15.56.64.64,0,0,1,.06.87,3.19,3.19,0,0,1-1.57.76,13.85,13.85,0,0,1-2.88.5h-.08a.21.21,0,0,1-.06.14c-.14.36-.84,2.18-1.18,3s-1.06,2.72-1.34,3.5a10.93,10.93,0,0,0-.39,2.77c0,.5-.48.59-.87.39A1.81,1.81,0,0,1,275.75,296.94ZM281,286.89a8.45,8.45,0,0,0,1.43-.48c.42-.17.62-.39.59-.48s-.31-.25-.53-.39-.5-.25-.78-.42c-.06.25-.17.5-.25.76A9.47,9.47,0,0,1,281,286.89Zm6.75,9.77a13,13,0,0,0-.25-1.34c-.14-.78-.36-1.85-.5-2.58a2.78,2.78,0,0,1,.2-1.85c.2-.39.56-.7.73-.59s.08.39-.06.9a5.1,5.1,0,0,0,0,2.18c.17.84.48,2.1.73,3.05.06.14.08.28.14.42a7.74,7.74,0,0,1,2.16.84,1.81,1.81,0,0,1,.84,1c.14.5,0,1-.25,1.06s-.67-.14-1.32-.5c-.31-.17-.67-.39-1.06-.62,0,.22.06.42.06.53a2.52,2.52,0,0,1-1.2,2.32,5.28,5.28,0,0,1-4.06-.08,2.54,2.54,0,0,1-1.29-2.77c.17-1.12,1.18-1.88,2.66-2A10.64,10.64,0,0,1,287.74,296.67Zm0,1.32a5.4,5.4,0,0,0-2.55-.45c-.87,0-1.68.56-1.74,1.23a1.43,1.43,0,0,0,1.12,1.48,3.24,3.24,0,0,0,2.3-.08c.76-.28.92-1.06,1-2v-.06A.37.37,0,0,1,287.71,298Zm5.8-9a.84.84,0,0,1-.39,1.06,1.17,1.17,0,0,1-.92,0,2.44,2.44,0,0,0-.9-.25,9.25,9.25,0,0,0-1.29,0c-.53,0-.76-.11-.76-.22s.11-.2.34-.28a3.26,3.26,0,0,1,1.15-.28c.45,0,.59-.22.36-.53a6.89,6.89,0,0,0-1.29-1.32,4.59,4.59,0,0,0-1.29-.87c-.28-.11-.39-.31-.31-.42s.53-.17,1-.06a11,11,0,0,1,3.28,1.71A3.12,3.12,0,0,1,293.5,289Z" transform="translate(-0.66)"/><path class="cls-5" d="M318,300.39c-1.51.17-4,.25-5.88.25s-3.86-.42-4.68-1.43a3.06,3.06,0,0,1-.14-3.56,8.47,8.47,0,0,1,2.83-2.58,2.41,2.41,0,0,1-1.2-1.54,14.62,14.62,0,0,1,.14-3.25c.08-1,.2-2.1.22-2.91a3.53,3.53,0,0,0-.39-1.88c-.25-.34-.5-.76-.39-1,.22-.45.81-.14,1.18.17a5.37,5.37,0,0,1,1.18,1.6,2.9,2.9,0,0,1-.06,1.82,17.34,17.34,0,0,0-.59,2.38,26.7,26.7,0,0,0-.31,3.08,1.65,1.65,0,0,0,.62,1.29c1.65-1,3.56-1.93,5.21-2.77.45-.25.28-.81,0-1.18s.08-.59.53-.53a2.39,2.39,0,0,1,1.15.56c.48.39.92,1.51,0,1.93-3.7,1.74-6.19,2.74-8,4.06s-2.07,2.6-1.15,3.64a5.35,5.35,0,0,0,3.81,1.12,14.69,14.69,0,0,0,4-.56c.9-.31,2.52-.48,3,.22S318.76,300.3,318,300.39Zm.62-12.24a9.29,9.29,0,0,0-1.6-1.29c-.25-.14-.36-.36-.25-.56s.34-.11.48-.08a5,5,0,0,1,1.54.31,3.6,3.6,0,0,1,1.65,1.15.64.64,0,0,1-.39,1A1.66,1.66,0,0,1,318.59,288.15ZM320.8,287a3.9,3.9,0,0,0-1.71-1.18c-.25-.11-.36-.34-.25-.53s.34-.11.45-.11a4.88,4.88,0,0,1,1.57.28,3.22,3.22,0,0,1,1.71,1,.66.66,0,0,1-.34,1A1.56,1.56,0,0,1,320.8,287Z" transform="translate(-0.66)"/><path class="cls-5" d="M329.65,298.34a9.8,9.8,0,0,1,4,2.3,2.29,2.29,0,0,1,.73,1.68,1.1,1.1,0,0,1-1.2,1.26c-.45,0-.73-.34-1-1a9.39,9.39,0,0,0-2.83-3.86Z" transform="translate(-0.66)"/><path class="cls-5" d="M360.51,290.84h4.23v-2.18h-2.88l-.34-.62h5.74l1-1.26a14.2,14.2,0,0,1,1.46,1.46l-.31.42h-3.25v2.18h2.27l1-1.26a8.59,8.59,0,0,1,1.4,1.48l-.25.42h-1.88v12.1h-1.4v-3.67a43.63,43.63,0,0,1-5.38,1.43c-.14.59-.28.9-.48.9s-.67-.7-1.06-2.1c.64,0,1.37-.11,2.13-.2v-8.46h-2c0,5.52-1,9.52-3.05,12.07l-.56-.42c1.46-2.55,2.16-6.44,2.16-11.56v-6.8a15.7,15.7,0,0,1,1.76.78h11a25.19,25.19,0,0,0,2.1-4.59c1.54.53,2.27,1,2.27,1.32s-.39.36-1.15.36a18,18,0,0,1-2.3,2.91h4.06l1.26-1.62a13.47,13.47,0,0,1,1.68,1.79l-.25.48h-19Zm1.29-9.63c2,.87,3.05,1.88,3.05,3a.86.86,0,0,1-1,1c-.39,0-.62-.22-.73-.7a4.93,4.93,0,0,0-1.71-2.83Zm2.07,10.28v2.13h3.39v-2.13Zm0,5h3.39v-2.27h-3.39Zm3.39.62h-3.39v2.63c1.09-.17,2.24-.39,3.39-.62Zm-.11-16.24q2.52,1.43,2.52,3.11a.88.88,0,0,1-1,1c-.45,0-.7-.36-.76-1.06a4.91,4.91,0,0,0-1.18-2.66Zm2.74,15.32-.56-.36a25,25,0,0,0,2.8-9.07c1.54.28,2.32.62,2.32,1,0,.2-.36.36-1,.5-.28,1.09-.5,1.93-.67,2.41h4.42l1.06-1.46a15.67,15.67,0,0,1,1.48,1.65l-.25.45h-2.16a17.7,17.7,0,0,1-1.85,6.89,15.89,15.89,0,0,0,4.65,3.64,5.07,5.07,0,0,0-1.2,1.34,16.73,16.73,0,0,1-4.12-3.81,12.26,12.26,0,0,1-5.32,4.37l-.36-.5a13.46,13.46,0,0,0,4.9-5,16.65,16.65,0,0,1-2.1-5.32A18.11,18.11,0,0,1,369.89,296.22Zm4.7.84a17.52,17.52,0,0,0,1.2-5.74h-3.28c-.11.31-.2.5-.2.5A16.06,16.06,0,0,0,374.59,297.06Z" transform="translate(-0.66)"/><path class="cls-5" d="M390.33,298.46a5.43,5.43,0,0,0,1.46,1.43,14.24,14.24,0,0,0,4.79-3c1.15.56,1.74,1,1.74,1.26s-.25.25-.76.25h-.42a21.91,21.91,0,0,1-4.65,2c1.65.84,4.42,1.26,8.26,1.26,2.1,0,4.56-.08,7.36-.31a7.13,7.13,0,0,0-.76,1.62h-5.57c-4.14,0-7-.31-8.51-1a6.61,6.61,0,0,1-3.42-2.88,32.54,32.54,0,0,1-2.66,3.47c0,.62-.08,1-.31,1s-.81-.62-1.57-1.88A20.05,20.05,0,0,0,388.9,299V292.3h-3.36l-.25-.64h3.44l.92-1.15c1,.81,1.54,1.32,1.54,1.54s-.08.22-.28.28l-.59.39Zm-3.7-16.55c2.63,1.2,3.95,2.46,3.95,3.81,0,.64-.31,1-.92,1q-.59,0-.92-.92a7.64,7.64,0,0,0-2.52-3.39Zm14.64,10.16v-2.32c1.62.06,2.41.25,2.41.56s-.31.36-1,.59v1.18h1.93l1-1.46a.56.56,0,0,1,.17.2,12.07,12.07,0,0,1,1.32,1.37l-.28.5h-4.17v2.86h2.74l1.15-1.48.22.22.2.14a7.15,7.15,0,0,1,1.06,1.2l-.25.53H391.53l-.28-.62h4.54v-2.86h-3.56l-.25-.62h3.81v-2.35c1.57,0,2.38.22,2.38.59,0,.2-.34.39-1,.59v1.18Zm-7.34-6.58v1.9a.71.71,0,0,0,.2.59,5.16,5.16,0,0,0,1.79.14c1.18,0,1.82-.11,2-.34a3.61,3.61,0,0,0,.36-1.32l.56.17c0,.11,0,.2,0,.34,0,.59.25.9.76.87v0A1.12,1.12,0,0,1,399,289a9.11,9.11,0,0,1-2.8.28,9.93,9.93,0,0,1-3.11-.28c-.31-.17-.45-.62-.45-1.29v-3.53c.25.08.76.31,1.54.64h3v-2h-5l-.25-.62h5l.84-1c.92.7,1.34,1.12,1.34,1.29a.3.3,0,0,1-.2.31l-.45.31v2.94h-1.32v-.56Zm7.34,10.05v-2.86h-4.06v2.86Zm.48-10.05v1.76c0,.31,0,.53.14.62s.78.2,1.88.2,1.93-.14,2.1-.42a3.3,3.3,0,0,0,.42-1.29l.56.2a3,3,0,0,0,.14,1.06.78.78,0,0,0,.64.28,1.1,1.1,0,0,1-.76,1.15,10.34,10.34,0,0,1-3,.25,7.76,7.76,0,0,1-3.08-.36,1.22,1.22,0,0,1-.39-1.06v-3.64c.48.2,1,.39,1.48.62h3v-2h-4.82l-.28-.62h4.87l.87-1c.92.7,1.34,1.15,1.34,1.32s-.08.2-.22.31l-.48.34v2.94h-1.29v-.62Zm-.87,11.56c3.89.67,5.8,1.57,5.8,2.6q0,.84-.76.84a1.16,1.16,0,0,1-.81-.39,11.42,11.42,0,0,0-4.56-2.52Z" transform="translate(-0.66)"/><path class="cls-5" d="M432.08,285.49a5.26,5.26,0,0,1-1.74,1.85,15.46,15.46,0,0,1-2.44,1.15c.34.7.67,1.46.87,1.9.31.76.9,2.21,1.15,2.8a5.1,5.1,0,0,1,.5,1.54,1.25,1.25,0,0,1-.56,1.2c-.81.56-2-.06-3.33-.87a7.22,7.22,0,0,0-2.16-.87,7.31,7.31,0,0,0-3.3,0,2.12,2.12,0,0,0-1.68,2.18,3.63,3.63,0,0,0,1.43,2.41,5.48,5.48,0,0,0,2.46,1A8.67,8.67,0,0,0,426,300a16.7,16.7,0,0,1,1.85-.2,1.6,1.6,0,0,1,1.37.73c.28.48-.06.81-.92,1a18.39,18.39,0,0,1-4.06.11,7,7,0,0,1-4-1.65,4.85,4.85,0,0,1-1.74-3.58,3.2,3.2,0,0,1,2.21-2.88,9.75,9.75,0,0,1,3.44-.36,21,21,0,0,1,2.44.48,8.24,8.24,0,0,0,1.62.39c.39,0,.64-.28.62-.81a3.39,3.39,0,0,0-.34-1.09c-.2-.39-.76-1.48-1.23-2.52a5.88,5.88,0,0,0-.36-.73l-.59.17a27,27,0,0,1-3.89.76,9.51,9.51,0,0,1-3.47-.2,5.54,5.54,0,0,1-2-.92c-.34-.28-.53-.62-.36-.78s.7.08,1,.25a4.2,4.2,0,0,0,1.68.59,9.1,9.1,0,0,0,2.74-.08c.87-.14,1.79-.36,2.72-.59.45-.11.92-.28,1.43-.45-.31-.5-.59-.92-.81-1.23a11.88,11.88,0,0,0-1.54-1.9c-.42-.39-.64-.92-.31-1.34a1.19,1.19,0,0,1,1.43-.22c.42.22,1,.48,1.6.73a14.07,14.07,0,0,0,2.66.87,11,11,0,0,0,2.32.08C432.13,284.54,432.22,285.1,432.08,285.49Zm-2.49,0c-.34-.08-1.09-.34-1.79-.56a7.1,7.1,0,0,1-1.54-.64c-.36-.2-.64-.39-.81-.22s.28.62.53,1,.81,1.43,1.23,2.18c.17-.08.34-.14.48-.2a16.23,16.23,0,0,0,1.9-1C429.86,285.8,429.89,285.52,429.58,285.47Z" transform="translate(-0.66)"/><path class="cls-5" d="M463.35,297.34a9.8,9.8,0,0,1-1.68,2,4.33,4.33,0,0,1-2.35,1.2,2.64,2.64,0,0,1-1.93-.31,2.46,2.46,0,0,1-1.29-1.65,15.52,15.52,0,0,1,0-3.78c.06-1.37.11-2.63.17-3.75s.11-2.41-.28-2.8a2.14,2.14,0,0,0-2-.28,8,8,0,0,0-2.91,1.48,35.68,35.68,0,0,0-2.72,2.38v.48c0,1.43.11,2.91.2,3.86s.08,1.74.11,3a6.75,6.75,0,0,1-.25,2.35,1.1,1.1,0,0,1-.87.76.6.6,0,0,1-.78-.5c-.06-.34-.11-1-.31-1.82s-.62-1.9-1.09-3.39c-.11-.31-.2-.62-.31-.9h0a8.69,8.69,0,0,0-1.48,2.91c-.22.9-.45,1.32-.78,1.4s-.62,0-.92-.5-.14-.81.34-1.71,1.2-1.88,1.93-2.94c.11-.2.25-.39.39-.62-.22-.59-.42-1.09-.56-1.48a15.92,15.92,0,0,0-1-2.44c-.34-.5,0-1,.62-1.57a11.45,11.45,0,0,1,2.44-1.34,3.77,3.77,0,0,1,1.37-.34,17.19,17.19,0,0,0-.11-1.85,3.2,3.2,0,0,0-.92-1.74c-.39-.42-.53-.92-.31-1.09s.81-.14,1.4.28a4.4,4.4,0,0,1,1.46,1.79,3,3,0,0,1,0,2.21,5.63,5.63,0,0,0-.17.73,1.13,1.13,0,0,1,.62.48,1.6,1.6,0,0,1-.11,1.23c-.22.34-.39.64-.34.7s.25.14.56-.17a35,35,0,0,1,3.47-2.46,4.67,4.67,0,0,1,2.55-.87,2.08,2.08,0,0,1,1.74.87,3.43,3.43,0,0,1,.62,2.1,28.79,28.79,0,0,1-.14,3.5c-.2,1.65-.25,3.28-.28,4.65s.53,1.9,1.4,2a4.22,4.22,0,0,0,2.41-.84,17.11,17.11,0,0,0,1.71-1.4C463.27,296.78,463.6,296.92,463.35,297.34ZM447.28,289a.78.78,0,0,0-.73-.31,5.42,5.42,0,0,0-1.74.53,1.56,1.56,0,0,0-.7,1.93c.28.64.59,1.4,1,2.32.59-.84,1.23-1.65,1.54-2a4.26,4.26,0,0,0,.64-1C447.25,289.92,447.28,289.41,447.28,289Zm0,9.21c0-.36,0-.9-.08-2,0-.84,0-1.9,0-3.11a21.15,21.15,0,0,0-1.57,1.85c.5,1.34,1,2.74,1.18,3.22S447.25,298.57,447.25,298.21Z" transform="translate(-0.66)"/><path class="cls-5" d="M475.17,292.24a27.92,27.92,0,0,0,1-2.94c-.36,0-.73.06-1,.06a6.77,6.77,0,0,1-2.55-.34c-.53-.22-.67-.76-.5-1s.31-.08.48,0a3.88,3.88,0,0,0,.73.28,3.68,3.68,0,0,0,1.26.08,7.13,7.13,0,0,0,2-.36,10,10,0,0,0,.31-2.66,3.8,3.8,0,0,0-.56-1.68c-.22-.34-.42-.84-.11-1.06s.73-.06,1.12.2a2.08,2.08,0,0,1,.9,1.37,2.51,2.51,0,0,1,0,1.29,8.46,8.46,0,0,0,1.82.67c.53.11,1,.25,1.15.53s.08.56-.34,1a5.53,5.53,0,0,1-2.3,1.23c-.39.08-.81.17-1.26.22-.08.34-.17.59-.22.81-.2.73-.84,2.55-1,3.22s-.92,3-1.29,4.09a42.62,42.62,0,0,1-1.68,4.14.69.69,0,0,1-1,.25c-.42-.25-.42-.92-.42-1.37a6.72,6.72,0,0,1,.76-1.85c.31-.78.73-1.65,1.18-2.63S474.83,293,475.17,292.24Zm2.91-6c-.06.2-.08.39-.14.53s-.11.48-.2.84a6.47,6.47,0,0,0,1-.53c.2-.08.14-.31,0-.45A4.75,4.75,0,0,0,478.08,286.25Zm11.42,14.36c.34.53-.25,1.06-1,1.12a18.52,18.52,0,0,1-4.7-.14c-2-.34-2.91-1-3.47-2.24a4.06,4.06,0,0,1,.34-3.5,10.26,10.26,0,0,1,1.06-2c.17-.22.34-.36.45-.28s.06.28-.11.53a10.78,10.78,0,0,0-.9,2.1,2.94,2.94,0,0,0,.11,2.55,3.54,3.54,0,0,0,2.16,1.32,8.34,8.34,0,0,0,2.35.08,16.47,16.47,0,0,1,2.13-.28A1.78,1.78,0,0,1,489.5,300.61Zm-3.75-11.4c0-.14-.39-.25-.64-.28a5.82,5.82,0,0,0-1.88,0,8.29,8.29,0,0,0-1.29.28c-.31.08-.76.14-.84,0-.17-.31.34-.56.64-.67a19,19,0,0,1,2.16-.62,6,6,0,0,1,1.76-.14,2.8,2.8,0,0,1,1.65.42,1,1,0,0,1,.5,1.09,1,1,0,0,1-.64.56c-.17.08-.67.28-1.23.53a16.09,16.09,0,0,0-1.71.92,3.79,3.79,0,0,0-1.15.92c-.17.2-.36.53-.48.45s-.06-.34.08-.56a9.5,9.5,0,0,1,1.15-1.43,10.36,10.36,0,0,1,1.4-1C485.53,289.44,485.78,289.33,485.75,289.22Z" transform="translate(-0.66)"/><path class="cls-5" d="M502,288.38V297c1.2-.39,2.41-.76,3.64-1.18l.06.64a72.9,72.9,0,0,1-7.17,3.11c-.08.56-.22.84-.45.84s-.76-.73-1.09-2.18c1.65-.34,2.86-.62,3.61-.81v-9.07h-3.3l-.2-.62h3.5v-6.52c1.65.08,2.46.28,2.46.62s-.36.45-1.06.73v5.18h1.2l1.12-1.65c.59.67,1.06,1.23,1.46,1.76l-.28.5Zm5.94,1.29v10.56a.88.88,0,0,0,.45.87,21.37,21.37,0,0,0,4.31.22c3.11,0,4.76-.2,5-.64a10.1,10.1,0,0,0,.87-3.92l.64.25c0,1.12,0,1.79,0,2q0,2.06.92,2a1.42,1.42,0,0,1-1.12,1.4,35.69,35.69,0,0,1-6.16.31c-3.3,0-5.24-.17-5.71-.5s-.67-1-.67-1.93V290.11l-2.63.84-.42-.62,3.05-1v-6.69c1.62,0,2.44.2,2.44.56,0,.2-.34.45-1,.73v5l3.44-1.09V281q2.44,0,2.44.59c0,.2-.36.45-1,.73v5.1l3.39-1.09.9-1.32c1.09.76,1.62,1.23,1.62,1.48a.35.35,0,0,1-.2.28l-.62.48V295c0,1.34-.78,2-2.32,2a1.13,1.13,0,0,0-.59-1.06,6,6,0,0,0-1.6-.39v-.64a15.54,15.54,0,0,0,2.16.17c.62,0,.92-.25.92-.78V287l-3.67,1.15v10.22h-1.4v-9.77Z" transform="translate(-0.66)"/><path class="cls-5" d="M539.85,291.23v9.38c0,.42.14.7.42.81s1,0,2,0a17.71,17.71,0,0,0,2.27-.11,1.2,1.2,0,0,0,.7-.9,22.45,22.45,0,0,0,.5-3.84l.67.25a20.8,20.8,0,0,0,.17,3.53c.14.53.42.78.92.76a1.36,1.36,0,0,1-1,1.48,21.59,21.59,0,0,1-3.86.2c-2.16,0-3.44-.17-3.89-.48a1.87,1.87,0,0,1-.45-1.46v-9.74h-4.06c-.06,3.67-.7,6.33-1.82,8.12-1.26,2-3.47,3.36-6.64,4.28l-.36-.59a11.6,11.6,0,0,0,5.21-3.53c1.29-1.76,2-4.54,2-8.29h-6.41l-.28-.62h17.78l1.48-1.93c.42.39,1.06,1.06,2,2l-.25.53Zm1.82-7.48,1.46-1.85a18,18,0,0,1,1.9,2l-.28.48H528.4l-.25-.64Z" transform="translate(-0.66)"/><path class="cls-5" d="M574.29,291.32a10.76,10.76,0,0,1-.36,3.86,6.2,6.2,0,0,1-2.72,3.53,13,13,0,0,1-4.62,1.68,12,12,0,0,1-4.51,0c-.28,0-.42-.14-.39-.28s.17-.25.39-.22a12.39,12.39,0,0,0,4.84-.39,12.34,12.34,0,0,0,3.42-1.65,6.37,6.37,0,0,0,2.41-4,9.88,9.88,0,0,0-.36-4.62,5.85,5.85,0,0,0-2.46-3.47,7.92,7.92,0,0,0-4.87-1c-.22,0-.48.08-.73.11.06.56.06,1.46.08,2.16a18.54,18.54,0,0,1-.42,3.84,12.4,12.4,0,0,1-2,4.93c-1.06,1.4-2.35,2.35-3.67,2.35A3.09,3.09,0,0,1,555.5,296a6,6,0,0,1-.36-4.17A8.44,8.44,0,0,1,557,288,11.87,11.87,0,0,1,560.6,285a11.46,11.46,0,0,1,5.29-1.23,8.81,8.81,0,0,1,4.45,1.18,8.2,8.2,0,0,1,2.94,2.94A7.46,7.46,0,0,1,574.29,291.32Zm-10.81-6.24A11.24,11.24,0,0,0,560,286.7a9.36,9.36,0,0,0-3.33,4.12,6.68,6.68,0,0,0-.22,4.26c.39,1,1.34,1.15,2.46.78a5,5,0,0,0,2.83-2.3,10.78,10.78,0,0,0,1.62-4.51A20,20,0,0,0,563.48,285.07Z" transform="translate(-0.66)"/><path class="cls-5" d="M598.62,295.94c.14-.14.42-.56.9-1.15,1.12.73,1.71,1.23,1.71,1.57,0,.17-.2.25-.62.25l-.48,0a30.24,30.24,0,0,1-3.78,2.72,17.54,17.54,0,0,0,7.11,2.52,4.35,4.35,0,0,0-1.2,1.54,15.25,15.25,0,0,1-10.47-7.92h-4V301c2.35-.34,4.45-.7,6.38-1.12l.08.67a74.78,74.78,0,0,1-9.69,2.32c-.14.56-.31.87-.5.87s-.73-.76-1.18-2.24q2.77-.25,3.44-.34V288.88a31.41,31.41,0,0,1-4.7,2.55l-.36-.53a24.56,24.56,0,0,0,10.81-10.16c1.43.34,2.13.64,2.13,1s-.36.34-1.06.45a27.16,27.16,0,0,0,10.78,6.36,3.85,3.85,0,0,0-1.12,1.46,27.37,27.37,0,0,1-10.11-7.22,23.21,23.21,0,0,1-5.21,5.32l.53.28h3.61V285.3c1.6.08,2.38.28,2.38.67,0,.17-.34.39-1,.62v1.76h4.12l.7-.62c1,.56,1.4,1,1.4,1.15s-.06.17-.2.28l-.39.36Zm-1.37-4.51V289h-9.46v2.44Zm0,3.39v-2.74h-9.46v2.74Zm0,1.4v-.78h-4.59a12.42,12.42,0,0,0,3.11,3.44,23.65,23.65,0,0,0,2.63-2.66Z" transform="translate(-0.66)"/><path class="cls-5" d="M613.46,291.6a29.2,29.2,0,0,1-3.84,7.39l-.5-.42a36.21,36.21,0,0,0,4.28-11h-3.75l-.2-.62h4v-6c1.65.06,2.46.25,2.46.64,0,.2-.31.45-1,.73V287h1.34l1.18-1.71c.5.56,1,1.18,1.51,1.82l-.28.5h-3.75v2.72a9.84,9.84,0,0,1,2.41,1.88,3.92,3.92,0,0,1,1.34,2.41c0,.56-.25.87-.78.87s-.67-.34-.87-1a9.19,9.19,0,0,0-2.1-3.36v12.43h-1.46Zm12.8-1.32a27.34,27.34,0,0,1-8.82,9.58l-.45-.5a29.18,29.18,0,0,0,8.85-11.76H619.9l-.22-.62h6.5v-5.82c1.68.08,2.55.31,2.55.64s-.36.45-1.09.7V287h1.68l1.23-1.71a20.79,20.79,0,0,1,1.51,1.82l-.25.5h-4.09v13.66c0,1.4-.87,2.13-2.58,2.1,0-.5-.28-.9-.9-1.12a17.29,17.29,0,0,0-2.66-.56V301c1.74.14,3,.22,3.81.22.56,0,.87-.25.87-.78Z" transform="translate(-0.66)"/><path class="cls-5" d="M40.44,339.76a6.6,6.6,0,0,1-2.07,1.57c-.81.42-2.18.87-3.25,1.32-.28.11-.59.25-.9.39,0,.31.08.64.11,1a4.33,4.33,0,0,1-.34,2.44,1.52,1.52,0,0,1-1.15.92c-.59.06-.81-.39-.64-1a11,11,0,0,0,.42-2.58v-.17a11.49,11.49,0,0,0-1.32.62,6.08,6.08,0,0,0-2.24,1.82,2.26,2.26,0,0,0-.31,2.49,3.54,3.54,0,0,0,2.74,1.23,19.13,19.13,0,0,0,2.63-.28,16.33,16.33,0,0,1,1.88-.36,2.19,2.19,0,0,1,1.71.45c.45.34.45.81,0,1a4.4,4.4,0,0,1-1.51.31,29.21,29.21,0,0,1-4,.25,8.19,8.19,0,0,1-3.75-1,2.62,2.62,0,0,1-1.2-2.52,3.42,3.42,0,0,1,1.2-2.44,12.18,12.18,0,0,1,2.63-1.88c.48-.25,1-.53,1.54-.78a1.91,1.91,0,0,0-.36-1.12,2.63,2.63,0,0,0-1.79-1,3.15,3.15,0,0,0-1.79.28,2.89,2.89,0,0,0-.5.28c-.36.48-.73.9-1.06,1.37a2.88,2.88,0,0,1-2,1.46c-.62,0-.67-.39-.67-.9a1.54,1.54,0,0,1,.59-1.23,13.4,13.4,0,0,0,1.43-.81,11.56,11.56,0,0,0,2.91-3.58,11.24,11.24,0,0,0,.87-1.79l-.67.08a3.91,3.91,0,0,1-2.32-.36,1.37,1.37,0,0,1-.53-1.6c.34-.45.81-.14,1.43.08a4.13,4.13,0,0,0,2.21.06l.42-.08a1.28,1.28,0,0,0-.36-1.34.81.81,0,0,1-.17-1,1,1,0,0,1,1.06,0,1,1,0,0,1,.39.36c.39.06.87.17,1,.2a2.8,2.8,0,0,1,1,.34c.25.2.11.45-.11.9a4.63,4.63,0,0,1-1.48,1.62,2.1,2.1,0,0,1-.5.25,8.25,8.25,0,0,1-.67,1.6,29.78,29.78,0,0,1-1.71,2.94A3.58,3.58,0,0,1,29,340l.64-.25a3.16,3.16,0,0,1,1.9-.17,2.19,2.19,0,0,1,1.48.84,2.79,2.79,0,0,1,.36-.45,7.55,7.55,0,0,1,3-2.52,4.05,4.05,0,0,1,3.84-.06A1.64,1.64,0,0,1,40.44,339.76ZM32,333.21l.36-.2c.42-.22.56-.5.48-.59s-.28-.2-.67-.25c-.11,0-.22,0-.31-.06a1.94,1.94,0,0,1,.14.7A.91.91,0,0,1,32,333.21Zm7.25,4.87c-.17-.31-.76-.56-1.74-.34a5,5,0,0,0-2.35,1.34,6.3,6.3,0,0,0-1.51,2.32c.08.17.17.36.22.5.25-.08.48-.22.73-.34a39.76,39.76,0,0,0,3.67-1.76C39.46,339.2,39.46,338.41,39.26,338.08Z" transform="translate(-0.66)"/><path class="cls-5" d="M59.56,336v-5.71c1.79.08,2.66.31,2.66.67s-.36.48-1.12.76V336h6.83l1-1.29c1.06.87,1.62,1.46,1.62,1.68s-.08.22-.22.31l-.7.42v8.76H68.16v-1.71H61.1v8.4H59.56v-8.4H52.79v2.07H51.28V335.14A14.32,14.32,0,0,1,53,336Zm-6.78.62v6.94h6.78v-6.94Zm15.37,6.94v-6.94H61.1v6.94Z" transform="translate(-0.66)"/><path class="cls-5" d="M81.6,338.92v.62a15.51,15.51,0,0,1-1.34,7.06c-.64,1.26-1.34,1.88-2.07,1.88s-.9-.28-.9-.84c0-.34.25-.73.78-1.2,1.51-1.37,2.46-3.92,2.88-7.67Zm3.19-8.18a20.38,20.38,0,0,1,5.07,2.6c1.18.87,1.76,1.68,1.76,2.46a.8.8,0,0,1-.9.9c-.25,0-.62-.25-1-.84a15.07,15.07,0,0,0-5.21-4.62ZM94.42,345v1.71a7.83,7.83,0,0,0,.25,2.52.71.71,0,0,0,.73.42,1.42,1.42,0,0,1-1.06,1.48,22.67,22.67,0,0,1-4.45.22c-2.8,0-4.4-.14-4.79-.45a1.83,1.83,0,0,1-.53-1.54V336c1.74.06,2.63.28,2.63.7q0,.34-1.09.67V349c0,.5.11.81.39.9a12.34,12.34,0,0,0,3,.2,13.13,13.13,0,0,0,3.05-.2c.56-.28,1-2,1.23-5.1Zm-.36-6.89A22.06,22.06,0,0,1,98.54,343a5.9,5.9,0,0,1,1.26,3c0,.78-.34,1.18-1,1.18-.42,0-.76-.42-1-1.2a19,19,0,0,0-4.2-7.28Z" transform="translate(-0.66)"/><path class="cls-5" d="M107.7,342.28a33.71,33.71,0,0,1,.67-3.78c.31-1.48.56-2.16.73-3.05a3.6,3.6,0,0,0-.22-2.18c-.25-.34-.45-.78-.22-1s.87.08,1.26.48a3.3,3.3,0,0,1,.76,1.76,5.41,5.41,0,0,1-.42,2.1c-.2.53-.62,1.62-.84,2.38a17.3,17.3,0,0,0-.56,2.38,15.39,15.39,0,0,0-.22,2c0,.48,0,.81.11.81s.22-.28.34-.53a10.25,10.25,0,0,1,.9-1.51c.2-.25.36-.39.53-.31s.11.34,0,.56a6.55,6.55,0,0,0-.62,2.74,9,9,0,0,0,.56,3.14c.22.73.2,1.71-.25,1.88s-1-.2-1.43-.76a6,6,0,0,1-1-2.88A16.71,16.71,0,0,1,107.7,342.28Zm8.88,3.58a5.88,5.88,0,0,0,1.57.84,8,8,0,0,0,3,.22c1.23-.08,2.35-.48,2.94-.48s1.26.11,1.46.67-.53,1-1.51,1.23a11.59,11.59,0,0,1-3.28.2,9.62,9.62,0,0,1-3-.76,6.5,6.5,0,0,1-1.9-1.46c-.36-.42-.48-.87-.25-1S116.26,345.64,116.57,345.86Zm0-10.89c-.39-.17-.73-.39-.62-.64s.48-.2,1.09,0a7.38,7.38,0,0,0,2.27.17,9.11,9.11,0,0,0,2.44-.53c.64-.22,1.32-.2,1.51.17s-.11,1-.92,1.23a7.87,7.87,0,0,1-3.08.28A9.27,9.27,0,0,1,116.57,335Z" transform="translate(-0.66)"/><path class="cls-5" d="M138.78,346a6.93,6.93,0,0,0,2.63,1.26,15.18,15.18,0,0,0,4.65.56,14,14,0,0,0,3.25-.76,2.15,2.15,0,0,1,1.57,0,1.59,1.59,0,0,1,.87.84c.06.28-.14.62-1.23,1a15.68,15.68,0,0,1-4.76.45,17.62,17.62,0,0,1-4.73-.78,7,7,0,0,1-2.74-1.4,3.29,3.29,0,0,1-.76-1.74c-.08-.5.06-.81.22-.84s.39.31.45.56A2.31,2.31,0,0,0,138.78,346Zm7.06-10.75c-.62,0-1.23-.11-2.18-.25s-2-.31-2.55-.48-.81-.62-.67-.78.59-.17.9,0a6,6,0,0,0,1.57.2,14,14,0,0,0,2.18-.22c.84-.17,2-.53,2.66-.62s.9.11,1,.62-.31.67-.78.92a10.48,10.48,0,0,0-.9.62c-.36.25-.87.64-1.2.87s-.53.25-.64.17-.08-.31,0-.45A6.05,6.05,0,0,0,145.83,335.22Zm5.88-.39a10.93,10.93,0,0,0-1.62-1.32c-.22-.14-.34-.34-.22-.5s.34-.14.45-.14a5.05,5.05,0,0,1,1.54.36,3.44,3.44,0,0,1,1.68,1.12.66.66,0,0,1-.39,1A1.63,1.63,0,0,1,151.71,334.83Zm2.21-1.15a4.09,4.09,0,0,0-1.71-1.18.36.36,0,0,1-.25-.5c.06-.14.31-.14.45-.14a6,6,0,0,1,1.57.25,3.44,3.44,0,0,1,1.71,1.06.67.67,0,0,1-.36,1A1.58,1.58,0,0,1,153.92,333.68Z" transform="translate(-0.66)"/><path class="cls-5" d="M166.16,336.09v4.65l.22-.11c.87-.39,1.85-1,3-1.65l.2.64c-1,.76-2.07,1.48-3.08,2.13l-.34.22v8.57q0,1.93-2.27,1.93a1.21,1.21,0,0,0-.76-1.09c-.25-.08-.81-.25-1.62-.45v-.62a18.49,18.49,0,0,0,2.38.2c.53,0,.81-.25.81-.76v-6.92l-1.09.64c-.36.2-.62.36-.78.45-.06.7-.2,1.06-.45,1.06s-.76-.67-1.26-2c1.34-.53,2.46-1.06,3.42-1.46l.17-.08v-5.35h-3.25l-.22-.62h3.47V330c1.71,0,2.52.25,2.52.62s-.34.45-1.06.67v4.2h1.23l1.2-1.74a16.93,16.93,0,0,1,1.51,1.88l-.28.48Zm10.61,14.14a18,18,0,0,0,3.64.36,33.44,33.44,0,0,0,3.89-.25,5.07,5.07,0,0,0-.81,1.71h-2.55a13.15,13.15,0,0,1-6.16-1.18,8.42,8.42,0,0,1-3.28-3.7,12.22,12.22,0,0,1-3.78,5.46l-.48-.48a17,17,0,0,0,3.7-9.13c1.48.39,2.21.76,2.21,1.06s-.34.36-1,.5c-.08.34-.2.84-.36,1.54a7.39,7.39,0,0,0,3.5,3.64v-8.15h-6.44l-.28-.62h12.29l1.34-1.68a15.56,15.56,0,0,1,1.62,1.76l-.28.53h-6.8v3.72H180l1.29-1.62c.56.59,1.09,1.15,1.6,1.74l-.31.53h-5.8Zm2.69-18.65,1-1.15q1.51,1.13,1.51,1.51a.38.38,0,0,1-.17.28l-.67.45v6.86h-1.4v-.92h-7v1.15h-1.46v-9l1.74.84Zm-6.78.64v2.44h7v-2.44Zm7,5.77v-2.72h-7V338Z" transform="translate(-0.66)"/><path class="cls-5" d="M194.78,338c0,.2-.36.42-1.06.64v13.94h-1.48V339.73a30.44,30.44,0,0,1-2.94,4.62l-.53-.39a43.54,43.54,0,0,0,5.54-14c1.54.34,2.32.7,2.32,1.09,0,.22-.39.42-1.18.53a35.21,35.21,0,0,1-2,5.71C194.3,337.52,194.78,337.71,194.78,338Zm4.45,5.46v-6.72h-3.58l-.28-.64h3.86v-5.63c1.68.06,2.49.28,2.49.64s-.31.45-1,.7v4.28h4.23v-5.8c1.71.14,2.55.39,2.55.78q0,.34-1.09.67v4.34h1.88l1.2-1.65a10.21,10.21,0,0,1,1.62,1.76l-.28.53H206.4v6.72h2.46l1.32-1.74a13.9,13.9,0,0,1,1.65,1.88l-.28.5h-17l-.25-.64Zm-4.59,8.29a17.09,17.09,0,0,0,5.07-6.64c1.46.67,2.18,1.18,2.18,1.48s-.42.31-1.2.31a16.19,16.19,0,0,1-5.63,5.38Zm6.08-8.29h4.23v-6.72h-4.23Zm4,1.68c4.23,2.32,6.33,4.26,6.33,5.77,0,.7-.28,1-.9,1-.28,0-.62-.28-.92-.87a18.9,18.9,0,0,0-4.9-5.43Z" transform="translate(-0.66)"/><path class="cls-5" d="M222.52,337c.08-.92.28-2.6.28-3.16a3.37,3.37,0,0,0-.48-1.4.59.59,0,0,1,0-.73c.17-.17.5,0,.78.11a3.37,3.37,0,0,1,1.09.9c.42.5.22,1.23.08,1.93s-.48,2-.62,2.77-.48,3.3-.56,4.28a17.48,17.48,0,0,0-.11,3.89,4.77,4.77,0,0,0,1.48,2.86,4.43,4.43,0,0,0,3,1,6.52,6.52,0,0,0,2.46-.59c.59-.31,1.82-1,2.55-1.4s1.76-1.2,2.21-1.54,1.09-1,1.23-1.06a.39.39,0,0,1,.48-.14.31.31,0,0,1,0,.45,9,9,0,0,1-1.12,1.18c-.59.5-1.79,1.6-3.25,2.66a9.12,9.12,0,0,1-4.37,1.76,5.87,5.87,0,0,1-3.75-1,5.17,5.17,0,0,1-2-3.16,16.91,16.91,0,0,1,.06-4C222,341.58,222.44,337.88,222.52,337Z" transform="translate(-0.66)"/><path class="cls-5" d="M264.33,350.06c-.48.39-1.29-.14-1.88-.45a22.22,22.22,0,0,0-2.8-1.26c-.5-.2-1-.36-1.48-.5a3.1,3.1,0,0,1-.31,1.9,2.71,2.71,0,0,1-1.74,1.26,9.07,9.07,0,0,1-2.55.17,6.41,6.41,0,0,1-2.66-.78,2.76,2.76,0,0,1-1.37-1.88,2,2,0,0,1,.87-1.88,6.22,6.22,0,0,1,3.08-.9,19.47,19.47,0,0,1,3.08.22,2.89,2.89,0,0,0,0-.5c0-.87-.11-2.13-.11-3,0-.14,0-.28,0-.45a1.56,1.56,0,0,1-.36,0,16.64,16.64,0,0,1-2.86-.28,11.21,11.21,0,0,1-2.49-.92c-.34-.17-.53-.56-.31-.78s.42-.14.76,0,.56.17,1.29.36a14.93,14.93,0,0,0,3.22.28h.7c0-.62,0-1.2,0-1.6s0-1,0-1.62a20.21,20.21,0,0,1-2.18.34,6.23,6.23,0,0,1-2.52-.45,11.05,11.05,0,0,1-1.82-.84c-.45-.28-.76-.76-.56-1s.62,0,1,.17a8.88,8.88,0,0,0,1.48.53,8.2,8.2,0,0,0,2.46.17c.62-.06,1.46-.17,2.18-.31,0-.06,0-.11,0-.17,0-.9-.08-1.76-.14-2.41a2.25,2.25,0,0,0-.67-1.51c-.34-.34-.5-.73-.31-1s.67-.25,1.26.06a3.41,3.41,0,0,1,1.4,1.54,5.51,5.51,0,0,1,0,2.44c0,.22-.06.5-.08.81a23.69,23.69,0,0,0,2.32-.7,10.84,10.84,0,0,1,2.07-.73,1.75,1.75,0,0,1,1.54.5c.42.39.08.78-.39,1a26.11,26.11,0,0,1-2.74.67c-1,.22-2.1.48-2.91.64,0,.28-.06.56-.06.84-.06.81-.08,1.76-.11,2.55l1-.08a9.09,9.09,0,0,0,1.79-.36c.45-.14.36-.39.06-.59s-.64-.36-1-.56a2.06,2.06,0,0,1-.78-.78c-.14-.25.06-.5.42-.25a6,6,0,0,0,1.76.9,8,8,0,0,0,1.79.42c.42,0,.76.25.73.64s-.59.73-1.15,1a12.81,12.81,0,0,1-2.77.78c-.5.08-1.23.17-1.9.25,0,.76,0,1.62.08,2.21s.17,1.37.28,2c.84.2,1.74.45,2.55.7a18.21,18.21,0,0,1,3.05,1.2C264.5,348.6,264.8,349.67,264.33,350.06Zm-7.73-2.69a.81.81,0,0,1-.25-.06A14.39,14.39,0,0,0,254,347a9.77,9.77,0,0,0-1.82.08,1.44,1.44,0,0,0-1.32,1,1.28,1.28,0,0,0,.76,1.4,4.4,4.4,0,0,0,2.1.42,3.82,3.82,0,0,0,2.13-.64,1.73,1.73,0,0,0,.76-1.46C256.57,347.68,256.6,347.54,256.6,347.37Z" transform="translate(-0.66)"/><path class="cls-5" d="M294.85,336.93c-.22.25-.78.17-1.15,0a16.11,16.11,0,0,0-2.44-.42,32.89,32.89,0,0,0-3.3-.14c-.5,0-1,0-1.54.06,0,.62-.06,1.51,0,2.21,0,.45.11,1.15.17,1.88a4.39,4.39,0,0,1,.36,1.32,7.13,7.13,0,0,1,.06,2.77c-.06.36-.22,1.26-.42,2.41a7.59,7.59,0,0,1-1.82,3.3,4.31,4.31,0,0,1-2.41,1.34c-.45.06-.76,0-.78-.14s.36-.31.64-.42a5.61,5.61,0,0,0,2.07-1.48,5.46,5.46,0,0,0,1.12-2.41c.06-.5.06-1.23.06-1.93a2.31,2.31,0,0,1-.92.78c-1,.31-1.85-.31-2.52-1.34a5.18,5.18,0,0,1-.84-3.33c0-1.34.5-2.1,1.15-2.38a3.44,3.44,0,0,1,2.49-.06c.17.08.31.17.45.25,0-.81.06-1.62.08-2.35v-.36c-.67.06-1.29.11-1.76.14-1.15.08-2.3.39-3.3.56a29.76,29.76,0,0,1-3.58.59,2.2,2.2,0,0,1-2-.7c-.42-.45-.42-.92-.17-1.15a.8.8,0,0,1,.92,0,6.08,6.08,0,0,0,1.93.42,6.36,6.36,0,0,0,2.27-.14c.64-.08,1.65-.28,2.58-.39s2.13-.34,3-.48c-.06-.53-.11-1-.17-1.4a8.54,8.54,0,0,0-.64-2c-.25-.56-.31-1,0-1.18s.81,0,1.43.39a1.57,1.57,0,0,1,.62.76.56.56,0,0,1,.17.11c.31.25.84.7,1.2,1a19.61,19.61,0,0,0,2.32,1.37,12,12,0,0,0,2,.84c.5.14,1.37.34,2.13.59S295,336.65,294.85,336.93Zm-9.66,5.35c0-.28-.08-.59-.14-1a2,2,0,0,0-2.07-1.54,1.33,1.33,0,0,0-1.23,1.37,5.71,5.71,0,0,0,.5,2.55,2.07,2.07,0,0,0,1.62,1c.42,0,.78-.31,1.06-1A4,4,0,0,0,285.19,342.28ZM289,335c-.45-.31-1.15-.9-1.46-1.15l-1-.76c0,.56-.06,1.48-.08,2.07A12,12,0,0,1,289,335Z" transform="translate(-0.66)"/><path class="cls-5" d="M305.8,346.93a2.91,2.91,0,0,1,1.54,2.69,3.1,3.1,0,0,1-.9,2.16,2.93,2.93,0,0,1-2.27,1,2.74,2.74,0,0,1-1.34-.34,2.93,2.93,0,0,1-1.79-2.8,3.22,3.22,0,0,1,3.11-3.16A3.08,3.08,0,0,1,305.8,346.93Zm-3.28,1.15a2.07,2.07,0,0,0-.62,1.54,2.41,2.41,0,0,0,.36,1.2,2.16,2.16,0,0,0,1.9,1.06,2.22,2.22,0,0,0,1.48-.56,2.28,2.28,0,0,0,.78-1.71,2.15,2.15,0,0,0-1-1.85,2.23,2.23,0,0,0-1.32-.42A2.19,2.19,0,0,0,302.52,348.07Z" transform="translate(-0.66)"/><path class="cls-4" d="M188.57,398.19h7.22a17.84,17.84,0,0,0-3,5.21,27.55,27.55,0,0,0,0,16.3,17.86,17.86,0,0,0,3,5.21h-7.22Z" transform="translate(-0.66)"/><path class="cls-4" d="M200.86,407.49a20.19,20.19,0,0,0,3.28.17H218.5a4.72,4.72,0,0,0,1.82-.2l1,1.2a8.14,8.14,0,0,0-.78,1.76c-2.38,6.52-6.24,10.11-13.5,12.54a6.09,6.09,0,0,0-1.2-1.93,19.22,19.22,0,0,0,8.32-4.26c2-1.82,3.25-3.89,4.54-7.34H204.11a25.92,25.92,0,0,0-3.25.14Zm2.41-6.5a12.85,12.85,0,0,0,2.94.2h9.35a12.85,12.85,0,0,0,2.94-.2v2.16a18.63,18.63,0,0,0-2.91-.14h-9.41a18.63,18.63,0,0,0-2.91.14Z" transform="translate(-0.66)"/><path class="cls-4" d="M228.95,419.75a24.39,24.39,0,0,0,8.15-2.16,21.16,21.16,0,0,0,11.42-12.46,5.62,5.62,0,0,0,1.71,1.65c-2.24,4.87-4.84,8.15-8.54,10.7-2.88,2-5.77,3.11-10.44,4.17a14.57,14.57,0,0,0-1.68.45Zm1.79-17.36a36.42,36.42,0,0,1,6.75,5.26L236,409.39a30.9,30.9,0,0,0-6.66-5.49Z" transform="translate(-0.66)"/><path class="cls-4" d="M275.82,401.86a5.77,5.77,0,0,0-.87.28,43.35,43.35,0,0,1-6.16,1.74c0,2.69-.06,4.51-.08,5.6h6.72a13.28,13.28,0,0,0,2.94-.2v2.13a21.64,21.64,0,0,0-2.94-.14h-6.86a13.33,13.33,0,0,1-1.82,6.19c-1.46,2.44-3.56,4.2-7,5.85a5.3,5.3,0,0,0-1.51-1.74,13.09,13.09,0,0,0,6.55-4.82,10.53,10.53,0,0,0,1.71-5.49h-7.87a21.64,21.64,0,0,0-2.94.14v-2.13a13.29,13.29,0,0,0,2.94.2h8c.06-1.23.08-2.8.08-5.26a53.06,53.06,0,0,1-8.29.78,7.32,7.32,0,0,0-.67-1.88c.78.06,1.2.06,1.62.06a45,45,0,0,0,11.76-1.76,11.7,11.7,0,0,0,3.19-1.34Z" transform="translate(-0.66)"/><path class="cls-4" d="M295.08,399.7a9.24,9.24,0,0,0-1,1.85,14.34,14.34,0,0,1-.87,1.54c.39-.06.39-.06,8.65-.14a4.86,4.86,0,0,0,1.62-.28l1.26,1.26a6.26,6.26,0,0,0-.81,1.85c-1.93,5.21-4.4,9.24-7.31,12a31.23,31.23,0,0,1-8.85,5.77,5,5,0,0,0-1.37-1.74,25.23,25.23,0,0,0,5.8-3.05,19.62,19.62,0,0,0,4.84-4.42,35.28,35.28,0,0,0-6.27-4.54l1.29-1.43a40,40,0,0,1,6.19,4.34,33.42,33.42,0,0,0,3.89-8.12l-9.8.14a27.83,27.83,0,0,1-6.66,7.45,5.13,5.13,0,0,0-1.62-1.34,24.36,24.36,0,0,0,7.14-8,15.3,15.3,0,0,0,1.65-3.84Z" transform="translate(-0.66)"/><path class="cls-4" d="M332.86,401.33a6.34,6.34,0,0,0-1.23,1.18,49.22,49.22,0,0,1-6.55,5.63v11.93a18.62,18.62,0,0,0,.14,3h-2.44a14.59,14.59,0,0,0,.17-2.91V409.47a43.77,43.77,0,0,1-10.81,4.9A6.49,6.49,0,0,0,311,412.5a39.41,39.41,0,0,0,14.53-7.25,23.48,23.48,0,0,0,5.35-5.29Z" transform="translate(-0.66)"/><path class="cls-4" d="M351.22,400.51a11,11,0,0,0-.76,2,151.73,151.73,0,0,1-5.82,16.38c3.72-.25,10.3-1.12,13.61-1.76a54.37,54.37,0,0,0-4.31-7.25l1.74-1a72.5,72.5,0,0,1,7,12.66l-2,1.06a38.21,38.21,0,0,0-1.65-3.78,172.6,172.6,0,0,1-17.22,2.32,19.37,19.37,0,0,0-2.38.31l-.28-2.32.78,0c.2,0,1.74-.08,2.38-.14A106.7,106.7,0,0,0,346.55,408a53.07,53.07,0,0,0,2.21-8.06Z" transform="translate(-0.66)"/><path class="cls-4" d="M366.2,424.9a17.87,17.87,0,0,0,3-5.21,27.56,27.56,0,0,0,0-16.3,17.86,17.86,0,0,0-3-5.21h7.22V424.9Z" transform="translate(-0.66)"/><path class="cls-5" d="M187.51,449.6a13.64,13.64,0,0,0,2.32.14h1.76a16,16,0,0,0,2.32-.14,45.94,45.94,0,0,0-.25,4.65v13.61a17.87,17.87,0,0,0,.22,3.16h-2.66a17.67,17.67,0,0,0,.22-3.16V451.64h-1.51a16.88,16.88,0,0,0-2.44.17Z" transform="translate(-0.66)"/><path class="cls-5" d="M205.9,449.6a13.64,13.64,0,0,0,2.32.14H210a16,16,0,0,0,2.32-.14,45.94,45.94,0,0,0-.25,4.65v13.61a17.87,17.87,0,0,0,.22,3.16h-2.66a17.67,17.67,0,0,0,.22-3.16V451.64h-1.51a16.88,16.88,0,0,0-2.44.17Z" transform="translate(-0.66)"/><path class="cls-5" d="M235.16,455.76h-2.77V453h2.77Zm-2.77,12.35v-2.77h2.77v2.77Z" transform="translate(-0.66)"/><path class="cls-5" d="M251.85,469.45a7,7,0,0,1-1.68-2.58,19.35,19.35,0,0,1-1.06-6.47,16.37,16.37,0,0,1,1.62-7.62,7.5,7.5,0,0,1,11.4-1.46,7.06,7.06,0,0,1,1.68,2.58,19.28,19.28,0,0,1,1.06,6.5c0,3.39-.73,6.38-2,8.09a6.85,6.85,0,0,1-5.94,2.94A7,7,0,0,1,251.85,469.45Zm1.62-16.74a5.73,5.73,0,0,0-1.26,2,17.37,17.37,0,0,0-.87,5.66,15.47,15.47,0,0,0,1.32,6.66,4.77,4.77,0,0,0,4.34,2.44,4.66,4.66,0,0,0,3.44-1.32,5.52,5.52,0,0,0,1.32-2.18,17.37,17.37,0,0,0,.87-5.66,15.87,15.87,0,0,0-1.26-6.52,4.73,4.73,0,0,0-4.4-2.55A4.56,4.56,0,0,0,253.48,452.71Z" transform="translate(-0.66)"/><path class="cls-5" d="M270.25,469.45a7,7,0,0,1-1.68-2.58,19.35,19.35,0,0,1-1.06-6.47,16.37,16.37,0,0,1,1.62-7.62,7.5,7.5,0,0,1,11.4-1.46,7.06,7.06,0,0,1,1.68,2.58,19.28,19.28,0,0,1,1.06,6.5c0,3.39-.73,6.38-2,8.09a6.85,6.85,0,0,1-5.94,2.94A7,7,0,0,1,270.25,469.45Zm1.62-16.74a5.73,5.73,0,0,0-1.26,2,17.37,17.37,0,0,0-.87,5.66,15.47,15.47,0,0,0,1.32,6.66,4.77,4.77,0,0,0,4.34,2.44,4.66,4.66,0,0,0,3.44-1.32,5.52,5.52,0,0,0,1.32-2.18,17.37,17.37,0,0,0,.87-5.66,15.87,15.87,0,0,0-1.26-6.52,4.73,4.73,0,0,0-4.4-2.55A4.56,4.56,0,0,0,271.87,452.71Z" transform="translate(-0.66)"/><path class="cls-5" d="M293,460.49c2.49-2.44,4.23-3.3,6.75-3.3a7.57,7.57,0,0,1,3.5.81,17.17,17.17,0,0,1,2.63,1.68c2.35,1.68,3.78,2.3,5.38,2.3a5.44,5.44,0,0,0,2.24-.48,7.46,7.46,0,0,0,3.19-2.72l1.46,1.26a11.46,11.46,0,0,1-3.22,2.88,7.57,7.57,0,0,1-3.7,1,8.85,8.85,0,0,1-2.66-.45,14,14,0,0,1-3.89-2.27c-2.21-1.65-3.33-2.13-5-2.13a5.74,5.74,0,0,0-2.88.73,9.83,9.83,0,0,0-2.35,2Z" transform="translate(-0.66)"/><path class="cls-5" d="M331.09,449.6a13.64,13.64,0,0,0,2.32.14h1.76a16,16,0,0,0,2.32-.14,45.94,45.94,0,0,0-.25,4.65v13.61a17.87,17.87,0,0,0,.22,3.16h-2.66a17.67,17.67,0,0,0,.22-3.16V451.64h-1.51a16.88,16.88,0,0,0-2.44.17Z" transform="translate(-0.66)"/><path class="cls-5" d="M345.85,463.6c.59-.67,1.23-1.46,1.82-2.16l7.08-8.85a31.61,31.61,0,0,0,2.1-2.86H359a46.4,46.4,0,0,0-.17,4.73v9.18h1.06a18.72,18.72,0,0,0,2.91-.2v2.32a19.22,19.22,0,0,0-2.94-.2h-1V468a16.07,16.07,0,0,0,.22,3h-2.55a16.26,16.26,0,0,0,.22-3v-2.41h-7.5c-1.57,0-2.41,0-3.33.11Zm10.86-7a34,34,0,0,1,.17-3.81c-.59.84-1.29,1.76-2.1,2.8l-6.44,8.12h8.37Z" transform="translate(-0.66)"/><path class="cls-5" d="M378.86,455.76h-2.77V453h2.77Zm-2.77,12.35v-2.77h2.77v2.77Z" transform="translate(-0.66)"/><path class="cls-5" d="M395.1,465.84a4.23,4.23,0,0,0,1.71,2.66,6.18,6.18,0,0,0,3.61,1c3.25,0,5.29-1.68,5.29-4.34s-2-4.28-5.71-4.28a19.63,19.63,0,0,0-2.24.14v-2.21a12,12,0,0,0,2.07.17,5.6,5.6,0,0,0,4.09-1.29A3.86,3.86,0,0,0,405,455c0-2.41-1.68-3.81-4.51-3.81a4.4,4.4,0,0,0-3.72,1.48,5.3,5.3,0,0,0-.9,2l-2.32-.5a6.39,6.39,0,0,1,1.51-2.8,7.27,7.27,0,0,1,5.57-2c4.06,0,6.64,2.13,6.64,5.49a4.92,4.92,0,0,1-2,4.09,5.75,5.75,0,0,1-2.63,1,6,6,0,0,1,3.44,1.2,5.13,5.13,0,0,1,1.88,4.23c0,3.78-2.91,6.13-7.59,6.13-2.83,0-4.93-.78-6.27-2.3a7.28,7.28,0,0,1-1.43-2.72Z" transform="translate(-0.66)"/><path class="cls-5" d="M413.94,469.45a7,7,0,0,1-1.68-2.58,19.35,19.35,0,0,1-1.06-6.47,16.37,16.37,0,0,1,1.62-7.62,7.5,7.5,0,0,1,11.4-1.46,7.06,7.06,0,0,1,1.68,2.58,19.28,19.28,0,0,1,1.06,6.5c0,3.39-.73,6.38-2,8.09a6.85,6.85,0,0,1-5.94,2.94A7,7,0,0,1,413.94,469.45Zm1.62-16.74a5.73,5.73,0,0,0-1.26,2,17.37,17.37,0,0,0-.87,5.66,15.47,15.47,0,0,0,1.32,6.66,4.77,4.77,0,0,0,4.34,2.44,4.66,4.66,0,0,0,3.44-1.32,5.52,5.52,0,0,0,1.32-2.18,17.37,17.37,0,0,0,.87-5.66,15.87,15.87,0,0,0-1.26-6.52,4.73,4.73,0,0,0-4.4-2.55A4.56,4.56,0,0,0,415.57,452.71Z" transform="translate(-0.66)"/><path class="cls-5" d="M202.77,522.45a18.86,18.86,0,0,1-3.89-6,18.33,18.33,0,0,1,0-13.78,18.85,18.85,0,0,1,3.89-6h2.49a17.7,17.7,0,0,0-4.26,5.8,17.48,17.48,0,0,0,0,14.22,17.7,17.7,0,0,0,4.26,5.8Z" transform="translate(-0.66)"/><path class="cls-5" d="M223,507.84c0-.2,0-.62.08-1.82a17.41,17.41,0,0,1-2.1,3.14,32.71,32.71,0,0,1-6.64,6.19,43.14,43.14,0,0,1-4.62,2.88,4.52,4.52,0,0,0-1.4-1.68,31.79,31.79,0,0,0,9.49-6.69,27,27,0,0,0,4-5.1l-9.18.06a21.94,21.94,0,0,0-3.11.11v-2.1a15.82,15.82,0,0,0,3.16.2l10.19-.06,0-2.74a13.4,13.4,0,0,0-.14-2.27h2.24a10.77,10.77,0,0,0-.11,1.54v.67l.06,2.8h3.7a14.18,14.18,0,0,0,2.8-.17v2a22.73,22.73,0,0,0-2.32-.08h-4.17l.2,13.64a25.41,25.41,0,0,0,.14,2.86H223a16.54,16.54,0,0,0,.11-2.21v-.62l-.11-10.3v-.28Z" transform="translate(-0.66)"/><path class="cls-5" d="M236.76,508.29a19.74,19.74,0,0,0,3.47.17H256.5a22.06,22.06,0,0,0,3.39-.14v2.27a32.09,32.09,0,0,0-3.42-.11H240.23a30.65,30.65,0,0,0-3.47.11Z" transform="translate(-0.66)"/><path class="cls-5" d="M275.32,497.7a9.26,9.26,0,0,0-1,1.85,14.34,14.34,0,0,1-.87,1.54,9.45,9.45,0,0,1,1-.06l7.31-.08a5,5,0,0,0,1.62-.28l1.48,1.54a5.41,5.41,0,0,0-.84,1.82,43.17,43.17,0,0,1-3.67,7.48c-2.8,4.34-6.55,7.42-12.38,10.08a5,5,0,0,0-1.37-1.74,25.22,25.22,0,0,0,5.8-3.05,19.63,19.63,0,0,0,4.84-4.42,35.3,35.3,0,0,0-6.27-4.54l1.29-1.43a40,40,0,0,1,6.19,4.34,33.42,33.42,0,0,0,3.89-8.12l-9.8.14a27.83,27.83,0,0,1-6.66,7.45,5.13,5.13,0,0,0-1.62-1.34,24.36,24.36,0,0,0,7.14-8,15.28,15.28,0,0,0,1.65-3.84Zm9.46-.22a21.51,21.51,0,0,1,2.8,3.95l-1.34.73a20.12,20.12,0,0,0-2.74-4Zm2.58-1.32a20.39,20.39,0,0,1,2.8,3.92l-1.34.76a19.15,19.15,0,0,0-2.77-4Z" transform="translate(-0.66)"/><path class="cls-5" d="M292.76,508.29a19.74,19.74,0,0,0,3.47.17H312.5a22.06,22.06,0,0,0,3.39-.14v2.27a32.09,32.09,0,0,0-3.42-.11H296.23a30.65,30.65,0,0,0-3.47.11Z" transform="translate(-0.66)"/><path class="cls-5" d="M342,520.44a52.09,52.09,0,0,0-9-8.65,30.36,30.36,0,0,1-5.35,5,36,36,0,0,1-5.49,3.36,6.23,6.23,0,0,0-1.37-1.85,22.52,22.52,0,0,0,5.68-3.22,30.34,30.34,0,0,0,10-12.63c.06-.17.08-.2.14-.34a.59.59,0,0,0,.08-.2,4.88,4.88,0,0,1-.67,0l-9.35.14a18.81,18.81,0,0,0-2.88.22l-.06-2.27a13.24,13.24,0,0,0,2.21.14h.73l10-.11a5.21,5.21,0,0,0,1.79-.22l1.18,1.2a5.22,5.22,0,0,0-.78,1.37,33.85,33.85,0,0,1-4.62,7.84,69.63,69.63,0,0,1,9.32,8.4Z" transform="translate(-0.66)"/><path class="cls-5" d="M354.61,521.05a18,18,0,0,0,.17-2.94V500.73a16.63,16.63,0,0,0-.17-2.86H357a17.62,17.62,0,0,0-.14,2.91V506a69.45,69.45,0,0,1,12.46,5.91l-1.2,2.07a57.13,57.13,0,0,0-10.44-5.54,3.08,3.08,0,0,1-.87-.48l-.06,0a9.79,9.79,0,0,1,.11,1.65v8.43a19.09,19.09,0,0,0,.14,3Z" transform="translate(-0.66)"/><path class="cls-5" d="M381.32,504.81A30.74,30.74,0,0,1,384.1,511l-1.9.64a23.1,23.1,0,0,0-2.63-6.27Zm15.79-.17a16.58,16.58,0,0,0-.62,2.27,25.22,25.22,0,0,1-2.46,6.27,20.29,20.29,0,0,1-9.27,8.09,5.66,5.66,0,0,0-1.29-1.57c4.31-1.93,6.94-4.09,8.88-7.31a21.14,21.14,0,0,0,2.38-6,11.79,11.79,0,0,0,.31-1.9v-.28Zm-10.08-1a28.1,28.1,0,0,1,2.72,6l-1.85.64a24.55,24.55,0,0,0-2.58-6.13Z" transform="translate(-0.66)"/><path class="cls-5" d="M423.52,500.61a4.34,4.34,0,0,1-.06-.53,2.88,2.88,0,1,1,2.88,2.91,2.65,2.65,0,0,1-.62-.08,28.65,28.65,0,0,1-3.89,9,24.1,24.1,0,0,1-6.89,6.41,25.31,25.31,0,0,1-5.15,2.49,5.44,5.44,0,0,0-1.37-1.93,21.47,21.47,0,0,0,6.33-3c4.59-3.08,7.25-7.08,8.82-13.36H409.32a19.4,19.4,0,0,0-3.14.17v-2.24a20.1,20.1,0,0,0,3.16.17h14.17Zm1.12-.5a1.73,1.73,0,0,0,1.71,1.71,1.71,1.71,0,1,0-1.71-1.71Z" transform="translate(-0.66)"/><path class="cls-5" d="M462.83,498.6a13.64,13.64,0,0,0,2.32.14h1.76a16,16,0,0,0,2.32-.14,45.94,45.94,0,0,0-.25,4.65v13.61a17.87,17.87,0,0,0,.22,3.16h-2.66a17.67,17.67,0,0,0,.22-3.16V500.64h-1.51a16.88,16.88,0,0,0-2.44.17Z" transform="translate(-0.66)"/><path class="cls-5" d="M477.59,512.6c.59-.67,1.23-1.46,1.82-2.16l7.08-8.85a31.61,31.61,0,0,0,2.1-2.86h2.1a46.4,46.4,0,0,0-.17,4.73v9.18h1.06a18.72,18.72,0,0,0,2.91-.2v2.32a19.22,19.22,0,0,0-2.94-.2h-1V517a16.07,16.07,0,0,0,.22,3H488.2a16.26,16.26,0,0,0,.22-3v-2.41h-7.5c-1.57,0-2.41,0-3.33.11Zm10.86-7a34,34,0,0,1,.17-3.81c-.59.84-1.29,1.76-2.1,2.8l-6.44,8.12h8.37Z" transform="translate(-0.66)"/><path class="cls-5" d="M510.6,504.76h-2.77V502h2.77Zm-2.77,12.35v-2.77h2.77v2.77Z" transform="translate(-0.66)"/><path class="cls-5" d="M527.29,518.45a7,7,0,0,1-1.68-2.58,19.35,19.35,0,0,1-1.06-6.47,16.37,16.37,0,0,1,1.62-7.62,7.5,7.5,0,0,1,11.4-1.46,7.06,7.06,0,0,1,1.68,2.58,19.28,19.28,0,0,1,1.06,6.5c0,3.39-.73,6.38-2,8.09a6.85,6.85,0,0,1-5.94,2.94A7,7,0,0,1,527.29,518.45Zm1.62-16.74a5.73,5.73,0,0,0-1.26,2,17.37,17.37,0,0,0-.87,5.66,15.47,15.47,0,0,0,1.32,6.66,4.77,4.77,0,0,0,4.34,2.44,4.66,4.66,0,0,0,3.44-1.32A5.52,5.52,0,0,0,537.2,515a17.37,17.37,0,0,0,.87-5.66,15.87,15.87,0,0,0-1.26-6.52,4.73,4.73,0,0,0-4.4-2.55A4.56,4.56,0,0,0,528.91,501.71Z" transform="translate(-0.66)"/><path class="cls-5" d="M545.68,518.45a7,7,0,0,1-1.68-2.58,19.35,19.35,0,0,1-1.06-6.47,16.37,16.37,0,0,1,1.62-7.62,7.5,7.5,0,0,1,11.4-1.46,7.06,7.06,0,0,1,1.68,2.58,19.28,19.28,0,0,1,1.06,6.5c0,3.39-.73,6.38-2,8.09a6.85,6.85,0,0,1-5.94,2.94A7,7,0,0,1,545.68,518.45Zm1.62-16.74a5.73,5.73,0,0,0-1.26,2,17.37,17.37,0,0,0-.87,5.66,15.47,15.47,0,0,0,1.32,6.66,4.77,4.77,0,0,0,4.34,2.44,4.66,4.66,0,0,0,3.44-1.32A5.52,5.52,0,0,0,555.6,515a17.37,17.37,0,0,0,.87-5.66,15.87,15.87,0,0,0-1.26-6.52,4.73,4.73,0,0,0-4.4-2.55A4.56,4.56,0,0,0,547.31,501.71Z" transform="translate(-0.66)"/><path class="cls-5" d="M561.08,522.45a17.41,17.41,0,0,0,4.26-5.8,17.48,17.48,0,0,0,0-14.22,17.41,17.41,0,0,0-4.26-5.8h2.49a18.84,18.84,0,0,1,3.89,6,18.32,18.32,0,0,1,0,13.78,18.85,18.85,0,0,1-3.89,6Z" transform="translate(-0.66)"/><path class="cls-4" d="M188.57,545.19h7.22a17.84,17.84,0,0,0-3,5.21,27.55,27.55,0,0,0,0,16.3,17.86,17.86,0,0,0,3,5.21h-7.22Z" transform="translate(-0.66)"/><path class="cls-4" d="M212.4,557a26.08,26.08,0,0,1-.31,3,11,11,0,0,1-3.78,7.39,16.45,16.45,0,0,1-4.93,2.77,4.89,4.89,0,0,0-1.32-1.82c3.67-1.18,5.94-3,7.08-5.52a16,16,0,0,0,1.12-5.8h-7.59a25.52,25.52,0,0,0-3.22.14V555a20.1,20.1,0,0,0,3.25.17h16.38a20.1,20.1,0,0,0,3.25-.17v2.07a25.51,25.51,0,0,0-3.22-.14Zm-10.11-8.88a15.47,15.47,0,0,0,3.22.2h9a16.61,16.61,0,0,0,3.22-.2v2.13a22.48,22.48,0,0,0-3.19-.14h-9.1a22.48,22.48,0,0,0-3.19.14Zm17.47.87A19.82,19.82,0,0,1,222,553l-1.54.62a17.25,17.25,0,0,0-2.18-4.09Zm2.8-1.15a19,19,0,0,1,2.24,4l-1.51.64a17,17,0,0,0-2.21-4.12Z" transform="translate(-0.66)"/><path class="cls-4" d="M247.09,553.11a3.54,3.54,0,0,0-.67.64,46.93,46.93,0,0,1-5.63,4.93v9.46a14.93,14.93,0,0,0,.14,2.46h-2.18a16.09,16.09,0,0,0,.11-2.44v-8.32a32.63,32.63,0,0,1-8.6,3.86,5.19,5.19,0,0,0-1-1.68,27.63,27.63,0,0,0,6.5-2.46,30.78,30.78,0,0,0,8-5.82,9.15,9.15,0,0,0,1.57-1.82Z" transform="translate(-0.66)"/><path class="cls-4" d="M275.06,554a17.1,17.1,0,0,0,3.28-.2V556a25.73,25.73,0,0,0-3.25-.14h-6.33c-.22,3.92-.73,6-2.07,8.15a16.13,16.13,0,0,1-6.94,5.85,6.1,6.1,0,0,0-1.43-1.79,12.94,12.94,0,0,0,6.94-5.77c.9-1.68,1.2-3.11,1.43-6.44h-7.76a25.73,25.73,0,0,0-3.25.14v-2.18a17.27,17.27,0,0,0,3.28.2h7.81c0-1,0-1.6,0-2.46v-2a13.5,13.5,0,0,0-.14-2.38H269a13.45,13.45,0,0,0-.14,2.38l0,2V554Z" transform="translate(-0.66)"/><path class="cls-4" d="M283.44,557.29a19.74,19.74,0,0,0,3.47.17h16.27a22.06,22.06,0,0,0,3.39-.14v2.27a32.09,32.09,0,0,0-3.42-.11H286.91a30.65,30.65,0,0,0-3.47.11Z" transform="translate(-0.66)"/><path class="cls-4" d="M323.08,546.7a9.24,9.24,0,0,0-1,1.85,14.34,14.34,0,0,1-.87,1.54c.39-.06.39-.06,8.65-.14a4.86,4.86,0,0,0,1.62-.28l1.26,1.26a6.26,6.26,0,0,0-.81,1.85c-1.93,5.21-4.4,9.24-7.31,12a31.23,31.23,0,0,1-8.85,5.77,5,5,0,0,0-1.37-1.74,25.23,25.23,0,0,0,5.8-3.05,19.62,19.62,0,0,0,4.84-4.42,35.28,35.28,0,0,0-6.27-4.54l1.29-1.43a40,40,0,0,1,6.19,4.34,33.42,33.42,0,0,0,3.89-8.12l-9.8.14a27.83,27.83,0,0,1-6.66,7.45,5.13,5.13,0,0,0-1.62-1.34,24.36,24.36,0,0,0,7.14-8,15.3,15.3,0,0,0,1.65-3.84Z" transform="translate(-0.66)"/><path class="cls-4" d="M360.86,548.33a6.34,6.34,0,0,0-1.23,1.18,49.22,49.22,0,0,1-6.55,5.63v11.93a18.62,18.62,0,0,0,.14,3h-2.44a14.59,14.59,0,0,0,.17-2.91V556.47a43.77,43.77,0,0,1-10.81,4.9A6.49,6.49,0,0,0,339,559.5a39.41,39.41,0,0,0,14.53-7.25,23.48,23.48,0,0,0,5.35-5.29Z" transform="translate(-0.66)"/><path class="cls-4" d="M379.22,547.51a11,11,0,0,0-.76,2,151.73,151.73,0,0,1-5.82,16.38c3.72-.25,10.3-1.12,13.61-1.76a54.37,54.37,0,0,0-4.31-7.25l1.74-1a72.5,72.5,0,0,1,7,12.66l-2,1.06a38.21,38.21,0,0,0-1.65-3.78,172.6,172.6,0,0,1-17.22,2.32,19.37,19.37,0,0,0-2.38.31l-.28-2.32.78,0c.2,0,1.74-.08,2.38-.14A106.7,106.7,0,0,0,374.55,555a53.07,53.07,0,0,0,2.21-8.06Z" transform="translate(-0.66)"/><path class="cls-4" d="M394.2,571.9a17.87,17.87,0,0,0,3-5.21,27.56,27.56,0,0,0,0-16.3,17.86,17.86,0,0,0-3-5.21h7.22V571.9Z" transform="translate(-0.66)"/><path class="cls-5" d="M187.51,596.6a13.64,13.64,0,0,0,2.32.14h1.76a16,16,0,0,0,2.32-.14,45.94,45.94,0,0,0-.25,4.65v13.61a17.87,17.87,0,0,0,.22,3.16h-2.66a17.67,17.67,0,0,0,.22-3.16V598.64h-1.51a16.88,16.88,0,0,0-2.44.17Z" transform="translate(-0.66)"/><path class="cls-5" d="M218,598.64a10.91,10.91,0,0,0-2.07,2.69A36,36,0,0,0,209.63,618H207a36.82,36.82,0,0,1,3.39-11.17,45.48,45.48,0,0,1,5-8.12h-9.1a21.58,21.58,0,0,0-3.16.2v-2.38a21.84,21.84,0,0,0,3.19.2h8.4a24.59,24.59,0,0,0,3.25-.14Z" transform="translate(-0.66)"/><path class="cls-5" d="M235.16,602.76h-2.77V600h2.77Zm-2.77,12.35v-2.77h2.77v2.77Z" transform="translate(-0.66)"/><path class="cls-5" d="M251.4,612.84a4.23,4.23,0,0,0,1.71,2.66,6.18,6.18,0,0,0,3.61,1c3.25,0,5.29-1.68,5.29-4.34s-2-4.28-5.71-4.28a19.64,19.64,0,0,0-2.24.14v-2.21a12,12,0,0,0,2.07.17,5.6,5.6,0,0,0,4.09-1.29,3.86,3.86,0,0,0,1.12-2.72c0-2.41-1.68-3.81-4.51-3.81a4.4,4.4,0,0,0-3.72,1.48,5.31,5.31,0,0,0-.9,2l-2.32-.5a6.39,6.39,0,0,1,1.51-2.8,7.27,7.27,0,0,1,5.57-2c4.06,0,6.64,2.13,6.64,5.49a4.92,4.92,0,0,1-2,4.09,5.75,5.75,0,0,1-2.63,1,6,6,0,0,1,3.44,1.2,5.13,5.13,0,0,1,1.88,4.23c0,3.78-2.91,6.13-7.59,6.13-2.83,0-4.93-.78-6.27-2.3a7.28,7.28,0,0,1-1.43-2.72Z" transform="translate(-0.66)"/><path class="cls-5" d="M270.25,616.45a7,7,0,0,1-1.68-2.58,19.35,19.35,0,0,1-1.06-6.47,16.37,16.37,0,0,1,1.62-7.62,7.5,7.5,0,0,1,11.4-1.46,7.06,7.06,0,0,1,1.68,2.58,19.28,19.28,0,0,1,1.06,6.5c0,3.39-.73,6.38-2,8.09a6.85,6.85,0,0,1-5.94,2.94A7,7,0,0,1,270.25,616.45Zm1.62-16.74a5.73,5.73,0,0,0-1.26,2,17.37,17.37,0,0,0-.87,5.66,15.47,15.47,0,0,0,1.32,6.66,4.77,4.77,0,0,0,4.34,2.44,4.66,4.66,0,0,0,3.44-1.32,5.52,5.52,0,0,0,1.32-2.18,17.37,17.37,0,0,0,.87-5.66,15.87,15.87,0,0,0-1.26-6.52,4.73,4.73,0,0,0-4.4-2.55A4.56,4.56,0,0,0,271.87,599.71Z" transform="translate(-0.66)"/><path class="cls-5" d="M293,607.49c2.49-2.44,4.23-3.3,6.75-3.3a7.57,7.57,0,0,1,3.5.81,17.17,17.17,0,0,1,2.63,1.68c2.35,1.68,3.78,2.3,5.38,2.3a5.44,5.44,0,0,0,2.24-.48,7.46,7.46,0,0,0,3.19-2.72l1.46,1.26a11.46,11.46,0,0,1-3.22,2.88,7.57,7.57,0,0,1-3.7,1,8.85,8.85,0,0,1-2.66-.45,14,14,0,0,1-3.89-2.27c-2.21-1.65-3.33-2.13-5-2.13a5.74,5.74,0,0,0-2.88.73,9.83,9.83,0,0,0-2.35,2Z" transform="translate(-0.66)"/><path class="cls-5" d="M331.32,618a20,20,0,0,0-3.08.14,12.87,12.87,0,0,1,.81-3.7,12.29,12.29,0,0,1,3.64-4.82,38,38,0,0,1,4.28-3.08c2.77-1.88,3.7-3.11,3.7-4.82,0-2.13-1.79-3.5-4.65-3.5a4.63,4.63,0,0,0-4.06,1.82,5.66,5.66,0,0,0-1,2.83l-2.35-.39a7.61,7.61,0,0,1,1.76-4,7.15,7.15,0,0,1,5.63-2.16c4.23,0,6.94,2.13,6.94,5.43a5.85,5.85,0,0,1-1.65,4c-.84,1-1.57,1.48-4.76,3.61a15.25,15.25,0,0,0-4,3.44,7.85,7.85,0,0,0-1.6,3.25h8.93a24.35,24.35,0,0,0,3.42-.2v2.35a31.41,31.41,0,0,0-3.44-.17Z" transform="translate(-0.66)"/><path class="cls-5" d="M349.49,596.6a13.64,13.64,0,0,0,2.32.14h1.76a16,16,0,0,0,2.32-.14,45.94,45.94,0,0,0-.25,4.65v13.61a17.87,17.87,0,0,0,.22,3.16h-2.66a17.67,17.67,0,0,0,.22-3.16V598.64h-1.51a16.88,16.88,0,0,0-2.44.17Z" transform="translate(-0.66)"/><path class="cls-5" d="M378.75,602.76H376V600h2.77ZM376,615.11v-2.77h2.77v2.77Z" transform="translate(-0.66)"/><path class="cls-5" d="M395,612.84a4.23,4.23,0,0,0,1.71,2.66,6.18,6.18,0,0,0,3.61,1c3.25,0,5.29-1.68,5.29-4.34s-2-4.28-5.71-4.28a19.64,19.64,0,0,0-2.24.14v-2.21a12,12,0,0,0,2.07.17,5.6,5.6,0,0,0,4.09-1.29,3.86,3.86,0,0,0,1.12-2.72c0-2.41-1.68-3.81-4.51-3.81a4.4,4.4,0,0,0-3.72,1.48,5.31,5.31,0,0,0-.9,2l-2.32-.5a6.39,6.39,0,0,1,1.51-2.8,7.27,7.27,0,0,1,5.57-2c4.06,0,6.64,2.13,6.64,5.49a4.92,4.92,0,0,1-2,4.09,5.75,5.75,0,0,1-2.63,1,6,6,0,0,1,3.44,1.2,5.13,5.13,0,0,1,1.88,4.23c0,3.78-2.91,6.13-7.59,6.13-2.83,0-4.93-.78-6.27-2.3a7.28,7.28,0,0,1-1.43-2.72Z" transform="translate(-0.66)"/><path class="cls-5" d="M413.83,616.45a7,7,0,0,1-1.68-2.58,19.35,19.35,0,0,1-1.06-6.47,16.37,16.37,0,0,1,1.62-7.62,7.5,7.5,0,0,1,11.4-1.46,7.06,7.06,0,0,1,1.68,2.58,19.28,19.28,0,0,1,1.06,6.5c0,3.39-.73,6.38-2,8.09a6.85,6.85,0,0,1-5.94,2.94A7,7,0,0,1,413.83,616.45Zm1.62-16.74a5.73,5.73,0,0,0-1.26,2,17.37,17.37,0,0,0-.87,5.66,15.47,15.47,0,0,0,1.32,6.66,4.77,4.77,0,0,0,4.34,2.44,4.66,4.66,0,0,0,3.44-1.32,5.52,5.52,0,0,0,1.32-2.18,17.37,17.37,0,0,0,.87-5.66,15.87,15.87,0,0,0-1.26-6.52,4.73,4.73,0,0,0-4.4-2.55A4.56,4.56,0,0,0,415.46,599.71Z" transform="translate(-0.66)"/><path class="cls-5" d="M193.44,669.45a18.86,18.86,0,0,1-3.89-6,18.33,18.33,0,0,1,0-13.78,18.85,18.85,0,0,1,3.89-6h2.49a17.7,17.7,0,0,0-4.26,5.8,17.48,17.48,0,0,0,0,14.22,17.7,17.7,0,0,0,4.26,5.8Z" transform="translate(-0.66)"/><path class="cls-5" d="M213.63,654.84c0-.2,0-.62.08-1.82a17.41,17.41,0,0,1-2.1,3.14,32.71,32.71,0,0,1-6.64,6.19,43.09,43.09,0,0,1-4.62,2.88,4.52,4.52,0,0,0-1.4-1.68,31.79,31.79,0,0,0,9.49-6.69,27,27,0,0,0,4-5.1l-9.18.06a21.94,21.94,0,0,0-3.11.11v-2.1a15.82,15.82,0,0,0,3.16.2l10.19-.06,0-2.74a13.4,13.4,0,0,0-.14-2.27h2.24a10.77,10.77,0,0,0-.11,1.54v.67l.06,2.8h3.7a14.18,14.18,0,0,0,2.8-.17v2a22.73,22.73,0,0,0-2.32-.08h-4.17l.2,13.64a25.41,25.41,0,0,0,.14,2.86h-2.27a16.54,16.54,0,0,0,.11-2.21v-.62l-.11-10.3v-.28Z" transform="translate(-0.66)"/><path class="cls-5" d="M227.44,655.29a19.74,19.74,0,0,0,3.47.17h16.27a22.06,22.06,0,0,0,3.39-.14v2.27a32.09,32.09,0,0,0-3.42-.11H230.91a30.65,30.65,0,0,0-3.47.11Z" transform="translate(-0.66)"/><path class="cls-5" d="M266,644.7a9.29,9.29,0,0,0-1,1.85,14.34,14.34,0,0,1-.87,1.54,9.45,9.45,0,0,1,1-.06l7.31-.08a5,5,0,0,0,1.62-.28l1.48,1.54a5.41,5.41,0,0,0-.84,1.82,43.17,43.17,0,0,1-3.67,7.48c-2.8,4.34-6.55,7.42-12.38,10.08a5,5,0,0,0-1.37-1.74,25.21,25.21,0,0,0,5.8-3.05,19.63,19.63,0,0,0,4.84-4.42,35.3,35.3,0,0,0-6.27-4.54l1.29-1.43a40,40,0,0,1,6.19,4.34,33.42,33.42,0,0,0,3.89-8.12l-9.8.14a27.83,27.83,0,0,1-6.66,7.45,5.13,5.13,0,0,0-1.62-1.34,24.36,24.36,0,0,0,7.14-8,15.28,15.28,0,0,0,1.65-3.84Zm9.46-.22a21.51,21.51,0,0,1,2.8,3.95l-1.34.73a20.12,20.12,0,0,0-2.74-4Zm2.58-1.32a20.39,20.39,0,0,1,2.8,3.92l-1.34.76a19.15,19.15,0,0,0-2.77-4Z" transform="translate(-0.66)"/><path class="cls-5" d="M283.44,655.29a19.74,19.74,0,0,0,3.47.17h16.27a22.06,22.06,0,0,0,3.39-.14v2.27a32.09,32.09,0,0,0-3.42-.11H286.91a30.65,30.65,0,0,0-3.47.11Z" transform="translate(-0.66)"/><path class="cls-5" d="M332.63,667.44a52.09,52.09,0,0,0-9-8.65,30.36,30.36,0,0,1-5.35,5,36,36,0,0,1-5.49,3.36,6.23,6.23,0,0,0-1.37-1.85,22.52,22.52,0,0,0,5.68-3.22,30.34,30.34,0,0,0,10-12.63c.06-.17.08-.2.14-.34a.58.58,0,0,0,.08-.2,4.87,4.87,0,0,1-.67,0l-9.35.14a18.81,18.81,0,0,0-2.88.22l-.06-2.27a13.24,13.24,0,0,0,2.21.14h.73l10-.11a5.21,5.21,0,0,0,1.79-.22l1.18,1.2a5.22,5.22,0,0,0-.78,1.37,33.85,33.85,0,0,1-4.62,7.84,69.63,69.63,0,0,1,9.32,8.4Z" transform="translate(-0.66)"/><path class="cls-5" d="M345.29,668.05a18,18,0,0,0,.17-2.94V647.73a16.63,16.63,0,0,0-.17-2.86h2.41a17.62,17.62,0,0,0-.14,2.91V653A69.45,69.45,0,0,1,360,658.93l-1.2,2.07a57.13,57.13,0,0,0-10.44-5.54,3.08,3.08,0,0,1-.87-.48l-.06,0a9.79,9.79,0,0,1,.11,1.65v8.43a19.09,19.09,0,0,0,.14,3Z" transform="translate(-0.66)"/><path class="cls-5" d="M372,651.81a30.74,30.74,0,0,1,2.77,6.22l-1.9.64a23.1,23.1,0,0,0-2.63-6.27Zm15.79-.17a16.58,16.58,0,0,0-.62,2.27,25.22,25.22,0,0,1-2.46,6.27,20.29,20.29,0,0,1-9.27,8.09,5.66,5.66,0,0,0-1.29-1.57c4.31-1.93,6.94-4.09,8.88-7.31a21.14,21.14,0,0,0,2.38-6,11.79,11.79,0,0,0,.31-1.9v-.28Zm-10.08-1a28.1,28.1,0,0,1,2.72,6l-1.85.64a24.55,24.55,0,0,0-2.58-6.13Z" transform="translate(-0.66)"/><path class="cls-5" d="M414.2,647.61a4.34,4.34,0,0,1-.06-.53A2.88,2.88,0,1,1,417,650a2.65,2.65,0,0,1-.62-.08,28.65,28.65,0,0,1-3.89,9,24.1,24.1,0,0,1-6.89,6.41,25.31,25.31,0,0,1-5.15,2.49,5.44,5.44,0,0,0-1.37-1.93,21.47,21.47,0,0,0,6.33-3c4.59-3.08,7.25-7.08,8.82-13.36H400a19.4,19.4,0,0,0-3.14.17v-2.24a20.11,20.11,0,0,0,3.16.17H414.2Zm1.12-.5a1.73,1.73,0,0,0,1.71,1.71,1.71,1.71,0,1,0-1.71-1.71Z" transform="translate(-0.66)"/><path class="cls-5" d="M453.73,667a20,20,0,0,0-3.08.14,12.87,12.87,0,0,1,.81-3.7,12.29,12.29,0,0,1,3.64-4.82,38,38,0,0,1,4.28-3.08c2.77-1.88,3.7-3.11,3.7-4.82,0-2.13-1.79-3.5-4.65-3.5a4.63,4.63,0,0,0-4.06,1.82,5.66,5.66,0,0,0-1,2.83l-2.35-.39a7.61,7.61,0,0,1,1.76-4,7.15,7.15,0,0,1,5.63-2.16c4.23,0,6.94,2.13,6.94,5.43a5.85,5.85,0,0,1-1.65,4c-.84,1-1.57,1.48-4.76,3.61a15.25,15.25,0,0,0-4,3.44,7.85,7.85,0,0,0-1.6,3.25h8.93a24.35,24.35,0,0,0,3.42-.2v2.35a31.41,31.41,0,0,0-3.44-.17Z" transform="translate(-0.66)"/><path class="cls-5" d="M471.46,665.45a7,7,0,0,1-1.68-2.58,19.35,19.35,0,0,1-1.06-6.47,16.37,16.37,0,0,1,1.62-7.62,7.5,7.5,0,0,1,11.4-1.46,7.06,7.06,0,0,1,1.68,2.58,19.28,19.28,0,0,1,1.06,6.5c0,3.39-.73,6.38-2,8.09a6.85,6.85,0,0,1-5.94,2.94A7,7,0,0,1,471.46,665.45Zm1.62-16.74a5.73,5.73,0,0,0-1.26,2,17.37,17.37,0,0,0-.87,5.66,15.47,15.47,0,0,0,1.32,6.66,4.77,4.77,0,0,0,4.34,2.44,4.66,4.66,0,0,0,3.44-1.32,5.52,5.52,0,0,0,1.32-2.18,17.37,17.37,0,0,0,.87-5.66,15.87,15.87,0,0,0-1.26-6.52,4.73,4.73,0,0,0-4.4-2.55A4.56,4.56,0,0,0,473.08,648.71Z" transform="translate(-0.66)"/><path class="cls-5" d="M501.16,651.76h-2.77V649h2.77Zm-2.77,12.35v-2.77h2.77v2.77Z" transform="translate(-0.66)"/><path class="cls-5" d="M517.4,661.84a4.23,4.23,0,0,0,1.71,2.66,6.18,6.18,0,0,0,3.61,1c3.25,0,5.29-1.68,5.29-4.34s-2-4.28-5.71-4.28a19.64,19.64,0,0,0-2.24.14v-2.21a12,12,0,0,0,2.07.17,5.6,5.6,0,0,0,4.09-1.29,3.86,3.86,0,0,0,1.12-2.72c0-2.41-1.68-3.81-4.51-3.81a4.4,4.4,0,0,0-3.72,1.48,5.31,5.31,0,0,0-.9,2l-2.32-.5a6.39,6.39,0,0,1,1.51-2.8,7.27,7.27,0,0,1,5.57-2c4.06,0,6.64,2.13,6.64,5.49a4.92,4.92,0,0,1-2,4.09,5.75,5.75,0,0,1-2.63,1,6,6,0,0,1,3.44,1.2,5.13,5.13,0,0,1,1.88,4.23c0,3.78-2.91,6.13-7.59,6.13-2.83,0-4.93-.78-6.27-2.3a7.28,7.28,0,0,1-1.43-2.72Z" transform="translate(-0.66)"/><path class="cls-5" d="M536.25,665.45a7,7,0,0,1-1.68-2.58,19.35,19.35,0,0,1-1.06-6.47,16.37,16.37,0,0,1,1.62-7.62,7.5,7.5,0,0,1,11.4-1.46,7.06,7.06,0,0,1,1.68,2.58,19.28,19.28,0,0,1,1.06,6.5c0,3.39-.73,6.38-2,8.09a6.85,6.85,0,0,1-5.94,2.94A7,7,0,0,1,536.25,665.45Zm1.62-16.74a5.73,5.73,0,0,0-1.26,2,17.37,17.37,0,0,0-.87,5.66,15.47,15.47,0,0,0,1.32,6.66,4.77,4.77,0,0,0,4.34,2.44,4.66,4.66,0,0,0,3.44-1.32,5.52,5.52,0,0,0,1.32-2.18,17.37,17.37,0,0,0,.87-5.66,15.87,15.87,0,0,0-1.26-6.52,4.73,4.73,0,0,0-4.4-2.55A4.56,4.56,0,0,0,537.87,648.71Z" transform="translate(-0.66)"/><path class="cls-5" d="M551.65,669.45a17.41,17.41,0,0,0,4.26-5.8,17.48,17.48,0,0,0,0-14.22,17.41,17.41,0,0,0-4.26-5.8h2.49a18.84,18.84,0,0,1,3.89,6,18.32,18.32,0,0,1,0,13.78,18.85,18.85,0,0,1-3.89,6Z" transform="translate(-0.66)"/><path class="cls-5" d="M43.94,710.2l.9.92-9.94,10,9.94,9.94-.9.92L34,722.13,24.09,732l-.92-.92,9.94-9.94-9.94-10,.92-.92L34,720.14ZM28.12,721.09A2.13,2.13,0,0,1,26,723.25a2.17,2.17,0,0,1-2.16-2.16,2.14,2.14,0,0,1,4.28,0Zm8,8.18A2.17,2.17,0,0,1,34,731.43a2.16,2.16,0,0,1-.2-4.31h.08s0,0,.06,0l.06,0A2.13,2.13,0,0,1,36.13,729.27Zm0-16.27A2.13,2.13,0,0,1,34,715.16,2.17,2.17,0,0,1,31.87,713,2.15,2.15,0,0,1,34,710.87,2.13,2.13,0,0,1,36.16,713Zm8,8.12A2.13,2.13,0,1,1,42,719,2.13,2.13,0,0,1,44.14,721.12Z" transform="translate(-0.66)"/><path class="cls-5" d="M61.1,710.93a13.93,13.93,0,0,0-.17-2.52h2.16a13.72,13.72,0,0,0-.17,2.52v8.29h7.2a11.21,11.21,0,0,0,2.21-.17,18,18,0,0,0-.11,2.21v9.88a22,22,0,0,0,.17,2.83h-2v-1.48h-17a17.9,17.9,0,0,0-2.6.17v-2a15.68,15.68,0,0,0,2.58.14h17V726.5h-16a15.21,15.21,0,0,0-2.49.14v-2a14.8,14.8,0,0,0,2.58.14H70.43v-3.86H53.63a16.72,16.72,0,0,0-2.55.14v-2a16.79,16.79,0,0,0,2.63.14H61.1Zm-8-.78a30.37,30.37,0,0,1,4.37,6.8l-1.65,1A27.73,27.73,0,0,0,51.58,711Zm19.29.67a28.27,28.27,0,0,1-4.68,7.56l-1.54-1A22.79,22.79,0,0,0,70.71,710Z" transform="translate(-0.66)"/><path class="cls-5" d="M80.9,712.69a19.58,19.58,0,0,0-.14-2.74,22.78,22.78,0,0,0,3,.14h12.6a20.25,20.25,0,0,0,2.88-.14,17.64,17.64,0,0,0-.14,2.58v17.95a21.34,21.34,0,0,0,.17,3h-2v-1.82H82.78v1.82h-2a21.53,21.53,0,0,0,.17-3Zm1.88,6.94H97.22V711.8H82.78Zm0,10.3H97.22v-8.6H82.78Z" transform="translate(-0.66)"/><path class="cls-5" d="M115.34,711.94a9.57,9.57,0,0,0-.62-2.38l2.21-.36a14.4,14.4,0,0,0,.31,2.38l.56,3.08,6.33-1a13.12,13.12,0,0,0,2.46-.56l.39,2c-.76.08-.76.08-2.49.36l-6.36,1,1.06,5.66,6.94-1.12a17.28,17.28,0,0,0,2.77-.64l.39,2.07a8.19,8.19,0,0,0-1.23.14c-.11,0-.39.06-.87.14l-.64.11-7,1.12,1.15,6.19a15.17,15.17,0,0,0,.62,2.66l-2.24.42a22.33,22.33,0,0,0-.34-2.69l-1.15-6.27-7.5,1.2a14.78,14.78,0,0,0-2.69.56l-.36-2.13a14.63,14.63,0,0,0,2.77-.25l7.45-1.2-1-5.66-5.77.9a23,23,0,0,0-2.8.62l-.39-2.13a21.15,21.15,0,0,0,2.91-.28l5.71-.9Z" transform="translate(-0.66)"/><path class="cls-5" d="M141.07,716.5a7.76,7.76,0,0,0-.53-2l2-.31a9.15,9.15,0,0,0,.31,2.1l.45,2.41,9.41-1.54a3.94,3.94,0,0,0,1.2-.34l1.18,1a5.35,5.35,0,0,0-.64,1.23,14.34,14.34,0,0,1-5.43,6.58,5,5,0,0,0-1.51-1.2,11.49,11.49,0,0,0,5.07-5.38,1.8,1.8,0,0,1,.11-.25,7.25,7.25,0,0,1-.73.17l-8.34,1.37,2,10.53a9.08,9.08,0,0,0,.53,2.21l-2.16.39a10.49,10.49,0,0,0-.25-2.24l-2-10.61-2.77.48a11.28,11.28,0,0,0-2.44.56l-.39-2a13.48,13.48,0,0,0,2.6-.25l2.69-.45Z" transform="translate(-0.66)"/><path class="cls-5" d="M163.95,729.32a24.39,24.39,0,0,0,8.15-2.16,21.16,21.16,0,0,0,11.42-12.46,5.61,5.61,0,0,0,1.71,1.65c-2.24,4.87-4.84,8.15-8.54,10.7-2.88,2-5.77,3.11-10.44,4.17a14.78,14.78,0,0,0-1.68.45ZM165.74,712a36.46,36.46,0,0,1,6.75,5.26L171,719a30.9,30.9,0,0,0-6.66-5.49Z" transform="translate(-0.66)"/><path class="cls-5" d="M196.6,712.58a16,16,0,0,0-.11-2.58h2.27a16.06,16.06,0,0,0-.14,2.58v4.09L210,715.16a3.12,3.12,0,0,0,1.6-.39l1.37,1.15a8.67,8.67,0,0,0-.45.78,18.9,18.9,0,0,1-2.13,3.58,21.5,21.5,0,0,1-4.76,4.37,4.77,4.77,0,0,0-1.68-1.34,15.49,15.49,0,0,0,6.36-6.5l-.64.14-.34.06c-3.92.53-7.5,1-10.7,1.48v6.61c0,2.6.11,3.19.7,3.7s1.76.7,4.06.7a31.87,31.87,0,0,0,8.15-1l.14,2.27a16.79,16.79,0,0,0-1.68.14,50,50,0,0,1-6.64.5c-3.19,0-4.82-.39-5.71-1.32s-1-1.76-1-4.62v-6.75l-3.39.48a17.82,17.82,0,0,0-2.74.48l-.25-2.1h.42c.48,0,1.46-.08,2.41-.2l3.56-.48Z" transform="translate(-0.66)"/><path class="cls-5" d="M225.86,710.56a14,14,0,0,0-.17,2.41c-.22,7.59-.45,9.66-1.51,12.49a17.11,17.11,0,0,1-4.84,6.92,5.18,5.18,0,0,0-1.68-1.51,13.85,13.85,0,0,0,4.73-6.44c.87-2.44,1.26-6.1,1.26-12a12.44,12.44,0,0,0-.11-2Zm6.94-.31a10.87,10.87,0,0,0-.17,2.46l-.17,16.91a12.93,12.93,0,0,0,5.21-3.25,13.85,13.85,0,0,0,3.3-5.6,7.84,7.84,0,0,0,1.57,1.62,15.92,15.92,0,0,1-5.63,7.2,18.45,18.45,0,0,1-4,2l-.9.34a4.67,4.67,0,0,0-.64.31L230.25,731a4.73,4.73,0,0,0,.2-1.9l.17-16.38a11.25,11.25,0,0,0-.11-2.49Z" transform="translate(-0.66)"/><path class="cls-5" d="M251.5,710.14c-1.2,2.8-2.16,8.54-2.16,13.13,0,1,.06,2.63.11,3.92,0,.22,0,.28,0,.78v.53l.11,0a24.84,24.84,0,0,1,1.65-4.93,3.89,3.89,0,0,0,.22-.56l1.37.64c-1.32,2.74-2.41,6.3-2.41,8a3,3,0,0,0,.06.56l-2,.2c0-.25-.06-.39-.17-1a44.58,44.58,0,0,1-.78-8.32A47.43,47.43,0,0,1,249,711.54a12.82,12.82,0,0,0,.31-1.76Zm2.83,5.21a19.39,19.39,0,0,0,5,.45c1.09,0,1.85,0,3-.08,0-2.63,0-2.63,0-4.76a6.2,6.2,0,0,0-.08-1.15h2.1a28.6,28.6,0,0,0-.2,4.4c0,.31,0,.76,0,1.37a19.07,19.07,0,0,0,4.84-1l.08,1.9c-.06,0-.06,0-2,.39a26.8,26.8,0,0,1-3,.45c0,2.77.08,4.2.31,7.92a20.26,20.26,0,0,1,4.68,2.74c.34.22.39.28.7.48l-.87,2a15.15,15.15,0,0,0-4-2.91,1.61,1.61,0,0,1-.28-.17l-.25-.17a4,4,0,0,1,.06.73,4.82,4.82,0,0,1-.34,1.9c-.67,1.48-2.38,2.35-4.68,2.35-3.25,0-5.29-1.54-5.29-4s2.21-4,5.32-4a7.91,7.91,0,0,1,3.11.56c-.08-.59-.2-3.22-.28-7.31-1.26.06-2.13.08-3.19.08s-2.18,0-3.16-.08a7.26,7.26,0,0,0-.9-.06,4.27,4.27,0,0,0-.48,0,1.27,1.27,0,0,0-.28,0h-.11Zm5.38,10.5c-2.18,0-3.61.92-3.61,2.32s1.29,2.27,3.25,2.27a3.86,3.86,0,0,0,2.86-1,3.27,3.27,0,0,0,.53-2.18c0-.2,0-.84,0-.84A7.23,7.23,0,0,0,259.71,725.85Z" transform="translate(-0.66)"/><path class="cls-5" d="M281.27,721.85c-1.82,1.51-2.66,2.8-2.66,4.12s.81,2.21,2.38,2.74a17.82,17.82,0,0,0,5.12.56,26.54,26.54,0,0,0,8.4-1.06l.25,2.3a7.68,7.68,0,0,0-1,.14,45.69,45.69,0,0,1-7.56.64,19.75,19.75,0,0,1-6.44-.87c-2.1-.87-3.19-2.3-3.19-4.23s1.06-3.58,3.22-5.4Zm-2.94-10.22a32,32,0,0,0,7.45.67,30.59,30.59,0,0,0,7.08-.59l.14,1.85a39.84,39.84,0,0,0-7.06,4.26l-1.43-1.15a43,43,0,0,1,3.72-2.32l.7-.36c.2-.11.25-.11.53-.28a22.11,22.11,0,0,1-4.23.36,54.63,54.63,0,0,1-6.16-.36,6.63,6.63,0,0,0-.92-.08Zm14,4.31a21.39,21.39,0,0,1,2.86,3.72l-1.37.78A18.56,18.56,0,0,0,291,716.7Zm2.58-1.51a21.35,21.35,0,0,1,2.86,3.72l-1.37.78a18.54,18.54,0,0,0-2.83-3.75Z" transform="translate(-0.66)"/><path class="cls-5" d="M323.52,711.07a35.42,35.42,0,0,1-7.59,5.35c.78.56,1.12.78,2.18,1.6l-.73.73h5.07a16.78,16.78,0,0,0,3-.14l1.09,1.2a10.46,10.46,0,0,0-.76.92,22.57,22.57,0,0,1-4.9,4.9,6.9,6.9,0,0,0-1.46-1.15,19,19,0,0,0,4.48-4.06h-8.51v10.86c0,1.79-.67,2.27-3.28,2.27-.87,0-2.35-.06-3.3-.14a7,7,0,0,0-.45-1.93,23.62,23.62,0,0,0,3.92.34c1,0,1.23-.2,1.23-.81V720.42h-8.68a20.85,20.85,0,0,0-2.88.17v-2a21,21,0,0,0,3.11.17h11.2a41.76,41.76,0,0,0-7.73-4.76l1.15-1.23c2.46,1.29,3.42,1.82,4.76,2.66a27.27,27.27,0,0,0,6-4h-13a18.66,18.66,0,0,0-2.88.14v-1.9a16.76,16.76,0,0,0,2.94.17H320.3a19,19,0,0,0,2.07-.08Z" transform="translate(-0.66)"/><path class="cls-5" d="M329.34,720.64a6.42,6.42,0,0,0,1,.08l1.43-.06c1-1.23,1.32-1.6,2.13-2.69a27.81,27.81,0,0,0-4.26-4.28l1-1.32c.62.59.76.7,1.2,1.15a20.85,20.85,0,0,0,2.77-5.18l1.74.78a10.31,10.31,0,0,0-.64,1.06,43,43,0,0,1-2.77,4.4c.84.84,1.29,1.34,1.88,2a28.66,28.66,0,0,0,3.22-5.29l1.65,1c-.25.34-.42.59-.81,1.15a61.3,61.3,0,0,1-5.18,7.08c2.1-.14,2.6-.17,4.54-.42a23.5,23.5,0,0,0-1.12-2.21l1.29-.5a30.32,30.32,0,0,1,2.46,5.32l-1.43.64c-.28-.9-.36-1.15-.64-1.87a4.55,4.55,0,0,1-.7.08c-.22,0-.87.11-1.93.22V731a20.28,20.28,0,0,0,.17,2.86h-2a20.77,20.77,0,0,0,.17-2.88v-9c-2.07.2-2.07.2-3.14.28a10.24,10.24,0,0,0-1.71.2Zm3.44,3.47c-.5,4.12-.81,5.4-1.85,7.92l-1.54-.73a20.71,20.71,0,0,0,1.85-7.5Zm6.36-.48a44.63,44.63,0,0,1,1.65,6.66l-1.62.53a36.9,36.9,0,0,0-1.43-6.75Zm4.73-8.85a21.77,21.77,0,0,1-2.86,4.37,5.1,5.1,0,0,0-1.46-1.09,18.18,18.18,0,0,0,3.14-4.79,17.51,17.51,0,0,0,1.57-4.62l1.9.48c-.22.53-.22.53-.73,1.93-.22.62-.45,1.18-.81,2.07h7a15.18,15.18,0,0,0,2.27-.11,42.2,42.2,0,0,0-.14,4.31,70.1,70.1,0,0,1-1.2,12.68c-.64,2.69-1.34,3.28-4,3.28-.81,0-1.85-.06-3-.17a6.75,6.75,0,0,0-.48-1.93,22.1,22.1,0,0,0,3.72.36c1.32,0,1.62-.34,2-2.13a78.43,78.43,0,0,0,1.2-14.64Zm3,11.23a27.09,27.09,0,0,0-3.84-6.94l1.46-.84a33.58,33.58,0,0,1,4,6.83Z" transform="translate(-0.66)"/><path class="cls-5" d="M370.62,714.23c-.06.53-.08.73-.17,1.2a16.83,16.83,0,0,0,2.83,5,18.77,18.77,0,0,0,5.54,4.42,6.05,6.05,0,0,0-1.23,1.62c-3.81-2.46-6.33-5.24-7.7-8.51a13,13,0,0,1-1.57,3.53c-1.34,2.07-2.83,3.42-5.82,5.24a5.31,5.31,0,0,0-1.26-1.43,14.55,14.55,0,0,0,4.84-3.75,13.16,13.16,0,0,0,2.74-7.28h-8.06v16.32a20.51,20.51,0,0,0,.14,3.11h-2.18a19.51,19.51,0,0,0,.2-3.11V714.93a21,21,0,0,0-.11-2.52,21.8,21.8,0,0,0,2.77.14H369c.06-1,.06-1.29.06-2.32a9.5,9.5,0,0,0-.2-2H371a8,8,0,0,0-.2,2c0,1.26-.06,1.65-.08,2.32h7.7a22.16,22.16,0,0,0,2.83-.14,20,20,0,0,0-.11,2.46v16.18c0,1.76-.59,2.1-3.56,2.1-.92,0-2-.06-3.19-.14a6.48,6.48,0,0,0-.45-1.93,20.41,20.41,0,0,0,3.84.36c1.32,0,1.51-.08,1.51-.73V714.23Z" transform="translate(-0.66)"/><path class="cls-5" d="M390.41,725.1l-.56.39a28.09,28.09,0,0,1-3.25,1.88,5.14,5.14,0,0,0-1.06-1.57,27.73,27.73,0,0,0,6.8-3.95,19.7,19.7,0,0,0,4.84-5.15H399a20.86,20.86,0,0,0,5.35,5.46,26.42,26.42,0,0,0,6.38,3.56,6,6,0,0,0-1,1.71,42,42,0,0,1-4-2.32v6.33a17.46,17.46,0,0,0,.17,2.49h-1.9v-1.4H392.18v1.4h-1.93a18.45,18.45,0,0,0,.17-2.52ZM396.8,710a7.35,7.35,0,0,0-.2-1.74h2.18a7.32,7.32,0,0,0-.17,1.74v.87h8.32c1.09,0,1.9,0,2.8-.11a12.9,12.9,0,0,0-.11,1.9v1.79a12.81,12.81,0,0,0,.11,1.93h-1.82V712.5H388.26v3.89h-1.85a13.3,13.3,0,0,0,.11-1.93v-1.79a12.9,12.9,0,0,0-.11-1.9c.87.08,1.71.11,2.83.11h7.56Zm-1.62,4.62a22,22,0,0,1-3.42,3.56,18.07,18.07,0,0,1-3.5,2.44,5.3,5.3,0,0,0-1.34-1.4,14.19,14.19,0,0,0,3.3-1.93,17.78,17.78,0,0,0,3.44-3.5Zm8.82,9.3a24.32,24.32,0,0,1-5.85-5.74,23.85,23.85,0,0,1-3.53,3.78,21.13,21.13,0,0,1-2.52,2Zm-11.82,7h11.76v-5.35H392.18Zm9.94-17.16a17.86,17.86,0,0,0,7.22,5.29,6.82,6.82,0,0,0-1.06,1.54,22.58,22.58,0,0,1-7.59-5.85Z" transform="translate(-0.66)"/><path class="cls-5" d="M424.77,724.31c-1.62,3.7-3.28,5.38-5.29,5.38-2.66,0-4.65-2.91-4.65-6.83a11.37,11.37,0,0,1,12-11.45,10.83,10.83,0,0,1,7.7,2.77,9.37,9.37,0,0,1,2.72,6.83,10.2,10.2,0,0,1-6.41,9.66,21.71,21.71,0,0,1-4.26,1.29,4.46,4.46,0,0,0-1-1.88,16.81,16.81,0,0,0,4.68-1.32,8.45,8.45,0,0,0,5-7.84,7.38,7.38,0,0,0-4.45-7,8.06,8.06,0,0,0-3.25-.7A42,42,0,0,1,424.77,724.31Zm-3.44-9.77a9.68,9.68,0,0,0-4.56,8.34c0,2.69,1.18,4.76,2.69,4.76,1.18,0,2.3-1.32,3.5-4.06a38.47,38.47,0,0,0,2.55-10.36A8.86,8.86,0,0,0,421.32,714.54Z" transform="translate(-0.66)"/><path class="cls-5" d="M454.92,708.86a21.83,21.83,0,0,0,5.46,5.68,28.78,28.78,0,0,0,6.92,3.92,7.48,7.48,0,0,0-1.2,1.85A39.68,39.68,0,0,1,459,715.8a24.51,24.51,0,0,1-5.12-5.37,23,23,0,0,1-4.48,5,34.82,34.82,0,0,1-7.2,4.76,5.5,5.5,0,0,0-1.23-1.68,30.46,30.46,0,0,0,7-4.28,21.91,21.91,0,0,0,4.73-5.4Zm-6.33,11.26a16.48,16.48,0,0,0-2.6.14v-1.9a15.79,15.79,0,0,0,2.52.14h10.75a15.58,15.58,0,0,0,2.52-.14v1.9a16.1,16.1,0,0,0-2.58-.14h-4.54v4.26h5.21a15.82,15.82,0,0,0,2.58-.14v1.9a16.14,16.14,0,0,0-2.58-.14h-5.21v5h8.46a22.85,22.85,0,0,0,3.08-.17v2a20.76,20.76,0,0,0-3.05-.2H444.87a21.3,21.3,0,0,0-3.11.2v-2a23.2,23.2,0,0,0,3.14.17h8v-5h-4.68a16.53,16.53,0,0,0-2.6.14v-1.9a16,16,0,0,0,2.6.14h4.68v-4.26Z" transform="translate(-0.66)"/><path class="cls-5" d="M471.67,726.83c0-.59,0-1.15-.06-1.76-.56.34-.9.53-1.85,1a3.66,3.66,0,0,0-1-1.43,20.94,20.94,0,0,0,6-3.75,14.86,14.86,0,0,1-2.16-2.41,18.56,18.56,0,0,1-2.46,2.44,5.06,5.06,0,0,0-1.09-1.21,13.66,13.66,0,0,0,4-4.42,7.15,7.15,0,0,0,1-2.13l1.62.48a9.53,9.53,0,0,0-.48.87c-.14.28-.22.42-.39.73h3a8.33,8.33,0,0,0,1.62-.14l1,1a8.61,8.61,0,0,0-.64,1,22.12,22.12,0,0,1-2.74,3.75,20.79,20.79,0,0,0,5,2.69,4.94,4.94,0,0,0-.76,1.54,24.16,24.16,0,0,1-5.29-3.19,23.12,23.12,0,0,1-3.53,2.72c.42,0,.64,0,1.2,0H478a11.39,11.39,0,0,0,2-.11,18.29,18.29,0,0,0-.11,2.46v2.49a20.25,20.25,0,0,0,.06,2.46c-.28,0-1,0-2.07-.06h-4.56v1.76h-1.74c.06-.59.11-1.46.11-2.55Zm3.28-16.35a9,9,0,0,0-.17-1.88h2a7.34,7.34,0,0,0-.17,1.9v.87h2.8a18.09,18.09,0,0,0,2.27-.08,13.37,13.37,0,0,0-.08,1.68v.92a11.91,11.91,0,0,0,.08,1.6h-1.6v-2.66h-8.74v3h-1.71a9.31,9.31,0,0,0,.11-1.6V713a13.15,13.15,0,0,0-.11-1.74,18.35,18.35,0,0,0,2.3.08h3Zm-1.65,19.91h5V726h-5Zm.73-13.75c-.14.25-.22.34-.45.7a12.75,12.75,0,0,0,2.3,2.55,15.06,15.06,0,0,0,2.41-3.25Zm12.63,13.22A18.86,18.86,0,0,1,480.8,734a5.69,5.69,0,0,0-1.18-1.43,14.44,14.44,0,0,0,5.66-3.81ZM484.3,711a16.63,16.63,0,0,0-2.74.17v-1.9a13.8,13.8,0,0,0,2.74.17h7.5a15.38,15.38,0,0,0,2.74-.17v1.9a14.84,14.84,0,0,0-2.74-.17h-2.69a23.25,23.25,0,0,1-1.09,3.05h2.8a17.17,17.17,0,0,0,2.52-.11c-.06.78-.08,1.43-.08,2.55v9.27c0,1.15,0,1.82.08,2.69-.84-.06-1.54-.08-2.41-.08h-6.1c-.84,0-1.54,0-2.41.08.06-.84.08-1.62.08-2.55v-9.3a21.23,21.23,0,0,0-.11-2.63c.67.06,1.26.08,2.44.08h1.51a26.28,26.28,0,0,0,1-3.05Zm-.17,7.25h7.48v-2.69h-7.48Zm0,4.26h7.48v-2.77h-7.48Zm0,4.37h7.48V724h-7.48Zm5.71,1.93a17.87,17.87,0,0,0,5.49,3.64,6.84,6.84,0,0,0-1.15,1.57,20.46,20.46,0,0,1-5.63-4.17Z" transform="translate(-0.66)"/><path class="cls-5" d="M508.77,724.31c-1.62,3.7-3.28,5.38-5.29,5.38-2.66,0-4.65-2.91-4.65-6.83a11.37,11.37,0,0,1,12-11.45,10.83,10.83,0,0,1,7.7,2.77,9.37,9.37,0,0,1,2.72,6.83,10.2,10.2,0,0,1-6.41,9.66,21.73,21.73,0,0,1-4.26,1.29,4.44,4.44,0,0,0-1-1.88,16.81,16.81,0,0,0,4.68-1.32,8.45,8.45,0,0,0,5-7.84,7.38,7.38,0,0,0-4.45-7,8.06,8.06,0,0,0-3.25-.7A41.94,41.94,0,0,1,508.77,724.31Zm-3.44-9.77a9.68,9.68,0,0,0-4.56,8.34c0,2.69,1.18,4.76,2.69,4.76,1.18,0,2.3-1.32,3.5-4.06a38.51,38.51,0,0,0,2.55-10.36A8.86,8.86,0,0,0,505.32,714.54Z" transform="translate(-0.66)"/><path class="cls-5" d="M535.34,711.94a9.57,9.57,0,0,0-.62-2.38l2.21-.36a14.41,14.41,0,0,0,.31,2.38l.56,3.08,6.33-1a13.1,13.1,0,0,0,2.46-.56l.39,2c-.76.08-.76.08-2.49.36l-6.36,1,1.06,5.66,6.94-1.12a17.26,17.26,0,0,0,2.77-.64l.39,2.07a8.19,8.19,0,0,0-1.23.14c-.11,0-.39.06-.87.14l-.64.11-7,1.12,1.15,6.19a15.12,15.12,0,0,0,.62,2.66l-2.24.42a22.13,22.13,0,0,0-.34-2.69l-1.15-6.27-7.5,1.2a14.8,14.8,0,0,0-2.69.56l-.36-2.13a14.62,14.62,0,0,0,2.77-.25l7.45-1.2-1-5.66-5.77.9a23,23,0,0,0-2.8.62l-.39-2.13a21.15,21.15,0,0,0,2.91-.28l5.71-.9Z" transform="translate(-0.66)"/><path class="cls-5" d="M561.07,716.5a7.77,7.77,0,0,0-.53-2l2-.31a9.2,9.2,0,0,0,.31,2.1l.45,2.41,9.41-1.54a3.94,3.94,0,0,0,1.2-.34l1.18,1a5.34,5.34,0,0,0-.64,1.23,14.34,14.34,0,0,1-5.43,6.58,5,5,0,0,0-1.51-1.2,11.48,11.48,0,0,0,5.07-5.38,1.87,1.87,0,0,1,.11-.25,7.27,7.27,0,0,1-.73.17l-8.34,1.37,2,10.53a9.09,9.09,0,0,0,.53,2.21l-2.16.39a10.45,10.45,0,0,0-.25-2.24l-2-10.61-2.77.48a11.28,11.28,0,0,0-2.44.56l-.39-2a13.48,13.48,0,0,0,2.6-.25l2.69-.45Z" transform="translate(-0.66)"/><path class="cls-5" d="M583.95,729.32a24.39,24.39,0,0,0,8.15-2.16,21.16,21.16,0,0,0,11.42-12.46,5.63,5.63,0,0,0,1.71,1.65c-2.24,4.87-4.84,8.15-8.54,10.7-2.88,2-5.77,3.11-10.44,4.17a14.74,14.74,0,0,0-1.68.45ZM585.74,712a36.49,36.49,0,0,1,6.75,5.26L591,719a30.93,30.93,0,0,0-6.66-5.49Z" transform="translate(-0.66)"/><path class="cls-5" d="M616.6,712.58a16.15,16.15,0,0,0-.11-2.58h2.27a16,16,0,0,0-.14,2.58v4.09L630,715.16a3.13,3.13,0,0,0,1.6-.39l1.37,1.15a8.43,8.43,0,0,0-.45.78,18.9,18.9,0,0,1-2.13,3.58,21.49,21.49,0,0,1-4.76,4.37,4.77,4.77,0,0,0-1.68-1.34,15.49,15.49,0,0,0,6.36-6.5l-.64.14-.34.06c-3.92.53-7.5,1-10.7,1.48v6.61c0,2.6.11,3.19.7,3.7s1.76.7,4.06.7a31.87,31.87,0,0,0,8.15-1l.14,2.27a16.83,16.83,0,0,0-1.68.14,50,50,0,0,1-6.64.5c-3.19,0-4.82-.39-5.71-1.32s-1-1.76-1-4.62v-6.75l-3.39.48a17.84,17.84,0,0,0-2.74.48l-.25-2.1h.42c.48,0,1.46-.08,2.41-.2l3.56-.48Z" transform="translate(-0.66)"/><path class="cls-5" d="M29.86,759.56a14,14,0,0,0-.17,2.41c-.22,7.59-.45,9.66-1.51,12.49a17.11,17.11,0,0,1-4.84,6.92,5.18,5.18,0,0,0-1.68-1.51,13.85,13.85,0,0,0,4.73-6.44c.87-2.44,1.26-6.1,1.26-12a12.44,12.44,0,0,0-.11-2Zm6.94-.31a10.87,10.87,0,0,0-.17,2.46l-.17,16.91a12.93,12.93,0,0,0,5.21-3.25,13.85,13.85,0,0,0,3.3-5.6,7.84,7.84,0,0,0,1.57,1.62,15.92,15.92,0,0,1-5.63,7.2,18.45,18.45,0,0,1-4,2L36,781a4.67,4.67,0,0,0-.64.31L34.25,780a4.73,4.73,0,0,0,.2-1.9l.17-16.38a11.25,11.25,0,0,0-.11-2.49Z" transform="translate(-0.66)"/><path class="cls-5" d="M52.56,768.72a13.86,13.86,0,0,0-2.44.14V767a12.64,12.64,0,0,0,2.44.14h2.21v-6.61a19.77,19.77,0,0,0-.17-3h2a18.68,18.68,0,0,0-.17,3v6.64h1.68a13.41,13.41,0,0,0,2.07-.11v1.76a14.77,14.77,0,0,0-2.1-.11H56.6a16.73,16.73,0,0,0,4,5.18,9.73,9.73,0,0,0-1,1.51,16.56,16.56,0,0,1-3.28-4.93c.06,1.12.14,3.61.14,4.14v5.24a23.08,23.08,0,0,0,.17,3.08h-2a24.66,24.66,0,0,0,.17-3.11v-4.76c0-1.29.06-2.86.14-4.34a21.27,21.27,0,0,1-4.31,8,5.88,5.88,0,0,0-1.06-1.57,17.77,17.77,0,0,0,3.33-4.71,22.57,22.57,0,0,0,1.57-3.75Zm-.84-9.38a32.85,32.85,0,0,1,1.88,6l-1.48.64a24.8,24.8,0,0,0-1.85-6Zm9.18.53a31.66,31.66,0,0,1-2.27,6.1l-1.37-.64a20.91,20.91,0,0,0,2-6.08Zm9.07.67a17.79,17.79,0,0,0-.17-2.94h2.13a20.12,20.12,0,0,0-.17,2.91V773.4l.42-.08a17.49,17.49,0,0,0,2.58-.78l.34,2a19.62,19.62,0,0,0-2.69.48l-.64.17v4.68a21.78,21.78,0,0,0,.17,3.05H69.81a16.47,16.47,0,0,0,.17-3.08v-4.23l-7.36,1.79a19.4,19.4,0,0,0-2.6.76l-.36-2a15.07,15.07,0,0,0,2.69-.45L70,773.84Zm-7.48,6.1a24.81,24.81,0,0,1,5,4.26l-1.18,1.4a20.6,20.6,0,0,0-5.07-4.37Zm.84-7a28.64,28.64,0,0,1,5,4.37l-1.15,1.46a23.72,23.72,0,0,0-5.1-4.54Z" transform="translate(-0.66)"/><path class="cls-5" d="M86.16,761.92a11.9,11.9,0,0,0,1.34-3.84l2.24.39A6,6,0,0,0,89,760c-.36.9-.73,1.65-.87,1.9a4.88,4.88,0,0,1,.59,0c4.48-.22,7.28-.56,8.82-1.06l.17,1.9a8.79,8.79,0,0,0-1.12.14,90.62,90.62,0,0,1-9.24.73,20.65,20.65,0,0,1-2.52,4c-.28.34-.84,1-1,1.06l-.36.28a0,0,0,0,1,0,0v0a.2.2,0,0,0,.06.08c1-.78,1-.78,1.29-1a7.45,7.45,0,0,1,4.23-1.37,3.4,3.4,0,0,1,3.7,3.11c2-.81,3.64-1.4,4.87-1.85a6.15,6.15,0,0,0,1.9-.81l.9,2A46.54,46.54,0,0,0,93,771.55c.06.73.06,1,.06,1.71,0,.36,0,1,0,1.54s0,1,0,1.26a6.07,6.07,0,0,0,.06,1l-1.9,0a40.31,40.31,0,0,0,.17-4,7.28,7.28,0,0,0,0-.84C87.45,774,86,775.33,86,777c0,1.85,1.74,2.66,5.68,2.66a23.47,23.47,0,0,0,7.48-1.09l.25,2.16a11.1,11.1,0,0,0-1.12.14,43.41,43.41,0,0,1-6.8.56c-5,0-7.45-1.43-7.45-4.31,0-1.54,1-3,2.86-4.42a21.74,21.74,0,0,1,4.17-2.24c-.22-1.54-.9-2.21-2.21-2.21-1.76,0-4,1-6.24,3a9.26,9.26,0,0,0-2.16,2.32L78.88,772a27.84,27.84,0,0,0,6.27-8l.25-.42a3.06,3.06,0,0,1-.53.06l-4.12-.08h-.45a5.09,5.09,0,0,0-.62,0l0-1.93a39.24,39.24,0,0,0,6,.31Z" transform="translate(-0.66)"/><path class="cls-5" d="M113.27,770.85c-1.82,1.51-2.66,2.8-2.66,4.12s.81,2.21,2.38,2.74a17.82,17.82,0,0,0,5.12.56,26.54,26.54,0,0,0,8.4-1.06l.25,2.3a7.68,7.68,0,0,0-1,.14,45.69,45.69,0,0,1-7.56.64,19.75,19.75,0,0,1-6.44-.87c-2.1-.87-3.19-2.3-3.19-4.23s1.06-3.58,3.22-5.4Zm-2.94-10.22a32,32,0,0,0,7.45.67,30.59,30.59,0,0,0,7.08-.59l.14,1.85a39.84,39.84,0,0,0-7.06,4.26l-1.43-1.15a43,43,0,0,1,3.72-2.32l.7-.36c.2-.11.25-.11.53-.28a22.11,22.11,0,0,1-4.23.36,54.63,54.63,0,0,1-6.16-.36,6.63,6.63,0,0,0-.92-.08Zm14,4.31a21.39,21.39,0,0,1,2.86,3.72l-1.37.78A18.56,18.56,0,0,0,123,765.7Zm2.58-1.51a21.35,21.35,0,0,1,2.86,3.72l-1.37.78a18.54,18.54,0,0,0-2.83-3.75Z" transform="translate(-0.66)"/><path class="cls-5" d="M135.95,761a21.67,21.67,0,0,0-2.49.11v-1.88a16.31,16.31,0,0,0,2.49.17h4.34a17,17,0,0,0,2.35-.14v1.85a17,17,0,0,0-2.32-.11h-1v18.48c0,1.74-.64,2.3-2.66,2.3-.73,0-1.54,0-2.66-.11a7,7,0,0,0-.39-1.85,17.2,17.2,0,0,0,3,.28c.73,0,1-.17,1-.67V761Zm12.43,17.92a20.12,20.12,0,0,1-6.47,4,6.44,6.44,0,0,0-1.15-1.46,14.64,14.64,0,0,0,6.13-3.53Zm-2.44-18.51a25.12,25.12,0,0,0-2.77.11v-1.88a18.6,18.6,0,0,0,2.77.17h9.83a13,13,0,0,0,2.66-.17v1.9a18.6,18.6,0,0,0-2.6-.14h-4.54l-.22.62a16,16,0,0,1-1,2.24h4.34a16.84,16.84,0,0,0,2.58-.11,19.64,19.64,0,0,0-.11,2.6v9a23.87,23.87,0,0,0,.11,2.77,20.62,20.62,0,0,0-2.55-.11H146.2a17.35,17.35,0,0,0-2.44.11,24.8,24.8,0,0,0,.11-2.77v-9.13a18.22,18.22,0,0,0-.11-2.49,13.67,13.67,0,0,0,2.35.11h2.18a20.12,20.12,0,0,0,1.18-2.86Zm-.39,7h9.63v-2.63h-9.63Zm0,4.23h9.63v-2.74h-9.63Zm0,4.34h9.63v-2.86h-9.63Zm7.34,2a18.45,18.45,0,0,0,6,3.44,5.84,5.84,0,0,0-1.18,1.48,24.45,24.45,0,0,1-6.22-3.89Z" transform="translate(-0.66)"/><path class="cls-5" d="M185.14,767.43a13.19,13.19,0,0,0-.56,1.79,29.57,29.57,0,0,1-2.88,6.86,16.65,16.65,0,0,0,1.46,3.22c.48.79,1.06,1.4,1.32,1.4.42,0,.87-1.57,1.18-4.17a5.83,5.83,0,0,0,1.51,1.2c-.64,3.53-1.37,4.93-2.52,4.93-1.34,0-2.8-1.76-4.06-4.84a24.22,24.22,0,0,1-4.84,5.18,4.34,4.34,0,0,0-1.34-1.23,19.39,19.39,0,0,0,5.54-5.77,45.18,45.18,0,0,1-1.62-11.42h-14a19,19,0,0,0-2.77.17V763a15.62,15.62,0,0,0,2.77.17H169v-2h-3.22a14.36,14.36,0,0,0-2.44.14v-1.68a14,14,0,0,0,2.44.14H169v-.22a6.8,6.8,0,0,0-.17-1.85h1.93a8.69,8.69,0,0,0-.17,1.85v.22h3a13.62,13.62,0,0,0,2.41-.14v1.68a14.21,14.21,0,0,0-2.41-.14h-3v2h7.7c0-.7,0-.7-.06-3.22a12.05,12.05,0,0,0-.17-2.16h2a14.31,14.31,0,0,0-.17,2.52c0,.62,0,1,.06,2.86h3.72a15.62,15.62,0,0,0,2.77-.17v1.76a19,19,0,0,0-2.77-.17H180a45.37,45.37,0,0,0,1.06,9.38,20.82,20.82,0,0,0,2.27-7.11Zm-20,5.26c-.64,0-1.2,0-1.9.08a15.58,15.58,0,0,0,.11-2.1V768a15.84,15.84,0,0,0-.11-2.1,14,14,0,0,0,2.13.11h8.88a13.82,13.82,0,0,0,2.1-.11c-.06.67-.08,1.23-.08,2.13v2.66c0,.92,0,1.46.08,2.13-.7-.06-1.23-.08-2-.08h-1.18v1.4h1.34a17,17,0,0,0,2.32-.11v1.48a18.14,18.14,0,0,0-2.32-.11h-1.34V777h2a18.74,18.74,0,0,0,2.41-.11v1.51a19.57,19.57,0,0,0-2.41-.11H163.95a14.51,14.51,0,0,0-2.41.14v-1.57a14.4,14.4,0,0,0,2.41.14h2.46v-1.6h-1.62a13.11,13.11,0,0,0-2.35.14V774a13.09,13.09,0,0,0,2.35.14h1.62v-1.4Zm3,6.78a12.79,12.79,0,0,1-5,3.42,4.41,4.41,0,0,0-1.32-1.12,10.1,10.1,0,0,0,4.87-3Zm-3.36-12.26v1.54H169v-1.54Zm0,2.72v1.57H169v-1.57Zm3.11,4.17h3.81v-1.4h-3.81Zm0,2.86h3.81v-1.6h-3.81Zm2.52-9.74v1.54h4.37v-1.54Zm0,2.72v1.57h4.37v-1.57Zm1.4,8.6a8.88,8.88,0,0,0,3,2.21,6.59,6.59,0,0,0-1.15,1.18,17.62,17.62,0,0,1-3.14-2.58Zm12.54-16a16.64,16.64,0,0,0-3.25-3.47l1.18-.79a17.62,17.62,0,0,1,3.3,3.3Z" transform="translate(-0.66)"/><path class="cls-5" d="M194.16,760.94a20.27,20.27,0,0,0-.2,3.33,47.94,47.94,0,0,0,.73,8.71c.62,2.86,1.76,4.79,2.83,4.79.5,0,1-.48,1.4-1.4a20.16,20.16,0,0,0,1.46-4.79,9,9,0,0,0,1.65,1.6c-1.37,4.9-2.66,6.78-4.65,6.78-1.57,0-3-1.57-4-4.26s-1.37-6.24-1.51-13.13a15.33,15.33,0,0,0-.08-1.65Zm13.52,1.48a24.31,24.31,0,0,1,4,6.38,26.84,26.84,0,0,1,2.1,7.48l-2,.81a24.73,24.73,0,0,0-5.82-13.8Z" transform="translate(-0.66)"/><path class="cls-5" d="M219.11,763.18a19.31,19.31,0,0,0,3.5.25c.56,0,.87,0,1.68-.06a27.36,27.36,0,0,0,.62-5.15l2.21.22a26.46,26.46,0,0,0-.5,2.66c-.14.9-.22,1.29-.36,2.13a23.05,23.05,0,0,0,5-1l.14,1.93c-.22,0-.22,0-.78.14a41.08,41.08,0,0,1-4.73.67c-.42,2.21-1.2,5.38-2,7.92a73.86,73.86,0,0,1-3.22,8.54l-2-.87A56.32,56.32,0,0,0,224,765.14c-.56,0-.9,0-1.93,0s-1.23,0-2.32-.06h-.11a4.27,4.27,0,0,0-.48,0Zm12.52,10.16a9.47,9.47,0,0,0-.84,1.06,3.37,3.37,0,0,0-.7,2c0,1.68,1.71,2.58,4.9,2.58a20.82,20.82,0,0,0,6.19-1l.2,2.1-1.23.2a28.06,28.06,0,0,1-5,.48c-4.59,0-7-1.43-7-4.2,0-1.26.39-2.13,1.88-4Zm8.65-4.84a28.19,28.19,0,0,0-3.3-.2,24.33,24.33,0,0,0-7,1l-.2-1.9a31.71,31.71,0,0,1,7.42-.92c.53,0,1,0,3.05.08Z" transform="translate(-0.66)"/><path class="cls-5" d="M252.93,758.92a43.12,43.12,0,0,0-.36,5.91c-.11,3.36-.2,7.17-.2,8.43,0,.34,0,1,.06,1.68a4.41,4.41,0,0,0,1.32,3.36,5.28,5.28,0,0,0,3.5,1.09,8,8,0,0,0,7.5-4.87,16.64,16.64,0,0,0,1.37-4.4,7.9,7.9,0,0,0,2,1.34c-1.06,3.28-1.88,4.93-3.11,6.36a9.8,9.8,0,0,1-7.9,3.5c-2.38,0-4.14-.67-5.26-2s-1.54-2.8-1.54-5.74c0-1.88,0-2.58.25-11.4,0-.84,0-1.37,0-1.82a8.6,8.6,0,0,0-.11-1.48Z" transform="translate(-0.66)"/><path class="cls-5" d="M295.38,780.48a22.53,22.53,0,0,0-5.71-4c-.48-.25-1.12-.53-1.88-.84a8,8,0,0,1,.06,1,4.86,4.86,0,0,1-.7,3.05c-.81,1.15-2.52,1.76-4.73,1.76a7.3,7.3,0,0,1-4.34-1.12,3.66,3.66,0,0,1-1.51-2.94c0-1.85,1.46-3.3,3.92-3.86a12.24,12.24,0,0,1,2.91-.28,12.43,12.43,0,0,1,2.52.22c0-.08,0-.08,0-.34a2.2,2.2,0,0,1,0-.31c0-.25,0-.84-.06-1.65,0-.36,0-.9-.06-1.62-1,0-2.41.06-3.3.06-1.68,0-3-.06-4.73-.2a6.83,6.83,0,0,0-.7,0h-.22l0-1.85a34.34,34.34,0,0,0,6.41.45c.73,0,1.71,0,2.49,0l-.06-3.84c-.81,0-1.26,0-1.9,0-2,0-4.31-.08-6.83-.28a3.48,3.48,0,0,0-.5,0,2.35,2.35,0,0,0-.39,0l0-1.9a34.78,34.78,0,0,0,7.17.56c.56,0,1.51,0,2.44,0a22,22,0,0,0-.14-4h2.16a31.16,31.16,0,0,0-.2,3.95,39.46,39.46,0,0,0,8.29-1.15l.14,1.9c-.48,0-.48,0-1.93.22a58.33,58.33,0,0,1-6.5.67c0,2.3,0,2.3.06,3.78a33.79,33.79,0,0,0,7.76-1.15l.11,1.93c-.36,0-.64.06-1.62.2-1.93.31-4.14.53-6.22.67.06,1.57.06,1.57.17,4.28a24.51,24.51,0,0,1,7.81,4.09,9.7,9.7,0,0,0,1,.64Zm-9.46-5.29a10.28,10.28,0,0,0-2.86-.31c-2.77,0-4.59,1-4.59,2.49s1.4,2.32,3.84,2.32a4,4,0,0,0,3.08-.92,3.67,3.67,0,0,0,.56-2.52Z" transform="translate(-0.66)"/><path class="cls-5" d="M315.43,759.9a9.44,9.44,0,0,0-.11-1.62h2.1a23.14,23.14,0,0,0-.14,3.5v.31c5.29,0,7.45-.08,8.37-.2v2a50,50,0,0,0-5.35-.14c-.42,0-.73,0-3,.06v5.54a8,8,0,0,1,.67,3.3,9,9,0,0,1-3.75,7.31,17.79,17.79,0,0,1-4.42,2.27,6.16,6.16,0,0,0-1.23-1.76,14.34,14.34,0,0,0,4.54-2.1,7.25,7.25,0,0,0,3.14-5.91,3.92,3.92,0,0,1-.76,1.37,4.68,4.68,0,0,1-8.12-2.91,4.66,4.66,0,0,1,5-4.62,4.3,4.3,0,0,1,3.25,1.26c0-.39,0-.5,0-1.54,0-.11,0-.39,0-.73v-1.46c-5.63.11-11.28.39-13.16.7l-.08-2c.5,0,.7,0,1.12,0,.81,0,.81,0,5.32-.17,2.69-.11,4.87-.17,6.78-.22Zm-1.2,8.43a3.59,3.59,0,0,0-1.88-.45,3,3,0,0,0-3.11,2.94,2.71,2.71,0,0,0,2.88,2.77,3.14,3.14,0,0,0,3.28-3.3A2,2,0,0,0,314.22,768.33Z" transform="translate(-0.66)"/><path class="cls-5" d="M337.94,778.38a4.2,4.2,0,1,1-4.2-4.2A4.19,4.19,0,0,1,337.94,778.38Zm-6.8,0a2.6,2.6,0,1,0,2.6-2.6A2.62,2.62,0,0,0,331.14,778.38Z" transform="translate(-0.66)"/><line class="cls-6" x1="19.34" y1="375.62" x2="649.34" y2="375.62"/><rect class="cls-4" x="19.34" y="397.55" width="140" height="50"/><path class="cls-7" d="M49.48,417.62A26.08,26.08,0,0,0,52,412.33c1.62.56,2.44,1,2.44,1.4s-.39.36-1.15.39a21.22,21.22,0,0,1-2.86,3.5H55l1-1.26c1.15,1.15,1.76,1.82,1.76,2.13,0,.14-.14.25-.34.31l-.76.2a26.2,26.2,0,0,1-2.46,2.3l-.5-.39a12,12,0,0,0,1.34-2.63H38.45a6.75,6.75,0,0,1-.53,2.86c-.39.92-.87,1.4-1.46,1.4s-.9-.28-.9-.84a1.17,1.17,0,0,1,.39-.78,6.66,6.66,0,0,0,1.71-4.28l.67.14c0,.06,0,.36.08.87Zm-10.72-4.87q3.86,1.3,3.86,3.11c0,.64-.31,1-.9,1q-.55,0-.84-.76a6.57,6.57,0,0,0-2.44-2.83ZM51,420.67l.84-1c1,.73,1.48,1.23,1.48,1.4s-.06.2-.22.31l-.56.34v4.68H51.19v-1h-4a23.59,23.59,0,0,1-1.88,3h7.31l.9-1.06q1.6,1.17,1.6,1.51c0,.11-.08.22-.28.34l-.59.34v5.66h-1.4v-1.48H40.22v1.48H38.79V427.7l1.62.7H44.5a15.68,15.68,0,0,0,.81-3H41.84v1H40.47v-6.33l1.6.56ZM52.87,433v-4H40.22v4Zm-11-11.73v3.44h9.35v-3.44Zm2.21-8.93c2.38,1,3.56,2.07,3.56,3.28,0,.7-.34,1-1,1-.39,0-.67-.28-.81-.84a6.17,6.17,0,0,0-2.13-3Z" transform="translate(-0.66)"/><path class="cls-7" d="M75.19,422.52v2.18h5.46l1.18-1.34a15.43,15.43,0,0,1,1.65,1.54l-.34.45h-8v2.3h7.48L84,426.1a22.22,22.22,0,0,1,1.74,1.62l-.31.53h-9.8A25.82,25.82,0,0,0,86,432.43a7.24,7.24,0,0,0-1.2,1.54,22.32,22.32,0,0,1-9.63-5.26v6.47H73.7v-5.91a24.62,24.62,0,0,1-10.05,5.35l-.36-.56a23.39,23.39,0,0,0,9.35-5.8H63.71l-.28-.62H73.7v-2.3H66.59l-.25-.64H73.7v-2.18H64.86l-.31-.62h6.72a.94.94,0,0,1-.53-.76,3.88,3.88,0,0,0-1.37-2l.28-.42c1.82.56,2.77,1.32,2.77,2.27a1,1,0,0,1-.7.87h4.73a17.32,17.32,0,0,0,1.32-3.25c1.37.48,2,.9,2,1.2s-.34.31-1,.34a12.85,12.85,0,0,1-1.46,1.71h4.37L83,420.39a18.94,18.94,0,0,1,1.68,1.68l-.31.45ZM78.46,418a32.07,32.07,0,0,0,2-4.76c1.37.56,2,1,2,1.29s-.31.34-1,.36A18.24,18.24,0,0,1,79.25,418h3.44l1.2-1.62a16.08,16.08,0,0,1,1.71,1.74l-.28.5H64l-.28-.62h8v-5.35c1.54.06,2.3.25,2.3.59s-.31.39-.9.62V418H75.8v-5.4c1.54.08,2.32.28,2.32.64,0,.2-.34.42-1,.64V418Zm-11.68-4.45c2.13,1,3.16,2.1,3.16,3.33,0,.64-.28,1-.87,1q-.63,0-.84-.92A5.37,5.37,0,0,0,66.42,414Z" transform="translate(-0.66)"/><path class="cls-7" d="M97.36,415.1l1-1.18q1.43,1.18,1.43,1.51a.49.49,0,0,1-.25.39l-.5.34v15.6h-1.4V430H93.7v2.69H92.3V414.31a17.54,17.54,0,0,1,1.79.78Zm-3.67.64V422h3.89v-6.22Zm3.89,13.58V422.6H93.7v6.72ZM106.83,417v3.92h4.59l1.23-1.71c.7.76,1.2,1.37,1.57,1.85l-.25.5H99.58l-.28-.64h6.13V417h-4.7l-.31-.64h5v-3.78c1.62,0,2.44.25,2.44.56s-.36.45-1,.7v2.52h3.33l1.2-1.62a18.77,18.77,0,0,1,1.54,1.76l-.28.5Zm3.42,8.76V433c0,1.29-.87,2-2.6,2a1,1,0,0,0-.62-1,16.69,16.69,0,0,0-2.8-.59v-.67c1.51.11,2.72.2,3.64.2.64,0,1-.25,1-.78v-6.36h-8.9l-.28-.62h9.18v-3.53c1.54.31,2.3.62,2.3.87s-.31.36-.87.53v2.13h1.29l1-1.68a16.12,16.12,0,0,1,1.37,1.76l-.28.53Zm-8.26.67c2.49,1.2,3.72,2.38,3.72,3.58,0,.64-.28,1-.87,1a.75.75,0,0,1-.76-.56,7.91,7.91,0,0,0-2.44-3.53Z" transform="translate(-0.66)"/><path class="cls-7" d="M127.44,413.78l1-1.12c.87.73,1.32,1.2,1.32,1.43s0,.25-.17.31l-.5.31v6.94h-1.4v-1.32h-5.71v14.84h-1.51V412.91a18.28,18.28,0,0,1,1.85.87Zm-5.52.62v2.21h5.71V414.4Zm0,5.29h5.71v-2.44h-5.71Zm11,3.72.84-1c1,.78,1.54,1.29,1.54,1.51a.35.35,0,0,1-.2.28l-.59.39v7.9h-1.4v-1.37h-5.77v1.76h-1.46V422.71c.39.17.92.39,1.6.7Zm-5.57.62v2.77h5.77V424Zm5.77,6.44v-3h-5.77v3ZM139,413.78l.87-1.12q1.51,1.18,1.51,1.51c0,.11-.06.2-.2.31l-.5.36v18.37c0,1.23-.84,1.82-2.52,1.79a1.08,1.08,0,0,0-.81-1.06,14.14,14.14,0,0,0-1.9-.42v-.64a23,23,0,0,0,2.74.17c.64,0,1-.25,1-.76v-12h-6v1.18h-1.43V413c.64.28,1.23.5,1.71.76Zm-5.82.62v2.21h6V414.4Zm6,5.29v-2.44h-6v2.44Z" transform="translate(-0.66)"/></g></g></svg>