<svg xmlns="http://www.w3.org/2000/svg" viewBox="0 0 100 100"><defs><style>.cls-1{fill:#e18a50;}.cls-2{fill:#fff;}</style></defs><title>Asset 2</title><g id="Layer_2" data-name="Layer 2"><g id="header_footer" data-name="header/footer"><rect class="cls-1" width="100" height="100"/><path class="cls-2" d="M33.15,27.62v-4q2.7,0,2.7.61c0,.26-.38.49-1.16.78v2.64h7.74l1.07-1.28c1.33,1.25,2,2,2,2.38,0,.17-.09.26-.35.29l-1,.15A15.35,15.35,0,0,1,41.74,31l-.46-.38a9.09,9.09,0,0,0,1.25-2.32H25.9a6.53,6.53,0,0,1-.55,3.45c-.41.78-.87,1.16-1.39,1.16s-1-.29-1-.87a1.17,1.17,0,0,1,.38-.78,7.19,7.19,0,0,0,1.74-4.61l.64.06a7.8,7.8,0,0,1,.17.93Zm0,17.72V38.81H25.41l-.29-.67H39.85l1.36-1.62a14.39,14.39,0,0,1,1.89,1.83l-.29.46H34.72v6.53H42l1.45-1.77a15.4,15.4,0,0,1,1.94,1.94l-.26.46H23.32L23,45.34Zm-10-8.73a12.4,12.4,0,0,0,7.34-7.46c1.65.32,2.44.7,2.44,1.1,0,.23-.38.41-1.19.46-1.51,3.13-4.29,5.25-8.24,6.47Zm12.73-1.25a1.88,1.88,0,0,1-.52-1.57V29c1.57.15,2.35.41,2.35.75s-.32.41-1,.49v3.28c0,.38.12.61.32.67a15,15,0,0,0,2.76.12,9.27,9.27,0,0,0,2.29-.17.85.85,0,0,0,.58-.46,9.07,9.07,0,0,0,.55-2.7l.64.12c0,.29,0,.7,0,1.25a4.21,4.21,0,0,0,.17,1.6.7.7,0,0,0,.64.26,1.14,1.14,0,0,1-.72,1.19,15.11,15.11,0,0,1-4.12.32C37.5,35.71,36.17,35.59,35.82,35.36Z"/><path class="cls-2" d="M63.72,41.19v4.26h7.6l1.51-1.8a20.12,20.12,0,0,1,1.88,2l-.32.46H51.83l-.32-.64H62.18V41.19H54l-.32-.64h8.5V37.07c1.77.15,2.61.41,2.61.75s-.32.44-1.07.67v2.06h5.6l1.3-1.6a11.24,11.24,0,0,1,1.77,1.77l-.29.46ZM62.21,26.95V23.55c1.77,0,2.64.23,2.64.64,0,.2-.38.44-1.16.75v2h8l1-1.22c1.25,1.16,1.89,1.89,1.89,2.2s-.12.26-.38.32l-.87.17a13.85,13.85,0,0,1-2.06,1.83l-.49-.38a10.46,10.46,0,0,0,1-2.29H54.64a7.05,7.05,0,0,1-.55,3c-.38.9-.84,1.31-1.36,1.31a1.21,1.21,0,0,1-.67-.29.79.79,0,0,1-.35-.61c0-.26.2-.52.55-.87a6,6,0,0,0,1.54-4.18l.7.09a7.33,7.33,0,0,1,.12.93Zm6.56,8.15a16.44,16.44,0,0,0-3.25-2.29l.35-.55A16,16,0,0,1,70.94,35,2.7,2.7,0,0,1,72,36.75q0,.87-.78.87c-.26,0-.61-.26-1-.75a10.07,10.07,0,0,0-.87-1.13l-.61.09c-3.89.49-8.3,1-13.26,1.28-.2.67-.38,1-.55,1-.41,0-.72-.78-1-2.38,1,0,2.47,0,4.44-.06a29.62,29.62,0,0,0,1.89-4.06l.14-.32H55.22L55,30.6H68.13l1.28-1.51.29.26a14.06,14.06,0,0,1,1.48,1.42l-.29.46H62.65a31.22,31.22,0,0,1-3.19,4.35C61.92,35.51,65,35.36,68.77,35.1Z"/><path class="cls-2" d="M25.79,66.66a33.25,33.25,0,0,1-3.48,7.22l-.58-.38A36,36,0,0,0,25.67,62.4l.06-.32H22.36l-.26-.67h3.68V55.67c1.77,0,2.67.26,2.67.7,0,.23-.41.49-1.22.73v4.32h1.48l1.1-1.51a13.59,13.59,0,0,1,1.36,1.74l-.26.44H27.24V64.9c2,1.65,3.07,3.13,3.07,4.5,0,.64-.29,1-.87,1-.38,0-.61-.35-.73-1a8.89,8.89,0,0,0-1.48-3.54V79.08H25.79ZM37.65,57a25.08,25.08,0,0,0,8.53,6.27,3.49,3.49,0,0,0-1.25,1.48,26.79,26.79,0,0,1-7.63-7.08,20.11,20.11,0,0,1-7.8,8.09l-.41-.52a22.2,22.2,0,0,0,7.43-9.66c1.54.29,2.29.61,2.29,1s-.41.35-1.13.44Zm-1.19,9.11v-3H34.37l-.29-.67h4.23l1-1.13a10.42,10.42,0,0,1,1.42,1.31l-.23.49H38v3h3.51l1-1.13c1,.81,1.51,1.33,1.51,1.51a.38.38,0,0,1-.2.35l-.58.38v5.19H41.68V71H38.23c1.54,2.64,4.18,4.64,7.95,6a3.31,3.31,0,0,0-1.25,1.48,13.76,13.76,0,0,1-7.19-6.93c-.7,3.77-3.42,6.24-8.15,7.4l-.38-.61C33.36,77,35.73,74.5,36.29,71H32.89v1.54H31.41V65.19a12.38,12.38,0,0,1,1.65.9Zm0,.64H32.89v3.63h3.48A11.36,11.36,0,0,0,36.46,69Zm1.51,0v2.35c0,.35,0,.75-.06,1.28h3.77V66.72Z"/><path class="cls-2" d="M51.71,78A17.27,17.27,0,0,0,58,72.9c1.36.58,2,1,2,1.45,0,.2-.23.35-.7.35l-.61-.06a17.53,17.53,0,0,1-6.67,3.92Zm12-15.55h7.86l1-1.22c1.33,1.16,2,1.91,2,2.26,0,.17-.12.26-.38.29l-.93.15a15.81,15.81,0,0,1-2.41,2.15l-.49-.41a12.41,12.41,0,0,0,1.33-2.55H54.87a7.28,7.28,0,0,1-.58,2.93c-.41.75-.84,1.1-1.36,1.1s-1-.29-1-.9a1.61,1.61,0,0,1,.52-.93,6.13,6.13,0,0,0,1.6-4.06l.7.09c0,.06,0,.46.09,1.1h7.28V59.82H52.23L52,59.15H62.15V55.73c1.8.06,2.67.26,2.67.67,0,.23-.35.46-1.13.7v2.06h7.37l1.36-1.65a15.46,15.46,0,0,1,1.86,1.83l-.29.49H63.69Zm1,9-1,.09v7.54H62.15v-7.4l-1.57.15c-1.86.15-4.18.35-6.9.55-.17.7-.41,1-.58,1-.38,0-.75-.81-1.1-2.47,3.54-.09,6.18-.15,7.86-.23l.52,0a42.2,42.2,0,0,0,7-5.95q2,1,2,1.39c0,.2-.29.29-.84.29-.17,0-.32,0-.46,0a42.57,42.57,0,0,1-6.29,4.23l2.23-.12c.26,0,2.38-.15,6.29-.41A25.43,25.43,0,0,0,68.1,68.4l.35-.46c3.63,1.36,5.42,2.7,5.42,4,0,.61-.26.93-.84.93-.29,0-.61-.23-.9-.7A9.56,9.56,0,0,0,71,70.78C69.32,71,67.2,71.25,64.65,71.45ZM62,63.33c1.45.49,2.15.93,2.15,1.25s-.41.32-1.19.32a21.9,21.9,0,0,1-3.16,2.49C60.59,68,61,68.58,61,69.1s-.26.9-.75.9c-.26,0-.55-.23-.9-.73a11.06,11.06,0,0,0-3.63-3.07l.26-.49A18.93,18.93,0,0,1,59.14,67,19.18,19.18,0,0,0,62,63.33Zm4,9.49a20.34,20.34,0,0,1,5.8,2.32c1,.67,1.45,1.28,1.45,1.83s-.29,1-.84,1c-.26,0-.61-.23-1-.73a16.07,16.07,0,0,0-5.69-3.83Z"/></g></g></svg>