<svg xmlns="http://www.w3.org/2000/svg" viewBox="0 0 100 100"><defs><style>.cls-1{fill:#527c68;}.cls-2{fill:#fff;}</style></defs><title>Asset 3</title><g id="Layer_2" data-name="Layer 2"><g id="header_footer" data-name="header/footer"><rect class="cls-1" width="100" height="100"/><path class="cls-2" d="M12.87,39.6h4.21l3.31,17.31L24,39.6h4.07v.76a1.9,1.9,0,0,0-1.4.58,3,3,0,0,0-.25,1.48V59.32a2.39,2.39,0,0,0,.4,1.62,2.05,2.05,0,0,0,1.26.47v.72H22.91v-.72a1.93,1.93,0,0,0,1.44-.58,2.86,2.86,0,0,0,.25-1.51V41.79L20.43,61.41h-.79l-4-19.83V59.32a2.52,2.52,0,0,0,.4,1.62,2.46,2.46,0,0,0,1.33.47v.72h-4.5v-.72c.76-.11,1.26-.32,1.44-.68a3.23,3.23,0,0,0,.22-1.4V42.41a2.43,2.43,0,0,0-.4-1.66,2.24,2.24,0,0,0-1.26-.4Z"/><path class="cls-2" d="M33.32,39.6H46.2v5.54h-.76a6.53,6.53,0,0,0-1-3.67,3.48,3.48,0,0,0-2.81-1H39.54c-1,0-1.69.22-1.91.58a2.77,2.77,0,0,0-.25,1.33v7.34H39.8c1.37,0,2.27-.29,2.63-.83A4.12,4.12,0,0,0,43,46.65h.76V54H43c-.07-1.55-.43-2.48-1-2.88a4.11,4.11,0,0,0-2.23-.47H37.38v8.67c0,.9.21,1.44.61,1.66a3.62,3.62,0,0,0,1.58.25h2.16c1.8,0,2.92-.58,3.49-1.73a10.38,10.38,0,0,0,.65-3.28h.72v5.9H33.32v-.72c1-.07,1.66-.29,1.91-.72a2.81,2.81,0,0,0,.25-1.37V42.41a2,2,0,0,0-.58-1.69,3.31,3.31,0,0,0-1.58-.36Z"/><path class="cls-2" d="M52.9,39.6h4L64.2,57.13V42.48a2.39,2.39,0,0,0-.43-1.69,2.44,2.44,0,0,0-1.51-.43V39.6h5v.76c-.94.07-1.55.29-1.76.72a3.25,3.25,0,0,0-.18,1.4V62.74h-.83L56,42.23v17c0,.9.14,1.48.47,1.73a3,3,0,0,0,1.48.43v.72h-5v-.72c.9-.14,1.48-.32,1.69-.68a3.75,3.75,0,0,0,.25-1.48V42.44a2.34,2.34,0,0,0-.43-1.66,2.61,2.61,0,0,0-1.51-.43Z"/><path class="cls-2" d="M72.34,39.6h5.87v.76c-.94.07-1.51.29-1.73.72a3,3,0,0,0-.25,1.4V56c0,3.67,1.33,5.47,4,5.47A3.76,3.76,0,0,0,84,58.78a8.29,8.29,0,0,0,.47-3V42.48a2.18,2.18,0,0,0-.5-1.73,3.08,3.08,0,0,0-1.51-.4V39.6h5v.76c-.86.07-1.44.29-1.66.68a2.93,2.93,0,0,0-.25,1.44V55.8a7.93,7.93,0,0,1-1.26,4.72,5.49,5.49,0,0,1-9.11-.4,8.65,8.65,0,0,1-.9-4.1V42.48c0-.9-.14-1.48-.47-1.73a2.92,2.92,0,0,0-1.48-.4Z"/></g></g></svg>