<svg xmlns="http://www.w3.org/2000/svg" viewBox="0 0 73 73"><defs><style>.cls-1{fill:#df8850;}.cls-2{fill:#fff;}</style></defs><title>Asset 1</title><g id="Layer_2" data-name="Layer 2"><g id="header_footer" data-name="header/footer"><circle class="cls-1" cx="36.5" cy="36.5" r="36.5"/><path class="cls-2" d="M24.77,20.86v-2.5q1.67,0,1.67.38c0,.16-.23.31-.72.49v1.64h4.81l.67-.79c.83.77,1.22,1.26,1.22,1.48s-.05.16-.22.18l-.61.09a9.56,9.56,0,0,1-1.49,1.13l-.29-.23a5.65,5.65,0,0,0,.77-1.44H20.27a4,4,0,0,1-.34,2.14c-.25.49-.54.72-.86.72s-.63-.18-.63-.54a.73.73,0,0,1,.23-.49,4.47,4.47,0,0,0,1.08-2.86l.4,0a4.93,4.93,0,0,1,.11.58Zm0,11V27.81H20l-.18-.41h9.15l.85-1a8.92,8.92,0,0,1,1.17,1.13l-.18.29h-5v4.05h4.52l.9-1.1A9.48,9.48,0,0,1,32.37,32l-.16.29H18.67l-.22-.4Zm-6.23-5.42a7.7,7.7,0,0,0,4.55-4.63c1,.2,1.51.43,1.51.68s-.23.25-.74.29a7.87,7.87,0,0,1-5.11,4Zm7.9-.77a1.16,1.16,0,0,1-.32-1v-3c1,.09,1.46.25,1.46.47s-.2.25-.59.31v2c0,.23.07.38.2.41a9.27,9.27,0,0,0,1.71.07,5.78,5.78,0,0,0,1.42-.11.53.53,0,0,0,.36-.29A5.62,5.62,0,0,0,31,22.94l.4.07c0,.18,0,.43,0,.77a2.59,2.59,0,0,0,.11,1,.43.43,0,0,0,.4.16.71.71,0,0,1-.45.74,9.37,9.37,0,0,1-2.56.2A7.15,7.15,0,0,1,26.43,25.66Z"/><path class="cls-2" d="M45.54,29.28v2.65h4.72l.94-1.12A12.39,12.39,0,0,1,52.37,32l-.2.29h-14l-.2-.4h6.63V29.28H39.51l-.2-.4h5.28V26.73c1.1.09,1.62.25,1.62.47s-.2.27-.67.41v1.28H49l.81-1a7,7,0,0,1,1.1,1.1l-.18.29Zm-.94-8.84V18.34c1.1,0,1.64.14,1.64.4s-.23.27-.72.47v1.24h5l.61-.76c.77.72,1.17,1.17,1.17,1.37s-.07.16-.23.2l-.54.11a8.59,8.59,0,0,1-1.28,1.13l-.31-.23a6.48,6.48,0,0,0,.63-1.42H39.91a4.37,4.37,0,0,1-.34,1.85c-.23.56-.52.81-.85.81a.75.75,0,0,1-.41-.18.49.49,0,0,1-.21-.38c0-.16.13-.32.34-.54a3.73,3.73,0,0,0,1-2.59l.43.05a4.65,4.65,0,0,1,.07.58Zm4.07,5.06a10.16,10.16,0,0,0-2-1.42l.22-.34A10,10,0,0,1,50,25.43a1.68,1.68,0,0,1,.68,1.1q0,.54-.49.54c-.16,0-.38-.16-.59-.47a6.28,6.28,0,0,0-.54-.7l-.38.05c-2.41.31-5.15.59-8.23.79-.13.41-.23.59-.34.59s-.45-.49-.61-1.48c.61,0,1.53,0,2.75,0a18.42,18.42,0,0,0,1.17-2.52l.09-.2H40.27l-.16-.4h8.17l.79-.94.18.16a8.6,8.6,0,0,1,.92.88l-.18.29H44.88a19.32,19.32,0,0,1-2,2.7C44.43,25.75,46.35,25.66,48.67,25.5Z"/><path class="cls-2" d="M20.2,48.23A20.63,20.63,0,0,1,18,52.71l-.36-.23a22.37,22.37,0,0,0,2.45-6.9l0-.2H18.07L17.91,45H20.2V41.41c1.1,0,1.66.16,1.66.43s-.25.31-.76.45V45H22L22.7,44a8.44,8.44,0,0,1,.85,1.08l-.16.27H21.1v1.75c1.26,1,1.91,1.94,1.91,2.79,0,.4-.18.61-.54.61s-.38-.22-.45-.63a5.53,5.53,0,0,0-.92-2.2v8.23h-.9Zm7.37-6a15.57,15.57,0,0,0,5.29,3.89,2.16,2.16,0,0,0-.77.92,16.63,16.63,0,0,1-4.74-4.39,12.49,12.49,0,0,1-4.84,5l-.25-.32a13.78,13.78,0,0,0,4.61-6c1,.18,1.42.38,1.42.59s-.25.22-.7.27Zm-.74,5.65V46h-1.3l-.18-.41H28l.61-.7a6.42,6.42,0,0,1,.88.81l-.14.31H27.76v1.84h2.18l.61-.7c.63.5.94.83.94.94a.24.24,0,0,1-.13.22l-.36.23v3.22h-.94v-.85H27.92a9,9,0,0,0,4.93,3.75,2,2,0,0,0-.77.92,8.54,8.54,0,0,1-4.47-4.3Q27,54.8,22.55,55.88l-.23-.38c2.58-.86,4.05-2.41,4.39-4.57H24.61v1h-.92V47.31a7.66,7.66,0,0,1,1,.56Zm0,.4H24.61v2.25h2.16a7.11,7.11,0,0,0,.05-.85Zm.94,0v1.46c0,.22,0,.47,0,.79h2.34V48.27Z"/><path class="cls-2" d="M38.09,55.27A10.72,10.72,0,0,0,42,52.1c.85.36,1.26.65,1.26.9s-.14.22-.43.22l-.38,0a10.87,10.87,0,0,1-4.14,2.43Zm7.44-9.65H50.4l.61-.76c.83.72,1.22,1.19,1.22,1.4s-.07.16-.23.18l-.58.09a9.85,9.85,0,0,1-1.5,1.33l-.31-.25A7.73,7.73,0,0,0,50.46,46H40a4.51,4.51,0,0,1-.36,1.82c-.25.47-.52.68-.85.68s-.59-.18-.59-.56a1,1,0,0,1,.32-.58,3.8,3.8,0,0,0,1-2.52l.43.05s0,.29.05.68h4.52V44H38.41l-.16-.41h6.32V41.44c1.12,0,1.66.16,1.66.41s-.22.29-.7.43v1.28H50.1l.85-1a9.64,9.64,0,0,1,1.15,1.13l-.18.31H45.52Zm.59,5.58-.59.05v4.68h-1V51.35l-1,.09-4.29.34c-.11.43-.25.65-.36.65s-.47-.5-.68-1.53c2.2-.05,3.83-.09,4.88-.14l.32,0A26.18,26.18,0,0,0,47.85,47q1.24.59,1.24.86c0,.13-.18.18-.52.18l-.29,0a26.37,26.37,0,0,1-3.91,2.63l1.39-.07,3.91-.25a15.79,15.79,0,0,0-1.4-1.06l.22-.29c2.25.85,3.37,1.67,3.37,2.47,0,.38-.16.58-.52.58-.18,0-.38-.14-.56-.43a6.08,6.08,0,0,0-.7-.85C49,50.91,47.7,51.08,46.12,51.2Zm-1.66-5c.9.31,1.33.58,1.33.77s-.25.2-.74.2a13.51,13.51,0,0,1-2,1.55c.5.38.77.74.77,1.06s-.16.56-.47.56-.34-.14-.56-.45a6.87,6.87,0,0,0-2.25-1.91l.16-.31a11.77,11.77,0,0,1,1.95.77A11.88,11.88,0,0,0,44.46,46.16ZM46.93,52a12.63,12.63,0,0,1,3.6,1.44c.61.41.9.79.9,1.13s-.18.59-.52.59c-.16,0-.38-.14-.65-.45a10,10,0,0,0-3.53-2.38Z"/></g></g></svg>