<svg xmlns="http://www.w3.org/2000/svg" viewBox="0 0 43.81 38.61"><defs><style>.cls-1{fill:#527c68;}</style></defs><title>Asset 35</title><g id="Layer_2" data-name="Layer 2"><g id="text"><path class="cls-1" d="M42.87,29.77a1.86,1.86,0,0,1-.55,1.33,1.78,1.78,0,0,1-1.27.53h0l-16.33,0a3.06,3.06,0,0,0-2,.84l-.12.1A25,25,0,0,1,11,37.16a32.17,32.17,0,0,0,3.42-3.67,1.25,1.25,0,0,0,.15-1.27.93.93,0,0,0-.82-.57l-10.6,0h0a1.78,1.78,0,0,1-1.27-.53,1.86,1.86,0,0,1-.55-1.33V3.05A1.84,1.84,0,0,1,3.18,1.2h37.5l.57-.86H3.18A2.7,2.7,0,0,0,.5,3.05V29.82a2.72,2.72,0,0,0,.8,1.94,2.64,2.64,0,0,0,1.88.78h0l10.58,0s0,0,.05.06a.39.39,0,0,1,0,.37,25.75,25.75,0,0,1-4.36,4.44.43.43,0,0,0,.25.79h0a25.78,25.78,0,0,0,13.46-5l.13-.1a2.24,2.24,0,0,1,1.47-.66l16.32,0h0a2.64,2.64,0,0,0,1.88-.78,2.72,2.72,0,0,0,.8-1.94l.07-24.93-1-.47Z"/><path class="cls-1" d="M42.93,29.42c0,.44,0,.28,0,.35C42.94,29,42.93,29.44,42.93,29.42Z"/><polygon class="cls-1" points="42.92 22.14 42.92 22.27 42.91 21.2 42.92 22.14"/><path class="cls-1" d="M42.94,15.33c0,.64,0,2.47,0,3.68v.2l0,.55C42.94,18.28,42.93,16.37,42.94,15.33Z"/><path class="cls-1" d="M43.05,11.7c0,.22,0-.78,0,.85V11.7Z"/><path class="cls-1" d="M43,12.4c0,.72,0-.47,0,0Z"/><path class="cls-1" d="M43.07,9.09V10c0-.2,0-1,0-.73C43.12,8.34,43.1,8.54,43.07,9.09Z"/><path class="cls-1" d="M43,8.19v.49A4.43,4.43,0,0,0,43,8.19Z"/><path class="cls-1" d="M43.05,9.72v-1a1.91,1.91,0,0,0,0,.48A3.38,3.38,0,0,0,43.05,9.72Z"/><path class="cls-1" d="M43,10.31c0,.53,0,1.21,0,.27C43,12.38,43,12.11,43,10.31Z"/><path class="cls-1" d="M42.91,15v1.32C42.9,16,42.92,14.94,42.91,15Z"/><path class="cls-1" d="M43.42,9.58a3.06,3.06,0,0,0,.06-.39V8.5C43.47,8.85,43.45,9.53,43.42,9.58Z"/><path class="cls-1" d="M43.49,9.19v1A4.2,4.2,0,0,0,43.49,9.19Z"/><path class="cls-1" d="M43,8l0,1.71V8c0-.11,0-.14,0-.17l0-.06,0,0s0,0,0,.06Z"/><polygon class="cls-1" points="43.35 13.57 43.32 12.97 43.37 14.03 43.35 13.57"/><path class="cls-1" d="M43.32,16.21c0-.44-.08.6-.09.14,0,.72,0,1.33,0,1.88C43.26,17.64,43.27,17,43.32,16.21Z"/><path class="cls-1" d="M43.3,19.16l0-.93C43.27,18.54,43.28,18.85,43.3,19.16Z"/><path class="cls-1" d="M43.47,12a6.47,6.47,0,0,0-.06.82l.05-.41Z"/><path class="cls-1" d="M43.47,12.41h0v.89Z"/><path class="cls-1" d="M43.47,11.91V12A.34.34,0,0,0,43.47,11.91Z"/><path class="cls-1" d="M43.57,7.54l0,1c0,.24,0,.25,0-.37,0-.22,0-.15,0-.15s0,0,0-.08V7.54Z"/><path class="cls-1" d="M43.53,11.4l0-1.11s0,.22,0-.08Z"/><polygon class="cls-1" points="43.54 11.94 43.53 11.4 43.53 11.81 43.54 11.94"/><path class="cls-1" d="M43.38,17.26c0,.48,0,1,0,1.59,0-.63,0-1.29,0-1.91C43.42,16.85,43.39,16.58,43.38,17.26Z"/><path class="cls-1" d="M43.43,14.9V15C43.43,14.94,43.44,14.89,43.43,14.9Z"/><path class="cls-1" d="M43.32,24.68v0Z"/><path class="cls-1" d="M43.45,16.83c0-.48,0-.76,0-1v1.14S43.45,17,43.45,16.83Z"/><path class="cls-1" d="M43.3,20.78l0-.83A7.32,7.32,0,0,0,43.3,20.78Z"/><path class="cls-1" d="M43.41,15.17V15.1C43.4,15.25,43.4,15.24,43.41,15.17Z"/><path class="cls-1" d="M43.41,15.17c0,.25,0,.44,0,.63V15C43.42,15.07,43.42,15.13,43.41,15.17Z"/><path class="cls-1" d="M43.81,26.44A10.24,10.24,0,0,1,43.74,24c-.05-1.06-.27-.37-.41.56,0,0,.06,0,.09,1.13,0-.38.1-2.43.16-1.51a11,11,0,0,1-.07,1.89c.09-.6.12,1.85.26,1.53l0-1.27S43.79,26.79,43.81,26.44Z"/><path class="cls-1" d="M43.37,22.5V22c0,.51,0,.88-.11,1.56a4.36,4.36,0,0,0,.07,1l0-2.22Z"/><path class="cls-1" d="M43.39,20c.06.35.08,1.43.16.77,0-1.32,0-.93-.07-1.72,0,2.13,0-.61-.08.93,0-.42,0-.8,0-1.15l0,1.1v0h0c0-.09,0-.12,0,0v0a.39.39,0,0,1,0,.1c0,.62,0,.1,0-.1v0h0V22C43.38,21.59,43.38,21,43.39,20Z"/><path class="cls-1" d="M43.73,9.29c0,.07,0,.06,0,.07S43.72,9.55,43.73,9.29Z"/><path class="cls-1" d="M43.7,10.17c0-.16,0-.28,0-.79s0,0,0,0c0-.3,0-1.07,0-.11V9.4c0,.86-.08,2-.09,1.82A9.29,9.29,0,0,0,43.7,10.17Z"/><path class="cls-1" d="M43.58,15.16l0,1.78.05-.91,0,0C43.64,15.07,43.6,15.28,43.58,15.16Z"/><polygon class="cls-1" points="43.28 24.88 43.21 24.64 43.31 25.67 43.28 24.88"/><polygon class="cls-1" points="43.27 27.19 43.2 27.11 43.23 27.72 43.27 27.19"/><path class="cls-1" d="M40.61.16h0Z"/><path class="cls-1" d="M36.82.15h-.09C36.9.16,37,.15,36.82.15Z"/><path class="cls-1" d="M4.24,32l-1.07-.12c-.22,0-.35-.07-.32,0l.08.06.08.06h.66Z"/><path class="cls-1" d="M5.78.31l-.22,0L5,.36Z"/><path class="cls-1" d="M6.32,0l1,0Z"/><path class="cls-1" d="M21.66,1.46l-.61,0C22,1.5,21.59,1.48,21.66,1.46Z"/><path class="cls-1" d="M24,32a3.12,3.12,0,0,0-1,.5l-.6.43c.33-.19.62-.39.9-.56S23.89,32.08,24,32Z"/><path class="cls-1" d="M39.11.49l.45,0A2,2,0,0,0,39.11.49Z"/><path class="cls-1" d="M20.91,34l.3-.16c.39-.25.76-.54,1.23-.87-.24.15-.5.31-.75.49A8.85,8.85,0,0,0,20.91,34Z"/><path class="cls-1" d="M16.73,35.46l.16-.05Z"/><path class="cls-1" d="M37.59,31.66h0Z"/><path class="cls-1" d="M38.57,31.89c.49,0,.08,0,0,0Z"/><path class="cls-1" d="M41,32.27c-.1,0-.18,0-.2,0A.56.56,0,0,1,41,32.27Z"/><path class="cls-1" d="M16.86,36.63h0C17,36.62,16.94,36.62,16.86,36.63Z"/><path class="cls-1" d="M39.3,31.94l-.63,0Z"/><path class="cls-1" d="M39.2,31.89h.43C39.7,31.89,39.64,31.88,39.2,31.89Z"/><path class="cls-1" d="M37.88,31.89l.79,0-.11,0Z"/><path class="cls-1" d="M1.63,16.51v.11C1.66,17.11,1.66,16.89,1.63,16.51Z"/><path class="cls-1" d="M.06,22.35v0Z"/><path class="cls-1" d="M0,20.59a7.71,7.71,0,0,1,.07,1.75l.27-.58Z"/><path class="cls-1" d="M33.28,1.37l1.24,0c-1.49,0-2.57,0-1.41.07.18-.1,4.81,0,5-.11l.82,0h-.5a13.54,13.54,0,0,0,1.44,0l.64,0h.26s0,0,0,0L40.95,1l.18-.28.28-.44.05-.08v0h-1c-.15,0-.16,0,.09,0L39,.18c-.46,0-.35,0,.11,0h-2.4l-1.51,0c-.62,0,.31,0,.15,0L34,.21c-.55,0,.57-.05,1.49,0-1.25-.11-1.11,0-3.81,0H33c-.82-.07-1.8,0-3.24-.1.34,0,2.87.12,1.41.14-.41,0-1,0-1.74,0a14,14,0,0,0-1.73,0l.07-.06c-1,0-1,0-1.57.06A9.09,9.09,0,0,1,24.51,0c-1.85,0,1.28.09-.91.08-1.54,0-2.62,0-4.46,0-1.08,0,.19,0-.2-.07L18,.1c-.23,0-.16,0-.12,0-.8,0-.07.07-1.33.09-.34.09-2.6-.15-4.16-.05-.39,0,.19-.05.07-.09-2.15.06-1.84,0-3.61.13L7.32.08C8.43.16,7,.24,5.78.31l1,.08-2,.06c-.24,0,0-.05.28-.1l-.36,0c-.71,0-.34-.1.17-.16l.71.06C6,.23,6.5.17,6.4.11l-.65,0c.13,0,.21,0,.15,0a5.13,5.13,0,0,0-.6,0L4.86,0l-.11,0L3.46,0a3.87,3.87,0,0,0-1,0L2.18.14l-.12,0A3,3,0,0,0,.37,2.58a4.59,4.59,0,0,0,0,.8l0,.85c0,.59,0,1.24.06,2C.38,5.47.32,6,.21,6a9.67,9.67,0,0,0,0-1.62l0-1V2.75l0-.31c0-.1.05-.2.08-.3a4.42,4.42,0,0,0-.12.46,1,1,0,0,1,0,.17s0-.07,0-.19l0,.13c0,.08,0,.21,0,.35L.16,4l0,1.35C.11,5.28.13,5.91.09,6.62c.19-.53.12,2,.18,3.12C.2,9.81.13,9.55.15,8.2,0,9.69.38,10.12.25,11.57a3.16,3.16,0,0,0,0-.63,9.33,9.33,0,0,1-.05,2.2v-.33a60.9,60.9,0,0,0,.16,7,1.11,1.11,0,0,1-.25-.42l.61,3.89c-.16-.34-.54,1-.62-.83a21.21,21.21,0,0,0,0,2.25c0-.35.23-.88.25-.4-.18,1.33-.1.92-.25,2.56,0-.53.29.06.28.9,0-.13-.25.07-.28-.24l.25,2.09c0-.26-.08-.28-.13-.18a1.08,1.08,0,0,0-.09.23A2,2,0,0,0,0,30a7.3,7.3,0,0,0,.23,1,3.13,3.13,0,0,0,.48.85,2.8,2.8,0,0,0,.53.52A3.41,3.41,0,0,1,.91,32a3.09,3.09,0,0,1-.29-.42,2.63,2.63,0,0,0,1.2,1,2.41,2.41,0,0,0,1,.18c.33,0,.6-.08,1-.11a13.22,13.22,0,0,1,1.38-.06c-.28.06-.7.34.49.37a23.47,23.47,0,0,1,4.48-.77l.4.08,1.6-.1c-1,.22-3.77.66-5.29.82a8.5,8.5,0,0,0,1.57.09c.47.07-.72.11-1.11.11l3.07.05c-.07-.08.52-.12,1.11-.16s.83-.07.88-.14l-.29,0L11,33l-1.67.08c-.07-.08.41-.19,1.19-.29.39,0,.84-.09,1.34-.11l.69,0h.67c.19,0,0,.1-.24.18a1.67,1.67,0,0,0-.41.17l.26,0h.1S13,33,13,33a.18.18,0,0,1,0,.18,2.62,2.62,0,0,1-.38.46l.1-.19.07-.16a1.6,1.6,0,0,0-.23.29l-.09.15,0,0-.06.08-.12.16a6.75,6.75,0,0,1-1.23,1.29,7.77,7.77,0,0,1-.74.58l-.27.21-.24.2c-.15.12-.25.21-.25.24a3.21,3.21,0,0,1,.75-.38.5.5,0,0,1,.39,0,.28.28,0,0,1,.17.2.35.35,0,0,1,0,.15.47.47,0,0,1,0,.13l-.35.26-.46.32a1.13,1.13,0,0,0-.27.21.43.43,0,0,0-.09.32.34.34,0,0,0,.14.24A.44.44,0,0,0,10,38l.35,0c.16,0,.16.07.06.12a2.52,2.52,0,0,1-.53.14l-.52.06c-.11,0-.14,0,0,.09a2.28,2.28,0,0,1,.34,0c.17,0,.39,0,.5,0s.22,0,.23,0,0,0,0,0,.14,0,1-.07a1.39,1.39,0,0,1,.44-.14l.6-.11c.34-.06.42-.06-.48,0,.56-.12.85-.17,1.17-.22a12.91,12.91,0,0,0,1.32-.27c-.43,0,1.06-.65,2.09-1.08,0,.06.21,0,.33,0,1.09-.38,1.9-.74,2.69-1.1.4-.18.77-.39,1.17-.6s.8-.48,1.26-.76c.19-.07,1.06-.65.74-.33.23-.21.45-.42,1-.82.27-.15.33-.15.29-.11l-.34.26c-.31.25-.67.53-.22.31a.84.84,0,0,1,.21-.24,2.51,2.51,0,0,1,.5-.38,1.51,1.51,0,0,1,.72-.18l.8,0a1.49,1.49,0,0,0-.48-.07,2.78,2.78,0,0,0-.81,0,2,2,0,0,0-.77.46l-.65.55s0-.14.14-.29a5.68,5.68,0,0,1,.56-.6,1.94,1.94,0,0,1,.51-.33,2,2,0,0,1,.7-.15l1.55-.09c1.78,0,.77.13,1.08.1,3.35,0,2.85-.33,5.63-.18,1.1.13.05.24.3.34-1.45,0-2.23-.08-3.21-.08l1.21.06a16.2,16.2,0,0,1-2,0c.93.11,5.66,0,8.24.14.46,0,1.25-.08.88-.13h-.82c-.75-.1,1.54-.13.5-.17.55,0,1.13-.07,1.77-.09l1,0A2.66,2.66,0,0,0,42,32h.29s-.24.09-.5.16a4,4,0,0,1-.8.11,6,6,0,0,0,.6-.05,2.5,2.5,0,0,0,.76-.25,1.84,1.84,0,0,0,1-1.07,2.44,2.44,0,0,1-.3.4,2.47,2.47,0,0,1-.37.32,2.4,2.4,0,0,0,.7-1.4,2.57,2.57,0,0,0,0-.42v-.5c0-.34,0-.68,0-1-.12.62,0,.32-.14,1.29,0-.21.06-.1.07.17a2.14,2.14,0,0,1-.17.89,2.63,2.63,0,0,1-.44.69c-.11.12-.1.16.13,0a3.18,3.18,0,0,1-1,.55,1.93,1.93,0,0,1-.59.08l-.39,0-.46,0s.46.09-.69.05l-.25,0h0s-.05,0,0,0A4.39,4.39,0,0,1,40,32c-.57.09-2.4.08-3,.13s.29,0-.09-.1l-.92.07c-.09-.1-1.81-.18-.21-.23l-1.45,0a25.13,25.13,0,0,0-2.74-.06c-.68,0-1.72.11-1.13,0l-2.27.05,0,0c-1.12,0-2.25,0-3.47,0a2.32,2.32,0,0,0-1.1.33c-.32.19-.55.4-.8.57a12.73,12.73,0,0,1-1.55,1c-.3.2-.6.43-1,.63a12.26,12.26,0,0,1-1.37.7l-.26,0c-.84.44-2.64,1-3,1.17-.52,0-1.62.33-2.81.59l-.9.18-.45.08-.11,0h-.06a.66.66,0,0,1-.27,0l-.12.07-.13.07a.14.14,0,0,1,0-.22l.19-.18.31-.32c.24-.24.48-.49.72-.76h-.14c.21-.24.45-.51.73-.8l.42-.45.22-.24L13.5,34l.34-.39.09-.1,0-.09.1-.18.19-.37a.49.49,0,0,0,.07-.18.7.7,0,0,0,0-.21.67.67,0,0,0-.08-.21s0,0-.06-.05l-.06,0a2.27,2.27,0,0,0-.32-.14,1.32,1.32,0,0,0-.49-.07h-.58a5,5,0,0,1,.67,0,1.25,1.25,0,0,1,.64.19,1.34,1.34,0,0,0-.43-.19,1.82,1.82,0,0,0-.34,0H11.69c-.61,0-1.23,0-1.84.06a29.32,29.32,0,0,1-3.49,0,8.6,8.6,0,0,1-1.3,0H5L4.24,32l.62.05c-.41,0-1,0-1.65,0A2.08,2.08,0,0,1,3,31.94H2.89c-.23-.05-.32-.08-.33,0s.06.1.18.16a2.83,2.83,0,0,1-.66-.17c-.14-.18-.42-.35-.65-.63a1.3,1.3,0,0,1-.37-.92,1.42,1.42,0,0,1-.11-.54l0-1.08A7.14,7.14,0,0,0,.74,27s0-.2,0,.13a17.49,17.49,0,0,0,0-2L.9,24.9.71,23.4c.08-.91.12-1.28.23-.38C.78,20.85.88,21.26.72,19.41l.08.09c0-.66-.12-1.72,0-2.12.15-1.48,0-7.31.13-11.11C.67,7,1,4.51.8,4.36c0-.22.07-.75.12-.14l0-.68V3.23c0-.1,0-.2,0-.28a2.29,2.29,0,0,1,.21-.87A2.81,2.81,0,0,1,2.2.89c.1,0,0,0-.05.09s-.14.12-.07.08A1.52,1.52,0,0,1,2.71.8c.17,0-.23.08-.44.22A2.49,2.49,0,0,1,3.2.78,6.49,6.49,0,0,0,3.87.71.8.8,0,0,0,4.34.52a11.2,11.2,0,0,0,2.23,0c.35,0,.93.08-.3.1.69,0,4.22,0,4.29-.06s1,0,1.15,0c1.55,0,1.69,0,3.21,0h-.42A21.07,21.07,0,0,1,17,.45h0c2.82.05,1.22,0,4,0L20.81.43c.26-.11,2.46.06,4.07,0l-.58,0c.88,0,2.46.13,3.35.13a4.13,4.13,0,0,1-.57,0,15.63,15.63,0,0,0,2-.08c.32,0-.41.08.75.08.58,0,3.37-.1,5-.06-.35,0-.7,0,.11-.05,1.23,0,3.32.07,4.43,0H41l-.07.12-.23.36-.1.15h-.17l-.67,0c-.43-.06-1.89,0-3.24,0a23,23,0,0,1-2.58,0H31.14c-1.85,0-2.5,0-3.15,0-.43,0-.12,0-.08,0-2.7,0-3,0-5.23,0l-.24,0c-.61,0-3.9-.1-6.55-.06a1.53,1.53,0,0,1,.29,0c-1.49,0-3.27,0-4.82-.07A20.17,20.17,0,0,0,8,1L6,1c2.54,0-.38.11.67.16-1,0-2.58-.09-1.36-.1h.19C5.74,1,5,1,4.11,1H2.92c-.36,0-.58.15-.58.11A2.13,2.13,0,0,0,1.11,2.76a2.16,2.16,0,0,0,0,.27V4.65L1,8.32c0,2.43-.08,4.82-.09,7.16l.15-.54v1.63C1,17,1,17.15,1,16a8.51,8.51,0,0,0,.1,2C1,20.26.89,17.09.88,17.79v1l0-.21A15.74,15.74,0,0,1,1,20.76c0,.89-.09.45-.1.8a2.4,2.4,0,0,0,0,.54v2.06L1,23.34c.06.91,0,1.94.13,1C1.05,25,1,26.94,1,28.79v1a2.27,2.27,0,0,0,0,.38,2.18,2.18,0,0,0,.67,1.22,2.14,2.14,0,0,0,1,.51,3.25,3.25,0,0,0,.62.07c1.28-.09,2.54-.09,4.1-.09-.39,0-.62-.14.73-.13-.49.25,2.47.1,3.56.25-.49-.05.47-.07,1.36-.09l.63,0A.78.78,0,0,1,14,32c.07,0,.11.05.11,0s0-.08-.19-.14a.59.59,0,0,1,.32.23s0,.06,0,.06,0,0,0,0,0,.09.08.24a1,1,0,0,1,0,.54.87.87,0,0,1-.1.26,2.62,2.62,0,0,1-.2.27q-.46.58-1,1.17c-.35.39-.71.78-1.09,1.17s-.58.58-.89.87-.64.59-.91.86c.77-.13,1.47-.23,2.22-.38l.82-.18.72-.18s-.5.08.18-.14l.27-.06L15,36.5c.43-.1.85-.22.85-.22a5.24,5.24,0,0,0,.64-.28c.2-.09.47-.2,1-.4-.16.05-.41.13,0,0a21.38,21.38,0,0,0,4.33-2.35c.33-.25.67-.49,1-.75a3.58,3.58,0,0,1,1-.62,3.21,3.21,0,0,1,1.19-.15h1.25c3.32,0,6.66,0,10,0-.89,0-.3,0,.38,0-.44,0,0,0-.08,0l2.76,0h1.7a1.81,1.81,0,0,0,1-.28,1.71,1.71,0,0,0,.42-.37,2,2,0,0,1-.32.3,1.86,1.86,0,0,1-.39.22c.27-.12.3-.17.21-.12a1.89,1.89,0,0,1-.56.19,4.75,4.75,0,0,1-.78,0l-.32,0c-1.3,0-3.43,0-5.56,0-.47,0,.4,0,.15,0-.54,0-1.19,0-2.4,0h.14l-4.18,0-2,0-1.16,0h-.65a2.83,2.83,0,0,0-.71.12l.15,0,.15,0a2.81,2.81,0,0,0-.83.3,4.43,4.43,0,0,0-.46.29c-.18.15-.16.14,0,0a4.62,4.62,0,0,1,.65-.4,2.55,2.55,0,0,1,.75-.23c.17,0,.22,0,0,0A2.73,2.73,0,0,0,23,32.1c-.25.18-.51.38-.78.58l-.42.3-.44.29a14.83,14.83,0,0,1-2.74,1.45c-1.15.5.36-.1-.79.4l-.16.05-.16,0-.28.15a5.14,5.14,0,0,1-1.22.36l.73-.26c-.51.16-1.22.4-1.85.58s-1.19.32-1.37.35l.59-.13.58-.14c-.57.16-1.16.3-1.77.43l-.56.11-.41.06c-.05,0,0,0,0,0l0,0,.07-.07.15-.14.37-.37c.44-.45.87-.91,1.27-1.37l.59-.7.29-.35a1.47,1.47,0,0,0,.25-.5,1.57,1.57,0,0,0-.07-1.06,1.24,1.24,0,0,0-.79-.71l.15.08.13.1a1.18,1.18,0,0,0-.53-.17h-1l-.89,0c-.54,0-1.11,0-2.51,0h.1c-.56,0-1.3.06-2.07.05.7,0-1.33-.1-.4-.15a21.6,21.6,0,0,0-3.18.22l-.42-.07a2.32,2.32,0,0,1-.69,0,1.38,1.38,0,0,1-.42-.15,1.61,1.61,0,0,1-.56-.5c.17.2.24.24.25.22a1.06,1.06,0,0,0-.1-.17c0-.08-.07-.16-.06-.16s.08.07.27.24a1.59,1.59,0,0,1-.37-.72,1.67,1.67,0,0,1,0-.37V29.4c0-.56,0-1.06,0-1.5a10.42,10.42,0,0,1,.07-2.25c-.21-1.34-.12,2.53-.17,1.78-.07.63-.16-1.11-.14-2s.27-1.59.27-3.94c0,.23,0,.25,0,.48.05-.88-.07-1.72,0-2.8-.13-.6,0-1.4-.16-1.57l0,2.16a39.19,39.19,0,0,1-.15-4.38c0,.16.08.76.1,1.17,0-.59,0-1.13,0-1.74.16.17,0,2.62.17,3.93.07-.63-.12-2.48.05-1.82-.22-.95,0-2.32-.15-3.91l.09.1c0-.25-.06-.77-.06-1.24l.13.84c-.11-1.29.08-2.48,0-3.72,0,2.59-.11.58-.17,1.67-.13-3.19.23-1.83.15-5.41,0,.48,0,1.82-.08,1.06s0-1.58.08-2c0-2.37-.08.36-.14-.64a4.34,4.34,0,0,0,0-.54,3.12,3.12,0,0,1,0-.39,1.37,1.37,0,0,1,.42-.87l.06.06a1.56,1.56,0,0,1,.57-.3,1.83,1.83,0,0,1,.38-.06,1.63,1.63,0,0,0,.38-.05,5,5,0,0,1,1.47-.05L4,1.54l1.27,0L5,1.59c1.38-.08,1.81-.06,3.16-.05-.31,0,.18-.13,1.37-.13a4.28,4.28,0,0,0,1.24,0,7.26,7.26,0,0,1-1.54,0c-.08,0-.38,0-.45.07.88,0,2.21,0,2.82,0H11l2.45-.11c.39,0,.08,0-.22.06.5,0,.84,0,1.57-.05a3.28,3.28,0,0,1-1.18.13l2.34-.07a7.52,7.52,0,0,1,.9.06c1.3,0,3.18-.11,4.9-.09l.63,0c1.62,0,3,0,5,0l1.09,0c1.5,0-1.47-.06,1-.09,1.77,0,.66,0,1.28.06.88,0,2.41-.08,4,0ZM31.18.15c.36,0,1.07,0,1.33,0A10,10,0,0,1,31.18.15ZM3.05.16A6.79,6.79,0,0,1,4.2.18C3.86.19,3.49.17,3.05.16ZM33.19,31.94h0C32.35,31.89,32.63,31.91,33.19,31.94Zm1.66.06c.17,0,.16,0,.08,0A6.16,6.16,0,0,1,34,32,3.18,3.18,0,0,0,34.85,32ZM1,21.75l0-.32C1,22.16,1,22,1,21.75Z"/><path class="cls-1" d="M6.25.07a.35.35,0,0,1,.15,0C6.54.1,6.54.08,6.25.07Z"/><path class="cls-1" d="M21.78,1.45h0Z"/><path class="cls-1" d="M10,38.61a1.62,1.62,0,0,1-.67-.15s0,0,.08.06l.19.06Z"/><path class="cls-1" d="M42.77,31a2.21,2.21,0,0,1-.26.32,2.24,2.24,0,0,1-.32.27,3.13,3.13,0,0,0,.58-.49S42.61,31.19,42.77,31Z"/><path class="cls-1" d="M43.75,22.19c0-.16,0-.33,0-.48l0,0C43.7,22.42,43.73,22.88,43.75,22.19Z"/><path class="cls-1" d="M43.4,30.37a.74.74,0,0,0,.12-.44c0-.24,0-.62,0-1v.13c-.05-.11-.07,0-.08.3v.47A2.67,2.67,0,0,1,43.4,30.37Z"/><path class="cls-1" d="M43.52,28.77c0-.23,0-.46,0-.69S43.51,28.36,43.52,28.77Z"/><path class="cls-1" d="M37,31.95c.35,0,.22-.11.42-.07C37.77,31.76,35,32,37,31.95Z"/><path class="cls-1" d="M43.74,29.84l-.06.13-.06.12a2.83,2.83,0,0,1,0,.42,2.73,2.73,0,0,0,.08-.33A2.88,2.88,0,0,0,43.74,29.84Z"/><path class="cls-1" d="M39.35,32.4l1.19,0s.13,0,.32,0C40.13,32.4,39.32,32.37,39.35,32.4Z"/><path class="cls-1" d="M40.86,32.4a2.35,2.35,0,0,0,.92-.12,2.69,2.69,0,0,1-.42.09A4.91,4.91,0,0,1,40.86,32.4Z"/><path class="cls-1" d="M43.26,31.37l-.12.14-.12.13a2.71,2.71,0,0,1-.31.28,2.78,2.78,0,0,1-.35.23,2.84,2.84,0,0,0,.49-.34,3.1,3.1,0,0,0,.29-.29Z"/><path class="cls-1" d="M26.56,32.35l-1.3,0c-.13,0,.22.07.71.05C26.27,32.4,26.75,32.39,26.56,32.35Z"/><path class="cls-1" d="M30.49,32.68a2.87,2.87,0,0,1-.57-.09l0,.15Z"/><path class="cls-1" d="M26.7,32.71c-.13,0-1.88.12-.24.11C26.59,32.78,27.89,32.74,26.7,32.71Z"/><path class="cls-1" d="M9.46,37.3l-.12.1a.43.43,0,0,0-.1.12l.21-.06.27-.07-.16,0A.11.11,0,0,1,9.46,37.3Z"/><path class="cls-1" d="M3,33.16h.76a.5.5,0,0,0,.21,0c.07,0,.13-.07.82,0C5.18,33,3.68,33,4,33L3,33C2.8,33,2.77,33.07,3,33.16Z"/><path class="cls-1" d="M4,33l.47,0Z"/><path class="cls-1" d="M41.22,31.67a1.85,1.85,0,0,0,.95-.36,1.87,1.87,0,0,1-.28.17,1.84,1.84,0,0,1-.31.12A2.14,2.14,0,0,1,41.22,31.67Z"/><path class="cls-1" d="M42.73,30.59l.05-.11,0-.11a2.09,2.09,0,0,0,.06-.3,1.88,1.88,0,0,0,0-.3,2,2,0,0,1,0,.44A1.77,1.77,0,0,1,42.73,30.59Z"/><path class="cls-1" d="M28.43,0h-.08c.15,0,.38,0,.85,0Z"/><path class="cls-1" d="M41.09,1l.18-.27-.07.1-.07.09-.05.06-.14.17Z"/><path class="cls-1" d="M29.83,1.48H31.3A9.26,9.26,0,0,0,29.83,1.48Z"/><path class="cls-1" d="M8.2,8.31a.43.43,0,1,0,0,.87H35.4l.54-.82a.43.43,0,0,0-.2-.05Z"/><path class="cls-1" d="M8.26,8.36c-.08,0-.05,0-.07,0C8.34,8.37,8.26,8.36,8.26,8.36Z"/><polygon class="cls-1" points="9.66 8.35 9.64 8.36 9.84 8.35 9.66 8.35"/><path class="cls-1" d="M11,8.38c-.12,0-.47,0-.71,0h0l-.1,0C10.4,8.37,10.77,8.36,11,8.38Z"/><path class="cls-1" d="M11.66,8.49s.15,0-.16,0h.16Z"/><path class="cls-1" d="M11.53,8.48c-.14,0,.09,0,0,0Z"/><path class="cls-1" d="M12.16,8.51H12s.2,0,.14,0C12.31,8.55,12.27,8.53,12.16,8.51Z"/><path class="cls-1" d="M12.34,8.48h-.09A.17.17,0,0,0,12.34,8.48Z"/><path class="cls-1" d="M12,8.49h.2s0,0-.09,0S12.13,8.48,12,8.49Z"/><path class="cls-1" d="M11.93,8.47c-.1,0-.23,0-.05,0C11.53,8.43,11.58,8.46,11.93,8.47Z"/><path class="cls-1" d="M11,8.34h-.25C10.84,8.34,11,8.35,11,8.34Z"/><path class="cls-1" d="M13.29,8.62s-.06,0-.07-.06h-.13C13.15,8.58,13.28,8.6,13.29,8.62Z"/><path class="cls-1" d="M13.22,8.56h.2C13.24,8.53,13.21,8.54,13.22,8.56Z"/><polygon class="cls-1" points="12.37 8.42 12.04 8.45 12.43 8.43 12.37 8.42"/><polygon class="cls-1" points="14.06 8.69 13.94 8.72 14.15 8.68 14.06 8.69"/><path class="cls-1" d="M14.56,8.73c-.08,0,.12.08,0,.09a1.31,1.31,0,0,0,.36,0A1.09,1.09,0,0,1,14.56,8.73Z"/><path class="cls-1" d="M15.13,8.75l-.18,0Z"/><path class="cls-1" d="M13.76,8.58a.31.31,0,0,0,.16.06l-.08-.05Z"/><path class="cls-1" d="M13.84,8.58H14Z"/><path class="cls-1" d="M13.74,8.58h0Z"/><path class="cls-1" d="M12.89,8.48c.12,0,.36,0,.13-.07C12.93,8.43,13.07,8.45,12.89,8.48Z"/><path class="cls-1" d="M13.64,8.51l-.21,0s0,0,0,0Z"/><polygon class="cls-1" points="13.75 8.5 13.64 8.51 13.72 8.52 13.75 8.5"/><path class="cls-1" d="M14.77,8.67a1.36,1.36,0,0,1,.31,0l-.37,0S14.63,8.66,14.77,8.67Z"/><path class="cls-1" d="M14.31,8.62h0Z"/><polygon class="cls-1" points="16.19 8.72 16.17 8.71 16.17 8.72 16.19 8.72"/><path class="cls-1" d="M14.68,8.6a.41.41,0,0,0-.2,0h.22S14.71,8.6,14.68,8.6Z"/><path class="cls-1" d="M15.44,8.74l-.16,0S15.42,8.76,15.44,8.74Z"/><path class="cls-1" d="M14.36,8.63h0S14.38,8.64,14.36,8.63Z"/><path class="cls-1" d="M14.36,8.63l.12,0h-.15Z"/><path class="cls-1" d="M16.53,8.24c0,.07-.26.14-.46.06s-.07.27.11.4c0,0,0-.06.22-.09-.07,0-.47-.1-.29-.16s.23,0,.36.07c-.11-.09.35-.12.29-.26l-.24,0S16.59,8.26,16.53,8.24Z"/><path class="cls-1" d="M15.77,8.68h-.09a1.09,1.09,0,0,1,.3.11c.14,0,.17,0,.18-.07l-.43,0Z"/><path class="cls-1" d="M15.3,8.66c.07-.06.28-.08.15-.16s-.18,0-.33.07c.41,0-.12,0,.18.08h-.22l.21,0h0s0,0,0,0h0l0,0c.12,0,0,0,0,0h.41Z"/><path class="cls-1" d="M13.24,8.32h0S13.29,8.32,13.24,8.32Z"/><path class="cls-1" d="M13.41,8.35a.37.37,0,0,1-.15,0c-.08,0,0,0,0,0s-.2,0,0,0h0a1,1,0,0,1,.35.09A.53.53,0,0,0,13.41,8.35Z"/><path class="cls-1" d="M14.36,8.47l.34,0-.17-.05v0C14.34,8.41,14.39,8.44,14.36,8.47Z"/><polygon class="cls-1" points="16.23 8.76 16.18 8.84 16.38 8.74 16.23 8.76"/><polygon class="cls-1" points="16.67 8.78 16.65 8.85 16.77 8.81 16.67 8.78"/><path class="cls-1" d="M30.61,9.34h0Z"/><path class="cls-1" d="M31.33,9.35h0S31.3,9.35,31.33,9.35Z"/><path class="cls-1" d="M27.57,8.89c.15.08.31.21.29.11l0-.1A.49.49,0,0,1,27.57,8.89Z"/><path class="cls-1" d="M35,8.29l0,0-.1.07Z"/><path class="cls-1" d="M35.2,8l.27,0Z"/><path class="cls-1" d="M26.64,9.44l-.12,0C26.7,9.47,26.62,9.46,26.64,9.44Z"/><path class="cls-1" d="M21.22,8.88a1.24,1.24,0,0,0,.31.07C21.38,8.89,21.26,8.79,21.22,8.88Z"/><path class="cls-1" d="M30.89,9l-.09,0C30.87,9,30.9,9,30.89,9Z"/><path class="cls-1" d="M21.89,9l-.07,0a1.12,1.12,0,0,1-.3,0A.39.39,0,0,0,21.89,9Z"/><path class="cls-1" d="M12.25,9.43h0Z"/><path class="cls-1" d="M8.08,9.1l.15,0A.49.49,0,0,1,8.08,9.1Z"/><path class="cls-1" d="M18.46,8.9c-.09,0,0,0,0,0Z"/><path class="cls-1" d="M18,8.52a.06.06,0,0,0,0,0A.07.07,0,0,1,18,8.52Z"/><path class="cls-1" d="M22.83,8.29h0S22.82,8.27,22.83,8.29Z"/><path class="cls-1" d="M18.31,8.85l.12,0Z"/><path class="cls-1" d="M18.33,8.9h-.08S18.25,8.91,18.33,8.9Z"/><path class="cls-1" d="M18.59,8.9l-.15,0,0,0Z"/><path class="cls-1" d="M20,9.44h0C19.84,9.47,19.89,9.46,20,9.44Z"/><path class="cls-1" d="M30,7.87h0Z"/><path class="cls-1" d="M30.36,7.81a.32.32,0,0,1-.33.07l.11.27Z"/><path class="cls-1" d="M28.87,9.35l.24,0c-.29,0-.49,0-.27.07,0-.1.92,0,1-.11l.16,0h-.1c.3,0,.23-.07.62-.05.14,0,.23,0,.14,0l.3,0c.09,0,.07,0,0,0h.46l.29,0c.12,0-.06,0,0,0l.26,0c.1,0-.11.05-.29,0,.24.11.21,0,.73,0h-.24a4,4,0,0,0,.62.1c-.07,0-.55-.12-.27-.14a1.24,1.24,0,0,0,.33,0s.15,0,.33,0v.06a1,1,0,0,0,.3-.06.43.43,0,0,1,.32.1c.35,0-.25-.09.18-.08a3.69,3.69,0,0,0,.86,0c.21,0,0,0,0,.07l.18-.05s0,0,0,0,.08,0,.09,0,0,0,.2,0c0,0,.07,0,.14,0s.14,0,.21-.12A1.48,1.48,0,0,0,36,8.64c.07-.09,0,0,.07,0a3.09,3.09,0,0,0,.17-.44,1,1,0,0,0-.41,0l-.14-.05-.17,0c.13,0,.07.08,0,.12L35,8.29l.16.08-.36.06s0-.05.05-.1l-.07,0c-.14,0-.07-.1,0-.16l.14.06c.09-.06.23-.13.21-.19l-.17,0s.06,0,0,0H35l-.08,0L34.86,8l0,0-.49-.09a5,5,0,0,1-1.22.35c.14-.1,0-.16,0-.28.15.12.44,0,.73,0-.15,0-.12-.07-.08-.09L33.28,8c0-.09-.11-.07-.25-.12.1.19-.39.12-.6.18,0-.07,0-.13.3-.11-.28-.15-.37.22-.65.09.06,0,.1,0,.12,0-.15.06-.51,0-.42-.05h.06c-.42,0-1.27,0-1.33.16a1,1,0,0,1,.08-.25l-.37.3-.37.31c.07-.16-.19-.54.16-.62a.8.8,0,0,0-.43,0c.07,0,.17.23.08.25a2.15,2.15,0,0,0-.49-.25c.1,0,0,.29-.17.28,0,0,0-.25,0-.28l-.4.25c.1,0,0-.21-.07-.29s-.35,0-.45,0l.17.06c-.45,0-.45.36-.89.35.05-.05.13-.33-.09-.37-.1.13-.46.65-.86.76l-.08-.08-.3.09a5.49,5.49,0,0,1,1-.81c-.17-.06,0-.09-.3-.09-.09-.08.14-.11.21-.11l-.59-.06c0,.16-.45.16-.43.29l.64-.16c0,.16-.37.45-.79.43-.11-.07.08-.29.07-.35a.71.71,0,0,1-.43.06l.18-.09c-.23-.06-.38.22-.66.06-.1,0-.29-.22-.3-.12a1.15,1.15,0,0,1,.08.92,3.44,3.44,0,0,1-.62-.27c-.16-.15.24-.36.1-.48,0,0-.09.1-.13.12s0-.14-.18-.12c0,.17-.45,0-.1.14-.22,0-.23,0-.48,0,.08.11-.23.37-.44.42,0,0,0-.1-.06-.12-.44,0-.68-.09-1.09-.09,0,0-.24-.09-.15-.16a.46.46,0,0,1-.24.09c-.25-.14.28,0,.1-.19,0,.1-.33.13-.51.19.06.15.42,0,.6,0,0,.21-.31.42-.74.51s-.15-.13-.21-.1c-.64,0-.55.34-1.08.19-.21-.13,0-.24-.06-.33.28,0,.43.08.62.08l-.23-.06a.62.62,0,0,1,.38,0c-.18-.11-1.09,0-1.58-.12-.09,0-.24.08-.17.13l.16,0c.14.1-.3.13-.1.18a1.41,1.41,0,0,1-.74.1l-.06-.13s.19.08.28,0c-.12.05-.45-.18-.59,0l.21.09a1.61,1.61,0,0,1-.73.13c.12.12.06,0,.25.14-.16-.18.67,0,.41-.16.19.18.33.08.58.24,0,0-.09-.09.13-.06l0,0h0s0,0,0,0a.27.27,0,0,1-.11-.07c.11-.1.46-.08.58-.14s-.05.05,0,.1L19,8.66c0,.1.35.18,0,.23h.28a1,1,0,0,0,.53,0c.13,0,.33-.11.22,0l.43-.06v0a3.54,3.54,0,0,1,1.37,0,1.49,1.49,0,0,1,.54,0l0,.1c.19,0,.56.1.64,0,.2.26.9.06,1.23.1V9A3.36,3.36,0,0,0,25,8.89l0-.11c.24-.09.62.07,1,.06,0,0-.12,0-.19,0,.45.24,1-.19,1.37,0a.33.33,0,0,1,.25,0h0l.14.05-.12-.05a1.81,1.81,0,0,0,.32,0l.05.11h0c.12,0,.09-.05,0-.14L28,8.69c.09.18.31-.06.44.12.08-.09.59-.08.65-.27,0,0,0,0,0,0a.66.66,0,0,0,.38,0l.06.13.29-.18c.17.08.25.12.07.23.42-.16.34-.06.69-.22l0,.08c.13,0,.33-.12.41-.05.28.15,1.4,0,2.13.13-.14-.21.34.09.37-.08,0,0,.14.07,0,.12.37-.06.56.06.81-.08,0,0-.08.07,0,.1s.12,0,.16,0-.05,0-.11.06c.38,0,.42-.17.45-.3a.6.6,0,0,0,.23,0c.06,0,.08,0,.15-.07s.08.07-.06.1h.24a2.38,2.38,0,0,0,.29,0,.15.15,0,0,0-.07.1c-.11.15-.11.14-.21.3l0,0a.17.17,0,0,1,0,.16s-.13,0-.21,0h0c-.53-.05-.23,0-.76,0l0,.05c0,.11-.47-.06-.78,0l.11,0c-.17,0-.47-.13-.64-.13s.06,0,.11,0c-.44,0-.06.06-.39.08-.06,0,.08-.08-.14-.08a7,7,0,0,1-1,.06c.07,0,.13,0,0,.05a4.64,4.64,0,0,0-.85,0h0c-.18,0-.59,0-.69.06S29,9.15,29,9h-.54a2.07,2.07,0,0,0-.6,0c-.08,0,0,0,0,0a3.52,3.52,0,0,0-1,0l0,0c-.12,0-.75-.1-1.26-.06,0,0,0,0,.06,0a4.71,4.71,0,0,1-.92-.07c-.3,0-.55-.06-.65.06L23.64,9c.49,0-.07.12.13.16-.19,0-.5-.09-.26-.1h0c.09-.14-.61-.06-.59-.17-1,0-1.89-.14-2.79-.17l.1.15h-.31c-.08,0-.11-.12.11-.11-.12-.09-.38.07-.38.1-.44-.06.17-.17,0-.18h-.18l0,0a.67.67,0,0,1-.43.12c-.17,0-.09-.09-.15-.1s0,0-.1,0h-.39l.16.12c-.18.06-.37,0-.19.13-.27-.21-1.47-.07-1.64-.12a2.18,2.18,0,0,1-.79.09c.07,0,.12.14-.14.13.09-.25-.47-.1-.68-.26.19.1-.74.06-.44.2-.22,0,0-.08-.18-.13-.51.1-1.13,0-1.77.07,0,0,.1,0,0,.08l-.17,0-.17,0c-.13,0-.12.11-.34.06,0,0,.08,0,0,0-.62,0-1.26,0-1.89.05s-1.28,0-1.91,0c.17,0,.06,0-.07,0,.08,0,0,0,0,0A.44.44,0,0,1,8,9.08a.41.41,0,0,1-.16-.17.35.35,0,0,1,0-.29A.5.5,0,0,1,8,8.4a.5.5,0,0,0-.11.11c.06-.08,0,0-.06,0s-.06.22-.07.2a.51.51,0,0,0,.27.4.61.61,0,0,0,.3.05h.3c.09,0-.08,0,0,0a3.09,3.09,0,0,1,.46,0H9c.65,0,.93,0,1.66.08l-.05,0,.26,0c.18,0-.44,0-.28-.06s1.11,0,1.25.14-.07-.05.17,0l.06,0,.06,0c.16,0,.24.06.24.08h-.15a5.33,5.33,0,0,0,.65,0l-.23,0a20.62,20.62,0,0,0,2.11,0l0,0c.49-.05.39.06.93,0h0a1.08,1.08,0,0,1,.4,0c-.14,0,.25.1.08.15.53-.07.26-.06.61-.22l.08.07a.63.63,0,0,1,.4-.12c-.22.06.17.12-.07.2.56.17.83-.16,1.09.09.26-.21-.49-.12-.34-.17-.12-.07.21-.16.39-.14s.3.27.76.27h-.09c.17.05.33-.07.54,0,.12-.13.27,0,.3-.16l-.41,0c.23,0,.45-.24.84-.15a.73.73,0,0,1-.22.1c.11,0,.22,0,.33,0,0,.16-.5,0-.75.17.12.07.47-.12.35.05.18-.22.44,0,.75-.15l0,.09a.76.76,0,0,1,.24-.06l-.16.13c.25-.11.48.08.71,0-.5,0-.11-.11-.32-.17.61-.13.35.23,1,.15-.09,0-.35,0-.2-.08a1.41,1.41,0,0,1,.38.08c.45,0-.07-.08.12-.14.15.09.22,0,.42-.09v.08c.52,0,.14-.17.6-.12l-.2.11.24,0-.05.09a1.49,1.49,0,0,1,.61-.05c-.06,0,0-.13.26-.13s-.09.07.24,0a.3.3,0,0,1-.29,0s-.07,0-.09.07a2.21,2.21,0,0,0,.54,0h-.13l.47-.11c.07,0,0,0,0,.06.1,0,.16,0,.3-.05,0,0,0,.09-.23.13l.45-.07s.23,0,.17.06c.25,0,.61-.11.94-.09l.12,0a6.08,6.08,0,0,0,1,0l.21,0c.29,0-.28-.06.2-.09s.13,0,.25.05a2.57,2.57,0,0,1,.77,0Zm3.55,0a.71.71,0,0,1-.26,0C32.24,9.32,32.3,9.34,32.41,9.35Zm2.1-1.22a.31.31,0,0,1,.22,0A.63.63,0,0,1,34.51,8.14Zm-15,.71h0C19.65,8.88,19.59,8.87,19.49,8.84Zm-.32-.05s0,0,0,0,.09,0,.18,0S19.26,8.77,19.17,8.79Zm-.22,0,.06,0C18.88,8.83,18.91,8.8,19,8.77Z"/><path class="cls-1" d="M35.17,8a.05.05,0,0,1,0,0S35.25,8.06,35.17,8Z"/><path class="cls-1" d="M26.66,9.43h0Z"/><path class="cls-1" d="M24.1,7.82a.28.28,0,0,1,.13.06S24.2,7.83,24.1,7.82Z"/><path class="cls-1" d="M17.48,8.9h.2a.41.41,0,0,1-.18,0S17.55,8.9,17.48,8.9Z"/><path class="cls-1" d="M15.71,8.3h-.09v0C15.75,8.35,15.84,8.32,15.71,8.3Z"/><path class="cls-1" d="M17.29,8.57c0-.08-.14-.06-.29,0h0C17,8.64,17.14,8.61,17.29,8.57Z"/><path class="cls-1" d="M17,8.53h-.13S16.89,8.54,17,8.53Z"/><path class="cls-1" d="M18.77,8.84c-.07,0,0,.11-.08.08C18.61,9,19.14,8.79,18.77,8.84Z"/><polygon class="cls-1" points="17.18 8.31 17.23 8.41 17.31 8.33 17.18 8.31"/><path class="cls-1" d="M18.31,8.39l-.23,0s0,0-.06,0C18.16,8.4,18.31,8.42,18.31,8.39Z"/><path class="cls-1" d="M18,8.39a.52.52,0,0,0-.18,0Z"/><polygon class="cls-1" points="17.49 8.28 17.56 8.3 17.72 8.31 17.49 8.28"/><path class="cls-1" d="M20.76,8.42l.25,0s0-.07-.14-.05S20.72,8.38,20.76,8.42Z"/><path class="cls-1" d="M20,8.1c.07,0,.07.05.11.09V8Z"/><path class="cls-1" d="M20.73,8.06s.36-.12,0-.11C20.75,8,20.5,8,20.73,8.06Z"/><polygon class="cls-1" points="24.49 8.24 24.42 8.24 24.43 8.5 24.49 8.24"/><path class="cls-1" d="M27.8,7.68c-.3-.06-.07.15-.34.07-.07.06.22.06.15.11C27.78,7.8,27.88,7.84,27.8,7.68Z"/><path class="cls-1" d="M27.61,7.86l-.09,0Z"/><path class="cls-1" d="M7.85,8.61a.36.36,0,0,1,0-.07l.05-.06-.07.08Z"/><path class="cls-1" d="M8.06,8.37h0l.1,0Z"/><path class="cls-1" d="M32.94,9.48h0a.44.44,0,0,0-.16,0Z"/><polygon class="cls-1" points="30.37 9.38 30.41 9.38 30.33 9.34 30.37 9.38"/><path class="cls-1" d="M28.2,9.46h.28C28.29,9.45,28.18,9.4,28.2,9.46Z"/><path class="cls-1" d="M7.76,14.16a.47.47,0,0,0,.51.43H36l.67-.87H8.27A.47.47,0,0,0,7.76,14.16Z"/><path class="cls-1" d="M7.84,14.11c0,.06,0,0,0,.05S7.83,14.11,7.84,14.11Z"/><polygon class="cls-1" points="8.98 13.77 8.95 13.78 9.16 13.77 8.98 13.77"/><path class="cls-1" d="M10.32,13.8c-.13,0-.49,0-.73,0h0l-.11,0C9.74,13.79,10.12,13.78,10.32,13.8Z"/><path class="cls-1" d="M11,13.91s.15,0-.17,0H11Z"/><path class="cls-1" d="M10.9,13.9c-.14,0,.09,0,0,0Z"/><path class="cls-1" d="M11.55,13.93h-.19s.2,0,.14,0C11.7,14,11.66,14,11.55,13.93Z"/><path class="cls-1" d="M11.73,13.9h-.1A.18.18,0,0,0,11.73,13.9Z"/><path class="cls-1" d="M11.43,13.91h.2s0,0-.09,0S11.51,13.9,11.43,13.91Z"/><path class="cls-1" d="M11.31,13.89c-.1,0-.24,0-.05,0C10.9,13.85,11,13.88,11.31,13.89Z"/><path class="cls-1" d="M10.39,13.76h-.26C10.19,13.76,10.4,13.77,10.39,13.76Z"/><path class="cls-1" d="M12.71,14s-.06,0-.08-.06H12.5C12.57,14,12.7,14,12.71,14Z"/><path class="cls-1" d="M12.64,14h.21C12.66,14,12.62,14,12.64,14Z"/><polygon class="cls-1" points="11.76 13.84 11.42 13.87 11.83 13.85 11.76 13.84"/><polygon class="cls-1" points="13.5 14.11 13.38 14.14 13.59 14.1 13.5 14.11"/><path class="cls-1" d="M14,14.15c-.09,0,.12.08,0,.09a1.38,1.38,0,0,0,.37,0A1.15,1.15,0,0,1,14,14.15Z"/><path class="cls-1" d="M14.6,14.17l-.18,0Z"/><path class="cls-1" d="M13.19,14a.32.32,0,0,0,.16.06L13.27,14Z"/><path class="cls-1" d="M13.27,14h.18Z"/><path class="cls-1" d="M13.17,14h0Z"/><path class="cls-1" d="M12.3,13.9c.12,0,.37,0,.13-.07C12.34,13.85,12.48,13.87,12.3,13.9Z"/><path class="cls-1" d="M13.07,13.93l-.22,0s0,0,0,0Z"/><polygon class="cls-1" points="13.18 13.92 13.07 13.93 13.15 13.94 13.18 13.92"/><path class="cls-1" d="M14.23,14.09a1.44,1.44,0,0,1,.31,0l-.38,0S14.09,14.08,14.23,14.09Z"/><path class="cls-1" d="M13.76,14h0Z"/><polygon class="cls-1" points="15.69 14.14 15.67 14.13 15.66 14.14 15.69 14.14"/><path class="cls-1" d="M14.14,14a.43.43,0,0,0-.2,0h.22S14.17,14,14.14,14Z"/><path class="cls-1" d="M14.92,14.16l-.16,0S14.9,14.18,14.92,14.16Z"/><path class="cls-1" d="M13.81,14.05h0S13.83,14.06,13.81,14.05Z"/><path class="cls-1" d="M13.81,14.05l.12,0h-.16Z"/><path class="cls-1" d="M16,13.66c0,.07-.26.14-.48.06s-.07.27.11.4c0,0,0-.06.22-.09-.08,0-.48-.1-.3-.16s.23,0,.37.07c-.12-.09.36-.12.3-.26l-.25,0S16.11,13.68,16,13.66Z"/><path class="cls-1" d="M15.26,14.1h-.09a1.14,1.14,0,0,1,.31.11c.15,0,.18,0,.19-.07l-.44,0Z"/><path class="cls-1" d="M14.77,14.08c.07-.06.28-.08.15-.16s-.18,0-.34.07c.42,0-.12,0,.18.08h-.23l.22,0h0s0,0,0,0h0l0,0c.12,0,0,0,0,0h.42Z"/><path class="cls-1" d="M12.66,13.74h0S12.71,13.74,12.66,13.74Z"/><path class="cls-1" d="M12.83,13.77a.39.39,0,0,1-.16,0c-.09,0,0,0,0,0s-.21,0,0,0h0a1.05,1.05,0,0,1,.36.09A.54.54,0,0,0,12.83,13.77Z"/><path class="cls-1" d="M13.81,13.89l.35,0L14,13.81v0C13.79,13.83,13.84,13.86,13.81,13.89Z"/><polygon class="cls-1" points="15.73 14.18 15.68 14.26 15.88 14.16 15.73 14.18"/><polygon class="cls-1" points="16.18 14.2 16.17 14.27 16.29 14.23 16.18 14.2"/><path class="cls-1" d="M31.9,14.76h0Z"/><path class="cls-1" d="M32.65,14.77h0S32.62,14.77,32.65,14.77Z"/><path class="cls-1" d="M27.39,14.31c.15.08.32.21.3.11l0-.1A.52.52,0,0,1,27.39,14.31Z"/><path class="cls-1" d="M35.06,13.71l0,0-.1.07Z"/><path class="cls-1" d="M35.16,13.43l.2,0Z"/><path class="cls-1" d="M27.83,14.86l-.12,0C27.89,14.89,27.81,14.88,27.83,14.86Z"/><path class="cls-1" d="M20.86,14.3a1.31,1.31,0,0,0,.32.07C21,14.31,20.9,14.21,20.86,14.3Z"/><path class="cls-1" d="M32.2,14.43l-.09,0C32.17,14.45,32.21,14.44,32.2,14.43Z"/><path class="cls-1" d="M21.55,14.37l-.07,0a1.18,1.18,0,0,1-.31,0A.42.42,0,0,0,21.55,14.37Z"/><path class="cls-1" d="M13,14.85h0Z"/><path class="cls-1" d="M8.73,14.54h0Z"/><path class="cls-1" d="M18,14.32c-.1,0,0,0,0,0Z"/><path class="cls-1" d="M17.55,13.94a.06.06,0,0,0,0,0A.07.07,0,0,1,17.55,13.94Z"/><path class="cls-1" d="M22.52,13.71h0S22.5,13.69,22.52,13.71Z"/><path class="cls-1" d="M17.87,14.27l.12,0Z"/><path class="cls-1" d="M17.89,14.32h-.08S17.81,14.33,17.89,14.32Z"/><path class="cls-1" d="M18.15,14.32l-.16,0,0,0Z"/><path class="cls-1" d="M21,14.86h0C20.84,14.89,20.89,14.89,21,14.86Z"/><path class="cls-1" d="M29.9,13.29h0Z"/><path class="cls-1" d="M30.25,13.23a.34.34,0,0,1-.34.07l.11.27Z"/><path class="cls-1" d="M30.12,14.77l.24,0c-.29,0-.51,0-.28.07,0-.1.95,0,1-.11l.16,0h-.1c.31,0,.23-.07.64-.05.14,0,.24,0,.14,0l.31,0c.09,0,.07,0,0,0h.47l.3,0c.12,0-.06,0,0,0l.26,0c.11,0-.11.05-.29,0,.25.11.22,0,.75,0h-.25a4.18,4.18,0,0,0,.64.1c-.07,0-.56-.12-.28-.14a1.31,1.31,0,0,0,.34,0s.15,0,.34,0v.06a1.05,1.05,0,0,0,.31-.06.45.45,0,0,1,.33.1c.36,0-.25-.09.18-.08a2.87,2.87,0,0,0,.42,0c.21,0,.48,0,.58-.22s0,.07.09,0l.06-.13.05-.12c0-.05.05,0,.06,0,.11-.18-.08,0,.09-.29,0,0,.1-.15.29-.33l.15-.15.07-.08s0,0,0,0h0a1.8,1.8,0,0,0-.41,0c-.08,0,.13-.05.15-.09l-.67.06-.5.08-.3-.07c.22.08-.06.16-.3.23l.19.08-.39.06s0-.05.06-.1l-.07,0c-.14,0-.07-.1,0-.16l.14.06c.1-.06.19-.13.17-.19l-.13,0s0,0,0,0-.05,0-.12,0l-.09-.12,0,0-.51-.09a5.2,5.2,0,0,1-1.26.35c.14-.1,0-.16,0-.28.16.12.45,0,.75,0-.16,0-.12-.07-.08-.09l-.53.09c0-.09-.11-.07-.25-.12.11.19-.4.12-.62.18,0-.07,0-.13.3-.11-.29-.15-.38.22-.66.09.06,0,.1,0,.13,0-.15.06-.52,0-.43-.05h.06c-.43,0-1.31,0-1.37.16a1,1,0,0,1,.08-.25l-.38.3-.38.31c.07-.16-.19-.54.16-.62a.84.84,0,0,0-.44,0c.07,0,.17.23.08.25a2.23,2.23,0,0,0-.5-.25c.1,0,0,.29-.18.28,0,0,0-.25,0-.28l-.41.25c.1,0,0-.21-.07-.29s-.36,0-.47,0l.17.06c-.46,0-.46.36-.92.35.06-.05.14-.33-.1-.37a2.14,2.14,0,0,1-.88.76L26.14,14l-.31.09a5.62,5.62,0,0,1,1-.81c-.17-.06,0-.09-.31-.09-.09-.08.14-.11.22-.11L26.17,13c0,.16-.46.16-.44.29l.66-.16c0,.16-.38.45-.81.43-.11-.07.08-.29.07-.35a.75.75,0,0,1-.45.06l.18-.09c-.24-.06-.39.22-.68.06-.1,0-.3-.22-.31-.12a1.12,1.12,0,0,1,.09.92,3.58,3.58,0,0,1-.63-.27c-.16-.15.25-.36.11-.48,0,0-.1.1-.13.12s0-.14-.18-.12c0,.17-.46,0-.11.14-.22,0-.24,0-.5,0,.08.11-.23.37-.46.42,0,0,0-.1-.06-.12-.45,0-.7-.09-1.12-.09,0,0-.24-.09-.16-.16a.48.48,0,0,1-.25.09c-.25-.14.29,0,.1-.19,0,.1-.34.13-.52.19.06.15.43,0,.62,0,0,.21-.32.42-.77.51s-.15-.13-.21-.1c-.66,0-.56.34-1.11.19-.22-.13,0-.24-.06-.33.29,0,.44.08.63.08l-.24-.06a.65.65,0,0,1,.39,0c-.18-.11-1.12,0-1.62-.12-.09,0-.25.08-.17.13l.16,0c.15.1-.3.13-.1.18a1.49,1.49,0,0,1-.76.1l-.06-.13s.2.08.28,0c-.13.05-.47-.18-.61,0l.21.09a1.69,1.69,0,0,1-.76.13c.12.12.06,0,.25.14-.17-.18.69,0,.42-.16.2.18.34.08.6.24,0,0-.09-.09.14-.06l0,0h0s0,0,0,0a.28.28,0,0,1-.12-.07c.11-.1.47-.08.59-.14s-.06.05,0,.1l.18-.08c0,.1.36.18,0,.23h.28a1,1,0,0,0,.54,0c.13,0,.34-.11.22,0l.45-.06v0a3.74,3.74,0,0,1,1.41,0,1.57,1.57,0,0,1,.55,0l0,.1c.19,0,.57.1.65,0,.21.26.92.06,1.26.1v-.13a3.55,3.55,0,0,0,.74-.08l0-.11c.25-.09.63.07,1,.06,0,0-.13,0-.2,0,.47.24,1-.19,1.41,0a.35.35,0,0,1,.26,0h0l.15.05-.12-.05a1.91,1.91,0,0,0,.33,0l.05.11h0c.12,0,.1-.05,0-.14l.16-.07c.1.18.32-.06.45.12.08-.09.61-.08.67-.27,0,0,0,0,0,0a.7.7,0,0,0,.39,0l.06.13.29-.18c.18.08.25.12.08.23.43-.16.35-.06.71-.22l0,.08c.13,0,.34-.12.42-.05.29.15,1.44,0,2.19.13-.15-.21.35.09.38-.08,0,0,.15.07,0,.12.38-.06.57.06.84-.08,0,0-.08.07,0,.1s.12,0,.16,0-.06,0-.12.06c.39,0,.43-.17.46-.3a.47.47,0,0,0,.44,0c.07,0,.18.08-.06.1h.47a.38.38,0,0,0,.25-.07s.11,0,.15,0h.27v0l-.06.08.05,0c.07,0,0,0,0,.07a1.29,1.29,0,0,0-.14.16h0c-.15.14-.15.15-.17.19l0,.06s0,0-.05,0l-.12,0,0,.05c0,.11-.46-.06-.77,0l.11,0c-.17,0-.49-.13-.66-.13s.06,0,.11,0c-.46,0-.06.06-.4.08-.06,0,.08-.08-.15-.08a7.43,7.43,0,0,1-1,.06c.07,0,.14,0,0,.05a4.9,4.9,0,0,0-.87,0h0c-.19,0-.6,0-.71.06s-1.15.06-1.15-.05h-.55a2.19,2.19,0,0,0-.62,0c-.08,0,0,0,0,0a3.72,3.72,0,0,0-1,0l0,0c-.12,0-.77-.1-1.29-.06,0,0,0,0,.06,0a5,5,0,0,1-.95-.07c-.3,0-.56-.06-.67.06l-.39.05c.5,0-.07.12.13.16-.2,0-.51-.09-.27-.1h0c.09-.14-.62-.06-.61-.17-1,0-1.95-.14-2.87-.17l.11.15h-.32c-.08,0-.11-.12.12-.11-.12-.09-.39.07-.39.1-.45-.06.18-.17,0-.18h-.19l0,0a.71.71,0,0,1-.44.12c-.17,0-.09-.09-.16-.1s0,0-.11,0h-.41l.16.12c-.18.06-.38,0-.19.13-.27-.21-1.51-.07-1.68-.12a2.3,2.3,0,0,1-.81.09c.08,0,.12.14-.14.13.1-.25-.49-.1-.7-.26.19.1-.76.06-.45.2-.22,0,0-.08-.18-.13-.53.1-1.16,0-1.82.07,0,0,.1,0,0,.08l-.17,0-.17,0c-.13,0-.12.11-.35.06,0,0,.08,0,0,0-.64,0-1.29,0-1.95.05s-1.31,0-2,0c.18,0,.06,0-.08,0,.09,0,0,0,0,0H8.38a.61.61,0,0,1-.31,0,.58.58,0,0,1-.21-.16.49.49,0,0,0,.1.1c-.08-.06,0,0,0,.06s.21.09.19.1c.27,0,.68,0,1.1,0,.09,0-.08,0,0,0a3.27,3.27,0,0,1,.47,0h0c.67,0,1,0,1.71.08l-.06,0,.27,0c.19,0-.45,0-.29-.06s1.14,0,1.29.14-.07-.05.18,0l.07,0,.06,0c.16,0,.25.06.25.08H13a5.63,5.63,0,0,0,.67,0l-.24,0c.68,0,1.51.11,2.16,0l0,0a8.44,8.44,0,0,1,1,0h0a1.14,1.14,0,0,1,.41,0c-.14,0,.26.1.08.15.54-.07.27-.06.63-.22l.08.07a.66.66,0,0,1,.41-.12c-.23.06.18.12-.08.2.58.17.86-.16,1.12.09.26-.21-.5-.12-.35-.17-.12-.07.22-.16.4-.14s.31.27.78.27h-.1c.17.05.34-.07.55,0,.12-.13.28,0,.31-.16l-.42,0c.24,0,.47-.24.86-.15a.76.76,0,0,1-.23.1c.12,0,.22,0,.34,0,0,.16-.52,0-.77.17.12.07.49-.12.36.05.19-.22.46,0,.77-.15l0,.09a.8.8,0,0,1,.24-.06l-.17.13c.25-.11.49.08.73,0-.51,0-.11-.11-.33-.17.63-.13.36.23,1.07.15-.1,0-.36,0-.21-.08a1.48,1.48,0,0,1,.39.08c.47,0-.07-.08.13-.14.16.09.23,0,.43-.09v.08c.53,0,.14-.17.62-.12l-.2.11.25,0-.05.09a1.57,1.57,0,0,1,.62-.05c-.06,0,0-.13.27-.13s-.09.07.24,0a.31.31,0,0,1-.3,0s-.07,0-.09.07a2.33,2.33,0,0,0,.56,0h-.13l.48-.11c.08,0,0,0,0,.06.1,0,.17,0,.31-.05,0,0,0,.09-.23.13l.46-.07s.24,0,.18.06c.26,0,.63-.11,1-.09l.12,0a6.42,6.42,0,0,0,1,0l.21,0c.3,0-.29-.06.2-.09s.13,0,.25.05a2.71,2.71,0,0,1,.79,0Zm3.65,0a.75.75,0,0,1-.26,0C33.58,14.74,33.64,14.76,33.76,14.77Zm.76-1.22a.33.33,0,0,1,.23,0A.66.66,0,0,1,34.52,13.56Zm-15.44.71h0C19.24,14.3,19.19,14.29,19.08,14.26Zm-.33-.05s0,0,0,0,.1,0,.18,0S18.85,14.19,18.75,14.21Zm1.18,0,.06,0C19.85,14.25,19.89,14.22,19.93,14.19Z"/><path class="cls-1" d="M35.15,13.46a.07.07,0,0,1,0,0S35.21,13.48,35.15,13.46Z"/><path class="cls-1" d="M27.85,14.85h0Z"/><path class="cls-1" d="M23.82,13.24a.29.29,0,0,1,.13.06S23.93,13.25,23.82,13.24Z"/><path class="cls-1" d="M17,14.32h.21a.43.43,0,0,1-.19,0S17.08,14.32,17,14.32Z"/><path class="cls-1" d="M15.2,13.72h-.1v0C15.24,13.77,15.33,13.74,15.2,13.72Z"/><path class="cls-1" d="M16.82,14c0-.08-.15-.06-.29,0h0C16.51,14.06,16.67,14,16.82,14Z"/><path class="cls-1" d="M16.49,14h-.14S16.41,14,16.49,14Z"/><path class="cls-1" d="M18.34,14.26c-.07,0,0,.11-.08.08C18.18,14.45,18.72,14.21,18.34,14.26Z"/><polygon class="cls-1" points="16.7 13.73 16.76 13.83 16.84 13.75 16.7 13.73"/><path class="cls-1" d="M17.86,13.81l-.23,0s0,0-.06,0C17.71,13.82,17.87,13.84,17.86,13.81Z"/><path class="cls-1" d="M17.57,13.81a.55.55,0,0,0-.19,0Z"/><polygon class="cls-1" points="17.03 13.7 17.09 13.72 17.26 13.73 17.03 13.7"/><path class="cls-1" d="M20.39,13.84l.26,0s0-.07-.14-.05S20.35,13.8,20.39,13.84Z"/><path class="cls-1" d="M19.61,13.52c.07,0,.07.05.11.09v-.15Z"/><path class="cls-1" d="M20.36,13.48s.37-.12,0-.11C20.38,13.41,20.12,13.44,20.36,13.48Z"/><polygon class="cls-1" points="24.22 13.66 24.15 13.66 24.16 13.92 24.22 13.66"/><path class="cls-1" d="M27.62,13.1c-.3-.06-.07.15-.35.07-.07.06.22.06.15.11C27.61,13.22,27.7,13.26,27.62,13.1Z"/><path class="cls-1" d="M27.42,13.28l-.09,0Z"/><path class="cls-1" d="M8.06,14.49a.5.5,0,0,1-.12-.1l.07.07Z"/><path class="cls-1" d="M7.83,14.28v0a.42.42,0,0,1,0-.09A.58.58,0,0,0,7.83,14.28Z"/><path class="cls-1" d="M34.3,14.9h0a.47.47,0,0,0-.17,0Z"/><polygon class="cls-1" points="31.66 14.8 31.7 14.8 31.62 14.76 31.66 14.8"/><path class="cls-1" d="M29.44,14.88h.29C29.53,14.87,29.41,14.82,29.44,14.88Z"/><path class="cls-1" d="M7.76,19.58a.51.51,0,0,0,.56.43H35.48l.36-.87H8.32A.51.51,0,0,0,7.76,19.58Z"/><path class="cls-1" d="M7.84,19.54c0,.06,0,0,0,0S7.84,19.54,7.84,19.54Z"/><polygon class="cls-1" points="8.92 19.19 8.89 19.2 9.1 19.19 8.92 19.19"/><path class="cls-1" d="M10.23,19.22c-.12,0-.48,0-.71,0h0l-.11,0C9.66,19.21,10,19.2,10.23,19.22Z"/><path class="cls-1" d="M10.93,19.33s.15,0-.16,0h.16Z"/><path class="cls-1" d="M10.8,19.32c-.14,0,.09,0,0,0Z"/><path class="cls-1" d="M11.44,19.35h-.18s.2,0,.14,0C11.58,19.39,11.54,19.37,11.44,19.35Z"/><path class="cls-1" d="M11.61,19.32h-.09A.17.17,0,0,0,11.61,19.32Z"/><path class="cls-1" d="M11.31,19.33h.2s0,0-.09,0S11.4,19.32,11.31,19.33Z"/><path class="cls-1" d="M11.2,19.31c-.1,0-.23,0-.05,0C10.8,19.27,10.85,19.3,11.2,19.31Z"/><path class="cls-1" d="M10.3,19.18H10C10.1,19.18,10.31,19.19,10.3,19.18Z"/><path class="cls-1" d="M12.57,19.46s-.06,0-.07-.06h-.13C12.43,19.42,12.56,19.44,12.57,19.46Z"/><path class="cls-1" d="M12.5,19.4h.2C12.52,19.37,12.48,19.38,12.5,19.4Z"/><polygon class="cls-1" points="11.64 19.26 11.31 19.29 11.71 19.27 11.64 19.26"/><polygon class="cls-1" points="13.34 19.53 13.22 19.56 13.43 19.52 13.34 19.53"/><path class="cls-1" d="M13.85,19.57c-.08,0,.12.08,0,.09a1.33,1.33,0,0,0,.36,0A1.11,1.11,0,0,1,13.85,19.57Z"/><path class="cls-1" d="M14.42,19.59l-.18,0Z"/><path class="cls-1" d="M13,19.42a.31.31,0,0,0,.16.06l-.08-.05Z"/><path class="cls-1" d="M13.12,19.42h.17Z"/><path class="cls-1" d="M13,19.42h0Z"/><path class="cls-1" d="M12.17,19.32c.12,0,.36,0,.13-.07C12.21,19.27,12.35,19.29,12.17,19.32Z"/><path class="cls-1" d="M12.92,19.35l-.21,0s0,0,0,0Z"/><polygon class="cls-1" points="13.03 19.34 12.92 19.35 13 19.36 13.03 19.34"/><path class="cls-1" d="M14.05,19.51a1.37,1.37,0,0,1,.31,0l-.37,0S13.92,19.5,14.05,19.51Z"/><path class="cls-1" d="M13.6,19.46h0Z"/><polygon class="cls-1" points="15.48 19.56 15.46 19.55 15.46 19.56 15.48 19.56"/><path class="cls-1" d="M14,19.44a.41.41,0,0,0-.2,0H14S14,19.44,14,19.44Z"/><path class="cls-1" d="M14.73,19.58l-.16,0S14.71,19.6,14.73,19.58Z"/><path class="cls-1" d="M13.65,19.48h0S13.66,19.48,13.65,19.48Z"/><path class="cls-1" d="M13.65,19.48l.12,0h-.15Z"/><path class="cls-1" d="M15.82,19.08c0,.07-.26.14-.47.06s-.07.27.11.4c0,0,0-.06.22-.09-.07,0-.47-.1-.29-.16s.23,0,.37.07c-.12-.09.36-.12.3-.26l-.25,0S15.89,19.1,15.82,19.08Z"/><path class="cls-1" d="M15.06,19.52H15a1.1,1.1,0,0,1,.3.11c.14,0,.17,0,.18-.07l-.43,0Z"/><path class="cls-1" d="M14.58,19.5c.07-.06.28-.08.15-.16s-.18,0-.33.07c.41,0-.12,0,.18.08h-.22l.21,0h0s0,0,0,0h0l0,0c.12,0,0,0,0,0H15Z"/><path class="cls-1" d="M12.51,19.16h0S12.56,19.16,12.51,19.16Z"/><path class="cls-1" d="M12.68,19.19a.38.38,0,0,1-.15,0c-.08,0,0,0,0,0s-.21,0,0,0h0a1,1,0,0,1,.35.09A.53.53,0,0,0,12.68,19.19Z"/><path class="cls-1" d="M13.65,19.31l.34,0-.17-.05v0C13.63,19.25,13.67,19.29,13.65,19.31Z"/><polygon class="cls-1" points="15.52 19.6 15.48 19.68 15.67 19.58 15.52 19.6"/><polygon class="cls-1" points="15.97 19.62 15.95 19.69 16.07 19.65 15.97 19.62"/><path class="cls-1" d="M31.35,20.18h0Z"/><path class="cls-1" d="M32.08,20.19h0S32,20.19,32.08,20.19Z"/><path class="cls-1" d="M26.93,19.73c.15.08.31.21.29.11l0-.1A.49.49,0,0,1,26.93,19.73Z"/><path class="cls-1" d="M34.43,19.13l0,0-.1.07Z"/><path class="cls-1" d="M34.54,18.85l.19,0Z"/><path class="cls-1" d="M27.36,20.28l-.12,0C27.42,20.31,27.34,20.3,27.36,20.28Z"/><path class="cls-1" d="M20.54,19.72a1.26,1.26,0,0,0,.32.07C20.7,19.73,20.58,19.64,20.54,19.72Z"/><path class="cls-1" d="M31.63,19.85l-.09,0C31.61,19.87,31.65,19.86,31.63,19.85Z"/><path class="cls-1" d="M21.22,19.79l-.07,0a1.13,1.13,0,0,1-.3,0A.4.4,0,0,0,21.22,19.79Z"/><path class="cls-1" d="M12.89,20.27h0Z"/><path class="cls-1" d="M8.67,20h0Z"/><path class="cls-1" d="M17.76,19.74c-.09,0,0,0,0,0Z"/><path class="cls-1" d="M17.3,19.36a.06.06,0,0,0,0,0A.07.07,0,0,1,17.3,19.36Z"/><path class="cls-1" d="M22.16,19.13h0S22.15,19.12,22.16,19.13Z"/><path class="cls-1" d="M17.62,19.69l.12,0Z"/><path class="cls-1" d="M17.64,19.74h-.08S17.56,19.75,17.64,19.74Z"/><path class="cls-1" d="M17.89,19.74l-.15,0,0,0Z"/><path class="cls-1" d="M20.64,20.28h0C20.53,20.31,20.57,20.31,20.64,20.28Z"/><path class="cls-1" d="M29.39,18.71h0Z"/><path class="cls-1" d="M29.73,18.65a.33.33,0,0,1-.34.07l.11.27Z"/><path class="cls-1" d="M29.6,20.19l.24,0c-.29,0-.5,0-.27.07,0-.1.93,0,1-.11l.16,0h-.1c.31,0,.23-.07.62-.05.14,0,.23,0,.14,0l.31,0c.09,0,.07,0,0,0h.46l.29,0c.12,0-.06,0,0,0l.26,0c.11,0-.11.05-.29,0,.24.11.21,0,.74,0h-.24a4,4,0,0,0,.62.1c-.07,0-.55-.12-.27-.14a1.26,1.26,0,0,0,.33,0s.15,0,.33,0v.06a1,1,0,0,0,.3-.06.43.43,0,0,1,.32.1c.36,0-.25-.09.18-.08a2.75,2.75,0,0,0,.41,0h.33a2.75,2.75,0,0,0,.32-.05c.14-.19,0,.07.08,0s0-.23,0-.25,0,0,0,0c.06-.21-.1,0,0-.3,0,0,.06-.17.18-.35a2.78,2.78,0,0,0,.17-.29l0-.07s0-.05,0,0l-.21,0c-.08,0,.13-.05.14-.09l-.65.06L35,19l-.29-.07c.21.08-.06.16-.3.23l.18.08-.38.06s0-.05.05-.1l-.07,0c-.14,0-.07-.1,0-.16l.14.06c.09-.06.18-.13.16-.19l-.12,0s0,0,0,0-.05,0-.11,0l-.09-.12,0,0-.5-.09a5,5,0,0,1-1.23.35c.14-.1,0-.16,0-.28.15.12.44,0,.73,0-.15,0-.12-.07-.08-.09l-.52.09c0-.09-.11-.07-.25-.12.1.19-.39.12-.6.18,0-.07,0-.13.3-.11-.29-.15-.37.22-.65.09.06,0,.1,0,.12,0-.15.06-.51,0-.42-.05h.06c-.42,0-1.28,0-1.34.16a1,1,0,0,1,.08-.25l-.37.3-.37.31c.07-.16-.19-.54.16-.62a.81.81,0,0,0-.43,0c.07,0,.17.23.08.25a2.17,2.17,0,0,0-.49-.25c.1,0,0,.29-.17.28,0,0,0-.25,0-.28L28,19c.1,0,0-.21-.07-.29s-.35,0-.46,0l.17.06c-.45,0-.45.36-.9.35.05-.05.13-.33-.09-.37-.11.13-.47.65-.86.76l-.08-.08-.31.09a5.52,5.52,0,0,1,1-.81c-.17-.06,0-.09-.3-.09-.09-.08.14-.11.21-.11l-.59-.06c0,.16-.45.16-.43.29l.64-.16c0,.16-.37.45-.79.43-.11-.07.08-.29.07-.35a.72.72,0,0,1-.44.06l.18-.09c-.23-.06-.38.22-.66.06-.1,0-.29-.22-.31-.12a1.15,1.15,0,0,1,.08.92,3.47,3.47,0,0,1-.62-.27c-.16-.15.24-.36.1-.48,0,0-.09.1-.13.12s0-.14-.18-.12c0,.17-.45,0-.1.14-.22,0-.23,0-.48,0,.08.11-.23.37-.45.42,0,0,0-.1-.06-.12-.44,0-.68-.09-1.1-.09,0,0-.24-.09-.15-.16a.47.47,0,0,1-.24.09c-.25-.14.28,0,.1-.19,0,.1-.33.13-.51.19.06.15.42,0,.6,0,0,.21-.32.42-.75.51s-.15-.13-.21-.1c-.65,0-.55.34-1.09.19-.21-.13,0-.24-.06-.33.28,0,.43.08.62.08l-.23-.06a.63.63,0,0,1,.38,0c-.18-.11-1.09,0-1.59-.12-.09,0-.24.08-.17.13l.16,0c.14.1-.3.13-.1.18a1.42,1.42,0,0,1-.75.1L17,19.32s.19.08.28,0c-.12.05-.46-.18-.59,0l.21.09a1.63,1.63,0,0,1-.74.13c.12.12.06,0,.25.14-.16-.18.68,0,.41-.16.19.18.33.08.58.24,0,0-.09-.09.13-.06l0,0h0s0,0,0,0a.27.27,0,0,1-.11-.07c.11-.1.46-.08.58-.14s-.05.05,0,.1l.18-.08c0,.1.35.18,0,.23h.28a1,1,0,0,0,.53,0c.13,0,.33-.11.22,0l.44-.06v0a3.58,3.58,0,0,1,1.38,0,1.5,1.5,0,0,1,.54,0l0,.1c.19,0,.56.1.64,0,.2.26.9.06,1.23.1v-.13a3.4,3.4,0,0,0,.72-.08l0-.11c.24-.09.62.07,1,.06,0,0-.12,0-.19,0,.46.24,1-.19,1.38,0a.33.33,0,0,1,.25,0h0l.14.05-.12-.05a1.83,1.83,0,0,0,.32,0l.05.11h0c.12,0,.09-.05,0-.14l.16-.07c.09.18.31-.06.44.12.08-.09.59-.08.66-.27,0,0,0,0,0,0a.67.67,0,0,0,.38,0l.06.13.29-.18c.17.08.25.12.07.23.42-.16.34-.06.7-.22l0,.08c.13,0,.33-.12.41-.05.29.15,1.41,0,2.14.13-.14-.21.34.09.37-.08,0,0,.14.07,0,.12.37-.06.56.06.82-.08,0,0-.08.07,0,.1s.12,0,.16,0-.05,0-.11.06c.38,0,.42-.17.45-.3a.45.45,0,0,0,.43,0c.07,0,.18.08-.06.1H35a.37.37,0,0,0,.25-.07s.11,0,.15,0h.12s.07,0,0,0l0,.14,0,0c.06,0,.05,0,0,.08a.82.82,0,0,0-.09.15h0s-.05.09-.06.09l0,0a.2.2,0,0,0,0,.06s0,0-.06,0l-.19,0,0,.05c0,.11-.45-.06-.76,0l.11,0c-.17,0-.47-.13-.65-.13s.06,0,.11,0c-.45,0-.06.06-.39.08-.06,0,.08-.08-.14-.08a7.12,7.12,0,0,1-1,.06c.07,0,.13,0,0,.05a4.69,4.69,0,0,0-.85,0h0c-.18,0-.59,0-.7.06s-1.13.06-1.12-.05h-.54a2.1,2.1,0,0,0-.61,0c-.08,0,0,0,0,0a3.56,3.56,0,0,0-1,0l0,0c-.12,0-.75-.1-1.26-.06,0,0,0,0,.06,0a4.76,4.76,0,0,1-.93-.07c-.3,0-.55-.06-.66.06l-.38.05c.49,0-.07.12.13.16-.19,0-.5-.09-.26-.1h0c.09-.14-.61-.06-.6-.17-1,0-1.9-.14-2.81-.17l.1.15h-.32c-.08,0-.11-.12.11-.11-.12-.09-.38.07-.38.1-.44-.06.17-.17,0-.18h-.18l0,0a.68.68,0,0,1-.43.12c-.17,0-.09-.09-.16-.1s0,0-.1,0h-.4l.16.12c-.18.06-.37,0-.19.13-.27-.21-1.48-.07-1.65-.12a2.2,2.2,0,0,1-.79.09c.07,0,.12.14-.14.13.1-.25-.48-.1-.69-.26.19.1-.74.06-.44.2-.22,0,0-.08-.18-.13-.52.1-1.14,0-1.78.07,0,0,.1,0,0,.08l-.17,0-.17,0c-.13,0-.12.11-.35.06,0,0,.08,0,0,0-.63,0-1.26,0-1.91.05s-1.28,0-1.92,0c.17,0,.06,0-.07,0,.09,0,0,0,0,0H8.33A.51.51,0,0,1,8,19.91a.65.65,0,0,1-.19-.15.48.48,0,0,0,.09.1c-.07-.06,0,0,0,.06s.19.1.17.11c.13,0,.3,0,.48,0a5,5,0,0,0,.6,0c.09,0-.08,0,0,0a3.13,3.13,0,0,1,.46,0h0c.66,0,.94,0,1.67.08l-.05,0,.27,0c.18,0-.44,0-.28-.06s1.12,0,1.26.14-.07-.05.17,0l.06,0,.06,0c.16,0,.24.06.25.08h-.15a5.39,5.39,0,0,0,.65,0l-.23,0a20.85,20.85,0,0,0,2.12,0l0,0a8.08,8.08,0,0,1,.93,0h0a1.09,1.09,0,0,1,.4,0c-.14,0,.26.1.08.15.53-.07.26-.06.61-.22l.08.07a.64.64,0,0,1,.4-.12c-.22.06.17.12-.08.2.56.17.84-.16,1.1.09.26-.21-.49-.12-.34-.17-.12-.07.21-.16.39-.14s.31.27.76.27h-.09c.17.05.33-.07.54,0,.12-.13.27,0,.3-.16l-.42,0c.24,0,.46-.24.84-.15a.74.74,0,0,1-.23.1c.11,0,.22,0,.34,0,0,.16-.51,0-.76.17.12.07.48-.12.35.05.18-.22.45,0,.75-.15l0,.09a.77.77,0,0,1,.24-.06l-.16.13c.25-.11.48.08.72,0-.5,0-.11-.11-.32-.17.62-.13.35.23,1,.15-.09,0-.35,0-.2-.08a1.42,1.42,0,0,1,.38.08c.46,0-.07-.08.12-.14.16.09.22,0,.42-.09v.08c.52,0,.14-.17.61-.12l-.2.11.24,0-.05.09a1.5,1.5,0,0,1,.61-.05c-.06,0,0-.13.26-.13s-.09.07.24,0a.3.3,0,0,1-.3,0s-.07,0-.09.07a2.23,2.23,0,0,0,.54,0h-.13l.47-.11c.07,0,0,0,0,.06.1,0,.16,0,.3-.05,0,0,0,.09-.23.13l.45-.07s.23,0,.17.06c.25,0,.61-.11.95-.09l.12,0a6.15,6.15,0,0,0,1,0l.21,0c.29,0-.28-.06.2-.09s.13,0,.25.05a2.6,2.6,0,0,1,.78,0Zm3.57,0a.72.72,0,0,1-.26,0C33,20.16,33,20.18,33.17,20.19ZM33.91,19a.31.31,0,0,1,.22,0A.63.63,0,0,1,33.91,19Zm-15.11.71h0C19,19.72,18.91,19.71,18.8,19.68Zm-.32-.05s0,0,0,0,.09,0,.18,0S18.58,19.61,18.48,19.63Zm1.15,0,.06,0C19.55,19.67,19.59,19.64,19.63,19.61Z"/><path class="cls-1" d="M34.52,18.88a.07.07,0,0,1,0,0S34.58,18.9,34.52,18.88Z"/><path class="cls-1" d="M27.38,20.27h0Z"/><path class="cls-1" d="M23.44,18.66a.28.28,0,0,1,.13.06S23.54,18.67,23.44,18.66Z"/><path class="cls-1" d="M16.78,19.74H17a.41.41,0,0,1-.18,0S16.85,19.74,16.78,19.74Z"/><path class="cls-1" d="M15,19.14h-.09v0C15,19.19,15.14,19.16,15,19.14Z"/><path class="cls-1" d="M16.59,19.41c0-.08-.14-.06-.29,0h0C16.29,19.48,16.44,19.45,16.59,19.41Z"/><path class="cls-1" d="M16.27,19.37h-.13S16.19,19.38,16.27,19.37Z"/><path class="cls-1" d="M18.07,19.68c-.07,0,0,.11-.08.08C17.92,19.87,18.45,19.63,18.07,19.68Z"/><polygon class="cls-1" points="16.48 19.15 16.53 19.25 16.61 19.17 16.48 19.15"/><path class="cls-1" d="M17.61,19.23l-.23,0s0,0-.06,0C17.46,19.24,17.62,19.26,17.61,19.23Z"/><path class="cls-1" d="M17.32,19.23a.52.52,0,0,0-.18,0Z"/><polygon class="cls-1" points="16.79 19.12 16.86 19.14 17.02 19.15 16.79 19.12"/><path class="cls-1" d="M20.08,19.26l.25,0s0-.07-.14-.05S20,19.22,20.08,19.26Z"/><path class="cls-1" d="M19.32,18.94c.07,0,.07.05.11.09v-.15Z"/><path class="cls-1" d="M20.05,18.9s.36-.12,0-.11C20.07,18.83,19.82,18.87,20.05,18.9Z"/><polygon class="cls-1" points="23.83 19.08 23.76 19.08 23.77 19.34 23.83 19.08"/><path class="cls-1" d="M27.16,18.52c-.3-.06-.07.15-.34.07-.07.06.22.06.15.11C27.14,18.64,27.24,18.68,27.16,18.52Z"/><path class="cls-1" d="M27,18.7l-.09,0Z"/><path class="cls-1" d="M8,19.89a.49.49,0,0,1-.11-.09l.06.07Z"/><path class="cls-1" d="M7.84,19.69v0l0-.08A.65.65,0,0,0,7.84,19.69Z"/><path class="cls-1" d="M33.7,20.32h0a.45.45,0,0,0-.16,0Z"/><polygon class="cls-1" points="31.11 20.22 31.15 20.23 31.07 20.18 31.11 20.22"/><path class="cls-1" d="M28.93,20.3h.28C29,20.3,28.91,20.24,28.93,20.3Z"/><path class="cls-1" d="M8.28,25.43h21a.44.44,0,1,0,0-.87h-21a.44.44,0,1,0,0,.87Z"/><path class="cls-1" d="M8.24,25.38c.06,0,0,0,0,0S8.24,25.38,8.24,25.38Z"/><path class="cls-1" d="M7.92,24.76h0L8,24.68Z"/><path class="cls-1" d="M8.84,24.64a4.45,4.45,0,0,0-.56,0h0l-.07,0A6.05,6.05,0,0,1,8.84,24.64Z"/><path class="cls-1" d="M9.39,24.75s.12,0-.13,0h.13Z"/><path class="cls-1" d="M9.29,24.74c-.11,0,.07,0,0,0Z"/><path class="cls-1" d="M9.79,24.77H9.65s.16,0,.11,0C9.9,24.81,9.87,24.8,9.79,24.77Z"/><path class="cls-1" d="M9.92,24.74H9.85A.1.1,0,0,0,9.92,24.74Z"/><path class="cls-1" d="M9.69,24.75h.16s0,0-.07,0S9.76,24.74,9.69,24.75Z"/><path class="cls-1" d="M9.6,24.74c-.08,0-.18,0,0,0C9.29,24.69,9.33,24.72,9.6,24.74Z"/><path class="cls-1" d="M8.9,24.6H8.7S8.9,24.62,8.9,24.6Z"/><path class="cls-1" d="M10.68,24.89s0,0-.06-.06h-.11C10.57,24.84,10.67,24.86,10.68,24.89Z"/><path class="cls-1" d="M10.62,24.82h.16C10.64,24.8,10.61,24.81,10.62,24.82Z"/><polygon class="cls-1" points="9.95 24.68 9.69 24.71 10 24.69 9.95 24.68"/><polygon class="cls-1" points="11.28 24.95 11.19 24.98 11.35 24.94 11.28 24.95"/><path class="cls-1" d="M11.68,25c-.07,0,.09.08,0,.09A.83.83,0,0,0,12,25,.7.7,0,0,1,11.68,25Z"/><path class="cls-1" d="M12.13,25,12,25Z"/><path class="cls-1" d="M11,24.84a.22.22,0,0,0,.12.06l-.06-.05Z"/><path class="cls-1" d="M11.11,24.84h.14Z"/><path class="cls-1" d="M11,24.84h0Z"/><path class="cls-1" d="M10.36,24.74c.09,0,.29,0,.1-.07S10.5,24.71,10.36,24.74Z"/><path class="cls-1" d="M11,24.77l-.17,0s0,0,0,0Z"/><polygon class="cls-1" points="11.04 24.76 10.96 24.77 11.02 24.78 11.04 24.76"/><path class="cls-1" d="M11.84,24.93a.85.85,0,0,1,.24,0l-.29,0S11.74,24.92,11.84,24.93Z"/><path class="cls-1" d="M11.49,24.88h0Z"/><polygon class="cls-1" points="12.97 24.98 12.95 24.97 12.95 24.98 12.97 24.98"/><path class="cls-1" d="M11.78,24.86a.26.26,0,0,0-.16,0h.17S11.8,24.86,11.78,24.86Z"/><path class="cls-1" d="M12.38,25l-.13,0S12.36,25,12.38,25Z"/><path class="cls-1" d="M11.53,24.9h0S11.54,24.9,11.53,24.9Z"/><path class="cls-1" d="M11.53,24.9l.1,0H11.5Z"/><path class="cls-1" d="M13.23,24.5c0,.07-.2.14-.37.06s-.06.27.08.4c0,0,0-.06.17-.09-.06,0-.37-.1-.23-.16s.18,0,.29.07c-.09-.09.28-.12.23-.26l-.19,0S13.29,24.52,13.23,24.5Z"/><path class="cls-1" d="M12.64,24.94h-.07a.75.75,0,0,1,.24.11c.11,0,.14,0,.14-.07l-.34,0Z"/><path class="cls-1" d="M12.26,24.92c.05-.06.22-.08.12-.16s-.14,0-.26.07c.32,0-.09,0,.14.08h-.17l.17,0h0s0,0,0,0h0v0c.09,0,0,0,0,0h.32Z"/><path class="cls-1" d="M10.64,24.58h0S10.68,24.58,10.64,24.58Z"/><path class="cls-1" d="M10.77,24.61a.24.24,0,0,1-.12,0c-.07,0,0,0,0,0s-.16,0,0,.05h0a.67.67,0,0,1,.28.09A.41.41,0,0,0,10.77,24.61Z"/><path class="cls-1" d="M11.52,24.73l.27,0-.14-.05v0C11.51,24.67,11.54,24.71,11.52,24.73Z"/><polygon class="cls-1" points="13 25.02 12.96 25.1 13.12 25 13 25.02"/><polygon class="cls-1" points="13.35 25.04 13.33 25.11 13.43 25.07 13.35 25.04"/><path class="cls-1" d="M27.05,25.6h0Z"/><path class="cls-1" d="M27.62,25.61h0S27.6,25.61,27.62,25.61Z"/><path class="cls-1" d="M22,25.15c.12.08.24.21.23.11l0-.1A.31.31,0,0,1,22,25.15Z"/><path class="cls-1" d="M27.85,24.55l0,0-.08.07Z"/><path class="cls-1" d="M27.93,24.27l.15,0Z"/><path class="cls-1" d="M23.92,25.7l-.09,0C24,25.73,23.91,25.72,23.92,25.7Z"/><path class="cls-1" d="M16.94,25.14a.81.81,0,0,0,.25.07C17.06,25.15,17,25.06,16.94,25.14Z"/><path class="cls-1" d="M27.28,25.27l-.07,0S27.29,25.28,27.28,25.27Z"/><path class="cls-1" d="M17.47,25.21l-.05,0a.7.7,0,0,1-.23,0A.25.25,0,0,0,17.47,25.21Z"/><path class="cls-1" d="M12.56,25.69h0Z"/><path class="cls-1" d="M9.25,25.38h0Z"/><path class="cls-1" d="M14.76,25.16c-.07,0,0,0,0,0Z"/><path class="cls-1" d="M14.4,24.78a.06.06,0,0,0,0,0A.07.07,0,0,1,14.4,24.78Z"/><path class="cls-1" d="M18.21,24.55h0S18.2,24.54,18.21,24.55Z"/><path class="cls-1" d="M14.65,25.11l.1,0Z"/><path class="cls-1" d="M14.66,25.16H14.6S14.59,25.17,14.66,25.16Z"/><path class="cls-1" d="M14.86,25.16l-.12,0,0,0Z"/><path class="cls-1" d="M18.64,25.7h0C18.55,25.73,18.59,25.73,18.64,25.7Z"/><polygon class="cls-1" points="23.89 24.13 23.88 24.14 23.89 24.14 23.89 24.13"/><path class="cls-1" d="M24.15,24.07a.22.22,0,0,1-.26.07l.09.27Z"/><path class="cls-1" d="M25.68,25.61l.19,0c-.23,0-.39,0-.21.07s.73,0,.75-.11l.12,0h-.08c.24,0,.18-.07.49-.05.11,0,.18,0,.11,0l.24,0c.07,0,.05,0,0,0h.36l.23,0c.09,0,0,0,0,0l.2,0c.08,0-.09.05-.23,0,.19.11.17,0,.58,0h-.19a2.53,2.53,0,0,0,.49.1c-.05,0-.43-.12-.21-.14a.78.78,0,0,0,.26,0s.12,0,.26,0v.06a.65.65,0,0,0,.24-.06,2,2,0,0,1,.4,0c.22-.08.13-.07.06-.06s-.13,0,.08-.11a.52.52,0,0,0,.21-.78c-.08-.2.07,0,.05-.06a.89.89,0,0,0-.18-.13s0,0,0,0-.1,0-.12,0-.06,0-.18,0-.07,0-.12,0l-.2-.06a.6.6,0,0,0-.38,0c-.06,0,0-.05,0-.09a2.09,2.09,0,0,0-.55.13l-.23-.07c.17.08,0,.16-.23.23l.14.08-.3.06s0-.05,0-.1l-.05,0c-.11,0-.05-.1,0-.16l.11.06c.07-.06.14-.13.13-.19l-.1,0s0,0,0,0,0,0-.09,0l-.07-.12,0,0-.39-.09a3.31,3.31,0,0,1-1,.35c.11-.1,0-.16,0-.28.12.12.34,0,.57,0-.12,0-.09-.07-.06-.09l-.41.09c0-.09-.09-.07-.19-.12.08.19-.31.12-.47.18,0-.07,0-.13.23-.11-.22-.15-.29.22-.51.09,0,0,.08,0,.1,0s-.4,0-.33-.05h0c-.33,0-1,0-1.05.16a1.16,1.16,0,0,1,.06-.25l-.29.3-.29.31c.05-.16-.15-.54.13-.62a.5.5,0,0,0-.34,0c.05,0,.13.23.06.25-.2-.18-.14-.1-.39-.25.08,0,0,.29-.14.28s0-.25,0-.28l-.32.25c.08,0,0-.21-.06-.29s-.27,0-.36,0l.13.06c-.36,0-.35.36-.71.35,0-.05.11-.33-.07-.37-.08.13-.37.65-.68.76L21,24.83l-.24.09a4.71,4.71,0,0,1,.8-.81c-.13-.06,0-.09-.24-.09s.11-.11.17-.11L21,23.85c0,.16-.36.16-.34.29l.51-.16c0,.16-.29.45-.62.43-.08-.07.06-.29.06-.35s-.31.1-.34.06l.14-.09c-.18-.06-.3.22-.52.06s-.23-.22-.24-.12a1.43,1.43,0,0,1,.07.92,2.47,2.47,0,0,1-.49-.27c-.13-.15.19-.36.08-.48,0,0-.07.1-.1.12s0-.14-.14-.12-.35,0-.08.14c-.17,0-.18,0-.38,0,.06.11-.18.37-.35.42,0,0,0-.1,0-.12-.35,0-.54-.09-.86-.09,0,0-.19-.09-.12-.16a.33.33,0,0,1-.19.09c-.19-.14.22,0,.08-.19,0,.1-.26.13-.4.19,0,.15.33,0,.47,0,0,.21-.25.42-.59.51s-.12-.13-.16-.1c-.51,0-.43.34-.85.19-.17-.13,0-.24,0-.33.22,0,.34.08.49.08l-.18-.06a.4.4,0,0,1,.3,0c-.14-.11-.86,0-1.25-.12-.07,0-.19.08-.13.13l.12,0c.11.1-.23.13-.08.18a.9.9,0,0,1-.59.1l0-.13s.15.08.22,0c-.1.05-.36-.18-.47,0l.16.09a1,1,0,0,1-.58.12c.09.12,0,0,.2.14-.13-.18.53,0,.33-.16.15.18.26.08.46.24,0,0-.07-.09.1-.06l0,0h0s0,0,0,0a.21.21,0,0,1-.09-.07c.09-.1.36-.08.46-.14s0,.05,0,.1l.14-.08c0,.1.27.18,0,.23h.22a.6.6,0,0,0,.42,0c.1,0,.26-.11.17,0l.34-.06v0c.34,0,.7-.17,1.08,0a.93.93,0,0,1,.42,0l0,.1c.15,0,.44.1.5,0,.16.26.71.06,1,.1v-.13a2.12,2.12,0,0,0,.57-.08V25c.19-.09.49.07.79.06,0,0-.1,0-.15,0,.36.24.76-.19,1.08,0a.21.21,0,0,1,.2,0h0l.11.05-.09-.05a1.15,1.15,0,0,0,.25,0l0,.11h0c.09,0,.07-.05,0-.14l.12-.07c.07.18.24-.06.34.12.06-.09.47-.08.52-.27,0,0,0,0,0,0a.42.42,0,0,0,.3,0l0,.13.23-.18c.14.08.19.12.06.23.33-.16.27-.06.55-.22v.08c.1,0,.26-.12.32-.05.22.15,1.11,0,1.68.13-.11-.21.27.09.29-.08,0,0,.11.07,0,.12.29-.06.44.06.64-.08,0,0-.06.07,0,.1s.09,0,.12,0,0,0-.09.06c.3,0,.33-.17.35-.3a.29.29,0,0,0,.34,0c.05,0,.14.08,0,.1.1,0,.64,0,.65-.06a.31.31,0,0,0,.17,0c.24,0,.26,0,.49,0h-.06c.1-.1.18,0,.3,0h0c.11.09.11.12.13.13s.06,0,0,.17h.06c.07,0,0,.09,0,.15a1.41,1.41,0,0,1-.25.13h.07s-.13,0-.2,0a1,1,0,0,0-.25-.08s0,0,.09,0c-.35,0,0,.06-.31.08,0,0,.06-.08-.11-.08a4.41,4.41,0,0,1-.75.06c.05,0,.11,0,0,.05a2.89,2.89,0,0,0-.67,0h0a4.92,4.92,0,0,0-.55.06c-.13-.11-.88.06-.88-.05h-.43a1.3,1.3,0,0,0-.48,0c-.06,0,0,0,0,0a2.21,2.21,0,0,0-.79,0l0,0c-.09,0-.59-.1-1-.06,0,0,0,0,0,0-.45.06-1.08-.24-1.24,0l-.3.05c.38,0-.06.12.1.16-.15,0-.39-.09-.21-.1h0c.07-.14-.48-.06-.47-.17-.76,0-1.5-.14-2.21-.17l.08.15h-.25c-.06,0-.09-.12.09-.11-.09-.09-.3.07-.3.1-.35-.06.14-.17,0-.18h-.14l0,0c-.12.06-.13.13-.34.12s-.07-.09-.12-.1,0,0-.08,0h-.31l.12.12c-.14.06-.29,0-.15.13-.21-.21-1.16-.07-1.29-.12a1.38,1.38,0,0,1-.62.09c.06,0,.09.14-.11.13.07-.25-.37-.1-.54-.26.15.1-.58.06-.35.2-.17,0,0-.08-.14-.13-.41.1-.89,0-1.39.07,0,0,.08,0,0,.08l-.13,0-.13,0c-.1,0-.09.11-.27.06,0,0,.06,0,0,0-.49,0-1,0-1.5.05s-1,0-1.51,0c.14,0,0,0-.06,0,.07,0,0,0,0,0H9c-.08,0-.45,0-.49,0h.13c-.18,0,.25,0,.22.06.2,0,.52,0,.84,0,.07,0-.06,0,0,0a1.92,1.92,0,0,1,.36,0h0c.51,0,.74,0,1.31.08l0,0,.21,0c.14,0-.35,0-.22-.06s.88,0,1,.14-.06-.05.14,0l.05,0,0,0c.13,0,.19.06.19.08h-.12a3.41,3.41,0,0,0,.51,0l-.18,0a12.79,12.79,0,0,0,1.66,0l0,0c.38-.05.31.06.73,0h0a.69.69,0,0,1,.31,0c-.11,0,.2.1.06.15.42-.07.21-.06.48-.22l.06.07a.43.43,0,0,1,.31-.12c-.17.06.13.12-.06.2.44.17.66-.16.86.09.2-.21-.38-.12-.27-.17-.1-.07.17-.16.31-.14s.24.27.6.27h-.07c.13.05.26-.07.42,0,.09-.13.21,0,.24-.16l-.33,0c.19,0,.36-.24.66-.15a.53.53,0,0,1-.18.1c.09,0,.17,0,.26,0s-.4,0-.59.17c.1.07.38-.12.28.05.14-.22.35,0,.59-.15l0,.09a.51.51,0,0,1,.19-.06l-.13.13c.2-.11.38.08.56,0-.39,0-.09-.11-.25-.17.48-.13.28.23.82.15-.07,0-.28,0-.16-.08a.92.92,0,0,1,.3.08c.36,0-.06-.08.1-.14.12.09.18,0,.33-.09v.08c.41,0,.11-.17.48-.12l-.16.11.19,0,0,.09a.94.94,0,0,1,.48-.05s0-.13.21-.13-.07.07.19,0a.2.2,0,0,1-.23,0s-.06,0-.07.07a1.37,1.37,0,0,0,.43,0h-.1l.37-.11c.06,0,0,0,0,.06s.13,0,.24-.05,0,.09-.18.13l.18,0,.18,0s.18,0,.14.06c.2,0,.48-.11.74-.09l.1,0a3.8,3.8,0,0,0,.75,0l.16,0c.23,0-.22-.06.16-.09s.1,0,.19.05a1.62,1.62,0,0,1,.61,0Zm2.8,0c-.05,0-.16,0-.2,0S28.39,25.6,28.48,25.61Zm-1-1.22s.1,0,.17,0A.39.39,0,0,1,27.43,24.4Zm-11.86.71h0C15.7,25.14,15.66,25.13,15.57,25.1ZM15.32,25s0,0,0,0,.07,0,.14,0S15.4,25,15.32,25Zm2.53,0,0,0C17.79,25.09,17.82,25.06,17.85,25Z"/><path class="cls-1" d="M27.92,24.3a.07.07,0,0,1,0,0S28,24.32,27.92,24.3Z"/><path class="cls-1" d="M23.93,25.69h0Z"/><path class="cls-1" d="M19.22,24.08a.21.21,0,0,1,.1.06S19.29,24.09,19.22,24.08Z"/><path class="cls-1" d="M14,25.16h.16a.27.27,0,0,1-.15,0S14,25.16,14,25.16Z"/><path class="cls-1" d="M12.59,24.56h-.07v0C12.62,24.61,12.69,24.58,12.59,24.56Z"/><path class="cls-1" d="M13.84,24.83c0-.08-.11-.06-.23,0h0C13.6,24.9,13.72,24.87,13.84,24.83Z"/><path class="cls-1" d="M13.59,24.79h-.1S13.52,24.8,13.59,24.79Z"/><path class="cls-1" d="M15,25.1c-.05,0,0,.11-.06.08C14.88,25.29,15.29,25.05,15,25.1Z"/><polygon class="cls-1" points="13.75 24.57 13.79 24.67 13.85 24.59 13.75 24.57"/><path class="cls-1" d="M14.64,24.65l-.18,0s0,0,0,0S14.64,24.68,14.64,24.65Z"/><path class="cls-1" d="M14.41,24.65a.33.33,0,0,0-.15,0Z"/><polygon class="cls-1" points="13.99 24.54 14.05 24.56 14.17 24.57 13.99 24.54"/><path class="cls-1" d="M16.58,24.68l.2,0s0-.07-.11-.05S16.55,24.64,16.58,24.68Z"/><path class="cls-1" d="M16,24.36c.05,0,.06.05.09.09V24.3Z"/><path class="cls-1" d="M16.55,24.32s.29-.12,0-.11C16.57,24.25,16.37,24.29,16.55,24.32Z"/><polygon class="cls-1" points="19.52 24.5 19.47 24.5 19.48 24.76 19.52 24.5"/><path class="cls-1" d="M22.13,23.94c-.23-.06-.06.15-.27.07-.05.06.17.06.12.11C22.12,24.06,22.2,24.1,22.13,23.94Z"/><path class="cls-1" d="M22,24.12l-.07,0Z"/><polygon class="cls-1" points="8.7 25.38 8.55 25.37 8.64 25.38 8.7 25.38"/><path class="cls-1" d="M8.41,25.4h0Z"/><path class="cls-1" d="M28.89,25.74h0a.28.28,0,0,0-.13,0Z"/><polygon class="cls-1" points="26.86 25.64 26.9 25.65 26.83 25.61 26.86 25.64"/><path class="cls-1" d="M25.16,25.72h.22C25.22,25.72,25.14,25.66,25.16,25.72Z"/><path class="cls-1" d="M40.72.72A2.15,2.15,0,0,1,43.32,3l0,3.93"/></g></g></svg>