<svg xmlns="http://www.w3.org/2000/svg" viewBox="0 0 32.74 38.21"><defs><style>.cls-1{opacity:0.8;}.cls-2{fill:#527c68;fill-rule:evenodd;}</style></defs><title>Asset 4</title><g id="Layer_2" data-name="Layer 2"><g id="text"><g class="cls-1"><path class="cls-2" d="M12.9,28a3.23,3.23,0,0,1-1.37-.45,7.12,7.12,0,0,0-4.48-1.11,15.73,15.73,0,0,0-4.31.4,6.93,6.93,0,0,1-2,.48c-.68,0-.91.43-.7,1.06a2.21,2.21,0,0,0,.53.78,6.3,6.3,0,0,0,3.25,1.94A6.42,6.42,0,0,1,7,33c.42.43.68.63,1.23.54a1.22,1.22,0,0,1,.59,0,10.08,10.08,0,0,0,5.24.06,10.67,10.67,0,0,1,3.6,0,.91.91,0,0,1,.86.8,13.32,13.32,0,0,0,1.2,3.65l.07.12h1.62c-.46-.86-.89-1.74-1.27-2.66-.22-.52-.76,0-.79-.36a3.79,3.79,0,0,1,1.86-2.45A7.51,7.51,0,0,0,24.08,30a4.21,4.21,0,0,1,2.18-1.72,15.22,15.22,0,0,0,5.2-3.16c1.5-1.47,1.73-3,.43-4.51-.55-.63-1.09-1.27-1.63-1.91a1.17,1.17,0,0,0-1.82-.18,2.75,2.75,0,0,0-.64.85A10.68,10.68,0,0,0,26.48,23a2.64,2.64,0,0,1-1.07,1.92,6.51,6.51,0,0,0-1.77,1.91,1.59,1.59,0,0,1-1,.75,4.54,4.54,0,0,0-2.77,2.13c-.15.23-.27.49-.5.58a59.57,59.57,0,0,1-.91-9.85c-1,.61-1,.6-1.51-.17a6.47,6.47,0,0,0-1-1.36c.26,0,.42,0,.49.08a8.42,8.42,0,0,0,2.75,1.39,1.74,1.74,0,0,0,1.27.12,6.61,6.61,0,0,0,4.76-4.13,5.46,5.46,0,0,0,0-4.58c-.25-.48,0-.66.36-.77a7.09,7.09,0,0,1,1.79-.17,3.17,3.17,0,0,0,2.1-.45c-.2-.35-.46-.24-.68-.27a6.75,6.75,0,0,1-2.23-.48c-.5-.26-.57-.62-.08-.84s.35-.66.62-1c.3.6-.44,1.3.43,1.7.17-.27-.25-.76.31-.88A1,1,0,0,1,29,9a8.33,8.33,0,0,1,1.13,1.67c.72-1.23-.77-1.48-.86-2.24.1-.36.67-.06.66-.53-1.21,0-1.56-.55-1.15-1.62.11-.3.3-.56.43-.85s.39-.33.13-.66c-.29,0-.59.07-.73.42h0l0,0A5,5,0,0,0,28.23,8c0,.16-.1.29-.28.3a.24.24,0,0,1-.27-.18,2.48,2.48,0,0,0-.74-1.29c-.35-.37-.24-.71.3-.86a2.75,2.75,0,0,0,1.33-.68h0c-.34-.09-.67.24-1.09,0a1.55,1.55,0,0,1,.44-1c.57-.5.55-.55-.08-1.17-.3.91-.39,1.92-1.28,2.53-.93-1-.94-1-1.05-2.57a1.61,1.61,0,0,0-1.12,1.24A13.26,13.26,0,0,1,23,7.17a1.53,1.53,0,0,1-1,.92,7.84,7.84,0,0,0,.85-2.19c.77-2.71-.86-4.29-3-5.35a.63.63,0,0,0-.46-.06,2.18,2.18,0,0,1-2-.29A2.87,2.87,0,0,0,16,0a.93.93,0,0,0-1,.9h0v0c.33,0,.55-.26.85-.3s.53.17.48.39c-.09.39-.23-.09-.38,0a.33.33,0,0,0-.22.37c0,1.35-1,2.14-1.55,3.3-.44-.84-.47-1.55,0-1.76A1.15,1.15,0,0,0,15,1.36a1.52,1.52,0,0,1,0-.44h0v0c-.56.14-1.32.11-1.61.46-.66.81-1.66.92-2.43,1.45-.2.14-.48.34-.76,0a3,3,0,0,1,.25-1.27,1.08,1.08,0,0,0-.18-1C10.16.45,10,.31,9.87.37s-.18.21-.12.38c.33.87-.12,1.62-.34,2.65A12.92,12.92,0,0,1,8.37,1C8.31.82,8.22.63,8,.61s-.26.22-.31.4Q7.35,2.1,7,3.17A2.76,2.76,0,0,0,6.92,5c.18.53,0,.88-.48,1-.85.23-1.25,1-1.84,1.48-.37.33-.27.63.2.79a2.71,2.71,0,0,0,2.11,0c.22-.11.7-.28.71.07,0,.73.47,1.42-.12,2.23A3.29,3.29,0,0,0,7.3,14l.69-3c1,.42.38,1.26.75,1.71-.07.1-.09.14-.12.16L8.4,13c-.78.32-.76.32-.39,1.07a2.91,2.91,0,0,1,.46,1.06c-.42.27-.68-.44-1.1-.15a1.83,1.83,0,0,0,1.44,1.48h.09c.29,0,.38-.23.52-.46a3.17,3.17,0,0,1,.88-1.11c.89-.63.87-.65,1.49.41-.28.17-.4-.22-.65-.16s0,.22,0,.3c.38.43,1,.25,1.45.46a8.49,8.49,0,0,1-3.73.55H8.81c-.06.63.32.91.88,1.06A10,10,0,0,0,14,17.39a.24.24,0,0,0,.21-.25c-.11-.27-.46,0-.58-.23.81-.51.9-.49,1.23.23.13.28.36.68.25.88-.27.53.09.81.31,1.16.49.77,1,1.52,1.47,2.31s0,1.86.19,2.79c.11.54.09,1.1.15,1.65.13,1.25.28,2.49.42,3.78a1.34,1.34,0,0,1-.37-.09A10.7,10.7,0,0,0,12.9,28Zm14.55-4c.06-.26-.74.23-.6-.25s0-.77.55-1a1.76,1.76,0,0,0,1-.73c-.49-.2-.68.32-1.14.39a6.74,6.74,0,0,1,1.51-3.51c.36-.49.67-.42,1.12.08.63.72,1.29,1.42,1.88,2.16A1.85,1.85,0,0,1,31.5,24a5.43,5.43,0,0,1-3.69,1.89,17.31,17.31,0,0,0,1.63-2.11c.19-.41.7-.9.25-1.25s-.74.26-1.09.48c.15.32.47,0,.66.31a7.32,7.32,0,0,1-3.38,3.12A3.34,3.34,0,0,0,26.53,25C26.55,24.53,27.23,24.62,27.45,24Zm-3,2.64A16.42,16.42,0,0,1,26,25.22c-.52.63-.59,1.65-1.85,1.89A3.39,3.39,0,0,1,24.43,26.63Zm1.91.35a1.94,1.94,0,0,1,1.43,0C27.26,27.15,26.91,27.52,26.33,27Zm-4.56-9.15c.35.06.35.55.26.81-.15.42-.32.92-.93.94l0,0c-1.13.22-1.18.19-1.22-.83,0-.24,0-.48,0-.71-.05-.39-.24-.46-.5-.13l-.13-.58a2.78,2.78,0,0,0-.3,1.54c0,.21.07.54-.3.5s-.38-.23-.37-.51a4.85,4.85,0,0,1,1.32-3.26,3.51,3.51,0,0,1,1.12,1.19C21,17.17,21.12,17.71,21.78,17.83Zm-9.32-8.9a1.37,1.37,0,0,1,.82.61A3.18,3.18,0,0,0,15,11c.23.07.48.19.3.5s-.34.12-.53,0A4.2,4.2,0,0,1,12.46,8.94Zm.07,1.27c-.19,0-.3,0-.33,0-.23-.29-.83-.13-.82-.68,0,0,.1-.12.16-.13C11.9,9.32,12.23,9.59,12.53,10.21Zm8.34-.66c.12-.22.18-.19.78,0-1.37,1.38-2.34,1.5-3,.37.26-.12.45.1.67.14C19.9,10.13,20.49,10.19,20.87,9.54ZM19.5,9.49c0-.15.11-.2.23-.2s.33,0,.34.18c0,0-.19.12-.29.15S19.53,9.64,19.5,9.49Zm-.9,2.07c-.73-.08-1.3-.11-1.6-.68-.05-.1-.16-.2,0-.29a.47.47,0,0,1,.31-.12A2.16,2.16,0,0,1,18.59,11.55Zm.78.49c-.25.61-.74.89-1.11,1.37C18.53,12.49,18.53,12.49,19.38,12ZM17,12.82q-.42-.22-.81-.48c-.16-.11-.56,0-.41-.4a.41.41,0,0,1,.68-.21,1.34,1.34,0,0,1,1,.56.39.39,0,0,1,0,.44A.28.28,0,0,1,17,12.82Zm3.22.09c-.2-.11-.14-.33-.16-.53s-.35-.76.1-.93.08.59.54.59c.26-.35-.19-.84.25-1.24a15,15,0,0,1,.72,3.7C21.18,13.92,20.89,13.25,20.25,12.91ZM14,11.78c.74.55.74.59.29,1.54-.4-.24-.4-.85-1.08-1.12A16.76,16.76,0,0,1,14,13.79c.16.45-.09,1,.36,1.49-.87,0-1.12-.54-1.38-1s-.53-.85-1.16-.86a.48.48,0,0,1-.48-.66c.12-.47-.08-1.15.51-1.34A2.31,2.31,0,0,1,14,11.78Zm1,3.32c.4-.36.25-.71,0-1.12s.12-.18.31-.21.34-.81,1-.44a7.89,7.89,0,0,1-1,2c-.08.13-.2.1-.29,0S15,15.12,15,15.1Zm4.37-1.47a2.9,2.9,0,0,1,2.07,3.21c-.33-.47-.38-.93-.83-1.15S20.15,15,20,14.57c-.3,0-.31.49-.65.36s-.14-.45-.45-.48c-.23.44.19,1-.18,1.36A1.82,1.82,0,0,1,19,13.75.41.41,0,0,1,19.38,13.63Zm2.88,3.29c-.09-.16-.23-.33,0-.57a1.32,1.32,0,0,1,.36.94C22.34,17.29,22.35,17.05,22.27,16.92Zm2-.19c.34,0,.12.22.06.3s-.19.12-.29.17c-.13-.55-.83-.28-1.06-.74a1.21,1.21,0,0,1-.2-1.1c.07-.16-.06-.38.12-.68a5,5,0,0,1,.64,1.18C23.67,16.22,23.75,16.66,24.24,16.73Zm.65-4.15c0,.1.06.31,0,.33-.79.37-.32.88-.17,1.35a1.14,1.14,0,0,1,.09.88,5,5,0,0,1-.28-.49.6.6,0,0,0-.28-.38c-.3.26.08.56,0,.83a.22.22,0,0,1-.27-.18,15.19,15.19,0,0,1-.22-1.5c0-.5.29-.78.73-.94C24.63,12.41,24.81,12.38,24.88,12.58Zm-2.39-.11c-.15,0-.37,0-.34-.18a.46.46,0,0,1,.45-.43c.18,0,.26.14.27.32S22.68,12.46,22.49,12.47ZM23.93,11c.5.08.55.49.63.91-.5.24-.88-.49-1.34,0,0,0-.37-.3-.14-.55A1,1,0,0,1,23.93,11Zm-2,.53c-.06.08-.13.1-.2,0-.32-.26-.05-.64-.15-1C21.83,10.88,22.3,11.09,22,11.54Zm.44-.79a.53.53,0,0,1-.27-.6.3.3,0,0,1,.36-.23c.31.06.29.32.36.46C22.73,10.63,22.63,10.85,22.4,10.75Zm4-3c.06,0,.12-.08.12.05a.51.51,0,0,1-.05.23c-.12.26-.34.18-.5.09-.45-.26-.07-.51.15-1C26.13,7.66,26.13,7.69,26.41,7.71Zm-1.22-1c.4-.14.14-.7.63-.82.14.7-.54,1.11-.49,1.74-1.13-.91-.46-1.94-.34-2.9C25.67,5.4,25.05,6.08,25.19,6.75ZM24,6.22c.16,1.21.59,2,1.8,2.28-.55.89-.21,1.46,1,1.81l-1.71.39c-.16,0-.29.06-.42-.09C24,9.81,23,9.55,22.16,8.87A19.38,19.38,0,0,0,24,6.22ZM20.32,8.51a2.26,2.26,0,0,1-1,.36c-.31-.61-.13-1.35-.51-1.93h0c-.28.21-.14.48-.1.73a3,3,0,0,1,0,1.5c-.46-.65-.33-1.4-.63-2-.47.07-.1.47-.31.62-.33-.14-.16-.61-.56-.75-.32.55.3,1.12,0,1.68-.77-.18-.49-1-.92-1.39-.26,1.2.4,2.05,1.54,2,0,.32-.27.22-.4.27-.85.32-.85.31-1.44-.42l-.22-.24a.11.11,0,0,0,0,0l0,0A1.71,1.71,0,0,0,16,10.11a.22.22,0,0,1,0,.31.21.21,0,0,1-.35-.16c-.08-.56-.47-1.08-.28-1.69a.52.52,0,0,1,.35.32h0l0,0c0-.34.2-.69-.08-1-1,.53-1,.74-.54,2.12-.83-.22-1-.46-.72-1.18a8.06,8.06,0,0,1,1.56-2.89c.31-.3.16-1,.75-.93.36,0,.67.4,1,.59a1.65,1.65,0,0,1,1.06,1.32h0l0,0,0,0c.48.13.47-.42.8-.65C20.08,7,20,7.8,20.32,8.51Zm-7.2-3.32a.17.17,0,0,1,.27-.12,1,1,0,0,1,.22.25c-.72.49,0,1.3-.41,1.89C12.66,6.52,13,5.85,13.12,5.19Zm-1.86.62a2.11,2.11,0,0,1,.32,1.35.44.44,0,0,1-.51.39.39.39,0,0,1-.41-.46c0-.39.09-.78.11-1,0-.34.07-.42.19-.46A.26.26,0,0,1,11.26,5.81Zm7.82-.49a.58.58,0,0,1,.26.48c-.05.09-.12.11-.2,0a.41.41,0,0,1-.19-.39C19,5.4,19.06,5.32,19.08,5.32Zm.36-.43c-.09-.15-.08-.36.06-.42s.26.24.54.28c.09-.52-.29-.91-.3-1.49.37.25.62.6.58.8-.26,1.12.4,2.09.44,3.15a.84.84,0,0,1-.24.69A7.34,7.34,0,0,0,19.44,4.89Zm2.62-.61c.41.4.4.62,0,1.13a.42.42,0,0,0-.12.41c.16.56-.16,1-.24,1.58a3.23,3.23,0,0,0-.67-2c-.37-.4,0-1.12-.07-1.8A2.1,2.1,0,0,1,22.06,4.28Zm0-.72c-.79-.33-1-1.32-1.9-1.54-.06.44.5.66.2,1.24-.16-.72-1-.95-.91-1.72C21,1.68,22.07,2.46,22,3.56ZM16.84.77c1.43.12.33,1.34,1,1.74C17.24,2.3,17.24,2.3,16.84.77ZM15.56,3.6a1.52,1.52,0,0,1,2.11-.29,1.56,1.56,0,0,1,.78,1.77c-.49-.3-.25-1-.72-1.3-.3.36.16.74,0,1.15-.72-.15-.43-1-.9-1.32-.18.31-.07,1.28-.89.44-.19-.19-.69.14-.67.57A7,7,0,0,1,15.05,6a1,1,0,0,1-.47.8A3.55,3.55,0,0,1,15.56,3.6Zm-1.88-1.4a24.67,24.67,0,0,1-.89,2.71C12.8,3.91,12.31,2.89,13.68,2.19ZM11.21,3.32a.45.45,0,0,1,.5-.09l-.43,1.85c-.59-.22-1.22-.41-1.2-1.05S10.84,3.57,11.21,3.32Zm-3.4,1.3a.64.64,0,0,1-.51-.89A7.38,7.38,0,0,1,8,1.9c.53.67.6,1.47,1.11,2,.06.07.08.28,0,.32A1.42,1.42,0,0,1,7.81,4.61Zm.34,1.06c.74-.31.95.44,1.43.44.26-.19.14-.51.26-.75s0-.33.24-.35a.4.4,0,0,1,.37.24c.1.16,0,.39-.07.41-.62.11-.46.74-.77,1.12A8.24,8.24,0,0,0,8.14,5.67Zm0,3C8.11,7.78,7.83,7.56,7,7.81c-.53.15-1,.42-1.66.07.28-1.17,1.55-1.22,2.29-2a6.28,6.28,0,0,0,3.75,2.21h.06c.7-.32.59-1,.64-1.68a6.35,6.35,0,0,1,1,2L11.4,8.12h-.06A3.11,3.11,0,0,0,8.77,10.3c0,.1-.16.17-.29.3A6,6,0,0,1,8.19,8.65Zm1.1,1.91a2.62,2.62,0,0,1,.33-.62c.22-.3.33-.85.78-.75s.5.54.45,1c.17.12.5.1.47.38a.68.68,0,0,1-.55.55c-.3.08-.54-.09-.81-.15-.61-.13-.4.24-.22.61C9.19,11.28,9.15,10.94,9.29,10.56ZM9.44,13c-.22-.3.1-.36.2-.54.32-.53.28.11.42.11.83,0,.67.64.78,1.09-.07.27-.24.34-.46.23A2.67,2.67,0,0,1,9.44,13Zm0,1.83c-.16.11-.29,0-.38-.12L8.4,13.6a1.25,1.25,0,0,1,1.22.83A.35.35,0,0,1,9.46,14.84Zm2.44-.94,1.86,1.93A2.8,2.8,0,0,1,11.89,13.9ZM16.27,15c.31.22,0,.5.26.69l.77-1.12a5.87,5.87,0,0,0-.23,2.59C16.13,15.69,16.13,15.69,16.27,15Zm-.36,1.7c.3,0,.31.12,0,1A.76.76,0,0,1,15.91,16.66Zm1.75.53c.26-.48-.15-1,.27-1.55a1,1,0,0,1,.37,1c0,.43-.44.73-.51,1.19s.33.79.16,1.26C17.15,18.24,17.13,18.18,17.66,17.19ZM18,24.78c.28.41.08.79.13,1.15A1.07,1.07,0,0,1,18,24.78Zm.19,3.57c0-.16.16,0,.23,0a.2.2,0,0,1,.12.27s-.12,0-.21,0S18.15,28.43,18.16,28.35ZM.64,28a.21.21,0,0,1,.27-.17c.31.08.26.35.24.57s-.11.2-.26.18A.52.52,0,0,1,.64,28Zm1.2,0A1.56,1.56,0,0,1,2,29.59C1.33,29,1.76,28.49,1.84,28Zm.92.49a4.18,4.18,0,0,1,.32,1.64C2.57,29.53,2.57,29.53,2.76,28.47Zm.81.51a1.62,1.62,0,0,1,.17,1.43C3.32,29.87,3.55,29.4,3.57,29Zm.74.41h.27l.11,1.4A1.48,1.48,0,0,1,4.31,29.39ZM5.4,31c-.3-.22-.27-.53-.22-.93A.64.64,0,0,1,5.6,31C5.58,31.07,5.48,31.07,5.4,31ZM19.85,32.8a2.21,2.21,0,0,1,.22-2.19A4.14,4.14,0,0,1,19.85,32.8Zm3.35-3.07c-.27-.3,0-.64-.13-.92a.38.38,0,0,1,.15-.42A1.64,1.64,0,0,1,23.2,29.73Zm.68-.69c-.12-.41-.09-.59,0-.76C24.08,28.47,23.95,28.64,23.88,29Zm.62-1.2c0-.17.18-.22.35-.16a.18.18,0,0,1,.09.27.35.35,0,0,1-.35.23C24.33,28.15,24.48,28,24.5,27.84ZM22.3,30.66c.1-.78-.45-1.65.35-2.59A5.28,5.28,0,0,1,22.3,30.66Zm-.75-2a4.61,4.61,0,0,1,.05,2.54A7.84,7.84,0,0,1,21.55,28.66Zm-.76.62A2.14,2.14,0,0,1,21,30.86c0,.41.24.92-.46,1.24C20.68,31.16,20.37,30.31,20.79,29.28Zm-2.45,1a1,1,0,0,1,.14.29,1.58,1.58,0,0,1,0,.29l0,0,0,0a.92.92,0,0,1,.2,1c-.36-.47-.37-.49-.2-1l0,0v0l-.26-.12c-.18-.1-.12-.25-.08-.39S18.29,30.26,18.34,30.32ZM17.66,32c-.1-.06-.18-.15-.12-.27s.15-.18.27-.09a.27.27,0,0,1,.11.19C17.91,32,17.8,32,17.66,32Zm-.43-1.77a.78.78,0,0,1,.36.46c.08.3.08.56-.29.64s-.58.06-.62-.34c0-.13.17-.39,0-.36-.8.1-1.26-.56-1.91-.74a.55.55,0,0,1-.39-.32c-.05-.09-.24-.22-.26-.2-1.13.79-2.29-.16-3.43,0a11,11,0,0,0-2,.09,2.78,2.78,0,0,0,1.44.39c.93.11,1.94-.17,2.78.45l.08.13c.62-.21,1.15.38,1.95,0-.82.82-1.44,1-3.73,1.4,0,.35.25.32.5.32a11.92,11.92,0,0,0,2.46-.57c.3-.06.56-.29.86.06s.5-.06.73-.15.64-.18.69.3c0,.24.14.3.39.32.56,0,.88.45,1.29,1.09a11.41,11.41,0,0,0-4-.27,17.09,17.09,0,0,0-3.9.22,2,2,0,0,1-2.06-.94,6,6,0,0,0-2.27-2.43c.2-.64.94-.7,1-1.27,0-.12-.13-.18-.18-.11-.67.84-1.34.83-2.18.17-.54-.42-1.44-.32-1.78-1.1a.58.58,0,0,1,.66-.37A9.32,9.32,0,0,0,6.26,27a6,6,0,0,1,4.33.54,8.85,8.85,0,0,0,3.06,1A9.21,9.21,0,0,1,17.23,30.23Z"/></g></g></g></svg>