<svg xmlns="http://www.w3.org/2000/svg" viewBox="0 0 27.22 45.84"><defs><style>.cls-1{fill:#527c68;}</style></defs><title>Asset 25</title><g id="Layer_2" data-name="Layer 2"><g id="text"><path class="cls-1" d="M24.06,29.42c1-.9,3.16-3.58,3.16-9.57A30.41,30.41,0,0,0,20.53,1.24L19.45,0l-.29,43.2h0c0,1.32.4,2.16,1.18,2.5a1.83,1.83,0,0,0,.73.14c1.81,0,4.18-2.14,4.7-2.62L26,43l0-10ZM20.83,44.55c-.27-.12-.42-.61-.42-1.35L20.68,3.5A29.61,29.61,0,0,1,26,19.85c0,6.8-3,8.87-3,8.89l-.48.31,2.23,4.27,0,9.18C23.51,43.57,21.58,44.88,20.83,44.55Z"/><path class="cls-1" d="M9.36,17.73a9,9,0,0,0,2.26-6.5A22.15,22.15,0,0,0,9.17,2l-.05-.07L9,1.8l-.1-.07-.1-.05-.13,0-.08,0h0l-.12,0-.12,0h0l-.06.05-.1.08-.06.1A.6.6,0,0,0,8,2a.62.62,0,0,0,0,.13.59.59,0,0,0,0,.08V13a.62.62,0,0,0,1.25,0V5.31a18.39,18.39,0,0,1,1.13,5.92,7.77,7.77,0,0,1-1.92,5.64C6.79,18.62,6.52,19,6.52,20.77V21A109.56,109.56,0,0,0,7,32.57a45.28,45.28,0,0,0,1,5.27,13,13,0,0,1,.55,3.43c-.39,2.05-1,3.33-2.74,3.33s-2.35-1.27-2.74-3.33a12.74,12.74,0,0,1,.54-3.39,44.33,44.33,0,0,0,1-5.23,111.42,111.42,0,0,0,.52-11.71v-.17c0-1.86-.25-2.13-1.9-3.85l0,0a7.77,7.77,0,0,1-1.92-5.64,16.31,16.31,0,0,1,1.49-6.3V13A.62.62,0,0,0,4,13V2.34a.57.57,0,0,0,0-.07.61.61,0,0,0,0-.12L3.9,2,3.84,2l-.09-.09,0,0,0,0-.12,0-.12,0H3.3l-.13,0-.11,0L3,1.87,2.88,2l0,0A19.53,19.53,0,0,0,0,11.23a9,9,0,0,0,2.26,6.5l0,0c1.56,1.63,1.56,1.63,1.56,3v.17a110.06,110.06,0,0,1-.52,11.58A42.78,42.78,0,0,1,2.4,37.6a11.7,11.7,0,0,0-.55,3.9c.25,1.3.84,4.34,4,4.34s3.72-3,4-4.34a11.89,11.89,0,0,0-.56-3.95,43.65,43.65,0,0,1-1-5.12A108.2,108.2,0,0,1,7.76,21v-.21C7.76,19.53,7.76,19.4,9.36,17.73Z"/><path class="cls-1" d="M6,13.67A.62.62,0,0,0,6.58,13V2.26a.62.62,0,1,0-1.25,0V13A.62.62,0,0,0,6,13.67Z"/></g></g></svg>