<svg xmlns="http://www.w3.org/2000/svg" viewBox="0 0 48.63 30.61"><defs><style>.cls-1,.cls-2,.cls-3{fill:none;stroke:#527c68;stroke-width:2px;}.cls-1{stroke-miterlimit:10;}.cls-2,.cls-3{stroke-linejoin:round;}.cls-3{stroke-linecap:round;}</style></defs><title>Asset 5</title><g id="Layer_2" data-name="Layer 2"><g id="text"><polyline class="cls-1" points="7.36 14.78 9.48 16.9 14.78 16.9"/><path class="cls-2" d="M5.24,24.31v4.24A1.06,1.06,0,0,0,6.3,29.61h7.42a1.06,1.06,0,0,0,1.06-1.06V27.49"/><path class="cls-3" d="M46.57,6.3h-5.3L39.15,9.48,36,10.54H12.66L9.48,9.48,7.36,6.3H2.06A1.06,1.06,0,0,0,1,7.36V9.48a1.06,1.06,0,0,0,1.06,1.06L6.3,11.6,5.25,13.18A6.36,6.36,0,0,0,4.18,16.7V22.2a3.18,3.18,0,0,0,3.18,3.18H41.27a3.18,3.18,0,0,0,3.18-3.18V16.7a6.36,6.36,0,0,0-1.07-3.53L42.33,11.6l4.24-1.06a1.06,1.06,0,0,0,1.06-1.06V7.36A1.06,1.06,0,0,0,46.57,6.3Z"/><path class="cls-1" d="M40.21,8.42S37.52,2.64,37,2.06A3.09,3.09,0,0,0,34.91,1H13.72A3.09,3.09,0,0,0,11.6,2.06c-.49.58-3.18,6.36-3.18,6.36"/><polyline class="cls-1" points="41.27 14.78 39.15 16.9 33.85 16.9"/><path class="cls-2" d="M43.39,24.31v4.24a1.06,1.06,0,0,1-1.06,1.06H34.91a1.06,1.06,0,0,1-1.06-1.06V27.49"/><line class="cls-1" x1="14.78" y1="21.14" x2="33.85" y2="21.14"/></g></g></svg>