<svg xmlns="http://www.w3.org/2000/svg" viewBox="0 0 41.37 41.37"><defs><style>.cls-1{fill:#527c68;}</style></defs><title>Asset 10</title><g id="Layer_2" data-name="Layer 2"><g id="text"><path class="cls-1" d="M16.13,28.93A12.8,12.8,0,0,1,7.08,7.07,12.8,12.8,0,1,1,25.18,25.18,12.72,12.72,0,0,1,16.13,28.93Zm0-23.85a11,11,0,1,0,7.81,3.23A11,11,0,0,0,16.13,5.08Z"/><path class="cls-1" d="M16.13,32.29a16.16,16.16,0,1,1,13.79-7.76.88.88,0,1,1-1.5-.92,14.42,14.42,0,1,0-2.65,3.2.88.88,0,1,1,1.18,1.31,16.23,16.23,0,0,1-10.81,4.18Z"/><path class="cls-1" d="M32.45,38.42a.88.88,0,0,1-.62-.26l-8.38-8.38a.88.88,0,0,1,1.24-1.24l7.76,7.76,3.85-3.85-7.76-7.76a.88.88,0,0,1,1.24-1.24l8.38,8.38a.88.88,0,0,1,0,1.24l-5.09,5.09A.88.88,0,0,1,32.45,38.42Z"/><path class="cls-1" d="M34.49,41.37a2.73,2.73,0,0,1-1.94-.8l-.24-.24a2.75,2.75,0,0,1,0-3.88l4.14-4.14a2.81,2.81,0,0,1,3.88,0l.24.24a2.75,2.75,0,0,1,0,3.88l-4.14,4.14A2.73,2.73,0,0,1,34.49,41.37Zm3.9-8.11a1,1,0,0,0-.7.29l-4.14,4.14a1,1,0,0,0,0,1.39l.24.24a1,1,0,0,0,1.39,0l4.14-4.14a1,1,0,0,0,0-1.39l-.24-.24A1,1,0,0,0,38.39,33.26Z"/><path class="cls-1" d="M29.66,31.27a.88.88,0,0,1-.62-1.5l2.88-2.88a.88.88,0,0,1,1.24,1.24L30.29,31A.88.88,0,0,1,29.66,31.27Z"/><path class="cls-1" d="M30.06,36a.88.88,0,0,1-.62-1.5l2.88-2.88a.88.88,0,0,1,1.24,1.24l-2.88,2.88A.88.88,0,0,1,30.06,36Z"/></g></g></svg>