<svg xmlns="http://www.w3.org/2000/svg" viewBox="0 0 44.83 37.86"><defs><style>.cls-1{fill:#527c68;fill-rule:evenodd;}</style></defs><title>Asset 2</title><g id="Layer_2" data-name="Layer 2"><g id="text"><path class="cls-1" d="M4.23,2.58h1.9V1A1,1,0,1,1,8.06,1V2.58h5.73V1a1,1,0,0,1,1.93,0V2.58h5.73V1a1,1,0,1,1,1.93,0V2.58h5.73V1A1,1,0,0,1,31,1V2.58h5.73V1A1,1,0,1,1,38.7,1V2.58h1.9a4.24,4.24,0,0,1,4.23,4.23V33.63a4.24,4.24,0,0,1-4.23,4.23H4.23A4.24,4.24,0,0,1,0,33.63V6.81A4.24,4.24,0,0,1,4.23,2.58Zm1.9,3.28V4.53H4.23A2.29,2.29,0,0,0,2,6.81V29.72c.06,2.61.79,4.12,3.42,4.12H39.45c2.63,0,3.36-1.51,3.42-4.12V6.81a2.29,2.29,0,0,0-2.28-2.28H38.7V5.86a1.55,1.55,0,1,1-1.93,0V4.53H31V5.86a1.55,1.55,0,1,1-1.93,0V4.53H23.38V5.86a1.55,1.55,0,1,1-1.93,0V4.53H15.72V5.86a1.55,1.55,0,1,1-1.93,0V4.53H8.06V5.86a1.55,1.55,0,1,1-1.93,0Zm-.58,5.42H39.28v.92H5.55v-.92ZM7,21.29H7a1.48,1.48,0,0,1,1.48,1.48h0A1.48,1.48,0,0,1,7,24.24H7a1.48,1.48,0,0,1-1.48-1.48h0A1.48,1.48,0,0,1,7,21.29Zm35.85,12a3.88,3.88,0,0,1-3.42,1.48H5.38A3.88,3.88,0,0,1,2,33.28v.35a2.29,2.29,0,0,0,2.28,2.28H40.59a2.29,2.29,0,0,0,2.28-2.28v-.35ZM36.32,16.16h3v3h-3v-3Zm-5.13,0h3v3h-3v-3Zm-3.65,0h0A1.48,1.48,0,0,1,29,17.64h0a1.48,1.48,0,0,1-1.48,1.48h0a1.48,1.48,0,0,1-1.48-1.48h0a1.48,1.48,0,0,1,1.48-1.48Zm-5.13,0h0a1.48,1.48,0,0,1,1.48,1.48h0a1.48,1.48,0,0,1-1.48,1.48h0a1.48,1.48,0,0,1-1.48-1.48h0a1.48,1.48,0,0,1,1.48-1.48Zm-5.13,0h0a1.48,1.48,0,0,1,1.48,1.48h0a1.48,1.48,0,0,1-1.48,1.48h0a1.48,1.48,0,0,1-1.48-1.48h0a1.48,1.48,0,0,1,1.48-1.48Zm5.13,10.26h0a1.48,1.48,0,0,1,1.48,1.48h0a1.48,1.48,0,0,1-1.48,1.48h0a1.48,1.48,0,0,1-1.48-1.48h0a1.48,1.48,0,0,1,1.48-1.48Zm-5.13,0h0a1.48,1.48,0,0,1,1.48,1.48h0a1.48,1.48,0,0,1-1.48,1.48h0a1.48,1.48,0,0,1-1.48-1.48h0a1.48,1.48,0,0,1,1.48-1.48Zm-5.13,0h0a1.48,1.48,0,0,1,1.48,1.48h0a1.48,1.48,0,0,1-1.48,1.48h0a1.48,1.48,0,0,1-1.48-1.48h0a1.48,1.48,0,0,1,1.48-1.48ZM7,26.41H7a1.48,1.48,0,0,1,1.48,1.48h0A1.48,1.48,0,0,1,7,29.37H7a1.48,1.48,0,0,1-1.48-1.48h0A1.48,1.48,0,0,1,7,26.41Zm29.29-5.13h3v3h-3v-3Zm-5.13,0h3v3h-3v-3Zm-3.65,0h0A1.48,1.48,0,0,1,29,22.76h0a1.48,1.48,0,0,1-1.48,1.48h0a1.48,1.48,0,0,1-1.48-1.48h0a1.48,1.48,0,0,1,1.48-1.48Zm-5.13,0h0a1.48,1.48,0,0,1,1.48,1.48h0a1.48,1.48,0,0,1-1.48,1.48h0a1.48,1.48,0,0,1-1.48-1.48h0a1.48,1.48,0,0,1,1.48-1.48Zm-5.13,0h0a1.48,1.48,0,0,1,1.48,1.48h0a1.48,1.48,0,0,1-1.48,1.48h0a1.48,1.48,0,0,1-1.48-1.48h0a1.48,1.48,0,0,1,1.48-1.48Zm-5.13,0h0a1.48,1.48,0,0,1,1.48,1.48h0a1.48,1.48,0,0,1-1.48,1.48h0a1.48,1.48,0,0,1-1.48-1.48h0a1.48,1.48,0,0,1,1.48-1.48Z"/></g></g></svg>