<svg xmlns="http://www.w3.org/2000/svg" viewBox="0 0 43.39 30.11"><defs><style>.cls-1{fill:#527c68;}</style></defs><title>Asset 3</title><g id="Layer_2" data-name="Layer 2"><g id="text"><path class="cls-1" d="M42,.57A3.2,3.2,0,0,0,40.17,0H3.22A3.23,3.23,0,0,0,0,3.22V26.89a3.23,3.23,0,0,0,3.22,3.22H40.17a3.23,3.23,0,0,0,3.22-3.22V3.22A3.22,3.22,0,0,0,42,.57ZM36.55,2.82,26.24,13.07l-2,2L22,17.29a.44.44,0,0,1-.6,0l-2.25-2.23-2-2L6.83,2.82ZM2.82,26.89V3.22a.4.4,0,0,1,.13-.29l12.2,12.12L2.95,27.18A.4.4,0,0,1,2.82,26.89Zm4,.4L17.15,17l2.26,2.24a3.25,3.25,0,0,0,4.57,0L26.24,17,36.55,27.29Zm21.4-12.24L40.44,2.93a.4.4,0,0,1,.13.29V26.89a.4.4,0,0,1-.13.29Z"/></g></g></svg>