<svg xmlns="http://www.w3.org/2000/svg" viewBox="0 0 28 23.65"><defs><style>.cls-1{fill:#333;fill-rule:evenodd;}</style></defs><title>Asset 1</title><g id="Layer_2" data-name="Layer 2"><g id="text"><path class="cls-1" d="M2.64,1.61H3.83V.6A.6.6,0,0,1,5,.6v1H8.61V.6A.6.6,0,0,1,9.82.6v1H13.4V.6A.6.6,0,1,1,14.6.6v1h3.58V.6a.6.6,0,1,1,1.21,0v1H23V.6a.6.6,0,1,1,1.21,0v1h1.18A2.65,2.65,0,0,1,28,4.26V21a2.65,2.65,0,0,1-2.64,2.64H2.64A2.65,2.65,0,0,1,0,21V4.26A2.65,2.65,0,0,1,2.64,1.61Zm1.18,2V2.83H2.64A1.43,1.43,0,0,0,1.22,4.26V18.56c0,1.63.49,2.57,2.14,2.57H24.64c1.65,0,2.1-.94,2.14-2.57V4.26a1.43,1.43,0,0,0-1.42-1.42H24.17v.83a1,1,0,1,1-1.21,0V2.83H19.39v.83a1,1,0,1,1-1.21,0V2.83H14.6v.83a1,1,0,1,1-1.21,0V2.83H9.82v.83a1,1,0,1,1-1.21,0V2.83H5v.83a1,1,0,1,1-1.21,0ZM3.47,7H24.53v.57H3.47V7Zm.92,6.25h0a.93.93,0,0,1,.92.92h0a.93.93,0,0,1-.92.92h0a.93.93,0,0,1-.92-.92h0a.93.93,0,0,1,.92-.92Zm22.39,7.49a2.42,2.42,0,0,1-2.14.93H3.36a2.42,2.42,0,0,1-2.14-.93V21a1.43,1.43,0,0,0,1.42,1.42H25.36A1.43,1.43,0,0,0,26.78,21v-.22Zm-4.09-10.7h1.85v1.85H22.69V10.09Zm-3.2,0h1.85v1.85H19.48V10.09Zm-2.28,0h0a.93.93,0,0,1,.92.92h0a.93.93,0,0,1-.92.92h0a.93.93,0,0,1-.92-.92h0a.93.93,0,0,1,.92-.92Zm-3.2,0h0a.93.93,0,0,1,.92.92h0a.93.93,0,0,1-.92.92h0a.93.93,0,0,1-.92-.92h0a.93.93,0,0,1,.92-.92Zm-3.2,0h0a.93.93,0,0,1,.92.92h0a.93.93,0,0,1-.92.92h0A.93.93,0,0,1,9.87,11h0a.93.93,0,0,1,.92-.92ZM14,16.5h0a.93.93,0,0,1,.92.92h0a.93.93,0,0,1-.92.92h0a.93.93,0,0,1-.92-.92h0A.93.93,0,0,1,14,16.5Zm-3.2,0h0a.93.93,0,0,1,.92.92h0a.93.93,0,0,1-.92.92h0a.93.93,0,0,1-.92-.92h0a.93.93,0,0,1,.92-.92Zm-3.2,0h0a.93.93,0,0,1,.92.92h0a.93.93,0,0,1-.92.92h0a.93.93,0,0,1-.92-.92h0a.93.93,0,0,1,.92-.92Zm-3.2,0h0a.93.93,0,0,1,.92.92h0a.93.93,0,0,1-.92.92h0a.93.93,0,0,1-.92-.92h0a.93.93,0,0,1,.92-.92Zm18.3-3.2h1.85v1.85H22.69V13.3Zm-3.2,0h1.85v1.85H19.48V13.3Zm-2.28,0h0a.93.93,0,0,1,.92.92h0a.93.93,0,0,1-.92.92h0a.93.93,0,0,1-.92-.92h0a.93.93,0,0,1,.92-.92Zm-3.2,0h0a.93.93,0,0,1,.92.92h0a.93.93,0,0,1-.92.92h0a.93.93,0,0,1-.92-.92h0A.93.93,0,0,1,14,13.3Zm-3.2,0h0a.93.93,0,0,1,.92.92h0a.93.93,0,0,1-.92.92h0a.93.93,0,0,1-.92-.92h0a.93.93,0,0,1,.92-.92Zm-3.2,0h0a.93.93,0,0,1,.92.92h0a.93.93,0,0,1-.92.92h0a.93.93,0,0,1-.92-.92h0a.93.93,0,0,1,.92-.92Z"/></g></g></svg>