<svg xmlns="http://www.w3.org/2000/svg" viewBox="0 0 43.14 44.52"><defs><style>.cls-1{fill:#527c68;fill-rule:evenodd;}</style></defs><title>Asset 1</title><g id="Layer_2" data-name="Layer 2"><g id="text"><path class="cls-1" d="M29.32,11.13h2.8v4.55h-2.8V11.13ZM0,42.91H2V4.17A4.18,4.18,0,0,1,6.19,0H23.27a4.18,4.18,0,0,1,4.17,4.17V42.91H39.09V9.83a2.15,2.15,0,0,0-2.14-2.14H28.19v-2h8.76a4.18,4.18,0,0,1,4.17,4.17V42.91h2v1.61H0V42.91Zm4,0H25.41V4.17A2.15,2.15,0,0,0,23.27,2H6.19A2.15,2.15,0,0,0,4,4.17V42.91ZM34,17.57h2.87v4.55H34V17.57Zm-4.65,0h2.8v4.55h-2.8V17.57ZM34,24h2.87v4.55H34V24Zm-4.65,0h2.8v4.55h-2.8V24ZM18.44,35.75H15.58v5.69h2.87V35.75Zm-8.89,0H6.47v5.69H9.55V35.75ZM34,36.9h2.87v4.55H34V36.9Zm-4.65,0h2.8v4.55h-2.8V36.9ZM34,30.45h2.87V35H34V30.45Zm-4.65,0h2.8V35h-2.8V30.45Zm-6.21-2.28H20v5.69h3.09V28.17Zm-4.67,0H15.58v5.69h2.87V28.17Zm-4.45,0H11.13v5.69H14V28.17Zm-4.45,0H6.47v5.69H9.55V28.17Zm13.56-7.58H20v5.69h3.09V20.59Zm-4.67,0H15.58v5.69h2.87V20.59Zm-4.45,0H11.13v5.69H14V20.59ZM23.11,13H20v5.69h3.09V13Zm-4.67,0H15.58v5.69h2.87V13ZM14,13H11.13v5.69H14V13ZM9.55,13H6.47v5.69H9.55V13ZM23.11,5.43H20v5.69h3.09V5.43ZM14,5.43H11.13v5.69H14V5.43Zm-4.45,0H6.47v5.69H9.55V5.43ZM23.11,35.75H20v5.69h3.09V35.75Z"/></g></g></svg>