<svg xmlns="http://www.w3.org/2000/svg" viewBox="0 0 28.64 39.26"><defs><style>.cls-1{fill:#527c68;}</style></defs><title>Asset 4</title><g id="Layer_2" data-name="Layer 2"><g id="text"><path class="cls-1" d="M14.32,39.26a1.38,1.38,0,0,1-1.09-.53s-3.31-4.22-6.54-9.22C2.25,22.65,0,17.54,0,14.32a14.32,14.32,0,1,1,28.64,0c0,3.22-2.25,8.33-6.69,15.2-3.23,5-6.51,9.18-6.54,9.22A1.38,1.38,0,0,1,14.32,39.26Zm0-36.49A11.56,11.56,0,0,0,2.77,14.32c0,4.94,7.54,16,11.55,21.28,4-5.33,11.55-16.35,11.55-21.28A11.56,11.56,0,0,0,14.32,2.77ZM14.37,21a6.53,6.53,0,1,1,6.54-6.53A6.54,6.54,0,0,1,14.37,21Zm0-10.29a3.76,3.76,0,1,0,3.77,3.76A3.77,3.77,0,0,0,14.37,10.7Z"/></g></g></svg>