<svg xmlns="http://www.w3.org/2000/svg" viewBox="0 0 54.38 25.91"><defs><style>.cls-1{fill:none;stroke:#527c68;stroke-linejoin:round;stroke-width:2px;}</style></defs><title>Asset 9</title><g id="Layer_2" data-name="Layer 2"><g id="text"><line class="cls-1" x1="41.99" y1="21.5" x2="18.08" y2="21.5"/><path class="cls-1" d="M4.42,21.5H2.14A1.14,1.14,0,0,1,1,20.36V5.55A4.55,4.55,0,0,1,5.55,1H45.41a8,8,0,0,1,8,8V20.36a1.14,1.14,0,0,1-1.14,1.14H48.83"/><circle class="cls-1" cx="7.83" cy="21.5" r="3.42"/><circle class="cls-1" cx="14.66" cy="21.5" r="3.42"/><circle class="cls-1" cx="45.41" cy="21.5" r="3.42"/><path class="cls-1" d="M42,4.42l1.75,4.68a6.83,6.83,0,0,0,6.4,4.43h3.24"/><polyline class="cls-1" points="44.27 10.11 23.77 10.11 1 10.11"/><line class="cls-1" x1="32.88" y1="1" x2="32.88" y2="8.97"/><line class="cls-1" x1="24.91" y1="1" x2="24.91" y2="8.97"/><line class="cls-1" x1="16.94" y1="1" x2="16.94" y2="8.97"/><line class="cls-1" x1="8.97" y1="1" x2="8.97" y2="8.97"/></g></g></svg>