<svg xmlns="http://www.w3.org/2000/svg" viewBox="0 0 73.46 34.62"><defs><style>.cls-1{fill:none;stroke:#fff;stroke-linejoin:round;stroke-width:2px;}</style></defs><title>Asset 1</title><g id="Layer_2" data-name="Layer 2"><g id="text"><line class="cls-1" x1="56.93" y1="28.96" x2="24.3" y2="28.96"/><path class="cls-1" d="M5.66,29H2.55A1.55,1.55,0,0,1,1,27.41V7.21A6.21,6.21,0,0,1,7.21,1H61.59A10.87,10.87,0,0,1,72.46,11.87V27.41A1.55,1.55,0,0,1,70.91,29H66.25"/><circle class="cls-1" cx="10.32" cy="28.96" r="4.66"/><circle class="cls-1" cx="19.64" cy="28.96" r="4.66"/><circle class="cls-1" cx="61.59" cy="28.96" r="4.66"/><path class="cls-1" d="M56.93,5.66,59.32,12a9.32,9.32,0,0,0,8.73,6h4.42"/><polyline class="cls-1" points="60.03 13.43 32.07 13.43 1 13.43"/><line class="cls-1" x1="44.5" y1="1" x2="44.5" y2="11.87"/><line class="cls-1" x1="33.62" y1="1" x2="33.62" y2="11.87"/><line class="cls-1" x1="22.75" y1="1" x2="22.75" y2="11.87"/><line class="cls-1" x1="11.87" y1="1" x2="11.87" y2="11.87"/></g></g></svg>