<svg xmlns="http://www.w3.org/2000/svg" viewBox="0 0 48 24"><defs><style>.cls-1{fill:none;stroke:#fff;stroke-linejoin:round;stroke-width:2px;}</style></defs><title>Asset 3</title><g id="Layer_2" data-name="Layer 2"><g id="text"><path class="cls-1" d="M15.09,19c5,0,12,0,17,0"/><path class="cls-1" d="M41,19h6V13c0-2.34-6.83-5.25-12-6-3.88-3.69-7.33-6-11.11-6H16.09C11.93,1,9.54,4,5.28,7H2.09a19,19,0,0,0-.88,8.94A3.67,3.67,0,0,0,5.09,19H6"/><polyline class="cls-1" points="32.09 8.2 30.09 9 14.09 9 11.09 6"/><circle class="cls-1" cx="36.59" cy="18.5" r="4.5"/><circle class="cls-1" cx="10.59" cy="18.5" r="4.5"/></g></g></svg>