<svg xmlns="http://www.w3.org/2000/svg" viewBox="0 0 36.29 36.29"><defs><style>.cls-1{fill:#fff;}</style></defs><title>Asset 39</title><g id="Layer_2" data-name="Layer 2"><g id="header_footer" data-name="header/footer"><path class="cls-1" d="M25.68,36.29H10.61A10.62,10.62,0,0,1,0,25.68V10.61A10.62,10.62,0,0,1,10.61,0H25.68A10.62,10.62,0,0,1,36.29,10.61V25.68A10.62,10.62,0,0,1,25.68,36.29ZM10.61,3.38a7.24,7.24,0,0,0-7.23,7.23V25.68a7.24,7.24,0,0,0,7.23,7.23H25.68a7.24,7.24,0,0,0,7.23-7.23V10.61a7.24,7.24,0,0,0-7.23-7.23Z"/><circle class="cls-1" cx="27.84" cy="8.47" r="2.26"/><path class="cls-1" d="M18.15,27.53a9.38,9.38,0,1,1,9.38-9.38A9.39,9.39,0,0,1,18.15,27.53Zm0-15.38a6,6,0,1,0,6,6A6,6,0,0,0,18.15,12.15Z"/></g></g></svg>