<svg xmlns="http://www.w3.org/2000/svg" viewBox="0 0 48 36.01"><defs><style>.cls-1,.cls-2{fill:none;stroke:#fff;stroke-linejoin:round;stroke-width:2px;}.cls-2{stroke-linecap:round;}</style></defs><title>Asset 4</title><g id="Layer_2" data-name="Layer 2"><g id="text"><path class="cls-1" d="M0,19H29c4.21,0,10.08,3.78,12,5,2.75,1.75,5.92,3.67,5.92,6,0,2-3,5-7.92,5H5"/><path class="cls-1" d="M25,19l3.3,4.4A9,9,0,0,0,35.5,27H38a7.65,7.65,0,0,0,5-2"/><path class="cls-2" d="M24,27H23a2,2,0,0,1-1.56-.75L18,22"/><path class="cls-2" d="M16,27H15a2,2,0,0,1-1.56-.75L10,22"/><path class="cls-2" d="M8,27H7a2,2,0,0,1-1.56-.75L2,22"/><path class="cls-1" d="M48,11H40.17a3,3,0,0,0-2.68-1.83,2.88,2.88,0,0,0-1.08.18A4.73,4.73,0,0,0,32,6.28,5.18,5.18,0,0,0,27.25,11H22"/><line class="cls-1" x1="20" y1="11.01" x2="18" y2="11.01"/><line class="cls-1" x1="16" y1="11.01" x2="14" y2="11.01"/><path class="cls-1" d="M24,5H21a4,4,0,0,0-3.67-1.85A4.2,4.2,0,0,0,13.81,1,4.23,4.23,0,0,0,9.68,5H0"/></g></g></svg>