<svg xmlns="http://www.w3.org/2000/svg" viewBox="0 0 41.83 34"><defs><style>.cls-1{fill:#fff;}</style></defs><title>Asset 1</title><g id="Layer_2" data-name="Layer 2"><g id="header_footer" data-name="header/footer"><path class="cls-1" d="M41.83,4A17.17,17.17,0,0,1,36.9,5.38,8.6,8.6,0,0,0,40.67.63a17.15,17.15,0,0,1-5.45,2.08A8.59,8.59,0,0,0,20.6,10.54a24.36,24.36,0,0,1-17.69-9A8.6,8.6,0,0,0,5.57,13,8.57,8.57,0,0,1,1.68,12v.11a8.58,8.58,0,0,0,6.89,8.42,8.38,8.38,0,0,1-2.26.3,8.51,8.51,0,0,1-1.61-.15,8.59,8.59,0,0,0,8,6A17.22,17.22,0,0,1,2,30.26a17.49,17.49,0,0,1-2-.12A24.3,24.3,0,0,0,13.15,34C28.94,34,37.57,20.92,37.57,9.58c0-.37,0-.74,0-1.11A17.38,17.38,0,0,0,41.83,4"/></g></g></svg>