<!-- Generator: Adobe Illustrator 21.0.0, SVG Export Plug-In  -->
<svg version="1.1"
	 xmlns="http://www.w3.org/2000/svg" xmlns:xlink="http://www.w3.org/1999/xlink" xmlns:a="http://ns.adobe.com/AdobeSVGViewerExtensions/3.0/"
	 x="0px" y="0px" width="65.7px" height="65.8px" viewBox="0 0 65.7 65.8" style="enable-background:new 0 0 65.7 65.8;"
	 xml:space="preserve">
<style type="text/css">
	.st0{fill:none;stroke:#527C68;stroke-width:2.8234;stroke-miterlimit:10;}
	.st1{fill:none;stroke:#527C68;stroke-width:2.8234;stroke-linecap:round;stroke-linejoin:round;stroke-miterlimit:10;}
</style>
<defs>
</defs>
<g id="call_2_">
	<path class="st0" d="M1.9,4.7c-0.6,1-0.5,2.3-0.3,3.8c2.5,14.3,9.4,27,19.1,36.7c9.7,9.7,22.8,16.9,36.6,19
		c1.4,0.2,2.8,0.3,3.8-0.3c0.3-0.2,0.8-0.6,0.9-1.1l2.3-10.2c0.2-0.9-0.1-1.8-0.9-2.5c-0.3-0.3-8-3.1-11.7-4.9
		c-1.5-0.7-3.2-0.3-4,0.9l-1.4,2.4c-0.5,0.8-1.3,1.4-2.2,1.7c-3.6,0.9-14.6-9.2-17-11.6c-2.5-2.5-13-13.8-12.1-17.3
		c0.2-0.9,0.8-1.7,1.7-2.2c2.1-1.2,1.5-0.9,2.4-1.4c1.2-0.7,1.7-2.5,0.9-4c-1.6-3.3-2.5-6.3-3.5-9.8c-0.5-1.5-1.9-2.7-3.4-2.4
		c0,0-0.2,0-10.2,2.3C2.4,3.9,2.1,4.4,1.9,4.7z"/>
	<path class="st1" d="M32.8,9.9c11.1,0,20.1,9,20.1,20.1"/>
	<path class="st1" d="M32.8,1.4c15.8,0,28.6,12.8,28.6,28.6"/>
</g>
</svg>
